<?xml version="1.0" encoding="utf-8"?>
<!-- Generator: Adobe Illustrator 16.0.0, SVG Export Plug-In . SVG Version: 6.00 Build 0)  -->
<!DOCTYPE svg PUBLIC "-//W3C//DTD SVG 1.1//EN" "http://www.w3.org/Graphics/SVG/1.1/DTD/svg11.dtd">
<svg version="1.1" id="Layer_1" xmlns="http://www.w3.org/2000/svg" xmlns:xlink="http://www.w3.org/1999/xlink" x="0px" y="0px"
	 width="44.790039px" height="50px" viewBox="0 0 44.790039 50" style="enable-background:new 0 0 44.790039 50;"
	 xml:space="preserve">
<g id="auth0">
	<path id="Shape" style="fill:#EB5625;" d="M35.555664,40.455078L30.52832,25.003906l13.158203-9.547852H27.420898
		L22.394043,0.003906L22.393066,0H38.65918l5.029297,15.455078v-0.000977l0.003906-0.001953
		C46.612305,24.417969,43.606445,34.614258,35.555664,40.455078L35.555664,40.455078L35.555664,40.455078z M9.222168,40.453125
		l-0.004883,0.003906l13.150391,9.541016l13.152832-9.544922l-13.148926-9.541016L9.222168,40.453125L9.222168,40.453125
		L9.222168,40.453125z M1.101074,15.451172L1.101074,15.451172c-3.073242,9.451172,0.494141,19.464844,8.130859,25.003906
		l0.000977-0.003906L14.260254,25l-13.15332-9.544922h16.258789L22.39209,0.003906L22.393066,0H6.126465L1.101074,15.451172
		L1.101074,15.451172L1.101074,15.451172z"/>
</g>
<g>
</g>
<g>
</g>
<g>
</g>
<g>
</g>
<g>
</g>
<g>
</g>
</svg>
