<?xml version="1.0" encoding="utf-8"?>
<!-- Generator: Adobe Illustrator 16.0.0, SVG Export Plug-In . SVG Version: 6.00 Build 0)  -->
<!DOCTYPE svg PUBLIC "-//W3C//DTD SVG 1.1//EN" "http://www.w3.org/Graphics/SVG/1.1/DTD/svg11.dtd">
<svg version="1.1" id="Layer_1" xmlns="http://www.w3.org/2000/svg" xmlns:xlink="http://www.w3.org/1999/xlink" x="0px" y="0px"
	 width="60.030273px" height="50px" viewBox="0 0 60.030273 50" style="enable-background:new 0 0 60.030273 50;"
	 xml:space="preserve">
<g id="Materials_Theme_Generator">
	<path style="fill-rule:evenodd;clip-rule:evenodd;fill:#218541;" d="M44.268555,0.000488c5.206055,0,10.411133,0,15.616211,0
		c0,10.835938,0.00293,21.673828-0.012695,32.509277c-0.000977,0.376953-0.113281,0.802734-0.305664,1.125
		c-3.123047,5.212891-6.275391,10.40625-9.390625,15.623047c-0.291016,0.486328-0.598633,0.609375-1.125977,0.609375
		c-11.290039-0.013672-22.580078-0.009766-33.870117-0.011719c-0.238281,0-0.476563-0.013672-0.714844-0.021484
		c0.15332-0.269531,0.300781-0.541016,0.460938-0.806641c5.036133-8.363281,10.073242-16.724609,15.110352-25.085449
		c0,3.278809,0,6.556152,0,9.82959c0.945313,0,1.767578,0,2.65332,0c0-3.941406,0-7.841309,0-11.800293c1.9375,0,3.8125,0,5.6875,0
		c0-0.899414,0-1.739258,0-2.636719c-1.890625,0-3.724609,0-5.55957,0c3.751953-6.224609,7.504883-12.449219,11.25-18.677734
		C44.180664,0.465332,44.203125,0.220215,44.268555,0.000488z M51.967773,31.208984c-2.612305,0-5.18457,0.003906-7.756836-0.003906
		c-1.09668-0.001953-1.398438-0.308594-1.401367-1.40625c-0.005859-2.076172-0.00293-4.152832-0.001953-6.22998
		c0.000977-1.382813,0.182617-1.570313,1.552734-1.572266c3.103516-0.001953,6.207031,0,9.30957,0c0.253906,0,0.507813,0,0.763672,0
		c0-0.925781,0-1.765625,0-2.620117c-3.638672,0-7.217773-0.041992-10.795898,0.016602
		c-1.982422,0.033203-3.332031,1.34082-3.416016,3.416992c-0.106445,2.620117-0.078125,5.250488,0.027344,7.869629
		c0.071289,1.763672,1.62793,3.111328,3.417969,3.125c3.150391,0.023438,6.300781,0.013672,9.452148,0.003906
		c0.998047-0.003906,1.481445-0.501953,1.486328-1.505859c0.009766-1.71875,0.003906-3.4375,0.00293-5.15625
		c0-1.536621-0.31543-1.86084-1.826172-1.862793c-2.338867-0.00293-4.678711-0.001953-7.017578,0.000977
		c-0.232422,0-0.463867,0.018555-0.708008,0.030273c0,0.882324,0,1.706543,0,2.593262c2.318359,0,4.597656,0,6.911133,0
		C51.967773,29.011719,51.967773,30.054688,51.967773,31.208984z"/>
	<path style="fill-rule:evenodd;clip-rule:evenodd;fill:#020202;" d="M30.036133,23.941895
		c-5.037109,8.36084-10.074219,16.722168-15.110352,25.085449c-0.160156,0.265625-0.307617,0.537109-0.460938,0.806641
		C9.643555,49.841797,4.821289,49.849609,0,49.857422c0-11.460938,0-22.923828,0-34.384277
		c0.109375-0.148438,0.232422-0.289063,0.327148-0.445313c2.577148-4.271484,5.154297-8.541016,7.724609-12.816406
		c0.436523-0.726563,0.84082-1.473633,1.259766-2.210938c11.652344,0,23.305664,0,34.957031,0
		c-0.06543,0.219727-0.087891,0.464844-0.201172,0.65625c-3.745117,6.228516-7.498047,12.453125-11.25,18.677734
		c-2.84082,0-5.681641,0-8.511719,0c0,0.964844,0,1.783203,0,2.683594c1.935547,0,3.823242,0,5.730469,0
		C30.036133,22.713379,30.036133,23.32666,30.036133,23.941895z M8.181641,25.308105
		c0.19043,0.313477,0.298828,0.485352,0.400391,0.661133c1.334961,2.335449,2.676758,4.66748,3.99707,7.01123
		c0.308594,0.548828,0.645508,1.013672,1.34082,1.017578c0.724609,0.003906,1.076172-0.474609,1.396484-1.046875
		c1.302734-2.326172,2.62793-4.640625,3.946289-6.956543c0.097656-0.171875,0.21582-0.332031,0.324219-0.496094
		c0.043945,0.010742,0.087891,0.022461,0.131836,0.03418c0,2.750488,0,5.500488,0,8.227051c0.927734,0,1.773438,0,2.628906,0
		c0-1.150391,0-2.248047,0-3.345703c0-3.246094-0.004883-6.493652,0.003906-9.741699
		c0.001953-0.699219-0.272461-1.209961-0.93457-1.447266c-0.598633-0.214844-1.214844,0.087891-1.623047,0.738281
		c-0.0625,0.101563-0.116211,0.208008-0.174805,0.311523c-1.438477,2.496094-2.875,4.993164-4.314453,7.48877
		c-0.443359,0.769531-0.890625,1.535156-1.382813,2.382813c-0.808594-1.400391-1.568359-2.716797-2.328125-4.033203
		c-1.189453-2.062012-2.367188-4.130371-3.572266-6.184082c-0.558594-0.952148-1.77832-1.033203-2.264648-0.146484
		c-0.170898,0.311523-0.205078,0.729492-0.206055,1.098633c-0.015625,3.271484-0.008789,6.54248-0.008789,9.812012
		c0,1.021484,0,2.041016,0,3.072266c0.900391,0,1.743164,0,2.639648,0C8.181641,30.970703,8.181641,28.21875,8.181641,25.308105z"/>
	<path style="fill-rule:evenodd;clip-rule:evenodd;fill:none;" d="M0,49.857422
		c4.821289-0.007813,9.643555-0.015625,14.464844-0.023438c0.238281,0.007813,0.476563,0.021484,0.714844,0.021484
		c11.290039,0.001953,22.580078-0.001953,33.870117,0.011719c0.527344,0,0.834961-0.123047,1.125977-0.609375
		c3.115234-5.216797,6.267578-10.410156,9.390625-15.623047c0.192383-0.322266,0.304688-0.748047,0.305664-1.125
		c0.015625-10.835449,0.012695-21.67334,0.012695-32.509277c0.047852,0.214844,0.137695,0.429688,0.137695,0.644531
		c0.006836,10.673828,0.005859,21.34668,0.005859,32.019043c0,5.779297,0,11.558594,0,17.335938
		c-19.794922,0-39.589844,0-59.383789-0.005859C0.429688,49.994141,0.214844,49.904297,0,49.857422z"/>
	<path style="fill-rule:evenodd;clip-rule:evenodd;fill:none;" d="M9.311523,0.000488
		C8.892578,0.737793,8.488281,1.484863,8.051758,2.211426c-2.570313,4.275391-5.147461,8.544922-7.724609,12.816406
		C0.232422,15.184082,0.109375,15.324707,0,15.473145C0,10.330566,0,5.187988,0,0.000488
		C3.103516,0.000488,6.208008,0.000488,9.311523,0.000488z"/>
	<path style="fill-rule:evenodd;clip-rule:evenodd;fill:none;" d="M51.967773,31.208984c0-1.154297,0-2.197266,0-3.300781
		c-2.313477,0-4.592773,0-6.911133,0c0-0.886719,0-1.710938,0-2.593262c0.244141-0.011719,0.475586-0.030273,0.708008-0.030273
		c2.338867-0.00293,4.678711-0.003906,7.017578-0.000977c1.510742,0.001953,1.826172,0.326172,1.826172,1.862793
		c0.000977,1.71875,0.006836,3.4375-0.00293,5.15625c-0.004883,1.003906-0.488281,1.501953-1.486328,1.505859
		c-3.151367,0.009766-6.301758,0.019531-9.452148-0.003906c-1.790039-0.013672-3.34668-1.361328-3.417969-3.125
		c-0.105469-2.619141-0.133789-5.249512-0.027344-7.869629c0.083984-2.076172,1.433594-3.383789,3.416016-3.416992
		c3.578125-0.058594,7.157227-0.016602,10.795898-0.016602c0,0.854492,0,1.694336,0,2.620117c-0.255859,0-0.509766,0-0.763672,0
		c-3.102539,0-6.206055-0.001953-9.30957,0c-1.370117,0.001953-1.551758,0.189453-1.552734,1.572266
		c-0.000977,2.077148-0.003906,4.153809,0.001953,6.22998c0.00293,1.097656,0.304688,1.404297,1.401367,1.40625
		C46.783203,31.212891,49.355469,31.208984,51.967773,31.208984z"/>
	<path style="fill-rule:evenodd;clip-rule:evenodd;fill:none;" d="M30.036133,23.941895c0-0.615234,0-1.228516,0-1.923828
		c-1.907227,0-3.794922,0-5.730469,0c0-0.900391,0-1.71875,0-2.683594c2.830078,0,5.670898,0,8.511719,0
		c1.834961,0,3.668945,0,5.55957,0c0,0.897461,0,1.737305,0,2.636719c-1.875,0-3.75,0-5.6875,0c0,3.958984,0,7.858887,0,11.800293
		c-0.885742,0-1.708008,0-2.65332,0C30.036133,30.498047,30.036133,27.220703,30.036133,23.941895z"/>
	<path style="fill-rule:evenodd;clip-rule:evenodd;fill:none;" d="M8.181641,25.308105c0,2.910645,0,5.662598,0,8.45752
		c-0.896484,0-1.739258,0-2.639648,0c0-1.03125,0-2.050781,0-3.072266c0-3.269531-0.006836-6.540527,0.008789-9.812012
		c0.000977-0.369141,0.035156-0.787109,0.206055-1.098633c0.486328-0.886719,1.706055-0.805664,2.264648,0.146484
		c1.205078,2.053711,2.382813,4.12207,3.572266,6.184082c0.759766,1.316406,1.519531,2.632813,2.328125,4.033203
		c0.492188-0.847656,0.939453-1.613281,1.382813-2.382813c1.439453-2.495605,2.875977-4.992676,4.314453-7.48877
		c0.058594-0.103516,0.112305-0.209961,0.174805-0.311523c0.408203-0.650391,1.024414-0.953125,1.623047-0.738281
		c0.662109,0.237305,0.936523,0.748047,0.93457,1.447266c-0.008789,3.248047-0.003906,6.495605-0.003906,9.741699
		c0,1.097656,0,2.195313,0,3.345703c-0.855469,0-1.701172,0-2.628906,0c0-2.726563,0-5.476563,0-8.227051
		c-0.043945-0.011719-0.087891-0.023438-0.131836-0.03418c-0.108398,0.164063-0.226563,0.324219-0.324219,0.496094
		c-1.318359,2.315918-2.643555,4.630371-3.946289,6.956543c-0.320313,0.572266-0.671875,1.050781-1.396484,1.046875
		c-0.695313-0.003906-1.032227-0.46875-1.34082-1.017578c-1.320313-2.34375-2.662109-4.675781-3.99707-7.01123
		C8.480469,25.793457,8.37207,25.621582,8.181641,25.308105z"/>
</g>
<g>
</g>
<g>
</g>
<g>
</g>
<g>
</g>
<g>
</g>
<g>
</g>
</svg>
