<?xml version="1.0" encoding="UTF-8" standalone="no"?>
<!-- Generator: Adobe Illustrator 23.0.2, SVG Export Plug-In . SVG Version: 6.00 Build 0)  -->

<svg
   xmlns:dc="http://purl.org/dc/elements/1.1/"
   xmlns:cc="http://creativecommons.org/ns#"
   xmlns:rdf="http://www.w3.org/1999/02/22-rdf-syntax-ns#"
   xmlns:svg="http://www.w3.org/2000/svg"
   xmlns="http://www.w3.org/2000/svg"
   xmlns:sodipodi="http://sodipodi.sourceforge.net/DTD/sodipodi-0.dtd"
   xmlns:inkscape="http://www.inkscape.org/namespaces/inkscape"
   version="1.1"
   id="Õ_xBA__x2264__x201E__x5F_1"
   x="0px"
   y="0px"
   viewBox="0 0 48.533627 48.528751"
   xml:space="preserve"
   sodipodi:docname="openapi.svg"
   width="48.533627"
   height="48.528751"
   inkscape:version="0.92.3 (2405546, 2018-03-11)"><metadata
   id="metadata5366"><rdf:RDF><cc:Work
       rdf:about=""><dc:format>image/svg+xml</dc:format><dc:type
         rdf:resource="http://purl.org/dc/dcmitype/StillImage" /><dc:title></dc:title></cc:Work></rdf:RDF></metadata><defs
   id="defs5364" /><sodipodi:namedview
   pagecolor="#ffffff"
   bordercolor="#666666"
   borderopacity="1"
   objecttolerance="10"
   gridtolerance="10"
   guidetolerance="10"
   inkscape:pageopacity="0"
   inkscape:pageshadow="2"
   inkscape:window-width="1920"
   inkscape:window-height="910"
   id="namedview5362"
   showgrid="false"
   fit-margin-top="0"
   fit-margin-left="0"
   fit-margin-right="0"
   fit-margin-bottom="0"
   inkscape:zoom="6.0166667"
   inkscape:cx="22.662"
   inkscape:cy="22.263"
   inkscape:window-x="0"
   inkscape:window-y="0"
   inkscape:window-maximized="1"
   inkscape:current-layer="Õ_xBA__x2264__x201E__x5F_1" />
<style
   type="text/css"
   id="style5297">
	.st0{fill:none;stroke:#2C282C;stroke-width:0.6;stroke-miterlimit:10;}
	.st1{fill:#2C282C;}
	.st2{opacity:0.35;}
	.st3{opacity:0.7;fill:#85EA2D;}
	.st4{opacity:0.8;fill:#38B832;}
	.st5{opacity:0.8;fill:#63DB2A;}
	.st6{fill:#93D500;}
	.st7{fill:#4D5A31;}
	.st8{fill:#6BA43A;}
	.st9{fill:#424143;}
</style>
<g
   id="g5359"
   transform="translate(-37.338,-33.73425)">
	<g
   id="g5355">
		<path
   class="st6"
   d="M 50.165,61.64 H 50.116 37.359 c 0.002,0.063 0.004,0.125 0.007,0.187 0.005,0.12 0.014,0.241 0.021,0.361 0.003,0.052 0.006,0.103 0.01,0.154 0.01,0.139 0.022,0.278 0.035,0.417 0.003,0.031 0.006,0.063 0.009,0.093 0.015,0.154 0.031,0.308 0.05,0.461 10e-4,0.015 0.003,0.03 0.005,0.045 0.02,0.165 0.041,0.331 0.066,0.496 0,0.002 0,0.004 0.001,0.006 0.147,1.021 0.368,2.032 0.661,3.026 0.001,0.004 0.003,0.008 0.004,0.013 0.046,0.156 0.095,0.312 0.144,0.467 0.003,0.009 0.006,0.018 0.009,0.028 0.003,0.009 0.006,0.018 0.009,0.028 0.045,0.14 0.093,0.279 0.141,0.419 0.013,0.035 0.024,0.071 0.037,0.106 0.043,0.121 0.087,0.242 0.132,0.363 0.021,0.055 0.041,0.109 0.062,0.164 0.039,0.1 0.078,0.199 0.117,0.299 0.03,0.075 0.061,0.15 0.092,0.225 0.032,0.078 0.065,0.156 0.098,0.234 0.041,0.095 0.083,0.19 0.125,0.285 0.025,0.057 0.051,0.113 0.076,0.169 0.052,0.114 0.106,0.228 0.159,0.341 0.018,0.036 0.035,0.073 0.053,0.109 0.063,0.13 0.127,0.26 0.192,0.388 0.011,0.02 0.02,0.04 0.031,0.059 0.073,0.142 0.148,0.284 0.224,0.425 0.003,0.006 0.007,0.012 0.01,0.019 0.016,0.029 0.034,0.057 0.05,0.087 l 10.937,-6.589 0.04,-0.024 C 50.533,63.59 50.264,62.623 50.165,61.64 Z"
   id="path5299"
   inkscape:connector-curvature="0"
   style="fill:#93d500" />
		<polygon
   class="st6"
   points="38.38,67.394 37.963,67.513 37.967,67.524 "
   id="polygon5301"
   style="fill:#93d500" />
		<path
   class="st7"
   d="m 53.312,67.519 -0.031,0.031 -9.02,9.021 c 0.046,0.043 0.092,0.087 0.14,0.129 0.084,0.076 0.17,0.152 0.255,0.226 0.044,0.039 0.088,0.079 0.132,0.116 0.102,0.088 0.205,0.175 0.308,0.261 0.028,0.024 0.056,0.046 0.083,0.069 0.116,0.096 0.234,0.19 0.352,0.283 0.015,0.012 0.03,0.024 0.045,0.036 0.128,0.101 0.257,0.199 0.387,0.297 0.006,0.004 0.011,0.007 0.015,0.011 0.543,0.406 1.106,0.786 1.688,1.141 0.02,0.012 0.04,0.024 0.06,0.037 0.11,0.066 0.221,0.132 0.332,0.196 0.068,0.039 0.136,0.078 0.204,0.116 0.064,0.037 0.128,0.073 0.193,0.109 0.117,0.064 0.235,0.128 0.353,0.19 0.016,0.009 0.032,0.018 0.049,0.026 0.328,0.172 0.662,0.331 0.998,0.484 v 0 l 0.32,-0.777 4.537,-11.018 0.017,-0.041 c -0.495,-0.263 -0.97,-0.577 -1.417,-0.943 z"
   id="path5303"
   inkscape:connector-curvature="0"
   style="fill:#4d5a31" />
		<path
   class="st8"
   d="m 52.372,66.621 c -0.097,-0.109 -0.19,-0.219 -0.281,-0.332 -0.08,-0.099 -0.159,-0.2 -0.234,-0.302 -0.086,-0.117 -0.171,-0.235 -0.251,-0.355 -0.08,-0.121 -0.16,-0.242 -0.234,-0.365 l -10.951,6.597 c 0.168,0.279 0.344,0.552 0.523,0.82 0.006,0.009 0.012,0.019 0.018,0.028 v 0 c 0.002,0.003 0.004,0.007 0.006,0.01 0.006,0.009 0.011,0.018 0.017,0.027 10e-4,0.001 10e-4,0.002 0.002,0.003 0.014,0.021 0.029,0.043 0.044,0.064 10e-4,10e-4 0.002,0.002 0.003,0.004 0,0 0,0 0,0 0,0.001 10e-4,0.001 10e-4,0.002 0.19,0.281 0.385,0.558 0.587,0.828 0.004,0.006 0.009,0.012 0.013,0.017 0.004,0.006 0.009,0.011 0.013,0.017 0.087,0.116 0.175,0.232 0.266,0.347 0.012,0.015 0.024,0.03 0.036,0.045 0.093,0.119 0.187,0.236 0.283,0.352 0.023,0.028 0.046,0.055 0.069,0.083 0.087,0.104 0.173,0.206 0.262,0.309 0.038,0.044 0.077,0.088 0.115,0.131 0.075,0.086 0.15,0.171 0.227,0.256 0.042,0.046 0.086,0.093 0.129,0.139 0.02,0.021 0.039,0.042 0.058,0.063 0.056,0.061 0.112,0.121 0.169,0.181 0.023,0.024 0.046,0.047 0.069,0.071 0.1,0.104 0.2,0.208 0.303,0.31 l 9.034,-9.034 c -0.103,-0.103 -0.199,-0.209 -0.296,-0.316 z"
   id="path5305"
   inkscape:connector-curvature="0"
   style="fill:#6ba43a" />
		<path
   class="st7"
   d="m 64.347,67.514 c -0.099,0.08 -0.2,0.159 -0.302,0.234 l 0.023,0.038 6.586,10.933 c 0.305,-0.199 0.606,-0.404 0.901,-0.62 0.637,-0.47 1.254,-0.979 1.849,-1.528 L 64.383,67.55 Z"
   id="path5307"
   inkscape:connector-curvature="0"
   style="fill:#4d5a31" />
		<path
   class="st6"
   d="m 69.822,79.24 c 0.005,-0.003 0.01,-0.005 0.015,-0.008 v -0.001 c -0.006,0.003 -0.01,0.006 -0.015,0.009 z"
   id="path5309"
   inkscape:connector-curvature="0"
   style="fill:#93d500" />
		<polygon
   class="st6"
   points="69.815,79.244 69.816,79.244 "
   id="polygon5311"
   style="fill:#93d500" />
		<path
   class="st6"
   d="m 69.836,79.232 v 0 c 0.029,-0.016 0.058,-0.031 0.086,-0.048 L 69.92,79.181 c -0.028,0.017 -0.056,0.034 -0.084,0.051 z"
   id="path5313"
   inkscape:connector-curvature="0"
   style="fill:#93d500" />
		<polygon
   class="st6"
   points="69.822,79.24 69.818,79.242 69.822,79.24 "
   id="polygon5315"
   style="fill:#93d500" />
		<polygon
   class="st6"
   points="69.799,79.217 69.815,79.244 "
   id="polygon5317"
   style="fill:#93d500" />
		<path
   class="st6"
   d="m 69.822,79.24 v 0 c 0.005,-0.003 0.01,-0.005 0.015,-0.008 v 0 c -0.005,0.003 -0.01,0.005 -0.015,0.008 z"
   id="path5319"
   inkscape:connector-curvature="0"
   style="fill:#93d500" />
		<polygon
   class="st6"
   points="69.813,79.245 69.813,79.245 69.81,79.247 "
   id="polygon5321"
   style="fill:#93d500" />
		<polygon
   class="st6"
   points="69.813,79.245 69.815,79.244 69.813,79.245 "
   id="polygon5323"
   style="fill:#93d500" />
		<polygon
   class="st6"
   points="69.816,79.244 69.822,79.241 69.822,79.24 69.818,79.242 69.815,79.244 "
   id="polygon5325"
   style="fill:#93d500" />
		<path
   class="st6"
   d="m 69.837,79.232 c 0.028,-0.017 0.058,-0.031 0.086,-0.048 -0.029,0.017 -0.058,0.032 -0.086,0.048 z"
   id="path5327"
   inkscape:connector-curvature="0"
   style="fill:#93d500" />
		<polygon
   class="st6"
   points="69.921,79.181 69.922,79.184 69.921,79.181 "
   id="polygon5329"
   style="fill:#93d500" />
		<rect
   x="69.809998"
   y="79.247002"
   transform="matrix(0.8321,-0.5547,0.5547,0.8321,-32.234,52.033)"
   class="st6"
   width="0"
   height="0"
   id="rect5331"
   style="fill:#93d500" />
		<polygon
   class="st6"
   points="69.807,79.249 69.806,79.249 69.807,79.249 "
   id="polygon5333"
   style="fill:#93d500" />
		<polygon
   class="st6"
   points="69.807,79.249 69.81,79.247 69.81,79.247 69.809,79.247 69.807,79.249 "
   id="polygon5335"
   style="fill:#93d500" />
		<path
   class="st6"
   d="M 69.697,78.81 69.474,78.439 63.326,68.233 c -0.124,0.075 -0.252,0.143 -0.379,0.211 -0.128,0.069 -0.258,0.133 -0.388,0.195 -1.181,0.56 -2.46,0.846 -3.74,0.846 -0.839,0 -1.677,-0.121 -2.488,-0.363 -0.138,-0.041 -0.273,-0.095 -0.409,-0.144 -0.136,-0.048 -0.275,-0.09 -0.409,-0.145 l -4.534,11.01 -0.178,0.432 -0.152,0.37 -10e-4,0.002 c 0.012,0.005 0.024,0.009 0.035,0.014 0.012,0.005 0.025,0.009 0.037,0.014 v 0 c 0,0 10e-4,0 10e-4,0 0.003,0.001 0.006,0.002 0.009,0.003 0.107,0.044 0.215,0.082 0.322,0.123 0.135,0.052 0.27,0.106 0.405,0.155 0.069,0.025 0.137,0.055 0.206,0.079 v 0 0 c 1.42,0.502 2.89,0.853 4.384,1.049 0.058,0.007 0.116,0.015 0.175,0.023 0.061,0.007 0.123,0.013 0.184,0.02 0.115,0.013 0.23,0.026 0.346,0.038 0.029,0.002 0.057,0.005 0.086,0.007 0.142,0.013 0.283,0.025 0.424,0.035 0.048,0.004 0.096,0.006 0.144,0.009 0.124,0.008 0.248,0.016 0.372,0.022 0.076,0.004 0.152,0.006 0.228,0.009 0.098,0.004 0.196,0.007 0.296,0.01 0.142,0.004 0.285,0.005 0.427,0.005 0.034,0 0.067,0.001 0.101,0.001 1.194,0 2.387,-0.099 3.567,-0.297 v 0 c 0.02,-0.003 0.039,-0.006 0.06,-0.009 0.125,-0.022 0.249,-0.045 0.374,-0.068 0.071,-0.014 0.142,-0.027 0.213,-0.041 0.073,-0.015 0.146,-0.03 0.219,-0.046 0.122,-0.026 0.243,-0.052 0.365,-0.08 0.022,-0.005 0.044,-0.009 0.066,-0.015 1.794,-0.418 3.527,-1.066 5.155,-1.922 h 10e-4 v 0 c 0.106,-0.056 0.211,-0.12 0.317,-0.178 0.126,-0.069 0.252,-0.141 0.378,-0.213 0.087,-0.05 0.175,-0.096 0.261,-0.147 0,0 0,0 0,0 0.001,-0.001 0.002,-0.001 0.003,-0.002 0,0 0,0 0,0 v 0 c 0.001,-0.001 0.002,-0.001 0.004,-0.002 10e-4,0 10e-4,-10e-4 0.002,-10e-4 l -0.016,-0.027 0.016,0.027 c 0.001,-0.001 0.002,-0.001 0.002,-0.001 0.001,-0.001 0.002,-0.001 0.004,-0.002 0.005,-0.003 0.01,-0.006 0.014,-0.009 0.028,-0.017 0.056,-0.034 0.085,-0.051 v 0 z"
   id="path5337"
   inkscape:connector-curvature="0"
   style="fill:#93d500" />
		<path
   class="st6"
   d="m 53.317,54.033 c 0.099,-0.08 0.2,-0.159 0.302,-0.234 L 53.596,53.761 47.01,42.828 c -0.306,0.2 -0.608,0.406 -0.903,0.622 -0.637,0.469 -1.253,0.978 -1.847,1.526 l 9.021,9.021 z"
   id="path5339"
   inkscape:connector-curvature="0"
   style="fill:#93d500" />
		<path
   class="st7"
   d="m 43.635,45.577 c -0.103,0.103 -0.2,0.209 -0.3,0.313 -0.1,0.104 -0.202,0.207 -0.3,0.313 -0.666,0.721 -1.276,1.477 -1.825,2.262 -0.026,0.037 -0.053,0.076 -0.079,0.113 -0.062,0.09 -0.123,0.18 -0.183,0.271 -0.063,0.094 -0.125,0.189 -0.186,0.284 -0.023,0.035 -0.046,0.07 -0.068,0.104 -2.075,3.255 -3.187,6.947 -3.336,10.67 -0.006,0.144 -0.009,0.289 -0.012,0.433 -0.003,0.144 -0.008,0.289 -0.008,0.433 h 12.776 c 0,-0.145 0.014,-0.289 0.021,-0.433 0.007,-0.145 0.009,-0.289 0.024,-0.433 0.165,-1.664 0.807,-3.288 1.927,-4.653 0.091,-0.111 0.194,-0.215 0.291,-0.322 0.097,-0.107 0.187,-0.218 0.291,-0.322 z"
   id="path5341"
   inkscape:connector-curvature="0"
   style="fill:#4d5a31" />
		<path
   class="st7"
   d="m 69.996,42.405 c -0.017,-0.011 -0.035,-0.021 -0.053,-0.032 -0.112,-0.069 -0.226,-0.135 -0.339,-0.202 -0.066,-0.038 -0.132,-0.075 -0.198,-0.113 -0.067,-0.037 -0.133,-0.074 -0.2,-0.111 -0.115,-0.063 -0.231,-0.126 -0.347,-0.187 -0.018,-0.009 -0.036,-0.019 -0.055,-0.029 -0.749,-0.392 -1.518,-0.737 -2.304,-1.036 -0.02,-0.008 -0.041,-0.016 -0.061,-0.024 -0.171,-0.064 -0.343,-0.128 -0.515,-0.188 -1.395,-0.487 -2.839,-0.829 -4.305,-1.022 -0.06,-0.008 -0.12,-0.017 -0.18,-0.024 -0.06,-0.007 -0.12,-0.013 -0.18,-0.02 C 61.143,39.404 61.028,39.391 60.912,39.379 60.88,39.376 60.847,39.374 60.815,39.37 60.678,39.357 60.54,39.345 60.402,39.336 60.349,39.332 60.295,39.329 60.241,39.326 60.123,39.318 60.004,39.31 59.886,39.305 59.823,39.302 59.76,39.3 59.698,39.298 l -10e-4,12.757 v 0.05 c 0.657,0.068 1.308,0.208 1.94,0.422 l 9.425,-9.425 c -0.348,-0.24 -0.702,-0.475 -1.066,-0.697 z"
   id="path5343"
   inkscape:connector-curvature="0"
   style="fill:#4d5a31" />
		<polygon
   class="st8"
   points="47.744,42.366 47.967,42.738 47.744,42.366 "
   id="polygon5345"
   style="fill:#6ba43a" />
		<polygon
   class="st8"
   points="47.744,42.366 47.742,42.364 47.744,42.366 "
   id="polygon5347"
   style="fill:#6ba43a" />
		<path
   class="st8"
   d="m 58.399,39.291 c -0.144,0.003 -0.289,0.003 -0.433,0.009 -0.904,0.036 -1.806,0.129 -2.701,0.278 -0.02,0.003 -0.039,0.006 -0.059,0.01 -0.126,0.022 -0.25,0.044 -0.375,0.068 -0.07,0.013 -0.142,0.027 -0.212,0.041 -0.074,0.015 -0.147,0.03 -0.22,0.046 -0.121,0.025 -0.243,0.052 -0.364,0.08 v 0 c -0.022,0.005 -0.044,0.01 -0.066,0.015 -1.794,0.418 -3.528,1.066 -5.155,1.923 0,0 0,0 0,0 v 0 c -0.106,0.056 -0.21,0.12 -0.316,0.178 -0.126,0.069 -0.252,0.141 -0.378,0.213 -0.093,0.054 -0.188,0.103 -0.281,0.158 -10e-4,10e-4 -0.002,10e-4 -0.003,0.002 0,0 0,0 0,0 -0.006,0.004 -0.013,0.007 -0.02,0.011 -0.024,0.015 -0.049,0.027 -0.073,0.041 l 10e-4,0.002 0.224,0.371 v 0 l 6.371,10.577 c 0.124,-0.075 0.252,-0.143 0.379,-0.211 0.128,-0.069 0.257,-0.133 0.388,-0.196 0.91,-0.433 1.877,-0.702 2.86,-0.802 0.144,-0.015 0.289,-0.027 0.433,-0.034 0.144,-0.007 0.289,-0.015 0.433,-0.015 L 58.833,39.28 c -0.145,0.002 -0.29,0.008 -0.434,0.011 z"
   id="path5349"
   inkscape:connector-curvature="0"
   style="fill:#6ba43a" />
		<path
   class="st7"
   d="M 80.298,59.717 C 80.292,59.602 80.285,59.488 80.277,59.373 80.274,59.316 80.27,59.259 80.266,59.201 80.257,59.066 80.245,58.931 80.233,58.796 80.23,58.761 80.227,58.726 80.224,58.691 80.209,58.54 80.193,58.39 80.176,58.239 80.174,58.227 80.173,58.215 80.172,58.203 80.171,58.197 80.171,58.191 80.17,58.186 c -0.02,-0.163 -0.041,-0.325 -0.064,-0.487 0,-0.005 -10e-4,-0.011 -0.002,-0.015 -0.147,-1.019 -0.367,-2.028 -0.66,-3.021 C 79.442,54.656 79.44,54.65 79.438,54.644 79.392,54.49 79.345,54.337 79.296,54.183 79.289,54.163 79.283,54.143 79.277,54.122 79.232,53.984 79.186,53.846 79.138,53.709 79.125,53.672 79.112,53.635 79.099,53.597 79.057,53.478 79.014,53.359 78.969,53.241 78.948,53.184 78.926,53.128 78.904,53.072 78.867,52.974 78.828,52.875 78.789,52.778 78.758,52.7 78.726,52.623 78.695,52.547 78.664,52.471 78.632,52.395 78.6,52.319 78.558,52.222 78.516,52.125 78.472,52.028 78.448,51.974 78.423,51.919 78.398,51.864 78.345,51.749 78.291,51.633 78.236,51.518 78.219,51.483 78.203,51.448 78.186,51.413 78.122,51.282 78.058,51.151 77.992,51.02 77.983,51.002 77.973,50.984 77.964,50.966 77.89,50.823 77.815,50.679 77.738,50.537 77.735,50.532 77.733,50.527 77.73,50.522 77.358,49.837 76.949,49.175 76.507,48.538 l -9.428,9.429 c 0.215,0.632 0.354,1.283 0.422,1.94 h 0.05 12.757 c -0.005,-0.063 -0.007,-0.127 -0.01,-0.19 z"
   id="path5351"
   inkscape:connector-curvature="0"
   style="fill:#4d5a31" />
		<path
   class="st8"
   d="m 67.548,60.773 c 0,0.145 -0.014,0.289 -0.021,0.433 -0.007,0.145 -0.009,0.289 -0.024,0.433 -0.165,1.664 -0.807,3.289 -1.927,4.653 -0.091,0.111 -0.194,0.215 -0.291,0.322 -0.097,0.107 -0.187,0.218 -0.291,0.322 l 9.034,9.034 c 0.103,-0.103 0.199,-0.209 0.3,-0.313 0.1,-0.104 0.202,-0.207 0.3,-0.313 0.668,-0.724 1.279,-1.482 1.83,-2.269 0.022,-0.031 0.043,-0.062 0.064,-0.093 0.067,-0.096 0.132,-0.194 0.198,-0.291 0.057,-0.087 0.115,-0.174 0.171,-0.262 0.028,-0.042 0.055,-0.086 0.082,-0.128 2.072,-3.253 3.181,-6.942 3.329,-10.662 0.006,-0.144 0.009,-0.289 0.012,-0.433 0.003,-0.144 0.008,-0.289 0.007,-0.433 z"
   id="path5353"
   inkscape:connector-curvature="0"
   style="fill:#6ba43a" />
	</g>
	<path
   class="st9"
   d="m 84.118,35.487 c -2.337,-2.337 -6.127,-2.337 -8.464,0 -1.865,1.865 -2.237,4.651 -1.127,6.89 L 61.49,55.415 c -2.238,-1.11 -5.025,-0.738 -6.89,1.127 -2.338,2.337 -2.337,6.127 0,8.465 2.338,2.338 6.128,2.337 8.465,0 1.865,-1.864 2.237,-4.652 1.126,-6.89 L 77.229,45.08 c 2.239,1.11 5.025,0.738 6.89,-1.127 2.337,-2.339 2.337,-6.129 -0.001,-8.466 z"
   id="path5357"
   inkscape:connector-curvature="0"
   style="fill:#424143" />
</g>
</svg>