<?xml version="1.0" encoding="UTF-8" standalone="no"?>
<!-- Generator: Adobe Illustrator 24.0.1, SVG Export Plug-In . SVG Version: 6.00 Build 0)  -->

<svg
   xmlns:dc="http://purl.org/dc/elements/1.1/"
   xmlns:cc="http://creativecommons.org/ns#"
   xmlns:rdf="http://www.w3.org/1999/02/22-rdf-syntax-ns#"
   xmlns:svg="http://www.w3.org/2000/svg"
   xmlns="http://www.w3.org/2000/svg"
   xmlns:sodipodi="http://sodipodi.sourceforge.net/DTD/sodipodi-0.dtd"
   xmlns:inkscape="http://www.inkscape.org/namespaces/inkscape"
   version="1.1"
   id="Layer_1"
   x="0px"
   y="0px"
   viewBox="0 0 134.7 131.7"
   xml:space="preserve"
   sodipodi:docname="plotly.svg"
   width="134.7"
   height="131.7"
   inkscape:version="0.92.3 (2405546, 2018-03-11)"><metadata
   id="metadata5565"><rdf:RDF><cc:Work
       rdf:about=""><dc:format>image/svg+xml</dc:format><dc:type
         rdf:resource="http://purl.org/dc/dcmitype/StillImage" /><dc:title>plotly-logo-stripe-01</dc:title></cc:Work></rdf:RDF></metadata><defs
   id="defs5563">
	
	
	
</defs><sodipodi:namedview
   pagecolor="#ffffff"
   bordercolor="#666666"
   borderopacity="1"
   objecttolerance="10"
   gridtolerance="10"
   guidetolerance="10"
   inkscape:pageopacity="0"
   inkscape:pageshadow="2"
   inkscape:window-width="1920"
   inkscape:window-height="1112"
   id="namedview5561"
   showgrid="false"
   fit-margin-top="0"
   fit-margin-left="0"
   fit-margin-right="0"
   fit-margin-bottom="0"
   inkscape:zoom="2.823913"
   inkscape:cx="199.5"
   inkscape:cy="66"
   inkscape:window-x="0"
   inkscape:window-y="0"
   inkscape:window-maximized="1"
   inkscape:current-layer="Layer_1" />
<style
   type="text/css"
   id="style5514">
	.st0{fill:#3F4F75;}
	.st1{fill:#80CFBE;}
	.st2{fill:#FFFFFF;}
</style>
<title
   id="title5516">plotly-logo-stripe-01</title>
<path
   style="fill:#3f4f75"
   inkscape:connector-curvature="0"
   id="path5518"
   d="M 121.4,131.7 H 13.3 C 6,131.7 0,125.8 0,118.4 V 13.3 C 0,6 5.9,0 13.3,0 h 108.1 c 7.3,0 13.3,5.9 13.3,13.3 v 105.1 c 0,7.4 -5.9,13.3 -13.3,13.3 z"
   class="st0" /><g
   id="g5542"
   transform="translate(-30.5,-24.3)">
		<path
   style="fill:#80cfbe"
   inkscape:connector-curvature="0"
   id="path5520"
   d="m 66.5,75.5 c -0.1,-0.1 -0.2,-0.1 -0.3,-0.2 -0.3,-0.5 -0.8,-0.9 -1.3,-1.2 -2.1,-1.5 -5.3,-1.6 -6.8,0.7 -0.1,0.1 -0.1,0.2 -0.2,0.4 -1,0.9 -1.7,2 -1.9,3.3 -0.3,0.1 -0.5,0.3 -0.5,0.7 0,1.5 0.7,2.7 1.9,3.5 1.2,1 2.9,1.5 4.6,1.5 2.5,0.1 4.2,-1.3 5,-3.1 0,0 0,0 0,0 1.3,-1.9 1.4,-4.3 -0.5,-5.6 z M 64.4,80 c -0.1,-0.1 -0.1,-0.3 -0.2,-0.4 0.1,-0.1 0.1,-0.2 0.2,-0.4 0,0.3 0.1,0.5 0,0.8 z m -4.1,-1.9 c 0,0.1 0,0.2 0.1,0.3 0,0.1 0.1,0.3 0.1,0.4 -0.2,-0.1 -0.3,-0.4 -0.2,-0.7 z m 2.1,-0.4 c 0.1,0.1 0.3,0.1 0.4,0.1 0,0.1 0,0.2 0,0.3 -0.2,-0.3 -0.7,-0.3 -1,-0.2 0,-0.1 0,-0.2 -0.1,-0.2 l 0.5,-0.1 c 0.1,0 0.1,0.1 0.2,0.1 z m -1.3,4 c 0.3,0 0.7,-0.1 1,-0.2 0.1,0.1 0.1,0.1 0.2,0.2 -0.3,0.1 -0.6,0.1 -0.9,0.1 -0.2,0 -0.3,0 -0.3,-0.1 -0.1,0.1 -0.1,0 0,0 z m 4,-5.4 c 0,0.1 0.1,0.1 0.1,0.2 0.1,0.2 0.2,0.4 0.3,0.6 -0.4,-0.3 -0.8,-0.6 -1.3,-0.7 -0.1,-0.2 -0.3,-0.4 -0.5,-0.4 0,0 0,0 -0.1,0 -0.1,-0.1 -0.1,-0.2 -0.2,-0.2 0.6,0 1.2,0.2 1.7,0.5 z"
   class="st1" />
		<path
   style="fill:#80cfbe"
   inkscape:connector-curvature="0"
   id="path5522"
   d="m 66.5,53.6 c -0.1,-0.1 -0.2,-0.1 -0.3,-0.2 -0.3,-0.5 -0.8,-0.9 -1.3,-1.2 -2.1,-1.5 -5.3,-1.6 -6.8,0.7 -0.1,0.1 -0.1,0.2 -0.2,0.4 -1,0.9 -1.7,2 -1.9,3.3 -0.3,0.1 -0.5,0.3 -0.5,0.7 0,1.5 0.7,2.7 1.9,3.5 1.2,1 2.9,1.5 4.6,1.5 2.5,0.1 4.2,-1.3 5,-3.1 0,0 0,0 0,0 1.3,-1.8 1.4,-4.3 -0.5,-5.6 z m -2.1,4.5 c -0.1,-0.1 -0.1,-0.3 -0.2,-0.4 0.1,-0.1 0.1,-0.2 0.2,-0.4 0,0.3 0.1,0.5 0,0.8 z m -4.1,-1.9 c 0,0.1 0,0.2 0.1,0.3 0,0.1 0.1,0.3 0.1,0.4 -0.2,-0.1 -0.3,-0.4 -0.2,-0.7 z m 2.1,-0.4 c 0.1,0.1 0.3,0.1 0.4,0.1 0,0.1 0,0.2 0,0.3 -0.2,-0.3 -0.7,-0.3 -1,-0.2 0,-0.1 0,-0.2 -0.1,-0.2 l 0.5,-0.1 c 0.1,0 0.1,0.1 0.2,0.1 z m -1.3,4 c 0.3,0 0.7,-0.1 1,-0.2 0.1,0.1 0.1,0.1 0.2,0.2 -0.3,0.1 -0.6,0.1 -0.9,0.1 -0.2,0 -0.3,0 -0.3,-0.1 -0.1,0.1 -0.1,0 0,0 z m 4,-5.4 c 0,0.1 0.1,0.1 0.1,0.2 0.1,0.2 0.2,0.4 0.3,0.6 -0.4,-0.3 -0.8,-0.6 -1.3,-0.7 -0.1,-0.2 -0.3,-0.4 -0.5,-0.4 0,0 0,0 -0.1,0 -0.1,-0.1 -0.1,-0.2 -0.2,-0.2 0.6,0 1.2,0.3 1.7,0.5 z"
   class="st1" />
		<path
   style="fill:#80cfbe"
   inkscape:connector-curvature="0"
   id="path5524"
   d="m 115.2,75.5 c -0.1,-0.1 -0.2,-0.1 -0.3,-0.2 -0.3,-0.5 -0.8,-0.9 -1.3,-1.2 -2.1,-1.5 -5.3,-1.6 -6.8,0.7 -0.1,0.1 -0.1,0.2 -0.2,0.4 -1,0.9 -1.7,2 -1.9,3.3 -0.3,0.1 -0.5,0.3 -0.5,0.7 0,1.5 0.7,2.7 1.9,3.5 1.2,1 2.9,1.5 4.6,1.5 2.5,0.1 4.2,-1.3 5,-3.1 0,0 0,0 0,0 1.2,-1.9 1.4,-4.3 -0.5,-5.6 z m -2.1,4.5 c -0.1,-0.1 -0.1,-0.3 -0.2,-0.4 0.1,-0.1 0.1,-0.2 0.2,-0.4 0,0.3 0,0.5 0,0.8 z m -4.2,-1.9 c 0,0.1 0,0.2 0.1,0.3 0,0.1 0.1,0.3 0.1,0.4 -0.1,-0.1 -0.2,-0.4 -0.2,-0.7 z m 2.1,-0.4 c 0.1,0.1 0.3,0.1 0.4,0.1 0,0.1 0,0.2 0,0.3 -0.2,-0.3 -0.7,-0.3 -1,-0.2 0,-0.1 0,-0.2 -0.1,-0.2 l 0.5,-0.1 c 0.1,0 0.2,0.1 0.2,0.1 z m -1.3,4 c 0.3,0 0.7,-0.1 1,-0.2 0.1,0.1 0.1,0.1 0.2,0.2 -0.3,0.1 -0.6,0.1 -0.9,0.1 -0.1,0 -0.2,0 -0.3,-0.1 0,0.1 0,0 0,0 z m 4,-5.4 c 0,0.1 0.1,0.1 0.1,0.2 0.1,0.2 0.2,0.4 0.3,0.6 -0.4,-0.3 -0.8,-0.6 -1.3,-0.7 -0.1,-0.2 -0.3,-0.4 -0.5,-0.4 0,0 0,0 -0.1,0 -0.1,-0.1 -0.1,-0.2 -0.2,-0.2 0.7,0 1.2,0.2 1.7,0.5 z"
   class="st1" />
		<path
   style="fill:#80cfbe"
   inkscape:connector-curvature="0"
   id="path5526"
   d="m 115.2,53.6 c -0.1,-0.1 -0.2,-0.1 -0.3,-0.2 -0.3,-0.5 -0.8,-0.9 -1.3,-1.2 -2.1,-1.5 -5.3,-1.6 -6.8,0.7 -0.1,0.1 -0.1,0.2 -0.2,0.4 -1,0.9 -1.7,2 -1.9,3.3 -0.3,0.1 -0.5,0.3 -0.5,0.7 0,1.5 0.7,2.7 1.9,3.5 1.2,1 2.9,1.5 4.6,1.5 2.5,0.1 4.2,-1.3 5,-3.1 0,0 0,0 0,0 1.2,-1.8 1.4,-4.3 -0.5,-5.6 z m -2.1,4.5 C 113,58 113,57.8 112.9,57.7 c 0.1,-0.1 0.1,-0.2 0.2,-0.4 0,0.3 0,0.5 0,0.8 z m -4.2,-1.9 c 0,0.1 0,0.2 0.1,0.3 0,0.1 0.1,0.3 0.1,0.4 -0.1,-0.1 -0.2,-0.4 -0.2,-0.7 z m 2.1,-0.4 c 0.1,0.1 0.3,0.1 0.4,0.1 0,0.1 0,0.2 0,0.3 -0.2,-0.3 -0.7,-0.3 -1,-0.2 0,-0.1 0,-0.2 -0.1,-0.2 l 0.5,-0.1 c 0.1,0 0.2,0.1 0.2,0.1 z m -1.3,4 c 0.3,0 0.7,-0.1 1,-0.2 0.1,0.1 0.1,0.1 0.2,0.2 -0.3,0.1 -0.6,0.1 -0.9,0.1 -0.1,0 -0.2,0 -0.3,-0.1 0,0.1 0,0 0,0 z m 4,-5.4 c 0,0.1 0.1,0.1 0.1,0.2 0.1,0.2 0.2,0.4 0.3,0.6 -0.4,-0.3 -0.8,-0.6 -1.3,-0.7 -0.1,-0.2 -0.3,-0.4 -0.5,-0.4 0,0 0,0 -0.1,0 -0.1,-0.1 -0.1,-0.2 -0.2,-0.2 0.7,0 1.2,0.3 1.7,0.5 z"
   class="st1" />
		<g
   id="g5536">
			<path
   style="fill:#ffffff"
   inkscape:connector-curvature="0"
   id="path5528"
   d="m 62.9,96.1 c -3.3,0 -5.9,2.7 -5.9,5.9 v 23.8 c 0,3.3 2.6,5.9 5.9,5.9 3.3,0 5.9,-2.7 5.9,-5.9 V 102 c 0,-3.2 -2.6,-5.9 -5.9,-5.9 z"
   class="st2" />
			<path
   style="fill:#ffffff"
   inkscape:connector-curvature="0"
   id="path5530"
   d="m 110.2,96.1 c -3.3,0 -5.9,2.7 -5.9,5.9 v 23.8 c 0,3.3 2.6,5.9 5.9,5.9 3.3,0 5.9,-2.7 5.9,-5.9 V 102 c 0,-3.2 -2.6,-5.9 -5.9,-5.9 z"
   class="st2" />
			<path
   style="fill:#ffffff"
   inkscape:connector-curvature="0"
   id="path5532"
   d="m 86.6,72.4 c -3.3,0 -5.9,2.7 -5.9,5.9 v 47.6 c 0,3.3 2.6,5.9 5.9,5.9 3.3,0 5.9,-2.7 5.9,-5.9 V 78.3 c 0,-3.3 -2.7,-5.9 -5.9,-5.9 z"
   class="st2" />
			<path
   style="fill:#ffffff"
   inkscape:connector-curvature="0"
   id="path5534"
   d="m 133.8,72.4 c -3.3,0 -5.9,2.7 -5.9,5.9 v 47.6 c 0,3.3 2.6,5.9 5.9,5.9 3.3,0 5.9,-2.7 5.9,-5.9 V 78.3 c 0,-3.3 -2.6,-5.9 -5.9,-5.9 z"
   class="st2" />
		</g>
		<path
   style="fill:#80cfbe"
   inkscape:connector-curvature="0"
   id="path5538"
   d="m 139.2,53.8 c 0,-0.3 -0.1,-0.6 -0.4,-0.8 0,0 -0.1,-0.1 -0.1,-0.1 -0.5,-0.8 -1.2,-1.5 -2,-2.1 -1.1,-0.7 -2.4,-1.1 -3.2,-0.1 -0.3,0 -0.6,0 -0.9,0 -0.2,0 -0.3,0 -0.5,0 -0.9,-0.4 -1.9,-0.4 -2.4,0.8 -0.2,0.4 -0.2,0.9 -0.3,1.5 -0.2,0.1 -0.3,0.3 -0.5,0.5 -0.9,1.3 -0.8,3.6 -0.4,5 0.6,2.5 3.3,4.4 5.6,3.7 0.2,0 0.4,-0.1 0.5,-0.2 1.2,0.2 2.6,-0.2 3.6,-1.5 1.7,-1.9 1.9,-4.5 1,-6.7 z m -5.4,2.3 c 0,-0.5 0,-1.1 0,-1.6 0.1,0 0.1,0.1 0.2,0.1 0,0 0.1,0.1 0.1,0.1 0.2,0.5 0.2,1.2 -0.3,1.4 z m -4,1.2 c 0,-0.2 0,-0.5 0,-0.7 0.2,0.9 0.6,1.7 0.9,2.4 0.2,0.5 0.5,1.1 0.8,1.5 -0.2,-0.1 -0.3,-0.2 -0.5,-0.4 -0.8,-0.7 -1.1,-1.8 -1.2,-2.8 z m 7.8,1.9 c -0.4,0.5 -0.8,0.9 -1.2,1.1 0.3,-0.5 0.6,-1 0.8,-1.6 0.1,-0.1 0.1,-0.2 0.2,-0.4 0.2,-0.2 0.3,-0.4 0.2,-0.7 0,0 0,0 0,0 0.4,-0.3 0.6,-0.8 0.7,-1.3 0,0 0,-0.1 0.1,-0.1 0,1.1 -0.3,2.1 -0.8,3 z"
   class="st1" />
		<path
   style="fill:#80cfbe"
   inkscape:connector-curvature="0"
   id="path5540"
   d="m 91.9,53.8 c 0,-0.3 -0.1,-0.6 -0.4,-0.8 0,0 -0.1,-0.1 -0.1,-0.1 -0.5,-0.8 -1.2,-1.5 -2,-2.1 -1.1,-0.7 -2.4,-1.1 -3.2,-0.1 -0.3,0 -0.6,0 -0.9,0 -0.2,0 -0.3,0 -0.5,0 -0.9,-0.4 -1.9,-0.4 -2.4,0.8 -0.2,0.4 -0.2,0.9 -0.3,1.5 -0.2,0.1 -0.3,0.3 -0.5,0.5 -0.9,1.3 -0.8,3.6 -0.4,5 0.6,2.5 3.3,4.4 5.6,3.7 0.2,0 0.4,-0.1 0.5,-0.2 1.2,0.2 2.6,-0.2 3.6,-1.5 1.8,-1.9 1.9,-4.5 1,-6.7 z m -5.3,2.3 c 0,-0.5 0,-1.1 0,-1.6 0.1,0 0.1,0.1 0.2,0.1 0,0 0.1,0.1 0.1,0.1 0.1,0.5 0.1,1.2 -0.3,1.4 z m -4.1,1.2 c 0,-0.2 0,-0.5 0,-0.7 0.2,0.9 0.6,1.7 0.9,2.4 0.2,0.5 0.5,1.1 0.8,1.5 C 84,60.4 83.9,60.3 83.7,60.1 83,59.4 82.6,58.3 82.5,57.3 Z m 7.8,1.9 c -0.4,0.5 -0.8,0.9 -1.2,1.1 0.3,-0.5 0.6,-1 0.8,-1.6 0.1,-0.1 0.1,-0.2 0.2,-0.4 0.2,-0.2 0.3,-0.4 0.2,-0.7 0,0 0,0 0,0 0.4,-0.3 0.6,-0.8 0.7,-1.3 0,0 0,-0.1 0.1,-0.1 0,1.1 -0.2,2.1 -0.8,3 z"
   class="st1" />
	</g>
</svg>