<?xml version="1.0" encoding="utf-8"?>
<!-- Generator: Adobe Illustrator 16.0.0, SVG Export Plug-In . SVG Version: 6.00 Build 0)  -->
<!DOCTYPE svg PUBLIC "-//W3C//DTD SVG 1.1//EN" "http://www.w3.org/Graphics/SVG/1.1/DTD/svg11.dtd">
<svg version="1.1" id="Layer_1" xmlns="http://www.w3.org/2000/svg" xmlns:xlink="http://www.w3.org/1999/xlink" x="0px" y="0px"
	 width="103.530273px" height="50px" viewBox="0 0 103.530273 50" style="enable-background:new 0 0 103.530273 50;"
	 xml:space="preserve">
<g id="agGrid">
	<path style="fill:#E12426;" d="M103.527344,31.602539H91.147461c-1.739258,0-3.148438-1.408203-3.148438-3.146484v-8.394043
		c0-1.738281,1.40918-3.146484,3.148438-3.146484h8.8125v-5.456055h3.567383V31.602539z M86.530273,16.915527v14.687012h-3.566406
		V16.915527H86.530273z M86.530273,11.415527v3.624023h-3.566406v-3.624023H86.530273z M81.495117,16.915527v3.56543h-7.973633
		c-0.347656,0-0.629883,0.283203-0.629883,0.629883v10.491699h-3.566406V20.062012c0-1.738281,1.40918-3.146484,3.147461-3.146484
		H81.495117z M64.708984,12.718262c1.738281,0,3.147461,1.40918,3.147461,3.147461v2.098633h-3.567383v-1.048828
		c0-0.348633-0.28125-0.629883-0.628906-0.629883H53.167969c-0.347656,0-0.628906,0.28125-0.628906,0.629883v10.491699
		c0,0.347656,0.28125,0.628906,0.628906,0.628906h10.492188c0.347656,0,0.628906-0.28125,0.628906-0.628906v-2.938965h-4.196289
		v-3.567383h7.763672v7.555176c0,1.738281-1.40918,3.146484-3.147461,3.146484H52.119141
		c-1.73877,0-3.147949-1.408203-3.147949-3.146484V15.865723c0-1.738281,1.40918-3.147461,3.147949-3.147461H64.708984z
		 M99.959961,20.480957h-7.763672c-0.34668,0-0.628906,0.283203-0.628906,0.629883v6.296387
		c0,0.347656,0.282227,0.628906,0.628906,0.628906h7.763672V20.480957z"/>
	<path style="fill:#FFFFFF;" d="M37.850586,31.594727l-0.000977,2.736328c0,1.738281-1.40918,3.146484-3.147461,3.146484h-9.651855
		v-2.726563h9.442871c0.358398-0.011719,0.629883-0.289063,0.629883-0.628906v-2.515625h-9.652832
		c-1.74707-0.009766-3.147461-1.414063-3.147461-3.146484V19.64209c0-1.738281,1.40918-3.146484,3.147461-3.146484h9.231934
		c1.738281,0,3.147461,1.408203,3.147461,3.146484l0.000977,9.233887h6.294922v-8.206543
		c0.027344,0.217773,0.040039,0.439453,0.040039,0.663086v11.687988c0,0.222656-0.012695,0.443359-0.040039,0.662109v-2.087891
		H37.850586z M20.854004,31.602539H8.683594c-1.737305,0-3.147461-1.408203-3.147461-3.146484v-3.148926H0.03125v-2.726563
		h18.095215v-2.728516c0-0.34082-0.271484-0.619141-0.629883-0.628906H5.536133v-2.727539h12.17041
		c1.748047,0.008789,3.147461,1.414063,3.147461,3.146484V31.602539z"/>
	<path style="fill:#E12426;" d="M18.126465,22.580566H0V14.07373c0-1.124023,0.599609-2.163086,1.574219-2.725586
		L20.498535,0.420898c0.973633-0.561523,2.173828-0.561523,3.147461,0l18.925293,10.927246
		c0.973633,0.5625,1.574219,1.601563,1.574219,2.725586v14.802246h-6.294922l-0.000977-9.233887
		c0-1.738281-1.40918-3.146484-3.147461-3.146484h-9.231934c-1.738281,0-3.147461,1.408203-3.147461,3.146484v8.817871
		c0,1.738281,1.40918,3.146484,3.147461,3.146484h9.652832v2.515625c0,0.345703-0.282227,0.628906-0.629883,0.628906h-9.442871
		v2.726563h9.651855c1.738281,0,3.147461-1.408203,3.147461-3.146484l0.000977-2.736328h6.294922v4.332031
		c0,1.124023-0.600586,2.163086-1.574219,2.725586L23.645996,49.579102c-0.973633,0.561523-2.173828,0.561523-3.147461,0
		L1.574219,38.652344C0.599609,38.089844,0,37.050781,0,35.926758V25.307129h5.536133v3.148926
		c0,1.738281,1.410156,3.146484,3.147461,3.146484h12.17041V19.64209c0-1.738281-1.40918-3.146484-3.147461-3.146484H5.536133
		v2.727539h11.960449c0.347656,0,0.629883,0.28125,0.629883,0.628906V22.580566z M18.126465,28.875977h-9.23291
		c-0.347656,0-0.628906-0.283203-0.628906-0.628906v-2.939941h9.861816V28.875977z M34.493164,19.223145
		c0.347656,0,0.629883,0.28125,0.629883,0.628906v8.39502c0,0.345703-0.282227,0.628906-0.629883,0.628906h-8.812988
		c-0.347656,0-0.629883-0.283203-0.629883-0.628906v-8.39502c0-0.347656,0.282227-0.628906,0.629883-0.628906H34.493164z"/>
</g>
<g>
</g>
<g>
</g>
<g>
</g>
<g>
</g>
<g>
</g>
<g>
</g>
</svg>
