<?xml version="1.0" encoding="utf-8"?>
<!-- Generator: Adobe Illustrator 16.0.0, SVG Export Plug-In . SVG Version: 6.00 Build 0)  -->
<!DOCTYPE svg PUBLIC "-//W3C//DTD SVG 1.1//EN" "http://www.w3.org/Graphics/SVG/1.1/DTD/svg11.dtd">
<svg version="1.1" id="Layer_1" xmlns="http://www.w3.org/2000/svg" xmlns:xlink="http://www.w3.org/1999/xlink" x="0px" y="0px"
	 width="56.049805px" height="50px" viewBox="0 0 56.049805 50" style="enable-background:new 0 0 56.049805 50;"
	 xml:space="preserve">
<path id="Flask" style="fill:#010101;" d="M16.749512,44.521484c-2.134766-1.679688-4.413086-3.289063-5.96875-5.556641
	c-3.275391-3.99707-5.796875-8.626953-7.520996-13.491211c-1.04248-3.163086-1.399414-6.554688-2.742188-9.595703
	c-1.405273-2.208984,0.240234-4.624023,2.659668-5.325195c1.077637-0.207031,2.97168-1.222656,0.685059-0.49707
	C1.813477,11.55957,1.614746,8.69043,3.716309,8.508789c1.435059-0.19043,1.962891-1.364258,1.472168-2.420898
	C3.647949,5.083984,8.922363,3.979492,6.268555,2.482422c-2.76416-2.983398,3.865723-3.557617,2.22998-0.170898
	c-0.390625,2.604492,4.633789-0.476563,3.46875,2.53125c1.18457,1.443359,4.436523,0.328125,4.355469,2.354492
	c1.726563,0.118164,2.319336,1.570313,3.939453,1.681641c1.679688,0.758789,4.723633,1.356445,5.294922,3.249023
	c-1.666016,1.319336-5.523438-2.724609-5.708984,0.926758c0.50293,5.394531,0.374023,10.950195,2.348633,16.086914
	c0.933594,3.110352,3.195313,5.557617,5.240234,7.979492c1.954102,2.373047,4.603516,4.042969,7.302734,5.449219
	c2.368164,1.117188,4.920898,1.857422,7.501953,2.322266c1.046875-0.800781,2.895508-3.777344,4.52832-2.521484
	c0.077148,1.410156-3.241211,2.947266-0.157227,2.792969c1.8125-0.546875,3.068359,1.400391,4.561035-0.357422
	c1.374023,1.628906,5.711914-1.039063,4.734375,2.287109c-1.322266,0.853516-3.250977,0.337891-4.575195,1.511719
	c-2.184082-1.089844-3.922363,0.976563-6.341309,0.714844C42.308105,49.802734,39.57666,49.996094,36.85498,50
	c-4.46582-0.353516-9.026367-0.501953-13.274414-2.056641C21.187988,47.248047,18.853027,45.884766,16.749512,44.521484z
	 M20.520996,46.15625c2.336914,1.009766,4.62207,2.076172,7.182617,2.396484
	c4.061523,0.566406,8.257813,1.433594,12.334961,0.642578c-1.844727-0.833984-3.751953,0.324219-5.59082-0.597656
	c-2.205078,0.474609-4.571289-0.119141-6.8125-0.414063c-2.549805-1.134766-5.300781-1.916016-7.6875-3.388672
	c-2.983398-1.089844,1.542969,1.396484,2.348633,1.597656c1.864258,1.058594-2.050781-0.542969-2.603516-0.982422
	c-1.561523-0.875-1.760742-0.691406-0.154297,0.197266C19.862793,45.796875,20.182129,45.994141,20.520996,46.15625
	L20.520996,46.15625z M16.074707,43.013672c2.263672,0.837891-0.009766-1.591797-1.047852-1.451172
	c-0.458984-0.796875-1.755859-1.300781-0.841797-1.728516c-1.645508,0.570313-1.722656-2.173828-2.49707-1.78125
	c-1.741211-0.548828-0.676758-2.496094-2.750977-3.692383c-0.189453-1.258789-2.05957-2.352539-2.656738-4.25293
	c-0.263184-0.972656-2.113281-3.767578-0.977051-1.166016c0.967773,2.50293,2.670898,4.647461,4.086914,6.788086
	c1.100586,2.038086,2.399414,4.168945,4.40332,5.44043C14.468262,41.818359,15.120605,42.810547,16.074707,43.013672
	L16.074707,43.013672z M9.55127,35.852539 M18.786621,44.019531 M20.015137,44.466797 M21.554199,45.109375 M24.190918,46.580078
	 M19.126465,43.048828 M20.281738,43.625 M26.050293,47.226563c0.927734,0.583984,5.415039,1.28125,2.604492,0.238281
	C28.185059,47.564453,23.444824,46.125,26.050293,47.226563z M16.89209,40.09375 M19.577637,41.658203 M21.837402,43.042969
	 M15.79834,38.902344c1.088867,0.835938,4.389648,0.107422,1.667969-0.498047c-1.239258-0.660156-4.03125-1.113281-2.12793,0.398438
	L15.79834,38.902344L15.79834,38.902344z M23.366699,43.521484 M21.066895,41.693359
	c2.661133,0.753906-2.237305-1.681641-0.657227-0.277344l0.351563,0.160156l0.306641,0.117188H21.066895z M25.677246,44.357422
	C28.197754,44.382813,23.400879,44.011719,25.677246,44.357422L25.677246,44.357422z M14.830566,37.445313 M29.939941,46.75
	 M19.130371,40.078125 M15.068848,37.150391 M10.256348,34.040039 M22.888184,42.056641 M30.751465,46.880859 M22.191895,41.337891
	 M16.336426,37.625 M26.243652,43.783203 M21.089355,40.283203c1.932617,0.25-2.299805-1.314453-0.423828-0.138672
	L21.089355,40.283203L21.089355,40.283203z M27.807129,44.414063c1.805664-1.078125,1.209961,2.527344,3.0625,0.304688
	c1.827148-1.332031-1.577148,1.650391,0.673828,0.238281c1.628906-1.089844,4.03418,0.515625,5.552734,1.041016
	c1.09375-0.054688,2.155273,0.945313,3.275391,0.335938c2.15625-0.580078-4.216797-0.861328-2.546875-1.890625
	c-1.972656,0.574219-3.429688-0.685547-4.400391-1.949219c-2.213867-0.511719-4.773438-1.642578-5.876953-3.601563
	c-0.451172-0.734375,0.651367,0.105469-0.388672-1.097656c-1.333008-1.185547-2-2.533203-2.895508-3.974609
	c-1.069336-0.571289-1.193359-2.249023-1.301758-0.056641c0.008789-1.383789-1.291016-2.316406-1.608398-1.928711
	c-0.005859-1.333008,1.390625-0.664063,0.413086-1.650391c-0.209961-1.382813-0.90332-2.822266-1.112305-4.381836
	c-0.323242-0.75293-0.044922-2.363281-1.103516-0.661133c-0.384766,1.798828-0.12793-2.210938,0.472656-0.887695
	C20.810059,22.90332,19.739746,23.0625,19.695801,23.25c0.512695-1.138672,0.324219-2.75293-0.133789-2.137695
	c0.273438-1.206055,0.431641-4.441406-0.40918-3.868164c0.509766-1.261719,0.966797-5.774414-1.246094-4.053711
	c-0.896484,0.012695-2.449219,0.325195-3.183594,0.689453c2.300781,1.269531-0.231445,0.458984-1.168945,0.257813
	c-0.12207,1.173828-1.049805,0.666016-2.208984,0.677734c1.852539,0.229492-0.901367,1.893555-1.963867,1.24707
	c-1.379883,0.65918,1.19043,2.304688,0.027344,2.813477c0.143555,0.767578-2.113281-0.276367-1.935547,1.495117
	c-1.339355-0.564453-0.18457,2.101563,0.486328,1.199219c2.276367,0.617188,1.602539,2.023438,1.661133,3.358398
	c-0.371094,0.77832-1.833008-1.829102-0.327148-1.708984c-1.188477-1.930664-1.313477-0.697266-2.301758,0.200195
	c-0.229492,0.064453,2.519531,1.276367,0.793945,1.875977c1.518555,0.234375,1.561523,1.5625,1.871094,2.402344
	c0.912109,0.951172,0.725586-1.049805,1.817383,0.092773c-0.69043-1.017578-3.660156-2.866211-1.268555-2.273438
	c-0.014648-1.024414-0.433594-1.850586,0.298828-1.830078c0.725586-1.313477-0.759766,3.238281,0.875977,1.569336
	c0.452148-0.198242,0.564453-1.314453,1.376953,0.105469c1.181641,1.161133,0.426758,2.003906-1.239258,0.939453
	c0.297852,1.011719,2.229492,1.373047,1.866211,2.954102c0.384766,1.392578,0.922852,0.878906,1.392578,0.798828
	c0.367188,1.351563,0.576172,0.358398,0.59375-0.285156c1.685547,0.360352,1.291016,1.355469,1.818359,2.052734
	c1.161133,0.523438-1.662109-3.552734,0.331055-1.226563c2.098633,1.893555,0.786133,2.68457-1.095703,2.380859
	c1.191406-0.09668,1.575195,1.611328,3.06543,1.550781c1.359375,0.646484,2.279297,3.128906-0.063477,2.09668
	c-0.811523-0.732422-3.686523-1.636719-1.338867-0.243164c2.168945,1.003906,3.891602,1.603516,5.983398,2.865234
	c1.49707,1.068359,2.143555,2.292969,2.710938,2.533203c-1.258789,0.603516-3.791016-0.478516-1.911133-0.808594
	c-1.171875-0.214844-2.492188-0.808594-1.369141,0.654297c0.957031,0.798828,3.385742,0.712891,3.822266,0.804688
	c-0.369141,0.8125-1.003906,0.876953,0.014648,0.939453C26.202637,43.974609,27.702637,44.068359,27.807129,44.414063
	L27.807129,44.414063z M25.484863,37.855469c-0.69043-0.722656-0.869141-2.076172-0.12207-0.898438
	C25.746582,37.111328,26.589355,39.169922,25.484863,37.855469L25.484863,37.855469z M33.049316,42.660156 M24.394043,36.084961
	 M23.64209,35.073242 M14.532715,28.785156 M21.782715,32.714844 M16.661621,29.152344 M21.056152,30.5625
	c-0.823242-1.844727,0.583984-1.007813,0.182617,0.302734L21.056152,30.5625L21.056152,30.5625z M13.476074,25.506836
	c-0.369141-0.605469-0.977539-2.380859-0.78125-2.922852c0.177734,0.882813,1.876953,3.799805,0.833984,1.208008
	c-1.154297-2.172852,1.37793,0.706055,1.638672,1.24707c0.12207,0.539063-0.710938-0.147461-0.146484,1.116211
	C13.990723,24.716797,14.412598,26.950195,13.476074,25.506836z M11.133301,23.892578 M12.186035,24.254883 M9.650879,22.293945
	c-0.87207-0.866211-1.50293-1.666016,0.041016-0.538086c0.595703,0.024414-1.322266-1.816406,0.143555-0.583984
	C11.377441,21.453125,10.596191,23.698242,9.650879,22.293945z M10.98291,22.258789 M11.802246,22.522461 M10.17334,20.964844
	c-2.536133-2.256836,3.186523,1.180664,0.415039,0.418945L10.17334,20.964844L10.17334,20.964844z M17.438965,25.186523
	c-1.09668-0.658203-0.291016-4.631836,0.083984-1.914063c1.066406-0.344727-0.05957,1.40332,0.735352,1.387695
	C18.133301,25.763672,17.777832,26.160156,17.438965,25.186523z M20.126465,26.775391 M19.659668,26.3125 M10.67041,20.223633
	c-1.62793-2.248047,4.734375,2.273438,1.043945,0.570313C11.328613,20.693359,10.86377,20.65625,10.67041,20.223633z
	 M15.846191,22.966797C15.691895,21.075195,16.189941,23.28125,15.846191,22.966797L15.846191,22.966797z M19.774902,25.488281
	 M10.92041,19.366211c0.96875-0.208008,4.012695,1.700195,1.216797,0.543945
	C11.82666,19.567383,11.164551,19.722656,10.92041,19.366211z M19.234863,23.509766
	c0.103516-1.93457,0.578125-1.15625,0.003906,0.276367L19.234863,23.509766L19.234863,23.509766L19.234863,23.509766z
	 M11.641113,18.693359c0.395508-0.579102-1.046875-2.617188,0.208008-0.731445
	c0.541992,0.430664,1.570313,0.72168,0.663086,0.902344C13.938965,20.124023,12.163574,19.206055,11.641113,18.693359z
	 M18.822754,22.90625 M10.816895,16.65625 M12.690918,17.771484 M17.975098,20.711914 M17.669434,20.033203 M17.219238,18.84668
	C17.096191,18.099609,17.638184,19.787109,17.219238,18.84668L17.219238,18.84668z M17.95166,17.655273
	c-0.50293-0.886719,0.635742-3.908203,0.762695-2.03418c-0.530273,1.460938-0.152344,2.277344,0.216797,0.318359
	C19.616699,14.397461,18.784668,18.981445,17.95166,17.655273L17.95166,17.655273z M18.705566,13.161133 M17.446777,37.947266
	 M20.038574,39.257813c1.441406,0.371094,1.433594-0.224609,0.130859-0.400391
	c-0.700195-0.652344-2.911133-1.34375-0.932617-0.082031C19.367676,39.107422,19.782715,39.101563,20.038574,39.257813
	L20.038574,39.257813z M14.92041,35.859375c0.794922,0.592773,2.992188,1.677734,1.131836,0.225586
	c0.626953-0.727539-1.200195-1.116211-0.594727-1.603516c-1.541992-0.943359-1.21582-0.859375-0.135742-0.831055
	c-1.852539-0.827148,0.268555-0.765625,0.166992-1.189453c-0.713867-0.141602-3.547852-1.259766-1.879883,0.091797
	c-1.695313-0.864258-0.404297,0.321289-0.916016,0.196289c-1.734375-0.472656,1.542969,1.320313-0.276367,0.874023
	c0.994141,0.790039,2.676758,2.019531,0.420898,0.834961C12.539551,34.885742,14.45166,35.53418,14.92041,35.859375z
	 M17.631348,37.416016 M31.504395,45.820313 M32.930176,46.419922c0.760742-0.736328,0.032227,1.173828,1.259766-0.179688
	c0.013672-0.96875-0.038086-1.542969-1.412109-0.365234C32.398926,46.085938,32.22998,46.978516,32.930176,46.419922
	L32.930176,46.419922z M10.29541,32.206055 M11.817871,33.203125 M20.47998,38.427734
	c0.845703,0.75,3.884766,0.550781,1.027344,0.091797C21.084473,37.894531,18.819824,38.044922,20.47998,38.427734z
	 M32.388184,45.78125 M35.095215,47.640625 M35.100098,47.150391C36.541504,45.625,33.702637,47.242188,35.100098,47.150391
	L35.100098,47.150391z M6.550293,29.070313c-1.229004-1.75293-0.763672-2.541016-1.94873-3.97168
	c-0.224121-1.09375-2.032227-3.578125-0.935059-0.946289C4.670898,25.69043,4.970215,28.073242,6.550293,29.070313z
	 M34.646973,46.666016 M36.671387,47.458984 M9.844238,30.267578 M36.248535,46.916016
	c1.286133-0.828125-0.295898-0.701172-0.232422,0.076172L36.248535,46.916016L36.248535,46.916016z M18.799316,35.918945
	 M19.877441,36.539063 M38.312012,47.476563c1.647461-1.1875-0.998047-0.228516-0.344727,0.226563L38.312012,47.476563
	L38.312012,47.476563z M37.682129,47.173828 M40.904785,49.318359 M10.67041,29.861328
	c1.208008,0.269531,4.826172,2.972656,2.691406,0.186523c-1.09375-0.324219-0.4375-2.996094-1.552734-2.523438
	c0.749023,1.25,0.616211,1.782227-0.956055,0.994141c-1.975586-0.964844-1.110352,0.477539-0.724609,0.875
	C9.603027,29.513672,10.824707,29.849609,10.67041,29.861328z M5.167969,25.515625
	c0.21582-0.894531-1.991211-4.919922-1.041992-2.017578C4.467285,24.106445,4.433105,25.258789,5.167969,25.515625z
	 M15.26709,31.741211 M16.79834,32.097656 M30.069824,40.462891C29.815918,39.816406,29.069824,40.449219,30.069824,40.462891
	L30.069824,40.462891z M30.706543,40.927734 M35.966309,44.242188 M7.916504,26.216797 M28.901855,39.435547 M7.344238,24.884766
	 M10.043457,26.191406 M42.949707,46.371094c1.195313-0.244141,3.918945,0.607422,4.359375-0.318359
	c-1.452148-0.035156-5.022461-1.023438-5.19043,0.236328l0.317383,0.048828L42.949707,46.371094L42.949707,46.371094
	L42.949707,46.371094z M10.899902,26.407227 M3.806152,21.487305 M5.498047,21.912109 M6.465332,22.386719 M12.547363,26.288086
	 M5.820801,21.31543 M2.352539,19.066406 M2.868652,18.675781 M5.71875,20.37793
	c1.205566-0.473633-2.195801-0.979492-0.246582-0.089844L5.71875,20.37793z M43.864746,43.939453 M48.473145,46.328125
	 M6.010254,18.883789 M1.955078,16.166992c-0.218262-1.249023-0.188477-3.441406,1.89502-2.700195
	c-2.780762,0.552734,1.925781,3.457031,1.331055,1.164063c1.169434,0.056641,2.288086-0.691406,1.674805,0.444336
	c2.303711-0.254883,3.901367-2.251953,6.126953-1.973633c1.734375-0.228516,3.628906-0.402344,5.498047-1.100586
	c1.535156-0.110352,3.013672-1.764648,2.172852-2.745117c-2.094727-0.176758-4.288086,0.084961-6.603516,0.545898
	c-2.564453,0.532227-4.896484,1.546875-7.484375,1.981445c-2.524414,0.338867,0.506836,0.93457-0.215332,1.066406
	c-1.317871,0.457031,1.569824,0.765625-0.171387,1.24707c-1.074707-0.205078-2.194824-0.575195-1.735352-1.707031
	c-2.416992,0.3125-4.541016,1.316406-2.631348,3.776367L1.955078,16.166992L1.955078,16.166992L1.955078,16.166992z
	 M7.779785,13.200195c0.566406-2.087891,3.036133,1.71875,0.928711,0.277344
	C8.456543,13.290039,8.04248,13.135742,7.779785,13.200195z M7.890137,12.188477 M8.927246,12.205078
	c0.075195-0.961914,2.378906,0.507813,0.380859,0.345703L8.927246,12.205078L8.927246,12.205078z M10.349121,11.633789
	 M10.712402,11.389648c0.864258-1.037109,4.892578-0.662109,1.944336-0.100586
	C11.865723,10.694336,11.259277,11.640625,10.712402,11.389648z M15.970215,10.580078 M17.461426,10.572266
	c0.545898-1.429688,2.116211-0.573242,0.25293-0.288086C17.754395,10.436523,17.658691,11.022461,17.461426,10.572266z
	 M5.421875,18.150391C7.05127,17.152344,3.691406,17.28418,5.421875,18.150391L5.421875,18.150391z M6.626465,18.485352
	 M3.07666,15.966797 M51.193359,46.066406 M46.303223,42.728516 M52.538086,46.388672
	c1.301758,0.003906,3.944336-0.404297,1.111328-0.402344C53.205078,46.054688,51.05957,46.039063,52.538086,46.388672
	L52.538086,46.388672z M7.687012,17.899414c1.053711-0.072266,1.648438-1.163086-0.204102-1.099609
	c-2.870605-0.296875,2.533203,0.983398-0.368164,0.617188C6.724121,17.675781,7.664551,17.970703,7.687012,17.899414z
	 M8.614746,18.369141 M9.715332,15.433594 M6.211426,9.577148c1.879883-0.638672,4.451172-1.357422,5.339844,0.314453
	c-0.90332-1.085938-0.365234-2.157227,0.488281-0.567383c1.206055,1.608398,1.810547-0.731445,1.026367-1.271484
	c0.894531,1.111328,1.911133,1.636719,0.598633,0.070313c1.426758-1.716797-2.856445,0.224609-3.830078,0.205078
	C9.365723,8.538086,4.997559,9.442383,6.211426,9.577148z M7.312988,7.466797c1.073242-0.80957,3.708984,0.481445,2.017578-0.803711
	C9.164551,6.516602,5.625,7.637695,7.312988,7.466797z M11.223145,7.628906c1.254883,0.03125-0.541992-1.686523,0.954102-0.908203
	c-0.246094-0.802734-1.742188-0.953125-2.472656-1.273438C9.290527,6.180664,10.546387,7.637695,11.223145,7.628906z
	 M7.998535,4.079102 M9.597168,4.461914C11.619629,4.194336,9.081543,3.59082,9.188965,4.44043L9.597168,4.461914L9.597168,4.461914
	z M6.612793,2.126953c-1.424316-1.859375,2.677734,0.3125,1.231445-1.632813C6.626465-0.476563,5.456055,1.584961,6.612793,2.126953
	z M24.88916,11.97168c0.652344-1.158203-2.697266-1.561523-0.44043-0.411133
	C24.656738,11.630859,24.608887,12.050781,24.88916,11.97168z"/>
<g>
</g>
<g>
</g>
<g>
</g>
<g>
</g>
<g>
</g>
<g>
</g>
</svg>
