<?xml version="1.0" encoding="utf-8"?>
<!-- Generator: Adobe Illustrator 16.0.0, SVG Export Plug-In . SVG Version: 6.00 Build 0)  -->
<!DOCTYPE svg PUBLIC "-//W3C//DTD SVG 1.1//EN" "http://www.w3.org/Graphics/SVG/1.1/DTD/svg11.dtd">
<svg version="1.1" id="Layer_1" xmlns="http://www.w3.org/2000/svg" xmlns:xlink="http://www.w3.org/1999/xlink" x="0px" y="0px"
	 width="51.540039px" height="50px" viewBox="0 0 51.540039 50" style="enable-background:new 0 0 51.540039 50;"
	 xml:space="preserve">
<g id="Kubernetes" transform="translate(-6.3260942,-174.7524)">
	<g>
		<path style="fill:#476CB4;" d="M28.287519,204.216263c-0.099609-0.433594-0.480469-0.729492-0.908203-0.735352
			c-0.060547-0.000977-0.123047,0.004883-0.183594,0.016602l-0.009766-0.011719l-5.535156,0.938477
			c0.853516,2.363281,2.449219,4.291016,4.455078,5.577148l2.144531-5.182617l-0.015625-0.020508
			C28.31291,204.62056,28.332441,204.419388,28.287519,204.216263z"/>
		<path style="fill:#476CB4;" d="M28.904707,195.977005c0.158203,0.115234,0.349609,0.181641,0.556641,0.181641
			c0.509766,0,0.923828-0.402344,0.945313-0.905273l0.023438-0.010742l0.318359-5.625
			c-0.378906,0.045898-0.761719,0.109375-1.144531,0.196289c-2.087891,0.474609-3.902344,1.504883-5.318359,2.897461
			l4.611328,3.270508L28.904707,195.977005z"/>
		<path style="fill:#476CB4;" d="M26.447676,200.227005c0.1875-0.050781,0.359375-0.15918,0.490234-0.322266
			c0.316406-0.398438,0.261719-0.97168-0.119141-1.300781l0.003906-0.023438l-4.210938-3.767578
			c-1.248047,2.037109-1.839844,4.478516-1.566406,6.991211l5.398438-1.557617L26.447676,200.227005z"/>
		<path style="fill:#476CB4;" d="M33.760178,195.234818c0.007813,0.193359,0.076172,0.384766,0.205078,0.547852
			c0.318359,0.397461,0.890625,0.470703,1.296875,0.173828l0.015625,0.006836l4.582031-3.248047
			c-1.728516-1.694336-3.984375-2.798828-6.423828-3.097656l0.318359,5.615234L33.760178,195.234818z"/>
		<polygon style="fill:#476CB4;" points="30.537519,201.882278 32.092209,202.628372 33.641037,201.884232 34.025803,200.21138 
			32.951584,198.871536 31.226973,198.871536 30.152754,200.209427 		"/>
		<path style="fill:#476CB4;" d="M57.772385,205.1772l-4.42627-19.228516c-0.232422-1.008789-0.916016-1.856445-1.855469-2.305664
			l-17.916016-8.554688c-0.517578-0.246094-1.087891-0.360352-1.662111-0.332031
			c-0.453125,0.023438-0.900391,0.135742-1.3125,0.332031l-17.914063,8.55957
			c-0.939453,0.448242-1.621094,1.296875-1.853516,2.305664L6.41252,205.181107
			c-0.207031,0.895508-0.039063,1.834961,0.464844,2.605469c0.060547,0.092773,0.125,0.182617,0.195313,0.269531
			l12.400391,15.416992c0.650391,0.808594,1.634766,1.279297,2.677734,1.279297l19.884768-0.005859
			c1.042969,0.001953,2.027344-0.466797,2.677734-1.275391l12.396484-15.419922
			C57.760666,207.24263,58.004807,206.185013,57.772385,205.1772z M50.95549,204.942825
			c-0.128906,0.573242-0.746094,0.920898-1.382813,0.783203c-0.005859-0.001953-0.011719-0.001953-0.015625-0.001953
			c-0.007813-0.001953-0.013672-0.005859-0.021484-0.006836c-0.087891-0.020508-0.201172-0.038086-0.275391-0.05957
			c-0.369141-0.097656-0.634766-0.245117-0.962891-0.371094c-0.710938-0.254883-1.298828-0.466797-1.869141-0.549805
			c-0.292969-0.023438-0.439453,0.115234-0.601563,0.22168c-0.078125-0.014648-0.320313-0.057617-0.458984-0.080078
			c-1.027344,3.229492-3.214844,6.025391-6.181641,7.776367c0.050781,0.123047,0.138672,0.386719,0.179688,0.431641
			c-0.068359,0.181641-0.169922,0.355469-0.082031,0.632813c0.207031,0.541016,0.542969,1.066406,0.949219,1.703125
			c0.197266,0.292969,0.398438,0.519531,0.576172,0.855469c0.042969,0.078125,0.099609,0.201172,0.140625,0.287109
			c0.273438,0.589844,0.072266,1.269531-0.457031,1.523438c-0.533203,0.257813-1.197266-0.013672-1.482422-0.607422
			c-0.041016-0.082031-0.097656-0.195313-0.132813-0.273438c-0.152344-0.349609-0.205078-0.646484-0.3125-0.984375
			c-0.244141-0.712891-0.443359-1.302734-0.734375-1.802734c-0.164063-0.240234-0.363281-0.271484-0.546875-0.332031
			c-0.035156-0.058594-0.162109-0.291016-0.230469-0.412109c-0.591797,0.222656-1.205078,0.410156-1.839844,0.554688
			c-2.78125,0.630859-5.568361,0.375-8.054689-0.580078l-0.242188,0.439453c-0.181641,0.048828-0.357422,0.097656-0.462891,0.226563
			c-0.390625,0.464844-0.546875,1.212891-0.830078,1.925781c-0.107422,0.335938-0.15625,0.634766-0.310547,0.982422
			c-0.035156,0.078125-0.089844,0.189453-0.132813,0.273438v0.001953c0,0,0,0.001953-0.001953,0.001953
			c-0.285156,0.589844-0.947266,0.861328-1.480469,0.603516c-0.529297-0.253906-0.730469-0.933594-0.455078-1.521484
			c0.041016-0.085938,0.095703-0.208984,0.136719-0.289063c0.177734-0.335938,0.378906-0.564453,0.576172-0.857422
			c0.40625-0.634766,0.761719-1.205078,0.970703-1.744141c0.052734-0.179688-0.025391-0.423828-0.095703-0.607422l0.195313-0.466797
			c-2.855469-1.69043-5.109375-4.385742-6.185547-7.720703l-0.466797,0.080078c-0.125-0.069336-0.376953-0.235352-0.615234-0.217773
			c-0.574219,0.083008-1.160156,0.295898-1.871094,0.549805c-0.330078,0.126953-0.595703,0.271484-0.962891,0.370117
			c-0.076172,0.020508-0.1875,0.041992-0.275391,0.061523c-0.007813,0.001953-0.015625,0.004883-0.021484,0.006836
			c-0.003906,0.000977-0.011719,0.000977-0.017578,0.001953c-0.634766,0.137695-1.251953-0.211914-1.382813-0.783203
			c-0.130859-0.572266,0.275391-1.15332,0.908203-1.306641c0.003906-0.000977,0.009766-0.00293,0.015625-0.003906
			c0.003906,0,0.005859-0.001953,0.009766-0.001953c0.089844-0.021484,0.203125-0.051758,0.285156-0.067383
			c0.373047-0.070313,0.677734-0.053711,1.029297-0.082031c0.75-0.079102,1.371094-0.142578,1.921875-0.316406
			c0.175781-0.071289,0.341797-0.3125,0.460938-0.464844l0.449219-0.130859c-0.503906-3.484375,0.347656-6.904297,2.1875-9.673828
			l-0.34375-0.306641c-0.021484-0.133789-0.050781-0.443359-0.214844-0.619141
			c-0.421875-0.395508-0.953125-0.723633-1.59375-1.120117c-0.304688-0.178711-0.583984-0.293945-0.890625-0.520508
			c-0.064453-0.046875-0.150391-0.120117-0.220703-0.178711c-0.005859-0.00293-0.011719-0.006836-0.017578-0.010742
			c-0.513672-0.410156-0.632813-1.118164-0.263672-1.581055c0.208984-0.259766,0.525391-0.389648,0.855469-0.37793
			c0.255859,0.008789,0.521484,0.102539,0.746094,0.28125c0.074219,0.058594,0.173828,0.133789,0.238281,0.19043
			c0.289063,0.248047,0.464844,0.493164,0.707031,0.749023c0.529297,0.537109,0.966797,0.983398,1.445313,1.306641
			c0.251953,0.146484,0.445313,0.087891,0.636719,0.061523c0.0625,0.044922,0.269531,0.194336,0.386719,0.275391
			c1.826172-1.936523,4.222656-3.371094,7.007813-4.00293c0.646484-0.147461,1.294922-0.245117,1.9375-0.298828l0.025391-0.453125
			c0.142578-0.137695,0.302734-0.336914,0.347656-0.554688c0.048828-0.576172-0.027344-1.196289-0.119141-1.944336
			c-0.048828-0.349609-0.132813-0.640625-0.146484-1.019531c-0.001953-0.077148,0.001953-0.185547,0.001953-0.275391
			c0-0.009766-0.001953-0.019531-0.001953-0.029297c0-0.658203,0.480469-1.192383,1.074221-1.192383
			c0.591797,0,1.070313,0.53418,1.070313,1.192383c0.001953,0.092773,0.005859,0.217773,0.003906,0.304688
			c-0.013672,0.378906-0.097656,0.669922-0.146484,1.019531c-0.089844,0.748047-0.167969,1.368164-0.123047,1.944336
			c0.042969,0.289063,0.210938,0.40332,0.351563,0.536133c0.003906,0.078125,0.015625,0.335938,0.023438,0.479492
			c3.412109,0.302734,6.578125,1.862305,8.902344,4.299805l0.408203-0.290039
			c0.138672,0.007813,0.441406,0.048828,0.652344-0.071289c0.478516-0.323242,0.916016-0.771484,1.443359-1.308594
			c0.242188-0.256836,0.419922-0.500977,0.708984-0.749023c0.064453-0.056641,0.164063-0.131836,0.238281-0.19043
			c0.513672-0.410156,1.228516-0.366211,1.597656,0.09668s0.251953,1.169922-0.261719,1.581055
			c-0.074219,0.057617-0.167969,0.138672-0.236328,0.19043c-0.306641,0.224609-0.587891,0.339844-0.890625,0.519531
			c-0.640625,0.396484-1.173828,0.723633-1.595703,1.120117c-0.199219,0.213867-0.183594,0.416016-0.201172,0.608398
			c-0.060547,0.053711-0.269531,0.239258-0.380859,0.34082c0.923828,1.375977,1.617188,2.936523,2.009766,4.643555
			c0.388672,1.691406,0.449219,3.381836,0.222656,5.006836l0.433594,0.125977c0.078125,0.110352,0.238281,0.37793,0.464844,0.464844
			c0.550781,0.173828,1.171875,0.237305,1.919922,0.316406c0.353516,0.030273,0.658203,0.011719,1.029297,0.083008
			c0.089844,0.016602,0.220703,0.052734,0.3125,0.073242C50.682053,203.789505,51.088303,204.37056,50.95549,204.942825z"/>
		<path style="fill:#476CB4;" d="M41.539474,194.816849l-4.1875,3.74707l0.001953,0.011719
			c-0.146484,0.126953-0.253906,0.298828-0.300781,0.500977c-0.111328,0.496094,0.1875,0.990234,0.671875,1.123047
			l0.003906,0.023438l5.427734,1.5625c0.113281-1.170898,0.042969-2.381836-0.236328-3.594727
			C42.641037,196.963333,42.166428,195.829544,41.539474,194.816849z"/>
		<path style="fill:#476CB4;" d="M36.975021,203.474075c-0.070313-0.012695-0.144531-0.019531-0.216797-0.015625
			c-0.123047,0.005859-0.244141,0.037109-0.361328,0.09375c-0.458984,0.220703-0.658203,0.762695-0.458984,1.225586
			l-0.007813,0.008789l2.167969,5.236328c2.089844-1.332031,3.654297-3.320313,4.470703-5.617188l-5.583984-0.943359
			L36.975021,203.474075z"/>
		<path style="fill:#476CB4;" d="M32.92424,206.249466c-0.091797-0.170898-0.238281-0.314453-0.425781-0.404297
			c-0.142578-0.068359-0.292969-0.099609-0.441406-0.09375c-0.326174,0.011719-0.636721,0.194336-0.800783,0.5h-0.003906
			l-2.722656,4.920898c1.884766,0.640625,3.964846,0.785156,6.052736,0.311523
			c0.371094-0.084961,0.734375-0.185547,1.089844-0.303711l-2.728516-4.930664H32.92424z"/>
	</g>
</g>
<g>
</g>
<g>
</g>
<g>
</g>
<g>
</g>
<g>
</g>
<g>
</g>
</svg>
