<?xml version="1.0" encoding="utf-8"?>
<!-- Generator: Adobe Illustrator 16.0.0, SVG Export Plug-In . SVG Version: 6.00 Build 0)  -->
<svg version="1.2" baseProfile="tiny" id="Layer_1" xmlns="http://www.w3.org/2000/svg" xmlns:xlink="http://www.w3.org/1999/xlink"
	 x="0px" y="0px" width="890px" height="116px" viewBox="0 0 890 116" xml:space="preserve">
<g id="Kubernetes" transform="translate(-6.3260942,-174.7524)">
	<g>
		<path fill="#326CE5" d="M530.658142,270.216248c-0.099609-0.433594-0.480469-0.729492-0.908203-0.735352
			c-0.060547-0.000977-0.123047,0.004883-0.183594,0.016602l-0.009766-0.011719l-5.535156,0.938477
			c0.853516,2.363281,2.449219,4.291016,4.455078,5.577148l2.144531-5.182617l-0.015625-0.020508
			C530.683533,270.620544,530.703064,270.419373,530.658142,270.216248z"/>
		<path fill="#326CE5" d="M531.27533,261.97699c0.158203,0.115234,0.349609,0.181641,0.556641,0.181641
			c0.509766,0,0.923828-0.402344,0.945313-0.905273l0.023438-0.010742l0.318359-5.624985
			c-0.378906,0.045898-0.761719,0.109375-1.144531,0.196289c-2.087891,0.474594-3.902344,1.504868-5.318359,2.897446
			l4.611328,3.270508L531.27533,261.97699z"/>
		<path fill="#326CE5" d="M528.818298,266.22699c0.1875-0.050781,0.359375-0.15918,0.490234-0.322266
			c0.316406-0.398438,0.261719-0.97168-0.119141-1.300781l0.003906-0.023438l-4.210938-3.767578
			c-1.248047,2.037109-1.839844,4.478516-1.566406,6.991211l5.398438-1.557617L528.818298,266.22699z"/>
		<path fill="#326CE5" d="M536.130798,261.234802c0.007813,0.193359,0.076172,0.384766,0.205078,0.547852
			c0.318359,0.397461,0.890625,0.470703,1.296875,0.173828l0.015625,0.006836l4.582031-3.248047
			c-1.728516-1.694336-3.984375-2.798813-6.423828-3.097641l0.318359,5.615219L536.130798,261.234802z"/>
		<polygon fill="#326CE5" points="532.908142,267.882263 534.46283,268.628357 536.011658,267.884216 536.396423,266.211365 
			535.322205,264.871521 533.597595,264.871521 532.523376,266.209412 		"/>
		<path fill="#326CE5" d="M560.142517,271.177185l-4.425781-19.2285c-0.232422-1.008789-0.916016-1.856445-1.855469-2.305664
			l-17.916016-8.554688c-0.517578-0.246094-1.087891-0.360352-1.662109-0.332031
			c-0.453125,0.023438-0.900391,0.135742-1.3125,0.332031l-17.914063,8.55957
			c-0.939453,0.448242-1.621094,1.296875-1.853516,2.305664l-4.419922,19.227524
			c-0.207031,0.895508-0.039063,1.834961,0.464844,2.605469c0.060547,0.092773,0.125,0.182617,0.195313,0.269531
			l12.400391,15.416992c0.650391,0.808594,1.634766,1.279297,2.677734,1.279297l19.884766-0.005859
			c1.042969,0.001953,2.027344-0.466797,2.677734-1.275391l12.396484-15.419922
			C560.130798,273.242615,560.374939,272.184998,560.142517,271.177185z M553.326111,270.94281
			c-0.128906,0.573242-0.746094,0.920898-1.382813,0.783203c-0.005859-0.001953-0.011719-0.001953-0.015625-0.001953
			c-0.007813-0.001953-0.013672-0.005859-0.021484-0.006836c-0.087891-0.020508-0.201172-0.038086-0.275391-0.05957
			c-0.369141-0.097656-0.634766-0.245117-0.962891-0.371094c-0.710938-0.254883-1.298828-0.466797-1.869141-0.549805
			c-0.292969-0.023438-0.439453,0.115234-0.601563,0.22168c-0.078125-0.014648-0.320313-0.057617-0.458984-0.080078
			c-1.027344,3.229492-3.214844,6.025391-6.181641,7.776367c0.050781,0.123047,0.138672,0.386719,0.179688,0.431641
			c-0.068359,0.181641-0.169922,0.355469-0.082031,0.632813c0.207031,0.541016,0.542969,1.066406,0.949219,1.703125
			c0.197266,0.292969,0.398438,0.519531,0.576172,0.855469c0.042969,0.078125,0.099609,0.201172,0.140625,0.287109
			c0.273438,0.589844,0.072266,1.269531-0.457031,1.523438c-0.533203,0.257813-1.197266-0.013672-1.482422-0.607422
			c-0.041016-0.082031-0.097656-0.195313-0.132813-0.273438c-0.152344-0.349609-0.205078-0.646484-0.3125-0.984375
			c-0.244141-0.712891-0.443359-1.302734-0.734375-1.802734c-0.164063-0.240234-0.363281-0.271484-0.546875-0.332031
			c-0.035156-0.058594-0.162109-0.291016-0.230469-0.412109c-0.591797,0.222656-1.205078,0.410156-1.839844,0.554688
			c-2.78125,0.630859-5.568359,0.375-8.054688-0.580078l-0.242188,0.439453c-0.181641,0.048828-0.357422,0.097656-0.462891,0.226563
			c-0.390625,0.464844-0.546875,1.212891-0.830078,1.925781c-0.107422,0.335938-0.15625,0.634766-0.310547,0.982422
			c-0.035156,0.078125-0.089844,0.189453-0.132813,0.273438v0.001953c0,0,0,0.001953-0.001953,0.001953
			c-0.285156,0.589844-0.947266,0.861328-1.480469,0.603516c-0.529297-0.253906-0.730469-0.933594-0.455078-1.521484
			c0.041016-0.085938,0.095703-0.208984,0.136719-0.289063c0.177734-0.335938,0.378906-0.564453,0.576172-0.857422
			c0.40625-0.634766,0.761719-1.205078,0.970703-1.744141c0.052734-0.179688-0.025391-0.423828-0.095703-0.607422l0.195313-0.466797
			c-2.855469-1.69043-5.109375-4.385742-6.185547-7.720703l-0.466797,0.080078c-0.125-0.069336-0.376953-0.235352-0.615234-0.217773
			c-0.574219,0.083008-1.160156,0.295898-1.871094,0.549805c-0.330078,0.126953-0.595703,0.271484-0.962891,0.370117
			c-0.076172,0.020508-0.1875,0.041992-0.275391,0.061523c-0.007813,0.001953-0.015625,0.004883-0.021484,0.006836
			c-0.003906,0.000977-0.011719,0.000977-0.017578,0.001953c-0.634766,0.137695-1.251953-0.211914-1.382813-0.783203
			c-0.130859-0.572266,0.275391-1.15332,0.908203-1.306641c0.003906-0.000977,0.009766-0.00293,0.015625-0.003906
			c0.003906,0,0.005859-0.001953,0.009766-0.001953c0.089844-0.021484,0.203125-0.051758,0.285156-0.067383
			c0.373047-0.070313,0.677734-0.053711,1.029297-0.082031c0.75-0.079102,1.371094-0.142578,1.921875-0.316406
			c0.175781-0.071289,0.341797-0.3125,0.460938-0.464844l0.449219-0.130859c-0.503906-3.484375,0.347656-6.904297,2.1875-9.673828
			l-0.34375-0.306641c-0.021484-0.133789-0.050781-0.443359-0.214844-0.619141
			c-0.421875-0.395508-0.953125-0.723633-1.59375-1.120117c-0.304688-0.178711-0.583984-0.293945-0.890625-0.520508
			c-0.064453-0.046875-0.150391-0.120117-0.220703-0.178711c-0.005859-0.00293-0.011719-0.006836-0.017578-0.010742
			c-0.513672-0.410141-0.632813-1.118149-0.263672-1.581039c0.208984-0.259766,0.525391-0.389648,0.855469-0.37793
			c0.255859,0.008789,0.521484,0.102539,0.746094,0.28125c0.074219,0.058594,0.173828,0.133789,0.238281,0.19043
			c0.289063,0.248047,0.464844,0.493164,0.707031,0.749023c0.529297,0.537109,0.966797,0.983383,1.445313,1.306625
			c0.251953,0.146484,0.445313,0.087891,0.636719,0.061523c0.0625,0.044922,0.269531,0.194336,0.386719,0.275391
			c1.826172-1.936508,4.222656-3.371078,7.007813-4.002914c0.646484-0.147461,1.294922-0.245117,1.9375-0.298828l0.025391-0.453125
			c0.142578-0.137695,0.302734-0.336914,0.347656-0.554688c0.048828-0.576172-0.027344-1.196289-0.119141-1.944336
			c-0.048828-0.349609-0.132813-0.640625-0.146484-1.019531c-0.001953-0.077148,0.001953-0.185547,0.001953-0.275391
			c0-0.009766-0.001953-0.019531-0.001953-0.029297c0-0.658203,0.480469-1.192383,1.074219-1.192383
			c0.591797,0,1.070313,0.53418,1.070313,1.192383c0.001953,0.092773,0.005859,0.217773,0.003906,0.304688
			c-0.013672,0.378906-0.097656,0.669922-0.146484,1.019531c-0.089844,0.748047-0.167969,1.368164-0.123047,1.944336
			c0.042969,0.289063,0.210938,0.40332,0.351563,0.536133c0.003906,0.078125,0.015625,0.335938,0.023438,0.479492
			c3.412109,0.302734,6.578125,1.862305,8.902344,4.299789l0.408203-0.290039
			c0.138672,0.007813,0.441406,0.048828,0.652344-0.071289c0.478516-0.323242,0.916016-0.771469,1.443359-1.308578
			c0.242188-0.256836,0.419922-0.500977,0.708984-0.749023c0.064453-0.056641,0.164063-0.131836,0.238281-0.19043
			c0.513672-0.410156,1.228516-0.366211,1.597656,0.09668s0.251953,1.169922-0.261719,1.581039
			c-0.074219,0.057617-0.167969,0.138672-0.236328,0.19043c-0.306641,0.224609-0.587891,0.339844-0.890625,0.519531
			c-0.640625,0.396484-1.173828,0.723633-1.595703,1.120117c-0.199219,0.213867-0.183594,0.416016-0.201172,0.608398
			c-0.060547,0.053711-0.269531,0.239258-0.380859,0.34082c0.923828,1.375977,1.617188,2.936523,2.009766,4.643555
			c0.388672,1.691406,0.449219,3.381836,0.222656,5.006836l0.433594,0.125977c0.078125,0.110352,0.238281,0.37793,0.464844,0.464844
			c0.550781,0.173828,1.171875,0.237305,1.919922,0.316406c0.353516,0.030273,0.658203,0.011719,1.029297,0.083008
			c0.089844,0.016602,0.220703,0.052734,0.3125,0.073242C553.052673,269.78949,553.458923,270.370544,553.326111,270.94281z"/>
		<path fill="#326CE5" d="M543.910095,260.816833l-4.1875,3.74707l0.001953,0.011719
			c-0.146484,0.126953-0.253906,0.298828-0.300781,0.500977c-0.111328,0.496094,0.1875,0.990234,0.671875,1.123047
			l0.003906,0.023438l5.427734,1.5625c0.113281-1.170898,0.042969-2.381836-0.236328-3.594727
			C545.011658,262.963318,544.537048,261.829529,543.910095,260.816833z"/>
		<path fill="#326CE5" d="M539.345642,269.47406c-0.070313-0.012695-0.144531-0.019531-0.216797-0.015625
			c-0.123047,0.005859-0.244141,0.037109-0.361328,0.09375c-0.458984,0.220703-0.658203,0.762695-0.458984,1.225586
			l-0.007813,0.008789l2.167969,5.236328c2.089844-1.332031,3.654297-3.320313,4.470703-5.617188l-5.583984-0.943359
			L539.345642,269.47406z"/>
		<path fill="#326CE5" d="M535.294861,272.249451c-0.091797-0.170898-0.238281-0.314453-0.425781-0.404297
			c-0.142578-0.068359-0.292969-0.099609-0.441406-0.09375c-0.326172,0.011719-0.636719,0.194336-0.800781,0.5h-0.003906
			l-2.722656,4.920898c1.884766,0.640625,3.964844,0.785156,6.052734,0.311523
			c0.371094-0.084961,0.734375-0.185547,1.089844-0.303711l-2.728516-4.930664H535.294861z"/>
	</g>
</g>
<path id="Flask" d="M264.785156,110.521484c-2.134766-1.679688-4.413086-3.289063-5.96875-5.556641
	c-3.275391-3.99707-5.796875-8.626953-7.520996-13.491211c-1.04248-3.163086-1.399414-6.554688-2.742188-9.595703
	c-1.405273-2.208984,0.240234-4.624023,2.659668-5.325195c1.077637-0.207031,2.97168-1.222656,0.685059-0.49707
	c-2.048828,1.503906-2.247559-1.365234-0.145996-1.546875c1.435059-0.19043,1.962891-1.364258,1.472168-2.420898
	c-1.540527-1.003906,3.733887-2.108398,1.080078-3.605469c-2.76416-2.983398,3.865723-3.557617,2.22998-0.170898
	c-0.390625,2.604492,4.633789-0.476563,3.46875,2.53125c1.18457,1.443359,4.436523,0.328125,4.355469,2.354492
	c1.726563,0.118164,2.319336,1.570313,3.939453,1.681641c1.679688,0.758789,4.723633,1.356445,5.294922,3.249023
	c-1.666016,1.319336-5.523438-2.724609-5.708984,0.926758c0.50293,5.394531,0.374023,10.950195,2.348633,16.086914
	c0.933594,3.110352,3.195313,5.557617,5.240234,7.979492c1.954102,2.373047,4.603516,4.042969,7.302734,5.449219
	c2.368164,1.117188,4.920898,1.857422,7.501953,2.322266c1.046875-0.800781,2.895508-3.777344,4.52832-2.521484
	c0.077148,1.410156-3.241211,2.947266-0.157227,2.792969c1.8125-0.546875,3.068359,1.400391,4.560547-0.357422
	c1.374023,1.628906,5.711914-1.039063,4.734375,2.287109c-1.322266,0.853516-3.250977,0.337891-4.575195,1.511719
	c-2.183594-1.089844-3.921875,0.976563-6.34082,0.714844c-2.683594,0.482422-5.415039,0.675781-8.136719,0.679688
	c-4.46582-0.353516-9.026367-0.501953-13.274414-2.056641C269.223633,113.248047,266.888672,111.884766,264.785156,110.521484z
	 M268.556641,112.15625c2.336914,1.009766,4.62207,2.076172,7.182617,2.396484
	c4.061523,0.566406,8.257813,1.433594,12.334961,0.642578c-1.844727-0.833984-3.751953,0.324219-5.59082-0.597656
	c-2.205078,0.474609-4.571289-0.119141-6.8125-0.414063c-2.549805-1.134766-5.300781-1.916016-7.6875-3.388672
	c-2.983398-1.089844,1.542969,1.396484,2.348633,1.597656c1.864258,1.058594-2.050781-0.542969-2.603516-0.982422
	c-1.561523-0.875-1.760742-0.691406-0.154297,0.197266C267.898438,111.796875,268.217773,111.994141,268.556641,112.15625
	L268.556641,112.15625z M264.110352,109.013672c2.263672,0.837891-0.009766-1.591797-1.047852-1.451172
	c-0.458984-0.796875-1.755859-1.300781-0.841797-1.728516c-1.645508,0.570313-1.722656-2.173828-2.49707-1.78125
	c-1.741211-0.548828-0.676758-2.496094-2.750977-3.692383c-0.189453-1.258789-2.05957-2.352539-2.656738-4.25293
	c-0.263184-0.972656-2.113281-3.767578-0.977051-1.166016c0.967773,2.50293,2.670898,4.647461,4.086914,6.788086
	c1.100586,2.038086,2.399414,4.168945,4.40332,5.44043C262.503906,107.818359,263.15625,108.810547,264.110352,109.013672
	L264.110352,109.013672z M257.586914,101.852539 M266.822266,110.019531 M268.050781,110.466797 M269.589844,111.109375
	 M272.226563,112.580078 M267.162109,109.048828 M268.317383,109.625 M274.085938,113.226563
	c0.927734,0.583984,5.415039,1.28125,2.604492,0.238281C276.220703,113.564453,271.480469,112.125,274.085938,113.226563z
	 M264.927734,106.09375 M267.613281,107.658203 M269.873047,109.042969 M263.833984,104.902344
	c1.088867,0.835938,4.389648,0.107422,1.667969-0.498047c-1.239258-0.660156-4.03125-1.113281-2.12793,0.398438
	L263.833984,104.902344L263.833984,104.902344z M271.402344,109.521484 M269.102539,107.693359
	c2.661133,0.753906-2.237305-1.681641-0.657227-0.277344l0.351563,0.160156l0.306641,0.117188H269.102539z M273.712891,110.357422
	C276.233398,110.382813,271.436523,110.011719,273.712891,110.357422L273.712891,110.357422z M262.866211,103.445313
	 M277.975586,112.75 M267.166016,106.078125 M263.104492,103.150391 M258.291992,100.040039 M270.923828,108.056641
	 M278.787109,112.880859 M270.227539,107.337891 M264.37207,103.625 M274.279297,109.783203 M269.125,106.283203
	c1.932617,0.25-2.299805-1.314453-0.423828-0.138672L269.125,106.283203L269.125,106.283203z M275.842773,110.414063
	c1.805664-1.078125,1.209961,2.527344,3.0625,0.304688c1.827148-1.332031-1.577148,1.650391,0.673828,0.238281
	c1.628906-1.089844,4.03418,0.515625,5.552734,1.041016c1.09375-0.054688,2.155273,0.945313,3.275391,0.335938
	c2.15625-0.580078-4.216797-0.861328-2.546875-1.890625c-1.972656,0.574219-3.429688-0.685547-4.400391-1.949219
	c-2.213867-0.511719-4.773438-1.642578-5.876953-3.601563c-0.451172-0.734375,0.651367,0.105469-0.388672-1.097656
	c-1.333008-1.185547-2-2.533203-2.895508-3.974609c-1.069336-0.571289-1.193359-2.249023-1.301758-0.056641
	c0.008789-1.383789-1.291016-2.316406-1.608398-1.928711c-0.005859-1.333008,1.390625-0.664063,0.413086-1.650391
	c-0.209961-1.382813-0.90332-2.822266-1.112305-4.381836c-0.323242-0.75293-0.044922-2.363281-1.103516-0.661133
	c-0.384766,1.798828-0.12793-2.210938,0.472656-0.887695c0.787109-1.350586-0.283203-1.191406-0.327148-1.003906
	c0.512695-1.138672,0.324219-2.75293-0.133789-2.137695c0.273438-1.206055,0.431641-4.441406-0.40918-3.868164
	c0.509766-1.261719,0.966797-5.774414-1.246094-4.053711c-0.896484,0.012695-2.449219,0.325195-3.183594,0.689453
	c2.300781,1.269531-0.231445,0.458984-1.168945,0.257813c-0.12207,1.173828-1.049805,0.666016-2.208984,0.677734
	c1.852539,0.229492-0.901367,1.893555-1.963867,1.24707c-1.379883,0.65918,1.19043,2.304688,0.027344,2.813477
	c0.143555,0.767578-2.113281-0.276367-1.935547,1.495117c-1.339355-0.564453-0.18457,2.101563,0.486328,1.199219
	c2.276367,0.617188,1.602539,2.023438,1.661133,3.358398c-0.371094,0.77832-1.833008-1.829102-0.327148-1.708984
	c-1.188477-1.930664-1.313477-0.697266-2.301758,0.200195c-0.229492,0.064453,2.519531,1.276367,0.793945,1.875977
	c1.518555,0.234375,1.561523,1.5625,1.871094,2.402344c0.912109,0.951172,0.725586-1.049805,1.817383,0.092773
	c-0.69043-1.017578-3.660156-2.866211-1.268555-2.273438c-0.014648-1.024414-0.433594-1.850586,0.298828-1.830078
	c0.725586-1.313477-0.759766,3.238281,0.875977,1.569336c0.452148-0.198242,0.564453-1.314453,1.376953,0.105469
	c1.181641,1.161133,0.426758,2.003906-1.239258,0.939453c0.297852,1.011719,2.229492,1.373047,1.866211,2.954102
	c0.384766,1.392578,0.922852,0.878906,1.392578,0.798828c0.367188,1.351563,0.576172,0.358398,0.59375-0.285156
	c1.685547,0.360352,1.291016,1.355469,1.818359,2.052734c1.161133,0.523438-1.662109-3.552734,0.331055-1.226563
	c2.098633,1.893555,0.786133,2.68457-1.095703,2.380859c1.191406-0.09668,1.575195,1.611328,3.06543,1.550781
	c1.359375,0.646484,2.279297,3.128906-0.063477,2.09668c-0.811523-0.732422-3.686523-1.636719-1.338867-0.243164
	c2.168945,1.003906,3.891602,1.603516,5.983398,2.865234c1.49707,1.068359,2.143555,2.292969,2.710938,2.533203
	c-1.258789,0.603516-3.791016-0.478516-1.911133-0.808594c-1.171875-0.214844-2.492188-0.808594-1.369141,0.654297
	c0.957031,0.798828,3.385742,0.712891,3.822266,0.804688c-0.369141,0.8125-1.003906,0.876953,0.014648,0.939453
	C274.238281,109.974609,275.738281,110.068359,275.842773,110.414063L275.842773,110.414063z M273.520508,103.855469
	c-0.69043-0.722656-0.869141-2.076172-0.12207-0.898438C273.782227,103.111328,274.625,105.169922,273.520508,103.855469
	L273.520508,103.855469z M281.084961,108.660156 M272.429688,102.084961 M271.677734,101.073242 M262.568359,94.785156
	 M269.818359,98.714844 M264.697266,95.152344 M269.091797,96.5625c-0.823242-1.844727,0.583984-1.007813,0.182617,0.302734
	L269.091797,96.5625L269.091797,96.5625z M261.511719,91.506836c-0.369141-0.605469-0.977539-2.380859-0.78125-2.922852
	c0.177734,0.882813,1.876953,3.799805,0.833984,1.208008c-1.154297-2.172852,1.37793,0.706055,1.638672,1.24707
	c0.12207,0.539063-0.710938-0.147461-0.146484,1.116211C262.026367,90.716797,262.448242,92.950195,261.511719,91.506836z
	 M259.168945,89.892578 M260.22168,90.254883 M257.686523,88.293945c-0.87207-0.866211-1.50293-1.666016,0.041016-0.538086
	c0.595703,0.024414-1.322266-1.816406,0.143555-0.583984C259.413086,87.453125,258.631836,89.698242,257.686523,88.293945z
	 M259.018555,88.258789 M259.837891,88.522461 M258.208984,86.964844c-2.536133-2.256836,3.186523,1.180664,0.415039,0.418945
	L258.208984,86.964844L258.208984,86.964844z M265.474609,91.186523c-1.09668-0.658203-0.291016-4.631836,0.083984-1.914063
	c1.066406-0.344727-0.05957,1.40332,0.735352,1.387695C266.168945,91.763672,265.813477,92.160156,265.474609,91.186523z
	 M268.162109,92.775391 M267.695313,92.3125 M258.706055,86.223633c-1.62793-2.248047,4.734375,2.273438,1.043945,0.570313
	C259.364258,86.693359,258.899414,86.65625,258.706055,86.223633z M263.881836,88.966797
	C263.727539,87.075195,264.225586,89.28125,263.881836,88.966797L263.881836,88.966797z M267.810547,91.488281
	 M258.956055,85.366211c0.96875-0.208008,4.012695,1.700195,1.216797,0.543945
	C259.862305,85.567383,259.200195,85.722656,258.956055,85.366211z M267.270508,89.509766
	c0.103516-1.93457,0.578125-1.15625,0.003906,0.276367L267.270508,89.509766L267.270508,89.509766L267.270508,89.509766z
	 M259.676758,84.693359c0.395508-0.579102-1.046875-2.617188,0.208008-0.731445
	c0.541992,0.430664,1.570313,0.72168,0.663086,0.902344C261.974609,86.124023,260.199219,85.206055,259.676758,84.693359z
	 M266.858398,88.90625 M258.852539,82.65625 M260.726563,83.771484 M266.010742,86.711914 M265.705078,86.033203
	 M265.254883,84.84668C265.131836,84.099609,265.673828,85.787109,265.254883,84.84668L265.254883,84.84668z M265.987305,83.655273
	c-0.50293-0.886719,0.635742-3.908203,0.762695-2.03418c-0.530273,1.460938-0.152344,2.277344,0.216797,0.318359
	C267.652344,80.397461,266.820313,84.981445,265.987305,83.655273L265.987305,83.655273z M266.741211,79.161133
	 M265.482422,103.947266 M268.074219,105.257813c1.441406,0.371094,1.433594-0.224609,0.130859-0.400391
	c-0.700195-0.652344-2.911133-1.34375-0.932617-0.082031C267.40332,105.107422,267.818359,105.101563,268.074219,105.257813
	L268.074219,105.257813z M262.956055,101.859375c0.794922,0.592773,2.992188,1.677734,1.131836,0.225586
	c0.626953-0.727539-1.200195-1.116211-0.594727-1.603516c-1.541992-0.943359-1.21582-0.859375-0.135742-0.831055
	c-1.852539-0.827148,0.268555-0.765625,0.166992-1.189453c-0.713867-0.141602-3.547852-1.259766-1.879883,0.091797
	c-1.695313-0.864258-0.404297,0.321289-0.916016,0.196289c-1.734375-0.472656,1.542969,1.320313-0.276367,0.874023
	c0.994141,0.790039,2.676758,2.019531,0.420898,0.834961C260.575195,100.885742,262.487305,101.53418,262.956055,101.859375z
	 M265.666992,103.416016 M279.540039,111.820313 M280.96582,112.419922c0.760742-0.736328,0.032227,1.173828,1.259766-0.179688
	c0.013672-0.96875-0.038086-1.542969-1.412109-0.365234C280.43457,112.085938,280.265625,112.978516,280.96582,112.419922
	L280.96582,112.419922z M258.331055,98.206055 M259.853516,99.203125 M268.515625,104.427734
	c0.845703,0.75,3.884766,0.550781,1.027344,0.091797C269.120117,103.894531,266.855469,104.044922,268.515625,104.427734z
	 M280.423828,111.78125 M283.130859,113.640625 M283.135742,113.150391
	C284.577148,111.625,281.738281,113.242188,283.135742,113.150391L283.135742,113.150391z M254.585938,95.070313
	c-1.229004-1.75293-0.763672-2.541016-1.94873-3.97168c-0.224121-1.09375-2.032227-3.578125-0.935059-0.946289
	C252.706543,91.69043,253.005859,94.073242,254.585938,95.070313z M282.682617,112.666016 M284.707031,113.458984
	 M257.879883,96.267578 M284.28418,112.916016c1.286133-0.828125-0.295898-0.701172-0.232422,0.076172L284.28418,112.916016
	L284.28418,112.916016z M266.834961,101.918945 M267.913086,102.539063 M286.347656,113.476563
	c1.647461-1.1875-0.998047-0.228516-0.344727,0.226563L286.347656,113.476563L286.347656,113.476563z M285.717773,113.173828
	 M288.94043,115.318359 M258.706055,95.861328c1.208008,0.269531,4.826172,2.972656,2.691406,0.186523
	c-1.09375-0.324219-0.4375-2.996094-1.552734-2.523438c0.749023,1.25,0.616211,1.782227-0.956055,0.994141
	c-1.975586-0.964844-1.110352,0.477539-0.724609,0.875C257.638672,95.513672,258.860352,95.849609,258.706055,95.861328z
	 M253.203613,91.515625c0.21582-0.894531-1.991211-4.919922-1.041992-2.017578
	C252.50293,90.106445,252.46875,91.258789,253.203613,91.515625z M263.302734,97.741211 M264.833984,98.097656
	 M278.105469,106.462891C277.851563,105.816406,277.105469,106.449219,278.105469,106.462891L278.105469,106.462891z
	 M278.742188,106.927734 M284.001953,110.242188 M255.952148,92.216797 M276.9375,105.435547 M255.379883,90.884766
	 M258.079102,92.191406 M290.985352,112.371094c1.195313-0.244141,3.918945,0.607422,4.359375-0.318359
	c-1.452148-0.035156-5.022461-1.023438-5.19043,0.236328l0.317383,0.048828L290.985352,112.371094L290.985352,112.371094
	L290.985352,112.371094z M258.935547,92.407227 M251.841797,87.487305 M253.533691,87.912109 M254.500977,88.386719
	 M260.583008,92.288086 M253.856445,87.31543 M250.388184,85.066406 M250.904297,84.675781 M253.754395,86.37793
	c1.205566-0.473633-2.195801-0.979492-0.246582-0.089844L253.754395,86.37793z M291.900391,109.939453 M296.508789,112.328125
	 M254.045898,84.883789 M249.990723,82.166992c-0.218262-1.249023-0.188477-3.441406,1.89502-2.700195
	c-2.780762,0.552734,1.925781,3.457031,1.331055,1.164063c1.169434,0.056641,2.288086-0.691406,1.674805,0.444336
	c2.303711-0.254883,3.901367-2.251953,6.126953-1.973633c1.734375-0.228516,3.628906-0.402344,5.498047-1.100586
	c1.535156-0.110352,3.013672-1.764648,2.172852-2.745117c-2.094727-0.176758-4.288086,0.084961-6.603516,0.545898
	c-2.564453,0.532227-4.896484,1.546875-7.484375,1.981445c-2.524414,0.338867,0.506836,0.93457-0.215332,1.066406
	c-1.317871,0.457031,1.569824,0.765625-0.171387,1.24707c-1.074707-0.205078-2.194824-0.575195-1.735352-1.707031
	c-2.416992,0.3125-4.541016,1.316406-2.631348,3.776367L249.990723,82.166992L249.990723,82.166992L249.990723,82.166992z
	 M255.81543,79.200195c0.566406-2.087891,3.036133,1.71875,0.928711,0.277344
	C256.492188,79.290039,256.078125,79.135742,255.81543,79.200195z M255.925781,78.188477 M256.962891,78.205078
	c0.075195-0.961914,2.378906,0.507813,0.380859,0.345703L256.962891,78.205078L256.962891,78.205078z M258.384766,77.633789
	 M258.748047,77.389648c0.864258-1.037109,4.892578-0.662109,1.944336-0.100586
	C259.901367,76.694336,259.294922,77.640625,258.748047,77.389648z M264.005859,76.580078 M265.49707,76.572266
	c0.545898-1.429688,2.116211-0.573242,0.25293-0.288086C265.790039,76.436523,265.694336,77.022461,265.49707,76.572266z
	 M253.45752,84.150391C255.086914,83.152344,251.727051,83.28418,253.45752,84.150391L253.45752,84.150391z M254.662109,84.485352
	 M251.112305,81.966797 M299.228516,112.066406 M294.338867,108.728516 M300.573242,112.388672
	c1.301758,0.003906,3.944336-0.404297,1.111328-0.402344C301.240234,112.054688,299.094727,112.039063,300.573242,112.388672
	L300.573242,112.388672z M255.722656,83.899414c1.053711-0.072266,1.648438-1.163086-0.204102-1.099609
	c-2.870605-0.296875,2.533203,0.983398-0.368164,0.617188C254.759766,83.675781,255.700195,83.970703,255.722656,83.899414z
	 M256.650391,84.369141 M257.750977,81.433594 M254.24707,75.577148c1.879883-0.638672,4.451172-1.357422,5.339844,0.314453
	c-0.90332-1.085938-0.365234-2.157227,0.488281-0.567383c1.206055,1.608398,1.810547-0.731445,1.026367-1.271484
	c0.894531,1.111328,1.911133,1.636719,0.598633,0.070313c1.426758-1.716797-2.856445,0.224609-3.830078,0.205078
	C257.401367,74.538086,253.033203,75.442383,254.24707,75.577148z M255.348633,73.466797
	c1.073242-0.80957,3.708984,0.481445,2.017578-0.803711C257.200195,72.516602,253.660645,73.637695,255.348633,73.466797z
	 M259.258789,73.628906c1.254883,0.03125-0.541992-1.686523,0.954102-0.908203
	c-0.246094-0.802734-1.742188-0.953125-2.472656-1.273438C257.326172,72.180664,258.582031,73.637695,259.258789,73.628906z
	 M256.03418,70.079102 M257.632813,70.461914c2.022461-0.267578-0.515625-0.871094-0.408203-0.021484L257.632813,70.461914
	L257.632813,70.461914z M254.648438,68.126953c-1.424316-1.859375,2.677734,0.3125,1.231445-1.632813
	C254.662109,65.523438,253.491699,67.584961,254.648438,68.126953z M272.924805,77.97168
	c0.652344-1.158203-2.697266-1.561523-0.44043-0.411133C272.692383,77.630859,272.644531,78.050781,272.924805,77.97168z"/>
<g id="GraphQL">
	<g>
		<g>
			
				<rect x="332.38324" y="65.423805" transform="matrix(0.865909 0.500201 -0.500201 0.865909 87.66391 -155.274277)" fill="#E535AB" width="2.120242" height="40.892624"/>
		</g>
	</g>
	<g>
		<g>
			<rect x="321.881348" y="100.21875" fill="#E535AB" width="40.896484" height="2.120117"/>
		</g>
	</g>
	<g>
		<g>
			
				<rect x="321.638794" y="105.336609" transform="matrix(0.866046 0.499963 -0.499963 0.866046 97.860916 -152.459778)" fill="#E535AB" width="23.618914" height="2.119754"/>
		</g>
	</g>
	<g>
		<g>
			
				<rect x="339.408386" y="74.555115" transform="matrix(0.866021 0.500008 -0.500008 0.866021 84.864136 -165.481171)" fill="#E535AB" width="23.620737" height="2.120242"/>
		</g>
	</g>
	<g>
		<g>
			
				<rect x="332.393982" y="63.797054" transform="matrix(0.500201 0.865909 -0.865909 0.500201 232.129242 -250.952515)" fill="#E535AB" width="2.120242" height="23.620737"/>
		</g>
	</g>
	<g>
		<g>
			
				<rect x="330.784424" y="84.811882" transform="matrix(0.499994 0.866029 -0.866029 0.499994 249.985458 -261.241821)" fill="#E535AB" width="40.89698" height="2.11842"/>
		</g>
	</g>
	<g>
		<g>
			<rect x="323.502441" y="79.189453" fill="#E535AB" width="2.120117" height="23.621094"/>
		</g>
	</g>
	<g>
		<g>
			<rect x="359.04834" y="79.189453" fill="#E535AB" width="2.121094" height="23.621094"/>
		</g>
	</g>
	<g>
		<g>
			
				<rect x="350.29248" y="96.113159" transform="matrix(0.499996 0.866028 -0.866028 0.499996 267.742554 -250.971893)" fill="#E535AB" width="1.851576" height="20.543213"/>
		</g>
	</g>
	<path fill="#E535AB" d="M363.977051,103.5c-1.225586,2.130859-3.958008,2.859375-6.089844,1.632813
		c-2.131836-1.224609-2.859375-3.957031-1.633789-6.088867c1.224609-2.132813,3.958008-2.860352,6.089844-1.633789
		C364.487793,98.647461,365.216309,101.369141,363.977051,103.5"/>
	<path fill="#E535AB" d="M328.405762,82.955078c-1.225586,2.133789-3.958008,2.861328-6.089844,1.635742
		c-2.132813-1.226563-2.861328-3.958984-1.634766-6.09082c1.225586-2.131836,3.958984-2.859375,6.089844-1.634766
		C328.902832,78.104492,329.631348,80.823242,328.405762,82.955078"/>
	<path fill="#E535AB" d="M320.693848,103.5c-1.225586-2.130859-0.49707-4.852539,1.633789-6.089844
		c2.131836-1.226563,4.852539-0.499023,6.091797,1.633789c1.225586,2.131836,0.498047,4.850586-1.635742,6.088867
		C324.640137,106.359375,321.919434,105.630859,320.693848,103.5"/>
	<path fill="#E535AB" d="M356.265137,82.955078c-1.225586-2.131836-0.49707-4.850586,1.634766-6.089844
		c2.132813-1.224609,4.851563-0.49707,6.09082,1.634766c1.225586,2.131836,0.49707,4.852539-1.633789,6.09082
		C360.223145,85.816406,357.491699,85.088867,356.265137,82.955078"/>
	<path fill="#E535AB" d="M342.335449,116c-2.463867,0-4.456055-1.992188-4.456055-4.455078
		c0-2.464844,1.992188-4.458984,4.456055-4.458984s4.456055,1.994141,4.456055,4.458984
		C346.791504,113.994141,344.799316,116,342.335449,116"/>
	<path fill="#E535AB" d="M342.335449,74.912109c-2.463867,0-4.456055-1.992188-4.456055-4.457031
		c0-2.463867,1.992188-4.455078,4.456055-4.455078s4.456055,1.991211,4.456055,4.455078
		C346.791504,72.919922,344.799316,74.912109,342.335449,74.912109"/>
</g>
<path id="Heroku" fill="#430098" d="M481.871094,66h-36.000488c-2.485352,0-4.5,2.014648-4.5,4.5v41
	c0,2.484375,2.014648,4.5,4.5,4.5h36.000488c2.484375,0,4.5-2.015625,4.5-4.5v-41C486.371094,68.014648,484.355469,66,481.871094,66
	z M452.619141,108.5v-10l5.626953,5L452.619141,108.5z M470.119141,108.5V93.567383
	C470.095703,92.402344,469.533203,91,466.994141,91c-5.082031,0-10.785156,2.556641-10.841797,2.582031l-3.533203,1.600586
	V73.499023h5v14.195313c2.498047-0.8125,5.986328-1.695313,9.375-1.695313c3.091797,0,4.941406,1.21582,5.949219,2.235352
	c2.150391,2.174805,2.179688,4.946289,2.177734,5.265625v15H470.119141z M471.369141,81.625h-4.998047
	c1.964844-2.578125,3.197266-5.291016,3.748047-8.125977h5.001953C474.783203,76.339844,473.630859,79.061523,471.369141,81.625z"/>
<g id="Mateial.io">
	<path fill="#757575" d="M348.948242,0.000488c-13.806641,0-25,11.191406-25,25c0,13.806152,11.193359,24.999512,25,24.999512
		c13.807617,0,25.000977-11.193359,25.000977-24.999512C373.949219,11.191895,362.755859,0.000488,348.948242,0.000488z
		 M348.948242,42.5L331.447266,7.499512h35L348.948242,42.5z"/>
	<g>
		<polygon fill="#BDBDBD" points="331.447266,42.5 348.948242,42.5 331.447266,7.499512 		"/>
		<polygon fill="#BDBDBD" points="348.948242,42.5 366.447266,42.5 366.447266,7.499512 		"/>
	</g>
</g>
<path id="FontAwesome" fill="#339AF0" d="M628.601563,35.100098c0,0.700195-0.599609,1-1.299805,1.300781
	c-2.799805,1.199707-5.799805,2.299316-9,2.299316c-4.5,0-6.599609-2.799316-11.999023-2.799316
	c-3.900391,0-8.000977,1.398926-11.300781,2.898926c-0.200195,0.100586-0.400391,0.100586-0.599609,0.200195v7.600586
	c0,2.089844-1.575195,3.399414-3.300781,3.399414c-1.899414,0-3.399414-1.5-3.399414-3.399414V10.000488
	c-1.300781-1.000977-2.200195-2.599609-2.200195-4.400391c0-3.100586,2.500977-5.599609,5.599609-5.599609
	c3.100586,0,5.599609,2.499023,5.599609,5.599609c0,1.800781-0.799805,3.399414-2.200195,4.400391v3.099609
	c0.40332-0.134766,5.740234-2.799805,11.202148-2.799805c6.374023,0,9.538086,2.700195,12.399414,2.700195
	c3.798828,0,7.999023-2.700195,8.999023-2.700195c0.799805,0,1.5,0.599609,1.5,1.299805V35.100098L628.601563,35.100098z"/>
<g id="Angular" transform="translate(-31.9,-30)">
	<polygon id="polygon3601" fill="#DD0031" points="293.298431,38.300293 296.848236,69.074219 316.572845,80 316.572845,80 
		316.572845,80 336.297455,69.074219 339.848236,38.300293 316.572845,30.000488 316.572845,30.000488 316.572845,30.000488 	"/>
	<polygon id="polygon3603" fill="#C3002F" points="316.572845,60.850098 316.572845,60.850098 316.572845,80 316.572845,80 
		336.297455,69.074219 339.848236,38.300293 316.572845,30.000488 316.572845,30.000488 316.572845,35.550293 316.572845,35.524902 
			"/>
	<path id="path3605" fill="#FFFFFF" d="M316.572845,35.524902l-14.549805,32.625488l0,0h5.424805
		l0,0l2.924805-7.300293h12.350586l2.924805,7.300293l0,0h5.424805l0,0L316.572845,35.524902L316.572845,35.524902
		L316.572845,35.524902L316.572845,35.524902L316.572845,35.524902z M320.822845,56.350098h-8.5l4.25-10.224609
		L320.822845,56.350098z"/>
</g>
<g id="auth0">
	<path id="Shape" fill="#EB5424" d="M416.140137,106.455078l-5.027344-15.451172l13.158203-9.547852h-16.264648l-5.027344-15.452148
		L402.978027,66h16.266602l5.02832,15.455078v-0.000977l0.004883-0.001953
		C427.197754,90.417969,424.190918,100.614258,416.140137,106.455078L416.140137,106.455078L416.140137,106.455078z
		 M389.807129,106.453125l-0.004883,0.003906l13.150391,9.541016l13.15332-9.544922l-13.149414-9.541016L389.807129,106.453125
		L389.807129,106.453125L389.807129,106.453125z M381.686035,81.451172L381.686035,81.451172
		c-3.073242,9.451172,0.494141,19.464844,8.130859,25.003906l0.000977-0.003906L394.845215,91l-13.15332-9.544922h16.258789
		l5.026367-15.451172L402.978027,66h-16.266602L381.686035,81.451172L381.686035,81.451172L381.686035,81.451172z"/>
</g>
<g id="Docker">
	<path fill="#2496ED" d="M640.455078,85.044922c-1.630859-1.097656-5.353516-1.474609-8.236328-0.943359
		c-0.376953-2.693359-1.871094-5.044922-4.632813-7.189453l-1.578125-1.0625l-1.064453,1.578125
		c-1.355469,2.024414-2.025391,4.855469-1.802734,7.548828c0.085938,0.960938,0.412109,2.642578,1.390625,4.135742
		c-0.978516,0.532227-2.916016,1.235352-5.457031,1.201172h-48.900391l-0.085938,0.56543
		c-0.464844,2.694336-0.464844,11.170898,5.042969,17.673828c4.169922,4.941406,10.451172,7.445313,18.634766,7.445313
		c17.707031,0,30.833984-8.150391,36.976563-22.973633c2.419922,0.050781,7.619141,0.016602,10.277344-5.079102
		c0.070313-0.102539,0.224609-0.428711,0.6875-1.389648l0.257813-0.532227L640.455078,85.044922z M601.865234,72.759766h7.429688V66
		h-7.429688V72.759766z"/>
	<path fill="#2496ED" d="M601.865234,80.859375h7.429688v-6.761719h-7.429688V80.859375z M593.0625,80.859375h7.429688v-6.761719
		H593.0625V80.859375z M584.277344,74.097656h7.429688v6.761719h-7.429688V74.097656z M575.474609,82.197266h7.429688v6.760742
		h-7.429688V82.197266z M584.277344,82.197266h7.429688v6.760742h-7.429688V82.197266z M593.0625,88.958008h7.429688v-6.760742
		H593.0625V88.958008z M601.865234,88.958008h7.429688v-6.760742h-7.429688V88.958008z M610.650391,88.958008h7.462891v-6.760742
		h-7.445313v6.760742H610.650391z"/>
</g>
<g id="agGrid">
	<path fill="#E11F22" d="M569.501953,31.602051H557.12207c-1.738281,0-3.147461-1.40918-3.147461-3.146484v-8.393555
		c0-1.738281,1.40918-3.146484,3.147461-3.146484h8.8125v-5.456055h3.567383V31.602051z M552.505859,16.915527v14.686523h-3.566406
		V16.915527H552.505859z M552.505859,11.415527v3.624023h-3.566406v-3.624023H552.505859z M547.470703,16.915527v3.56543h-7.973633
		c-0.347656,0-0.629883,0.283203-0.629883,0.629883v10.491211h-3.566406V20.062012c0-1.738281,1.40918-3.146484,3.147461-3.146484
		H547.470703z M530.68457,12.718262c1.738281,0,3.147461,1.40918,3.147461,3.147461v2.098633h-3.567383v-1.048828
		c0-0.348633-0.28125-0.629883-0.628906-0.629883h-10.491211c-0.347656,0-0.629883,0.28125-0.629883,0.629883v10.490234
		c0,0.347656,0.282227,0.629883,0.629883,0.629883h10.491211c0.347656,0,0.628906-0.282227,0.628906-0.629883v-2.9375h-4.196289
		v-3.567383h7.763672v7.554688c0,1.737305-1.40918,3.146484-3.147461,3.146484h-12.589844
		c-1.738281,0-3.147461-1.40918-3.147461-3.146484V15.865723c0-1.738281,1.40918-3.147461,3.147461-3.147461H530.68457z
		 M565.93457,20.480957h-7.763672c-0.34668,0-0.628906,0.283203-0.628906,0.629883v6.294922
		c0,0.347656,0.282227,0.629883,0.628906,0.629883h7.763672V20.480957z"/>
	<path fill="#FFFFFF" d="M503.827148,31.594238l-0.000977,2.736328c0,1.737305-1.40918,3.145996-3.147461,3.145996h-9.651367
		v-2.726074h9.442383c0.358398-0.011719,0.629883-0.289063,0.629883-0.629883v-2.514648h-9.652344
		c-1.74707-0.009766-3.147461-1.415039-3.147461-3.147461V19.64209c0-1.738281,1.40918-3.146484,3.147461-3.146484h9.231445
		c1.738281,0,3.147461,1.408203,3.147461,3.146484l0.000977,9.232422h6.294922v-8.205078
		c0.027344,0.217773,0.040039,0.439453,0.040039,0.663086v11.686523c0,0.223633-0.012695,0.444336-0.040039,0.662109v-2.086914
		H503.827148z M486.831055,31.602051h-12.169922c-1.737305,0-3.147461-1.40918-3.147461-3.146484v-3.148438h-5.504883v-2.726563
		h18.094727v-2.728516c0-0.34082-0.271484-0.619141-0.629883-0.628906h-11.959961v-2.727539h12.169922
		c1.748047,0.008789,3.147461,1.414063,3.147461,3.146484V31.602051z"/>
	<path fill="#E11F22" d="M484.103516,22.580566h-18.125977V14.07373c0-1.124023,0.599609-2.163086,1.574219-2.725586
		l18.923828-10.926758c0.973633-0.561523,2.173828-0.561523,3.147461,0l18.924805,10.926758
		c0.973633,0.5625,1.574219,1.601563,1.574219,2.725586v14.800781h-6.294922l-0.000977-9.232422
		c0-1.738281-1.40918-3.146484-3.147461-3.146484h-9.231445c-1.738281,0-3.147461,1.408203-3.147461,3.146484v8.816406
		c0,1.738281,1.40918,3.147461,3.147461,3.147461h9.652344v2.514648c0,0.34668-0.282227,0.629883-0.629883,0.629883h-9.442383
		v2.726074h9.651367c1.738281,0,3.147461-1.408691,3.147461-3.145996l0.000977-2.736328h6.294922v4.332031
		c0,1.123535-0.600586,2.162598-1.574219,2.725098l-18.924805,10.926758c-0.973633,0.561523-2.173828,0.561523-3.147461,0
		l-18.923828-10.926758c-0.974609-0.5625-1.574219-1.601563-1.574219-2.725098V25.307129h5.536133v3.148438
		c0,1.737305,1.410156,3.146484,3.147461,3.146484h12.169922V19.64209c0-1.738281-1.40918-3.146484-3.147461-3.146484h-12.169922
		v2.727539h11.959961c0.347656,0,0.629883,0.28125,0.629883,0.628906V22.580566z M484.103516,28.874512h-9.232422
		c-0.347656,0-0.628906-0.282227-0.628906-0.628906v-2.938477h9.861328V28.874512z M500.469727,19.223145
		c0.347656,0,0.629883,0.28125,0.629883,0.628906v8.393555c0,0.34668-0.282227,0.628906-0.629883,0.628906h-8.8125
		c-0.347656,0-0.629883-0.282227-0.629883-0.628906v-8.393555c0-0.347656,0.282227-0.628906,0.629883-0.628906H500.469727z"/>
</g>
<g id="Materials_Theme_Generator">
	<path fill-rule="evenodd" fill="#198415" d="M434.217773,0.000488c5.206055,0,10.411133,0,15.616211,0
		c0,10.835938,0.00293,21.673828-0.012695,32.509766c-0.000977,0.376953-0.113281,0.801758-0.305664,1.125
		c-3.123047,5.212402-6.275391,10.405762-9.390625,15.622559c-0.291016,0.486328-0.598633,0.609375-1.125977,0.609375
		c-11.290039-0.013672-22.580078-0.009766-33.870117-0.011719c-0.238281,0-0.476563-0.013672-0.714844-0.021484
		c0.15332-0.269531,0.300781-0.541016,0.460938-0.806641c5.036133-8.363281,10.073242-16.724121,15.110352-25.085449
		c0,3.27832,0,6.556641,0,9.830078c0.945313,0,1.767578,0,2.65332,0c0-3.941406,0-7.841797,0-11.800781c1.9375,0,3.8125,0,5.6875,0
		c0-0.899414,0-1.739258,0-2.636719c-1.890625,0-3.724609,0-5.55957,0c3.751953-6.224609,7.504883-12.449219,11.25-18.677734
		C434.129883,0.465332,434.152344,0.220215,434.217773,0.000488z M441.916992,31.208496
		c-2.612305,0-5.18457,0.004883-7.756836-0.00293c-1.09668-0.001953-1.398438-0.308594-1.401367-1.40625
		c-0.005859-2.076172-0.00293-4.15332-0.001953-6.230469c0.000977-1.382813,0.182617-1.570313,1.552734-1.572266
		c3.103516-0.001953,6.207031,0,9.30957,0c0.253906,0,0.507813,0,0.763672,0c0-0.925781,0-1.765625,0-2.620117
		c-3.638672,0-7.217773-0.041992-10.795898,0.016602c-1.982422,0.033203-3.332031,1.34082-3.416016,3.416992
		c-0.106445,2.620117-0.078125,5.25,0.027344,7.870117c0.071289,1.763672,1.62793,3.111328,3.417969,3.125
		c3.150391,0.023438,6.300781,0.012695,9.452148,0.00293c0.998047-0.00293,1.481445-0.500977,1.486328-1.504883
		c0.009766-1.71875,0.003906-3.4375,0.00293-5.15625c0-1.537109-0.31543-1.861328-1.826172-1.863281
		c-2.338867-0.00293-4.678711-0.001953-7.017578,0.000977c-0.232422,0-0.463867,0.018555-0.708008,0.030273
		c0,0.882813,0,1.706055,0,2.592773c2.318359,0,4.597656,0,6.911133,0
		C441.916992,29.012207,441.916992,30.055176,441.916992,31.208496z"/>
	<path fill-rule="evenodd" fill="#010101" d="M419.985352,23.941895c-5.037109,8.361328-10.074219,16.722168-15.110352,25.085449
		c-0.160156,0.265625-0.307617,0.537109-0.460938,0.806641c-4.821289,0.007813-9.643555,0.015625-14.464844,0.023438
		c0-11.460938,0-22.92334,0-34.384277c0.109375-0.148438,0.232422-0.289063,0.327148-0.445313
		c2.577148-4.271484,5.154297-8.541016,7.724609-12.816406c0.436523-0.726563,0.84082-1.473633,1.259766-2.210938
		c11.652344,0,23.305664,0,34.957031,0c-0.06543,0.219727-0.087891,0.464844-0.201172,0.65625
		c-3.745117,6.228516-7.498047,12.453125-11.25,18.677734c-2.84082,0-5.681641,0-8.511719,0c0,0.964844,0,1.783203,0,2.683594
		c1.935547,0,3.823242,0,5.730469,0C419.985352,22.713379,419.985352,23.32666,419.985352,23.941895z M398.130859,25.308105
		c0.19043,0.313477,0.298828,0.485352,0.400391,0.661133c1.334961,2.335938,2.676758,4.667969,3.99707,7.011719
		c0.308594,0.548828,0.645508,1.013672,1.34082,1.017578c0.724609,0.003906,1.076172-0.474609,1.396484-1.046875
		c1.302734-2.326172,2.62793-4.640625,3.946289-6.957031c0.097656-0.171875,0.21582-0.332031,0.324219-0.496094
		c0.043945,0.010742,0.087891,0.022461,0.131836,0.03418c0,2.750977,0,5.500977,0,8.227539c0.927734,0,1.773438,0,2.628906,0
		c0-1.150391,0-2.248047,0-3.345703c0-3.24707-0.004883-6.494141,0.003906-9.742188
		c0.001953-0.699219-0.272461-1.209961-0.93457-1.447266c-0.598633-0.214844-1.214844,0.087891-1.623047,0.738281
		c-0.0625,0.101563-0.116211,0.208008-0.174805,0.311523c-1.438477,2.496094-2.875,4.993164-4.314453,7.489258
		c-0.443359,0.768555-0.890625,1.535156-1.382813,2.382813c-0.808594-1.400391-1.568359-2.716797-2.328125-4.033203
		c-1.189453-2.0625-2.367188-4.130859-3.572266-6.18457c-0.558594-0.952148-1.77832-1.033203-2.264648-0.146484
		c-0.170898,0.311523-0.205078,0.729492-0.206055,1.098633c-0.015625,3.271484-0.008789,6.541992-0.008789,9.8125
		c0,1.020508,0,2.041016,0,3.072266c0.900391,0,1.743164,0,2.639648,0
		C398.130859,30.970215,398.130859,28.219238,398.130859,25.308105z"/>
	<path fill-rule="evenodd" fill="none" d="M389.949219,49.857422c4.821289-0.007813,9.643555-0.015625,14.464844-0.023438
		c0.238281,0.007813,0.476563,0.021484,0.714844,0.021484c11.290039,0.001953,22.580078-0.001953,33.870117,0.011719
		c0.527344,0,0.834961-0.123047,1.125977-0.609375c3.115234-5.216797,6.267578-10.410156,9.390625-15.622559
		c0.192383-0.323242,0.304688-0.748047,0.305664-1.125c0.015625-10.835938,0.012695-21.673828,0.012695-32.509766
		c0.047852,0.214844,0.137695,0.429688,0.137695,0.644531c0.006836,10.673828,0.005859,21.34668,0.005859,32.019531
		c0,5.778809,0,11.558105,0,17.335449c-19.794922,0-39.589844,0-59.383789-0.005859
		C390.378906,49.994141,390.164063,49.904297,389.949219,49.857422z"/>
	<path fill-rule="evenodd" fill="none" d="M399.260742,0.000488c-0.418945,0.737305-0.823242,1.484375-1.259766,2.210938
		c-2.570313,4.275391-5.147461,8.544922-7.724609,12.816406c-0.094727,0.15625-0.217773,0.296875-0.327148,0.445313
		c0-5.142578,0-10.285156,0-15.472656C393.052734,0.000488,396.157227,0.000488,399.260742,0.000488z"/>
	<path fill-rule="evenodd" fill="none" d="M441.916992,31.208496c0-1.15332,0-2.196289,0-3.300781
		c-2.313477,0-4.592773,0-6.911133,0c0-0.886719,0-1.709961,0-2.592773c0.244141-0.011719,0.475586-0.030273,0.708008-0.030273
		c2.338867-0.00293,4.678711-0.003906,7.017578-0.000977c1.510742,0.001953,1.826172,0.326172,1.826172,1.863281
		c0.000977,1.71875,0.006836,3.4375-0.00293,5.15625c-0.004883,1.003906-0.488281,1.501953-1.486328,1.504883
		c-3.151367,0.009766-6.301758,0.020508-9.452148-0.00293c-1.790039-0.013672-3.34668-1.361328-3.417969-3.125
		c-0.105469-2.620117-0.133789-5.25-0.027344-7.870117c0.083984-2.076172,1.433594-3.383789,3.416016-3.416992
		c3.578125-0.058594,7.157227-0.016602,10.795898-0.016602c0,0.854492,0,1.694336,0,2.620117c-0.255859,0-0.509766,0-0.763672,0
		c-3.102539,0-6.206055-0.001953-9.30957,0c-1.370117,0.001953-1.551758,0.189453-1.552734,1.572266
		c-0.000977,2.077148-0.003906,4.154297,0.001953,6.230469c0.00293,1.097656,0.304688,1.404297,1.401367,1.40625
		C436.732422,31.213379,439.304688,31.208496,441.916992,31.208496z"/>
	<path fill-rule="evenodd" fill="none" d="M419.985352,23.941895c0-0.615234,0-1.228516,0-1.923828
		c-1.907227,0-3.794922,0-5.730469,0c0-0.900391,0-1.71875,0-2.683594c2.830078,0,5.670898,0,8.511719,0
		c1.834961,0,3.668945,0,5.55957,0c0,0.897461,0,1.737305,0,2.636719c-1.875,0-3.75,0-5.6875,0c0,3.958984,0,7.859375,0,11.800781
		c-0.885742,0-1.708008,0-2.65332,0C419.985352,30.498535,419.985352,27.220215,419.985352,23.941895z"/>
	<path fill-rule="evenodd" fill="none" d="M398.130859,25.308105c0,2.911133,0,5.662109,0,8.458008
		c-0.896484,0-1.739258,0-2.639648,0c0-1.03125,0-2.051758,0-3.072266c0-3.270508-0.006836-6.541016,0.008789-9.8125
		c0.000977-0.369141,0.035156-0.787109,0.206055-1.098633c0.486328-0.886719,1.706055-0.805664,2.264648,0.146484
		c1.205078,2.053711,2.382813,4.12207,3.572266,6.18457c0.759766,1.316406,1.519531,2.632813,2.328125,4.033203
		c0.492188-0.847656,0.939453-1.614258,1.382813-2.382813c1.439453-2.496094,2.875977-4.993164,4.314453-7.489258
		c0.058594-0.103516,0.112305-0.209961,0.174805-0.311523c0.408203-0.650391,1.024414-0.953125,1.623047-0.738281
		c0.662109,0.237305,0.936523,0.748047,0.93457,1.447266c-0.008789,3.248047-0.003906,6.495117-0.003906,9.742188
		c0,1.097656,0,2.195313,0,3.345703c-0.855469,0-1.701172,0-2.628906,0c0-2.726563,0-5.476563,0-8.227539
		c-0.043945-0.011719-0.087891-0.023438-0.131836-0.03418c-0.108398,0.164063-0.226563,0.324219-0.324219,0.496094
		c-1.318359,2.316406-2.643555,4.630859-3.946289,6.957031c-0.320313,0.572266-0.671875,1.050781-1.396484,1.046875
		c-0.695313-0.003906-1.032227-0.46875-1.34082-1.017578c-1.320313-2.34375-2.662109-4.675781-3.99707-7.011719
		C398.429688,25.793457,398.321289,25.621582,398.130859,25.308105z"/>
</g>
</svg>
