<?xml version="1.0" encoding="UTF-8" standalone="no"?>
<!DOCTYPE svg PUBLIC "-//W3C//DTD SVG 1.1//EN"
 "http://www.w3.org/Graphics/SVG/1.1/DTD/svg11.dtd">
<!-- Generated by graphviz version 2.40.1 (20161225.0304)
 -->
<!-- Title: dependencies Pages: 1 -->
<svg width="771pt" height="211pt"
 viewBox="0.00 0.00 771.00 211.00" xmlns="http://www.w3.org/2000/svg" xmlns:xlink="http://www.w3.org/1999/xlink">
<g id="graph0" class="graph" transform="scale(1 1) rotate(0) translate(4 207)">
<title>dependencies</title>
<polygon fill="#ffffff" stroke="transparent" points="-4,4 -4,-207 767,-207 767,4 -4,4"/>
<text text-anchor="start" x="360.5091" y="-42.4" font-family="sans-serif" font-weight="bold" font-size="14.00" fill="#000000">Legend</text>
<polygon fill="#ffffb3" stroke="transparent" points="147.5,-10 147.5,-30 167.5,-30 167.5,-10 147.5,-10"/>
<text text-anchor="start" x="171.129" y="-15.4" font-family="sans-serif" font-size="14.00" fill="#000000"> &#160;Declarations</text>
<polygon fill="#8dd3c7" stroke="transparent" points="260.5,-10 260.5,-30 280.5,-30 280.5,-10 260.5,-10"/>
<text text-anchor="start" x="284.2251" y="-15.4" font-family="sans-serif" font-size="14.00" fill="#000000"> &#160;Module</text>
<polygon fill="#80b1d3" stroke="transparent" points="346.5,-10 346.5,-30 366.5,-30 366.5,-10 346.5,-10"/>
<text text-anchor="start" x="370.2812" y="-15.4" font-family="sans-serif" font-size="14.00" fill="#000000"> &#160;Bootstrap</text>
<polygon fill="#fdb462" stroke="transparent" points="443.5,-10 443.5,-30 463.5,-30 463.5,-10 443.5,-10"/>
<text text-anchor="start" x="467.1732" y="-15.4" font-family="sans-serif" font-size="14.00" fill="#000000"> &#160;Providers</text>
<polygon fill="#fb8072" stroke="transparent" points="539.5,-10 539.5,-30 559.5,-30 559.5,-10 539.5,-10"/>
<text text-anchor="start" x="563.2258" y="-15.4" font-family="sans-serif" font-size="14.00" fill="#000000"> &#160;Exports</text>
<g id="clust1" class="cluster">
<title>cluster_ModelsModule</title>
<polygon fill="none" stroke="#000000" stroke-dasharray="1,5" points="8,-70 8,-195 755,-195 755,-70 8,-70"/>
</g>
<g id="clust2" class="cluster">
<title>cluster_ModelsModule_declarations</title>
<polygon fill="none" stroke="#000000" points="311,-78 311,-130 747,-130 747,-78 311,-78"/>
</g>
<g id="clust6" class="cluster">
<title>cluster_ModelsModule_imports</title>
<polygon fill="none" stroke="#000000" points="16,-78 16,-130 303,-130 303,-78 16,-78"/>
</g>
<!-- FileEditComponent -->
<g id="node1" class="node">
<title>FileEditComponent</title>
<polygon fill="#ffffb3" stroke="#000000" points="739.4454,-122 612.5546,-122 612.5546,-86 739.4454,-86 739.4454,-122"/>
<text text-anchor="middle" x="676" y="-99.8" font-family="Times,serif" font-size="14.00" fill="#000000">FileEditComponent</text>
</g>
<!-- ModelsModule -->
<g id="node4" class="node">
<title>ModelsModule</title>
<polygon fill="#8dd3c7" stroke="#000000" points="430.5452,-187 427.5452,-191 406.5452,-191 403.5452,-187 329.4548,-187 329.4548,-151 430.5452,-151 430.5452,-187"/>
<text text-anchor="middle" x="380" y="-164.8" font-family="Times,serif" font-size="14.00" fill="#000000">ModelsModule</text>
</g>
<!-- FileEditComponent&#45;&gt;ModelsModule -->
<g id="edge1" class="edge">
<title>FileEditComponent&#45;&gt;ModelsModule</title>
<path fill="none" stroke="#000000" d="M676,-122.2843C676,-143.3211 676,-175 676,-175 676,-175 440.5479,-175 440.5479,-175"/>
<polygon fill="#000000" stroke="#000000" points="440.5479,-171.5001 430.5479,-175 440.5479,-178.5001 440.5479,-171.5001"/>
</g>
<!-- FileTableComponent -->
<g id="node2" class="node">
<title>FileTableComponent</title>
<polygon fill="#ffffb3" stroke="#000000" points="594.4832,-122 459.5168,-122 459.5168,-86 594.4832,-86 594.4832,-122"/>
<text text-anchor="middle" x="527" y="-99.8" font-family="Times,serif" font-size="14.00" fill="#000000">FileTableComponent</text>
</g>
<!-- FileTableComponent&#45;&gt;ModelsModule -->
<g id="edge2" class="edge">
<title>FileTableComponent&#45;&gt;ModelsModule</title>
<path fill="none" stroke="#000000" d="M527,-122.0225C527,-139.3734 527,-163 527,-163 527,-163 440.5891,-163 440.5891,-163"/>
<polygon fill="#000000" stroke="#000000" points="440.5891,-159.5001 430.5891,-163 440.589,-166.5001 440.5891,-159.5001"/>
</g>
<!-- UploadComponent -->
<g id="node3" class="node">
<title>UploadComponent</title>
<polygon fill="#ffffb3" stroke="#000000" points="441.045,-122 318.955,-122 318.955,-86 441.045,-86 441.045,-122"/>
<text text-anchor="middle" x="380" y="-99.8" font-family="Times,serif" font-size="14.00" fill="#000000">UploadComponent</text>
</g>
<!-- UploadComponent&#45;&gt;ModelsModule -->
<g id="edge3" class="edge">
<title>UploadComponent&#45;&gt;ModelsModule</title>
<path fill="none" stroke="#000000" d="M380,-122.1061C380,-122.1061 380,-140.991 380,-140.991"/>
<polygon fill="#000000" stroke="#000000" points="376.5001,-140.9909 380,-150.991 383.5001,-140.991 376.5001,-140.9909"/>
</g>
<!-- MaterialModule -->
<g id="node5" class="node">
<title>MaterialModule</title>
<polygon fill="#8dd3c7" stroke="#000000" points="295.4706,-122 292.4706,-126 271.4706,-126 268.4706,-122 188.5294,-122 188.5294,-86 295.4706,-86 295.4706,-122"/>
<text text-anchor="middle" x="242" y="-99.8" font-family="Times,serif" font-size="14.00" fill="#000000">MaterialModule</text>
</g>
<!-- MaterialModule&#45;&gt;ModelsModule -->
<g id="edge4" class="edge">
<title>MaterialModule&#45;&gt;ModelsModule</title>
<path fill="none" stroke="#000000" d="M242,-122.0225C242,-139.3734 242,-163 242,-163 242,-163 319.3975,-163 319.3975,-163"/>
<polygon fill="#000000" stroke="#000000" points="319.3975,-166.5001 329.3975,-163 319.3975,-159.5001 319.3975,-166.5001"/>
</g>
<!-- ModelsRoutingModule -->
<g id="node6" class="node">
<title>ModelsRoutingModule</title>
<polygon fill="#8dd3c7" stroke="#000000" points="170.1624,-122 167.1624,-126 146.1624,-126 143.1624,-122 23.8376,-122 23.8376,-86 170.1624,-86 170.1624,-122"/>
<text text-anchor="middle" x="97" y="-99.8" font-family="Times,serif" font-size="14.00" fill="#000000">ModelsRoutingModule</text>
</g>
<!-- ModelsRoutingModule&#45;&gt;ModelsModule -->
<g id="edge5" class="edge">
<title>ModelsRoutingModule&#45;&gt;ModelsModule</title>
<path fill="none" stroke="#000000" d="M97,-122.2843C97,-143.3211 97,-175 97,-175 97,-175 319.4053,-175 319.4053,-175"/>
<polygon fill="#000000" stroke="#000000" points="319.4053,-178.5001 329.4053,-175 319.4052,-171.5001 319.4053,-178.5001"/>
</g>
</g>
</svg>
