<?xml version="1.0" encoding="UTF-8" standalone="no"?>
<!DOCTYPE svg PUBLIC "-//W3C//DTD SVG 1.1//EN"
 "http://www.w3.org/Graphics/SVG/1.1/DTD/svg11.dtd">
<!-- Generated by graphviz version 2.40.1 (20161225.0304)
 -->
<!-- Title: dependencies Pages: 1 -->
<svg width="844pt" height="211pt"
 viewBox="0.00 0.00 844.00 211.00" xmlns="http://www.w3.org/2000/svg" xmlns:xlink="http://www.w3.org/1999/xlink">
<g id="graph0" class="graph" transform="scale(1 1) rotate(0) translate(4 207)">
<title>dependencies</title>
<polygon fill="#ffffff" stroke="transparent" points="-4,4 -4,-207 840,-207 840,4 -4,4"/>
<text text-anchor="start" x="397.0091" y="-42.4" font-family="sans-serif" font-weight="bold" font-size="14.00" fill="#000000">Legend</text>
<polygon fill="#ffffb3" stroke="transparent" points="184,-10 184,-30 204,-30 204,-10 184,-10"/>
<text text-anchor="start" x="207.629" y="-15.4" font-family="sans-serif" font-size="14.00" fill="#000000"> &#160;Declarations</text>
<polygon fill="#8dd3c7" stroke="transparent" points="297,-10 297,-30 317,-30 317,-10 297,-10"/>
<text text-anchor="start" x="320.7251" y="-15.4" font-family="sans-serif" font-size="14.00" fill="#000000"> &#160;Module</text>
<polygon fill="#80b1d3" stroke="transparent" points="383,-10 383,-30 403,-30 403,-10 383,-10"/>
<text text-anchor="start" x="406.7812" y="-15.4" font-family="sans-serif" font-size="14.00" fill="#000000"> &#160;Bootstrap</text>
<polygon fill="#fdb462" stroke="transparent" points="480,-10 480,-30 500,-30 500,-10 480,-10"/>
<text text-anchor="start" x="503.6732" y="-15.4" font-family="sans-serif" font-size="14.00" fill="#000000"> &#160;Providers</text>
<polygon fill="#fb8072" stroke="transparent" points="576,-10 576,-30 596,-30 596,-10 576,-10"/>
<text text-anchor="start" x="599.7258" y="-15.4" font-family="sans-serif" font-size="14.00" fill="#000000"> &#160;Exports</text>
<g id="clust1" class="cluster">
<title>cluster_ModelsModule</title>
<polygon fill="none" stroke="#000000" stroke-dasharray="1,5" points="8,-70 8,-195 828,-195 828,-70 8,-70"/>
</g>
<g id="clust2" class="cluster">
<title>cluster_ModelsModule_declarations</title>
<polygon fill="none" stroke="#000000" points="428,-78 428,-130 820,-130 820,-78 428,-78"/>
</g>
<g id="clust6" class="cluster">
<title>cluster_ModelsModule_imports</title>
<polygon fill="none" stroke="#000000" points="16,-78 16,-130 420,-130 420,-78 16,-78"/>
</g>
<!-- BrowseComponent -->
<g id="node1" class="node">
<title>BrowseComponent</title>
<polygon fill="#ffffb3" stroke="#000000" points="812.0954,-122 687.9046,-122 687.9046,-86 812.0954,-86 812.0954,-122"/>
<text text-anchor="middle" x="750" y="-99.8" font-family="Times,serif" font-size="14.00" fill="#000000">BrowseComponent</text>
</g>
<!-- ModelsModule -->
<g id="node4" class="node">
<title>ModelsModule</title>
<polygon fill="#8dd3c7" stroke="#000000" points="475.5452,-187 472.5452,-191 451.5452,-191 448.5452,-187 374.4548,-187 374.4548,-151 475.5452,-151 475.5452,-187"/>
<text text-anchor="middle" x="425" y="-164.8" font-family="Times,serif" font-size="14.00" fill="#000000">ModelsModule</text>
</g>
<!-- BrowseComponent&#45;&gt;ModelsModule -->
<g id="edge1" class="edge">
<title>BrowseComponent&#45;&gt;ModelsModule</title>
<path fill="none" stroke="#000000" d="M750,-122.2843C750,-143.3211 750,-175 750,-175 750,-175 485.7813,-175 485.7813,-175"/>
<polygon fill="#000000" stroke="#000000" points="485.7813,-171.5001 475.7813,-175 485.7812,-178.5001 485.7813,-171.5001"/>
</g>
<!-- EditComponent -->
<g id="node2" class="node">
<title>EditComponent</title>
<polygon fill="#ffffb3" stroke="#000000" points="670.1667,-122 565.8333,-122 565.8333,-86 670.1667,-86 670.1667,-122"/>
<text text-anchor="middle" x="618" y="-99.8" font-family="Times,serif" font-size="14.00" fill="#000000">EditComponent</text>
</g>
<!-- EditComponent&#45;&gt;ModelsModule -->
<g id="edge2" class="edge">
<title>EditComponent&#45;&gt;ModelsModule</title>
<path fill="none" stroke="#000000" d="M618,-122.0225C618,-139.3734 618,-163 618,-163 618,-163 485.7085,-163 485.7085,-163"/>
<polygon fill="#000000" stroke="#000000" points="485.7085,-159.5001 475.7085,-163 485.7084,-166.5001 485.7085,-159.5001"/>
</g>
<!-- ViewComponent -->
<g id="node3" class="node">
<title>ViewComponent</title>
<polygon fill="#ffffb3" stroke="#000000" points="547.6513,-122 436.3487,-122 436.3487,-86 547.6513,-86 547.6513,-122"/>
<text text-anchor="middle" x="492" y="-99.8" font-family="Times,serif" font-size="14.00" fill="#000000">ViewComponent</text>
</g>
<!-- ViewComponent&#45;&gt;ModelsModule -->
<g id="edge3" class="edge">
<title>ViewComponent&#45;&gt;ModelsModule</title>
<path fill="none" stroke="#000000" d="M455.9734,-122.1061C455.9734,-122.1061 455.9734,-140.991 455.9734,-140.991"/>
<polygon fill="#000000" stroke="#000000" points="452.4734,-140.9909 455.9734,-150.991 459.4734,-140.991 452.4734,-140.9909"/>
</g>
<!-- MaterialModule -->
<g id="node5" class="node">
<title>MaterialModule</title>
<polygon fill="#8dd3c7" stroke="#000000" points="412.4706,-122 409.4706,-126 388.4706,-126 385.4706,-122 305.5294,-122 305.5294,-86 412.4706,-86 412.4706,-122"/>
<text text-anchor="middle" x="359" y="-99.8" font-family="Times,serif" font-size="14.00" fill="#000000">MaterialModule</text>
</g>
<!-- MaterialModule&#45;&gt;ModelsModule -->
<g id="edge4" class="edge">
<title>MaterialModule&#45;&gt;ModelsModule</title>
<path fill="none" stroke="#000000" d="M393.3566,-122.1061C393.3566,-122.1061 393.3566,-140.991 393.3566,-140.991"/>
<polygon fill="#000000" stroke="#000000" points="389.8567,-140.9909 393.3566,-150.991 396.8567,-140.991 389.8567,-140.9909"/>
</g>
<!-- ModelsRoutingModule -->
<g id="node6" class="node">
<title>ModelsRoutingModule</title>
<polygon fill="#8dd3c7" stroke="#000000" points="287.1624,-122 284.1624,-126 263.1624,-126 260.1624,-122 140.8376,-122 140.8376,-86 287.1624,-86 287.1624,-122"/>
<text text-anchor="middle" x="214" y="-99.8" font-family="Times,serif" font-size="14.00" fill="#000000">ModelsRoutingModule</text>
</g>
<!-- ModelsRoutingModule&#45;&gt;ModelsModule -->
<g id="edge5" class="edge">
<title>ModelsRoutingModule&#45;&gt;ModelsModule</title>
<path fill="none" stroke="#000000" d="M214,-122.0225C214,-139.3734 214,-163 214,-163 214,-163 364.1917,-163 364.1917,-163"/>
<polygon fill="#000000" stroke="#000000" points="364.1918,-166.5001 374.1917,-163 364.1917,-159.5001 364.1918,-166.5001"/>
</g>
<!-- SharedModule -->
<g id="node7" class="node">
<title>SharedModule</title>
<polygon fill="#8dd3c7" stroke="#000000" points="122.4231,-122 119.4231,-126 98.4231,-126 95.4231,-122 23.5769,-122 23.5769,-86 122.4231,-86 122.4231,-122"/>
<text text-anchor="middle" x="73" y="-99.8" font-family="Times,serif" font-size="14.00" fill="#000000">SharedModule</text>
</g>
<!-- SharedModule&#45;&gt;ModelsModule -->
<g id="edge6" class="edge">
<title>SharedModule&#45;&gt;ModelsModule</title>
<path fill="none" stroke="#000000" d="M73,-122.2843C73,-143.3211 73,-175 73,-175 73,-175 364.1921,-175 364.1921,-175"/>
<polygon fill="#000000" stroke="#000000" points="364.1921,-178.5001 374.1921,-175 364.1921,-171.5001 364.1921,-178.5001"/>
</g>
</g>
</svg>
