<?xml version="1.0" encoding="UTF-8" standalone="no"?>
<!DOCTYPE svg PUBLIC "-//W3C//DTD SVG 1.1//EN"
 "http://www.w3.org/Graphics/SVG/1.1/DTD/svg11.dtd">
<!-- Generated by graphviz version 2.40.1 (20161225.0304)
 -->
<!-- Title: dependencies Pages: 1 -->
<svg width="1006pt" height="211pt"
 viewBox="0.00 0.00 1006.00 211.00" xmlns="http://www.w3.org/2000/svg" xmlns:xlink="http://www.w3.org/1999/xlink">
<g id="graph0" class="graph" transform="scale(1 1) rotate(0) translate(4 207)">
<title>dependencies</title>
<polygon fill="#ffffff" stroke="transparent" points="-4,4 -4,-207 1002,-207 1002,4 -4,4"/>
<text text-anchor="start" x="478.0091" y="-42.4" font-family="sans-serif" font-weight="bold" font-size="14.00" fill="#000000">Legend</text>
<polygon fill="#ffffb3" stroke="transparent" points="265,-10 265,-30 285,-30 285,-10 265,-10"/>
<text text-anchor="start" x="288.629" y="-15.4" font-family="sans-serif" font-size="14.00" fill="#000000"> &#160;Declarations</text>
<polygon fill="#8dd3c7" stroke="transparent" points="378,-10 378,-30 398,-30 398,-10 378,-10"/>
<text text-anchor="start" x="401.7251" y="-15.4" font-family="sans-serif" font-size="14.00" fill="#000000"> &#160;Module</text>
<polygon fill="#80b1d3" stroke="transparent" points="464,-10 464,-30 484,-30 484,-10 464,-10"/>
<text text-anchor="start" x="487.7812" y="-15.4" font-family="sans-serif" font-size="14.00" fill="#000000"> &#160;Bootstrap</text>
<polygon fill="#fdb462" stroke="transparent" points="561,-10 561,-30 581,-30 581,-10 561,-10"/>
<text text-anchor="start" x="584.6732" y="-15.4" font-family="sans-serif" font-size="14.00" fill="#000000"> &#160;Providers</text>
<polygon fill="#fb8072" stroke="transparent" points="657,-10 657,-30 677,-30 677,-10 657,-10"/>
<text text-anchor="start" x="680.7258" y="-15.4" font-family="sans-serif" font-size="14.00" fill="#000000"> &#160;Exports</text>
<g id="clust1" class="cluster">
<title>cluster_ModelsModule</title>
<polygon fill="none" stroke="#000000" stroke-dasharray="1,5" points="8,-70 8,-195 990,-195 990,-70 8,-70"/>
</g>
<g id="clust2" class="cluster">
<title>cluster_ModelsModule_declarations</title>
<polygon fill="none" stroke="#000000" points="428,-78 428,-130 982,-130 982,-78 428,-78"/>
</g>
<g id="clust7" class="cluster">
<title>cluster_ModelsModule_imports</title>
<polygon fill="none" stroke="#000000" points="16,-78 16,-130 420,-130 420,-78 16,-78"/>
</g>
<!-- BrowseComponent -->
<g id="node1" class="node">
<title>BrowseComponent</title>
<polygon fill="#ffffb3" stroke="#000000" points="974.0954,-122 849.9046,-122 849.9046,-86 974.0954,-86 974.0954,-122"/>
<text text-anchor="middle" x="912" y="-99.8" font-family="Times,serif" font-size="14.00" fill="#000000">BrowseComponent</text>
</g>
<!-- ModelsModule -->
<g id="node5" class="node">
<title>ModelsModule</title>
<polygon fill="#8dd3c7" stroke="#000000" points="542.5452,-187 539.5452,-191 518.5452,-191 515.5452,-187 441.4548,-187 441.4548,-151 542.5452,-151 542.5452,-187"/>
<text text-anchor="middle" x="492" y="-164.8" font-family="Times,serif" font-size="14.00" fill="#000000">ModelsModule</text>
</g>
<!-- BrowseComponent&#45;&gt;ModelsModule -->
<g id="edge1" class="edge">
<title>BrowseComponent&#45;&gt;ModelsModule</title>
<path fill="none" stroke="#000000" d="M912,-122.2921C912,-144.2057 912,-178 912,-178 912,-178 552.6618,-178 552.6618,-178"/>
<polygon fill="#000000" stroke="#000000" points="552.6618,-174.5001 542.6618,-178 552.6618,-181.5001 552.6618,-174.5001"/>
</g>
<!-- FileEditComponent -->
<g id="node2" class="node">
<title>FileEditComponent</title>
<polygon fill="#ffffb3" stroke="#000000" points="832.4454,-122 705.5546,-122 705.5546,-86 832.4454,-86 832.4454,-122"/>
<text text-anchor="middle" x="769" y="-99.8" font-family="Times,serif" font-size="14.00" fill="#000000">FileEditComponent</text>
</g>
<!-- FileEditComponent&#45;&gt;ModelsModule -->
<g id="edge2" class="edge">
<title>FileEditComponent&#45;&gt;ModelsModule</title>
<path fill="none" stroke="#000000" d="M769,-122.1061C769,-141.3391 769,-169 769,-169 769,-169 552.8061,-169 552.8061,-169"/>
<polygon fill="#000000" stroke="#000000" points="552.8061,-165.5001 542.8061,-169 552.806,-172.5001 552.8061,-165.5001"/>
</g>
<!-- UploadComponent -->
<g id="node3" class="node">
<title>UploadComponent</title>
<polygon fill="#ffffb3" stroke="#000000" points="688.045,-122 565.955,-122 565.955,-86 688.045,-86 688.045,-122"/>
<text text-anchor="middle" x="627" y="-99.8" font-family="Times,serif" font-size="14.00" fill="#000000">UploadComponent</text>
</g>
<!-- UploadComponent&#45;&gt;ModelsModule -->
<g id="edge3" class="edge">
<title>UploadComponent&#45;&gt;ModelsModule</title>
<path fill="none" stroke="#000000" d="M627,-122.027C627,-138.3976 627,-160 627,-160 627,-160 552.6531,-160 552.6531,-160"/>
<polygon fill="#000000" stroke="#000000" points="552.6531,-156.5001 542.6531,-160 552.6531,-163.5001 552.6531,-156.5001"/>
</g>
<!-- ViewComponent -->
<g id="node4" class="node">
<title>ViewComponent</title>
<polygon fill="#ffffb3" stroke="#000000" points="547.6513,-122 436.3487,-122 436.3487,-86 547.6513,-86 547.6513,-122"/>
<text text-anchor="middle" x="492" y="-99.8" font-family="Times,serif" font-size="14.00" fill="#000000">ViewComponent</text>
</g>
<!-- ViewComponent&#45;&gt;ModelsModule -->
<g id="edge4" class="edge">
<title>ViewComponent&#45;&gt;ModelsModule</title>
<path fill="none" stroke="#000000" d="M492,-122.1061C492,-122.1061 492,-140.991 492,-140.991"/>
<polygon fill="#000000" stroke="#000000" points="488.5001,-140.9909 492,-150.991 495.5001,-140.991 488.5001,-140.9909"/>
</g>
<!-- MaterialModule -->
<g id="node6" class="node">
<title>MaterialModule</title>
<polygon fill="#8dd3c7" stroke="#000000" points="412.4706,-122 409.4706,-126 388.4706,-126 385.4706,-122 305.5294,-122 305.5294,-86 412.4706,-86 412.4706,-122"/>
<text text-anchor="middle" x="359" y="-99.8" font-family="Times,serif" font-size="14.00" fill="#000000">MaterialModule</text>
</g>
<!-- MaterialModule&#45;&gt;ModelsModule -->
<g id="edge5" class="edge">
<title>MaterialModule&#45;&gt;ModelsModule</title>
<path fill="none" stroke="#000000" d="M359,-122.027C359,-138.3976 359,-160 359,-160 359,-160 431.339,-160 431.339,-160"/>
<polygon fill="#000000" stroke="#000000" points="431.339,-163.5001 441.339,-160 431.339,-156.5001 431.339,-163.5001"/>
</g>
<!-- ModelsRoutingModule -->
<g id="node7" class="node">
<title>ModelsRoutingModule</title>
<polygon fill="#8dd3c7" stroke="#000000" points="287.1624,-122 284.1624,-126 263.1624,-126 260.1624,-122 140.8376,-122 140.8376,-86 287.1624,-86 287.1624,-122"/>
<text text-anchor="middle" x="214" y="-99.8" font-family="Times,serif" font-size="14.00" fill="#000000">ModelsRoutingModule</text>
</g>
<!-- ModelsRoutingModule&#45;&gt;ModelsModule -->
<g id="edge6" class="edge">
<title>ModelsRoutingModule&#45;&gt;ModelsModule</title>
<path fill="none" stroke="#000000" d="M214,-122.1061C214,-141.3391 214,-169 214,-169 214,-169 431.3338,-169 431.3338,-169"/>
<polygon fill="#000000" stroke="#000000" points="431.3338,-172.5001 441.3338,-169 431.3337,-165.5001 431.3338,-172.5001"/>
</g>
<!-- SharedModule -->
<g id="node8" class="node">
<title>SharedModule</title>
<polygon fill="#8dd3c7" stroke="#000000" points="122.4231,-122 119.4231,-126 98.4231,-126 95.4231,-122 23.5769,-122 23.5769,-86 122.4231,-86 122.4231,-122"/>
<text text-anchor="middle" x="73" y="-99.8" font-family="Times,serif" font-size="14.00" fill="#000000">SharedModule</text>
</g>
<!-- SharedModule&#45;&gt;ModelsModule -->
<g id="edge7" class="edge">
<title>SharedModule&#45;&gt;ModelsModule</title>
<path fill="none" stroke="#000000" d="M73,-122.2921C73,-144.2057 73,-178 73,-178 73,-178 431.0413,-178 431.0413,-178"/>
<polygon fill="#000000" stroke="#000000" points="431.0413,-181.5001 441.0413,-178 431.0412,-174.5001 431.0413,-181.5001"/>
</g>
</g>
</svg>
