<?xml version="1.0" encoding="UTF-8" standalone="no"?>
<!DOCTYPE svg PUBLIC "-//W3C//DTD SVG 1.1//EN"
 "http://www.w3.org/Graphics/SVG/1.1/DTD/svg11.dtd">
<!-- Generated by graphviz version 2.40.1 (20161225.0304)
 -->
<!-- Title: dependencies Pages: 1 -->
<svg width="504pt" height="211pt"
 viewBox="0.00 0.00 504.00 211.00" xmlns="http://www.w3.org/2000/svg" xmlns:xlink="http://www.w3.org/1999/xlink">
<g id="graph0" class="graph" transform="scale(1 1) rotate(0) translate(4 207)">
<title>dependencies</title>
<polygon fill="#ffffff" stroke="transparent" points="-4,4 -4,-207 500,-207 500,4 -4,4"/>
<text text-anchor="start" x="227.0091" y="-42.4" font-family="sans-serif" font-weight="bold" font-size="14.00" fill="#000000">Legend</text>
<polygon fill="#ffffb3" stroke="transparent" points="14,-10 14,-30 34,-30 34,-10 14,-10"/>
<text text-anchor="start" x="37.629" y="-15.4" font-family="sans-serif" font-size="14.00" fill="#000000"> &#160;Declarations</text>
<polygon fill="#8dd3c7" stroke="transparent" points="127,-10 127,-30 147,-30 147,-10 127,-10"/>
<text text-anchor="start" x="150.7251" y="-15.4" font-family="sans-serif" font-size="14.00" fill="#000000"> &#160;Module</text>
<polygon fill="#80b1d3" stroke="transparent" points="213,-10 213,-30 233,-30 233,-10 213,-10"/>
<text text-anchor="start" x="236.7812" y="-15.4" font-family="sans-serif" font-size="14.00" fill="#000000"> &#160;Bootstrap</text>
<polygon fill="#fdb462" stroke="transparent" points="310,-10 310,-30 330,-30 330,-10 310,-10"/>
<text text-anchor="start" x="333.6732" y="-15.4" font-family="sans-serif" font-size="14.00" fill="#000000"> &#160;Providers</text>
<polygon fill="#fb8072" stroke="transparent" points="406,-10 406,-30 426,-30 426,-10 406,-10"/>
<text text-anchor="start" x="429.7258" y="-15.4" font-family="sans-serif" font-size="14.00" fill="#000000"> &#160;Exports</text>
<g id="clust1" class="cluster">
<title>cluster_ModelsModule</title>
<polygon fill="none" stroke="#000000" stroke-dasharray="1,5" points="38,-70 38,-195 458,-195 458,-70 38,-70"/>
</g>
<g id="clust3" class="cluster">
<title>cluster_ModelsModule_imports</title>
<polygon fill="none" stroke="#000000" points="46,-78 46,-130 450,-130 450,-78 46,-78"/>
</g>
<!-- MaterialModule -->
<g id="node1" class="node">
<title>MaterialModule</title>
<polygon fill="#8dd3c7" stroke="#000000" points="442.4706,-122 439.4706,-126 418.4706,-126 415.4706,-122 335.5294,-122 335.5294,-86 442.4706,-86 442.4706,-122"/>
<text text-anchor="middle" x="389" y="-99.8" font-family="Times,serif" font-size="14.00" fill="#000000">MaterialModule</text>
</g>
<!-- ModelsModule -->
<g id="node4" class="node">
<title>ModelsModule</title>
<polygon fill="#8dd3c7" stroke="#000000" points="294.5452,-187 291.5452,-191 270.5452,-191 267.5452,-187 193.4548,-187 193.4548,-151 294.5452,-151 294.5452,-187"/>
<text text-anchor="middle" x="244" y="-164.8" font-family="Times,serif" font-size="14.00" fill="#000000">ModelsModule</text>
</g>
<!-- MaterialModule&#45;&gt;ModelsModule -->
<g id="edge1" class="edge">
<title>MaterialModule&#45;&gt;ModelsModule</title>
<path fill="none" stroke="#000000" d="M389,-122.1061C389,-141.3391 389,-169 389,-169 389,-169 304.714,-169 304.714,-169"/>
<polygon fill="#000000" stroke="#000000" points="304.714,-165.5001 294.714,-169 304.7139,-172.5001 304.714,-165.5001"/>
</g>
<!-- ModelsRoutingModule -->
<g id="node2" class="node">
<title>ModelsRoutingModule</title>
<polygon fill="#8dd3c7" stroke="#000000" points="317.1624,-122 314.1624,-126 293.1624,-126 290.1624,-122 170.8376,-122 170.8376,-86 317.1624,-86 317.1624,-122"/>
<text text-anchor="middle" x="244" y="-99.8" font-family="Times,serif" font-size="14.00" fill="#000000">ModelsRoutingModule</text>
</g>
<!-- ModelsRoutingModule&#45;&gt;ModelsModule -->
<g id="edge2" class="edge">
<title>ModelsRoutingModule&#45;&gt;ModelsModule</title>
<path fill="none" stroke="#000000" d="M244,-122.1061C244,-122.1061 244,-140.991 244,-140.991"/>
<polygon fill="#000000" stroke="#000000" points="240.5001,-140.9909 244,-150.991 247.5001,-140.991 240.5001,-140.9909"/>
</g>
<!-- SharedModule -->
<g id="node3" class="node">
<title>SharedModule</title>
<polygon fill="#8dd3c7" stroke="#000000" points="152.4231,-122 149.4231,-126 128.4231,-126 125.4231,-122 53.5769,-122 53.5769,-86 152.4231,-86 152.4231,-122"/>
<text text-anchor="middle" x="103" y="-99.8" font-family="Times,serif" font-size="14.00" fill="#000000">SharedModule</text>
</g>
<!-- SharedModule&#45;&gt;ModelsModule -->
<g id="edge3" class="edge">
<title>SharedModule&#45;&gt;ModelsModule</title>
<path fill="none" stroke="#000000" d="M103,-122.1061C103,-141.3391 103,-169 103,-169 103,-169 183.0958,-169 183.0958,-169"/>
<polygon fill="#000000" stroke="#000000" points="183.0958,-172.5001 193.0958,-169 183.0957,-165.5001 183.0958,-172.5001"/>
</g>
</g>
</svg>
