<?xml version="1.0" encoding="UTF-8" standalone="no"?>
<svg
    xmlns:svg="http://www.w3.org/2000/svg"
    xmlns="http://www.w3.org/2000/svg"
    version="1.1"
    x="0px"
    y="0px"
    width="113.29333"
    height="109.999855"
    viewBox="-5 -5 113.29333 109.999855"
    xml:space="preserve">
    <style>
        .dark-fill {
            fill: #ccc;
        }
        .light-fill {
            fill: #efefef;
        }
    </style>
    <path
        class="dark-fill"
        d="m 50.35213,5.7904458 0.9375,5.5371092 0.368164,-0.06152 0.188477,1.144531 -0.224609,0.0376 c -0.222656,0.03662 -0.275391,0.336914 -0.222656,0.859863 l -0.582031,0.09815 -1.265625,-7.4790042 z" />
    <path
        class="dark-fill"
        d="m 56.020099,6.3295088 -0.262695,5.1645512 0.259766,0.01611 -0.0498,1.068848 -0.166016,-0.0098 c -0.166016,-0.0098 -0.253906,0.250488 -0.305664,0.730469 l -0.428711,-0.0249 0.363281,-6.9790042 z" />
    <path
        class="dark-fill"
        d="m 36.396075,4.4300948 2.158203,2.810547 0.362305,-0.278809 0.449219,0.583496 -0.229492,0.170898 c -0.223633,0.17041 -0.21582,0.39502 -0.05371,0.682129 l -0.585939,0.447754 -3.164063,-4.105469 z" />
    <path
        class="dark-fill"
        d="m 9.2281068,22.378825 5.0541992,0.219727 0.02978,-0.655762 1.049805,0.04443 -0.021,0.407227 c -0.01855,0.40918 0.22998,0.609375 0.700684,0.691406 l -0.04785,1.068359 -6.8325202,-0.30127 z" />
    <path
        class="dark-fill"
        d="m 52.91756,0.56144178 0.375976,3.52099702 0.34668,-0.038086 0.08106,0.727539 -0.211914,0.023926 c -0.220708,0.022461 -0.29395,0.212402 -0.29395,0.544434 l -0.55957,0.05957 -0.507813,-4.75585902 z" />
    <path
        class="dark-fill"
        d="m 63.670489,2.3822428 -0.726563,2.909668 0.15332,0.716309 -0.14746,0.601562 -0.193359,-0.050781 c -0.200195,-0.046387 -0.328125,0.07666 -0.424805,0.34082 l -0.508789,-0.125977 1.083008,-4.576172 z" />
    <path
        class="dark-fill"
        d="m 60.313068,7.7816568 -1.024414,4.3081052 0.255859,0.0581 -0.209961,0.89209 -0.15332,-0.03809 c -0.163086,-0.03613 -0.285156,0.163574 -0.408203,0.55957 l -0.410156,-0.09912 1.37793,-5.8154302 z" />
    <path
        class="dark-fill"
        d="m 84.592366,25.360759 -2.42676,1.665527 0.14844,0.214844 -0.50586,0.347656 -0.0918,-0.131836 c -0.0879,-0.135742 -0.25195,-0.113281 -0.49316,0.01855 l -0.24219,-0.34668 3.27734,-2.252441 z" />
    <path
        class="dark-fill"
        d="m 23.339435,86.386638 c -1.151367,-0.930664 -1.114258,-2.508789 0.04492,-3.929688 l 3.925781,-4.818359 c 1.169922,-1.435547 2.689453,-1.77832 3.84668,-0.838867 1.164063,0.951172 1.125,2.501953 -0.0459,3.935547 l -3.922852,4.818359 c -1.157715,1.417969 -2.683594,1.788086 -3.848633,0.833008 m 6.367187,-6.978516 c 0.224609,-0.276367 0.242188,-0.582031 -0.02441,-0.798828 -0.253906,-0.209961 -0.561523,-0.136719 -0.787109,0.135742 l -4.09375,5.022461 c -0.223145,0.274414 -0.244629,0.606445 0.01123,0.822266 0.266113,0.213867 0.580078,0.118164 0.799805,-0.15918 z" />
    <path
        class="dark-fill"
        d="m 35.118732,79.220622 6.603516,-10.375977 -1.479492,-0.96582 1.368164,-2.144531 0.916992,0.598633 c 0.915039,0.59375 1.672852,0.34375 2.429688,-0.530273 l 2.397461,1.568359 -8.923828,14.015625 z" />
    <path
        class="dark-fill"
        d="m 49.854083,67.071208 4.552734,-8.102539 -0.683594,-0.396484 0.945313,-1.669922 0.420898,0.244141 c 0.428711,0.246094 0.847656,-0.05273 1.337891,-0.775391 l 1.104492,0.639648 -6.15332,10.946289 z" />
    <path
        class="dark-fill"
        d="m 2.9458798,52.157146 6.805664,-2.709961 -0.303711,-0.790039 1.4062502,-0.560547 0.187988,0.493164 c 0.186523,0.490234 0.621094,0.577148 1.285645,0.404297 l 0.489258,1.279297 -9.7460942,3.899414 z" />
    <path
        class="dark-fill"
        d="m 9.6616998,71.552653 7.1079102,-5.618164 -0.49707,-0.647461 1.46582,-1.161133 0.307129,0.399414 c 0.313477,0.399414 0.813965,0.297852 1.527344,-0.15918 l 0.804688,1.044922 -9.597656,7.591797 z" />
    <path
        class="dark-fill"
        d="m 84.689046,68.383708 -3.78711,-7.586914 -0.71777,0.345703 -0.78321,-1.568359 0.44141,-0.217773 c 0.44922,-0.209961 0.45996,-0.696289 0.1748,-1.436523 l 1.16114,-0.568359 5.11816,10.254881 z" />
    <path
        class="dark-fill"
        d="m 91.719316,60.649333 -5.97558,-4.816406 -0.42676,0.512695 -1.23242,-0.995117 0.26269,-0.31543 c 0.26465,-0.323242 0.083,-0.714844 -0.43359,-1.209961 l 0.69043,-0.832031 8.06933,6.501953 z" />
    <path
        class="dark-fill"
        d="m 101.6871,49.398357 -3.910164,-0.325195 -0.0684,0.664063 -0.7041,-0.05664 0.04,-0.413086 c 0.04,-0.415039 -0.11133,-0.616211 -0.42383,-0.708008 l 0.1084,-1.076172 4.602544,0.392578 z" />
    <path
        class="dark-fill"
        d="m 94.123616,71.807536 -3.76465,-4.836914 -0.60742,0.461914 -0.77832,-1 0.37793,-0.286133 c 0.37793,-0.288086 0.35937,-0.663086 0.0674,-1.15918 l 0.98535,-0.75 5.08203,6.535156 z" />
    <path
        class="dark-fill"
        d="m 33.983966,52.707927 6.766602,-5.115234 -0.441406,-0.595703 1.404297,-1.055664 0.271484,0.371094 c 0.267578,0.367188 0.738281,0.276367 1.40918,-0.145508 l 0.708984,0.96582 -9.143555,6.900391 z" />
    <path
        class="dark-fill"
        d="m 25.492267,34.259685 8.17041,-2.259766 -0.185547,-0.717773 1.689453,-0.464844 0.117188,0.441406 c 0.118164,0.44043 0.582031,0.52832 1.361328,0.387695 l 0.306641,1.151367 -11.041992,3.0625 z" />
    <path
        class="dark-fill"
        d="m 29.985919,15.496989 6.737305,3.620117 0.307617,-0.564453 1.400391,0.749512 -0.193359,0.351074 c -0.196289,0.348145 0.05762,0.692383 0.652344,1.083984 l -0.503906,0.912598 -9.102539,-4.888184 z" />
    <path
        class="dark-fill"
        d="m 36.280841,10.402751 4.692383,4.455566 0.384766,-0.39502 0.96875,0.919434 -0.237305,0.245605 c -0.236328,0.244629 -0.113281,0.583984 0.289063,1.036133 l -0.62207,0.638184 -6.338867,-6.016602 z" />
    <path
        class="dark-fill"
        d="m 12.259845,43.004802 9.49707,-2.945313 -0.325684,-1.106445 1.963379,-0.605469 0.204102,0.681641 c 0.203125,0.683594 0.779297,0.84375 1.696289,0.678711 l 0.53125,1.77832 -12.831055,3.990235 z" />
    <path
        class="dark-fill"
        d="m 19.248614,15.988689 6.73291,2.232422 0.221191,-0.653809 1.392578,0.462891 -0.136719,0.40332 c -0.139648,0.401367 0.145508,0.69873 0.744141,0.972168 l -0.358398,1.054688 -9.754395,-3.166016 z" />
    <path
        class="dark-fill"
        d="m 47.72713,85.122966 4.713867,-10.988281 -1.580078,-0.689453 0.975586,-2.276367 0.975586,0.428711 c 0.976563,0.428711 1.664063,0.06445 2.254883,-0.892578 l 2.551758,1.119141 -6.364258,14.847656 z" />
    <path
        class="dark-fill"
        d="m 82.503496,83.45695 -2.32617,-8.886719 -1.04395,0.269531 -0.48144,-1.836914 0.64648,-0.169922 c 0.64453,-0.166016 0.82715,-0.694336 0.71094,-1.550781 l 1.68945,-0.436523 3.14258,12.010742 z" />
    <path
        class="dark-fill"
        d="m 93.169516,36.786052 -5.37793,1.478516 0.12304,0.43457 -1.11328,0.305664 -0.0742,-0.264648 c -0.0791,-0.270508 -0.38672,-0.321289 -0.89746,-0.220703 l -0.19629,-0.702148 7.26465,-2.00293 z" />
    <path
        class="dark-fill"
        d="m 88.248616,27.763591 -3.71875,2.254883 0.12988,0.213867 -0.77148,0.463867 -0.0781,-0.125977 c -0.0772,-0.130859 -0.30469,-0.07715 -0.66406,0.114258 l -0.20996,-0.34082 5.02246,-3.050781 z" />
    <path
        class="dark-fill"
        d="m 96.902906,32.646403 -2.84668,1.016602 0.13379,0.359375 -0.49316,0.18457 -0.0859,-0.223633 c -0.085,-0.223633 -0.24414,-0.279297 -0.48144,-0.233398 l -0.21875,-0.586914 3.69238,-1.326172 z" />
    <path
        class="dark-fill"
        d="m 93.975176,27.817302 -2.52246,1.038086 0.14746,0.357422 -0.51953,0.212891 -0.0928,-0.220703 c -0.0928,-0.220703 -0.26367,-0.268555 -0.51172,-0.207031 l -0.23828,-0.577148 3.40332,-1.397461 z" />
    <path
        class="dark-fill"
        d="m 90.801346,23.20988 -2.62597,1.505859 0.15234,0.256836 -0.54687,0.310059 -0.0918,-0.157715 c -0.0898,-0.158691 -0.26856,-0.157227 -0.52735,-0.04346 l -0.24218,-0.415039 3.54882,-2.035156 z" />
    <path
        class="dark-fill"
        d="m 91.295486,31.774333 -4.75683,1.845703 0.10937,0.289063 -0.98242,0.382813 -0.0703,-0.180664 c -0.0713,-0.178711 -0.34473,-0.165039 -0.79883,-0.02051 l -0.18457,-0.470703 6.43066,-2.491211 z" />
    <path
        class="dark-fill"
        d="m 66.555255,88.286052 c -2.369141,-0.248047 -3.75293,-1.969727 -3.541992,-4.262695 l 0.727539,-7.775391 c 0.223633,-2.313477 1.897461,-3.691406 4.261719,-3.44043 2.386719,0.249023 3.751953,1.941406 3.537109,4.260742 l -0.726563,7.768555 c -0.213867,2.302734 -1.873046,3.697266 -4.257812,3.449219 m 1.933594,-11.71875 c 0.04394,-0.445313 -0.210938,-0.785156 -0.755859,-0.84375 -0.529297,-0.05664 -0.866211,0.222656 -0.90625,0.667969 l -0.755859,8.112305 c -0.0459,0.438477 0.230469,0.806641 0.755859,0.866211 0.546875,0.05078 0.861328,-0.253906 0.90625,-0.693359 z" />
    <path
        class="dark-fill"
        d="m 13.046954,30.402263 c 0.02588,-1.613281 1.128418,-2.652344 2.731445,-2.648438 l 5.426758,0.0166 c 1.617676,0.0098 2.675781,1.057617 2.647461,2.669922 -0.02344,1.626953 -1.112305,2.654297 -2.730957,2.648438 l -5.424805,-0.0166 c -1.602538,-0.0059 -2.675781,-1.041016 -2.649902,-2.669922 m 8.23291,0.596679 c 0.311036,9.77e-4 0.528809,-0.192382 0.537598,-0.564453 0.0034,-0.359375 -0.209473,-0.570313 -0.520508,-0.570313 l -5.658203,-0.0166 c -0.312012,-0.002 -0.550293,0.204102 -0.553711,0.558594 -0.0073,0.378906 0.226074,0.572266 0.534668,0.572266 z" />
    <path
        class="dark-fill"
        d="m 15.882404,58.476482 c -1.29834,-2.202148 -0.693848,-4.507813 1.439453,-5.802734 l 7.230469,-4.375977 c 2.152832,-1.301758 4.421875,-0.743164 5.725586,1.462891 1.311523,2.223633 0.712891,4.500977 -1.444336,5.803711 l -7.225586,4.375 c -2.132813,1.294921 -4.415528,0.76953 -5.725586,-1.462891 m 11.433593,-5.866211 c 0.414063,-0.25293 0.544922,-0.694336 0.245117,-1.209961 -0.285156,-0.489258 -0.744629,-0.594727 -1.157227,-0.34668 l -7.541016,4.567383 c -0.411621,0.250977 -0.556641,0.723633 -0.266602,1.21582 0.299805,0.509766 0.76709,0.584961 1.183594,0.332031 z" />
    <path
        class="dark-fill"
        d="M 24.680743,71.947185 C 22.711505,69.99406 22.722735,67.39738 24.629473,65.430583 l 6.453125,-6.648438 c 1.925781,-1.976563 4.480469,-2.023438 6.451172,-0.07031 1.991211,1.967773 1.979492,4.535156 0.05176,6.511719 l -6.455078,6.647461 c -1.904296,1.963868 -4.458984,2.045899 -6.449707,0.07617 m 10.494629,-9.40918 c 0.375977,-0.37793 0.392578,-0.880859 -0.0625,-1.333008 -0.438477,-0.436523 -0.953125,-0.423828 -1.317383,-0.04395 l -6.734375,6.93457 c -0.373047,0.381836 -0.393066,0.920898 0.04492,1.356445 0.455078,0.451172 0.973633,0.400391 1.337891,0.01856 z" />
    <path
        class="dark-fill"
        d="m 41.5992,61.203044 c -1.164063,-1.022461 -1.097656,-2.641602 0.115234,-4.056641 l 4.118164,-4.804688 c 1.224609,-1.433594 2.795898,-1.71875 3.959961,-0.701172 1.177734,1.03125 1.103516,2.631836 -0.121094,4.061523 l -4.111328,4.801758 c -1.21289,1.416017 -2.783202,1.726564 -3.960937,0.69922 m 6.655274,-6.932617 c 0.242188,-0.276367 0.260742,-0.585938 -0.0068,-0.828125 -0.257813,-0.225586 -0.576172,-0.15918 -0.813477,0.111328 l -4.289063,5.009766 c -0.232422,0.271484 -0.262695,0.609375 -0.0049,0.834961 0.275391,0.240234 0.586914,0.150391 0.823242,-0.121094 z" />
    <path
        class="dark-fill"
        d="m 29.348224,44.853435 c -0.727539,-1.374023 -0.179688,-2.822266 1.325195,-3.630859 l 5.087891,-2.749023 c 1.518555,-0.817383 3.001953,-0.464844 3.723633,0.910156 0.740234,1.395508 0.193359,2.820313 -1.325195,3.639648 l -5.089844,2.74707 c -1.504883,0.808594 -2.986329,0.479492 -3.72168,-0.916992 m 7.988281,-3.681641 c 0.289063,-0.160156 0.412109,-0.435547 0.236328,-0.756836 -0.15625,-0.304688 -0.456055,-0.374023 -0.74707,-0.214844 l -5.3125,2.864258 c -0.292969,0.15918 -0.414063,0.455078 -0.253906,0.759766 0.164063,0.319336 0.475586,0.369141 0.768555,0.208984 z" />
    <path
        class="dark-fill"
        d="m 25.837482,24.970622 c 0.195313,-1.338867 1.438477,-2.05127 3.079102,-1.82373 l 5.552734,0.772461 c 1.651367,0.23291 2.618164,1.252441 2.416016,2.589355 -0.198242,1.353516 -1.425781,2.053711 -3.078125,1.826172 L 28.256428,27.560466 C 26.61629,27.330974 25.632892,26.322185 25.837482,24.970622 m 8.357422,1.646485 c 0.318359,0.04199 0.56543,-0.08496 0.612305,-0.396484 0.04395,-0.298828 -0.152344,-0.503906 -0.47168,-0.547852 l -5.791992,-0.805176 c -0.316406,-0.04199 -0.581055,0.09619 -0.625,0.393066 -0.04785,0.30957 0.166992,0.503418 0.486328,0.54834 z" />
    <path
        class="dark-fill"
        d="m 28.451739,9.3851728 c 0.630859,-0.813477 1.572266,-0.93457 2.350586,-0.344727 L 33.444903,11.0507 c 0.791016,0.599609 0.902344,1.520508 0.272461,2.333984 -0.634766,0.81543 -1.557617,0.939941 -2.345703,0.339844 L 28.72713,11.71818 C 27.947833,11.124919 27.816974,10.203532 28.451739,9.3851728 m 3.795899,3.3344732 c 0.148438,0.114746 0.332031,0.09814 0.481445,-0.08887 0.137695,-0.183105 0.114258,-0.367676 -0.04004,-0.483887 l -2.75293,-2.09082 c -0.154297,-0.1157232 -0.350586,-0.097656 -0.487305,0.08301 -0.145508,0.185547 -0.107422,0.371582 0.04395,0.486816 z" />
    <path
        class="dark-fill"
        d="m 42.304279,7.2372238 c 0.679688,-0.42627 1.584961,0.019043 2.267578,1.07666 l 2.30957,3.5903322 c 0.6875,1.068359 0.697266,2.054688 0.02246,2.480957 -0.686523,0.429199 -1.578125,-0.0083 -2.262695,-1.077148 l -2.30664,-3.5903322 c -0.678711,-1.058594 -0.716797,-2.051758 -0.03027,-2.480469 m 3.265625,5.6010742 c 0.138672,0.205078 0.310547,0.297852 0.467773,0.199707 0.15332,-0.09229 0.149414,-0.29541 0.0166,-0.499023 L 43.643146,8.7948408 c -0.12793,-0.205566 -0.319336,-0.304688 -0.466797,-0.209473 -0.15918,0.09668 -0.144531,0.304688 -0.0059,0.508301 z" />
    <path
        class="dark-fill"
        d="m 45.179279,1.1385908 c 0.613281,-0.20556602 1.1875,0.164551 1.449219,0.911133 l 0.883789,2.523438 c 0.258789,0.750977 0.04004,1.384277 -0.577148,1.592285 -0.62207,0.208984 -1.182617,-0.157227 -1.449219,-0.910156 l -0.879884,-2.523927 c -0.258789,-0.742187 -0.04785,-1.382324 0.573243,-1.592773 m 1.12207,3.907226 c 0.0498,0.141602 0.160156,0.218262 0.301758,0.172852 0.137695,-0.046875 0.185547,-0.174316 0.136719,-0.319824 l -0.926758,-2.632813 c -0.04785,-0.144531 -0.165039,-0.225586 -0.300781,-0.179688 -0.140625,0.049316 -0.183594,0.182617 -0.130859,0.325195 z" />
    <path
        class="dark-fill"
        d="m 58.697833,1.2460128 c 0.299805,0.044922 0.425781,0.591309 0.320313,1.347656 l -0.358398,2.566895 c -0.103516,0.762695 -0.367188,1.240723 -0.668945,1.193359 -0.310547,-0.045898 -0.428711,-0.582031 -0.320313,-1.344727 l 0.350586,-2.567871 c 0.105468,-0.757812 0.37207,-1.240722 0.676757,-1.195312 m -0.645508,3.880859 c -0.02246,0.146484 0.0029,0.253418 0.07031,0.265625 0.06836,0.01123 0.125977,-0.085938 0.140625,-0.231934 l 0.370117,-2.679688 c 0.02051,-0.145996 -0.0039,-0.263184 -0.06934,-0.272461 -0.07031,-0.010254 -0.119141,0.095703 -0.144531,0.241699 z" />
    <path
        class="dark-fill"
        d="M 61.731036,71.340739 C 60.22713,70.970622 59.538653,69.498942 59.968341,67.683512 l 1.435547,-6.15625 c 0.429688,-1.835938 1.69043,-2.813477 3.195313,-2.447266 1.517578,0.370117 2.197266,1.824219 1.764648,3.65625 l -1.441406,6.15625 c -0.419922,1.820314 -1.675782,2.816407 -3.191407,2.448243 m 2.719727,-9.21875 c 0.07715,-0.354492 -0.04199,-0.644531 -0.389648,-0.729492 -0.334961,-0.08594 -0.586914,0.113281 -0.673828,0.46582 l -1.501953,6.421875 c -0.07813,0.351563 0.05273,0.667969 0.384766,0.74707 0.34668,0.08789 0.591797,-0.134766 0.676758,-0.488281 z" />
    <path
        class="dark-fill"
        d="m 74.472247,71.961833 c -1.541016,0.110352 -2.643555,-1.084961 -2.795898,-2.943359 l -0.515625,-6.300781 c -0.150391,-1.87793 0.750977,-3.192383 2.293945,-3.304688 1.55957,-0.110352 2.646487,1.063477 2.802737,2.943359 l 0.50781,6.301758 c 0.14941,1.861328 -0.734375,3.19336 -2.292969,3.303711 m -0.235351,-9.607422 c -0.02734,-0.362305 -0.233398,-0.600586 -0.588867,-0.574219 -0.344727,0.02344 -0.524414,0.293945 -0.494141,0.648438 l 0.532227,6.576172 c 0.0332,0.357422 0.251953,0.613281 0.595703,0.59375 0.356445,-0.0293 0.522461,-0.3125 0.490234,-0.673828 z" />
    <path
        class="dark-fill"
        d="m 96.010336,53.089763 c -0.52442,1.083984 -1.81543,1.333008 -3.21875,0.679688 l -4.75391,-2.233398 c -1.41797,-0.666992 -2.01953,-1.804688 -1.49902,-2.888672 0.52539,-1.098633 1.80273,-1.349609 3.2168,-0.679688 l 4.75781,2.228516 c 1.40332,0.657226 2.02148,1.795898 1.49707,2.893554 m -7.03711,-3.770508 c -0.27637,-0.125977 -0.52832,-0.08594 -0.64942,0.166992 -0.11621,0.238281 0.007,0.466797 0.28125,0.59082 l 4.95801,2.333984 c 0.27442,0.123047 0.5459,0.08008 0.66114,-0.15918 0.11816,-0.251953 -0.0225,-0.475586 -0.29395,-0.608398 z" />
    <path
        class="dark-fill"
        d="m 96.481036,43.467692 c -0.0566,1.138672 -1.09473,1.842773 -2.57617,1.78418 l -5.01074,-0.194336 c -1.49414,-0.05957 -2.44922,-0.835938 -2.39453,-1.973633 0.0566,-1.157227 1.08398,-1.847656 2.57714,-1.789063 l 5.0127,0.191406 c 1.47754,0.05762 2.45019,0.826173 2.3916,1.981446 m -7.59082,-0.696289 c -0.28906,-0.01367 -0.49707,0.120117 -0.50781,0.378906 -0.0107,0.256836 0.18164,0.415039 0.46777,0.426758 l 5.22949,0.198242 c 0.28516,0.0088 0.50781,-0.126953 0.51953,-0.382813 0.0147,-0.261719 -0.19726,-0.40625 -0.48242,-0.418945 z" />
    <path
        class="dark-fill"
        d="m 100.94881,60.179607 c -0.47168,0.928711 -1.329104,1.261719 -2.133794,0.861328 l -2.74316,-1.353516 c -0.81348,-0.40332 -1.05078,-1.271484 -0.5791,-2.202148 0.47558,-0.941406 1.31836,-1.264648 2.13476,-0.866211 l 2.738294,1.358398 c 0.80957,0.396484 1.05761,1.265625 0.583,2.202149 m -3.997074,-2.387696 c -0.15429,-0.07227 -0.32324,-0.01465 -0.43164,0.198242 -0.10351,0.207031 -0.0547,0.382813 0.10059,0.461914 l 2.8584,1.40918 c 0.15625,0.07715 0.33398,0.01855 0.4414,-0.19043 0.107424,-0.217773 0.0449,-0.384766 -0.11035,-0.46582 z" />
    <path
        class="dark-fill"
        d="m 2.8413878,38.422771 c -0.27832,-1.3125 0.42627,-2.360352 1.729004,-2.651367 l 4.412109,-0.976563 c 1.3144532,-0.291016 2.3657232,0.368164 2.6430662,1.685547 0.282227,1.327148 -0.416016,2.360352 -1.7290042,2.651367 l -4.40918,0.978516 c -1.302733,0.287109 -2.364745,-0.357422 -2.645995,-1.6875 m 6.799316,-1.020508 c 0.251953,-0.05566 0.3925782,-0.254883 0.32959,-0.558594 -0.05957,-0.291992 -0.274902,-0.423828 -0.526855,-0.365234 l -4.597656,1.018555 c -0.257324,0.05762 -0.408691,0.268555 -0.350586,0.5625 0.06836,0.300781 0.291016,0.416992 0.543457,0.361328 z" />
    <path
        class="dark-fill"
        d="m 99.122636,39.042888 c -0.0244,0.582031 -0.37011,0.941406 -0.85644,0.920898 l -1.64844,-0.07617 c -0.49023,-0.01758 -0.80176,-0.408203 -0.77637,-0.990234 0.0234,-0.584961 0.36426,-0.935547 0.85742,-0.917969 l 1.64454,0.0791 c 0.48632,0.0166 0.80175,0.401367 0.77929,0.984375 m -2.49414,-0.309571 c -0.0957,-0.0059 -0.16309,0.05859 -0.16992,0.198242 -0.004,0.124023 0.0586,0.203125 0.15234,0.206055 l 1.72071,0.07715 c 0.0889,0.0059 0.16406,-0.07031 0.17187,-0.195313 0.004,-0.132813 -0.0635,-0.209961 -0.15723,-0.212891 z" />
    <path
        class="light-fill"
        d="M 73.489825,22.4882 C 84.306236,31.545817 87.895096,45.078044 81.505446,52.710856 75.109942,60.349528 61.157794,59.200114 50.339434,50.14445 39.518145,41.088786 35.933184,27.556559 42.326739,19.918376 48.716388,12.282146 62.665607,13.432048 73.489825,22.4882" />
    <path
        class="dark-fill"
        d="M 102.48104,45.345622 C 99.939046,32.951091 91.515216,21.985759 82.933186,14.040446 74.350176,6.0917158 70.135332,4.1053868 64.0992,1.8812658 58.064044,-0.34724922 50.510333,-0.26717122 45.267169,0.44962578 41.1617,1.0082198 31.913653,4.0257978 26.512774,9.1127118 20.617754,14.657146 12.497637,17.523357 9.6660938,19.918376 c -12.792969,10.810059 -9.54931596,35.98291 -8.580566,40.05127 2.223633,9.378906 6.275879,19.389648 17.4804692,28.929688 12.932617,11 33.397461,12.477536 43.862305,10.166992 C 77.210526,95.810467 89.848226,87.544842 95.566976,78.642498 101.29061,69.74406 105.02303,57.743083 102.48104,45.345622 M 77.845296,90.325114 C 55.430255,103.02336 28.243731,94.453044 13.733966,76.993083 2.0459778,62.930583 -4.1478702,31.075114 13.481525,20.392009 26.371662,12.58195 28.51717,7.8373208 37.183185,4.2396648 52.287677,-2.0249832 69.618732,-0.72322622 88.278886,20.392009 107.48592,42.121013 106.97518,73.826091 77.845296,90.325114" />
</svg>