<?xml version="1.0" encoding="UTF-8" standalone="no"?>
<svg
    xmlns:svg="http://www.w3.org/2000/svg"
    xmlns="http://www.w3.org/2000/svg"
    version="1.1"
    x="0px"
    y="0px"
    width="151.43616"
    height="99.96022"
    viewBox="0 0 151.43616 99.96022"
    xml:space="preserve">
    <style>
        .dark-stroke {
            stroke: #999;
        }
        .light-fill {
            fill: #ddd;
        }
        .no-fill {
            fill: none;
        }
    </style>
    <g
       transform="translate(0.23377722,0.01002264)">
       <path
	       class="light-fill"
	       d="m 35.857422,64.233398 c 3.25293,-5.038086 6.071289,-10.365234 8.70459,-15.345703 6.64502,-12.56543 12.383301,-23.41748 20.441895,-23.41748 0.124023,0 0.439453,0.03223 0.976563,0.28418 1.630859,-2.827637 3.256836,-5.571289 4.935547,-8.166992 -1.923828,-1.06543 -3.878906,-1.637695 -5.912109,-1.637695 -13.792969,0 -21.111328,13.838379 -28.85791,28.48877 -5.90332,11.162109 -11.953125,22.576172 -20.887695,28.52832 8.157713,-1.801759 14.893552,-4.85547 20.599119,-8.7334 z"/>
       <path
	       class="light-fill"
	       d="m 92.417969,44.108398 c -4.019531,-6.231445 -7.615234,-11.800781 -11.036133,-16.30957 -1.568359,2.551758 -3.206055,5.384766 -4.981445,8.490234 -0.09082,0.158203 -0.180664,0.317383 -0.272461,0.475586 2.616211,3.710938 5.401367,8.024414 8.292969,12.503906 14.46875,22.421875 32.476561,50.325195 57.906251,50.681641 l 0.13281,-9.519531 C 122.13086,90.147461 105.65723,64.619141 92.417969,44.108398 Z"/>
    </g>
    <path
       class="no-fill dark-stroke" style="stroke-width:9.52004528"
       d="M 0.10438222,81.899671 C 72.853894,80.303968 65.714246,4.7600226 100.93691,4.7600226 c 23.34472,0 24.11523,52.1357424 49.42675,57.9892584"/>
    <g
       transform="translate(0.23377722,0.01002264)">
       <path
	       class="light-fill"
	       d="m 92.245117,39.454102 c 2.59668,-4.036133 5.019531,-6.004883 8.934573,-6.004883 4.99902,0 8.7041,9.530273 12.28711,18.74707 4.65722,11.983398 9.93652,25.566406 21.90527,26.972656 l 1.1123,-9.454102 C 130.20312,68.975585 126.20508,58.691405 122.33984,48.74707 117.59668,36.544922 112.69238,23.929687 101.17969,23.929687 c -6.616214,0 -11.065433,2.932617 -14.530276,7.107422 1.797852,2.595704 3.65332,5.418946 5.595703,8.416993 z"/>
       <path
	       class="light-fill"
	       d="m 82.420898,50.560547 c -1.3125,-2.036133 -2.601563,-4.03125 -3.860352,-5.949219 C 73.164062,54.880859 66.284179,66.310547 48.668456,72.512695 41.021483,78.713867 31.62744,83.785156 19.726561,86.613281 61.288084,85.746093 76.0166,68.391601 84.445311,53.692383 c -0.682616,-1.052735 -1.35742,-2.09961 -2.024413,-3.131836 z"/>
    </g>
</svg>
