<?xml version="1.0" encoding="UTF-8" standalone="no"?>
<svg
   xmlns:svg="http://www.w3.org/2000/svg"
   xmlns="http://www.w3.org/2000/svg"
   version="1.1"
   x="0px"
   y="0px"
   width="116.52295"
   height="100"
   viewBox="0 0 116.52295 100"
   xml:space="preserve"
   >
   <style>
        .dark-fill {
            fill: #999;
        }
        .dark-stroke {
            stroke: #999;
        }
        .light-fill {
            fill: #ddd;
        }
        .no-fill {
            fill: none;
        }
    </style>
    <path
   class="dark-fill"
   d="m 59.307129,100 h 21.652344 c 6.277348,0 5.733398,-4.539063 4.393558,-6.589844 -1.56934,-2.40625 -2.71973,-4.077148 -4.393558,-6.59082 -1.641602,-2.459961 -3.137695,-2.193359 -6.588867,-2.193359 H 58.681152 57.845214 42.155762 c -3.455078,0 -4.950195,-0.266602 -6.589844,2.193359 -1.676758,2.513672 -2.828613,4.18457 -4.395508,6.59082 C 29.82959,95.460938 29.288574,100 35.565918,100 h 21.650391 z"/>
    <path
   class="dark-fill"
   d="M 104.53662,0 H 11.98584 C 5.394043,0 0,5.394531 0,11.986328 v 55.944336 c 0,6.591797 5.394043,11.985352 11.98584,11.985352 h 92.55078 c 6.59375,0 11.98633,-5.393555 11.98633,-11.985352 V 11.986328 C 116.52295,5.394531 111.13037,0 104.53662,0 Z m 3.60352,55.517578 c 0,6.591797 -5.39453,11.986328 -11.986329,11.986328 H 20.369629 c -6.592773,0 -11.986328,-5.394531 -11.986328,-11.986328 V 17.736328 C 8.383301,11.144531 13.776855,5.75 20.369629,5.75 h 75.784182 c 6.591799,0 11.986329,5.394531 11.986329,11.986328 z"/>
    <circle
   class="light-fill dark-stroke"
   cx="35.772217"
   cy="32.427734"
   r="6.6950679"/>
    <circle
   class="light-fill dark-stroke"
   cx="62.549805"
   cy="47.490234"
   r="6.6948242"/>
    <circle
   class="light-fill dark-stroke"
   cx="88.491699"
   cy="21.548828"
   r="6.6943359"/>
    <line
   class="no-fill dark-stroke"
   x1="8.1567383"
   y1="49.164062"
   x2="29.600098"
   y2="35.202148" />
    <line
   class="no-fill dark-stroke"
   x1="41.525879"
   y1="35.984375"
   x2="56.588379"
   y2="44.302734" />
    <line
   class="no-fill dark-stroke"
   x1="67.727051"
   y1="43.201172"
   x2="83.888184"
   y2="26.730469" />
</svg>