<?xml version="1.0" encoding="UTF-8" standalone="no"?>
<!DOCTYPE svg PUBLIC "-//W3C//DTD SVG 1.1//EN"
 "http://www.w3.org/Graphics/SVG/1.1/DTD/svg11.dtd">
<!-- Generated by graphviz version 2.40.1 (20161225.0304)
 -->
<!-- Title: dependencies Pages: 1 -->
<svg width="1365pt" height="211pt"
 viewBox="0.00 0.00 1365.00 211.00" xmlns="http://www.w3.org/2000/svg" xmlns:xlink="http://www.w3.org/1999/xlink">
<g id="graph0" class="graph" transform="scale(1 1) rotate(0) translate(4 207)">
<title>dependencies</title>
<polygon fill="#ffffff" stroke="transparent" points="-4,4 -4,-207 1361,-207 1361,4 -4,4"/>
<text text-anchor="start" x="657.5091" y="-42.4" font-family="sans-serif" font-weight="bold" font-size="14.00" fill="#000000">Legend</text>
<polygon fill="#ffffb3" stroke="transparent" points="444.5,-10 444.5,-30 464.5,-30 464.5,-10 444.5,-10"/>
<text text-anchor="start" x="468.129" y="-15.4" font-family="sans-serif" font-size="14.00" fill="#000000"> &#160;Declarations</text>
<polygon fill="#8dd3c7" stroke="transparent" points="557.5,-10 557.5,-30 577.5,-30 577.5,-10 557.5,-10"/>
<text text-anchor="start" x="581.2251" y="-15.4" font-family="sans-serif" font-size="14.00" fill="#000000"> &#160;Module</text>
<polygon fill="#80b1d3" stroke="transparent" points="643.5,-10 643.5,-30 663.5,-30 663.5,-10 643.5,-10"/>
<text text-anchor="start" x="667.2812" y="-15.4" font-family="sans-serif" font-size="14.00" fill="#000000"> &#160;Bootstrap</text>
<polygon fill="#fdb462" stroke="transparent" points="740.5,-10 740.5,-30 760.5,-30 760.5,-10 740.5,-10"/>
<text text-anchor="start" x="764.1732" y="-15.4" font-family="sans-serif" font-size="14.00" fill="#000000"> &#160;Providers</text>
<polygon fill="#fb8072" stroke="transparent" points="836.5,-10 836.5,-30 856.5,-30 856.5,-10 836.5,-10"/>
<text text-anchor="start" x="860.2258" y="-15.4" font-family="sans-serif" font-size="14.00" fill="#000000"> &#160;Exports</text>
<g id="clust1" class="cluster">
<title>cluster_UserModule</title>
<polygon fill="none" stroke="#000000" stroke-dasharray="1,5" points="8,-70 8,-195 1349,-195 1349,-70 8,-70"/>
</g>
<g id="clust2" class="cluster">
<title>cluster_UserModule_declarations</title>
<polygon fill="none" stroke="#000000" points="413,-78 413,-130 1341,-130 1341,-78 413,-78"/>
</g>
<g id="clust9" class="cluster">
<title>cluster_UserModule_imports</title>
<polygon fill="none" stroke="#000000" points="16,-78 16,-130 405,-130 405,-78 16,-78"/>
</g>
<!-- ModelsComponent -->
<g id="node1" class="node">
<title>ModelsComponent</title>
<polygon fill="#ffffb3" stroke="#000000" points="1332.8272,-122 1209.1728,-122 1209.1728,-86 1332.8272,-86 1332.8272,-122"/>
<text text-anchor="middle" x="1271" y="-99.8" font-family="Times,serif" font-size="14.00" fill="#000000">ModelsComponent</text>
</g>
<!-- UserModule -->
<g id="node7" class="node">
<title>UserModule</title>
<polygon fill="#8dd3c7" stroke="#000000" points="717.9762,-187 714.9762,-191 693.9762,-191 690.9762,-187 632.0238,-187 632.0238,-151 717.9762,-151 717.9762,-187"/>
<text text-anchor="middle" x="675" y="-164.8" font-family="Times,serif" font-size="14.00" fill="#000000">UserModule</text>
</g>
<!-- ModelsComponent&#45;&gt;UserModule -->
<g id="edge1" class="edge">
<title>ModelsComponent&#45;&gt;UserModule</title>
<path fill="none" stroke="#000000" d="M1271,-122.0109C1271,-144.4852 1271,-180 1271,-180 1271,-180 728.3429,-180 728.3429,-180"/>
<polygon fill="#000000" stroke="#000000" points="728.343,-176.5001 718.3429,-180 728.3429,-183.5001 728.343,-176.5001"/>
</g>
<!-- ProfileComponent -->
<g id="node2" class="node">
<title>ProfileComponent</title>
<polygon fill="#ffffb3" stroke="#000000" points="1191.9328,-122 1072.0672,-122 1072.0672,-86 1191.9328,-86 1191.9328,-122"/>
<text text-anchor="middle" x="1132" y="-99.8" font-family="Times,serif" font-size="14.00" fill="#000000">ProfileComponent</text>
</g>
<!-- ProfileComponent&#45;&gt;UserModule -->
<g id="edge2" class="edge">
<title>ProfileComponent&#45;&gt;UserModule</title>
<path fill="none" stroke="#000000" d="M1132,-122.1289C1132,-142.5724 1132,-173 1132,-173 1132,-173 727.9935,-173 727.9935,-173"/>
<polygon fill="#000000" stroke="#000000" points="727.9935,-169.5001 717.9935,-173 727.9934,-176.5001 727.9935,-169.5001"/>
</g>
<!-- ProfileEditComponent -->
<g id="node3" class="node">
<title>ProfileEditComponent</title>
<polygon fill="#ffffb3" stroke="#000000" points="1054.266,-122 911.734,-122 911.734,-86 1054.266,-86 1054.266,-122"/>
<text text-anchor="middle" x="983" y="-99.8" font-family="Times,serif" font-size="14.00" fill="#000000">ProfileEditComponent</text>
</g>
<!-- ProfileEditComponent&#45;&gt;UserModule -->
<g id="edge3" class="edge">
<title>ProfileEditComponent&#45;&gt;UserModule</title>
<path fill="none" stroke="#000000" d="M983,-122.2667C983,-140.5552 983,-166 983,-166 983,-166 728.1504,-166 728.1504,-166"/>
<polygon fill="#000000" stroke="#000000" points="728.1504,-162.5001 718.1504,-166 728.1504,-169.5001 728.1504,-162.5001"/>
</g>
<!-- ProjectsComponent -->
<g id="node4" class="node">
<title>ProjectsComponent</title>
<polygon fill="#ffffb3" stroke="#000000" points="893.4313,-122 766.5687,-122 766.5687,-86 893.4313,-86 893.4313,-122"/>
<text text-anchor="middle" x="830" y="-99.8" font-family="Times,serif" font-size="14.00" fill="#000000">ProjectsComponent</text>
</g>
<!-- ProjectsComponent&#45;&gt;UserModule -->
<g id="edge4" class="edge">
<title>ProjectsComponent&#45;&gt;UserModule</title>
<path fill="none" stroke="#000000" d="M830,-122.0091C830,-138.0494 830,-159 830,-159 830,-159 728.1761,-159 728.1761,-159"/>
<polygon fill="#000000" stroke="#000000" points="728.1762,-155.5001 718.1761,-159 728.1761,-162.5001 728.1762,-155.5001"/>
</g>
<!-- SimulationsComponent -->
<g id="node5" class="node">
<title>SimulationsComponent</title>
<polygon fill="#ffffb3" stroke="#000000" points="749.2274,-122 600.7726,-122 600.7726,-86 749.2274,-86 749.2274,-122"/>
<text text-anchor="middle" x="675" y="-99.8" font-family="Times,serif" font-size="14.00" fill="#000000">SimulationsComponent</text>
</g>
<!-- SimulationsComponent&#45;&gt;UserModule -->
<g id="edge5" class="edge">
<title>SimulationsComponent&#45;&gt;UserModule</title>
<path fill="none" stroke="#000000" d="M675,-122.1061C675,-122.1061 675,-140.991 675,-140.991"/>
<polygon fill="#000000" stroke="#000000" points="671.5001,-140.9909 675,-150.991 678.5001,-140.991 671.5001,-140.9909"/>
</g>
<!-- VisualizationsComponent -->
<g id="node6" class="node">
<title>VisualizationsComponent</title>
<polygon fill="#ffffb3" stroke="#000000" points="582.9256,-122 421.0744,-122 421.0744,-86 582.9256,-86 582.9256,-122"/>
<text text-anchor="middle" x="502" y="-99.8" font-family="Times,serif" font-size="14.00" fill="#000000">VisualizationsComponent</text>
</g>
<!-- VisualizationsComponent&#45;&gt;UserModule -->
<g id="edge6" class="edge">
<title>VisualizationsComponent&#45;&gt;UserModule</title>
<path fill="none" stroke="#000000" d="M502,-122.0091C502,-138.0494 502,-159 502,-159 502,-159 621.7911,-159 621.7911,-159"/>
<polygon fill="#000000" stroke="#000000" points="621.7911,-162.5001 631.7911,-159 621.791,-155.5001 621.7911,-162.5001"/>
</g>
<!-- MaterialModule -->
<g id="node8" class="node">
<title>MaterialModule</title>
<polygon fill="#8dd3c7" stroke="#000000" points="397.4706,-122 394.4706,-126 373.4706,-126 370.4706,-122 290.5294,-122 290.5294,-86 397.4706,-86 397.4706,-122"/>
<text text-anchor="middle" x="344" y="-99.8" font-family="Times,serif" font-size="14.00" fill="#000000">MaterialModule</text>
</g>
<!-- MaterialModule&#45;&gt;UserModule -->
<g id="edge7" class="edge">
<title>MaterialModule&#45;&gt;UserModule</title>
<path fill="none" stroke="#000000" d="M344,-122.2667C344,-140.5552 344,-166 344,-166 344,-166 621.7275,-166 621.7275,-166"/>
<polygon fill="#000000" stroke="#000000" points="621.7276,-169.5001 631.7275,-166 621.7275,-162.5001 621.7276,-169.5001"/>
</g>
<!-- SharedModule -->
<g id="node9" class="node">
<title>SharedModule</title>
<polygon fill="#8dd3c7" stroke="#000000" points="272.4231,-122 269.4231,-126 248.4231,-126 245.4231,-122 173.5769,-122 173.5769,-86 272.4231,-86 272.4231,-122"/>
<text text-anchor="middle" x="223" y="-99.8" font-family="Times,serif" font-size="14.00" fill="#000000">SharedModule</text>
</g>
<!-- SharedModule&#45;&gt;UserModule -->
<g id="edge8" class="edge">
<title>SharedModule&#45;&gt;UserModule</title>
<path fill="none" stroke="#000000" d="M223,-122.1289C223,-142.5724 223,-173 223,-173 223,-173 621.6603,-173 621.6603,-173"/>
<polygon fill="#000000" stroke="#000000" points="621.6604,-176.5001 631.6603,-173 621.6603,-169.5001 621.6604,-176.5001"/>
</g>
<!-- UserRoutingModule -->
<g id="node10" class="node">
<title>UserRoutingModule</title>
<polygon fill="#8dd3c7" stroke="#000000" points="155.594,-122 152.594,-126 131.594,-126 128.594,-122 24.406,-122 24.406,-86 155.594,-86 155.594,-122"/>
<text text-anchor="middle" x="90" y="-99.8" font-family="Times,serif" font-size="14.00" fill="#000000">UserRoutingModule</text>
</g>
<!-- UserRoutingModule&#45;&gt;UserModule -->
<g id="edge9" class="edge">
<title>UserRoutingModule&#45;&gt;UserModule</title>
<path fill="none" stroke="#000000" d="M90,-122.0109C90,-144.4852 90,-180 90,-180 90,-180 621.9836,-180 621.9836,-180"/>
<polygon fill="#000000" stroke="#000000" points="621.9836,-183.5001 631.9836,-180 621.9835,-176.5001 621.9836,-183.5001"/>
</g>
</g>
</svg>
