<?xml version="1.0" encoding="UTF-8" standalone="no"?>
<!DOCTYPE svg PUBLIC "-//W3C//DTD SVG 1.1//EN"
 "http://www.w3.org/Graphics/SVG/1.1/DTD/svg11.dtd">
<!-- Generated by graphviz version 2.40.1 (20161225.0304)
 -->
<!-- Title: dependencies Pages: 1 -->
<svg width="1040pt" height="211pt"
 viewBox="0.00 0.00 1040.00 211.00" xmlns="http://www.w3.org/2000/svg" xmlns:xlink="http://www.w3.org/1999/xlink">
<g id="graph0" class="graph" transform="scale(1 1) rotate(0) translate(4 207)">
<title>dependencies</title>
<polygon fill="#ffffff" stroke="transparent" points="-4,4 -4,-207 1036,-207 1036,4 -4,4"/>
<text text-anchor="start" x="495.0091" y="-42.4" font-family="sans-serif" font-weight="bold" font-size="14.00" fill="#000000">Legend</text>
<polygon fill="#ffffb3" stroke="transparent" points="282,-10 282,-30 302,-30 302,-10 282,-10"/>
<text text-anchor="start" x="305.629" y="-15.4" font-family="sans-serif" font-size="14.00" fill="#000000"> &#160;Declarations</text>
<polygon fill="#8dd3c7" stroke="transparent" points="395,-10 395,-30 415,-30 415,-10 395,-10"/>
<text text-anchor="start" x="418.7251" y="-15.4" font-family="sans-serif" font-size="14.00" fill="#000000"> &#160;Module</text>
<polygon fill="#80b1d3" stroke="transparent" points="481,-10 481,-30 501,-30 501,-10 481,-10"/>
<text text-anchor="start" x="504.7812" y="-15.4" font-family="sans-serif" font-size="14.00" fill="#000000"> &#160;Bootstrap</text>
<polygon fill="#fdb462" stroke="transparent" points="578,-10 578,-30 598,-30 598,-10 578,-10"/>
<text text-anchor="start" x="601.6732" y="-15.4" font-family="sans-serif" font-size="14.00" fill="#000000"> &#160;Providers</text>
<polygon fill="#fb8072" stroke="transparent" points="674,-10 674,-30 694,-30 694,-10 674,-10"/>
<text text-anchor="start" x="697.7258" y="-15.4" font-family="sans-serif" font-size="14.00" fill="#000000"> &#160;Exports</text>
<g id="clust1" class="cluster">
<title>cluster_UserModule</title>
<polygon fill="none" stroke="#000000" stroke-dasharray="1,5" points="8,-70 8,-195 1024,-195 1024,-70 8,-70"/>
</g>
<g id="clust2" class="cluster">
<title>cluster_UserModule_declarations</title>
<polygon fill="none" stroke="#000000" points="413,-78 413,-130 1016,-130 1016,-78 413,-78"/>
</g>
<g id="clust7" class="cluster">
<title>cluster_UserModule_imports</title>
<polygon fill="none" stroke="#000000" points="16,-78 16,-130 405,-130 405,-78 16,-78"/>
</g>
<!-- ModelsComponent -->
<g id="node1" class="node">
<title>ModelsComponent</title>
<polygon fill="#ffffb3" stroke="#000000" points="1007.8272,-122 884.1728,-122 884.1728,-86 1007.8272,-86 1007.8272,-122"/>
<text text-anchor="middle" x="946" y="-99.8" font-family="Times,serif" font-size="14.00" fill="#000000">ModelsComponent</text>
</g>
<!-- UserModule -->
<g id="node5" class="node">
<title>UserModule</title>
<polygon fill="#8dd3c7" stroke="#000000" points="537.9762,-187 534.9762,-191 513.9762,-191 510.9762,-187 452.0238,-187 452.0238,-151 537.9762,-151 537.9762,-187"/>
<text text-anchor="middle" x="495" y="-164.8" font-family="Times,serif" font-size="14.00" fill="#000000">UserModule</text>
</g>
<!-- ModelsComponent&#45;&gt;UserModule -->
<g id="edge1" class="edge">
<title>ModelsComponent&#45;&gt;UserModule</title>
<path fill="none" stroke="#000000" d="M946,-122.2921C946,-144.2057 946,-178 946,-178 946,-178 548.2438,-178 548.2438,-178"/>
<polygon fill="#000000" stroke="#000000" points="548.2438,-174.5001 538.2438,-178 548.2437,-181.5001 548.2438,-174.5001"/>
</g>
<!-- ProfileComponent -->
<g id="node2" class="node">
<title>ProfileComponent</title>
<polygon fill="#ffffb3" stroke="#000000" points="866.9328,-122 747.0672,-122 747.0672,-86 866.9328,-86 866.9328,-122"/>
<text text-anchor="middle" x="807" y="-99.8" font-family="Times,serif" font-size="14.00" fill="#000000">ProfileComponent</text>
</g>
<!-- ProfileComponent&#45;&gt;UserModule -->
<g id="edge2" class="edge">
<title>ProfileComponent&#45;&gt;UserModule</title>
<path fill="none" stroke="#000000" d="M807,-122.1061C807,-141.3391 807,-169 807,-169 807,-169 548.0547,-169 548.0547,-169"/>
<polygon fill="#000000" stroke="#000000" points="548.0547,-165.5001 538.0547,-169 548.0547,-172.5001 548.0547,-165.5001"/>
</g>
<!-- ProfileEditComponent -->
<g id="node3" class="node">
<title>ProfileEditComponent</title>
<polygon fill="#ffffb3" stroke="#000000" points="729.266,-122 586.734,-122 586.734,-86 729.266,-86 729.266,-122"/>
<text text-anchor="middle" x="658" y="-99.8" font-family="Times,serif" font-size="14.00" fill="#000000">ProfileEditComponent</text>
</g>
<!-- ProfileEditComponent&#45;&gt;UserModule -->
<g id="edge3" class="edge">
<title>ProfileEditComponent&#45;&gt;UserModule</title>
<path fill="none" stroke="#000000" d="M658,-122.027C658,-138.3976 658,-160 658,-160 658,-160 548.2531,-160 548.2531,-160"/>
<polygon fill="#000000" stroke="#000000" points="548.2531,-156.5001 538.2531,-160 548.253,-163.5001 548.2531,-156.5001"/>
</g>
<!-- SimulationsComponent -->
<g id="node4" class="node">
<title>SimulationsComponent</title>
<polygon fill="#ffffb3" stroke="#000000" points="569.2274,-122 420.7726,-122 420.7726,-86 569.2274,-86 569.2274,-122"/>
<text text-anchor="middle" x="495" y="-99.8" font-family="Times,serif" font-size="14.00" fill="#000000">SimulationsComponent</text>
</g>
<!-- SimulationsComponent&#45;&gt;UserModule -->
<g id="edge4" class="edge">
<title>SimulationsComponent&#45;&gt;UserModule</title>
<path fill="none" stroke="#000000" d="M495,-122.1061C495,-122.1061 495,-140.991 495,-140.991"/>
<polygon fill="#000000" stroke="#000000" points="491.5001,-140.9909 495,-150.991 498.5001,-140.991 491.5001,-140.9909"/>
</g>
<!-- MaterialModule -->
<g id="node6" class="node">
<title>MaterialModule</title>
<polygon fill="#8dd3c7" stroke="#000000" points="397.4706,-122 394.4706,-126 373.4706,-126 370.4706,-122 290.5294,-122 290.5294,-86 397.4706,-86 397.4706,-122"/>
<text text-anchor="middle" x="344" y="-99.8" font-family="Times,serif" font-size="14.00" fill="#000000">MaterialModule</text>
</g>
<!-- MaterialModule&#45;&gt;UserModule -->
<g id="edge5" class="edge">
<title>MaterialModule&#45;&gt;UserModule</title>
<path fill="none" stroke="#000000" d="M344,-122.027C344,-138.3976 344,-160 344,-160 344,-160 441.7295,-160 441.7295,-160"/>
<polygon fill="#000000" stroke="#000000" points="441.7295,-163.5001 451.7295,-160 441.7294,-156.5001 441.7295,-163.5001"/>
</g>
<!-- SharedModule -->
<g id="node7" class="node">
<title>SharedModule</title>
<polygon fill="#8dd3c7" stroke="#000000" points="272.4231,-122 269.4231,-126 248.4231,-126 245.4231,-122 173.5769,-122 173.5769,-86 272.4231,-86 272.4231,-122"/>
<text text-anchor="middle" x="223" y="-99.8" font-family="Times,serif" font-size="14.00" fill="#000000">SharedModule</text>
</g>
<!-- SharedModule&#45;&gt;UserModule -->
<g id="edge6" class="edge">
<title>SharedModule&#45;&gt;UserModule</title>
<path fill="none" stroke="#000000" d="M223,-122.1061C223,-141.3391 223,-169 223,-169 223,-169 441.9008,-169 441.9008,-169"/>
<polygon fill="#000000" stroke="#000000" points="441.9008,-172.5001 451.9008,-169 441.9008,-165.5001 441.9008,-172.5001"/>
</g>
<!-- UserRoutingModule -->
<g id="node8" class="node">
<title>UserRoutingModule</title>
<polygon fill="#8dd3c7" stroke="#000000" points="155.594,-122 152.594,-126 131.594,-126 128.594,-122 24.406,-122 24.406,-86 155.594,-86 155.594,-122"/>
<text text-anchor="middle" x="90" y="-99.8" font-family="Times,serif" font-size="14.00" fill="#000000">UserRoutingModule</text>
</g>
<!-- UserRoutingModule&#45;&gt;UserModule -->
<g id="edge7" class="edge">
<title>UserRoutingModule&#45;&gt;UserModule</title>
<path fill="none" stroke="#000000" d="M90,-122.2921C90,-144.2057 90,-178 90,-178 90,-178 441.6579,-178 441.6579,-178"/>
<polygon fill="#000000" stroke="#000000" points="441.6579,-181.5001 451.6579,-178 441.6579,-174.5001 441.6579,-181.5001"/>
</g>
</g>
</svg>
