<svg version="1" xmlns="http://www.w3.org/2000/svg" width="933.333" height="933.333" viewBox="0 0 700.000000 700.000000"><path d="M608.1 154.1c-27.6 5.4-49.7 25.2-58.8 52.4-2.3 7-2.6 9.7-2.7 21.5-.1 11.3.3 14.8 2.2 21.4l2.3 8-40.9 40.9-41 41-8.3-2.3c-11.8-3.3-27.9-3.3-40.3-.1l-8.9 2.3-25.4-25.5-25.5-25.4 2.3-8.9c2.9-11.3 3.1-28.5.5-38.3-3.9-14.6-11.3-26.9-22.3-37.1-8.6-8-15.7-12.3-27-16.3-11.4-4-28.7-4.9-41-2.2-27.3 6-49.4 27.2-56.9 54.5-2.8 10-2.6 30.1.4 40.4l2.3 8-55.8 55.9c-53 53-56 55.8-58.8 55.3-1.6-.3-5.5-1.3-8.5-2.1-8.5-2.4-21.3-2.9-30.5-1.2C18 404.9-9.5 453 7.4 498c14.7 39.4 59.7 59.4 98.6 43.7 10.1-4.1 17.1-8.8 25.5-17.2 14.8-14.8 22.4-32.7 22.5-52.7 0-7.7-1.9-19.9-4-25.2l-1.1-3 56.7-56.7 56.6-56.6 6.2 2c5.1 1.8 8.6 2.1 21.6 2.1 13.3 0 16.4-.3 22-2.2l6.5-2.2 25.7 25.8 25.8 25.7-2.2 6.5c-3.2 10.1-3.7 29.1-.9 40 3.6 14.5 9.3 24.7 19.7 35.3 15.4 15.7 35.9 23.7 57.9 22.4 5.5-.3 12.7-1.3 16-2.2 14.1-3.8 29.3-13.8 39.2-25.7 5.5-6.6 12.6-21.1 14.8-30.1 2.9-12 1.8-31.9-2.3-42.8-1-2.5.9-4.5 40.3-43.9l41.4-41.4 5.3 1.7c29.4 9.2 60.6-.2 81.4-24.5 5.6-6.6 11.7-18.4 14.3-27.6 11.8-42.7-15.3-86.5-58.7-94.8-8.1-1.5-21.2-1.7-28.1-.3z"/></svg>