<?xml version="1.0" encoding="utf-8"?>
<!-- Generator: Adobe Illustrator 16.0.0, SVG Export Plug-In . SVG Version: 6.00 Build 0)  -->
<!DOCTYPE svg PUBLIC "-//W3C//DTD SVG 1.1//EN" "http://www.w3.org/Graphics/SVG/1.1/DTD/svg11.dtd">
<svg version="1.1" id="Layer_1" xmlns="http://www.w3.org/2000/svg" xmlns:xlink="http://www.w3.org/1999/xlink" x="0px" y="0px"
	 width="79.700195px" height="50px" viewBox="0 0 79.700195 50" style="enable-background:new 0 0 79.700195 50;"
	 xml:space="preserve">
<g id="NIH">
	<path style="fill:#66676B;" d="M69.331543,24.979492L55.45752,49.986328H4.604004C2.064453,49.986328,0,47.929688,0,45.383301
		V4.602051C0,2.063477,2.057617,0,4.604004,0h50.908203L69.331543,24.979492L69.331543,24.979492z M25.867188,36.227539V13.882324
		h-3.72168v16.456055h-0.068359L11.882813,13.882324l0,0h-4.12793l0,0v22.345215l0,0h3.728027V19.79248h0.095703L21.75293,36.227539
		H25.867188L25.867188,36.227539L25.867188,36.227539z M33.633301,36.227539V13.882324h-3.90625v22.345215H33.633301
		L33.633301,36.227539L33.633301,36.227539z M55.54541,13.882324h-3.908203l0,0v8.88916H41.463379v-8.88916h-3.907227v22.345215
		h3.907227V26.15625h10.173828v10.077148l0,0h3.908203V13.882324L55.54541,13.882324z"/>
	<path style="fill:#395D96;" d="M58.931641,50l13.847656-25.020508L58.978516,0h3.461426
		c1.891602,0,4.195313,1.35498,5.111328,3.012695l12.141602,21.959961l-12.19043,22.007813
		c-0.916016,1.649902-3.219727,3.005859-5.111328,3.005859L58.931641,50L58.931641,50z"/>
</g>
</svg>
