<?xml version="1.0" encoding="utf-8"?>
<!-- Generator: Adobe Illustrator 16.0.0, SVG Export Plug-In . SVG Version: 6.00 Build 0)  -->
<!DOCTYPE svg PUBLIC "-//W3C//DTD SVG 1.1//EN" "http://www.w3.org/Graphics/SVG/1.1/DTD/svg11.dtd">
<svg version="1.1" id="Layer_1" xmlns="http://www.w3.org/2000/svg" xmlns:xlink="http://www.w3.org/1999/xlink" x="0px" y="0px"
	 width="74.360352px" height="50px" viewBox="0 0 74.360352 50" style="enable-background:new 0 0 74.360352 50;"
	 xml:space="preserve">
<g id="UW" transform="matrix(1.25 0 0 -1.25 -189.64 622.68)">
	<path style="fill:#4D2F82;" d="M195.365128,498.143616v-7.215607h5.070313l-5.660934-21.068359
		c0,0-6.928131,27.890991-7.024994,28.284363h-7.328125c-0.104691-0.383606-7.59845-28.284363-7.59845-28.284363l-5.21405,21.068359
		h5.279678v7.215607h-21.176559v-7.215607h4.692184c0,0,8.096878-32.390259,8.196884-32.783997h11.365616
		c0.100006,0.384369,5.429688,20.630859,5.429688,20.630859s5.059372-20.240234,5.15625-20.630859h11.367188
		c0.101563,0.387512,8.621872,32.783997,8.621872,32.783997h4.653137v7.215607h-15.828125"/>
</g>
<g>
</g>
<g>
</g>
<g>
</g>
<g>
</g>
<g>
</g>
<g>
</g>
</svg>
