<?xml version="1.0" encoding="UTF-8" standalone="no"?>
<!DOCTYPE svg PUBLIC "-//W3C//DTD SVG 1.1//EN"
 "http://www.w3.org/Graphics/SVG/1.1/DTD/svg11.dtd">
<!-- Generated by graphviz version 2.40.1 (20161225.0304)
 -->
<!-- Title: dependencies Pages: 1 -->
<svg width="703pt" height="211pt"
 viewBox="0.00 0.00 703.00 211.00" xmlns="http://www.w3.org/2000/svg" xmlns:xlink="http://www.w3.org/1999/xlink">
<g id="graph0" class="graph" transform="scale(1 1) rotate(0) translate(4 207)">
<title>dependencies</title>
<polygon fill="#ffffff" stroke="transparent" points="-4,4 -4,-207 699,-207 699,4 -4,4"/>
<text text-anchor="start" x="326.5091" y="-42.4" font-family="sans-serif" font-weight="bold" font-size="14.00" fill="#000000">Legend</text>
<polygon fill="#ffffb3" stroke="transparent" points="113.5,-10 113.5,-30 133.5,-30 133.5,-10 113.5,-10"/>
<text text-anchor="start" x="137.129" y="-15.4" font-family="sans-serif" font-size="14.00" fill="#000000"> &#160;Declarations</text>
<polygon fill="#8dd3c7" stroke="transparent" points="226.5,-10 226.5,-30 246.5,-30 246.5,-10 226.5,-10"/>
<text text-anchor="start" x="250.2251" y="-15.4" font-family="sans-serif" font-size="14.00" fill="#000000"> &#160;Module</text>
<polygon fill="#80b1d3" stroke="transparent" points="312.5,-10 312.5,-30 332.5,-30 332.5,-10 312.5,-10"/>
<text text-anchor="start" x="336.2812" y="-15.4" font-family="sans-serif" font-size="14.00" fill="#000000"> &#160;Bootstrap</text>
<polygon fill="#fdb462" stroke="transparent" points="409.5,-10 409.5,-30 429.5,-30 429.5,-10 409.5,-10"/>
<text text-anchor="start" x="433.1732" y="-15.4" font-family="sans-serif" font-size="14.00" fill="#000000"> &#160;Providers</text>
<polygon fill="#fb8072" stroke="transparent" points="505.5,-10 505.5,-30 525.5,-30 525.5,-10 505.5,-10"/>
<text text-anchor="start" x="529.2258" y="-15.4" font-family="sans-serif" font-size="14.00" fill="#000000"> &#160;Exports</text>
<g id="clust1" class="cluster">
<title>cluster_AboutModule</title>
<polygon fill="none" stroke="#000000" stroke-dasharray="1,5" points="8,-70 8,-195 687,-195 687,-70 8,-70"/>
</g>
<g id="clust2" class="cluster">
<title>cluster_AboutModule_declarations</title>
<polygon fill="none" stroke="#000000" points="421,-78 421,-130 679,-130 679,-78 421,-78"/>
</g>
<g id="clust5" class="cluster">
<title>cluster_AboutModule_imports</title>
<polygon fill="none" stroke="#000000" points="16,-78 16,-130 413,-130 413,-78 16,-78"/>
</g>
<!-- AboutComponent -->
<g id="node1" class="node">
<title>AboutComponent</title>
<polygon fill="#ffffb3" stroke="#000000" points="671.3301,-122 554.6699,-122 554.6699,-86 671.3301,-86 671.3301,-122"/>
<text text-anchor="middle" x="613" y="-99.8" font-family="Times,serif" font-size="14.00" fill="#000000">AboutComponent</text>
</g>
<!-- AboutModule -->
<g id="node3" class="node">
<title>AboutModule</title>
<polygon fill="#8dd3c7" stroke="#000000" points="382.0481,-187 379.0481,-191 358.0481,-191 355.0481,-187 287.9519,-187 287.9519,-151 382.0481,-151 382.0481,-187"/>
<text text-anchor="middle" x="335" y="-164.8" font-family="Times,serif" font-size="14.00" fill="#000000">AboutModule</text>
</g>
<!-- AboutComponent&#45;&gt;AboutModule -->
<g id="edge1" class="edge">
<title>AboutComponent&#45;&gt;AboutModule</title>
<path fill="none" stroke="#000000" d="M613,-122.2843C613,-143.3211 613,-175 613,-175 613,-175 392.1589,-175 392.1589,-175"/>
<polygon fill="#000000" stroke="#000000" points="392.1589,-171.5001 382.1589,-175 392.1589,-178.5001 392.1589,-171.5001"/>
</g>
<!-- HelpComponent -->
<g id="node2" class="node">
<title>HelpComponent</title>
<polygon fill="#ffffb3" stroke="#000000" points="537.0452,-122 428.9548,-122 428.9548,-86 537.0452,-86 537.0452,-122"/>
<text text-anchor="middle" x="483" y="-99.8" font-family="Times,serif" font-size="14.00" fill="#000000">HelpComponent</text>
</g>
<!-- HelpComponent&#45;&gt;AboutModule -->
<g id="edge2" class="edge">
<title>HelpComponent&#45;&gt;AboutModule</title>
<path fill="none" stroke="#000000" d="M483,-122.0225C483,-139.3734 483,-163 483,-163 483,-163 392.235,-163 392.235,-163"/>
<polygon fill="#000000" stroke="#000000" points="392.2351,-159.5001 382.235,-163 392.235,-166.5001 392.2351,-159.5001"/>
</g>
<!-- AboutRoutingModule -->
<g id="node4" class="node">
<title>AboutRoutingModule</title>
<polygon fill="#8dd3c7" stroke="#000000" points="404.6652,-122 401.6652,-126 380.6652,-126 377.6652,-122 265.3348,-122 265.3348,-86 404.6652,-86 404.6652,-122"/>
<text text-anchor="middle" x="335" y="-99.8" font-family="Times,serif" font-size="14.00" fill="#000000">AboutRoutingModule</text>
</g>
<!-- AboutRoutingModule&#45;&gt;AboutModule -->
<g id="edge3" class="edge">
<title>AboutRoutingModule&#45;&gt;AboutModule</title>
<path fill="none" stroke="#000000" d="M335,-122.1061C335,-122.1061 335,-140.991 335,-140.991"/>
<polygon fill="#000000" stroke="#000000" points="331.5001,-140.9909 335,-150.991 338.5001,-140.991 331.5001,-140.9909"/>
</g>
<!-- MaterialModule -->
<g id="node5" class="node">
<title>MaterialModule</title>
<polygon fill="#8dd3c7" stroke="#000000" points="247.4706,-122 244.4706,-126 223.4706,-126 220.4706,-122 140.5294,-122 140.5294,-86 247.4706,-86 247.4706,-122"/>
<text text-anchor="middle" x="194" y="-99.8" font-family="Times,serif" font-size="14.00" fill="#000000">MaterialModule</text>
</g>
<!-- MaterialModule&#45;&gt;AboutModule -->
<g id="edge4" class="edge">
<title>MaterialModule&#45;&gt;AboutModule</title>
<path fill="none" stroke="#000000" d="M194,-122.0225C194,-139.3734 194,-163 194,-163 194,-163 277.6568,-163 277.6568,-163"/>
<polygon fill="#000000" stroke="#000000" points="277.6568,-166.5001 287.6568,-163 277.6568,-159.5001 277.6568,-166.5001"/>
</g>
<!-- SharedModule -->
<g id="node6" class="node">
<title>SharedModule</title>
<polygon fill="#8dd3c7" stroke="#000000" points="122.4231,-122 119.4231,-126 98.4231,-126 95.4231,-122 23.5769,-122 23.5769,-86 122.4231,-86 122.4231,-122"/>
<text text-anchor="middle" x="73" y="-99.8" font-family="Times,serif" font-size="14.00" fill="#000000">SharedModule</text>
</g>
<!-- SharedModule&#45;&gt;AboutModule -->
<g id="edge5" class="edge">
<title>SharedModule&#45;&gt;AboutModule</title>
<path fill="none" stroke="#000000" d="M73,-122.2843C73,-143.3211 73,-175 73,-175 73,-175 277.8571,-175 277.8571,-175"/>
<polygon fill="#000000" stroke="#000000" points="277.8571,-178.5001 287.8571,-175 277.857,-171.5001 277.8571,-178.5001"/>
</g>
</g>
</svg>
