<?xml version="1.0" encoding="utf-8"?>
<!-- Generator: Adobe Illustrator 16.0.0, SVG Export Plug-In . SVG Version: 6.00 Build 0)  -->
<!DOCTYPE svg PUBLIC "-//W3C//DTD SVG 1.1//EN" "http://www.w3.org/Graphics/SVG/1.1/DTD/svg11.dtd">
<svg version="1.1" id="Layer_1" xmlns="http://www.w3.org/2000/svg" xmlns:xlink="http://www.w3.org/1999/xlink" x="0px" y="0px"
	 width="151.200195px" height="100px" viewBox="0 0 151.200195 100" style="enable-background:new 0 0 151.200195 100;"
	 xml:space="preserve">
<g>
	<path style="fill:#ffcb7f;" d="M35.857422,64.233398c3.25293-5.038086,6.071289-10.365234,8.70459-15.345703
		c6.64502-12.56543,12.383301-23.41748,20.441895-23.41748c0.124023,0,0.439453,0.032227,0.976563,0.28418
		c1.630859-2.827637,3.256836-5.571289,4.935547-8.166992c-1.923828-1.06543-3.878906-1.637695-5.912109-1.637695
		c-13.792969,0-21.111328,13.838379-28.85791,28.48877c-5.90332,11.162109-11.953125,22.576172-20.887695,28.52832
		C23.416016,71.165039,30.151855,68.111328,35.857422,64.233398z"/>
	<path style="fill:#ffcb7f;" d="M92.417969,44.108398c-4.019531-6.231445-7.615234-11.800781-11.036133-16.30957
		c-1.568359,2.551758-3.206055,5.384766-4.981445,8.490234c-0.09082,0.158203-0.180664,0.317383-0.272461,0.475586
		c2.616211,3.710938,5.401367,8.024414,8.292969,12.503906c14.46875,22.421875,32.476563,50.325195,57.90625,50.681641
		l0.132813-9.519531C122.130859,90.147461,105.657227,64.619141,92.417969,44.108398z"/>
</g>
<path style="fill:none;stroke:#FF9800;stroke-width:9.520045;stroke-miterlimit:10;" d="M-0.129395,81.889648
	C72.620117,80.293945,65.480469,4.75,100.703125,4.75c23.344727,0,24.115234,52.135742,49.426758,57.989258"/>
<g>
	<path style="fill:#ffcb7f;" d="M92.245117,39.454102c2.59668-4.036133,5.019531-6.004883,8.93457-6.004883
		c4.999023,0,8.704102,9.530273,12.287109,18.74707c4.657227,11.983398,9.936523,25.566406,21.905273,26.972656l1.112305-9.454102
		c-6.28125-0.739258-10.279297-11.023438-14.144531-20.967773c-4.743164-12.202148-9.647461-24.817383-21.160156-24.817383
		c-6.616211,0-11.06543,2.932617-14.530273,7.107422C88.447266,33.632813,90.302734,36.456055,92.245117,39.454102z"/>
	<path style="fill:#ffcb7f;" d="M82.420898,50.560547c-1.3125-2.036133-2.601563-4.03125-3.860352-5.949219
		c-5.396484,10.269531-12.276367,21.699219-29.89209,27.901367c-7.646973,6.201172-17.041016,11.272461-28.941895,14.100586
		c41.561523-0.867188,56.290039-18.22168,64.71875-32.920898C83.762695,52.639648,83.087891,51.592773,82.420898,50.560547z"/>
</g>
</svg>
