<?xml version="1.0" encoding="utf-8"?>
<!-- Generator: Adobe Illustrator 16.0.0, SVG Export Plug-In . SVG Version: 6.00 Build 0)  -->
<!DOCTYPE svg PUBLIC "-//W3C//DTD SVG 1.1//EN" "http://www.w3.org/Graphics/SVG/1.1/DTD/svg11.dtd">
<svg version="1.1" id="Layer_1" xmlns="http://www.w3.org/2000/svg" xmlns:xlink="http://www.w3.org/1999/xlink" x="0px" y="0px"
	 width="151.200195px" height="100px" viewBox="0 0 151.200195 100" style="enable-background:new 0 0 151.200195 100;"
	 xml:space="preserve">
<path style="fill:#F44336;" d="M76.645508,100h21.652344c6.277344,0,5.733398-4.539063,4.393555-6.589844
	c-1.569336-2.40625-2.719727-4.077148-4.393555-6.59082c-1.641602-2.459961-3.137695-2.193359-6.588867-2.193359H76.019531
	h-0.835938H59.494141c-3.455078,0-4.950195-0.266602-6.589844,2.193359c-1.676758,2.513672-2.828613,4.18457-4.395508,6.59082
	C47.167969,95.460938,46.626953,100,52.904297,100h21.650391H76.645508z"/>
<path style="fill:#F44336;" d="M121.875,0H29.324219c-6.591797,0-11.98584,5.394531-11.98584,11.986328v55.944336
	c0,6.591797,5.394043,11.985352,11.98584,11.985352H121.875c6.59375,0,11.986328-5.393555,11.986328-11.985352V11.986328
	C133.861328,5.394531,128.46875,0,121.875,0z M125.478516,55.517578c0,6.591797-5.394531,11.986328-11.986328,11.986328h-75.78418
	c-6.592773,0-11.986328-5.394531-11.986328-11.986328v-37.78125C25.72168,11.144531,31.115234,5.75,37.708008,5.75h75.78418
	c6.591797,0,11.986328,5.394531,11.986328,11.986328V55.517578z"/>
<circle style="fill:#f9a19a;stroke:#F44336;stroke-width:1.198655;stroke-miterlimit:10;" cx="53.110596" cy="32.427734" r="6.695068"/>
<circle style="fill:#f9a19a;stroke:#F44336;stroke-width:1.198655;stroke-miterlimit:10;" cx="79.888184" cy="47.490234" r="6.694824"/>
<circle style="fill:#f9a19a;stroke:#F44336;stroke-width:1.198655;stroke-miterlimit:10;" cx="105.830078" cy="21.548828" r="6.694336"/>
<line style="fill:none;stroke:#F44336;stroke-width:1.198655;stroke-miterlimit:10;" x1="25.495117" y1="49.164063" x2="46.938477" y2="35.202148"/>
<line style="fill:none;stroke:#F44336;stroke-width:1.198655;stroke-miterlimit:10;" x1="58.864258" y1="35.984375" x2="73.926758" y2="44.302734"/>
<line style="fill:none;stroke:#F44336;stroke-width:1.198655;stroke-miterlimit:10;" x1="85.06543" y1="43.201172" x2="101.226563" y2="26.730469"/>
</svg>
