<?xml version="1.0" encoding="utf-8"?>
<!-- Generator: Adobe Illustrator 16.0.0, SVG Export Plug-In . SVG Version: 6.00 Build 0)  -->
<!DOCTYPE svg PUBLIC "-//W3C//DTD SVG 1.1//EN" "http://www.w3.org/Graphics/SVG/1.1/DTD/svg11.dtd">
<svg version="1.1" id="Layer_1" xmlns="http://www.w3.org/2000/svg" xmlns:xlink="http://www.w3.org/1999/xlink" x="0px" y="0px"
	 width="52.140137px" height="50px" viewBox="0 0 52.140137 50" style="enable-background:new 0 0 52.140137 50;"
	 xml:space="preserve">
<g>
	<path style="fill-rule:evenodd;clip-rule:evenodd;fill:none;" d="M0,49.999512C0,33.36084,0,16.69043,0,0
		c0.226563,0,0.452637,0,0.679199,0c16.90332,0,33.806152,0,50.709473,0c0.742188,0,0.743164,0.000977,0.743164,0.744141
		c0,16.408203,0,32.814941,0,49.255371C34.754883,49.999512,17.376953,49.999512,0,49.999512z M7.805664,33.609863
		c-0.144531,0.105469-0.45752,0.116211-0.371094,0.351563c0.047363,0.128906,0.282227-0.020508,0.409668-0.121094
		c2.25-0.886719,4.434082-1.911621,6.575195-3.036133c0.765625-0.402344,1.38916-0.909668,1.876953-1.631836
		c0.816406-1.209473,1.525391-2.470703,2.156738-3.785645c0.628906-1.310059,1.199707-2.654297,2.007813-3.870605
		c1.016113-1.529297,2.43457-2.208496,4.265137-1.882813c0.310547,0.055176,0.480957,0.046387,0.635742-0.237305
		c0.387695-0.708496,0.79541-1.405273,1.196777-2.108887c-0.129395-0.089355-0.194824-0.151367-0.271973-0.184082
		c-0.160156-0.069336-0.32373-0.133301-0.490723-0.181152c-2.468262-0.70166-4.659668-0.186523-6.549805,1.539551
		c-1.320801,1.20752-2.067871,2.795898-2.791992,4.38916c-1.112305,2.448242-2.362305,4.796387-4.275879,6.746582
		C10.789063,31.012695,9.355469,32.37207,7.805664,33.609863z M48.234375,17.685547
		c-0.080078-0.301758-0.107422-0.44043-0.152344-0.572754C44.134766,5.584961,32.306152-1.455566,20.079102,1.015625
		C9.77832,3.096191,1.492188,11.731934,0.578125,23.197266c-0.319336,4.009277,0.373535,7.89209,1.999512,11.590332
		c0.348145,0.791992,0.346191,0.793945,1.123047,0.532227c0.414063-0.139648,0.820313-0.306641,1.240723-0.417969
		c0.490234-0.128906,0.655762-0.286133,0.390625-0.833984c-0.907227-1.869629-1.48877-3.851563-1.774902-5.911621
		C2.777832,22.550781,3.858887,17.315918,7.15332,12.713867C12.078613,5.834961,18.843262,2.691406,27.317871,3.47998
		c4.518555,0.42041,8.522949,2.175781,11.859863,5.23291c2.358398,2.160645,4.520508,4.536621,6.769531,6.814941
		C46.641602,16.230957,47.291992,16.979492,48.234375,17.685547z M51.757813,24.44873
		c0-0.771484-0.006836-1.410156,0.00293-2.048828c0.006836-0.525391-0.208984-0.84668-0.711914-1.06543
		c-2.555664-1.115723-4.621094-2.871582-6.486328-4.920898C42.996094,14.691895,41.385742,13,39.412109,11.714355
		c-2.837891-1.848145-5.611328-1.55127-7.964355,0.871582c-0.630371,0.649902-1.173828,1.369629-1.645508,2.144043
		c-1.557129,2.560059-2.84375,5.273438-4.473145,7.79541c-2.760254,4.271973-6.315918,7.660156-10.825195,10.040039
		c-3.201172,1.687988-6.549805,3.018066-9.969727,4.184082c-0.899414,0.306641-1.837891,0.506836-2.743652,0.9375
		c0.356445,0.589844,0.70459,1.126953,1.012207,1.686523c0.257324,0.467773,0.550781,0.533203,1.068848,0.363281
		c3.374023-1.112305,6.70752-2.319336,9.914063-3.861328c2.980469-1.432617,5.776367-3.136719,8.233887-5.371582
		c3.430664-3.121582,5.935059-6.919434,8.116211-10.967285c0.921875-1.711914,1.709961-3.51416,3.059082-4.966309
		c0.560547-0.603516,1.16748-1.129883,2.009277-1.3125c1.083984-0.23584,2.003906,0.183594,2.869141,0.737305
		c1.283203,0.821777,2.369141,1.874512,3.40918,2.983887c1.592773,1.699219,3.150391,3.439941,5.06543,4.800293
		C48.118164,22.895996,49.785156,23.828613,51.757813,24.44873z M6.326172,40.697754
		c0.108398,0.147461,0.182617,0.273438,0.279785,0.375977C7.065918,41.561035,7.512207,42.063965,8,42.522949
		c5.904785,5.556641,12.918945,7.848633,20.889648,6.52832c8.504883-1.408203,14.589844-6.261719,18.301758-14.03125
		c1.371094-2.868652,2.049805-5.935059,2.139648-9.121094c0.008789-0.272949,0.114258-0.579102-0.244141-0.763184
		c-0.821289-0.422363-1.631836-0.867188-2.512695-1.338867c-0.052734,1.3125-0.005859,2.554688-0.166992,3.79248
		c-0.735352,5.65918-3.274414,10.353516-7.633789,14.004883c-3.908203,3.272461-8.459961,4.938477-13.58252,4.984375
		c-5.477539,0.048828-10.270508-1.748047-14.445313-5.279297c-0.625977-0.52832-1.030762-1.535156-1.89502-1.516602
		c-0.799805,0.018555-1.588867,0.516602-2.382324,0.805664C6.442383,40.598145,6.421875,40.622559,6.326172,40.697754z
		 M44.744141,27.432617c0.357422-0.906738,0.168945-1.815918,0.209961-2.70166
		c0.008789-0.183105-0.171875-0.288086-0.316406-0.391602c-1.893555-1.371094-3.874023-2.59375-6.104492-3.335449
		c-1.666016-0.553711-3.329102-0.624512-4.995605,0.144043c-1.447754,0.667969-2.572754,1.702637-3.544434,2.90625
		c-1.99707,2.473145-4.115234,4.831543-6.393555,7.044434c-1.592285,1.547363-3.366211,2.861816-5.263672,4.01416
		c-2.219238,1.347656-4.556641,2.456055-6.943848,3.464844c-0.196777,0.083984-0.541504,0.121094-0.48291,0.410156
		c0.067383,0.331055,0.379883,0.524414,0.714844,0.535156c0.220215,0.005859,0.447266-0.106445,0.666016-0.181641
		c3.954102-1.359375,7.699707-3.145508,11.15625-5.507813c1.94873-1.330566,3.758789-2.819824,5.36084-4.575195
		c1.335938-1.463379,2.483398-3.083984,3.874023-4.496094c1.782715-1.810547,3.543457-2.14209,5.869629-1.135742
		c1.503906,0.650391,2.878906,1.516113,4.232422,2.42627C43.430664,26.487793,43.994141,27.04541,44.744141,27.432617z
		 M13.286621,19.425293c0-1.194336,0.009766-2.38916-0.002441-3.584473c-0.010742-1.023438-0.481445-1.487305-1.48584-1.491211
		c-0.990723-0.003906-1.98584,0.053223-2.97168-0.019043c-0.699219-0.050781-1.040527,0.244141-1.356445,0.811035
		c-1.475586,2.651367-2.287598,5.495117-2.558594,8.504395c-0.0625,0.689453,0.053711,0.82959,0.753906,0.83252
		c2.040527,0.009766,4.080566,0.015137,6.120605-0.000977c1.045898-0.008301,1.541016-0.59375,1.510742-1.467285
		C13.255859,21.816406,13.286621,20.620605,13.286621,19.425293z M30.506836,36.73291c-1.250488,0-2.501465-0.001953-3.751953,0
		c-0.925781,0.00293-1.184082,0.181641-1.199219,1.073242c-0.036133,2.180664-0.008789,4.362305-0.015137,6.543945
		c-0.000977,0.451172,0.219238,0.609375,0.646973,0.618164c0.458984,0.009766,0.930664-0.022461,1.36377-0.089844
		c2.616211-0.411133,5.109375-1.220703,7.422363-2.540039c0.362305-0.206055,0.554688-0.456055,0.546875-0.897461
		c-0.022461-1.220703,0.007813-2.443359-0.013672-3.665039c-0.013672-0.733398-0.34375-1.036133-1.073242-1.040039
		C33.125488,36.728027,31.815918,36.73291,30.506836,36.73291z M24.317383,8.986816c0-1.105957,0.008789-2.212891-0.003418-3.318848
		c-0.008301-0.697266-0.12793-0.775391-0.836426-0.77832c-0.331543-0.001953-0.615234,0.159668-0.935059,0.18457
		c-2.794434,0.216797-5.317871,1.25-7.743164,2.579102c-0.245605,0.134766-0.440918,0.270996-0.44043,0.583008
		c0.00293,1.396484-0.020508,2.794922,0.013184,4.191406c0.012695,0.536621,0.4375,0.746582,1.015137,0.741211
		c2.590332-0.025391,5.181152-0.040527,7.771484-0.012207c0.837402,0.009766,1.147949-0.187012,1.155762-1.025391
		C24.324707,11.083496,24.317383,10.035156,24.317383,8.986816z M24.319336,41.039551
		c0-1.046875,0.008301-2.094727-0.00293-3.141602c-0.009277-0.880859-0.274414-1.150391-1.13623-1.162109
		c-0.756348-0.011719-1.512695,0-2.269043-0.00293c-0.265137-0.001953-0.494629,0.067383-0.743652,0.181641
		c-1.472168,0.672852-2.899414,1.44043-4.413086,2.026367c-1.42041,0.549805-1.371094,0.583984-1.410156,2.109375
		c-0.019531,0.760742,0.294434,1.178711,0.951172,1.469727c1.31543,0.580078,2.576172,1.25,3.981934,1.661133
		c1.392578,0.407227,2.791992,0.621094,4.213379,0.767578c0.712891,0.072266,0.816406-0.056641,0.825195-0.766602
		C24.328125,43.135254,24.319336,42.087402,24.319336,41.039551z M25.541504,8.898926
		c0,1.107422-0.015625,2.215332,0.005859,3.322754c0.014648,0.741211,0.35498,1.008301,1.081055,0.929199
		c0.144531-0.016113,0.293457-0.025879,0.436523-0.009277c1.165527,0.138184,2.1875-0.02002,2.810547-1.195313
		c0.092773-0.175781,0.304199-0.336426,0.460938-0.501953C31.588867,10.121094,33.113281,9.282715,34.916016,9
		c0.282227-0.044434,0.540039-0.039551,0.577148-0.36377c0.03418-0.306641,0.133789-0.727051-0.242188-0.849121
		c-0.456055-0.148438-0.762695-0.503418-1.203125-0.681641c-0.911621-0.368652-1.805176-0.777344-2.731445-1.125977
		c-1.585449-0.596191-3.230469-0.855469-4.887207-1.065918c-0.672852-0.084961-0.880859,0.15918-0.88623,0.836914
		C25.534668,6.799805,25.541016,7.848633,25.541504,8.898926z M35.510742,33.286621c0-0.262695-0.017578-0.525879,0.004883-0.785645
		c0.051758-0.612793-0.098633-1.060547-0.625-1.497559c-1.00293-0.82959-1.898438-1.790039-2.832031-2.702148
		c-0.661133-0.64502-0.738281-0.645996-1.349609,0.074707c-0.055176,0.06543-0.083496,0.154297-0.13916,0.220703
		c-1.291016,1.519043-2.67627,2.944824-4.254883,4.17041c-0.810059,0.628906-0.97168,1.194336-0.65332,2.170898
		c0.128906,0.395508,0.32666,0.572266,0.743164,0.572266c2.650391-0.006836,5.300781,0.012695,7.950684-0.009766
		c0.884766-0.007813,1.134766-0.304688,1.155273-1.166016C35.517578,33.984863,35.510742,33.635254,35.510742,33.286621z
		 M8.844727,25.539063c-1.078613,0-2.157715-0.006348-3.236328,0.002441c-0.700684,0.004883-0.829102,0.100098-0.680664,0.738281
		c0.197754,0.854004,0.101074,1.733398,0.32666,2.581543c0.364746,1.367188,0.664063,2.746094,1.338867,4.01709
		c0.247559,0.466797,0.336426,0.351563,0.669922,0.104492c2.10791-1.56543,3.925293-3.427246,5.638672-5.401367
		c0.352051-0.405273,0.506836-0.842285,0.290039-1.36377c-0.223145-0.538086-0.65918-0.686523-1.198242-0.681152
		C10.943848,25.545898,9.894043,25.539063,8.844727,25.539063z M19.334961,14.348633
		c-1.165039,0-2.330078-0.00293-3.495117,0.000977c-1.071289,0.004395-1.470703,0.382813-1.477051,1.464355
		c-0.013672,2.416992-0.008789,4.834961,0.000977,7.251953c0.001465,0.394043-0.027832,0.953125,0.422363,1.015625
		c0.34375,0.046875,0.475098-0.484863,0.636719-0.823242c0.674316-1.416016,1.321777-2.846191,2.223145-4.141602
		c0.756836-1.087891,1.708984-1.931152,2.921875-2.475586c1.013184-0.455078,2.056641-0.788086,3.182617-0.730957
		c0.489746,0.024902,0.600586-0.210938,0.567383-0.633789c-0.049316-0.624023-0.388184-0.90918-1.226074-0.922363
		C21.839844,14.334961,20.586914,14.349609,19.334961,14.348633z M33.710938,24.893066
		c-0.087891,0.07666-0.196289,0.168945-0.300781,0.263184c-0.478027,0.429688-0.861328,0.944824-1.287598,1.421387
		c-0.253906,0.283691-0.23291,0.467773,0.030762,0.721191c0.672363,0.643555,1.302246,1.332031,1.987305,1.961914
		c2.124023,1.952637,4.364258,3.750488,6.978516,5.023926c1.277344,0.623047,1.280273,0.617188,1.873047-0.618164
		c0.138672-0.288086,0.251953-0.589844,0.411133-0.865234c0.255859-0.444824,0.108398-0.663574-0.341797-0.847656
		c-1.435547-0.585449-2.71875-1.435547-3.964844-2.34668c-1.765625-1.291992-3.379883-2.751953-4.883789-4.336426
		C34.079102,25.128906,33.983398,24.926758,33.710938,24.893066z M38.991211,25.544922
		c-0.625977,0-1.063477-0.018066-1.498047,0.005371c-0.426758,0.022949-0.644531,0.354004-0.832031,0.678711
		c-0.217773,0.37793,0.19043,0.48291,0.342773,0.696777c0.276367,0.387207,0.708984,0.595215,1.063477,0.891602
		c1.579102,1.321777,3.223633,2.546387,5.117188,3.40625c0.480469,0.218262,0.766602,0.173828,0.916016-0.336426
		c0.176758-0.606934,0.34375-1.217773,0.489258-1.833496c0.073242-0.310547-0.070313-0.523926-0.337891-0.730469
		c-0.726563-0.55957-1.456055-1.130371-2.203125-1.650879C41.098633,26.012207,40.150391,25.138184,38.991211,25.544922z
		 M36.564453,14.99707c0,1.191895-0.010742,2.234863,0.003906,3.27832c0.008789,0.514648-0.167969,1.085449,0.086914,1.53125
		c0.268555,0.467773,0.890625,0.272949,1.34668,0.40625c2.250977,0.659668,4.295898,1.720703,6.206055,3.062988
		c0.202148,0.14209,0.392578,0.345215,0.68457,0.252441c0.179688-0.582031,0.009766-1.024902-0.454102-1.38916
		c-2.038086-1.595215-3.59082-3.683594-5.488281-5.421875C38.279297,16.101563,37.600586,15.460938,36.564453,14.99707z
		 M35.510742,14.968262c-0.574219,0.099609-0.90918,0.404785-1.24707,0.79541
		c-1.051758,1.217285-1.700684,2.674316-2.494629,4.044434c-0.153809,0.264648-0.405762,0.595703-0.087402,0.951172
		c0.32373,0.362793,0.64209,0.215332,1.019043,0.077637c0.800293-0.291504,1.524902-0.802246,2.428223-0.814453
		c0.290039-0.003418,0.389648-0.272949,0.387695-0.578613C35.504883,17.966309,35.510742,16.487305,35.510742,14.968262z
		 M8.818848,13.043457c0.175781,0.271484,0.420898,0.234375,0.650879,0.234375
		c0.90332,0.001953,1.806641,0.009766,2.709961-0.001465c0.743652-0.010254,1.091309-0.366211,1.103027-1.136719
		c0.013672-0.932617,0.007813-1.865234-0.000977-2.797363c-0.001953-0.186523,0.09082-0.419434-0.207031-0.553223
		C11.503418,10.04541,10.041992,11.430664,8.818848,13.043457z M40.967773,36.98291
		c-0.041016-0.082031-0.081055-0.163086-0.120117-0.244141c-1.100586,0-2.202148-0.03125-3.299805,0.011719
		c-0.604492,0.023438-0.96875,0.43457-0.978516,1.013672c-0.019531,1.073242-0.004883,2.146484-0.004883,3.375
		C38.455078,40.059082,39.691406,38.500488,40.967773,36.98291z M21.061523,24.482422
		c0.711914,0.213867,1.175781-0.26416,1.58252-0.879395c0.270508-0.408691,0.545898-0.818848,0.864258-1.189941
		c0.288086-0.334961,0.478516-0.727539,0.688965-1.100098c0.373047-0.658203,0.109863-1.047852-0.631836-1.00293
		c-0.623535,0.038086-1.160645,0.279297-1.636719,0.697754c-0.758789,0.666504-1.227539,1.510254-1.638672,2.414063
		C19.802246,24.494629,19.774414,24.481445,21.061523,24.482422z M41.500977,35.499512
		c-0.506836-0.564453-1.194336-0.726563-1.765625-1.087891c-0.883789-0.556641-1.807617-1.049805-2.616211-1.720703
		c-0.1875-0.155762-0.494141-0.267578-0.524414,0.080566c-0.056641,0.661621-0.126953,1.341309,0.042969,1.996582
		c0.112305,0.431641,0.457031,0.710938,0.894531,0.72168C38.854492,35.51709,40.178711,35.499512,41.500977,35.499512z
		 M27.125977,14.352051c0,0.003418,0,0.007324,0,0.01123c-0.231445,0-0.46875-0.036621-0.690918,0.006836
		c-0.639648,0.124023-0.988281,0.648438-0.890137,1.259277c0.089355,0.555176,0.60498,0.553711,0.963379,0.744629
		c0.200684,0.107422,0.450195,0.140137,0.601074-0.128418c0.26709-0.475586,0.542969-0.945801,0.79541-1.428711
		c0.134766-0.257324,0.073242-0.451172-0.260742-0.463379C27.471191,14.347168,27.297852,14.352051,27.125977,14.352051z
		 M21.018066,25.539551c-0.560059,0-0.936523,0.000977-1.3125-0.000488c-0.207031-0.000977-0.441895-0.007813-0.537598,0.205566
		c-0.384277,0.850098-0.977051,1.600586-1.238281,2.521973C19.097656,27.592285,19.987793,26.633789,21.018066,25.539551z
		 M22.746582,35.421387c1.352051,0.182617,1.63623-0.03125,1.450195-1.047852
		C23.747559,34.731934,23.17627,34.880371,22.746582,35.421387z M13.227539,41.11377
		c0.027832-0.205078,0.064453-0.319336,0.054199-0.430664c-0.02002-0.235352,0.114746-0.5625-0.299805-0.604492
		c-0.249023-0.023438-0.525391,0.0625-0.620117,0.24707c-0.159668,0.3125,0.185547,0.424805,0.376953,0.569336
		C12.847656,40.978027,12.994141,41.012207,13.227539,41.11377z M30.611816,22.066895
		c0.366699-0.166016,0.598145-0.261719,0.593262-0.565918c-0.000488-0.036133-0.079102-0.104492-0.115723-0.100586
		C30.776367,21.435547,30.77002,21.710938,30.611816,22.066895z"/>
	<path style="fill-rule:evenodd;clip-rule:evenodd;fill:#366B68;" d="M48.234375,17.685547
		c-0.942383-0.706055-1.592773-1.45459-2.287109-2.157715c-2.249023-2.27832-4.411133-4.654297-6.769531-6.814941
		c-3.336914-3.057129-7.341309-4.8125-11.859863-5.23291c-8.474609-0.788574-15.239258,2.35498-20.164551,9.233887
		c-3.294434,4.602051-4.375488,9.836914-3.596191,15.442383c0.286133,2.060059,0.867676,4.041992,1.774902,5.911621
		c0.265137,0.547852,0.099609,0.705078-0.390625,0.833984c-0.42041,0.111328-0.82666,0.27832-1.240723,0.417969
		c-0.776855,0.261719-0.774902,0.259766-1.123047-0.532227c-1.625977-3.698242-2.318848-7.581055-1.999512-11.590332
		C1.492188,11.731934,9.77832,3.096191,20.079102,1.015625c12.227051-2.471191,24.055664,4.569336,28.00293,16.097168
		C48.126953,17.245117,48.154297,17.383789,48.234375,17.685547z"/>
	<path style="fill-rule:evenodd;clip-rule:evenodd;fill:#6F8EC8;" d="M51.757813,24.44873
		c-1.972656-0.620117-3.639648-1.552734-5.209961-2.669434c-1.915039-1.360352-3.472656-3.101074-5.06543-4.800293
		c-1.040039-1.109375-2.125977-2.162109-3.40918-2.983887c-0.865234-0.553711-1.785156-0.973145-2.869141-0.737305
		c-0.841797,0.182617-1.44873,0.708984-2.009277,1.3125c-1.349121,1.452148-2.137207,3.254395-3.059082,4.966309
		c-2.181152,4.047852-4.685547,7.845703-8.116211,10.967285c-2.45752,2.234863-5.253418,3.938965-8.233887,5.371582
		c-3.206543,1.541992-6.540039,2.749023-9.914063,3.861328c-0.518066,0.169922-0.811523,0.104492-1.068848-0.363281
		c-0.307617-0.55957-0.655762-1.09668-1.012207-1.686523c0.905762-0.430664,1.844238-0.630859,2.743652-0.9375
		c3.419922-1.166016,6.768555-2.496094,9.969727-4.184082c4.509277-2.379883,8.064941-5.768066,10.825195-10.040039
		c1.629395-2.521973,2.916016-5.235352,4.473145-7.79541c0.47168-0.774414,1.015137-1.494141,1.645508-2.144043
		c2.353027-2.422852,5.126465-2.719727,7.964355-0.871582C41.385742,13,42.996094,14.691895,44.5625,16.413574
		c1.865234,2.049316,3.930664,3.805176,6.486328,4.920898c0.50293,0.21875,0.71875,0.540039,0.711914,1.06543
		C51.750977,23.038574,51.757813,23.677246,51.757813,24.44873z"/>
	<path style="fill-rule:evenodd;clip-rule:evenodd;fill:#366B68;" d="M6.326172,40.697754
		c0.095703-0.075195,0.116211-0.099609,0.14209-0.109375c0.793457-0.289063,1.58252-0.787109,2.382324-0.805664
		c0.864258-0.018555,1.269043,0.988281,1.89502,1.516602c4.174805,3.53125,8.967773,5.328125,14.445313,5.279297
		c5.122559-0.045898,9.674316-1.711914,13.58252-4.984375c4.359375-3.651367,6.898438-8.345703,7.633789-14.004883
		c0.161133-1.237793,0.114258-2.47998,0.166992-3.79248c0.880859,0.47168,1.691406,0.916504,2.512695,1.338867
		c0.358398,0.184082,0.25293,0.490234,0.244141,0.763184c-0.089844,3.186035-0.768555,6.252441-2.139648,9.121094
		c-3.711914,7.769531-9.796875,12.623047-18.301758,14.03125C20.918945,50.371582,13.904785,48.07959,8,42.522949
		c-0.487793-0.458984-0.934082-0.961914-1.394043-1.449219C6.508789,40.971191,6.43457,40.845215,6.326172,40.697754z"/>
	<path style="fill-rule:evenodd;clip-rule:evenodd;fill:#F5C668;" d="M44.744141,27.432617
		c-0.75-0.387207-1.313477-0.944824-1.960938-1.379883c-1.353516-0.910156-2.728516-1.775879-4.232422-2.42627
		c-2.326172-1.006348-4.086914-0.674805-5.869629,1.135742c-1.390625,1.412109-2.538086,3.032715-3.874023,4.496094
		c-1.602051,1.755371-3.412109,3.244629-5.36084,4.575195c-3.456543,2.362305-7.202148,4.148438-11.15625,5.507813
		c-0.21875,0.075195-0.445801,0.1875-0.666016,0.181641c-0.334961-0.010742-0.647461-0.204102-0.714844-0.535156
		c-0.058594-0.289063,0.286133-0.326172,0.48291-0.410156c2.387207-1.008789,4.724609-2.117188,6.943848-3.464844
		c1.897461-1.152344,3.671387-2.466797,5.263672-4.01416c2.27832-2.212891,4.396484-4.571289,6.393555-7.044434
		c0.97168-1.203613,2.09668-2.238281,3.544434-2.90625c1.666504-0.768555,3.32959-0.697754,4.995605-0.144043
		c2.230469,0.741699,4.210938,1.964355,6.104492,3.335449c0.144531,0.103516,0.325195,0.208496,0.316406,0.391602
		C44.913086,25.616699,45.101563,26.525879,44.744141,27.432617z"/>
	<path style="fill-rule:evenodd;clip-rule:evenodd;fill:#B7C9C3;" d="M13.286621,19.425293
		c0,1.195313-0.030762,2.391113,0.010254,3.584961c0.030273,0.873535-0.464844,1.458984-1.510742,1.467285
		c-2.040039,0.016113-4.080078,0.010742-6.120605,0.000977c-0.700195-0.00293-0.816406-0.143066-0.753906-0.83252
		c0.270996-3.009277,1.083008-5.853027,2.558594-8.504395c0.315918-0.566895,0.657227-0.861816,1.356445-0.811035
		c0.98584,0.072266,1.980957,0.015137,2.97168,0.019043c1.004395,0.003906,1.475098,0.467773,1.48584,1.491211
		C13.296387,17.036133,13.286621,18.230957,13.286621,19.425293z"/>
	<path style="fill-rule:evenodd;clip-rule:evenodd;fill:#B7C9C3;" d="M30.506836,36.73291
		c1.309082,0,2.618652-0.004883,3.926758,0.00293c0.729492,0.003906,1.05957,0.306641,1.073242,1.040039
		c0.021484,1.22168-0.008789,2.444336,0.013672,3.665039c0.007813,0.441406-0.18457,0.691406-0.546875,0.897461
		c-2.312988,1.319336-4.806152,2.128906-7.422363,2.540039c-0.433105,0.067383-0.904785,0.099609-1.36377,0.089844
		c-0.427734-0.008789-0.647949-0.166992-0.646973-0.618164c0.006348-2.181641-0.020996-4.363281,0.015137-6.543945
		c0.015137-0.891602,0.273438-1.070313,1.199219-1.073242C28.005371,36.730957,29.256348,36.73291,30.506836,36.73291z"/>
	<path style="fill-rule:evenodd;clip-rule:evenodd;fill:#B7C9C3;" d="M24.317383,8.986816
		c0,1.04834,0.007324,2.09668-0.00293,3.144531c-0.007813,0.838379-0.318359,1.035156-1.155762,1.025391
		c-2.590332-0.02832-5.181152-0.013184-7.771484,0.012207c-0.577637,0.005371-1.002441-0.20459-1.015137-0.741211
		c-0.033691-1.396484-0.010254-2.794922-0.013184-4.191406c-0.000488-0.312012,0.194824-0.448242,0.44043-0.583008
		c2.425293-1.329102,4.94873-2.362305,7.743164-2.579102c0.319824-0.024902,0.603516-0.186523,0.935059-0.18457
		c0.708496,0.00293,0.828125,0.081055,0.836426,0.77832C24.326172,6.773926,24.317383,7.880859,24.317383,8.986816z"/>
	<path style="fill-rule:evenodd;clip-rule:evenodd;fill:#F26768;" d="M7.805664,33.609863
		c1.549805-1.237793,2.983398-2.597168,4.372559-4.012695c1.913574-1.950195,3.163574-4.29834,4.275879-6.746582
		c0.724121-1.593262,1.471191-3.181641,2.791992-4.38916c1.890137-1.726074,4.081543-2.241211,6.549805-1.539551
		c0.166992,0.047852,0.330566,0.111816,0.490723,0.181152c0.077148,0.032715,0.142578,0.094727,0.271973,0.184082
		c-0.401367,0.703613-0.809082,1.400391-1.196777,2.108887c-0.154785,0.283691-0.325195,0.29248-0.635742,0.237305
		c-1.830566-0.325684-3.249023,0.353516-4.265137,1.882813c-0.808105,1.216309-1.378906,2.560547-2.007813,3.870605
		c-0.631348,1.314941-1.340332,2.576172-2.156738,3.785645c-0.487793,0.722168-1.111328,1.229492-1.876953,1.631836
		c-2.141113,1.124512-4.325195,2.149414-6.575195,3.036133C7.831543,33.763184,7.818848,33.686035,7.805664,33.609863z"/>
	<path style="fill-rule:evenodd;clip-rule:evenodd;fill:#B7C9C3;" d="M24.319336,41.039551
		c0,1.047852,0.008789,2.095703-0.003418,3.142578c-0.008789,0.709961-0.112305,0.838867-0.825195,0.766602
		c-1.421387-0.146484-2.820801-0.360352-4.213379-0.767578c-1.405762-0.411133-2.666504-1.081055-3.981934-1.661133
		c-0.656738-0.291016-0.970703-0.708984-0.951172-1.469727c0.039063-1.525391-0.010254-1.55957,1.410156-2.109375
		c1.513672-0.585938,2.940918-1.353516,4.413086-2.026367c0.249023-0.114258,0.478516-0.183594,0.743652-0.181641
		c0.756348,0.00293,1.512695-0.008789,2.269043,0.00293c0.861816,0.011719,1.126953,0.28125,1.13623,1.162109
		C24.327637,38.944824,24.319336,39.992676,24.319336,41.039551z"/>
	<path style="fill-rule:evenodd;clip-rule:evenodd;fill:#B7C9C3;" d="M25.541504,8.898926
		c-0.000488-1.050293-0.006836-2.099121,0.001465-3.148438c0.005371-0.677734,0.213379-0.921875,0.88623-0.836914
		c1.656738,0.210449,3.301758,0.469727,4.887207,1.065918c0.92627,0.348633,1.819824,0.757324,2.731445,1.125977
		c0.44043,0.178223,0.74707,0.533203,1.203125,0.681641c0.375977,0.12207,0.276367,0.54248,0.242188,0.849121
		C35.456055,8.960449,35.198242,8.955566,34.916016,9c-1.802734,0.282715-3.327148,1.121094-4.57959,2.444336
		c-0.156738,0.165527-0.368164,0.326172-0.460938,0.501953c-0.623047,1.175293-1.64502,1.333496-2.810547,1.195313
		c-0.143066-0.016602-0.291992-0.006836-0.436523,0.009277c-0.726074,0.079102-1.066406-0.187988-1.081055-0.929199
		C25.525879,11.114258,25.541504,10.006348,25.541504,8.898926z"/>
	<path style="fill-rule:evenodd;clip-rule:evenodd;fill:#B7C9C3;" d="M35.510742,33.286621c0,0.348633,0.006836,0.698242,0,1.047852
		c-0.020508,0.861328-0.270508,1.158203-1.155273,1.166016c-2.649902,0.022461-5.300293,0.00293-7.950684,0.009766
		c-0.416504,0-0.614258-0.176758-0.743164-0.572266c-0.318359-0.976563-0.156738-1.541992,0.65332-2.170898
		c1.578613-1.225586,2.963867-2.651367,4.254883-4.17041c0.055664-0.066406,0.083984-0.155273,0.13916-0.220703
		c0.611328-0.720703,0.688477-0.719727,1.349609-0.074707c0.933594,0.912109,1.829102,1.872559,2.832031,2.702148
		c0.526367,0.437012,0.676758,0.884766,0.625,1.497559C35.493164,32.760742,35.510742,33.023926,35.510742,33.286621z"/>
	<path style="fill-rule:evenodd;clip-rule:evenodd;fill:#B7C9C3;" d="M8.844727,25.539063
		c1.049316,0,2.099121,0.006836,3.148926-0.002441c0.539063-0.005371,0.975098,0.143066,1.198242,0.681152
		c0.216797,0.521484,0.062012,0.958496-0.290039,1.36377c-1.713379,1.974121-3.530762,3.835938-5.638672,5.401367
		c-0.333496,0.24707-0.422363,0.362305-0.669922-0.104492c-0.674805-1.270996-0.974121-2.649902-1.338867-4.01709
		c-0.225586-0.848145-0.128906-1.727539-0.32666-2.581543c-0.148438-0.638184-0.02002-0.733398,0.680664-0.738281
		C6.687012,25.532715,7.766113,25.539063,8.844727,25.539063z"/>
	<path style="fill-rule:evenodd;clip-rule:evenodd;fill:#B7C9C3;" d="M19.334961,14.348633
		c1.251953,0.000977,2.504883-0.013672,3.756836,0.005371c0.837891,0.013184,1.176758,0.29834,1.226074,0.922363
		c0.033203,0.422852-0.077637,0.658691-0.567383,0.633789c-1.125977-0.057129-2.169434,0.275879-3.182617,0.730957
		c-1.212891,0.544434-2.165039,1.387695-2.921875,2.475586c-0.901367,1.29541-1.548828,2.725586-2.223145,4.141602
		c-0.161621,0.338379-0.292969,0.870117-0.636719,0.823242c-0.450195-0.0625-0.420898-0.621582-0.422363-1.015625
		c-0.009766-2.416992-0.014648-4.834961-0.000977-7.251953c0.006348-1.081543,0.405762-1.459961,1.477051-1.464355
		C17.004883,14.345703,18.169922,14.348633,19.334961,14.348633z"/>
	<path style="fill-rule:evenodd;clip-rule:evenodd;fill:#F26768;" d="M33.710938,24.893066
		c0.272461,0.033691,0.368164,0.23584,0.501953,0.377441c1.503906,1.584473,3.118164,3.044434,4.883789,4.336426
		c1.246094,0.911133,2.529297,1.76123,3.964844,2.34668c0.450195,0.184082,0.597656,0.402832,0.341797,0.847656
		c-0.15918,0.275391-0.272461,0.577148-0.411133,0.865234c-0.592773,1.235352-0.595703,1.241211-1.873047,0.618164
		c-2.614258-1.273438-4.854492-3.071289-6.978516-5.023926c-0.685059-0.629883-1.314941-1.318359-1.987305-1.961914
		c-0.263672-0.253418-0.284668-0.4375-0.030762-0.721191c0.42627-0.476563,0.80957-0.991699,1.287598-1.421387
		C33.514648,25.062012,33.623047,24.969727,33.710938,24.893066z"/>
	<path style="fill-rule:evenodd;clip-rule:evenodd;fill:#B7C9C3;" d="M38.991211,25.544922
		c1.15918-0.406738,2.107422,0.467285,3.057617,1.127441c0.74707,0.520508,1.476563,1.091309,2.203125,1.650879
		c0.267578,0.206543,0.411133,0.419922,0.337891,0.730469c-0.145508,0.615723-0.3125,1.226563-0.489258,1.833496
		c-0.149414,0.510254-0.435547,0.554688-0.916016,0.336426c-1.893555-0.859863-3.538086-2.084473-5.117188-3.40625
		c-0.354492-0.296387-0.787109-0.504395-1.063477-0.891602c-0.152344-0.213867-0.560547-0.318848-0.342773-0.696777
		c0.1875-0.324707,0.405273-0.655762,0.832031-0.678711C37.927734,25.526855,38.365234,25.544922,38.991211,25.544922z"/>
	<path style="fill-rule:evenodd;clip-rule:evenodd;fill:#B7C9C3;" d="M36.564453,14.99707
		c1.036133,0.463867,1.714844,1.104492,2.385742,1.720215c1.897461,1.738281,3.450195,3.82666,5.488281,5.421875
		c0.463867,0.364258,0.633789,0.807129,0.454102,1.38916c-0.291992,0.092773-0.482422-0.110352-0.68457-0.252441
		c-1.910156-1.342285-3.955078-2.40332-6.206055-3.062988c-0.456055-0.133301-1.078125,0.061523-1.34668-0.40625
		c-0.254883-0.445801-0.078125-1.016602-0.086914-1.53125C36.553711,17.231934,36.564453,16.188965,36.564453,14.99707z"/>
	<path style="fill-rule:evenodd;clip-rule:evenodd;fill:#B7C9C3;" d="M35.510742,14.968262
		c0,1.519043-0.005859,2.998047,0.005859,4.475586c0.001953,0.305664-0.097656,0.575195-0.387695,0.578613
		c-0.90332,0.012207-1.62793,0.522949-2.428223,0.814453c-0.376953,0.137695-0.695313,0.285156-1.019043-0.077637
		c-0.318359-0.355469-0.066406-0.686523,0.087402-0.951172c0.793945-1.370117,1.442871-2.827148,2.494629-4.044434
		C34.601563,15.373047,34.936523,15.067871,35.510742,14.968262z"/>
	<path style="fill-rule:evenodd;clip-rule:evenodd;fill:#B7C9C3;" d="M8.818848,13.043457
		c1.223145-1.612793,2.68457-2.998047,4.255859-4.254395c0.297852,0.133789,0.205078,0.366699,0.207031,0.553223
		c0.008789,0.932129,0.014648,1.864746,0.000977,2.797363c-0.011719,0.770508-0.359375,1.126465-1.103027,1.136719
		c-0.90332,0.01123-1.806641,0.003418-2.709961,0.001465C9.239746,13.277832,8.994629,13.314941,8.818848,13.043457z"/>
	<path style="fill-rule:evenodd;clip-rule:evenodd;fill:#B7C9C3;" d="M40.967773,36.98291
		c-1.276367,1.517578-2.512695,3.076172-4.40332,4.15625c0-1.228516-0.014648-2.301758,0.004883-3.375
		c0.009766-0.579102,0.374023-0.990234,0.978516-1.013672c1.097656-0.042969,2.199219-0.011719,3.299805-0.011719
		C40.886719,36.819824,40.926758,36.900879,40.967773,36.98291z"/>
	<path style="fill-rule:evenodd;clip-rule:evenodd;fill:#B7C9C3;" d="M21.061523,24.482422
		c-1.287109-0.000977-1.259277,0.012207-0.771484-1.060547c0.411133-0.903809,0.879883-1.747559,1.638672-2.414063
		c0.476074-0.418457,1.013184-0.659668,1.636719-0.697754c0.741699-0.044922,1.004883,0.344727,0.631836,1.00293
		c-0.210449,0.372559-0.400879,0.765137-0.688965,1.100098c-0.318359,0.371094-0.59375,0.78125-0.864258,1.189941
		C22.237305,24.218262,21.773438,24.696289,21.061523,24.482422z"/>
	<path style="fill-rule:evenodd;clip-rule:evenodd;fill:#B7C9C3;" d="M41.500977,35.499512
		c-1.322266,0-2.646484,0.017578-3.96875-0.009766c-0.4375-0.010742-0.782227-0.290039-0.894531-0.72168
		c-0.169922-0.655273-0.099609-1.334961-0.042969-1.996582c0.030273-0.348145,0.336914-0.236328,0.524414-0.080566
		c0.808594,0.670898,1.732422,1.164063,2.616211,1.720703C40.306641,34.772949,40.994141,34.935059,41.500977,35.499512z"/>
	<path style="fill-rule:evenodd;clip-rule:evenodd;fill:#B7C9C3;" d="M27.125977,14.352051
		c0.171875,0,0.345215-0.004883,0.518066,0.001465c0.333984,0.012207,0.395508,0.206055,0.260742,0.463379
		c-0.252441,0.48291-0.52832,0.953125-0.79541,1.428711c-0.150879,0.268555-0.400391,0.23584-0.601074,0.128418
		c-0.358398-0.190918-0.874023-0.189453-0.963379-0.744629c-0.098145-0.61084,0.250488-1.135254,0.890137-1.259277
		c0.222168-0.043457,0.459473-0.006836,0.690918-0.006836C27.125977,14.359375,27.125977,14.355469,27.125977,14.352051z"/>
	<path style="fill-rule:evenodd;clip-rule:evenodd;fill:#B7C9C3;" d="M21.018066,25.539551
		c-1.030273,1.094238-1.92041,2.052734-3.088379,2.727051c0.26123-0.921387,0.854004-1.671875,1.238281-2.521973
		c0.095703-0.213379,0.330566-0.206543,0.537598-0.205566C20.081543,25.540527,20.458008,25.539551,21.018066,25.539551z"/>
	<path style="fill-rule:evenodd;clip-rule:evenodd;fill:#B7C9C3;" d="M22.746582,35.421387
		c0.429688-0.541016,1.000977-0.689453,1.450195-1.047852C24.382813,35.390137,24.098633,35.604004,22.746582,35.421387z"/>
	<path style="fill-rule:evenodd;clip-rule:evenodd;fill:#B7C9C3;" d="M13.227539,41.11377
		c-0.233398-0.101563-0.379883-0.135742-0.48877-0.21875c-0.191406-0.144531-0.536621-0.256836-0.376953-0.569336
		c0.094727-0.18457,0.371094-0.270508,0.620117-0.24707c0.414551,0.041992,0.279785,0.369141,0.299805,0.604492
		C13.291992,40.794434,13.255371,40.908691,13.227539,41.11377z"/>
	<path style="fill-rule:evenodd;clip-rule:evenodd;fill:#F26768;" d="M30.611816,22.066895
		c0.158203-0.355957,0.164551-0.631348,0.477539-0.666504c0.036621-0.003906,0.115234,0.064453,0.115723,0.100586
		C31.209961,21.805176,30.978516,21.900879,30.611816,22.066895z"/>
	<path style="fill-rule:evenodd;clip-rule:evenodd;fill:#B7C9C3;" d="M7.805664,33.609863
		c0.013184,0.076172,0.025879,0.15332,0.038574,0.230469c-0.127441,0.100586-0.362305,0.25-0.409668,0.121094
		C7.348145,33.726074,7.661133,33.715332,7.805664,33.609863z"/>
</g>
<g>
</g>
<g>
</g>
<g>
</g>
<g>
</g>
<g>
</g>
<g>
</g>
</svg>
