<?xml version="1.0" encoding="utf-8"?>
<!-- Fluxer (https://fluxer.umbc.edu) by The Lobo Lab (https://lobolab.umbc.edu) -->
<svg version="1.1" id="Layer_1" xmlns="http://www.w3.org/2000/svg" xmlns:xlink="http://www.w3.org/1999/xlink" x="0px" y="0px"
	 viewBox="0 0 260.039 97.66" style="enable-background:new 0 0 260.039 97.66;" xml:space="preserve">
<style type="text/css">
	.st0{fill:#1E90FF;}
	.st1{fill:none;stroke:#FF4500;stroke-width:2.086;}
	.st2{fill:none;stroke:#8B0000;stroke-width:0.3613;}
	.st3{fill:none;stroke:#1E90FF;stroke-width:2.086;}
	.st4{fill:none;stroke:#00008B;stroke-width:0.3613;}
	.st5{fill:#FF8C00;}
	.st6{fill:#006400;}
</style>
<g>
	<path class="st0" d="M75.009,31.417h7.137c1.174-4.977,2.518-8.68,4.031-11.109c1.513-2.429,3.484-4.345,5.913-5.749
		c2.429-1.403,4.718-2.105,6.868-2.105c1.214,0,2.13,0.239,2.748,0.717c0.617,0.478,0.926,1.045,0.926,1.702
		c0,0.597-0.209,1.095-0.628,1.493c-0.419,0.398-0.967,0.597-1.645,0.597c-0.698,0-2.014-0.209-3.948-0.627
		c-0.957-0.199-1.705-0.299-2.243-0.299c-1.316,0-2.503,0.812-3.559,2.434c-1.057,1.623-1.904,3.818-2.542,6.584l-1.5,6.361h7.912
		l-0.478,2.12h-8.016L81.31,52.589c-1.453,5.793-3.777,10.183-6.973,13.169c-3.195,2.986-6.664,3.899-10.407,3.899
		c-3.686,0-4.9-0.882-7.124-0.882c-0.346,0,0.614-0.84,0.614-1.118c0-0.251-0.914-0.97-0.614-0.97c2.186,0,4.226-0.377,5.9-0.486
		c2.754-0.18,4.579-0.114,5.853-0.114c1.971,0,3.404-0.463,4.3-1.389c0.896-0.926,1.792-3.19,2.688-6.793l6.062-24.368h-7.137
		L75.009,31.417z"/>
	<path class="st0" d="M105.059,47.393l1.015,1.075c-1.553,1.752-3.39,3.35-5.51,4.792c-2.12,1.443-3.867,2.165-5.241,2.165
		c-0.617,0-1.125-0.234-1.523-0.702c-0.398-0.467-0.597-1.109-0.597-1.926c0-1.592,0.616-4.897,1.849-9.914l3.221-13.11
		c1.173-4.738,2.157-7.914,2.953-9.526c1.233-2.439,2.978-4.333,5.234-5.682c2.256-1.348,4.638-2.022,7.143-2.022
		c0.855,0,1.526,0.206,2.013,0.616c0.487,0.411,0.73,0.907,0.73,1.489c0,0.642-0.238,1.168-0.714,1.579
		c-0.476,0.411-1.17,0.617-2.082,0.617c-0.596,0-1.439-0.1-2.53-0.299c-0.952-0.159-1.835-0.239-2.648-0.239
		c-0.813,0-1.428,0.168-1.845,0.505c-0.575,0.476-1.096,1.476-1.563,3.002c-0.466,1.526-1.225,4.537-2.276,9.035L99.71,41.361
		c-1.473,6.271-2.209,9.546-2.209,9.825c0,0.637,0.229,0.956,0.687,0.956c0.438,0,1.075-0.258,1.912-0.776
		C101.752,50.33,103.406,49.005,105.059,47.393z"/>
	<path class="st0" d="M126.557,30.252h4.252l-2.807,10.437c-1.652,6.061-2.479,9.51-2.479,10.347c0,0.378,0.09,0.667,0.269,0.866
		c0.179,0.199,0.378,0.298,0.597,0.298c0.338,0,0.736-0.149,1.194-0.448c0.657-0.458,1.901-1.613,3.733-3.464l0.985,1.104
		c-4.001,4.161-6.948,6.242-8.839,6.242c-0.637,0-1.18-0.244-1.627-0.732c-0.448-0.487-0.672-1.18-0.672-2.075
		c0-1.035,0.216-2.419,0.647-4.151c-1.771,2.03-3.959,3.813-6.565,5.345c-1.731,1.015-3.233,1.523-4.506,1.523
		c-0.696,0-1.244-0.229-1.641-0.688c-0.398-0.458-0.597-1.187-0.597-2.183c0-0.777,0.089-1.615,0.269-2.512
		c0.259-1.256,0.916-3.777,1.971-7.565c1.333-4.804,2-7.685,2-8.642c0-0.558-0.199-0.837-0.597-0.837
		c-0.358,0-0.846,0.185-1.463,0.552c-0.617,0.369-1.672,1.26-3.165,2.673l-1.314-1.045c2.667-2.389,4.703-3.957,6.107-4.704
		c1.403-0.747,2.533-1.12,3.389-1.12c0.478,0,0.866,0.174,1.165,0.523c0.299,0.349,0.448,0.892,0.448,1.629
		c0,1.375-0.717,4.754-2.15,10.137c-1.274,4.844-1.911,7.606-1.911,8.283c0,0.418,0.134,0.777,0.403,1.077
		c0.268,0.299,0.562,0.448,0.88,0.448c1.113,0,2.695-0.92,4.744-2.762c2.049-1.841,3.392-3.937,4.028-6.286L126.557,30.252z"/>
	<path class="st0" d="M136.402,35.508l-0.866-1.195c2.11-1.792,3.952-3.105,5.524-3.942c1.055-0.577,1.841-0.866,2.359-0.866
		c0.756,0,1.363,0.378,1.821,1.135c0.657,1.075,1.304,3.424,1.941,7.047c2.468-3.623,4.648-6.122,6.54-7.495
		c1.891-1.374,3.474-2.061,4.749-2.061c0.657,0,1.184,0.19,1.583,0.571c0.398,0.381,0.597,0.853,0.597,1.414
		c0,0.622-0.279,1.133-0.836,1.534c-0.398,0.281-1.483,0.481-3.255,0.601c-1.453,0.08-2.728,0.566-3.822,1.458
		c-1.752,1.448-3.444,3.56-5.077,6.336l1.911,8.929c0.816,3.922,1.672,6.828,2.568,8.72s1.991,3.345,3.285,4.36
		c0.736,0.577,1.553,0.866,2.449,0.866c1.274,0,2.2-0.776,2.777-2.329c0.378-1.016,0.985-1.523,1.822-1.523
		c0.398,0,0.747,0.164,1.045,0.493c0.299,0.329,0.448,0.741,0.448,1.239c0,0.975-0.553,1.871-1.658,2.688
		c-1.104,0.816-2.523,1.225-4.255,1.225c-1.911,0-3.738-0.603-5.479-1.807c-1.742-1.205-3.245-3.136-4.509-5.793
		c-1.265-2.658-2.434-6.883-3.509-12.677c-0.398,0.538-1.036,1.434-1.911,2.688c-2.509,3.544-4.45,5.823-5.823,6.839
		c-1.374,1.015-2.688,1.523-3.942,1.523c-0.876,0-1.603-0.244-2.18-0.732c-0.578-0.487-0.866-1.07-0.866-1.747
		c0-0.557,0.189-1.04,0.567-1.449c0.378-0.408,0.816-0.612,1.314-0.612c0.517,0,1.045,0.338,1.583,1.015
		c0.458,0.597,0.896,0.896,1.314,0.896c0.278,0,0.587-0.09,0.926-0.269c0.498-0.278,1.165-0.875,2-1.792
		c1.195-1.294,2.11-2.409,2.748-3.345l3.703-5.465l-1.225-5.584c-0.318-1.513-0.642-2.483-0.97-2.911
		c-0.329-0.428-0.692-0.642-1.09-0.642c-0.298,0-0.717,0.159-1.254,0.478C138.293,33.985,137.278,34.711,136.402,35.508z"/>
	<path class="st0" d="M174.007,47.094l0.985,1.314c-4.878,4.639-9.059,6.958-12.542,6.958c-1.414,0-2.493-0.478-3.24-1.433
		c-0.747-0.956-1.12-2.489-1.12-4.599c0-4.26,1.294-8.5,3.882-12.721c2.906-4.798,6.38-7.197,10.422-7.197
		c1.414,0,2.494,0.354,3.24,1.061s1.12,1.677,1.12,2.911c0,1.294-0.448,2.568-1.344,3.823c-0.896,1.254-2.499,2.558-4.808,3.912
		c-1.155,0.657-3.624,1.841-7.406,3.553c-0.179,1.075-0.269,2.101-0.269,3.076c0,1.414,0.224,2.399,0.672,2.956
		c0.448,0.558,1.1,0.836,1.956,0.836c0.816,0,1.712-0.229,2.688-0.687C169.557,50.24,171.478,48.986,174.007,47.094z
		 M163.555,42.764c3.205-1.433,5.614-2.976,7.227-4.628c1.094-1.154,1.642-2.3,1.642-3.435c0-0.855-0.224-1.538-0.672-2.045
		c-0.448-0.508-1.03-0.761-1.747-0.761c-0.737,0-1.453,0.279-2.15,0.836c-0.936,0.737-1.722,1.852-2.359,3.345
		C164.58,38.265,163.933,40.495,163.555,42.764z"/>
	<path class="st0" d="M183.751,54.59h-4.45l2.09-8.033c1.016-3.942,1.902-7.684,2.658-11.228c0.18-0.876,0.27-1.423,0.27-1.643
		c0-0.478-0.22-0.717-0.657-0.717c-0.299,0-0.757,0.205-1.374,0.612c-0.617,0.408-1.732,1.418-3.345,3.031l-0.926-1.045
		c1.911-2.05,3.816-3.588,5.717-4.614c1.9-1.025,3.358-1.538,4.373-1.538c0.358,0,0.642,0.085,0.851,0.254
		c0.21,0.169,0.314,0.384,0.314,0.642c0,0.26-0.132,0.951-0.394,2.071l-1.299,5.373c2.015-3.178,4.289-5.896,6.822-8.154
		c1.217-1.079,2.234-1.619,3.052-1.619c2.236,0,2.095,0.901,4.111,0.901c0.662,0-2.096,0.522-2.096,1.04
		c0,0.538,2.691,1.047,2.096,1.047c-2.15,0-3.956,1.153-5.508,1.671c-1.472,0.498-2.671,1.095-3.596,1.792
		c-0.925,0.697-1.939,1.762-3.043,3.196c-1.104,1.434-1.876,2.683-2.315,3.748c-0.438,1.065-1.107,3.538-2.005,7.419L183.751,54.59z
		"/>
</g>
<line class="st1" x1="10.958" y1="95.575" x2="0" y2="95.575"/>
<path class="st2" d="M4.704,96.385l-1.586-0.811l1.586-0.85 M6.246,96.385l-1.542-0.811l1.542-0.85 M7.832,96.385l-1.586-0.811
	l1.586-0.85"/>
<path class="st1" d="M52.658,67.731h-8.342c-12.513,0-12.513,27.843-25.016,27.843h-8.342"/>
<path class="st2" d="M46.402,68.581l-1.542-0.85l1.542-0.81 M47.981,68.581l-1.579-0.85l1.579-0.81 M49.53,68.581l-1.549-0.85
	l1.549-0.81"/>
<path class="st2" d="M15.631,96.385l-1.542-0.811l1.542-0.85 M17.21,96.385l-1.579-0.811l1.579-0.85 M18.759,96.385l-1.549-0.811
	l1.549-0.85"/>
<line class="st3" x1="12.838" y1="67.731" x2="0" y2="67.731"/>
<path class="st4" d="M3.118,68.581l1.586-0.85l-1.586-0.81 M4.704,68.581l1.542-0.85l-1.542-0.81 M6.246,68.581l1.586-0.85
	l-1.586-0.81"/>
<path class="st3" d="M52.658,67.731h-8.342c-12.513,0-12.513,0-25.016,0h-8.342"/>
<path class="st4" d="M44.86,68.581l1.542-0.85l-1.542-0.81 M46.402,68.581l1.579-0.85l-1.579-0.81 M47.981,68.581l1.549-0.85
	l-1.549-0.81"/>
<path class="st4" d="M14.089,68.581l1.542-0.85l-1.542-0.81 M15.631,68.581l1.579-0.85l-1.579-0.81 M17.21,68.581l1.549-0.85
	l-1.549-0.81"/>
<path class="st3" d="M52.658,67.731h-8.342c-12.513,0-12.513-13.897-25.016-13.897h-8.342"/>
<path class="st4" d="M44.86,68.581l1.542-0.85l-1.542-0.81 M46.402,68.581l1.579-0.85l-1.579-0.81 M47.981,68.581l1.549-0.85
	l-1.549-0.81"/>
<path class="st4" d="M14.089,54.685l1.542-0.85l-1.542-0.81 M15.631,54.685l1.579-0.85l-1.579-0.81 M17.21,54.685l1.549-0.85
	l-1.549-0.81"/>
<line class="st3" x1="10.958" y1="39.939" x2="0" y2="39.939"/>
<path class="st4" d="M3.118,40.789l1.586-0.85l-1.586-0.851 M4.704,40.789l1.542-0.85l-1.542-0.851 M6.246,40.789l1.586-0.85
	l-1.586-0.851"/>
<path class="st3" d="M52.658,67.731h-8.342c-12.513,0-12.513-27.793-25.016-27.793h-8.342"/>
<path class="st4" d="M44.86,68.581l1.542-0.85l-1.542-0.81 M46.402,68.581l1.579-0.85l-1.579-0.81 M47.981,68.581l1.549-0.85
	l-1.549-0.81"/>
<path class="st4" d="M14.089,40.789l1.542-0.85l-1.542-0.851 M15.631,40.789l1.579-0.85l-1.579-0.851 M17.21,40.789l1.549-0.85
	l-1.549-0.851"/>
<path class="st3" d="M60.11,67.731c-12.513,0-7.452,0-7.452,0"/>
<path class="st4" d="M55.786,68.581l1.579-0.85l-1.579-0.81 M57.365,68.581l1.542-0.85l-1.542-0.81 M58.907,68.581l1.586-0.85
	l-1.586-0.81"/>
<path class="st5" d="M54.743,67.731c0,1.167-0.929,2.085-2.085,2.085s-2.085-0.919-2.085-2.085c0-1.117,0.929-2.075,2.085-2.075
	S54.743,66.615,54.743,67.731z"/>
<circle class="st6" cx="10.958" cy="95.575" r="2.085"/>
<path class="st6" d="M13.043,67.731c0,1.167-0.969,2.085-2.085,2.085c-1.156,0-2.085-0.919-2.085-2.085
	c0-1.117,0.929-2.075,2.085-2.075C12.075,65.656,13.043,66.615,13.043,67.731z"/>
<circle class="st6" cx="10.958" cy="53.835" r="2.085"/>
<path class="st6" d="M13.043,39.939c0,1.156-0.969,2.085-2.085,2.085c-1.156,0-2.085-0.93-2.085-2.085
	c0-1.156,0.929-2.086,2.085-2.086C12.075,37.852,13.043,38.782,13.043,39.939z"/>
<path class="st3" d="M60.11,68.775"/>
<g>
	<line class="st1" x1="249.081" y1="2.085" x2="260.039" y2="2.085"/>
	<path class="st2" d="M255.335,1.275l1.586,0.811l-1.586,0.85 M253.793,1.275l1.542,0.811l-1.542,0.85 M252.207,1.275l1.586,0.811
		l-1.586,0.85"/>
	<path class="st1" d="M207.381,29.928h8.342c12.513,0,12.513-27.843,25.016-27.843h8.342"/>
	<path class="st2" d="M213.638,29.079l1.542,0.85l-1.542,0.81 M212.059,29.079l1.579,0.85l-1.579,0.81 M210.509,29.079l1.549,0.85
		l-1.549,0.81"/>
	<path class="st2" d="M244.409,1.275l1.542,0.811l-1.542,0.85 M242.83,1.275l1.579,0.811l-1.579,0.85 M241.28,1.275l1.549,0.811
		l-1.549,0.85"/>
	<line class="st3" x1="247.202" y1="29.928" x2="260.039" y2="29.928"/>
	<path class="st4" d="M256.922,29.079l-1.586,0.85l1.586,0.81 M255.335,29.079l-1.542,0.85l1.542,0.81 M253.793,29.079l-1.586,0.85
		l1.586,0.81"/>
	<path class="st3" d="M207.381,29.928h8.342c12.513,0,12.513,0,25.016,0h8.342"/>
	<path class="st4" d="M215.18,29.079l-1.542,0.85l1.542,0.81 M213.638,29.079l-1.579,0.85l1.579,0.81 M212.059,29.079l-1.549,0.85
		l1.549,0.81"/>
	<path class="st4" d="M245.951,29.079l-1.542,0.85l1.542,0.81 M244.409,29.079l-1.579,0.85l1.579,0.81 M242.83,29.079l-1.549,0.85
		l1.549,0.81"/>
	<path class="st3" d="M207.381,29.928h8.342c12.513,0,12.513,13.897,25.016,13.897h8.342"/>
	<path class="st4" d="M215.18,29.079l-1.542,0.85l1.542,0.81 M213.638,29.079l-1.579,0.85l1.579,0.81 M212.059,29.079l-1.549,0.85
		l1.549,0.81"/>
	<path class="st4" d="M245.951,42.975l-1.542,0.85l1.542,0.81 M244.409,42.975l-1.579,0.85l1.579,0.81 M242.83,42.975l-1.549,0.85
		l1.549,0.81"/>
	<line class="st3" x1="249.081" y1="57.721" x2="260.039" y2="57.721"/>
	<path class="st4" d="M256.922,56.871l-1.586,0.85l1.586,0.851 M255.335,56.871l-1.542,0.85l1.542,0.851 M253.793,56.871
		l-1.586,0.85l1.586,0.851"/>
	<path class="st3" d="M207.381,29.928h8.342c12.513,0,12.513,27.793,25.016,27.793h8.342"/>
	<path class="st4" d="M215.18,29.079l-1.542,0.85l1.542,0.81 M213.638,29.079l-1.579,0.85l1.579,0.81 M212.059,29.079l-1.549,0.85
		l1.549,0.81"/>
	<path class="st4" d="M245.951,56.871l-1.542,0.85l1.542,0.851 M244.409,56.871l-1.579,0.85l1.579,0.851 M242.83,56.871l-1.549,0.85
		l1.549,0.851"/>
	<path class="st3" d="M199.548,29.928c12.513,0,7.833,0,7.833,0"/>
	<path class="st4" d="M204.253,29.079l-1.579,0.85l1.579,0.81 M202.674,29.079l-1.542,0.85l1.542,0.81 M201.132,29.079l-1.586,0.85
		l1.586,0.81"/>
	<path class="st5" d="M205.296,29.928c0-1.167,0.929-2.085,2.085-2.085c1.156,0,2.085,0.919,2.085,2.085
		c0,1.117-0.929,2.075-2.085,2.075C206.225,32.004,205.296,31.045,205.296,29.928z"/>
	<circle class="st6" cx="249.081" cy="2.085" r="2.085"/>
	<path class="st6" d="M246.996,29.928c0-1.167,0.969-2.085,2.085-2.085c1.156,0,2.085,0.919,2.085,2.085
		c0,1.117-0.929,2.075-2.085,2.075C247.964,32.004,246.996,31.045,246.996,29.928z"/>
	<circle class="st6" cx="249.081" cy="43.825" r="2.085"/>
	<path class="st6" d="M246.996,57.721c0-1.156,0.969-2.085,2.085-2.085c1.156,0,2.085,0.93,2.085,2.085
		c0,1.156-0.929,2.086-2.085,2.086C247.964,59.808,246.996,58.878,246.996,57.721z"/>
</g>
</svg>
