<?xml version="1.0" encoding="UTF-8" standalone="no"?>
<!-- Created with Inkscape (http://www.inkscape.org/) -->

<svg
   xmlns:dc="http://purl.org/dc/elements/1.1/"
   xmlns:cc="http://creativecommons.org/ns#"
   xmlns:rdf="http://www.w3.org/1999/02/22-rdf-syntax-ns#"
   xmlns:svg="http://www.w3.org/2000/svg"
   xmlns="http://www.w3.org/2000/svg"
   xmlns:sodipodi="http://sodipodi.sourceforge.net/DTD/sodipodi-0.dtd"
   xmlns:inkscape="http://www.inkscape.org/namespaces/inkscape"
   version="1.1"
   id="svg36699"
   width="390.5553"
   height="116.31555"
   viewBox="0 0 390.5553 116.31555"
   sodipodi:docname="ginsim.svg"
   inkscape:version="0.92.3 (2405546, 2018-03-11)">
  <metadata
     id="metadata36705">
    <rdf:RDF>
      <cc:Work
         rdf:about="">
        <dc:format>image/svg+xml</dc:format>
        <dc:type
           rdf:resource="http://purl.org/dc/dcmitype/StillImage" />
        <dc:title></dc:title>
      </cc:Work>
    </rdf:RDF>
  </metadata>
  <defs
     id="defs36703" />
  <sodipodi:namedview
     pagecolor="#ffffff"
     bordercolor="#666666"
     borderopacity="1"
     objecttolerance="10"
     gridtolerance="10"
     guidetolerance="10"
     inkscape:pageopacity="0"
     inkscape:pageshadow="2"
     inkscape:window-width="1920"
     inkscape:window-height="952"
     id="namedview36701"
     showgrid="false"
     fit-margin-top="0"
     fit-margin-left="0"
     fit-margin-right="0"
     fit-margin-bottom="0"
     inkscape:zoom="1.1754347"
     inkscape:cx="151.37379"
     inkscape:cy="-4.0167274"
     inkscape:window-x="0"
     inkscape:window-y="0"
     inkscape:window-maximized="1"
     inkscape:current-layer="svg36699" />
  <path
     style="fill:#399741;stroke-width:0.95999998"
     d="M 34.25282,113.84079 C 26.300485,111.13018 21.224302,107.64934 14.683909,100.42197 -5.4091071,78.218462 -4.8059548,44.283163 16.030961,24.632492 31.151004,10.373233 54.527283,3.2795425 90.285989,2.0993025 c 15.530701,-0.5126 17.070561,-0.41718 17.650371,1.09379 1.82599,4.75844 -6.10878,16.6995495 -12.422595,18.6948805 -1.673599,0.52891 -10.556854,2.09492 -19.740567,3.48002 -33.095935,4.99161 -44.329367,10.31786 -51.202618,24.27737 -2.913258,5.916789 -3.139722,7.070699 -3.139722,15.99787 0,8.75607 0.255391,10.12564 2.840464,15.23239 7.508815,14.83349 23.440414,20.696347 37.267721,13.71459 5.214256,-2.632811 7.394053,-7.053311 8.103463,-16.43335 l 0.545482,-7.21251 -8.538566,-0.0147 c -11.401686,-0.0196 -12.966888,-1.0915 -6.118348,-4.18991 27.871105,-12.609451 29.121069,-13.059841 31.659784,-11.407801 5.585846,3.63493 16.800012,12.99267 16.800012,14.01889 0,0.61243 -1.72801,1.32952 -3.84001,1.593521 l -3.840002,0.479999 -0.670468,7.393471 C 93.205011,105.67352 80.677786,116.04702 50.710858,116.0229 42.771301,116.0159 39.27651,115.55314 34.25282,113.84079 Z m 183.82431,-0.14913 c -5.99632,-3.04199 -6.76188,-4.63734 -3.92879,-8.18715 3.38145,-4.23689 6.15881,-5.46809 8.70177,-3.85748 7.2076,4.56499 14.61086,5.03617 19.69227,1.25331 6.72192,-5.004138 4.52605,-9.783028 -6.47922,-14.100798 -7.06832,-2.77316 -8.94795,-4.30506 -10.59377,-8.6339 -2.74793,-7.22759 5.39093,-20.11885 15.59627,-24.70317 6.83654,-3.07103 20.61171,-3.26415 25.54386,-0.35812 5.00024,2.94614 5.56044,4.46628 2.94805,7.99973 -3.00916,4.0701 -4.64213,4.39975 -10.45164,2.10986 -2.72038,-1.07228 -6.26886,-1.94959 -7.88551,-1.94959 -4.06792,0 -9.44545,2.73676 -10.67349,5.43202 -1.74979,3.84037 0.3006,6.35297 8.34345,10.22429 9.35751,4.50411 12.0674,7.33205 12.03941,12.56387 -0.0449,8.40241 -6.61032,17.120738 -16.2159,21.533558 -4.06183,1.86602 -7.34282,2.55148 -13.52302,2.82522 -7.30458,0.32355 -8.6793,0.098 -13.11374,-2.15165 z m 51.42071,-21.867308 8.26013,-23.28 6.47645,-0.28386 c 4.70724,-0.20632 6.47645,0.0454 6.47645,0.92149 0,0.66295 -3.564,11.26485 -7.92,23.55978 l -7.92,22.354418 -6.81659,0.004 -6.81658,0.004 8.26014,-23.279998 z m 18.64469,22.559998 c 0.23374,-0.396 4.81066,-14.22 10.17093,-30.719998 l 9.74593,-30 h 5.1282 c 5.80352,0 7.77436,1.48194 7.045,5.29739 -0.67686,3.54075 0.81468,3.83729 4.33793,0.86244 12.49407,-10.5493 28.54035,-8.85961 28.54035,3.00534 0,1.29515 0.21382,2.35483 0.47516,2.35483 0.26134,0 3.13166,-2.14063 6.37847,-4.75694 9.02011,-7.2685 19.12879,-9.72583 25.80559,-6.27313 3.90542,2.01958 4.78012,4.15585 4.7852,11.68696 0.004,5.50164 -1.09322,9.94299 -6.89151,27.90311 l -6.89591,21.359998 h -7.50849 c -4.12968,0 -7.50851,-0.40952 -7.50851,-0.91003 0,-0.50052 3.024,-10.21265 6.72,-21.582498 3.696,-11.36986 6.72,-21.74515 6.72,-23.0562 0,-5.49868 -7.66705,-5.29509 -14.53631,0.38602 -6.3095,5.21815 -9.8636,11.9866 -15.27125,29.08271 l -5.08625,16.079998 h -7.95051 -7.95051 l 1.44635,-4.08 c 5.70901,-16.104598 12.90021,-40.782908 12.42997,-42.656478 -1.11943,-4.46016 -8.09085,-3.52112 -14.59835,1.96638 -5.79887,4.88995 -9.4921,12.02217 -14.84213,28.66256 l -5.16101,16.052458 -7.97666,0.0276 c -4.38716,0.0152 -7.78542,-0.29646 -7.55168,-0.69246 z m -5.64914,-53.472998 c -0.90809,-1.38592 -1.28502,-3.16185 -0.91711,-4.32102 1.43395,-4.51799 8.28647,-4.87774 10.26342,-0.53883 2.59803,5.70209 -5.89938,10.12053 -9.34631,4.85985 z"
     id="path36989"
     inkscape:connector-curvature="0"
     sodipodi:nodetypes="cssscccsssssccsssscscccscsscscccsssccccccsssccccccscsccsssccscsssscscccccssccccsccs" />
  <path
     style="fill:#336195;fill-opacity:1;stroke-width:0.95999998"
     d="m 114.07087,76.572812 v -39.74277 l 2.36485,-3.48019 c 2.6154,-3.848909 9.78254,-7.841759 13.20448,-7.35629 l 2.19067,0.31079 v 38.88 38.879988 l -2.22694,3.1222 c -3.16708,4.4403 -8.0713,7.91814 -12.08382,8.56928 l -3.44924,0.55973 z m 4.03017,-56.194369 c -7.59093,-3.74101 -7.91777,-13.7852805 -0.60544,-18.6056005 3.58581,-2.36379 7.80473,-2.36379 11.39054,0 7.3824,4.8665 6.97137,14.9741995 -0.75807,18.6420505 -4.11398,1.95222 -6.00578,1.945339 -10.02703,-0.0365 z"
     id="path36989-2"
     inkscape:connector-curvature="0"
     sodipodi:nodetypes="ccssccccscccccccc" />
  <path
     style="fill:#b94144;fill-opacity:1;stroke-width:0.95999998"
     d="m 143.63086,102.86434 c -1.00296,-34.086188 2.62058,-57.011478 10.7947,-68.295528 3.59988,-4.96948 9.76701,-9.4752 14.07528,-10.28344 8.85942,-1.66204 12.99222,6.23202 18.59407,35.51652 3.16394,16.53999 5.58882,23.62246 8.08783,23.62246 2.34203,0 6.11528,-4.61223 7.38029,-9.02132 2.53106,-8.82179 -0.0348,-34.39836 -5.19584,-51.79128 l -1.09571,-3.69259 -6.01053,0.64367 -6.01052,0.64368 -1.38251,-4.63109 c -0.76038,-2.54709 -1.09162,-4.94864 -0.73608,-5.33677 0.99651,-1.0878695 36.26613,-8.2449095 37.30447,-7.5699495 1.21457,0.7895 3.37306,7.5001895 2.88418,8.9668095 -0.21164,0.63494 -2.51439,1.61117 -5.11721,2.16939 -4.43396,0.95094 -4.72388,1.19546 -4.59732,3.8772 0.0743,1.57423 1.29017,8.04625 2.70195,14.38225 3.36371,15.09622 4.36876,38.60775 2.10438,49.22842 -3.05457,14.32688 -9.1166,21.331568 -18.46088,21.331568 -6.36181,0 -9.61623,-1.21245 -13.68625,-5.098868 -6.33933,-6.05338 -9.58234,-14.9799 -12.59206,-34.66011 -2.00864,-13.13422 -2.83442,-15.11685 -5.58864,-13.41776 -3.72869,2.30023 -6.90289,20.3985 -6.95649,39.66348 -0.0383,13.769488 -1.64748,17.806188 -9.50091,23.833258 -6.47231,4.96715 -6.55704,4.84506 -6.9962,-10.08 z"
     id="path36989-6"
     inkscape:connector-curvature="0"
     sodipodi:nodetypes="scssssscccscccscssscscscs" />
</svg>
