<svg id="Layer_1" data-name="Layer 1" xmlns="http://www.w3.org/2000/svg" xmlns:xlink="http://www.w3.org/1999/xlink" viewBox="0 0 329.3 330"><defs><style>.cls-1{fill:#fff;}.cls-2{opacity:0.2;}.cls-11,.cls-3,.cls-5,.cls-6{fill:none;}.cls-3,.cls-5,.cls-6{stroke:#334e75;}.cls-3{stroke-width:0.71px;}.cls-4{fill:#334e75;}.cls-5{stroke-width:0.59px;}.cls-6{stroke-width:0.61px;}.cls-10,.cls-7,.cls-8,.cls-9{fill:#e0865b;stroke:#a24510;}.cls-7{stroke-width:0.13px;}.cls-8{stroke-width:0.12px;}.cls-9{stroke-width:0.14px;}.cls-10{stroke-width:0.12px;}.cls-11,.cls-12,.cls-13,.cls-14,.cls-15,.cls-16,.cls-17,.cls-18,.cls-19{stroke:#000;stroke-miterlimit:10;stroke-width:0.48px;}.cls-12{fill:url(#linear-gradient);}.cls-13{fill:url(#linear-gradient-2);}.cls-14{fill:url(#linear-gradient-3);}.cls-15{fill:url(#linear-gradient-4);}.cls-16{fill:url(#linear-gradient-5);}.cls-17{fill:url(#linear-gradient-6);}.cls-18{fill:url(#linear-gradient-7);}.cls-19{fill:url(#linear-gradient-8);}.cls-20{font-size:11.1px;font-family:Baskerville;}.cls-21{letter-spacing:0.01em;}.cls-22{letter-spacing:0.04em;}.cls-23{letter-spacing:-0.01em;}.cls-24{letter-spacing:-0.05em;}.cls-25{letter-spacing:-0.01em;}.cls-26{letter-spacing:-0.04em;}.cls-27{letter-spacing:-0.02em;}.cls-28{font-size:48px;font-family:Baskerville-Bold, Baskerville;font-weight:700;}.cls-29{letter-spacing:-0.02em;}</style><linearGradient id="linear-gradient" x1="119.41" y1="248.1" x2="329.06" y2="248.1" gradientUnits="userSpaceOnUse"><stop offset="0"/><stop offset="0.1" stop-color="#727272"/><stop offset="0.2" stop-color="#fff"/><stop offset="0.8" stop-color="#fff"/><stop offset="0.9" stop-color="#727272"/><stop offset="1"/></linearGradient><linearGradient id="linear-gradient-2" x1="191.45" y1="255.65" x2="339.69" y2="107.41" xlink:href="#linear-gradient"/><linearGradient id="linear-gradient-3" x1="247.32" y1="210.19" x2="247.32" y2="0.55" xlink:href="#linear-gradient"/><linearGradient id="linear-gradient-4" x1="255.54" y1="137.92" x2="107.3" y2="-10.33" xlink:href="#linear-gradient"/><linearGradient id="linear-gradient-5" x1="209.88" y1="81.55" x2="0.24" y2="81.55" xlink:href="#linear-gradient"/><linearGradient id="linear-gradient-6" x1="138.12" y1="73.89" x2="-10.13" y2="222.13" xlink:href="#linear-gradient"/><linearGradient id="linear-gradient-7" x1="82.01" y1="119.79" x2="82.01" y2="329.44" xlink:href="#linear-gradient"/><linearGradient id="linear-gradient-8" x1="74.36" y1="192.08" x2="222.59" y2="340.32" gradientUnits="userSpaceOnUse"><stop offset="0"/><stop offset="0.1" stop-color="#727272"/><stop offset="0.2" stop-color="#fff"/><stop offset="0.8" stop-color="#fff"/><stop offset="0.9" stop-color="#727272"/><stop offset="1"/></linearGradient></defs><polygon class="cls-1" points="232.58 0 96.72 0 0.65 96.66 0.65 233.34 96.72 330 232.58 330 328.65 233.34 328.65 96.66 232.58 0"/><g class="cls-2"><g id="s291"><path class="cls-3" d="M88.68,204.24v-4.13" transform="translate(-12.51 -12.17)"/></g><g id="s292"><path class="cls-3" d="M88.68,200.11v-4.94" transform="translate(-12.51 -12.17)"/></g><g id="s293"><path class="cls-3" d="M92.2,207.22c-3.54.92-3.54-1.81-3.54-3" transform="translate(-12.51 -12.17)"/><path class="cls-4" d="M92.32,208l.67-1-.9-.6Z" transform="translate(-12.51 -12.17)"/></g><g id="s294"><path class="cls-3" d="M88.68,208.93v-4.69" transform="translate(-12.51 -12.17)"/><path class="cls-4" d="M88.05,208.93l.61,1.07.62-1.07Z" transform="translate(-12.51 -12.17)"/></g><g id="s295"><path class="cls-3" d="M88.68,195.17v-4.7" transform="translate(-12.51 -12.17)"/><path class="cls-4" d="M89.28,190.47l-.62-1.07-.61,1.07Z" transform="translate(-12.51 -12.17)"/></g><g id="s296"><path class="cls-3" d="M88.66,195.17c0-1.17,0-3.91,3.54-3" transform="translate(-12.51 -12.17)"/><path class="cls-4" d="M92.09,193l.9-.6-.67-1Z" transform="translate(-12.51 -12.17)"/></g><g id="s297"><path class="cls-3" d="M142.93,79.8h1.23" transform="translate(-12.51 -12.17)"/></g><g id="s298"><path class="cls-3" d="M144.16,79.8h1.23" transform="translate(-12.51 -12.17)"/></g><g id="s299"><path class="cls-3" d="M140.8,73.17c-1.1,6.63,1.15,6.63,2.11,6.63" transform="translate(-12.51 -12.17)"/></g><g id="s300"><path class="cls-3" d="M138,79.8h4.93" transform="translate(-12.51 -12.17)"/></g><g id="s301"><path class="cls-3" d="M145.37,79.8c1,0,3.21,0,2.28-5.58" transform="translate(-12.51 -12.17)"/><path class="cls-4" d="M148.26,74l-.78-.87-.43,1.23Z" transform="translate(-12.51 -12.17)"/></g><g id="s302"><path class="cls-3" d="M145.37,79.8c1.18,0,3.94,0,4.6-5.55" transform="translate(-12.51 -12.17)"/><path class="cls-4" d="M150.58,74.38l-.48-1.19-.74.93Z" transform="translate(-12.51 -12.17)"/></g><g id="s303"><path class="cls-3" d="M145.39,79.8h8.3" transform="translate(-12.51 -12.17)"/><path class="cls-4" d="M153.69,80.63l.8-.83-.8-.82Z" transform="translate(-12.51 -12.17)"/></g><g id="s304"><path class="cls-5" d="M314.85,143.54h-8.68" transform="translate(-12.51 -12.17)"/><path class="cls-4" d="M314.85,144.13l.76-.59-.76-.59Z" transform="translate(-12.51 -12.17)"/></g><g id="s305"><path class="cls-5" d="M306.17,143.54H289.22" transform="translate(-12.51 -12.17)"/><path class="cls-4" d="M289.22,143l-.76.59.76.59Z" transform="translate(-12.51 -12.17)"/></g><g id="s306"><path class="cls-5" d="M238.27,92.77V94" transform="translate(-12.51 -12.17)"/></g><g id="s307"><path class="cls-5" d="M238.27,94v3" transform="translate(-12.51 -12.17)"/></g><g id="s308"><path class="cls-5" d="M227.63,118.75c.07-38.93,10.63-30.44,10.63-26" transform="translate(-12.51 -12.17)"/></g><g id="s309"><path class="cls-5" d="M232.94,109.89c-.1-25.7,5.32-20.06,5.32-17.12" transform="translate(-12.51 -12.17)"/></g><g id="s310"><path class="cls-5" d="M238.27,85.09v7.68" transform="translate(-12.51 -12.17)"/></g><g id="s311"><path class="cls-5" d="M238.27,96.9v10.45" transform="translate(-12.51 -12.17)"/><path class="cls-4" d="M237.67,107.35l.59.77.59-.77Z" transform="translate(-12.51 -12.17)"/></g><g id="s312"><path class="cls-5" d="M238.26,96.9c-.1,11.32,13.6,12.29,13.58,21.08" transform="translate(-12.51 -12.17)"/><path class="cls-4" d="M251.25,118l.59.77.59-.77Z" transform="translate(-12.51 -12.17)"/></g><g id="s313"><path class="cls-5" d="M238.26,96.9c-.19,10,6.75,12.51,6.78,13.84" transform="translate(-12.51 -12.17)"/><path class="cls-4" d="M244.45,110.75l.61.76.57-.78Z" transform="translate(-12.51 -12.17)"/></g><g id="s314"><path class="cls-5" d="M192,224l-2.54,3.19" transform="translate(-12.51 -12.17)"/></g><g id="s315"><path class="cls-5" d="M189.49,227.14,187,231.76" transform="translate(-12.51 -12.17)"/><path class="cls-4" d="M186.47,231.48l.15,1,.88-.4Z" transform="translate(-12.51 -12.17)"/></g><g id="s316"><path class="cls-5" d="M192.45,219.58A3.33,3.33,0,0,1,192,224" transform="translate(-12.51 -12.17)"/><path class="cls-4" d="M192.93,219.23,192,219l0,1Z" transform="translate(-12.51 -12.17)"/></g><g id="s317"><path class="cls-5" d="M196.71,219.26A22.19,22.19,0,0,0,192,224" transform="translate(-12.51 -12.17)"/><path class="cls-4" d="M197,219.76l.35-.9-1-.1Z" transform="translate(-12.51 -12.17)"/></g><g id="s318"><path class="cls-5" d="M238.38,277.15l5.55-4.55" transform="translate(-12.51 -12.17)"/></g><g id="s319"><path class="cls-5" d="M243.93,272.6l3.36-3.83" transform="translate(-12.51 -12.17)"/></g><g id="s320"><path class="cls-5" d="M235,279.52a16.74,16.74,0,0,0,3.43-2.37" transform="translate(-12.51 -12.17)"/><path class="cls-4" d="M234.78,279l-.56.79.91.33Z" transform="translate(-12.51 -12.17)"/></g><g id="s321"><path class="cls-5" d="M236.66,283.72c-1.55-3.9.74-5.77,1.72-6.57" transform="translate(-12.51 -12.17)"/><path class="cls-4" d="M236.11,283.94l.83.49.26-.93Z" transform="translate(-12.51 -12.17)"/></g><g id="s322"><path class="cls-5" d="M247.29,268.77a4.27,4.27,0,0,0,.74-5.46" transform="translate(-12.51 -12.17)"/><path class="cls-4" d="M248.55,263l-.9-.37-.13,1Z" transform="translate(-12.51 -12.17)"/></g><g id="s323"><path class="cls-5" d="M247.29,268.77c.49-.56,1.62-1.85-.84-3.24" transform="translate(-12.51 -12.17)"/><path class="cls-4" d="M246.74,265l-1,.13.38.9Z" transform="translate(-12.51 -12.17)"/></g><g id="s324"><path class="cls-5" d="M247.29,268.77c1-1.17,3.41-3.89,4.2-6.66" transform="translate(-12.51 -12.17)"/><path class="cls-4" d="M252.06,262.28l-.36-.9-.78.57Z" transform="translate(-12.51 -12.17)"/></g><g id="s325"><path class="cls-6" d="M111.74,276.57h4" transform="translate(-12.51 -12.17)"/></g><g id="s326"><path class="cls-6" d="M115.74,276.57h3.69" transform="translate(-12.51 -12.17)"/></g><g id="s327"><path class="cls-6" d="M107.86,272.33c.45,4.24,2.84,4.24,3.87,4.24" transform="translate(-12.51 -12.17)"/></g><g id="s328"><path class="cls-6" d="M90.52,276.57h21.22" transform="translate(-12.51 -12.17)"/></g><g id="s329"><path class="cls-6" d="M105.64,274.87a10,10,0,0,0,6.09,1.7" transform="translate(-12.51 -12.17)"/></g><g id="s330"><path class="cls-6" d="M119.41,276.57c1,0,3.17,0,3.11-3.45" transform="translate(-12.51 -12.17)"/><path class="cls-4" d="M123.14,273.1l-.63-.78-.6.8Z" transform="translate(-12.51 -12.17)"/></g><g id="s331"><path class="cls-6" d="M119.43,276.57h7.2" transform="translate(-12.51 -12.17)"/><path class="cls-4" d="M126.63,277.17l.8-.6-.8-.61Z" transform="translate(-12.51 -12.17)"/></g><g id="s332"><path class="cls-6" d="M119.41,276.57c1.08,0,3.59,0,5-2" transform="translate(-12.51 -12.17)"/><path class="cls-4" d="M124.91,274.92l0-1-1,.3Z" transform="translate(-12.51 -12.17)"/></g><g id="s333"><path class="cls-6" d="M106.68,247.1l4.06,1.69" transform="translate(-12.51 -12.17)"/></g><g id="s334"><path class="cls-6" d="M110.74,248.79l4.86,2" transform="translate(-12.51 -12.17)"/></g><g id="s335"><path class="cls-6" d="M103.57,243.28a4.54,4.54,0,0,0,3.11,3.82" transform="translate(-12.51 -12.17)"/></g><g id="s336"><path class="cls-6" d="M90.48,242.35a67.94,67.94,0,0,1,16.2,4.75" transform="translate(-12.51 -12.17)"/></g><g id="s337"><path class="cls-6" d="M98.63,241.22a19,19,0,0,0,8.05,5.88" transform="translate(-12.51 -12.17)"/></g><g id="s338"><path class="cls-6" d="M115.6,250.79a5,5,0,0,0,6.15-1.18" transform="translate(-12.51 -12.17)"/><path class="cls-4" d="M122.2,250l.08-1-1,.18Z" transform="translate(-12.51 -12.17)"/></g><g id="s339"><path class="cls-6" d="M115.6,250.79a11.33,11.33,0,0,0,8.7.5" transform="translate(-12.51 -12.17)"/><path class="cls-4" d="M124.53,251.85,125,251l-1-.27Z" transform="translate(-12.51 -12.17)"/></g><g id="s340"><path class="cls-6" d="M115.6,250.79c29.11,11.44,66.88,10.45,69.27,11.41" transform="translate(-12.51 -12.17)"/><path class="cls-4" d="M184.64,262.76l1-.26-.51-.86Z" transform="translate(-12.51 -12.17)"/></g><g id="s341"><path class="cls-6" d="M88.68,229.55V233" transform="translate(-12.51 -12.17)"/><path class="cls-4" d="M89.28,229.55l-.62-.79-.61.79Z" transform="translate(-12.51 -12.17)"/></g><g id="s342"><path class="cls-6" d="M88.68,233v2.42" transform="translate(-12.51 -12.17)"/></g><g id="s343"><path class="cls-6" d="M88.68,235.42v4.05" transform="translate(-12.51 -12.17)"/><path class="cls-4" d="M88.05,239.47l.61.79.62-.79Z" transform="translate(-12.51 -12.17)"/></g><g id="s344"><path class="cls-6" d="M88.66,235.42c0,1,0,3.27-3.51,3.5" transform="translate(-12.51 -12.17)"/><path class="cls-4" d="M85.11,238.32l-.76.65.84.55Z" transform="translate(-12.51 -12.17)"/></g><g id="s345"><path class="cls-3" d="M88.68,83.35v7.17" transform="translate(-12.51 -12.17)"/><path class="cls-4" d="M89.28,83.35l-.62-1.08-.61,1.08Z" transform="translate(-12.51 -12.17)"/></g><g id="s346"><path class="cls-3" d="M88.68,90.52v8.81" transform="translate(-12.51 -12.17)"/><path class="cls-4" d="M88.05,99.33l.61,1.07.62-1.07Z" transform="translate(-12.51 -12.17)"/></g><g id="s349"><path class="cls-3" d="M75.15,121v-4.12" transform="translate(-12.51 -12.17)"/></g><g id="s350"><path class="cls-3" d="M75.15,116.89v-4.13" transform="translate(-12.51 -12.17)"/></g><g id="s351"><path class="cls-3" d="M71.94,127.72A7.29,7.29,0,0,0,75.13,121" transform="translate(-12.51 -12.17)"/></g><g id="s352"><path class="cls-3" d="M86.83,133.92c-11.7-1.71-11.7-9.55-11.7-12.91" transform="translate(-12.51 -12.17)"/></g><g id="s353"><path class="cls-3" d="M75.13,112.77c0-3.1,0-10.33,10.89-10" transform="translate(-12.51 -12.17)"/><path class="cls-4" d="M86,103.61l.82-.79L86,102Z" transform="translate(-12.51 -12.17)"/></g><g id="s354"><path class="cls-3" d="M75.13,112.77c0-1.59,0-5.28-3.07-7.13" transform="translate(-12.51 -12.17)"/><path class="cls-4" d="M72.31,104.89l-1,.31.48,1.19Z" transform="translate(-12.51 -12.17)"/></g><g id="s355"><path class="cls-5" d="M324,215.57h3.72" transform="translate(-12.51 -12.17)"/></g><g id="s357"><path class="cls-5" d="M232.59,278.51c0,.71.06-1.74.18-5.26" transform="translate(-12.51 -12.17)"/></g><g id="s358"><path class="cls-5" d="M232.78,273.25v-5.37" transform="translate(-12.51 -12.17)"/></g><g id="s359"><path class="cls-5" d="M232.77,267.88c0-2.72,0-9.08-11.5-11.13" transform="translate(-12.51 -12.17)"/><path class="cls-4" d="M221.38,256.17l-.86.45.65.71Z" transform="translate(-12.51 -12.17)"/></g><g id="s360"><path class="cls-5" d="M232.77,267.88c0-8,0-26.54.16-50.54" transform="translate(-12.51 -12.17)"/><path class="cls-4" d="M233.52,217.35l-.59-.77-.59.76Z" transform="translate(-12.51 -12.17)"/></g><g id="s361"><path class="cls-5" d="M275.76,116.39v3.54" transform="translate(-12.51 -12.17)"/></g><g id="s362"><path class="cls-5" d="M275.75,119.93c.05,5.45.07,10.71,2.33,13" transform="translate(-12.51 -12.17)"/><path class="cls-4" d="M277.67,133.31l1,.13-.13-1Z" transform="translate(-12.51 -12.17)"/></g><g id="s363"><path class="cls-5" d="M278.12,108.77c-2.37,2.46-2.37,6.07-2.37,7.62" transform="translate(-12.51 -12.17)"/><path class="cls-4" d="M278.55,109.18l.1-1-1,.14Z" transform="translate(-12.51 -12.17)"/></g><g id="s364"><path class="cls-5" d="M273.13,110.13c2.62,1.75,2.62,4.9,2.62,6.26" transform="translate(-12.51 -12.17)"/><path class="cls-4" d="M273.46,109.63l-1,.07.3.92Z" transform="translate(-12.51 -12.17)"/></g><g id="s367"><path class="cls-5" d="M244.83,328.75v6.91" transform="translate(-12.51 -12.17)"/><path class="cls-4" d="M245.4,328.75l-.59-.77-.59.77Z" transform="translate(-12.51 -12.17)"/></g><g id="s369"><path class="cls-3" d="M157.55,136.66l.18,3.3" transform="translate(-12.51 -12.17)"/></g><g id="s370"><path class="cls-3" d="M157.75,140v3.29" transform="translate(-12.51 -12.17)"/></g><g id="s371"><path class="cls-3" d="M166.37,130.44c-2.17,1-8.89-1.92-8.82,6.22" transform="translate(-12.51 -12.17)"/><path class="cls-4" d="M166.58,131.22l.55-1.14-1-.41Z" transform="translate(-12.51 -12.17)"/></g><g id="s372"><path class="cls-3" d="M148.27,130.31c2.46,1,9.3-1.79,9.28,6.35" transform="translate(-12.51 -12.17)"/><path class="cls-4" d="M148.45,129.53l-.95.46.58,1.11Z" transform="translate(-12.51 -12.17)"/></g><g id="s373"><path class="cls-3" d="M157.73,143.26c0,3.45,0,11.26-11.69,12.49" transform="translate(-12.51 -12.17)"/><path class="cls-4" d="M146,154.93l-.75.91.85.73Z" transform="translate(-12.51 -12.17)"/></g><g id="s374"><path class="cls-3" d="M157.73,143.26c0,3.5,0,11.14,8.72,12.19" transform="translate(-12.51 -12.17)"/><path class="cls-4" d="M166.4,156.27l.85-.72-.74-.92Z" transform="translate(-12.51 -12.17)"/></g><g id="s375"><path class="cls-6" d="M88.68,259v3" transform="translate(-12.51 -12.17)"/></g><g id="s376"><path class="cls-6" d="M88.68,262v2.42" transform="translate(-12.51 -12.17)"/></g><g id="s377"><path class="cls-6" d="M84.33,257c4.33-.82,4.33,1.19,4.33,2" transform="translate(-12.51 -12.17)"/></g><g id="s378"><path class="cls-6" d="M84.28,253.38c4.38,1.57,4.38,4.42,4.38,5.64" transform="translate(-12.51 -12.17)"/></g><g id="s379"><path class="cls-6" d="M88.68,243.89V259" transform="translate(-12.51 -12.17)"/></g><g id="s380"><path class="cls-6" d="M88.68,264.46V274" transform="translate(-12.51 -12.17)"/><path class="cls-4" d="M88.05,274l.61.78.62-.78Z" transform="translate(-12.51 -12.17)"/></g><g id="s381"><path class="cls-6" d="M88.66,264.47c0,1,0,3.44-3.53,3.95" transform="translate(-12.51 -12.17)"/><path class="cls-4" d="M85.05,267.82l-.71.71.88.48Z" transform="translate(-12.51 -12.17)"/></g><g id="s382"><path class="cls-5" d="M313.19,260.15h-7.91" transform="translate(-12.51 -12.17)"/></g><g id="s383"><path class="cls-5" d="M305.28,260.15h-6.14" transform="translate(-12.51 -12.17)"/></g><g id="s384"><path class="cls-5" d="M316.78,260.14h-3.6" transform="translate(-12.51 -12.17)"/><path class="cls-4" d="M316.79,260.73l.76-.61-.78-.57Z" transform="translate(-12.51 -12.17)"/></g><g id="s385"><path class="cls-5" d="M315.75,262.22c-.15-2.07-1.84-2.07-2.57-2.07" transform="translate(-12.51 -12.17)"/><path class="cls-4" d="M315.16,262.26l.65.72.53-.81Z" transform="translate(-12.51 -12.17)"/></g><g id="s386"><path class="cls-5" d="M299.13,260.15c-2.6,0-8.65,0-14.76-.13" transform="translate(-12.51 -12.17)"/><path class="cls-4" d="M284.38,259.43l-.78.57.76.61Z" transform="translate(-12.51 -12.17)"/></g><g id="s387"><path class="cls-5" d="M299.13,260.15c-.73,0-2.43,0-3,1.32" transform="translate(-12.51 -12.17)"/><path class="cls-4" d="M295.6,261.25l.26.93.84-.48Z" transform="translate(-12.51 -12.17)"/></g><g id="s392"><path class="cls-3" d="M154.75,82.66l-5.2,9.5" transform="translate(-12.51 -12.17)"/><path class="cls-4" d="M155.25,83.15l0-1.35-1,.37Z" transform="translate(-12.51 -12.17)"/></g><g id="s393"><path class="cls-3" d="M149.55,92.16l-4.61,8.66" transform="translate(-12.51 -12.17)"/><path class="cls-4" d="M144.44,100.34l0,1.35,1-.39Z" transform="translate(-12.51 -12.17)"/></g><g id="s394"><path class="cls-5" d="M319.91,177.16l5.49,0" transform="translate(-12.51 -12.17)"/><path class="cls-4" d="M319.93,176.57l-.77.58.76.6Z" transform="translate(-12.51 -12.17)"/></g><g id="s396"><path class="cls-5" d="M242.86,221.24l2.54,2.6" transform="translate(-12.51 -12.17)"/></g><g id="s397"><path class="cls-5" d="M245.4,223.84l2.07,2.54" transform="translate(-12.51 -12.17)"/></g><g id="s398"><path class="cls-5" d="M237.14,219.63a5.05,5.05,0,0,1,5.72,1.61" transform="translate(-12.51 -12.17)"/><path class="cls-4" d="M236.94,219.07l-.52.82.92.29Z" transform="translate(-12.51 -12.17)"/></g><g id="s399"><path class="cls-5" d="M238.63,222.74c2.1-3.68,3.59-2.15,4.23-1.5" transform="translate(-12.51 -12.17)"/><path class="cls-4" d="M238.12,222.44l.13,1,.9-.37Z" transform="translate(-12.51 -12.17)"/></g><g id="s400"><path class="cls-5" d="M235.32,215.71c3.41,1.3,6.3,4.26,7.54,5.53" transform="translate(-12.51 -12.17)"/><path class="cls-4" d="M235.53,215.16l-.93.28.51.82Z" transform="translate(-12.51 -12.17)"/></g><g id="s401"><path class="cls-5" d="M247.47,226.38c.72.88,2.39,2.94,6,.41" transform="translate(-12.51 -12.17)"/><path class="cls-4" d="M253.78,227.27l.28-.92-1,0Z" transform="translate(-12.51 -12.17)"/></g><g id="s402"><path class="cls-5" d="M247.47,226.38a22.13,22.13,0,0,1,3.45,5.28" transform="translate(-12.51 -12.17)"/><path class="cls-4" d="M250.36,231.86l.82.52.3-.92Z" transform="translate(-12.51 -12.17)"/></g><g id="s403"><path class="cls-5" d="M247.47,226.38c.64.78,2.14,2.63,4.09,2.88" transform="translate(-12.51 -12.17)"/><path class="cls-4" d="M251.48,229.84l.84-.49-.69-.68Z" transform="translate(-12.51 -12.17)"/></g><g id="s404"><path class="cls-3" d="M88.68,114.82v3.71" transform="translate(-12.51 -12.17)"/></g><g id="s405"><path class="cls-3" d="M88.68,118.53v3.3" transform="translate(-12.51 -12.17)"/></g><g id="s406"><path class="cls-3" d="M88.68,105.35v9.47" transform="translate(-12.51 -12.17)"/></g><g id="s407"><path class="cls-3" d="M93,111c-4.31-.34-4.31,2.56-4.31,3.81" transform="translate(-12.51 -12.17)"/></g><g id="s408"><path class="cls-3" d="M88.66,121.83c0,1.17,0,3.91,3.54,3" transform="translate(-12.51 -12.17)"/><path class="cls-4" d="M92.32,125.63l.67-1-.9-.61Z" transform="translate(-12.51 -12.17)"/></g><g id="s409"><path class="cls-3" d="M88.68,121.83v8.82" transform="translate(-12.51 -12.17)"/><path class="cls-4" d="M88.05,130.65l.61,1.07.62-1.07Z" transform="translate(-12.51 -12.17)"/></g><g id="s410"><path class="cls-3" d="M88.66,121.83c0,1.49,0,5,3.55,6" transform="translate(-12.51 -12.17)"/><path class="cls-4" d="M92.08,128.64l.92-.57-.65-1Z" transform="translate(-12.51 -12.17)"/></g><g id="s411"><path class="cls-5" d="M321.09,260.11l6,.09" transform="translate(-12.51 -12.17)"/></g><g id="s413"><path class="cls-3" d="M128,118.53H117.58" transform="translate(-12.51 -12.17)"/></g><g id="s414"><path class="cls-3" d="M117.58,118.53H110.2" transform="translate(-12.51 -12.17)"/></g><g id="s415"><path class="cls-3" d="M143.46,152.49c.53-34-10.65-34-15.44-34" transform="translate(-12.51 -12.17)"/><path class="cls-4" d="M142.84,152.47l.6,1.09.63-1.06Z" transform="translate(-12.51 -12.17)"/></g><g id="s416"><path class="cls-3" d="M142.16,106.83c-4.66,11.7-11.29,11.7-14.14,11.7" transform="translate(-12.51 -12.17)"/><path class="cls-4" d="M142.7,107.21l-.17-1.33-.92.56Z" transform="translate(-12.51 -12.17)"/></g><g id="s417"><path class="cls-3" d="M110.19,118.53c-10.41.53-7.66-12.16-18.93-15" transform="translate(-12.51 -12.17)"/><path class="cls-4" d="M91.37,102.72l-.9.61.68,1Z" transform="translate(-12.51 -12.17)"/></g><g id="s418"><path class="cls-3" d="M110.19,118.53c-5.33,0-5.68,0-20.24,34.82" transform="translate(-12.51 -12.17)"/><path class="cls-4" d="M89.42,153l.14,1.33.93-.53Z" transform="translate(-12.51 -12.17)"/></g><g id="s419"><path class="cls-5" d="M288.69,272.78V274" transform="translate(-12.51 -12.17)"/></g><g id="s420"><path class="cls-5" d="M288.69,274v1.18" transform="translate(-12.51 -12.17)"/></g><g id="s421"><path class="cls-5" d="M283.21,261.08a13.86,13.86,0,0,1,5.47,11.7" transform="translate(-12.51 -12.17)"/></g><g id="s422"><path class="cls-5" d="M292.08,267.71c-3.4,1.5-3.4,4-3.4,5.07" transform="translate(-12.51 -12.17)"/></g><g id="s423"><path class="cls-5" d="M292,270.18c-3.3,0-3.3,1.82-3.3,2.6" transform="translate(-12.51 -12.17)"/></g><g id="s424"><path class="cls-5" d="M288.68,275.14a12.11,12.11,0,0,1-4.92,10.6" transform="translate(-12.51 -12.17)"/><path class="cls-4" d="M283.41,285.27l-.27.93,1,0Z" transform="translate(-12.51 -12.17)"/></g><g id="s425"><path class="cls-5" d="M288.68,275.14a3,3,0,0,0,2.24,3.37" transform="translate(-12.51 -12.17)"/><path class="cls-4" d="M290.78,279.09l.88-.39-.6-.76Z" transform="translate(-12.51 -12.17)"/></g><g id="s426"><path class="cls-5" d="M288.68,275.14c0,1.19,0,4,2.52,5.69" transform="translate(-12.51 -12.17)"/><path class="cls-4" d="M290.87,281.32l1-.05-.3-.92Z" transform="translate(-12.51 -12.17)"/></g><g id="s427"><path class="cls-5" d="M288.68,275.14a11.71,11.71,0,0,0,2.8,8.32" transform="translate(-12.51 -12.17)"/><path class="cls-4" d="M291.05,283.86l1,.16-.09-1Z" transform="translate(-12.51 -12.17)"/></g><g id="s434"><path class="cls-5" d="M241.82,120.52h-3" transform="translate(-12.51 -12.17)"/></g><g id="s435"><path class="cls-5" d="M238.86,120.52h-3" transform="translate(-12.51 -12.17)"/></g><g id="s436"><path class="cls-5" d="M245.11,115.05c.06,5.47-2,5.47-3.31,5.47" transform="translate(-12.51 -12.17)"/></g><g id="s437"><path class="cls-5" d="M250.08,120.52h-8.26" transform="translate(-12.51 -12.17)"/></g><g id="s438"><path class="cls-5" d="M235.91,120.52h-5.72" transform="translate(-12.51 -12.17)"/><path class="cls-4" d="M230.19,119.93l-.77.59.77.59Z" transform="translate(-12.51 -12.17)"/></g><g id="s439"><path class="cls-5" d="M235.9,120.52c-1.4,0-3.05,0-3-6.32" transform="translate(-12.51 -12.17)"/><path class="cls-4" d="M233.51,114.21l-.58-.77-.6.76Z" transform="translate(-12.51 -12.17)"/></g><g id="s440"><path class="cls-5" d="M254.2,251l.18-4.6" transform="translate(-12.51 -12.17)"/></g><g id="s441"><path class="cls-5" d="M254.38,246.39l-.42-4.25" transform="translate(-12.51 -12.17)"/></g><g id="s442"><path class="cls-5" d="M252.9,258.05a20.3,20.3,0,0,0,1.3-7.06" transform="translate(-12.51 -12.17)"/></g><g id="s443"><path class="cls-5" d="M249.68,252.82c4.41,1.11,4.49-.95,4.52-1.83" transform="translate(-12.51 -12.17)"/></g><g id="s444"><path class="cls-5" d="M249.69,255.4c4.37-.76,4.47-3.31,4.51-4.41" transform="translate(-12.51 -12.17)"/></g><g id="s445"><path class="cls-5" d="M254,242.14a21.85,21.85,0,0,0-1.13-5.78" transform="translate(-12.51 -12.17)"/><path class="cls-4" d="M253.37,236.12l-.86-.46-.22,1Z" transform="translate(-12.51 -12.17)"/></g><g id="s446"><path class="cls-5" d="M254,242.14c-.09-.94-.3-3.12,3.73-2.81" transform="translate(-12.51 -12.17)"/><path class="cls-4" d="M257.64,239.92l.81-.53-.72-.65Z" transform="translate(-12.51 -12.17)"/></g><g id="s447"><path class="cls-5" d="M254,242.14c-.09-.94-.3-3.13,1.15-4.43" transform="translate(-12.51 -12.17)"/><path class="cls-4" d="M255.5,238.15l.18-1-1,.07Z" transform="translate(-12.51 -12.17)"/></g><g id="s448"><path class="cls-6" d="M101,279.59h4.92" transform="translate(-12.51 -12.17)"/></g><g id="s449"><path class="cls-6" d="M105.9,279.59h4.92" transform="translate(-12.51 -12.17)"/></g><g id="s450"><path class="cls-6" d="M96.18,281.66a5.63,5.63,0,0,1,4.78-2.07" transform="translate(-12.51 -12.17)"/></g><g id="s451"><path class="cls-6" d="M90.3,277.4A23.25,23.25,0,0,0,101,279.59" transform="translate(-12.51 -12.17)"/></g><g id="s452"><path class="cls-6" d="M110.8,279.59a50.67,50.67,0,0,0,16-2.19" transform="translate(-12.51 -12.17)"/><path class="cls-4" d="M127,278l.56-.82-1-.32Z" transform="translate(-12.51 -12.17)"/></g><g id="s453"><path class="cls-6" d="M110.8,279.59c1,0,3.38,0,3,3.47" transform="translate(-12.51 -12.17)"/><path class="cls-4" d="M113.22,283l.53.84.69-.73Z" transform="translate(-12.51 -12.17)"/></g><g id="s454"><path class="cls-5" d="M319.92,143.54h4.55" transform="translate(-12.51 -12.17)"/><path class="cls-4" d="M319.92,143l-.76.59.76.59Z" transform="translate(-12.51 -12.17)"/></g><g id="s456"><path class="cls-6" d="M115.11,252.91l-5-1.7" transform="translate(-12.51 -12.17)"/></g><g id="s457"><path class="cls-6" d="M110.13,251.21l-4.25-1.39" transform="translate(-12.51 -12.17)"/></g><g id="s458"><path class="cls-6" d="M116.64,256c.61-2.39-.89-2.9-1.53-3.12" transform="translate(-12.51 -12.17)"/></g><g id="s459"><path class="cls-6" d="M185.53,263.64c-6.66,1.67-53.64-3.18-70.42-10.73" transform="translate(-12.51 -12.17)"/></g><g id="s460"><path class="cls-6" d="M105.88,249.82c-.57-.19-1.9-.62-2.38.67" transform="translate(-12.51 -12.17)"/><path class="cls-4" d="M102.92,250.28l.31.95.85-.54Z" transform="translate(-12.51 -12.17)"/></g><g id="s461"><path class="cls-6" d="M105.88,249.82c-1-.35-3.52-1.15-5.56-.16" transform="translate(-12.51 -12.17)"/><path class="cls-4" d="M100.05,249.12l-.45.89,1,.19Z" transform="translate(-12.51 -12.17)"/></g><g id="s462"><path class="cls-6" d="M105.88,249.82a77.74,77.74,0,0,1-14.94-6.42" transform="translate(-12.51 -12.17)"/><path class="cls-4" d="M91.25,242.88l-1,.12.37.92Z" transform="translate(-12.51 -12.17)"/></g><g id="s463"><path class="cls-5" d="M201.08,324.5v-8.56" transform="translate(-12.51 -12.17)"/></g><g id="s464"><path class="cls-5" d="M201.08,315.94V312.4" transform="translate(-12.51 -12.17)"/></g><g id="s465"><path class="cls-5" d="M201.08,328.69V324.5" transform="translate(-12.51 -12.17)"/><path class="cls-4" d="M200.47,328.69l.59.77.59-.77Z" transform="translate(-12.51 -12.17)"/></g><g id="s466"><path class="cls-5" d="M197.88,327.58c3.18-.07,3.18-2.18,3.18-3.08" transform="translate(-12.51 -12.17)"/><path class="cls-4" d="M197.86,327l-.75.61.78.57Z" transform="translate(-12.51 -12.17)"/></g><g id="s467"><path class="cls-5" d="M201.06,312.4c0-1,0-3.26-3.2-3.74" transform="translate(-12.51 -12.17)"/><path class="cls-4" d="M197.94,308.08l-.84.47.67.7Z" transform="translate(-12.51 -12.17)"/></g><g id="s468"><path class="cls-5" d="M201.08,312.4v-2.78" transform="translate(-12.51 -12.17)"/><path class="cls-4" d="M201.65,309.62l-.59-.77-.59.77Z" transform="translate(-12.51 -12.17)"/></g><g id="s469"><path class="cls-5" d="M314,236.12h-7.67" transform="translate(-12.51 -12.17)"/></g><g id="s470"><path class="cls-5" d="M306.29,236.12h-9.45" transform="translate(-12.51 -12.17)"/></g><g id="s471"><path class="cls-5" d="M319.1,236.12H314" transform="translate(-12.51 -12.17)"/><path class="cls-4" d="M319.1,236.71l.77-.59-.77-.59Z" transform="translate(-12.51 -12.17)"/></g><g id="s472"><path class="cls-5" d="M316.61,239.67c.35-3.55-1.76-3.55-2.66-3.55" transform="translate(-12.51 -12.17)"/><path class="cls-4" d="M316,239.61l.51.82.66-.7Z" transform="translate(-12.51 -12.17)"/></g><g id="s473"><path class="cls-5" d="M296.83,236.12c-7.58,0-25.24,0-43,21.59" transform="translate(-12.51 -12.17)"/><path class="cls-4" d="M253.35,257.34l0,1,.94-.22Z" transform="translate(-12.51 -12.17)"/></g><g id="s474"><path class="cls-5" d="M296.83,236.12c-.93,0-3.09,0-2.2,4" transform="translate(-12.51 -12.17)"/><path class="cls-4" d="M294.06,240.25l.74.62.41-.88Z" transform="translate(-12.51 -12.17)"/></g><g id="s53"><path class="cls-3" d="M88.68,140v4.12" transform="translate(-12.51 -12.17)"/></g><g id="s54"><path class="cls-3" d="M88.68,144.08v8.82" transform="translate(-12.51 -12.17)"/><path class="cls-4" d="M88.05,152.9l.61,1.07.62-1.07Z" transform="translate(-12.51 -12.17)"/></g><g id="s55"><path class="cls-3" d="M88.66,144.08c0,3.09-7.71,3-10.85,9.4" transform="translate(-12.51 -12.17)"/><path class="cls-4" d="M77.3,153l.07,1.35.95-.44Z" transform="translate(-12.51 -12.17)"/></g><g id="s475"><path class="cls-3" d="M88.68,137.73V140" transform="translate(-12.51 -12.17)"/><path class="cls-4" d="M89.28,137.73l-.62-1.07-.61,1.07Z" transform="translate(-12.51 -12.17)"/></g><g id="s56"><path class="cls-3" d="M79,156.44h3.51" transform="translate(-12.51 -12.17)"/><path class="cls-4" d="M79,155.62l-.8.82.8.82Z" transform="translate(-12.51 -12.17)"/></g><g id="s57"><path class="cls-3" d="M82.53,156.44H86" transform="translate(-12.51 -12.17)"/><path class="cls-4" d="M86,157.26l.8-.82-.8-.82Z" transform="translate(-12.51 -12.17)"/></g><g id="s58"><path class="cls-5" d="M304.4,157.71h1.77" transform="translate(-12.51 -12.17)"/></g><g id="s59"><path class="cls-5" d="M306.17,157.71h1.77" transform="translate(-12.51 -12.17)"/></g><g id="s60"><path class="cls-5" d="M286.18,157.43c5.61,0,16.17.28,18.2.28" transform="translate(-12.51 -12.17)"/></g><g id="s61"><path class="cls-5" d="M287.4,145.16c5.64,12.55,13.58,12.55,17,12.55" transform="translate(-12.51 -12.17)"/></g><g id="s62"><path class="cls-5" d="M296.5,174.41c-7.58-17.27,5-16.7,7.88-16.7" transform="translate(-12.51 -12.17)"/></g><g id="s63"><path class="cls-5" d="M307.92,157.71c1.53,0,9,.19,4.72,16.15" transform="translate(-12.51 -12.17)"/><path class="cls-4" d="M312.07,173.71l.37.89.77-.59Z" transform="translate(-12.51 -12.17)"/></g><g id="s64"><path class="cls-5" d="M307.94,157.71H316" transform="translate(-12.51 -12.17)"/><path class="cls-4" d="M316,158.3l.77-.59-.77-.59Z" transform="translate(-12.51 -12.17)"/></g><g id="s65"><path class="cls-5" d="M307.92,157.71c7.75.1,11.49-8.37-12.86-8.22" transform="translate(-12.51 -12.17)"/><path class="cls-4" d="M295.06,148.9l-.76.6.77.58Z" transform="translate(-12.51 -12.17)"/></g><g id="s66"><path class="cls-3" d="M170.81,101c.69,1-1.76-2.7-5.27-8.05" transform="translate(-12.51 -12.17)"/><path class="cls-4" d="M170.35,101.58l1,.26-.07-1.35Z" transform="translate(-12.51 -12.17)"/></g><g id="s67"><path class="cls-3" d="M165.54,93l-7.41-10.6" transform="translate(-12.51 -12.17)"/><path class="cls-4" d="M158.58,81.82l-1-.21.1,1.34Z" transform="translate(-12.51 -12.17)"/></g><g id="s68"><path class="cls-5" d="M207.79,248.93l-4.9-3.37" transform="translate(-12.51 -12.17)"/></g><g id="s69"><path class="cls-5" d="M202.89,245.56l-4-2.77" transform="translate(-12.51 -12.17)"/></g><g id="s70"><path class="cls-5" d="M217.3,255.34c-4.05-2.67-7.87-5.29-9.51-6.41" transform="translate(-12.51 -12.17)"/></g><g id="s71"><path class="cls-5" d="M213.61,247.31c-2.92,3.61-5,2.22-5.82,1.62" transform="translate(-12.51 -12.17)"/></g><g id="s72"><path class="cls-5" d="M217,251.18a12.11,12.11,0,0,1-9.23-2.25" transform="translate(-12.51 -12.17)"/></g><g id="s73"><path class="cls-5" d="M198.88,242.79c-.91-.63-3-2.09.33-5.71" transform="translate(-12.51 -12.17)"/><path class="cls-4" d="M199.65,237.48l.08-1-.95.17Z" transform="translate(-12.51 -12.17)"/></g><g id="s74"><path class="cls-5" d="M198.88,242.79a8.17,8.17,0,0,1-3.92-8.28" transform="translate(-12.51 -12.17)"/><path class="cls-4" d="M195.54,234.57l-.5-.82-.67.7Z" transform="translate(-12.51 -12.17)"/></g><g id="s75"><path class="cls-5" d="M198.88,242.79c-1.95-1.35-6.49-4.49-11-7.41" transform="translate(-12.51 -12.17)"/><path class="cls-4" d="M188.22,234.88l-1,.08.32.91Z" transform="translate(-12.51 -12.17)"/></g><g id="s76"><path class="cls-6" d="M129.27,283.83V285" transform="translate(-12.51 -12.17)"/></g><g id="s77"><path class="cls-6" d="M129.27,285v1.21" transform="translate(-12.51 -12.17)"/></g><g id="s78"><path class="cls-6" d="M129.27,279.17v4.66" transform="translate(-12.51 -12.17)"/><path class="cls-4" d="M129.87,279.17l-.61-.79-.62.79Z" transform="translate(-12.51 -12.17)"/></g><g id="s79"><path class="cls-6" d="M133.42,281.58c-4.16-.91-4.16,1.3-4.16,2.25" transform="translate(-12.51 -12.17)"/><path class="cls-4" d="M133.29,282.17l.91-.42-.64-.76Z" transform="translate(-12.51 -12.17)"/></g><g id="s80"><path class="cls-6" d="M129.27,286.25v1.63" transform="translate(-12.51 -12.17)"/><path class="cls-4" d="M128.64,287.88l.62.79.61-.79Z" transform="translate(-12.51 -12.17)"/></g><g id="s81"><path class="cls-6" d="M129.26,286.25c0,.95,0,3.16,4.16,2.25" transform="translate(-12.51 -12.17)"/><path class="cls-4" d="M133.56,289.09l.64-.76-.91-.42Z" transform="translate(-12.51 -12.17)"/></g><g id="s91"><path class="cls-6" d="M165.85,239.35l-3.69,1.82" transform="translate(-12.51 -12.17)"/></g><g id="s92"><path class="cls-6" d="M162.16,241.17,158.47,243" transform="translate(-12.51 -12.17)"/></g><g id="s93"><path class="cls-6" d="M183.26,231.66c-8,3.09-14.6,6.31-17.41,7.69" transform="translate(-12.51 -12.17)"/></g><g id="s94"><path class="cls-6" d="M169,233.9c.18,3.82-2.14,5-3.14,5.45" transform="translate(-12.51 -12.17)"/></g><g id="s95"><path class="cls-6" d="M158.47,243c-10.43,5.13-66,29.1-68.11,31.59" transform="translate(-12.51 -12.17)"/><path class="cls-4" d="M89.89,274.19l0,1,1-.22Z" transform="translate(-12.51 -12.17)"/></g><g id="s96"><path class="cls-6" d="M158.47,243a15,15,0,0,1-6,1.81" transform="translate(-12.51 -12.17)"/><path class="cls-4" d="M152.52,244.19l-.8.61.8.6Z" transform="translate(-12.51 -12.17)"/></g><g id="s97"><path class="cls-6" d="M158.47,243c-.92.46-3.07,1.52-5.14,0" transform="translate(-12.51 -12.17)"/><path class="cls-4" d="M153.7,242.5h-1l.27,1Z" transform="translate(-12.51 -12.17)"/></g><g id="s98"><path class="cls-3" d="M103,79.8h1.23" transform="translate(-12.51 -12.17)"/></g><g id="s99"><path class="cls-3" d="M104.18,79.8h1.23" transform="translate(-12.51 -12.17)"/></g><g id="s100"><path class="cls-3" d="M100.62,73.8c-1.05,6,1.3,6,2.31,6" transform="translate(-12.51 -12.17)"/><path class="cls-4" d="M101.22,74l-.42-1.24-.78.86Z" transform="translate(-12.51 -12.17)"/></g><g id="s101"><path class="cls-3" d="M91.32,79.8H103" transform="translate(-12.51 -12.17)"/><path class="cls-4" d="M91.32,79l-.8.82.8.83Z" transform="translate(-12.51 -12.17)"/></g><g id="s102"><path class="cls-3" d="M105.39,79.8c1.22,0,4.06,0,4.65-6" transform="translate(-12.51 -12.17)"/><path class="cls-4" d="M110.65,74l-.5-1.17-.72,1Z" transform="translate(-12.51 -12.17)"/></g><g id="s103"><path class="cls-3" d="M105.39,79.8c1,0,3.36,0,2.31-6" transform="translate(-12.51 -12.17)"/><path class="cls-4" d="M108.3,73.61l-.78-.86L107.1,74Z" transform="translate(-12.51 -12.17)"/></g><g id="s104"><path class="cls-3" d="M105.41,79.8h8.42" transform="translate(-12.51 -12.17)"/><path class="cls-4" d="M113.83,80.63l.8-.83-.8-.82Z" transform="translate(-12.51 -12.17)"/></g><g id="s105"><path class="cls-6" d="M129.27,332.84v3.64" transform="translate(-12.51 -12.17)"/></g><g id="s107"><path class="cls-5" d="M281.79,274.43v-1.18" transform="translate(-12.51 -12.17)"/></g><g id="s108"><path class="cls-5" d="M281.79,273.25v-2.48" transform="translate(-12.51 -12.17)"/></g><g id="s109"><path class="cls-5" d="M280.1,277.61a3.25,3.25,0,0,0,1.67-3.18" transform="translate(-12.51 -12.17)"/></g><g id="s110"><path class="cls-5" d="M281.73,285.47c0-4.63,0-9.12,0-11" transform="translate(-12.51 -12.17)"/></g><g id="s111"><path class="cls-5" d="M281.77,270.77c0-.67,0-2.23-1.31-2.6" transform="translate(-12.51 -12.17)"/><path class="cls-4" d="M280.62,267.6l-.9.36.58.78Z" transform="translate(-12.51 -12.17)"/></g><g id="s112"><path class="cls-5" d="M281.77,270.77c0-1.62,0-5.4,0-8.26" transform="translate(-12.51 -12.17)"/><path class="cls-4" d="M282.39,262.52l-.58-.77-.6.76Z" transform="translate(-12.51 -12.17)"/></g><g id="s113"><path class="cls-5" d="M279.9,116.39v3.54" transform="translate(-12.51 -12.17)"/></g><g id="s114"><path class="cls-5" d="M279.9,119.93v5.31" transform="translate(-12.51 -12.17)"/></g><g id="s115"><path class="cls-5" d="M279.9,108.71v7.68" transform="translate(-12.51 -12.17)"/></g><g id="s116"><path class="cls-5" d="M282.29,113.18a3,3,0,0,0-2.41,3.21" transform="translate(-12.51 -12.17)"/></g><g id="s117"><path class="cls-5" d="M279.88,125.24a5.19,5.19,0,0,0,2.43,5" transform="translate(-12.51 -12.17)"/><path class="cls-4" d="M282,130.71l1-.14-.38-.89Z" transform="translate(-12.51 -12.17)"/></g><g id="s118"><path class="cls-5" d="M279.88,125.24c0,.68,0,2.25,2.2,2" transform="translate(-12.51 -12.17)"/><path class="cls-4" d="M282.15,127.82l.69-.67-.83-.5Z" transform="translate(-12.51 -12.17)"/></g><g id="s119"><path class="cls-5" d="M279.9,125.24v6.91" transform="translate(-12.51 -12.17)"/><path class="cls-4" d="M279.29,132.15l.59.77.59-.77Z" transform="translate(-12.51 -12.17)"/></g><g id="s120"><path class="cls-6" d="M88.68,293.51v-3" transform="translate(-12.51 -12.17)"/></g><g id="s121"><path class="cls-6" d="M88.68,290.49v-3" transform="translate(-12.51 -12.17)"/></g><g id="s122"><path class="cls-6" d="M84.49,295.76c4.17.91,4.17-1.3,4.17-2.25" transform="translate(-12.51 -12.17)"/><path class="cls-4" d="M84.63,295.17l-.92.42.65.76Z" transform="translate(-12.51 -12.17)"/></g><g id="s123"><path class="cls-6" d="M88.68,298.17v-4.66" transform="translate(-12.51 -12.17)"/><path class="cls-4" d="M88.05,298.17l.61.79.62-.79Z" transform="translate(-12.51 -12.17)"/></g><g id="s124"><path class="cls-6" d="M88.66,287.46c0-1.16,0-3.87-4.15-4.53" transform="translate(-12.51 -12.17)"/><path class="cls-4" d="M84.61,282.34l-.88.47.69.72Z" transform="translate(-12.51 -12.17)"/></g><g id="s125"><path class="cls-6" d="M88.68,287.46v-8.29" transform="translate(-12.51 -12.17)"/><path class="cls-4" d="M89.28,279.17l-.62-.79-.61.79Z" transform="translate(-12.51 -12.17)"/></g><g id="s126"><path class="cls-6" d="M88.66,287.46c0-.95,0-3.16-4.17-2.25" transform="translate(-12.51 -12.17)"/><path class="cls-4" d="M84.36,284.62l-.65.76.92.42Z" transform="translate(-12.51 -12.17)"/></g><g id="s127"><path class="cls-5" d="M183.47,242.79l-.29,3.72" transform="translate(-12.51 -12.17)"/></g><g id="s128"><path class="cls-5" d="M183.18,246.51l0,3.07" transform="translate(-12.51 -12.17)"/></g><g id="s129"><path class="cls-5" d="M184.72,236.3a22.29,22.29,0,0,0-1.25,6.49" transform="translate(-12.51 -12.17)"/><path class="cls-4" d="M185.26,236.55l-.22-1-.86.46Z" transform="translate(-12.51 -12.17)"/></g><g id="s130"><path class="cls-5" d="M186.75,240.61c-3.06-.57-3.21,1.35-3.28,2.18" transform="translate(-12.51 -12.17)"/><path class="cls-4" d="M186.64,241.19l.86-.45-.64-.71Z" transform="translate(-12.51 -12.17)"/></g><g id="s131"><path class="cls-5" d="M183.23,249.58a6.9,6.9,0,0,0,4.26,6.79" transform="translate(-12.51 -12.17)"/><path class="cls-4" d="M187.24,256.91l.95-.21-.45-.86Z" transform="translate(-12.51 -12.17)"/></g><g id="s132"><path class="cls-5" d="M183.23,249.58a2.73,2.73,0,0,0,2.9,3.07" transform="translate(-12.51 -12.17)"/><path class="cls-4" d="M186.09,253.24l.81-.55-.73-.63Z" transform="translate(-12.51 -12.17)"/></g><g id="s133"><path class="cls-5" d="M183.23,249.58c.05,2.48.16,8.26,3.46,13.65" transform="translate(-12.51 -12.17)"/><path class="cls-4" d="M186.19,263.54l.9.35.11-1Z" transform="translate(-12.51 -12.17)"/></g><g id="s134"><path class="cls-5" d="M223.34,323.67v-5.73" transform="translate(-12.51 -12.17)"/><path class="cls-4" d="M222.73,323.67l.59.77.59-.77Z" transform="translate(-12.51 -12.17)"/></g><g id="s135"><path class="cls-5" d="M223.34,317.94v-8.08" transform="translate(-12.51 -12.17)"/><path class="cls-4" d="M223.91,309.86l-.59-.77-.59.77Z" transform="translate(-12.51 -12.17)"/></g><g id="s136"><path class="cls-5" d="M223.34,328.75v7.5" transform="translate(-12.51 -12.17)"/><path class="cls-4" d="M223.91,328.75l-.59-.77-.59.77Z" transform="translate(-12.51 -12.17)"/></g><g id="s138"><path class="cls-3" d="M157.56,111.12v4.12" transform="translate(-12.51 -12.17)"/></g><g id="s139"><path class="cls-3" d="M157.56,115.24v3.29" transform="translate(-12.51 -12.17)"/></g><g id="s140"><path class="cls-3" d="M169.91,103.74c-12.56.19-12.36,4.16-12.36,7.38" transform="translate(-12.51 -12.17)"/><path class="cls-4" d="M169.94,104.56l.79-.83-.8-.81Z" transform="translate(-12.51 -12.17)"/></g><g id="s141"><path class="cls-3" d="M146.05,103.75c11.3.2,11.5,4.31,11.5,7.37" transform="translate(-12.51 -12.17)"/><path class="cls-4" d="M146.08,102.92l-.81.81.79.84Z" transform="translate(-12.51 -12.17)"/></g><g id="s142"><path class="cls-3" d="M157.55,118.53c-.1,7.32-6.44,6.7-9.5,9" transform="translate(-12.51 -12.17)"/><path class="cls-4" d="M147.75,126.8l-.4,1.24,1,.2Z" transform="translate(-12.51 -12.17)"/></g><g id="s143"><path class="cls-3" d="M157.55,118.53c0,7.19,7.51,7.1,9.16,8.66" transform="translate(-12.51 -12.17)"/><path class="cls-4" d="M166.35,127.87l1-.06-.3-1.29Z" transform="translate(-12.51 -12.17)"/></g><g id="s144"><path class="cls-5" d="M244.83,323.67v-6.32" transform="translate(-12.51 -12.17)"/><path class="cls-4" d="M244.22,323.67l.59.77.59-.77Z" transform="translate(-12.51 -12.17)"/></g><g id="s145"><path class="cls-5" d="M244.83,317.35v-7.49" transform="translate(-12.51 -12.17)"/><path class="cls-4" d="M245.4,309.86l-.59-.77-.59.77Z" transform="translate(-12.51 -12.17)"/></g><g id="s146"><path class="cls-5" d="M323.41,236.12h4.72" transform="translate(-12.51 -12.17)"/></g><g id="s148"><path class="cls-6" d="M75.15,268.1v-9.69" transform="translate(-12.51 -12.17)"/></g><g id="s149"><path class="cls-6" d="M75.15,258.41v-7.26" transform="translate(-12.51 -12.17)"/></g><g id="s150"><path class="cls-6" d="M70.21,271.19c4.92.29,4.92-2.08,4.92-3.09" transform="translate(-12.51 -12.17)"/></g><g id="s151"><path class="cls-6" d="M86.82,276.49c-11.69-.5-11.69-6-11.69-8.39" transform="translate(-12.51 -12.17)"/></g><g id="s152"><path class="cls-6" d="M70.08,268.64c5,2.48,5,.36,5-.54" transform="translate(-12.51 -12.17)"/></g><g id="s153"><path class="cls-6" d="M75.13,251.15c0-2.41,0-8.05,10.89-8.88" transform="translate(-12.51 -12.17)"/><path class="cls-4" d="M86.07,242.88l.75-.67-.84-.54Z" transform="translate(-12.51 -12.17)"/></g><g id="s154"><path class="cls-6" d="M75.13,251.15c0-1,0-3.38-4.12-3.14" transform="translate(-12.51 -12.17)"/><path class="cls-4" d="M71,247.41l-.76.65.83.55Z" transform="translate(-12.51 -12.17)"/></g><g id="s155"><path class="cls-6" d="M75.13,251.15c0-.91,0-3-4.34-.89" transform="translate(-12.51 -12.17)"/><path class="cls-4" d="M70.52,249.72l-.44.89,1,.19Z" transform="translate(-12.51 -12.17)"/></g><g id="s156"><path class="cls-6" d="M75.13,251.15c0-1.28,0-4.28-4.2-5.49" transform="translate(-12.51 -12.17)"/><path class="cls-4" d="M71.1,245.08l-.94.36.59.8Z" transform="translate(-12.51 -12.17)"/></g><g id="s159"><path class="cls-5" d="M178.64,324.79V314.17" transform="translate(-12.51 -12.17)"/></g><g id="s160"><path class="cls-5" d="M178.64,314.17v-7.09" transform="translate(-12.51 -12.17)"/></g><g id="s161"><path class="cls-5" d="M182.63,327c-4,.89-4-1.27-4-2.2" transform="translate(-12.51 -12.17)"/><path class="cls-4" d="M182.76,327.56l.62-.74-.88-.41Z" transform="translate(-12.51 -12.17)"/></g><g id="s162"><path class="cls-5" d="M178.64,328.16v-3.37" transform="translate(-12.51 -12.17)"/><path class="cls-4" d="M178,328.16l.59.77.59-.77Z" transform="translate(-12.51 -12.17)"/></g><g id="s163"><path class="cls-5" d="M178.63,307.08c0-.92,0-3.08,4-2.19" transform="translate(-12.51 -12.17)"/><path class="cls-4" d="M182.5,305.46l.88-.41-.62-.74Z" transform="translate(-12.51 -12.17)"/></g><g id="s164"><path class="cls-5" d="M178.63,307.08c0-1.79,0-6,0-9.39" transform="translate(-12.51 -12.17)"/><path class="cls-4" d="M179.25,297.71l-.58-.78-.6.76Z" transform="translate(-12.51 -12.17)"/></g><g id="s165"><path class="cls-6" d="M88.68,224.35v-5.27" transform="translate(-12.51 -12.17)"/><path class="cls-4" d="M88.05,224.35l.61.78.62-.78Z" transform="translate(-12.51 -12.17)"/></g><g id="s166"><path class="cls-6" d="M88.68,219.08v-4.66" transform="translate(-12.51 -12.17)"/><path class="cls-4" d="M89.28,214.42l-.62-.79-.61.79Z" transform="translate(-12.51 -12.17)"/></g><g id="s167"><path class="cls-5" d="M178.64,332.47v4.6" transform="translate(-12.51 -12.17)"/></g><g id="s169"><path class="cls-6" d="M129.27,298.35v-1.81" transform="translate(-12.51 -12.17)"/></g><g id="s170"><path class="cls-6" d="M129.27,296.54v-1.21" transform="translate(-12.51 -12.17)"/></g><g id="s171"><path class="cls-6" d="M133.42,300.6c-4.16.91-4.16-1.3-4.16-2.25" transform="translate(-12.51 -12.17)"/><path class="cls-4" d="M133.56,301.19l.64-.76-.91-.42Z" transform="translate(-12.51 -12.17)"/></g><g id="s172"><path class="cls-6" d="M129.27,300.59v-2.24" transform="translate(-12.51 -12.17)"/><path class="cls-4" d="M128.64,300.59l.62.79.61-.79Z" transform="translate(-12.51 -12.17)"/></g><g id="s173"><path class="cls-6" d="M129.26,295.33c0-.95,0-3.16,4.16-2.25" transform="translate(-12.51 -12.17)"/><path class="cls-4" d="M133.29,293.67l.91-.42-.64-.76Z" transform="translate(-12.51 -12.17)"/></g><g id="s174"><path class="cls-6" d="M129.27,295.33v-2.24" transform="translate(-12.51 -12.17)"/><path class="cls-4" d="M129.87,293.09l-.61-.79-.62.79Z" transform="translate(-12.51 -12.17)"/></g><g id="s177"><path class="cls-5" d="M274.05,275.08V273.9" transform="translate(-12.51 -12.17)"/></g><g id="s178"><path class="cls-5" d="M274.05,273.9v-1.18" transform="translate(-12.51 -12.17)"/></g><g id="s179"><path class="cls-5" d="M252.82,261.33c11,28.93,21.41,29.56,21.22,13.75" transform="translate(-12.51 -12.17)"/></g><g id="s180"><path class="cls-5" d="M270.08,277.74c4,.22,4-1.79,4-2.66" transform="translate(-12.51 -12.17)"/></g><g id="s181"><path class="cls-5" d="M280.22,286.28c-6.18-4-6.18-9-6.18-11.2" transform="translate(-12.51 -12.17)"/></g><g id="s182"><path class="cls-5" d="M270,280.25c4-1.39,4-4,4-5.17" transform="translate(-12.51 -12.17)"/></g><g id="s183"><path class="cls-5" d="M274,272.72a4.35,4.35,0,0,0-2.52-4.48" transform="translate(-12.51 -12.17)"/><path class="cls-4" d="M271.75,267.7l-.94.23.47.85Z" transform="translate(-12.51 -12.17)"/></g><g id="s184"><path class="cls-5" d="M274,272.72a12.51,12.51,0,0,1,5.69-11.33" transform="translate(-12.51 -12.17)"/><path class="cls-4" d="M280.06,261.88l.3-.92-1-.06Z" transform="translate(-12.51 -12.17)"/></g><g id="s185"><path class="cls-5" d="M201.08,333.77v2.54" transform="translate(-12.51 -12.17)"/><path class="cls-4" d="M201.65,333.77l-.59-.77-.59.77Z" transform="translate(-12.51 -12.17)"/></g><g id="s187"><path class="cls-5" d="M198.72,88.64v6.49" transform="translate(-12.51 -12.17)"/></g><g id="s188"><path class="cls-5" d="M198.72,95.13v8.27" transform="translate(-12.51 -12.17)"/></g><g id="s189"><path class="cls-5" d="M198.72,85.69v3" transform="translate(-12.51 -12.17)"/></g><g id="s190"><path class="cls-5" d="M203.45,86.61c-4.75-1-4.75,1.1-4.75,2" transform="translate(-12.51 -12.17)"/></g><g id="s191"><path class="cls-5" d="M198.7,103.4c0,.92,0,3.08,4,2.19" transform="translate(-12.51 -12.17)"/><path class="cls-4" d="M202.83,106.17l.62-.75-.87-.41Z" transform="translate(-12.51 -12.17)"/></g><g id="s192"><path class="cls-5" d="M198.7,103.4c0,17.18,0,57.27.17,112" transform="translate(-12.51 -12.17)"/><path class="cls-4" d="M198.28,215.4l.59.76.59-.77Z" transform="translate(-12.51 -12.17)"/></g><g id="s193"><path class="cls-6" d="M129.27,325V315.3" transform="translate(-12.51 -12.17)"/></g><g id="s194"><path class="cls-6" d="M129.27,315.3v-5" transform="translate(-12.51 -12.17)"/></g><g id="s195"><path class="cls-6" d="M129.32,328.43c0-1.39-.06-2.54-.06-3.45" transform="translate(-12.51 -12.17)"/><path class="cls-4" d="M128.7,328.41l.6.8.63-.77Z" transform="translate(-12.51 -12.17)"/></g><g id="s196"><path class="cls-6" d="M133.39,327c-4.13.52-4.13-1.11-4.13-2.06" transform="translate(-12.51 -12.17)"/><path class="cls-4" d="M133.47,327.64l.72-.69-.88-.51Z" transform="translate(-12.51 -12.17)"/></g><g id="s197"><path class="cls-6" d="M129.27,310.27V305.8" transform="translate(-12.51 -12.17)"/><path class="cls-4" d="M129.87,305.8l-.61-.79-.62.79Z" transform="translate(-12.51 -12.17)"/></g><g id="s198"><path class="cls-6" d="M129.26,310.24c0-.94.29-4.31,4.46-3.4" transform="translate(-12.51 -12.17)"/><path class="cls-4" d="M133.58,307.43l.92-.42-.65-.76Z" transform="translate(-12.51 -12.17)"/></g><g id="s205"><path class="cls-5" d="M300.26,213.56h6.32" transform="translate(-12.51 -12.17)"/></g><g id="s206"><path class="cls-5" d="M306.58,213.56h6.08" transform="translate(-12.51 -12.17)"/></g><g id="s207"><path class="cls-5" d="M312.75,218.07c-22.18.35-22.39-4.6-12.5-4.51" transform="translate(-12.51 -12.17)"/></g><g id="s208"><path class="cls-5" d="M234.71,214.74c31.88-1.18,55.44-1.18,65.54-1.18" transform="translate(-12.51 -12.17)"/></g><g id="s209"><path class="cls-5" d="M312.65,213.56c3.56-.09,4.88,0,7.23,1" transform="translate(-12.51 -12.17)"/><path class="cls-4" d="M319.65,215.11l.93-.24-.47-.84Z" transform="translate(-12.51 -12.17)"/></g><g id="s210"><path class="cls-5" d="M312.65,213.56c7.4-.09,7.46-5.23-16.27-4.89" transform="translate(-12.51 -12.17)"/><path class="cls-4" d="M296.35,208.08l-.76.6.78.58Z" transform="translate(-12.51 -12.17)"/></g><g id="s211"><path class="cls-3" d="M123.24,79.8h1.23" transform="translate(-12.51 -12.17)"/></g><g id="s212"><path class="cls-3" d="M124.47,79.8h1.23" transform="translate(-12.51 -12.17)"/></g><g id="s213"><path class="cls-3" d="M118.32,79.8h4.92" transform="translate(-12.51 -12.17)"/></g><g id="s214"><path class="cls-3" d="M121.1,72.75c-1.23,7,1.12,7,2.13,7" transform="translate(-12.51 -12.17)"/></g><g id="s215"><path class="cls-3" d="M125.69,79.8c1,0,3.36,0,2.31-6" transform="translate(-12.51 -12.17)"/><path class="cls-4" d="M128.59,73.61l-.78-.86L127.4,74Z" transform="translate(-12.51 -12.17)"/></g><g id="s216"><path class="cls-3" d="M125.7,79.8h7.82" transform="translate(-12.51 -12.17)"/><path class="cls-4" d="M133.52,80.63l.79-.83-.79-.82Z" transform="translate(-12.51 -12.17)"/></g><g id="s217"><path class="cls-3" d="M88.68,168.8v4.12" transform="translate(-12.51 -12.17)"/></g><g id="s218"><path class="cls-3" d="M88.68,172.92v3.3" transform="translate(-12.51 -12.17)"/></g><g id="s219"><path class="cls-3" d="M88.68,160v8.82" transform="translate(-12.51 -12.17)"/><path class="cls-4" d="M89.28,160l-.62-1.07L88.05,160Z" transform="translate(-12.51 -12.17)"/></g><g id="s220"><path class="cls-3" d="M92.21,162.79c-3.55,1.05-3.55,4.52-3.55,6" transform="translate(-12.51 -12.17)"/><path class="cls-4" d="M92.35,163.6l.65-1-.92-.57Z" transform="translate(-12.51 -12.17)"/></g><g id="s221"><path class="cls-3" d="M92.2,165.81c-3.54-.92-3.54,1.82-3.54,3" transform="translate(-12.51 -12.17)"/><path class="cls-4" d="M92.09,166.62l.9-.6-.67-1Z" transform="translate(-12.51 -12.17)"/></g><g id="s222"><path class="cls-3" d="M88.68,176.22v7.17" transform="translate(-12.51 -12.17)"/><path class="cls-4" d="M88.05,183.39l.61,1.07.62-1.07Z" transform="translate(-12.51 -12.17)"/></g><g id="s223"><path class="cls-3" d="M88.66,176.22c0,1.49,0,5,3.55,6" transform="translate(-12.51 -12.17)"/><path class="cls-4" d="M92.08,183l.92-.57-.65-1Z" transform="translate(-12.51 -12.17)"/></g><g id="s224"><path class="cls-3" d="M88.66,176.22c0,1.17,0,3.91,3.54,3" transform="translate(-12.51 -12.17)"/><path class="cls-4" d="M92.32,180l.67-1-.9-.6Z" transform="translate(-12.51 -12.17)"/></g><g id="s225"><path class="cls-5" d="M198.72,82.14V73.29" transform="translate(-12.51 -12.17)"/></g><g id="s227"><path class="cls-5" d="M314.2,224.25h-7.68" transform="translate(-12.51 -12.17)"/></g><g id="s228"><path class="cls-5" d="M306.52,224.25h-7.67" transform="translate(-12.51 -12.17)"/></g><g id="s229"><path class="cls-5" d="M316.47,226.61c-.16-2.36-1.65-2.36-2.29-2.36" transform="translate(-12.51 -12.17)"/></g><g id="s230"><path class="cls-5" d="M321.79,217.29c-1.7,7-5.83,7-7.61,7" transform="translate(-12.51 -12.17)"/></g><g id="s231"><path class="cls-5" d="M298.83,224.25a218.63,218.63,0,0,1-63.45-8.74" transform="translate(-12.51 -12.17)"/><path class="cls-4" d="M235.55,214.94l-.9.36.57.78Z" transform="translate(-12.51 -12.17)"/></g><g id="s232"><path class="cls-5" d="M298.83,224.25c-.88,0-2.95,0-3.85,1.8" transform="translate(-12.51 -12.17)"/><path class="cls-4" d="M294.45,225.79l.19,1,.87-.43Z" transform="translate(-12.51 -12.17)"/></g><g id="s233"><path class="cls-5" d="M274.17,260H273" transform="translate(-12.51 -12.17)"/></g><g id="s234"><path class="cls-5" d="M273,260h-1.18" transform="translate(-12.51 -12.17)"/></g><g id="s235"><path class="cls-5" d="M278,257.47a3.49,3.49,0,0,1-3.83,2.5" transform="translate(-12.51 -12.17)"/><path class="cls-4" d="M278.54,257.64l-.35-.91-.78.57Z" transform="translate(-12.51 -12.17)"/></g><g id="s236"><path class="cls-5" d="M279.31,260h-5.14" transform="translate(-12.51 -12.17)"/><path class="cls-4" d="M279.31,260.56l.76-.59-.76-.59Z" transform="translate(-12.51 -12.17)"/></g><g id="s237"><path class="cls-5" d="M276,257.51c.49,2.46-1.12,2.46-1.81,2.46" transform="translate(-12.51 -12.17)"/><path class="cls-4" d="M276.53,257.39l-.73-.63-.42.87Z" transform="translate(-12.51 -12.17)"/></g><g id="s238"><path class="cls-5" d="M271.79,260a4.17,4.17,0,0,1-4.36-2.56" transform="translate(-12.51 -12.17)"/><path class="cls-4" d="M268,257.19l-.83-.49-.27.93Z" transform="translate(-12.51 -12.17)"/></g><g id="s239"><path class="cls-5" d="M271.79,260a8.13,8.13,0,0,1-6.82-2.84" transform="translate(-12.51 -12.17)"/><path class="cls-4" d="M265.43,256.76l-.94-.23v1Z" transform="translate(-12.51 -12.17)"/></g><g id="s240"><path class="cls-5" d="M271.79,260c-2.94,0-9.8,0-17.06-.22" transform="translate(-12.51 -12.17)"/><path class="cls-4" d="M254.75,259.16l-.79.57.75.61Z" transform="translate(-12.51 -12.17)"/></g><g id="s241"><path class="cls-5" d="M271.79,260c-.73,0-2.43,0-2.26-2.43" transform="translate(-12.51 -12.17)"/><path class="cls-4" d="M270.12,257.58l-.53-.8-.65.72Z" transform="translate(-12.51 -12.17)"/></g><g id="s242"><path class="cls-5" d="M308.83,113.43h-2.37" transform="translate(-12.51 -12.17)"/></g><g id="s243"><path class="cls-5" d="M306.46,113.43H304.1" transform="translate(-12.51 -12.17)"/></g><g id="s244"><path class="cls-5" d="M316.32,113.43h-7.49" transform="translate(-12.51 -12.17)"/><path class="cls-4" d="M316.32,114l.77-.59-.77-.59Z" transform="translate(-12.51 -12.17)"/></g><g id="s245"><path class="cls-5" d="M298.36,124.07c20.61.11,12.9-10.64,10.45-10.64" transform="translate(-12.51 -12.17)"/><path class="cls-4" d="M298.38,123.48l-.77.59.77.59Z" transform="translate(-12.51 -12.17)"/></g><g id="s246"><path class="cls-5" d="M282.42,134.73c41.77.78,31.77-21.3,26.39-21.3" transform="translate(-12.51 -12.17)"/><path class="cls-4" d="M282.43,134.14l-.78.58.76.61Z" transform="translate(-12.51 -12.17)"/></g><g id="s247"><path class="cls-5" d="M304.09,113.43c-4-.09-6.2,0-10.45,0" transform="translate(-12.51 -12.17)"/><path class="cls-4" d="M293.65,112.84l-.77.59.77.59Z" transform="translate(-12.51 -12.17)"/></g><g id="s248"><path class="cls-5" d="M304.09,113.43c-2.92-.09-4.86,0-7.53-5.34" transform="translate(-12.51 -12.17)"/><path class="cls-4" d="M297.09,107.83l-.87-.42-.19,1Z" transform="translate(-12.51 -12.17)"/></g><g id="s249"><path class="cls-5" d="M304.09,113.43c-15.27-.09-17.77-6.28-21.67-6.41" transform="translate(-12.51 -12.17)"/><path class="cls-4" d="M282.44,106.43l-.79.57.75.61Z" transform="translate(-12.51 -12.17)"/></g><g id="s250"><path class="cls-6" d="M192.54,270l3.33,3" transform="translate(-12.51 -12.17)"/></g><g id="s251"><path class="cls-6" d="M195.87,273l2.58,1.93" transform="translate(-12.51 -12.17)"/></g><g id="s252"><path class="cls-6" d="M129.34,274.75c.7-14.23,56-10.26,63.2-4.72" transform="translate(-12.51 -12.17)"/></g><g id="s253"><path class="cls-6" d="M185.25,270.66c4.2-3.39,6.37-1.46,7.29-.63" transform="translate(-12.51 -12.17)"/></g><g id="s254"><path class="cls-6" d="M188.14,264.82a19.47,19.47,0,0,0,4.4,5.21" transform="translate(-12.51 -12.17)"/></g><g id="s255"><path class="cls-6" d="M198.45,274.93a22.53,22.53,0,0,0,5.54,3.32" transform="translate(-12.51 -12.17)"/><path class="cls-4" d="M203.8,278.83l.95-.34-.57-.81Z" transform="translate(-12.51 -12.17)"/></g><g id="s256"><path class="cls-6" d="M198.45,274.93c1.29,1,4.31,3.24-.76,9" transform="translate(-12.51 -12.17)"/><path class="cls-4" d="M197.23,283.5l-.06,1,1-.2Z" transform="translate(-12.51 -12.17)"/></g><g id="s257"><path class="cls-6" d="M198.45,274.93c1.52,1.14,5.06,3.8,3.88,10.08" transform="translate(-12.51 -12.17)"/><path class="cls-4" d="M201.72,284.9l.46.89.75-.67Z" transform="translate(-12.51 -12.17)"/></g><g id="s264"><path class="cls-6" d="M165.85,241.17,162.78,243" transform="translate(-12.51 -12.17)"/></g><g id="s265"><path class="cls-6" d="M162.78,243l-2.46,1.21" transform="translate(-12.51 -12.17)"/></g><g id="s266"><path class="cls-6" d="M172.18,241.15a5.65,5.65,0,0,0-6.33,0" transform="translate(-12.51 -12.17)"/></g><g id="s267"><path class="cls-6" d="M183.32,231.79c-8.15,3.88-14.67,7.73-17.47,9.38" transform="translate(-12.51 -12.17)"/></g><g id="s268"><path class="cls-6" d="M160.32,244.19c-.89.44-3,1.46.92,4.75" transform="translate(-12.51 -12.17)"/><path class="cls-4" d="M160.84,249.4l1,.06-.2-1Z" transform="translate(-12.51 -12.17)"/></g><g id="s269"><path class="cls-6" d="M160.32,244.19c-10.58,5.21-64.94,29.35-69.25,31.3" transform="translate(-12.51 -12.17)"/><path class="cls-4" d="M90.81,274.94l-.47.87,1,.23Z" transform="translate(-12.51 -12.17)"/></g><g id="s270"><path class="cls-6" d="M160.32,244.19c-1.09.54-3.62,1.78-2,6" transform="translate(-12.51 -12.17)"/><path class="cls-4" d="M157.78,250.42l.86.51.29-1Z" transform="translate(-12.51 -12.17)"/></g><g id="s271"><path class="cls-6" d="M113.64,332.74c0,.77-.07.71-.07,3.13" transform="translate(-12.51 -12.17)"/></g><g id="s273"><path class="cls-6" d="M149.26,276.57h-1.84" transform="translate(-12.51 -12.17)"/></g><g id="s274"><path class="cls-6" d="M147.42,276.57h-1.85" transform="translate(-12.51 -12.17)"/></g><g id="s275"><path class="cls-6" d="M157.07,276.57h-7.81" transform="translate(-12.51 -12.17)"/><path class="cls-4" d="M157.07,277.17l.8-.6-.8-.61Z" transform="translate(-12.51 -12.17)"/></g><g id="s276"><path class="cls-6" d="M154.14,273.32a4.56,4.56,0,0,1-4.9,3.25" transform="translate(-12.51 -12.17)"/><path class="cls-4" d="M154.73,273.51l-.34-.94-.83.56Z" transform="translate(-12.51 -12.17)"/></g><g id="s277"><path class="cls-6" d="M151.44,273.39c.58,3.18-1.36,3.18-2.2,3.18" transform="translate(-12.51 -12.17)"/><path class="cls-4" d="M152.05,273.28l-.75-.66-.46.88Z" transform="translate(-12.51 -12.17)"/></g><g id="s278"><path class="cls-6" d="M145.57,276.57H131.92" transform="translate(-12.51 -12.17)"/><path class="cls-4" d="M131.92,276l-.8.61.8.6Z" transform="translate(-12.51 -12.17)"/></g><g id="s279"><path class="cls-6" d="M145.55,276.57c-.83,0-2.77,0-2.2-3.18" transform="translate(-12.51 -12.17)"/><path class="cls-4" d="M144,273.5l-.47-.88-.74.66Z" transform="translate(-12.51 -12.17)"/></g><g id="s280"><path class="cls-6" d="M145.55,276.57a4.55,4.55,0,0,1-4.89-3.25" transform="translate(-12.51 -12.17)"/><path class="cls-4" d="M141.24,273.13l-.84-.56-.33.94Z" transform="translate(-12.51 -12.17)"/></g><g id="s281"><path class="cls-6" d="M159.72,328V314.39" transform="translate(-12.51 -12.17)"/><path class="cls-4" d="M159.09,328l.61.79.62-.79Z" transform="translate(-12.51 -12.17)"/></g><g id="s282"><path class="cls-6" d="M159.72,314.39V279.17" transform="translate(-12.51 -12.17)"/><path class="cls-4" d="M160.32,279.17l-.62-.79-.61.79Z" transform="translate(-12.51 -12.17)"/></g><g id="s283"><path class="cls-6" d="M159.71,332.4c0,1.3,0,1.59,0,4.62" transform="translate(-12.51 -12.17)"/></g><g id="s2"><path class="cls-6" d="M169.6,286l-.92-.85" transform="translate(-12.51 -12.17)"/></g><g id="s3"><path class="cls-6" d="M168.68,285.1l-.86-.91" transform="translate(-12.51 -12.17)"/></g><g id="s4"><path class="cls-6" d="M175.76,291.82c-2.06-2.11-4.93-4.74-6.16-5.87" transform="translate(-12.51 -12.17)"/><path class="cls-4" d="M175.32,292.24l1,.15-.11-1Z" transform="translate(-12.51 -12.17)"/></g><g id="s5"><path class="cls-6" d="M175.06,285.3c-2.84,3.05-4.67,1.37-5.46.65" transform="translate(-12.51 -12.17)"/><path class="cls-4" d="M175.51,285.71l.09-1-1,.17Z" transform="translate(-12.51 -12.17)"/></g><g id="s6"><path class="cls-6" d="M167.82,284.19c-1.15-1.21-3.83-4-6.1-5.94" transform="translate(-12.51 -12.17)"/><path class="cls-4" d="M162.11,277.79l-1-.05.21,1Z" transform="translate(-12.51 -12.17)"/></g><g id="s7"><path class="cls-6" d="M167.82,284.19c-.65-.69-2.18-2.29,1.35-4.45" transform="translate(-12.51 -12.17)"/><path class="cls-4" d="M169.49,280.25l.36-.93-1-.09Z" transform="translate(-12.51 -12.17)"/></g><g id="s8"><path class="cls-6" d="M167.82,284.19a5.38,5.38,0,0,1-1.36-6.4" transform="translate(-12.51 -12.17)"/><path class="cls-4" d="M167,278l-.24-1-.89.48Z" transform="translate(-12.51 -12.17)"/></g><g id="s9"><path class="cls-6" d="M107.44,324.07V316.2" transform="translate(-12.51 -12.17)"/></g><g id="s10"><path class="cls-6" d="M107.44,316.2v-7.86" transform="translate(-12.51 -12.17)"/></g><g id="s11"><path class="cls-6" d="M111.75,330.64c-4.33-.68-4.33-5.41-4.33-6.57" transform="translate(-12.51 -12.17)"/></g><g id="s12"><path class="cls-6" d="M103.11,326.61c4.31.44,4.31-1.65,4.31-2.54" transform="translate(-12.51 -12.17)"/></g><g id="s13"><path class="cls-6" d="M107.42,308.34a40.18,40.18,0,0,1,4.87-20.42" transform="translate(-12.51 -12.17)"/><path class="cls-4" d="M112.83,288.21l-.15-1-.93.4Z" transform="translate(-12.51 -12.17)"/></g><g id="s14"><path class="cls-6" d="M107.42,308.34c0-.86,0-2.87-3.54-2.2" transform="translate(-12.51 -12.17)"/><path class="cls-4" d="M103.76,305.55l-.67.74.9.45Z" transform="translate(-12.51 -12.17)"/></g><g id="s15"><path class="cls-6" d="M113.59,287.46V306" transform="translate(-12.51 -12.17)"/></g><g id="s16"><path class="cls-6" d="M113.59,306v22.27" transform="translate(-12.51 -12.17)"/><path class="cls-4" d="M113,328.31l.61.78.62-.78Z" transform="translate(-12.51 -12.17)"/></g><g id="s17"><path class="cls-5" d="M212.89,199h1.77" transform="translate(-12.51 -12.17)"/></g><g id="s18"><path class="cls-5" d="M214.66,199h1.77" transform="translate(-12.51 -12.17)"/></g><g id="s19"><path class="cls-5" d="M199.09,216.17c2-17.13,10.26-17.13,13.78-17.13" transform="translate(-12.51 -12.17)"/></g><g id="s20"><path class="cls-5" d="M209.19,206.13c-.81-7.09,2.33-7.09,3.68-7.09" transform="translate(-12.51 -12.17)"/></g><g id="s21"><path class="cls-5" d="M216.41,199c1.31,0,4.36,0,4.19,5.73" transform="translate(-12.51 -12.17)"/><path class="cls-4" d="M220,204.75l.57.79.61-.75Z" transform="translate(-12.51 -12.17)"/></g><g id="s22"><path class="cls-5" d="M216.41,199c3.43,0,11.42,0,15.75,13.35" transform="translate(-12.51 -12.17)"/><path class="cls-4" d="M231.6,212.57l.8.55.32-.91Z" transform="translate(-12.51 -12.17)"/></g><g id="s23"><path class="cls-3" d="M59.22,87.8h3.93" transform="translate(-12.51 -12.17)"/></g><g id="s24"><path class="cls-3" d="M63.15,87.8h3.94" transform="translate(-12.51 -12.17)"/></g><g id="s25"><path class="cls-3" d="M44.09,87.63l15.13.13" transform="translate(-12.51 -12.17)"/></g><g id="s26"><path class="cls-3" d="M57.33,95c-9,.27-9.19-7.32,1.87-7.19" transform="translate(-12.51 -12.17)"/></g><g id="s27"><path class="cls-3" d="M67.11,87.76c9.58.13,13.07,0,20,12.28" transform="translate(-12.51 -12.17)"/><path class="cls-4" d="M86.6,100.54l1,.36V99.55Z" transform="translate(-12.51 -12.17)"/></g><g id="s28"><path class="cls-3" d="M67.11,87.76c9.65.26,9.63-9.94,2.65-10.14" transform="translate(-12.51 -12.17)"/><path class="cls-4" d="M69.78,76.8l-.82.8.79.84Z" transform="translate(-12.51 -12.17)"/></g><g id="s31"><path class="cls-5" d="M185.14,89v1.18" transform="translate(-12.51 -12.17)"/></g><g id="s32"><path class="cls-5" d="M185.14,90.17V103.4" transform="translate(-12.51 -12.17)"/></g><g id="s33"><path class="cls-5" d="M180.38,86.67c4.74-.82,4.74,1.38,4.74,2.32" transform="translate(-12.51 -12.17)"/></g><g id="s34"><path class="cls-5" d="M185.14,85.69V89" transform="translate(-12.51 -12.17)"/></g><g id="s35"><path class="cls-5" d="M185.12,103.4c0,.92,0,3.08-4,2.19" transform="translate(-12.51 -12.17)"/><path class="cls-4" d="M181.25,105l-.88.41.62.75Z" transform="translate(-12.51 -12.17)"/></g><g id="s36"><path class="cls-5" d="M185.12,103.4c0,19.59,0,65.3.63,128" transform="translate(-12.51 -12.17)"/><path class="cls-4" d="M185.16,231.46l.6.77.58-.78Z" transform="translate(-12.51 -12.17)"/></g><g id="s37"><path class="cls-5" d="M185.14,82.14V73.29" transform="translate(-12.51 -12.17)"/></g><g id="s39"><path class="cls-5" d="M304.4,197.27h2.36" transform="translate(-12.51 -12.17)"/></g><g id="s40"><path class="cls-5" d="M306.76,197.27h2.36" transform="translate(-12.51 -12.17)"/></g><g id="s41"><path class="cls-5" d="M286.69,197.27H304.4" transform="translate(-12.51 -12.17)"/></g><g id="s42"><path class="cls-5" d="M292.6,193.5c1.67,3.61,9.76,3.77,11.78,3.77" transform="translate(-12.51 -12.17)"/></g><g id="s43"><path class="cls-5" d="M311.43,178c-2.54,7.76-12.21,19.27-7.05,19.27" transform="translate(-12.51 -12.17)"/></g><g id="s44"><path class="cls-5" d="M309.11,197.27c3.33-.1,4.13,0,6.31,0" transform="translate(-12.51 -12.17)"/><path class="cls-4" d="M315.44,197.86l.77-.59-.77-.59Z" transform="translate(-12.51 -12.17)"/></g><g id="s45"><path class="cls-5" d="M309.11,197.27c5.23,0,12.87,5-12.88,4.58" transform="translate(-12.51 -12.17)"/><path class="cls-4" d="M296.25,201.26l-.78.57.75.61Z" transform="translate(-12.51 -12.17)"/></g><g id="s46"><path class="cls-5" d="M309.11,197.27c5.31.09-4.67-3.71-10.93-18.89" transform="translate(-12.51 -12.17)"/><path class="cls-4" d="M298.72,178.16l-.84-.49-.25.94Z" transform="translate(-12.51 -12.17)"/></g><g id="s47"><path class="cls-5" d="M218.78,211.85l-3,.12" transform="translate(-12.51 -12.17)"/></g><g id="s48"><path class="cls-5" d="M215.76,212l-3,.41" transform="translate(-12.51 -12.17)"/></g><g id="s49"><path class="cls-5" d="M220.76,207.88c.73,3.87-1.17,3.94-2,4" transform="translate(-12.51 -12.17)"/></g><g id="s50"><path class="cls-5" d="M231.34,214.06a26.56,26.56,0,0,0-12.56-2.21" transform="translate(-12.51 -12.17)"/></g><g id="s51"><path class="cls-5" d="M212.75,212.38c-2.22.31-7.4,1-11.79,4.1" transform="translate(-12.51 -12.17)"/><path class="cls-4" d="M200.62,216l-.29.93,1,0Z" transform="translate(-12.51 -12.17)"/></g><g id="s52"><path class="cls-5" d="M212.75,212.38c-.91.13-3,.42-3.28-3.13" transform="translate(-12.51 -12.17)"/><path class="cls-4" d="M210.06,209.21l-.65-.73-.53.81Z" transform="translate(-12.51 -12.17)"/></g><g id="s507"><path class="cls-5" d="M211.43,283.09l1.1.43" transform="translate(-12.51 -12.17)"/></g><g id="s508"><path class="cls-5" d="M213.63,283.94l-1.1-.42" transform="translate(-12.51 -12.17)"/></g><g id="s509"><path class="cls-5" d="M213.63,283.94c1.92.39,1.16-2.6,3.73-3.21" transform="translate(-12.51 -12.17)"/><path class="cls-4" d="M217.49,281.31l.62-.75-.89-.4Z" transform="translate(-12.51 -12.17)"/></g><g id="s510"><path class="cls-5" d="M213.63,283.94a14.48,14.48,0,0,0,3.65.64" transform="translate(-12.51 -12.17)"/><path class="cls-4" d="M217.22,285.17l.82-.51-.7-.67Z" transform="translate(-12.51 -12.17)"/></g><g id="s511"><path class="cls-5" d="M211.43,283.09a27.48,27.48,0,0,1-2.68-1.18" transform="translate(-12.51 -12.17)"/><path class="cls-4" d="M209,281.37l-.94.23.46.85Z" transform="translate(-12.51 -12.17)"/></g><g id="s512"><path class="cls-5" d="M225.53,283.8l1.09-.46" transform="translate(-12.51 -12.17)"/></g><g id="s513"><path class="cls-5" d="M227.71,282.88l-1.09.46" transform="translate(-12.51 -12.17)"/></g><g id="s514"><path class="cls-5" d="M225.53,283.8c-1.95.51-1.68-2.6-4.36-3.14" transform="translate(-12.51 -12.17)"/><path class="cls-4" d="M221.28,280.09l-.87.43.64.72Z" transform="translate(-12.51 -12.17)"/></g><g id="s515"><path class="cls-5" d="M227.71,282.88a25,25,0,0,0,2.6-1.38" transform="translate(-12.51 -12.17)"/><path class="cls-4" d="M230.59,282l.39-.89-1-.15Z" transform="translate(-12.51 -12.17)"/></g><g id="s516"><path class="cls-5" d="M225.53,283.8a11.39,11.39,0,0,1-3.2.76" transform="translate(-12.51 -12.17)"/><path class="cls-4" d="M222.26,284l-.69.67.83.51Z" transform="translate(-12.51 -12.17)"/></g><ellipse class="cls-7" cx="81.68" cy="195.11" rx="0.62" ry="0.68"/><ellipse class="cls-8" cx="76.15" cy="199.65" rx="1.23" ry="1.21"/><ellipse class="cls-9" cx="76.15" cy="174.76" rx="1.23" ry="1.65"/><ellipse class="cls-9" cx="81.68" cy="180.53" rx="0.62" ry="0.82"/><ellipse class="cls-9" cx="128.55" cy="59.4" rx="0.62" ry="0.82"/><ellipse class="cls-9" cx="123.63" cy="67.64" rx="1.23" ry="1.65"/><ellipse class="cls-9" cx="134.7" cy="59.4" rx="0.62" ry="0.82"/><ellipse class="cls-9" cx="137.78" cy="59.4" rx="0.62" ry="0.82"/><ellipse class="cls-9" cx="143.8" cy="67.64" rx="1.23" ry="1.65"/><circle class="cls-10" cx="304.86" cy="131.38" r="1.18"/><circle class="cls-10" cx="274.16" cy="131.38" r="1.18"/><circle class="cls-10" cx="215.12" cy="108.35" r="1.18"/><circle class="cls-10" cx="220.43" cy="99.5" r="1.18"/><circle class="cls-10" cx="225.74" cy="71.75" r="0.59"/><circle class="cls-10" cx="225.74" cy="97.15" r="0.59"/><circle class="cls-10" cx="239.32" cy="108.35" r="1.18"/><circle class="cls-10" cx="232.58" cy="101.11" r="1.18"/><circle class="cls-10" cx="178.81" cy="205.83" r="0.59"/><circle class="cls-10" cx="186.36" cy="205.77" r="1.18"/><circle class="cls-10" cx="173.26" cy="221.83" r="1.18"/><circle class="cls-10" cx="220.02" cy="268.11" r="1.18"/><circle class="cls-10" cx="224.86" cy="273.37" r="0.59"/><circle class="cls-10" cx="234.54" cy="249.46" r="0.59"/><circle class="cls-10" cx="232.24" cy="252.41" r="0.59"/><circle class="cls-10" cx="239.68" cy="247.51" r="1.18"/><ellipse class="cls-8" cx="95.21" cy="258.96" rx="0.62" ry="0.61"/><ellipse class="cls-8" cx="76.15" cy="264.4" rx="1.23" ry="1.21"/><ellipse class="cls-8" cx="92.14" cy="261.98" rx="0.62" ry="0.61"/><ellipse class="cls-8" cx="109.97" cy="258.96" rx="0.62" ry="0.61"/><ellipse class="cls-8" cx="116.74" cy="264.4" rx="1.23" ry="1.21"/><ellipse class="cls-8" cx="113.05" cy="260.77" rx="0.62" ry="0.61"/><ellipse class="cls-8" cx="90.91" cy="229.91" rx="0.62" ry="0.61"/><ellipse class="cls-8" cx="76.15" cy="229.91" rx="1.23" ry="1.21"/><ellipse class="cls-8" cx="85.37" cy="228.09" rx="0.62" ry="0.61"/><ellipse class="cls-8" cx="110.59" cy="235.96" rx="0.62" ry="0.61"/><ellipse class="cls-8" cx="113.67" cy="238.38" rx="0.62" ry="0.61"/><circle class="cls-10" cx="175.5" cy="253.23" r="1.18"/><ellipse class="cls-8" cx="76.15" cy="214.78" rx="1.23" ry="1.21"/><ellipse class="cls-8" cx="70.61" cy="226.88" rx="0.62" ry="0.61"/><ellipse class="cls-9" cx="76.15" cy="67.64" rx="1.23" ry="1.65"/><ellipse class="cls-9" cx="76.15" cy="90.71" rx="1.23" ry="1.65"/><ellipse class="cls-9" cx="58.31" cy="116.26" rx="0.62" ry="0.82"/><ellipse class="cls-9" cx="76.15" cy="122.03" rx="1.23" ry="1.65"/><ellipse class="cls-9" cx="57.69" cy="92.36" rx="0.62" ry="0.82"/><circle class="cls-10" cx="309.7" cy="203.41" r="1.18"/><circle class="cls-10" cx="206.26" cy="244.14" r="1.18"/><circle class="cls-10" cx="220.43" cy="202.64" r="1.18"/><circle class="cls-10" cx="267.37" cy="94.77" r="1.18"/><circle class="cls-10" cx="258.51" cy="96.55" r="1.18"/><circle class="cls-10" cx="267.37" cy="122.52" r="1.18"/><circle class="cls-10" cx="299.46" cy="164.15" r="1.18"/><circle class="cls-10" cx="284.69" cy="163.87" r="1.18"/><circle class="cls-10" cx="232.3" cy="314.05" r="1.18"/><ellipse class="cls-9" cx="156.35" cy="117.08" rx="1.23" ry="1.65"/><ellipse class="cls-9" cx="133.23" cy="117.08" rx="1.23" ry="1.65"/><ellipse class="cls-9" cx="130.89" cy="143.86" rx="1.23" ry="1.65"/><ellipse class="cls-9" cx="156.57" cy="143.6" rx="1.23" ry="1.65"/><ellipse class="cls-8" cx="70.61" cy="245.04" rx="0.62" ry="0.61"/><ellipse class="cls-8" cx="70.61" cy="240.8" rx="0.62" ry="0.61"/><ellipse class="cls-8" cx="70.61" cy="256.54" rx="0.62" ry="0.61"/><circle class="cls-10" cx="306.8" cy="247.92" r="1.18"/><circle class="cls-10" cx="303.38" cy="252" r="0.59"/><circle class="cls-10" cx="269.31" cy="247.8" r="1.18"/><circle class="cls-10" cx="282.89" cy="251.11" r="0.59"/><ellipse class="cls-9" cx="130.89" cy="91.54" rx="1.23" ry="1.65"/><circle class="cls-10" cx="304.86" cy="164.97" r="1.18"/><circle class="cls-10" cx="222.79" cy="208.13" r="0.59"/><circle class="cls-10" cx="225.15" cy="212.26" r="0.59"/><circle class="cls-10" cx="242.51" cy="213.5" r="0.59"/><circle class="cls-10" cx="239.26" cy="221.89" r="1.18"/><circle class="cls-10" cx="240.98" cy="217.34" r="0.59"/><ellipse class="cls-9" cx="81.68" cy="98.95" rx="0.62" ry="0.82"/><ellipse class="cls-9" cx="81.68" cy="112.14" rx="0.62" ry="0.82"/><ellipse class="cls-9" cx="81.68" cy="116.26" rx="0.62" ry="0.82"/><ellipse class="cls-9" cx="76.15" cy="144.27" rx="1.23" ry="1.65"/><circle class="cls-10" cx="280.65" cy="255.07" r="0.59"/><circle class="cls-10" cx="280.65" cy="258.02" r="0.59"/><circle class="cls-10" cx="280.3" cy="266.81" r="0.59"/><circle class="cls-10" cx="280.3" cy="269.77" r="0.59"/><circle class="cls-10" cx="280.3" cy="272.72" r="0.59"/><ellipse class="cls-8" cx="76.15" cy="288.61" rx="1.23" ry="1.21"/><circle class="cls-10" cx="236.02" cy="240.36" r="0.59"/><circle class="cls-10" cx="236.02" cy="243.43" r="0.59"/><circle class="cls-10" cx="247.12" cy="227.32" r="0.59"/><circle class="cls-10" cx="244.05" cy="224.25" r="0.59"/><ellipse class="cls-8" cx="82.91" cy="270.45" rx="0.62" ry="0.61"/><ellipse class="cls-8" cx="101.06" cy="273.48" rx="1.23" ry="1.21"/><ellipse class="cls-8" cx="103.82" cy="245.04" rx="0.62" ry="0.61"/><ellipse class="cls-8" cx="90.29" cy="240.2" rx="0.62" ry="0.61"/><ellipse class="cls-8" cx="85.99" cy="238.38" rx="0.62" ry="0.61"/><circle class="cls-10" cx="188.55" cy="319.06" r="1.18"/><circle class="cls-10" cx="183.41" cy="315.46" r="0.59"/><circle class="cls-10" cx="183.41" cy="296.22" r="0.59"/><circle class="cls-10" cx="188.55" cy="294.92" r="1.18"/><circle class="cls-10" cx="309.11" cy="223.95" r="1.18"/><circle class="cls-10" cx="303.91" cy="229.44" r="0.59"/><circle class="cls-10" cx="282.54" cy="229.86" r="0.59"/><ellipse class="cls-9" cx="63.85" cy="144.27" rx="1.23" ry="1.65"/><circle class="cls-10" cx="272.48" cy="145.26" r="0.59"/><circle class="cls-10" cx="305.45" cy="145.55" r="0.59"/><circle class="cls-10" cx="280.6" cy="137.34" r="0.59"/><ellipse class="cls-9" cx="160.04" cy="91.54" rx="1.23" ry="1.65"/><circle class="cls-10" cx="201.83" cy="234.22" r="0.59"/><circle class="cls-10" cx="205.67" cy="238.83" r="0.59"/><circle class="cls-10" cx="188.02" cy="223.48" r="0.59"/><circle class="cls-10" cx="182.65" cy="220.41" r="0.59"/><ellipse class="cls-8" cx="122.89" cy="269.85" rx="0.62" ry="0.61"/><ellipse class="cls-8" cx="116.74" cy="278.32" rx="1.23" ry="1.21"/><ellipse class="cls-8" cx="122.89" cy="275.9" rx="0.62" ry="0.61"/><ellipse class="cls-8" cx="156.41" cy="220.53" rx="0.62" ry="0.61"/><ellipse class="cls-8" cx="137.96" cy="232.63" rx="0.62" ry="0.61"/><ellipse class="cls-8" cx="139.19" cy="229.61" rx="0.62" ry="0.61"/><ellipse class="cls-9" cx="88.57" cy="58.98" rx="0.62" ry="0.82"/><ellipse class="cls-9" cx="97.8" cy="58.98" rx="0.62" ry="0.82"/><ellipse class="cls-9" cx="94.72" cy="58.98" rx="0.62" ry="0.82"/><ellipse class="cls-9" cx="103.95" cy="67.64" rx="1.23" ry="1.65"/><ellipse class="cls-8" cx="116.74" cy="318.86" rx="1.23" ry="1.21"/><circle class="cls-10" cx="266.54" cy="265.99" r="0.59"/><circle class="cls-10" cx="266.07" cy="255.48" r="0.59"/><circle class="cls-10" cx="270.91" cy="100.68" r="0.59"/><circle class="cls-10" cx="271.5" cy="118.98" r="0.59"/><circle class="cls-10" cx="271.5" cy="114.85" r="0.59"/><ellipse class="cls-8" cx="70" cy="283.16" rx="0.62" ry="0.61"/><ellipse class="cls-8" cx="70" cy="270.45" rx="0.62" ry="0.61"/><ellipse class="cls-8" cx="70" cy="273.48" rx="0.62" ry="0.61"/><circle class="cls-10" cx="176.15" cy="228.79" r="0.59"/><circle class="cls-10" cx="176.74" cy="245.03" r="0.59"/><circle class="cls-10" cx="175.56" cy="240.6" r="0.59"/><circle class="cls-10" cx="210.81" cy="314.05" r="1.18"/><circle class="cls-10" cx="210.81" cy="295.15" r="1.18"/><circle class="cls-10" cx="232.3" cy="295.15" r="1.18"/><ellipse class="cls-8" cx="56.46" cy="258.96" rx="0.62" ry="0.61"/><ellipse class="cls-8" cx="56.46" cy="255.93" rx="0.62" ry="0.61"/><ellipse class="cls-8" cx="56.46" cy="235.96" rx="0.62" ry="0.61"/><ellipse class="cls-8" cx="56.46" cy="238.99" rx="0.62" ry="0.61"/><ellipse class="cls-8" cx="56.46" cy="232.94" rx="0.62" ry="0.61"/><circle class="cls-10" cx="172.02" cy="314.4" r="0.59"/><circle class="cls-10" cx="166.11" cy="318.53" r="1.18"/><circle class="cls-10" cx="172.02" cy="293.15" r="0.59"/><ellipse class="cls-8" cx="122.89" cy="288" rx="0.62" ry="0.61"/><ellipse class="cls-8" cx="116.74" cy="291.03" rx="1.23" ry="1.21"/><ellipse class="cls-8" cx="122.89" cy="281.35" rx="0.62" ry="0.61"/><circle class="cls-10" cx="256.39" cy="265.51" r="0.59"/><circle class="cls-10" cx="256.39" cy="268.47" r="0.59"/><circle class="cls-10" cx="257.21" cy="255.3" r="0.59"/><circle class="cls-10" cx="186.19" cy="71.75" r="1.18"/><circle class="cls-10" cx="192.09" cy="74.7" r="0.59"/><circle class="cls-10" cx="192.09" cy="93" r="0.59"/><ellipse class="cls-8" cx="122.89" cy="314.63" rx="0.62" ry="0.61"/><ellipse class="cls-8" cx="123.18" cy="295.11" rx="0.62" ry="0.61"/><ellipse class="cls-9" cx="70.16" cy="43.69" rx="0.62" ry="0.82"/><ellipse class="cls-9" cx="82.69" cy="43.56" rx="0.62" ry="0.82"/><circle class="cls-10" cx="301.42" cy="205.88" r="0.59"/><circle class="cls-10" cx="281.91" cy="196.53" r="0.59"/><ellipse class="cls-8" cx="101.06" cy="318.76" rx="1.23" ry="1.21"/><ellipse class="cls-9" cx="108.87" cy="58.98" rx="0.62" ry="0.82"/><ellipse class="cls-9" cx="115.02" cy="58.98" rx="0.62" ry="0.82"/><ellipse class="cls-9" cx="81.68" cy="150.04" rx="0.62" ry="0.82"/><ellipse class="cls-9" cx="81.68" cy="154.16" rx="0.62" ry="0.82"/><ellipse class="cls-9" cx="81.68" cy="170.64" rx="0.62" ry="0.82"/><ellipse class="cls-9" cx="81.68" cy="166.52" rx="0.62" ry="0.82"/><circle class="cls-10" cx="304.03" cy="215.63" r="0.59"/><circle class="cls-10" cx="281.59" cy="215.63" r="0.59"/><circle class="cls-10" cx="266.01" cy="243.43" r="0.59"/><circle class="cls-10" cx="263.06" cy="243.43" r="0.59"/><circle class="cls-10" cx="254.2" cy="243.43" r="0.59"/><circle class="cls-10" cx="251.25" cy="243.43" r="0.59"/><circle class="cls-10" cx="257.15" cy="243.43" r="0.59"/><circle class="cls-10" cx="305.74" cy="101.27" r="0.59"/><circle class="cls-10" cx="283.9" cy="111.9" r="0.59"/><circle class="cls-10" cx="279.17" cy="101.27" r="0.59"/><circle class="cls-10" cx="283.17" cy="94.18" r="0.59"/><circle class="cls-10" cx="172.61" cy="261.26" r="0.59"/><circle class="cls-10" cx="193.92" cy="268.7" r="1.18"/><circle class="cls-10" cx="184.18" cy="274.9" r="0.59"/><circle class="cls-10" cx="189.55" cy="276.44" r="0.59"/><ellipse class="cls-8" cx="160.72" cy="229.61" rx="0.62" ry="0.61"/><ellipse class="cls-8" cx="150.26" cy="238.08" rx="0.62" ry="0.61"/><ellipse class="cls-8" cx="146.57" cy="239.89" rx="0.62" ry="0.61"/><circle class="cls-10" cx="304.86" cy="185.1" r="0.59"/><circle class="cls-10" cx="281.18" cy="189.64" r="1.18"/><circle class="cls-10" cx="166.7" cy="93" r="0.59"/><ellipse class="cls-8" cx="89.37" cy="294.36" rx="0.62" ry="0.61"/><ellipse class="cls-8" cx="127.5" cy="259.26" rx="0.62" ry="0.61"/><ellipse class="cls-8" cx="158.38" cy="266.52" rx="0.62" ry="0.61"/><circle class="cls-10" cx="208.03" cy="194.55" r="0.59"/><ellipse class="cls-8" cx="147.19" cy="318.42" rx="1.23" ry="1.21"/><circle class="cls-10" cx="172.61" cy="71.75" r="1.18"/><ellipse class="cls-8" cx="147.19" cy="264.4" rx="1.23" ry="1.21"/><ellipse class="cls-9" cx="46.05" cy="82.75" rx="0.62" ry="0.82"/><circle class="cls-10" cx="272.98" cy="185.1" r="0.59"/><ellipse class="cls-9" cx="55.22" cy="65.39" rx="0.62" ry="0.82"/><circle class="cls-10" cx="165.05" cy="273.37" r="0.59"/><ellipse class="cls-8" cx="154.75" cy="263.8" rx="0.62" ry="0.61"/><ellipse class="cls-8" cx="142.27" cy="259.26" rx="0.62" ry="0.61"/><circle class="cls-10" cx="279.34" cy="179.73" r="1.18"/><ellipse class="cls-8" cx="138.58" cy="259.26" rx="0.62" ry="0.61"/><circle class="cls-10" cx="166.17" cy="282.99" r="1.18"/><circle class="cls-10" cx="196.81" cy="195.14" r="0.59"/><circle class="cls-10" cx="166.7" cy="74.7" r="0.59"/><ellipse class="cls-8" cx="131.19" cy="259.26" rx="0.62" ry="0.61"/><ellipse class="cls-8" cx="89.37" cy="314.33" rx="0.62" ry="0.61"/><ellipse class="cls-8" cx="78.51" cy="292.95" rx="0.62" ry="0.61"/><circle class="cls-10" cx="206.74" cy="268.12" r="0.59"/><circle class="cls-10" cx="207.29" cy="272.68" r="1.18"/></g><polygon class="cls-11" points="232.81 0.72 96.73 0.72 0.51 96.95 0.51 233.03 96.73 329.25 232.81 329.25 329.03 233.03 329.03 96.95 232.81 0.72"/><polyline class="cls-11" points="55.26 210.35 55.26 210.39 55.26 249"/><line class="cls-11" x1="55.26" y1="119.63" x2="27.93" y2="146.96"/><line class="cls-11" x1="119.41" y1="55.48" x2="80.66" y2="55.48"/><polyline class="cls-11" points="210.13 274.5 210.16 274.5 248.78 274.5"/><polyline class="cls-11" points="301.59 221.68 329.03 194.25 329.03 96.95 301.64 69.52 301.64 183.02"/><line class="cls-11" x1="55.26" y1="210.39" x2="146.74" y2="301.88"/><line class="cls-11" x1="221.4" y1="301.88" x2="260.24" y2="301.88"/><polyline class="cls-11" points="55.26 249 108.13 301.88 135.51 329.26"/><polyline class="cls-11" points="27.93 146.96 27.93 221.81 27.93 260.45"/><polyline class="cls-11" points="0.41 135.74 27.81 108.34 80.66 55.48"/><line class="cls-11" x1="210.12" y1="55.48" x2="182.8" y2="28.15"/><polyline class="cls-11" points="182.8 28.16 107.96 28.16 69.3 28.16"/><line class="cls-11" x1="274.28" y1="119.63" x2="274.28" y2="80.97"/><line class="cls-11" x1="221.4" y1="28.11" x2="194.03" y2="0.73"/><polyline class="cls-11" points="210.16 274.5 301.59 183.07 301.64 183.02"/><line class="cls-11" x1="274.28" y1="80.97" x2="221.4" y2="28.11"/><polyline class="cls-11" points="248.78 274.5 301.59 221.69 301.59 221.68 301.59 183.07"/><line class="cls-11" x1="146.74" y1="301.88" x2="221.4" y2="301.88"/><polygon class="cls-11" points="274.28 119.63 210.12 55.48 210.03 55.48 119.41 55.48 55.26 119.63 55.26 210.35 119.41 274.5 210.13 274.5 274.28 210.35 274.28 119.63"/><polygon class="cls-12" points="260.24 301.88 146.74 301.88 119.41 274.55 248.8 274.57 329.06 194.32 329.03 233.08 260.24 301.88"/><polygon class="cls-13" points="329.06 194.1 248.8 274.35 210.16 274.35 301.66 182.87 301.66 69.38 329.05 96.8 329.06 194.1"/><polygon class="cls-14" points="301.09 69.37 301.09 182.87 273.77 210.19 273.79 80.8 193.54 0.56 232.3 0.57 301.09 69.37"/><polygon class="cls-15" points="193.99 0.31 274.24 80.56 274.25 119.21 182.77 27.71 69.27 27.7 96.7 0.31 193.99 0.31"/><polygon class="cls-16" points="69.06 27.77 182.56 27.77 209.88 55.1 80.49 55.08 0.24 135.33 0.26 96.57 69.06 27.77"/><polygon class="cls-17" points="0.51 135.44 80.76 55.19 119.41 55.19 27.9 146.66 27.9 260.16 0.5 232.74 0.51 135.44"/><polygon class="cls-18" points="28.23 260.62 28.23 147.13 55.56 119.79 55.55 249.18 135.79 329.44 97.04 329.42 28.23 260.62"/><polygon class="cls-19" points="135.91 329.69 55.65 249.43 55.66 210.78 147.13 302.29 260.62 302.29 233.2 329.69 135.91 329.69"/><text class="cls-20" transform="translate(80.65 44.53)">Model Construction</text><text class="cls-20" transform="translate(208.25 38.39) rotate(45)">COBRA</text><text class="cls-20" transform="translate(285.29 86.24) rotate(90)"><tspan class="cls-21">T</tspan><tspan x="7.85" y="0">he</tspan><tspan class="cls-22" x="18.6" y="0">r</tspan><tspan x="23.05" y="0">mo</tspan><tspan class="cls-23" x="37.5" y="0">d</tspan><tspan x="43.17" y="0">ynamics</tspan></text><text class="cls-20" transform="translate(34.1 124.54) rotate(-45)"><tspan class="cls-24">R</tspan><tspan x="7.58" y="0">egul</tspan><tspan class="cls-25" x="26.08" y="0">a</tspan><tspan x="31.17" y="0">tion</tspan></text><text class="cls-20" transform="translate(40.02 175.08) rotate(90)"><tspan class="cls-26">V</tspan><tspan x="7.68" y="0">isualiz</tspan><tspan class="cls-23" x="35.31" y="0">a</tspan><tspan x="40.4" y="0">tion</tspan></text><text class="cls-20" transform="translate(268.49 237.05) rotate(-45)">Kinetics</text><text class="cls-20" transform="translate(158.68 290.04)">Dynamic Si<tspan class="cls-27" x="52.59" y="0">m</tspan><tspan x="61.28" y="0">ul</tspan><tspan class="cls-23" x="69.72" y="0">a</tspan><tspan x="74.81" y="0">tion</tspan></text><text class="cls-20" transform="translate(91.61 268.84) rotate(45)">Analysis</text><text class="cls-28" transform="translate(74.6 175.65)">MASS<tspan class="cls-29" x="132" y="0">p</tspan><tspan x="160.59" y="0">y</tspan></text></svg>