<?xml version="1.0" encoding="utf-8"?>
<!-- Generator: Adobe Illustrator 16.0.0, SVG Export Plug-In . SVG Version: 6.00 Build 0)  -->
<!DOCTYPE svg PUBLIC "-//W3C//DTD SVG 1.1//EN" "http://www.w3.org/Graphics/SVG/1.1/DTD/svg11.dtd">
<svg version="1.1" id="Layer_1" xmlns="http://www.w3.org/2000/svg" xmlns:xlink="http://www.w3.org/1999/xlink" x="0px" y="0px"
	 width="86.719727px" height="50px" viewBox="0 0 86.719727 50" style="enable-background:new 0 0 86.719727 50;"
	 xml:space="preserve">
<g id="pharmML">
	<path style="fill-rule:evenodd;clip-rule:evenodd;fill:#488FCC;" d="M65.257813,9.47168
		c0.228516-1.936523-0.728516-2.302734-2.166016-2.245117c-1.65332,0.066406-1.492188,1.246094-1.495117,2.287109
		c-0.011719,4.073242,0.068359,8.148438,0.006836,12.220703c-0.024414,1.594727,0.751953,1.891602,2.097656,1.867188
		c1.263672-0.023438,2.203125-0.105469,2.125-1.796875c-0.109375-2.399414-0.033203-4.807617-0.019531-7.211914
		c0.011719-2.06543,1.738281-4.040039,3.546875-4.085938C71,10.466797,71.976563,11.707031,72.068359,14.240234
		c0.089844,2.53418,0.101563,5.077148,0.015625,7.611328c-0.056641,1.714844,0.951172,1.732422,2.189453,1.741211
		c1.216797,0.008789,2.060547-0.144531,1.998047-1.704102c-0.091797-2.333984-0.029297-4.674805-0.019531-7.011719
		c0.011719-2.348633,1.761719-4.40918,3.691406-4.363281c1.712891,0.039063,2.583984,1.43457,2.613281,4.260742
		c0.025391,2.404297,0.068359,4.80957-0.001953,7.211914c-0.044922,1.453125,0.767578,1.667969,1.896484,1.588867
		c0.998047-0.070313,2.287109,0.334961,2.259766-1.416016c-0.058594-3.538086,0.027344-7.083008-0.175781-10.611328
		c-0.154297-2.710938-2.044922-4.586914-4.746094-4.357422c-2.123047,0.180664-4.175781,1.211914-6.466797,1.929688
		C72.652344,6.239258,70.294922,6.18457,65.257813,9.47168z"/>
	<path style="fill-rule:evenodd;clip-rule:evenodd;fill:#488FCC;" d="M21.65625,8.962891
		c0-2.673828-0.058594-4.938477,0.020508-7.199219c0.051758-1.499023-0.711914-1.813477-1.979492-1.756836
		c-1.151367,0.051758-2.320313-0.134766-2.310547,1.644531c0.041016,6.803711,0.033203,13.607422,0.008789,20.411133
		c-0.006836,1.871094,1.34668,1.427734,2.397461,1.503906c1.104492,0.081055,1.939453-0.076172,1.888672-1.561523
		c-0.085938-2.532227-0.035156-5.068359-0.013672-7.603516c0.017578-1.991211,1.878906-3.897461,3.743164-3.87793
		c1.765625,0.019531,2.729492,1.271484,2.756836,3.676758c0.029297,2.667969,0.036133,5.335938,0.006836,8.003906
		c-0.017578,1.62207,1.15332,1.374023,2.098633,1.342773c0.893555-0.029297,2.171875,0.428711,2.164063-1.24707
		c-0.014648-3.334961,0.165039-6.682617-0.078125-10.000977c-0.306641-4.1875-3.84082-6.330078-7.742188-4.898438
		C23.710938,7.733398,22.890625,8.301758,21.65625,8.962891z"/>
	<path style="fill-rule:evenodd;clip-rule:evenodd;fill:#488FCC;" d="M54.666016,9.5625
		c-0.12207-0.621094-0.076172-1.189453-0.287109-1.311523c-0.720703-0.416992-1.526367-0.883789-2.313477-0.90918
		c-0.407227-0.012695-1.200195,0.857422-1.209961,1.34082c-0.091797,4.46875-0.039063,8.939453-0.052734,13.410156
		c-0.004883,1.667969,1.168945,1.459961,2.231445,1.483398c1.070313,0.021484,2.012695-0.014648,1.96582-1.521484
		c-0.0625-1.999023-0.005859-4.00293-0.007813-6.003906c-0.004883-3.996094,1.416016-5.351563,5.884766-5.094727
		c-0.181641-1.246094,0.041992-3.077148-0.587891-3.444336C58.051758,6.208008,56.308594,7.745117,54.666016,9.5625z"/>
	<g>
		<path style="fill-rule:evenodd;clip-rule:evenodd;fill:#BEDFF6;" d="M66.271484,32.073242
			c0.132813,0.021484,0.267578,0.041992,0.400391,0.063477c0,0.631836,0,1.263672,0,1.894531
			c0.001953,4.742188,0.044922,9.484375-0.019531,14.226563c-0.025391,1.740234,1.138672,1.548828,2.162109,1.509766
			c0.949219-0.035156,2.300781,0.445313,2.294922-1.349609c-0.013672-6.277344-0.007813-12.556641-0.003906-18.835938
			c0.001953-1.365234-0.775391-1.841797-2.025391-1.938477c-4.625-0.361328-5.125-0.06543-6.816406,4.246094
			c-1.070313,2.730469-2.132813,5.46582-3.214844,8.192383c-0.400391,1.009766-0.84375,2.001953-1.398438,3.314453
			c-1.765625-4.660156-3.433594-8.944336-5-13.264648c-0.612305-1.688477-1.724609-2.455078-3.451172-2.472656
			c-0.935547-0.009766-1.871094-0.004883-2.806641-0.015625c-1.455078-0.016602-2.22168,0.59375-2.214844,2.154297
			c0.029297,6.145508-0.005859,12.290039,0.039063,18.43457c0.003906,0.486328,0.322266,1.236328,0.699219,1.40625
			c2.164063,0.970703,3.709961-0.076172,3.711914-2.402344c0.001953-2.605469,0.000977-5.210938,0.000977-7.816406
			c0-2.414063,0-4.828125,0-7.242188c2.283203,5.201172,4.210938,10.435547,6.027344,15.707031
			c0.460938,1.335938,1.134766,1.876953,2.566406,1.953125c1.826172,0.097656,2.728516-0.537109,3.339844-2.300781
			C62.359375,42.345703,64.353516,37.222656,66.271484,32.073242z"/>
		<path style="fill-rule:evenodd;clip-rule:evenodd;fill:#BEDFF6;" d="M78.705078,46.068359c0-0.976563,0-1.699219,0-2.419922
			c-0.001953-4.801758-0.050781-9.603516,0.025391-14.404297c0.025391-1.642578-0.951172-1.716797-2.070313-1.619141
			c-1.054688,0.091797-2.662109-0.616211-2.669922,1.40332c-0.027344,6.334961-0.054688,12.670898,0.064453,19.00293
			c0.011719,0.572266,1.058594,1.574219,1.666016,1.605469c3.125,0.164063,6.265625,0.027344,9.398438,0.099609
			c1.484375,0.035156,1.597656-0.835938,1.591797-1.923828c-0.005859-1.037109-0.197266-1.8125-1.544922-1.763672
			C83.109375,46.123047,81.048828,46.068359,78.705078,46.068359z"/>
		<path style="fill-rule:evenodd;clip-rule:evenodd;fill:#BEDFF6;" d="M66.271484,32.073242
			c-1.917969,5.149414-3.912109,10.272461-5.708984,15.463867c-0.611328,1.763672-1.513672,2.398438-3.339844,2.300781
			c-1.431641-0.076172-2.105469-0.617188-2.566406-1.953125c-1.816406-5.271484-3.744141-10.505859-6.027344-15.707031
			c0,2.414063,0,4.828125,0,7.242188c0,2.605469,0.000977,5.210938-0.000977,7.816406
			c-0.001953,2.326172-1.547852,3.373047-3.711914,2.402344c-0.376953-0.169922-0.695313-0.919922-0.699219-1.40625
			c-0.044922-6.144531-0.009766-12.289063-0.039063-18.43457c-0.006836-1.560547,0.759766-2.170898,2.214844-2.154297
			c0.935547,0.010742,1.871094,0.005859,2.806641,0.015625c1.726563,0.017578,2.838867,0.78418,3.451172,2.472656
			c1.566406,4.320313,3.234375,8.604492,5,13.264648c0.554688-1.3125,0.998047-2.304688,1.398438-3.314453
			c1.082031-2.726563,2.144531-5.461914,3.214844-8.192383c1.691406-4.311523,2.191406-4.607422,6.816406-4.246094
			c1.25,0.09668,2.027344,0.573242,2.025391,1.938477c-0.003906,6.279297-0.009766,12.558594,0.003906,18.835938
			c0.005859,1.794922-1.345703,1.314453-2.294922,1.349609c-1.023438,0.039063-2.1875,0.230469-2.162109-1.509766
			c0.064453-4.742188,0.021484-9.484375,0.019531-14.226563c0-0.630859,0-1.262695,0-1.894531
			C66.539063,32.115234,66.404297,32.094727,66.271484,32.073242z"/>
		<path style="fill-rule:evenodd;clip-rule:evenodd;fill:#BEDFF6;" d="M78.705078,46.068359
			c2.34375,0,4.404297,0.054688,6.460938-0.019531C86.513672,46,86.705078,46.775391,86.710938,47.8125
			c0.005859,1.087891-0.107422,1.958984-1.591797,1.923828c-3.132813-0.072266-6.273438,0.064453-9.398438-0.099609
			c-0.607422-0.03125-1.654297-1.033203-1.666016-1.605469c-0.119141-6.332031-0.091797-12.667969-0.064453-19.00293
			c0.007813-2.019531,1.615234-1.311523,2.669922-1.40332c1.119141-0.097656,2.095703-0.023438,2.070313,1.619141
			c-0.076172,4.800781-0.027344,9.602539-0.025391,14.404297C78.705078,44.369141,78.705078,45.091797,78.705078,46.068359z"/>
	</g>
	<path style="fill-rule:evenodd;clip-rule:evenodd;fill:#488FCC;" d="M15.416992,12.296875
		c-0.544922-3.489258-2.680664-5.395508-5.788086-5.132813C7.619141,7.333984,5.677734,8.303711,3.724609,8.90918
		c0.067383-1.177734-0.697266-1.811523-2.306641-1.678711c-1.869141,0.155273-1.349609,1.518555-1.356445,2.530273
		c-0.038086,5.998047,0.030273,11.998047-0.051758,17.995117c-0.021484,1.577148,0.651367,1.916992,2.016602,1.917969
		c1.394531,0.001953,2.31543-0.245117,2.213867-1.960938c-0.105469-1.774414-0.023438-3.561523-0.023438-5.762695
		c0.664063,0.392578,0.892578,0.518555,1.111328,0.658203c4.267578,2.71582,8.765625,1.100586,9.90625-3.803711
		C15.71875,16.724609,15.74707,14.414063,15.416992,12.296875z M11.105469,17.344727
		c-0.457031,2.21582-1.794922,3.28418-3.511719,3.089844c-1.839844-0.208984-3.34082-2.006836-3.361328-4.030273
		c-0.00293-0.333008,0-0.666016,0-0.999023c-0.068359-0.016602-0.135742-0.032227-0.203125-0.047852
		c0.242188-1.007813,0.165039-2.380859,0.802734-2.9375c1.049805-0.918945,2.548828-1.770508,3.882813-1.807617
		c1.683594-0.045898,2.277344,1.688477,2.482422,3.169922C11.359375,14.947266,11.341797,16.195313,11.105469,17.344727z"/>
	<path style="fill-rule:evenodd;clip-rule:evenodd;fill:#488FCC;" d="M48.111328,11.737305
		c-0.083984-2.37793-1.357422-4.151367-3.65625-4.317383c-2.595703-0.186523-5.270508,0.12793-7.855469,0.555664
		c-1.879883,0.311523-2.071289,1.765625-1.279297,3.592773c0.929688-0.366211,1.643555-0.791992,2.40625-0.917969
		c1.481445-0.246094,3.009766-0.542969,4.482422-0.414063c1.544922,0.134766,2.035156,1.552734,1.775391,2.848633
		c-0.087891,0.441406-1.367188,0.75293-2.144531,0.923828c-1.617188,0.354492-3.308594,0.416992-4.883789,0.885742
		c-2.100586,0.625-3.104492,2.267578-3.022461,4.427734c0.080078,2.162109,1.249023,3.550781,3.337891,4.240234
		c2.642578,0.873047,4.946289,0.075195,7.132813-0.999023c0.984375,0.53125,2.007813,0.946289,2.976563,0.842773
		c0.341797-0.037109,0.765625-1.334961,0.779297-2.06543C48.226563,18.140625,48.223633,14.935547,48.111328,11.737305z
		 M44.132813,17.93457c-0.027344,1.724609-1.714844,3.239258-3.525391,3.193359
		c-1.385742-0.035156-2.486328-0.584961-2.517578-2.193359c-0.03125-1.610352,1.564453-2.487305,4.279297-2.527344
		C43.586914,16.388672,44.321289,16.706055,44.132813,17.93457z"/>
</g>
<g>
</g>
<g>
</g>
<g>
</g>
<g>
</g>
<g>
</g>
<g>
</g>
</svg>
