<?xml version="1.0" encoding="utf-8"?>
<!-- Generator: Adobe Illustrator 24.2.3, SVG Export Plug-In . SVG Version: 6.00 Build 0)  -->
<svg version="1.1" id="Layer_1" xmlns="http://www.w3.org/2000/svg" xmlns:xlink="http://www.w3.org/1999/xlink" x="0px" y="0px"
	 viewBox="0 0 188.975586 89.089821" enable-background="new 0 0 188.975586 89.089821" xml:space="preserve">
<g>
	<path fill="#2E3192" stroke="#2E3192" stroke-miterlimit="10" d="M104.299797,44.308926
		c0,6.3106-5.259804,11.422897-11.747101,11.422897c-6.487801,0-11.747498-5.112297-11.747498-11.422897
		c0-6.308601,5.259697-11.421902,11.747498-11.421902C99.039993,32.887024,104.299797,38.000324,104.299797,44.308926z"/>
	<g>
		<line fill="#FBB040" x1="0" y1="44.308926" x2="76.252899" y2="44.308926"/>
		<g>
			
				<line fill="none" stroke="#FBB040" stroke-width="6" stroke-miterlimit="10" x1="0" y1="44.308926" x2="56.687496" y2="44.308926"/>
			<g>
				<path fill="#FBB040" d="M52.379398,44.308926l-5.2593-8.647503l0.295399-0.195297l14.100098,5.600597
					c4.912102,1.080101,9.824707,2.160202,14.737305,3.242203c-4.912598,1.080097-9.825203,2.161098-14.737305,3.242199
					l-14.100098,5.600601l-0.295399-0.147503L52.379398,44.308926z"/>
			</g>
		</g>
	</g>
	<g>
		<line fill="#FBB040" x1="112.722694" y1="44.308926" x2="188.975586" y2="44.308926"/>
		<g>
			
				<line fill="none" stroke="#FBB040" stroke-width="6" stroke-miterlimit="10" x1="112.722694" y1="44.308926" x2="169.410187" y2="44.308926"/>
			<g>
				<path fill="#FBB040" d="M165.102097,44.308926l-5.259308-8.647503l0.29541-0.195297l14.100098,5.600597
					c4.912094,1.080101,9.824692,2.160202,14.737289,3.242203c-4.912598,1.080097-9.825195,2.161098-14.737289,3.242199
					l-14.100098,5.600601l-0.29541-0.147503L165.102097,44.308926z"/>
			</g>
		</g>
	</g>
	<g>
		<g>
			<path fill="none" stroke="#FBB040" stroke-width="4" stroke-miterlimit="10" stroke-dasharray="5,5" d="M92.552696,27.921225
				c0-32.065399-49.600098-35.577099-59.106396-3.784201"/>
			<g>
				<path fill="#FBB040" d="M34.207497,21.713224l5.485901-2.1826l0.0835,0.1894l-4.594799,7.563499
					c-1.100101,2.719702-2.200203,5.440399-3.300701,8.160202c-0.142601-2.930702-0.2857-5.861401-0.429201-8.792002
					l-1.847198-8.6553l0.1138-0.1553L34.207497,21.713224z"/>
			</g>
		</g>
	</g>
	<g>
		<g>
			<path fill="none" stroke="#FBB040" stroke-width="4" stroke-miterlimit="10" stroke-dasharray="5,5" d="M92.552696,61.125324
				c0,32.065403,49.600105,35.579098,59.106499,3.785198"/>
			<g>
				<path fill="#FBB040" d="M150.897995,67.334328l-5.485901,2.182594l-0.083496-0.1894l4.594696-7.563499
					c1.100098-2.7197,2.200195-5.440399,3.300797-8.160198c0.142609,2.930698,0.285706,5.861401,0.429214,8.792l1.847183,8.6553
					l-0.1138,0.155296L150.897995,67.334328z"/>
			</g>
		</g>
	</g>
</g>
<g>
</g>
<g>
</g>
<g>
</g>
<g>
</g>
<g>
</g>
<g>
</g>
<g>
</g>
</svg>
