<?xml version="1.0" encoding="UTF-8" standalone="no"?>
<!DOCTYPE svg PUBLIC "-//W3C//DTD SVG 1.1//EN"
 "http://www.w3.org/Graphics/SVG/1.1/DTD/svg11.dtd">
<!-- Generated by graphviz version 2.40.1 (20161225.0304)
 -->
<!-- Title: dependencies Pages: 1 -->
<svg width="5353pt" height="284pt"
 viewBox="0.00 0.00 5353.00 284.00" xmlns="http://www.w3.org/2000/svg" xmlns:xlink="http://www.w3.org/1999/xlink">
<g id="graph0" class="graph" transform="scale(1 1) rotate(0) translate(4 280)">
<title>dependencies</title>
<polygon fill="#ffffff" stroke="transparent" points="-4,4 -4,-280 5349,-280 5349,4 -4,4"/>
<text text-anchor="start" x="2651.5091" y="-42.4" font-family="sans-serif" font-weight="bold" font-size="14.00" fill="#000000">Legend</text>
<polygon fill="#ffffb3" stroke="transparent" points="2438.5,-10 2438.5,-30 2458.5,-30 2458.5,-10 2438.5,-10"/>
<text text-anchor="start" x="2462.129" y="-15.4" font-family="sans-serif" font-size="14.00" fill="#000000"> &#160;Declarations</text>
<polygon fill="#8dd3c7" stroke="transparent" points="2551.5,-10 2551.5,-30 2571.5,-30 2571.5,-10 2551.5,-10"/>
<text text-anchor="start" x="2575.2251" y="-15.4" font-family="sans-serif" font-size="14.00" fill="#000000"> &#160;Module</text>
<polygon fill="#80b1d3" stroke="transparent" points="2637.5,-10 2637.5,-30 2657.5,-30 2657.5,-10 2637.5,-10"/>
<text text-anchor="start" x="2661.2812" y="-15.4" font-family="sans-serif" font-size="14.00" fill="#000000"> &#160;Bootstrap</text>
<polygon fill="#fdb462" stroke="transparent" points="2734.5,-10 2734.5,-30 2754.5,-30 2754.5,-10 2734.5,-10"/>
<text text-anchor="start" x="2758.1732" y="-15.4" font-family="sans-serif" font-size="14.00" fill="#000000"> &#160;Providers</text>
<polygon fill="#fb8072" stroke="transparent" points="2830.5,-10 2830.5,-30 2850.5,-30 2850.5,-10 2830.5,-10"/>
<text text-anchor="start" x="2854.2258" y="-15.4" font-family="sans-serif" font-size="14.00" fill="#000000"> &#160;Exports</text>
<g id="clust1" class="cluster">
<title>cluster_SharedModule</title>
<polygon fill="none" stroke="#000000" stroke-dasharray="1,5" points="8,-70 8,-268 5337,-268 5337,-70 8,-70"/>
</g>
<g id="clust2" class="cluster">
<title>cluster_SharedModule_declarations</title>
<polygon fill="none" stroke="#000000" points="819,-78 819,-130 5329,-130 5329,-78 819,-78"/>
</g>
<g id="clust31" class="cluster">
<title>cluster_SharedModule_imports</title>
<polygon fill="none" stroke="#000000" points="689,-78 689,-130 811,-130 811,-78 689,-78"/>
</g>
<g id="clust32" class="cluster">
<title>cluster_SharedModule_exports</title>
<polygon fill="none" stroke="#000000" points="724,-208 724,-260 4704,-260 4704,-208 724,-208"/>
</g>
<g id="clust34" class="cluster">
<title>cluster_SharedModule_providers</title>
<polygon fill="none" stroke="#000000" points="16,-78 16,-130 681,-130 681,-78 16,-78"/>
</g>
<!-- AlertComponent -->
<g id="node1" class="node">
<title>AlertComponent</title>
<polygon fill="#ffffb3" stroke="#000000" points="5321.0954,-122 5210.9046,-122 5210.9046,-86 5321.0954,-86 5321.0954,-122"/>
<text text-anchor="middle" x="5266" y="-99.8" font-family="Times,serif" font-size="14.00" fill="#000000">AlertComponent</text>
</g>
<!-- SharedModule -->
<g id="node29" class="node">
<title>SharedModule</title>
<polygon fill="#8dd3c7" stroke="#000000" points="2923.4231,-187 2920.4231,-191 2899.4231,-191 2896.4231,-187 2824.5769,-187 2824.5769,-151 2923.4231,-151 2923.4231,-187"/>
<text text-anchor="middle" x="2874" y="-164.8" font-family="Times,serif" font-size="14.00" fill="#000000">SharedModule</text>
</g>
<!-- AlertComponent&#45;&gt;SharedModule -->
<g id="edge1" class="edge">
<title>AlertComponent&#45;&gt;SharedModule</title>
<path fill="none" stroke="#000000" d="M5266,-122.308C5266,-142.1455 5266,-171 5266,-171 5266,-171 2933.4113,-171 2933.4113,-171"/>
<polygon fill="#000000" stroke="#000000" points="2933.4113,-167.5001 2923.4113,-171 2933.4112,-174.5001 2933.4113,-167.5001"/>
</g>
<!-- AuthorsComponent -->
<g id="node2" class="node">
<title>AuthorsComponent</title>
<polygon fill="#ffffb3" stroke="#000000" points="5193.4356,-122 5066.5644,-122 5066.5644,-86 5193.4356,-86 5193.4356,-122"/>
<text text-anchor="middle" x="5130" y="-99.8" font-family="Times,serif" font-size="14.00" fill="#000000">AuthorsComponent</text>
</g>
<!-- AuthorsComponent&#45;&gt;SharedModule -->
<g id="edge2" class="edge">
<title>AuthorsComponent&#45;&gt;SharedModule</title>
<path fill="none" stroke="#000000" d="M5130,-122.0348C5130,-141.5762 5130,-170 5130,-170 5130,-170 2933.2178,-170 2933.2178,-170"/>
<polygon fill="#000000" stroke="#000000" points="2933.2179,-166.5001 2923.2178,-170 2933.2178,-173.5001 2933.2179,-166.5001"/>
</g>
<!-- CallbackComponent -->
<g id="node3" class="node">
<title>CallbackComponent</title>
<polygon fill="#ffffb3" stroke="#000000" points="5048.594,-122 4917.406,-122 4917.406,-86 5048.594,-86 5048.594,-122"/>
<text text-anchor="middle" x="4983" y="-99.8" font-family="Times,serif" font-size="14.00" fill="#000000">CallbackComponent</text>
</g>
<!-- CallbackComponent&#45;&gt;SharedModule -->
<g id="edge3" class="edge">
<title>CallbackComponent&#45;&gt;SharedModule</title>
<path fill="none" stroke="#000000" d="M4983,-122.1061C4983,-141.3391 4983,-169 4983,-169 4983,-169 2933.2828,-169 2933.2828,-169"/>
<polygon fill="#000000" stroke="#000000" points="2933.2828,-165.5001 2923.2828,-169 2933.2828,-172.5001 2933.2828,-165.5001"/>
</g>
<!-- DataTableComponent -->
<g id="node4" class="node">
<title>DataTableComponent</title>
<polygon fill="#ffffb3" stroke="#000000" points="4899.6317,-122 4760.3683,-122 4760.3683,-86 4899.6317,-86 4899.6317,-122"/>
<text text-anchor="middle" x="4830" y="-99.8" font-family="Times,serif" font-size="14.00" fill="#000000">DataTableComponent</text>
</g>
<!-- DataTableComponent&#45;&gt;SharedModule -->
<g id="edge4" class="edge">
<title>DataTableComponent&#45;&gt;SharedModule</title>
<path fill="none" stroke="#000000" d="M4830,-122.1686C4830,-141.0898 4830,-168 4830,-168 4830,-168 2933.3291,-168 2933.3291,-168"/>
<polygon fill="#000000" stroke="#000000" points="2933.3291,-164.5001 2923.3291,-168 2933.3291,-171.5001 2933.3291,-164.5001"/>
</g>
<!-- FilterPipe -->
<g id="node5" class="node">
<title>FilterPipe</title>
<polygon fill="#ffffb3" stroke="#000000" points="4742.7177,-122 4671.2823,-122 4671.2823,-86 4742.7177,-86 4742.7177,-122"/>
<text text-anchor="middle" x="4707" y="-99.8" font-family="Times,serif" font-size="14.00" fill="#000000">FilterPipe</text>
</g>
<!-- FilterPipe&#45;&gt;SharedModule -->
<g id="edge5" class="edge">
<title>FilterPipe&#45;&gt;SharedModule</title>
<path fill="none" stroke="#000000" d="M4683.5945,-122.2667C4683.5945,-140.5552 4683.5945,-166 4683.5945,-166 4683.5945,-166 2933.3408,-166 2933.3408,-166"/>
<polygon fill="#000000" stroke="#000000" points="2933.3408,-162.5001 2923.3408,-166 2933.3407,-169.5001 2933.3408,-162.5001"/>
</g>
<!-- FormatTimeForHumansPipe -->
<g id="node6" class="node">
<title>FormatTimeForHumansPipe</title>
<polygon fill="#ffffb3" stroke="#000000" points="4653.4748,-122 4476.5252,-122 4476.5252,-86 4653.4748,-86 4653.4748,-122"/>
<text text-anchor="middle" x="4565" y="-99.8" font-family="Times,serif" font-size="14.00" fill="#000000">FormatTimeForHumansPipe</text>
</g>
<!-- FormatTimeForHumansPipe&#45;&gt;SharedModule -->
<g id="edge6" class="edge">
<title>FormatTimeForHumansPipe&#45;&gt;SharedModule</title>
<path fill="none" stroke="#000000" d="M4520.24,-122.302C4520.24,-140.2699 4520.24,-165 4520.24,-165 4520.24,-165 2933.2687,-165 2933.2687,-165"/>
<polygon fill="#000000" stroke="#000000" points="2933.2687,-161.5001 2923.2687,-165 2933.2687,-168.5001 2933.2687,-161.5001"/>
</g>
<!-- FourComponent -->
<g id="node7" class="node">
<title>FourComponent</title>
<polygon fill="#ffffb3" stroke="#000000" points="4458.7758,-122 4351.2242,-122 4351.2242,-86 4458.7758,-86 4458.7758,-122"/>
<text text-anchor="middle" x="4405" y="-99.8" font-family="Times,serif" font-size="14.00" fill="#000000">FourComponent</text>
</g>
<!-- FourComponent&#45;&gt;SharedModule -->
<g id="edge7" class="edge">
<title>FourComponent&#45;&gt;SharedModule</title>
<path fill="none" stroke="#000000" d="M4383.7046,-122.002C4383.7046,-139.6754 4383.7046,-164 4383.7046,-164 4383.7046,-164 2933.3723,-164 2933.3723,-164"/>
<polygon fill="#000000" stroke="#000000" points="2933.3723,-160.5001 2923.3723,-164 2933.3722,-167.5001 2933.3723,-160.5001"/>
</g>
<!-- GridComponent -->
<g id="node8" class="node">
<title>GridComponent</title>
<polygon fill="#ffffb3" stroke="#000000" points="4333.4902,-122 4226.5098,-122 4226.5098,-86 4333.4902,-86 4333.4902,-122"/>
<text text-anchor="middle" x="4280" y="-99.8" font-family="Times,serif" font-size="14.00" fill="#000000">GridComponent</text>
</g>
<!-- GridComponent&#45;&gt;SharedModule -->
<g id="edge8" class="edge">
<title>GridComponent&#45;&gt;SharedModule</title>
<path fill="none" stroke="#000000" d="M4245.0353,-122.0225C4245.0353,-139.3734 4245.0353,-163 4245.0353,-163 4245.0353,-163 2933.6058,-163 2933.6058,-163"/>
<polygon fill="#000000" stroke="#000000" points="2933.6059,-159.5001 2923.6058,-163 2933.6058,-166.5001 2933.6059,-159.5001"/>
</g>
<!-- HomeComponent -->
<g id="node9" class="node">
<title>HomeComponent</title>
<polygon fill="#ffffb3" stroke="#000000" points="4208.5451,-122 4093.4549,-122 4093.4549,-86 4208.5451,-86 4208.5451,-122"/>
<text text-anchor="middle" x="4151" y="-99.8" font-family="Times,serif" font-size="14.00" fill="#000000">HomeComponent</text>
</g>
<!-- HomeComponent&#45;&gt;SharedModule -->
<g id="edge9" class="edge">
<title>HomeComponent&#45;&gt;SharedModule</title>
<path fill="none" stroke="#000000" d="M4097.7933,-122.0352C4097.7933,-138.7344 4097.7933,-161 4097.7933,-161 4097.7933,-161 2933.4899,-161 2933.4899,-161"/>
<polygon fill="#000000" stroke="#000000" points="2933.4899,-157.5001 2923.4899,-161 2933.4898,-164.5001 2933.4899,-157.5001"/>
</g>
<!-- HomeImageComponent -->
<g id="node10" class="node">
<title>HomeImageComponent</title>
<polygon fill="#ffffb3" stroke="#000000" points="4075.0253,-122 3924.9747,-122 3924.9747,-86 4075.0253,-86 4075.0253,-122"/>
<text text-anchor="middle" x="4000" y="-99.8" font-family="Times,serif" font-size="14.00" fill="#000000">HomeImageComponent</text>
</g>
<!-- HomeImageComponent&#45;&gt;SharedModule -->
<g id="edge10" class="edge">
<title>HomeImageComponent&#45;&gt;SharedModule</title>
<path fill="none" stroke="#000000" d="M3966.9876,-122.027C3966.9876,-138.3976 3966.9876,-160 3966.9876,-160 3966.9876,-160 2933.4446,-160 2933.4446,-160"/>
<polygon fill="#000000" stroke="#000000" points="2933.4446,-156.5001 2923.4446,-160 2933.4445,-163.5001 2933.4446,-156.5001"/>
</g>
<!-- HyperlinkComponent -->
<g id="node11" class="node">
<title>HyperlinkComponent</title>
<polygon fill="#ffffb3" stroke="#000000" points="3907.0954,-122 3768.9046,-122 3768.9046,-86 3907.0954,-86 3907.0954,-122"/>
<text text-anchor="middle" x="3838" y="-99.8" font-family="Times,serif" font-size="14.00" fill="#000000">HyperlinkComponent</text>
</g>
<!-- HyperlinkComponent&#45;&gt;SharedModule -->
<g id="edge11" class="edge">
<title>HyperlinkComponent&#45;&gt;SharedModule</title>
<path fill="none" stroke="#000000" d="M3789.7951,-122.0091C3789.7951,-138.0494 3789.7951,-159 3789.7951,-159 3789.7951,-159 2933.2371,-159 2933.2371,-159"/>
<polygon fill="#000000" stroke="#000000" points="2933.2372,-155.5001 2923.2371,-159 2933.2371,-162.5001 2933.2372,-155.5001"/>
</g>
<!-- IdRendererGridComponent -->
<g id="node12" class="node">
<title>IdRendererGridComponent</title>
<polygon fill="#ffffb3" stroke="#000000" points="3750.9524,-122 3581.0476,-122 3581.0476,-86 3750.9524,-86 3750.9524,-122"/>
<text text-anchor="middle" x="3666" y="-99.8" font-family="Times,serif" font-size="14.00" fill="#000000">IdRendererGridComponent</text>
</g>
<!-- IdRendererGridComponent&#45;&gt;SharedModule -->
<g id="edge12" class="edge">
<title>IdRendererGridComponent&#45;&gt;SharedModule</title>
<path fill="none" stroke="#000000" d="M3631.1345,-122.2819C3631.1345,-137.9478 3631.1345,-158 3631.1345,-158 3631.1345,-158 2933.3856,-158 2933.3856,-158"/>
<polygon fill="#000000" stroke="#000000" points="2933.3857,-154.5001 2923.3856,-158 2933.3856,-161.5001 2933.3857,-154.5001"/>
</g>
<!-- LogoComponent -->
<g id="node13" class="node">
<title>LogoComponent</title>
<polygon fill="#ffffb3" stroke="#000000" points="3563.3851,-122 3452.6149,-122 3452.6149,-86 3563.3851,-86 3563.3851,-122"/>
<text text-anchor="middle" x="3508" y="-99.8" font-family="Times,serif" font-size="14.00" fill="#000000">LogoComponent</text>
</g>
<!-- LogoComponent&#45;&gt;SharedModule -->
<g id="edge13" class="edge">
<title>LogoComponent&#45;&gt;SharedModule</title>
<path fill="none" stroke="#000000" d="M3502.5398,-122.1871C3502.5398,-137.1824 3502.5398,-156 3502.5398,-156 3502.5398,-156 2933.3205,-156 2933.3205,-156"/>
<polygon fill="#000000" stroke="#000000" points="2933.3205,-152.5001 2923.3205,-156 2933.3204,-159.5001 2933.3205,-152.5001"/>
</g>
<!-- ModelCardsComponent -->
<g id="node14" class="node">
<title>ModelCardsComponent</title>
<polygon fill="#ffffb3" stroke="#000000" points="3434.0393,-122 3283.9607,-122 3283.9607,-86 3434.0393,-86 3434.0393,-122"/>
<text text-anchor="middle" x="3359" y="-99.8" font-family="Times,serif" font-size="14.00" fill="#000000">ModelCardsComponent</text>
</g>
<!-- ModelCardsComponent&#45;&gt;SharedModule -->
<g id="edge14" class="edge">
<title>ModelCardsComponent&#45;&gt;SharedModule</title>
<path fill="none" stroke="#000000" d="M3349.3715,-122.1243C3349.3715,-136.7832 3349.3715,-155 3349.3715,-155 3349.3715,-155 2933.5278,-155 2933.5278,-155"/>
<polygon fill="#000000" stroke="#000000" points="2933.5278,-151.5001 2923.5278,-155 2933.5278,-158.5001 2933.5278,-151.5001"/>
</g>
<!-- ModelsGridComponent -->
<g id="node15" class="node">
<title>ModelsGridComponent</title>
<polygon fill="#ffffb3" stroke="#000000" points="3265.4846,-122 3116.5154,-122 3116.5154,-86 3265.4846,-86 3265.4846,-122"/>
<text text-anchor="middle" x="3191" y="-99.8" font-family="Times,serif" font-size="14.00" fill="#000000">ModelsGridComponent</text>
</g>
<!-- ModelsGridComponent&#45;&gt;SharedModule -->
<g id="edge15" class="edge">
<title>ModelsGridComponent&#45;&gt;SharedModule</title>
<path fill="none" stroke="#000000" d="M3179.6527,-122.0511C3179.6527,-136.373 3179.6527,-154 3179.6527,-154 3179.6527,-154 2933.4481,-154 2933.4481,-154"/>
<polygon fill="#000000" stroke="#000000" points="2933.4481,-150.5001 2923.4481,-154 2933.4481,-157.5001 2933.4481,-150.5001"/>
</g>
<!-- NavIconsComponent -->
<g id="node16" class="node">
<title>NavIconsComponent</title>
<polygon fill="#ffffb3" stroke="#000000" points="3098.4734,-122 2963.5266,-122 2963.5266,-86 3098.4734,-86 3098.4734,-122"/>
<text text-anchor="middle" x="3031" y="-99.8" font-family="Times,serif" font-size="14.00" fill="#000000">NavIconsComponent</text>
</g>
<!-- NavIconsComponent&#45;&gt;SharedModule -->
<g id="edge16" class="edge">
<title>NavIconsComponent&#45;&gt;SharedModule</title>
<path fill="none" stroke="#000000" d="M3006.9358,-122.2458C3006.9358,-136.1772 3006.9358,-153 3006.9358,-153 3006.9358,-153 2933.5004,-153 2933.5004,-153"/>
<polygon fill="#000000" stroke="#000000" points="2933.5004,-149.5001 2923.5004,-153 2933.5004,-156.5001 2933.5004,-149.5001"/>
</g>
<!-- NavigationComponent -->
<g id="node17" class="node">
<title>NavigationComponent</title>
<polygon fill="#ffffb3" stroke="#000000" points="2945.5407,-122 2802.4593,-122 2802.4593,-86 2945.5407,-86 2945.5407,-122"/>
<text text-anchor="middle" x="2874" y="-99.8" font-family="Times,serif" font-size="14.00" fill="#000000">NavigationComponent</text>
</g>
<!-- NavigationComponent&#45;&gt;SharedModule -->
<g id="edge17" class="edge">
<title>NavigationComponent&#45;&gt;SharedModule</title>
<path fill="none" stroke="#000000" d="M2874,-122.1061C2874,-122.1061 2874,-140.991 2874,-140.991"/>
<polygon fill="#000000" stroke="#000000" points="2870.5001,-140.9909 2874,-150.991 2877.5001,-140.991 2870.5001,-140.9909"/>
</g>
<!-- RouteRendererGridComponent -->
<g id="node18" class="node">
<title>RouteRendererGridComponent</title>
<polygon fill="#ffffb3" stroke="#000000" points="2783.7338,-122 2592.2662,-122 2592.2662,-86 2783.7338,-86 2783.7338,-122"/>
<text text-anchor="middle" x="2688" y="-99.8" font-family="Times,serif" font-size="14.00" fill="#000000">RouteRendererGridComponent</text>
</g>
<!-- RouteRendererGridComponent&#45;&gt;SharedModule -->
<g id="edge18" class="edge">
<title>RouteRendererGridComponent&#45;&gt;SharedModule</title>
<path fill="none" stroke="#000000" d="M2677.5859,-122.2458C2677.5859,-136.1772 2677.5859,-153 2677.5859,-153 2677.5859,-153 2814.69,-153 2814.69,-153"/>
<polygon fill="#000000" stroke="#000000" points="2814.69,-156.5001 2824.69,-153 2814.6899,-149.5001 2814.69,-156.5001"/>
</g>
<!-- ScientificNotationPipe -->
<g id="node19" class="node">
<title>ScientificNotationPipe</title>
<polygon fill="#ffffb3" stroke="#000000" points="2573.531,-122 2430.469,-122 2430.469,-86 2573.531,-86 2573.531,-122"/>
<text text-anchor="middle" x="2502" y="-99.8" font-family="Times,serif" font-size="14.00" fill="#000000">ScientificNotationPipe</text>
</g>
<!-- ScientificNotationPipe&#45;&gt;SharedModule -->
<g id="edge19" class="edge">
<title>ScientificNotationPipe&#45;&gt;SharedModule</title>
<path fill="none" stroke="#000000" d="M2522.2642,-122.0511C2522.2642,-136.373 2522.2642,-154 2522.2642,-154 2522.2642,-154 2814.7223,-154 2814.7223,-154"/>
<polygon fill="#000000" stroke="#000000" points="2814.7223,-157.5001 2824.7223,-154 2814.7223,-150.5001 2814.7223,-157.5001"/>
</g>
<!-- SearchBarComponent -->
<g id="node20" class="node">
<title>SearchBarComponent</title>
<polygon fill="#ffffb3" stroke="#000000" points="2411.6317,-122 2272.3683,-122 2272.3683,-86 2411.6317,-86 2411.6317,-122"/>
<text text-anchor="middle" x="2342" y="-99.8" font-family="Times,serif" font-size="14.00" fill="#000000">SearchBarComponent</text>
</g>
<!-- SearchBarComponent&#45;&gt;SharedModule -->
<g id="edge20" class="edge">
<title>SearchBarComponent&#45;&gt;SharedModule</title>
<path fill="none" stroke="#000000" d="M2358.6478,-122.1243C2358.6478,-136.7832 2358.6478,-155 2358.6478,-155 2358.6478,-155 2814.5859,-155 2814.5859,-155"/>
<polygon fill="#000000" stroke="#000000" points="2814.5859,-158.5001 2824.5859,-155 2814.5858,-151.5001 2814.5859,-158.5001"/>
</g>
<!-- SearchToolPanelGridComponent -->
<g id="node21" class="node">
<title>SearchToolPanelGridComponent</title>
<polygon fill="#ffffb3" stroke="#000000" points="2254.1232,-122 2051.8768,-122 2051.8768,-86 2254.1232,-86 2254.1232,-122"/>
<text text-anchor="middle" x="2153" y="-99.8" font-family="Times,serif" font-size="14.00" fill="#000000">SearchToolPanelGridComponent</text>
</g>
<!-- SearchToolPanelGridComponent&#45;&gt;SharedModule -->
<g id="edge21" class="edge">
<title>SearchToolPanelGridComponent&#45;&gt;SharedModule</title>
<path fill="none" stroke="#000000" d="M2197.3982,-122.1871C2197.3982,-137.1824 2197.3982,-156 2197.3982,-156 2197.3982,-156 2814.522,-156 2814.522,-156"/>
<polygon fill="#000000" stroke="#000000" points="2814.522,-159.5001 2824.522,-156 2814.5219,-152.5001 2814.522,-159.5001"/>
</g>
<!-- SidebarComponent -->
<g id="node22" class="node">
<title>SidebarComponent</title>
<polygon fill="#ffffb3" stroke="#000000" points="2034.0954,-122 1909.9046,-122 1909.9046,-86 2034.0954,-86 2034.0954,-122"/>
<text text-anchor="middle" x="1972" y="-99.8" font-family="Times,serif" font-size="14.00" fill="#000000">SidebarComponent</text>
</g>
<!-- SidebarComponent&#45;&gt;SharedModule -->
<g id="edge22" class="edge">
<title>SidebarComponent&#45;&gt;SharedModule</title>
<path fill="none" stroke="#000000" d="M2006.7411,-122.2819C2006.7411,-137.9478 2006.7411,-158 2006.7411,-158 2006.7411,-158 2814.5729,-158 2814.5729,-158"/>
<polygon fill="#000000" stroke="#000000" points="2814.573,-161.5001 2824.5729,-158 2814.5729,-154.5001 2814.573,-161.5001"/>
</g>
<!-- SimulationCardsComponent -->
<g id="node23" class="node">
<title>SimulationCardsComponent</title>
<polygon fill="#ffffb3" stroke="#000000" points="1891.9396,-122 1716.0604,-122 1716.0604,-86 1891.9396,-86 1891.9396,-122"/>
<text text-anchor="middle" x="1804" y="-99.8" font-family="Times,serif" font-size="14.00" fill="#000000">SimulationCardsComponent</text>
</g>
<!-- SimulationCardsComponent&#45;&gt;SharedModule -->
<g id="edge23" class="edge">
<title>SimulationCardsComponent&#45;&gt;SharedModule</title>
<path fill="none" stroke="#000000" d="M1862.9609,-122.0091C1862.9609,-138.0494 1862.9609,-159 1862.9609,-159 1862.9609,-159 2814.5511,-159 2814.5511,-159"/>
<polygon fill="#000000" stroke="#000000" points="2814.5511,-162.5001 2824.5511,-159 2814.551,-155.5001 2814.5511,-162.5001"/>
</g>
<!-- SimulationsGridComponent -->
<g id="node24" class="node">
<title>SimulationsGridComponent</title>
<polygon fill="#ffffb3" stroke="#000000" points="1697.885,-122 1524.115,-122 1524.115,-86 1697.885,-86 1697.885,-122"/>
<text text-anchor="middle" x="1611" y="-99.8" font-family="Times,serif" font-size="14.00" fill="#000000">SimulationsGridComponent</text>
</g>
<!-- SimulationsGridComponent&#45;&gt;SharedModule -->
<g id="edge24" class="edge">
<title>SimulationsGridComponent&#45;&gt;SharedModule</title>
<path fill="none" stroke="#000000" d="M1667.7365,-122.027C1667.7365,-138.3976 1667.7365,-160 1667.7365,-160 1667.7365,-160 2814.4642,-160 2814.4642,-160"/>
<polygon fill="#000000" stroke="#000000" points="2814.4642,-163.5001 2824.4642,-160 2814.4641,-156.5001 2814.4642,-163.5001"/>
</g>
<!-- TreeComponent -->
<g id="node25" class="node">
<title>TreeComponent</title>
<polygon fill="#ffffb3" stroke="#000000" points="1506.4748,-122 1399.5252,-122 1399.5252,-86 1506.4748,-86 1506.4748,-122"/>
<text text-anchor="middle" x="1453" y="-99.8" font-family="Times,serif" font-size="14.00" fill="#000000">TreeComponent</text>
</g>
<!-- TreeComponent&#45;&gt;SharedModule -->
<g id="edge25" class="edge">
<title>TreeComponent&#45;&gt;SharedModule</title>
<path fill="none" stroke="#000000" d="M1474.3975,-122.0352C1474.3975,-138.7344 1474.3975,-161 1474.3975,-161 1474.3975,-161 2814.5985,-161 2814.5985,-161"/>
<polygon fill="#000000" stroke="#000000" points="2814.5985,-164.5001 2824.5985,-161 2814.5985,-157.5001 2814.5985,-164.5001"/>
</g>
<!-- UnderConstructionComponent -->
<g id="node26" class="node">
<title>UnderConstructionComponent</title>
<polygon fill="#ffffb3" stroke="#000000" points="1381.1427,-122 1192.8573,-122 1192.8573,-86 1381.1427,-86 1381.1427,-122"/>
<text text-anchor="middle" x="1287" y="-99.8" font-family="Times,serif" font-size="14.00" fill="#000000">UnderConstructionComponent</text>
</g>
<!-- UnderConstructionComponent&#45;&gt;SharedModule -->
<g id="edge26" class="edge">
<title>UnderConstructionComponent&#45;&gt;SharedModule</title>
<path fill="none" stroke="#000000" d="M1347.5419,-122.0225C1347.5419,-139.3734 1347.5419,-163 1347.5419,-163 1347.5419,-163 2814.5112,-163 2814.5112,-163"/>
<polygon fill="#000000" stroke="#000000" points="2814.5113,-166.5001 2824.5112,-163 2814.5112,-159.5001 2814.5113,-166.5001"/>
</g>
<!-- UserMenuComponent -->
<g id="node27" class="node">
<title>UserMenuComponent</title>
<polygon fill="#ffffb3" stroke="#000000" points="1174.4186,-122 1033.5814,-122 1033.5814,-86 1174.4186,-86 1174.4186,-122"/>
<text text-anchor="middle" x="1104" y="-99.8" font-family="Times,serif" font-size="14.00" fill="#000000">UserMenuComponent</text>
</g>
<!-- UserMenuComponent&#45;&gt;SharedModule -->
<g id="edge27" class="edge">
<title>UserMenuComponent&#45;&gt;SharedModule</title>
<path fill="none" stroke="#000000" d="M1139.0689,-122.002C1139.0689,-139.6754 1139.0689,-164 1139.0689,-164 1139.0689,-164 2814.4107,-164 2814.4107,-164"/>
<polygon fill="#000000" stroke="#000000" points="2814.4108,-167.5001 2824.4107,-164 2814.4107,-160.5001 2814.4108,-167.5001"/>
</g>
<!-- VisualizationCardsComponent -->
<g id="node28" class="node">
<title>VisualizationCardsComponent</title>
<polygon fill="#ffffb3" stroke="#000000" points="1015.1371,-122 826.8629,-122 826.8629,-86 1015.1371,-86 1015.1371,-122"/>
<text text-anchor="middle" x="921" y="-99.8" font-family="Times,serif" font-size="14.00" fill="#000000">VisualizationCardsComponent</text>
</g>
<!-- VisualizationCardsComponent&#45;&gt;SharedModule -->
<g id="edge28" class="edge">
<title>VisualizationCardsComponent&#45;&gt;SharedModule</title>
<path fill="none" stroke="#000000" d="M978.6797,-122.302C978.6797,-140.2699 978.6797,-165 978.6797,-165 978.6797,-165 2814.7628,-165 2814.7628,-165"/>
<polygon fill="#000000" stroke="#000000" points="2814.7629,-168.5001 2824.7628,-165 2814.7628,-161.5001 2814.7629,-168.5001"/>
</g>
<!-- AlertComponent  -->
<g id="node31" class="node">
<title>AlertComponent </title>
<polygon fill="#fb8072" stroke="#000000" points="4695.5961,-252 4582.4039,-252 4582.4039,-216 4695.5961,-216 4695.5961,-252"/>
<text text-anchor="middle" x="4639" y="-229.8" font-family="Times,serif" font-size="14.00" fill="#000000">AlertComponent </text>
</g>
<!-- SharedModule&#45;&gt;AlertComponent  -->
<g id="edge30" class="edge">
<title>SharedModule&#45;&gt;AlertComponent </title>
<path fill="none" stroke="#000000" stroke-dasharray="5,2" d="M2923.3809,-173C3207.1691,-173 4617.8448,-173 4617.8448,-173 4617.8448,-173 4617.8448,-205.698 4617.8448,-205.698"/>
<polygon fill="#000000" stroke="#000000" points="4614.3449,-205.698 4617.8448,-215.698 4621.3449,-205.698 4614.3449,-205.698"/>
</g>
<!-- AuthorsComponent  -->
<g id="node32" class="node">
<title>AuthorsComponent </title>
<polygon fill="#fb8072" stroke="#000000" points="4563.9348,-252 4434.0652,-252 4434.0652,-216 4563.9348,-216 4563.9348,-252"/>
<text text-anchor="middle" x="4499" y="-229.8" font-family="Times,serif" font-size="14.00" fill="#000000">AuthorsComponent </text>
</g>
<!-- SharedModule&#45;&gt;AuthorsComponent  -->
<g id="edge31" class="edge">
<title>SharedModule&#45;&gt;AuthorsComponent </title>
<path fill="none" stroke="#000000" stroke-dasharray="5,2" d="M2923.2204,-174C3189.5726,-174 4446.4602,-174 4446.4602,-174 4446.4602,-174 4446.4602,-205.998 4446.4602,-205.998"/>
<polygon fill="#000000" stroke="#000000" points="4442.9603,-205.998 4446.4602,-215.998 4449.9603,-205.9981 4442.9603,-205.998"/>
</g>
<!-- CallbackComponent  -->
<g id="node33" class="node">
<title>CallbackComponent </title>
<polygon fill="#fb8072" stroke="#000000" points="4416.0946,-252 4281.9054,-252 4281.9054,-216 4416.0946,-216 4416.0946,-252"/>
<text text-anchor="middle" x="4349" y="-229.8" font-family="Times,serif" font-size="14.00" fill="#000000">CallbackComponent </text>
</g>
<!-- SharedModule&#45;&gt;CallbackComponent  -->
<g id="edge32" class="edge">
<title>SharedModule&#45;&gt;CallbackComponent </title>
<path fill="none" stroke="#000000" stroke-dasharray="5,2" d="M2923.3477,-175C3175.4318,-175 4307.5991,-175 4307.5991,-175 4307.5991,-175 4307.5991,-205.9775 4307.5991,-205.9775"/>
<polygon fill="#000000" stroke="#000000" points="4304.0991,-205.9774 4307.5991,-215.9775 4311.0991,-205.9775 4304.0991,-205.9774"/>
</g>
<!-- DataTableComponent  -->
<g id="node34" class="node">
<title>DataTableComponent </title>
<polygon fill="#fb8072" stroke="#000000" points="4263.6313,-252 4120.3687,-252 4120.3687,-216 4263.6313,-216 4263.6313,-252"/>
<text text-anchor="middle" x="4192" y="-229.8" font-family="Times,serif" font-size="14.00" fill="#000000">DataTableComponent </text>
</g>
<!-- SharedModule&#45;&gt;DataTableComponent  -->
<g id="edge33" class="edge">
<title>SharedModule&#45;&gt;DataTableComponent </title>
<path fill="none" stroke="#000000" stroke-dasharray="5,2" d="M2923.4091,-176C3159.8737,-176 4164.6033,-176 4164.6033,-176 4164.6033,-176 4164.6033,-205.9664 4164.6033,-205.9664"/>
<polygon fill="#000000" stroke="#000000" points="4161.1033,-205.9663 4164.6033,-215.9664 4168.1033,-205.9664 4161.1033,-205.9663"/>
</g>
<!-- FilterPipe  -->
<g id="node35" class="node">
<title>FilterPipe </title>
<polygon fill="#fb8072" stroke="#000000" points="4102.2179,-252 4027.7821,-252 4027.7821,-216 4102.2179,-216 4102.2179,-252"/>
<text text-anchor="middle" x="4065" y="-229.8" font-family="Times,serif" font-size="14.00" fill="#000000">FilterPipe </text>
</g>
<!-- SharedModule&#45;&gt;FilterPipe  -->
<g id="edge34" class="edge">
<title>SharedModule&#45;&gt;FilterPipe </title>
<path fill="none" stroke="#000000" stroke-dasharray="5,2" d="M2923.4674,-178C3146.9444,-178 4051.4518,-178 4051.4518,-178 4051.4518,-178 4051.4518,-205.973 4051.4518,-205.973"/>
<polygon fill="#000000" stroke="#000000" points="4047.9519,-205.973 4051.4518,-215.973 4054.9519,-205.973 4047.9519,-205.973"/>
</g>
<!-- FormatTimeForHumansPipe  -->
<g id="node36" class="node">
<title>FormatTimeForHumansPipe </title>
<polygon fill="#fb8072" stroke="#000000" points="4009.4754,-252 3828.5246,-252 3828.5246,-216 4009.4754,-216 4009.4754,-252"/>
<text text-anchor="middle" x="3919" y="-229.8" font-family="Times,serif" font-size="14.00" fill="#000000">FormatTimeForHumansPipe </text>
</g>
<!-- SharedModule&#45;&gt;FormatTimeForHumansPipe  -->
<g id="edge35" class="edge">
<title>SharedModule&#45;&gt;FormatTimeForHumansPipe </title>
<path fill="none" stroke="#000000" stroke-dasharray="5,2" d="M2923.2879,-179C3123.8374,-179 3867.9052,-179 3867.9052,-179 3867.9052,-179 3867.9052,-205.9909 3867.9052,-205.9909"/>
<polygon fill="#000000" stroke="#000000" points="3864.4052,-205.9909 3867.9052,-215.9909 3871.4052,-205.991 3864.4052,-205.9909"/>
</g>
<!-- FourComponent  -->
<g id="node37" class="node">
<title>FourComponent </title>
<polygon fill="#fb8072" stroke="#000000" points="3810.7759,-252 3699.2241,-252 3699.2241,-216 3810.7759,-216 3810.7759,-252"/>
<text text-anchor="middle" x="3755" y="-229.8" font-family="Times,serif" font-size="14.00" fill="#000000">FourComponent </text>
</g>
<!-- SharedModule&#45;&gt;FourComponent  -->
<g id="edge36" class="edge">
<title>SharedModule&#45;&gt;FourComponent </title>
<path fill="none" stroke="#000000" stroke-dasharray="5,2" d="M2923.4415,-180C3105.1019,-180 3725.1692,-180 3725.1692,-180 3725.1692,-180 3725.1692,-205.7181 3725.1692,-205.7181"/>
<polygon fill="#000000" stroke="#000000" points="3721.6693,-205.718 3725.1692,-215.7181 3728.6693,-205.7181 3721.6693,-205.718"/>
</g>
<!-- GridComponent  -->
<g id="node38" class="node">
<title>GridComponent </title>
<polygon fill="#fb8072" stroke="#000000" points="3681.4913,-252 3570.5087,-252 3570.5087,-216 3681.4913,-216 3681.4913,-252"/>
<text text-anchor="middle" x="3626" y="-229.8" font-family="Times,serif" font-size="14.00" fill="#000000">GridComponent </text>
</g>
<!-- SharedModule&#45;&gt;GridComponent  -->
<g id="edge37" class="edge">
<title>SharedModule&#45;&gt;GridComponent </title>
<path fill="none" stroke="#000000" stroke-dasharray="5,2" d="M2923.3555,-181C3083.1204,-181 3575.8894,-181 3575.8894,-181 3575.8894,-181 3575.8894,-205.7604 3575.8894,-205.7604"/>
<polygon fill="#000000" stroke="#000000" points="3572.3894,-205.7604 3575.8894,-215.7604 3579.3894,-205.7604 3572.3894,-205.7604"/>
</g>
<!-- HomeComponent  -->
<g id="node39" class="node">
<title>HomeComponent </title>
<polygon fill="#fb8072" stroke="#000000" points="3552.5442,-252 3433.4558,-252 3433.4558,-216 3552.5442,-216 3552.5442,-252"/>
<text text-anchor="middle" x="3493" y="-229.8" font-family="Times,serif" font-size="14.00" fill="#000000">HomeComponent </text>
</g>
<!-- SharedModule&#45;&gt;HomeComponent  -->
<g id="edge38" class="edge">
<title>SharedModule&#45;&gt;HomeComponent </title>
<path fill="none" stroke="#000000" stroke-dasharray="5,2" d="M2923.5356,-183C3062.0704,-183 3443.4134,-183 3443.4134,-183 3443.4134,-183 3443.4134,-205.8757 3443.4134,-205.8757"/>
<polygon fill="#000000" stroke="#000000" points="3439.9135,-205.8757 3443.4134,-215.8757 3446.9135,-205.8757 3439.9135,-205.8757"/>
</g>
<!-- HomeImageComponent  -->
<g id="node40" class="node">
<title>HomeImageComponent </title>
<polygon fill="#fb8072" stroke="#000000" points="3415.0246,-252 3260.9754,-252 3260.9754,-216 3415.0246,-216 3415.0246,-252"/>
<text text-anchor="middle" x="3338" y="-229.8" font-family="Times,serif" font-size="14.00" fill="#000000">HomeImageComponent </text>
</g>
<!-- SharedModule&#45;&gt;HomeImageComponent  -->
<g id="edge39" class="edge">
<title>SharedModule&#45;&gt;HomeImageComponent </title>
<path fill="none" stroke="#000000" stroke-dasharray="5,2" d="M2923.5246,-184C3030.7085,-184 3274.6115,-184 3274.6115,-184 3274.6115,-184 3274.6115,-205.9489 3274.6115,-205.9489"/>
<polygon fill="#000000" stroke="#000000" points="3271.1116,-205.9488 3274.6115,-215.9489 3278.1116,-205.9489 3271.1116,-205.9488"/>
</g>
<!-- HyperlinkComponent  -->
<g id="node41" class="node">
<title>HyperlinkComponent </title>
<polygon fill="#fb8072" stroke="#000000" points="3242.596,-252 3101.404,-252 3101.404,-216 3242.596,-216 3242.596,-252"/>
<text text-anchor="middle" x="3172" y="-229.8" font-family="Times,serif" font-size="14.00" fill="#000000">HyperlinkComponent </text>
</g>
<!-- SharedModule&#45;&gt;HyperlinkComponent  -->
<g id="edge40" class="edge">
<title>SharedModule&#45;&gt;HyperlinkComponent </title>
<path fill="none" stroke="#000000" stroke-dasharray="5,2" d="M2923.2333,-185C2992.1003,-185 3108.855,-185 3108.855,-185 3108.855,-185 3108.855,-205.7542 3108.855,-205.7542"/>
<polygon fill="#000000" stroke="#000000" points="3105.3551,-205.7542 3108.855,-215.7542 3112.3551,-205.7542 3105.3551,-205.7542"/>
</g>
<!-- LogoComponent  -->
<g id="node42" class="node">
<title>LogoComponent </title>
<polygon fill="#fb8072" stroke="#000000" points="3083.3857,-252 2968.6143,-252 2968.6143,-216 3083.3857,-216 3083.3857,-252"/>
<text text-anchor="middle" x="3026" y="-229.8" font-family="Times,serif" font-size="14.00" fill="#000000">LogoComponent </text>
</g>
<!-- SharedModule&#45;&gt;LogoComponent  -->
<g id="edge41" class="edge">
<title>SharedModule&#45;&gt;LogoComponent </title>
<path fill="none" stroke="#000000" stroke-dasharray="5,2" d="M2923.4788,-186C2974.0006,-186 3045.0642,-186 3045.0642,-186 3045.0642,-186 3045.0642,-205.8533 3045.0642,-205.8533"/>
<polygon fill="#000000" stroke="#000000" points="3041.5643,-205.8532 3045.0642,-215.8533 3048.5643,-205.8533 3041.5643,-205.8532"/>
</g>
<!-- ModelCardsComponent  -->
<g id="node43" class="node">
<title>ModelCardsComponent </title>
<polygon fill="#fb8072" stroke="#000000" points="2951.0386,-252 2796.9614,-252 2796.9614,-216 2951.0386,-216 2951.0386,-252"/>
<text text-anchor="middle" x="2874" y="-229.8" font-family="Times,serif" font-size="14.00" fill="#000000">ModelCardsComponent </text>
</g>
<!-- SharedModule&#45;&gt;ModelCardsComponent  -->
<g id="edge42" class="edge">
<title>SharedModule&#45;&gt;ModelCardsComponent </title>
<path fill="none" stroke="#000000" stroke-dasharray="5,2" d="M2874,-187.1061C2874,-187.1061 2874,-205.991 2874,-205.991"/>
<polygon fill="#000000" stroke="#000000" points="2870.5001,-205.9909 2874,-215.991 2877.5001,-205.991 2870.5001,-205.9909"/>
</g>
<!-- ModelsGridComponent  -->
<g id="node44" class="node">
<title>ModelsGridComponent </title>
<polygon fill="#fb8072" stroke="#000000" points="2779.4854,-252 2626.5146,-252 2626.5146,-216 2779.4854,-216 2779.4854,-252"/>
<text text-anchor="middle" x="2703" y="-229.8" font-family="Times,serif" font-size="14.00" fill="#000000">ModelsGridComponent </text>
</g>
<!-- SharedModule&#45;&gt;ModelsGridComponent  -->
<g id="edge43" class="edge">
<title>SharedModule&#45;&gt;ModelsGridComponent </title>
<path fill="none" stroke="#000000" stroke-dasharray="5,2" d="M2824.7113,-186C2782.4757,-186 2728.4141,-186 2728.4141,-186 2728.4141,-186 2728.4141,-205.8533 2728.4141,-205.8533"/>
<polygon fill="#000000" stroke="#000000" points="2724.9142,-205.8532 2728.4141,-215.8533 2731.9142,-205.8533 2724.9142,-205.8532"/>
</g>
<!-- NavIconsComponent  -->
<g id="node45" class="node">
<title>NavIconsComponent </title>
<polygon fill="#fb8072" stroke="#000000" points="2609.4742,-252 2470.5258,-252 2470.5258,-216 2609.4742,-216 2609.4742,-252"/>
<text text-anchor="middle" x="2540" y="-229.8" font-family="Times,serif" font-size="14.00" fill="#000000">NavIconsComponent </text>
</g>
<!-- SharedModule&#45;&gt;NavIconsComponent  -->
<g id="edge44" class="edge">
<title>SharedModule&#45;&gt;NavIconsComponent </title>
<path fill="none" stroke="#000000" stroke-dasharray="5,2" d="M2824.5047,-185C2745.7428,-185 2600.685,-185 2600.685,-185 2600.685,-185 2600.685,-205.7542 2600.685,-205.7542"/>
<polygon fill="#000000" stroke="#000000" points="2597.185,-205.7542 2600.685,-215.7542 2604.185,-205.7542 2597.185,-205.7542"/>
</g>
<!-- NavigationComponent  -->
<g id="node46" class="node">
<title>NavigationComponent </title>
<polygon fill="#fb8072" stroke="#000000" points="2452.54,-252 2305.46,-252 2305.46,-216 2452.54,-216 2452.54,-252"/>
<text text-anchor="middle" x="2379" y="-229.8" font-family="Times,serif" font-size="14.00" fill="#000000">NavigationComponent </text>
</g>
<!-- SharedModule&#45;&gt;NavigationComponent  -->
<g id="edge45" class="edge">
<title>SharedModule&#45;&gt;NavigationComponent </title>
<path fill="none" stroke="#000000" stroke-dasharray="5,2" d="M2824.3727,-184C2710.7367,-184 2441.3775,-184 2441.3775,-184 2441.3775,-184 2441.3775,-205.9489 2441.3775,-205.9489"/>
<polygon fill="#000000" stroke="#000000" points="2437.8775,-205.9488 2441.3775,-215.9489 2444.8775,-205.9489 2437.8775,-205.9488"/>
</g>
<!-- ScientificNotationPipe  -->
<g id="node47" class="node">
<title>ScientificNotationPipe </title>
<polygon fill="#fb8072" stroke="#000000" points="2287.5302,-252 2140.4698,-252 2140.4698,-216 2287.5302,-216 2287.5302,-252"/>
<text text-anchor="middle" x="2214" y="-229.8" font-family="Times,serif" font-size="14.00" fill="#000000">ScientificNotationPipe </text>
</g>
<!-- SharedModule&#45;&gt;ScientificNotationPipe  -->
<g id="edge46" class="edge">
<title>SharedModule&#45;&gt;ScientificNotationPipe </title>
<path fill="none" stroke="#000000" stroke-dasharray="5,2" d="M2824.6191,-183C2682.0443,-183 2279.8498,-183 2279.8498,-183 2279.8498,-183 2279.8498,-205.8757 2279.8498,-205.8757"/>
<polygon fill="#000000" stroke="#000000" points="2276.3498,-205.8757 2279.8498,-215.8757 2283.3498,-205.8757 2276.3498,-205.8757"/>
</g>
<!-- SearchBarComponent  -->
<g id="node48" class="node">
<title>SearchBarComponent </title>
<polygon fill="#fb8072" stroke="#000000" points="2122.6313,-252 1979.3687,-252 1979.3687,-216 2122.6313,-216 2122.6313,-252"/>
<text text-anchor="middle" x="2051" y="-229.8" font-family="Times,serif" font-size="14.00" fill="#000000">SearchBarComponent </text>
</g>
<!-- SharedModule&#45;&gt;SearchBarComponent  -->
<g id="edge47" class="edge">
<title>SharedModule&#45;&gt;SearchBarComponent </title>
<path fill="none" stroke="#000000" stroke-dasharray="5,2" d="M2824.7776,-181C2652.5119,-181 2087.1271,-181 2087.1271,-181 2087.1271,-181 2087.1271,-205.7604 2087.1271,-205.7604"/>
<polygon fill="#000000" stroke="#000000" points="2083.6272,-205.7604 2087.1271,-215.7604 2090.6272,-205.7604 2083.6272,-205.7604"/>
</g>
<!-- SidebarComponent  -->
<g id="node49" class="node">
<title>SidebarComponent </title>
<polygon fill="#fb8072" stroke="#000000" points="1961.596,-252 1834.404,-252 1834.404,-216 1961.596,-216 1961.596,-252"/>
<text text-anchor="middle" x="1898" y="-229.8" font-family="Times,serif" font-size="14.00" fill="#000000">SidebarComponent </text>
</g>
<!-- SharedModule&#45;&gt;SidebarComponent  -->
<g id="edge48" class="edge">
<title>SharedModule&#45;&gt;SidebarComponent </title>
<path fill="none" stroke="#000000" stroke-dasharray="5,2" d="M2824.5544,-180C2631.0681,-180 1935.875,-180 1935.875,-180 1935.875,-180 1935.875,-205.7181 1935.875,-205.7181"/>
<polygon fill="#000000" stroke="#000000" points="1932.3751,-205.718 1935.875,-215.7181 1939.3751,-205.7181 1932.3751,-205.718"/>
</g>
<!-- SimulationCardsComponent  -->
<g id="node50" class="node">
<title>SimulationCardsComponent </title>
<polygon fill="#fb8072" stroke="#000000" points="1816.439,-252 1637.561,-252 1637.561,-216 1816.439,-216 1816.439,-252"/>
<text text-anchor="middle" x="1727" y="-229.8" font-family="Times,serif" font-size="14.00" fill="#000000">SimulationCardsComponent </text>
</g>
<!-- SharedModule&#45;&gt;SimulationCardsComponent  -->
<g id="edge49" class="edge">
<title>SharedModule&#45;&gt;SimulationCardsComponent </title>
<path fill="none" stroke="#000000" stroke-dasharray="5,2" d="M2824.6173,-179C2609.6747,-179 1766.375,-179 1766.375,-179 1766.375,-179 1766.375,-205.9909 1766.375,-205.9909"/>
<polygon fill="#000000" stroke="#000000" points="1762.8751,-205.9909 1766.375,-215.9909 1769.8751,-205.991 1762.8751,-205.9909"/>
</g>
<!-- SimulationsGridComponent  -->
<g id="node51" class="node">
<title>SimulationsGridComponent </title>
<polygon fill="#fb8072" stroke="#000000" points="1619.8854,-252 1442.1146,-252 1442.1146,-216 1619.8854,-216 1619.8854,-252"/>
<text text-anchor="middle" x="1531" y="-229.8" font-family="Times,serif" font-size="14.00" fill="#000000">SimulationsGridComponent </text>
</g>
<!-- SharedModule&#45;&gt;SimulationsGridComponent  -->
<g id="edge50" class="edge">
<title>SharedModule&#45;&gt;SimulationsGridComponent </title>
<path fill="none" stroke="#000000" stroke-dasharray="5,2" d="M2824.5452,-178C2586.6964,-178 1571.875,-178 1571.875,-178 1571.875,-178 1571.875,-205.973 1571.875,-205.973"/>
<polygon fill="#000000" stroke="#000000" points="1568.3751,-205.973 1571.875,-215.973 1575.3751,-205.973 1568.3751,-205.973"/>
</g>
<!-- TreeComponent  -->
<g id="node52" class="node">
<title>TreeComponent </title>
<polygon fill="#fb8072" stroke="#000000" points="1424.4758,-252 1313.5242,-252 1313.5242,-216 1424.4758,-216 1424.4758,-252"/>
<text text-anchor="middle" x="1369" y="-229.8" font-family="Times,serif" font-size="14.00" fill="#000000">TreeComponent </text>
</g>
<!-- SharedModule&#45;&gt;TreeComponent  -->
<g id="edge51" class="edge">
<title>SharedModule&#45;&gt;TreeComponent </title>
<path fill="none" stroke="#000000" stroke-dasharray="5,2" d="M2824.5147,-176C2569.1094,-176 1411.875,-176 1411.875,-176 1411.875,-176 1411.875,-205.9664 1411.875,-205.9664"/>
<polygon fill="#000000" stroke="#000000" points="1408.3751,-205.9663 1411.875,-215.9664 1415.3751,-205.9664 1408.3751,-205.9663"/>
</g>
<!-- UnderConstructionComponent  -->
<g id="node53" class="node">
<title>UnderConstructionComponent </title>
<polygon fill="#fb8072" stroke="#000000" points="1296.1425,-252 1103.8575,-252 1103.8575,-216 1296.1425,-216 1296.1425,-252"/>
<text text-anchor="middle" x="1200" y="-229.8" font-family="Times,serif" font-size="14.00" fill="#000000">UnderConstructionComponent </text>
</g>
<!-- SharedModule&#45;&gt;UnderConstructionComponent  -->
<g id="edge52" class="edge">
<title>SharedModule&#45;&gt;UnderConstructionComponent </title>
<path fill="none" stroke="#000000" stroke-dasharray="5,2" d="M2824.7846,-175C2552.6526,-175 1244.375,-175 1244.375,-175 1244.375,-175 1244.375,-205.9775 1244.375,-205.9775"/>
<polygon fill="#000000" stroke="#000000" points="1240.8751,-205.9774 1244.375,-215.9775 1247.8751,-205.9775 1240.8751,-205.9774"/>
</g>
<!-- UserMenuComponent  -->
<g id="node54" class="node">
<title>UserMenuComponent </title>
<polygon fill="#fb8072" stroke="#000000" points="1085.918,-252 942.082,-252 942.082,-216 1085.918,-216 1085.918,-252"/>
<text text-anchor="middle" x="1014" y="-229.8" font-family="Times,serif" font-size="14.00" fill="#000000">UserMenuComponent </text>
</g>
<!-- SharedModule&#45;&gt;UserMenuComponent  -->
<g id="edge53" class="edge">
<title>SharedModule&#45;&gt;UserMenuComponent </title>
<path fill="none" stroke="#000000" stroke-dasharray="5,2" d="M2824.5357,-174C2533.7841,-174 1059.875,-174 1059.875,-174 1059.875,-174 1059.875,-205.998 1059.875,-205.998"/>
<polygon fill="#000000" stroke="#000000" points="1056.3751,-205.998 1059.875,-215.998 1063.3751,-205.9981 1056.3751,-205.998"/>
</g>
<!-- VisualizationCardsComponent  -->
<g id="node55" class="node">
<title>VisualizationCardsComponent </title>
<polygon fill="#fb8072" stroke="#000000" points="924.1368,-252 731.8632,-252 731.8632,-216 924.1368,-216 924.1368,-252"/>
<text text-anchor="middle" x="828" y="-229.8" font-family="Times,serif" font-size="14.00" fill="#000000">VisualizationCardsComponent </text>
</g>
<!-- SharedModule&#45;&gt;VisualizationCardsComponent  -->
<g id="edge54" class="edge">
<title>SharedModule&#45;&gt;VisualizationCardsComponent </title>
<path fill="none" stroke="#000000" stroke-dasharray="5,2" d="M2824.5955,-173C2516.8239,-173 875.375,-173 875.375,-173 875.375,-173 875.375,-205.698 875.375,-205.698"/>
<polygon fill="#000000" stroke="#000000" points="871.8751,-205.698 875.375,-215.698 878.8751,-205.698 871.8751,-205.698"/>
</g>
<!-- MaterialModule -->
<g id="node30" class="node">
<title>MaterialModule</title>
<polygon fill="#8dd3c7" stroke="#000000" points="803.4706,-122 800.4706,-126 779.4706,-126 776.4706,-122 696.5294,-122 696.5294,-86 803.4706,-86 803.4706,-122"/>
<text text-anchor="middle" x="750" y="-99.8" font-family="Times,serif" font-size="14.00" fill="#000000">MaterialModule</text>
</g>
<!-- MaterialModule&#45;&gt;SharedModule -->
<g id="edge29" class="edge">
<title>MaterialModule&#45;&gt;SharedModule</title>
<path fill="none" stroke="#000000" d="M767.7085,-122.2667C767.7085,-140.5552 767.7085,-166 767.7085,-166 767.7085,-166 2814.7805,-166 2814.7805,-166"/>
<polygon fill="#000000" stroke="#000000" points="2814.7805,-169.5001 2824.7805,-166 2814.7804,-162.5001 2814.7805,-169.5001"/>
</g>
<!-- ModelService -->
<g id="node56" class="node">
<title>ModelService</title>
<ellipse fill="#fdb462" stroke="#000000" cx="608" cy="-104" rx="65.4072" ry="18"/>
<text text-anchor="middle" x="608" y="-99.8" font-family="Times,serif" font-size="14.00" fill="#000000">ModelService</text>
</g>
<!-- ModelService&#45;&gt;SharedModule -->
<g id="edge55" class="edge">
<title>ModelService&#45;&gt;SharedModule</title>
<path fill="none" stroke="#000000" d="M608,-122.1686C608,-141.0898 608,-168 608,-168 608,-168 2814.564,-168 2814.564,-168"/>
<polygon fill="#000000" stroke="#000000" points="2814.564,-171.5001 2824.564,-168 2814.564,-164.5001 2814.564,-171.5001"/>
</g>
<!-- SimulationService -->
<g id="node57" class="node">
<title>SimulationService</title>
<ellipse fill="#fdb462" stroke="#000000" cx="442" cy="-104" rx="82.2584" ry="18"/>
<text text-anchor="middle" x="442" y="-99.8" font-family="Times,serif" font-size="14.00" fill="#000000">SimulationService</text>
</g>
<!-- SimulationService&#45;&gt;SharedModule -->
<g id="edge56" class="edge">
<title>SimulationService&#45;&gt;SharedModule</title>
<path fill="none" stroke="#000000" d="M442,-122.1061C442,-141.3391 442,-169 442,-169 442,-169 2814.5944,-169 2814.5944,-169"/>
<polygon fill="#000000" stroke="#000000" points="2814.5945,-172.5001 2824.5944,-169 2814.5944,-165.5001 2814.5945,-172.5001"/>
</g>
<!-- UserService -->
<g id="node58" class="node">
<title>UserService</title>
<ellipse fill="#fdb462" stroke="#000000" cx="283" cy="-104" rx="58.4415" ry="18"/>
<text text-anchor="middle" x="283" y="-99.8" font-family="Times,serif" font-size="14.00" fill="#000000">UserService</text>
</g>
<!-- UserService&#45;&gt;SharedModule -->
<g id="edge57" class="edge">
<title>UserService&#45;&gt;SharedModule</title>
<path fill="none" stroke="#000000" d="M283,-122.0348C283,-141.5762 283,-170 283,-170 283,-170 2814.555,-170 2814.555,-170"/>
<polygon fill="#000000" stroke="#000000" points="2814.555,-173.5001 2824.555,-170 2814.5549,-166.5001 2814.555,-173.5001"/>
</g>
<!-- VisualizationService -->
<g id="node59" class="node">
<title>VisualizationService</title>
<ellipse fill="#fdb462" stroke="#000000" cx="115" cy="-104" rx="91.4654" ry="18"/>
<text text-anchor="middle" x="115" y="-99.8" font-family="Times,serif" font-size="14.00" fill="#000000">VisualizationService</text>
</g>
<!-- VisualizationService&#45;&gt;SharedModule -->
<g id="edge58" class="edge">
<title>VisualizationService&#45;&gt;SharedModule</title>
<path fill="none" stroke="#000000" d="M115,-122.308C115,-142.1455 115,-171 115,-171 115,-171 2814.6466,-171 2814.6466,-171"/>
<polygon fill="#000000" stroke="#000000" points="2814.6467,-174.5001 2824.6466,-171 2814.6466,-167.5001 2814.6467,-174.5001"/>
</g>
</g>
</svg>
