<?xml version="1.0" encoding="UTF-8" standalone="no"?>
<!DOCTYPE svg PUBLIC "-//W3C//DTD SVG 1.1//EN"
 "http://www.w3.org/Graphics/SVG/1.1/DTD/svg11.dtd">
<!-- Generated by graphviz version 2.40.1 (20161225.0304)
 -->
<!-- Title: dependencies Pages: 1 -->
<svg width="3679pt" height="284pt"
 viewBox="0.00 0.00 3679.00 284.00" xmlns="http://www.w3.org/2000/svg" xmlns:xlink="http://www.w3.org/1999/xlink">
<g id="graph0" class="graph" transform="scale(1 1) rotate(0) translate(4 280)">
<title>dependencies</title>
<polygon fill="#ffffff" stroke="transparent" points="-4,4 -4,-280 3675,-280 3675,4 -4,4"/>
<text text-anchor="start" x="1814.5091" y="-42.4" font-family="sans-serif" font-weight="bold" font-size="14.00" fill="#000000">Legend</text>
<polygon fill="#ffffb3" stroke="transparent" points="1601.5,-10 1601.5,-30 1621.5,-30 1621.5,-10 1601.5,-10"/>
<text text-anchor="start" x="1625.129" y="-15.4" font-family="sans-serif" font-size="14.00" fill="#000000"> &#160;Declarations</text>
<polygon fill="#8dd3c7" stroke="transparent" points="1714.5,-10 1714.5,-30 1734.5,-30 1734.5,-10 1714.5,-10"/>
<text text-anchor="start" x="1738.2251" y="-15.4" font-family="sans-serif" font-size="14.00" fill="#000000"> &#160;Module</text>
<polygon fill="#80b1d3" stroke="transparent" points="1800.5,-10 1800.5,-30 1820.5,-30 1820.5,-10 1800.5,-10"/>
<text text-anchor="start" x="1824.2812" y="-15.4" font-family="sans-serif" font-size="14.00" fill="#000000"> &#160;Bootstrap</text>
<polygon fill="#fdb462" stroke="transparent" points="1897.5,-10 1897.5,-30 1917.5,-30 1917.5,-10 1897.5,-10"/>
<text text-anchor="start" x="1921.1732" y="-15.4" font-family="sans-serif" font-size="14.00" fill="#000000"> &#160;Providers</text>
<polygon fill="#fb8072" stroke="transparent" points="1993.5,-10 1993.5,-30 2013.5,-30 2013.5,-10 1993.5,-10"/>
<text text-anchor="start" x="2017.2258" y="-15.4" font-family="sans-serif" font-size="14.00" fill="#000000"> &#160;Exports</text>
<g id="clust1" class="cluster">
<title>cluster_SharedModule</title>
<polygon fill="none" stroke="#000000" stroke-dasharray="1,5" points="8,-70 8,-268 3663,-268 3663,-70 8,-70"/>
</g>
<g id="clust2" class="cluster">
<title>cluster_SharedModule_declarations</title>
<polygon fill="none" stroke="#000000" points="826,-78 826,-130 3655,-130 3655,-78 826,-78"/>
</g>
<g id="clust21" class="cluster">
<title>cluster_SharedModule_imports</title>
<polygon fill="none" stroke="#000000" points="696,-78 696,-130 818,-130 818,-78 696,-78"/>
</g>
<g id="clust22" class="cluster">
<title>cluster_SharedModule_exports</title>
<polygon fill="none" stroke="#000000" points="682,-208 682,-260 3160,-260 3160,-208 682,-208"/>
</g>
<g id="clust24" class="cluster">
<title>cluster_SharedModule_providers</title>
<polygon fill="none" stroke="#000000" points="16,-78 16,-130 688,-130 688,-78 16,-78"/>
</g>
<!-- AccountMenuComponent -->
<g id="node1" class="node">
<title>AccountMenuComponent</title>
<polygon fill="#ffffb3" stroke="#000000" points="3646.9185,-122 3485.0815,-122 3485.0815,-86 3646.9185,-86 3646.9185,-122"/>
<text text-anchor="middle" x="3566" y="-99.8" font-family="Times,serif" font-size="14.00" fill="#000000">AccountMenuComponent</text>
</g>
<!-- SharedModule -->
<g id="node19" class="node">
<title>SharedModule</title>
<polygon fill="#8dd3c7" stroke="#000000" points="2030.4231,-187 2027.4231,-191 2006.4231,-191 2003.4231,-187 1931.5769,-187 1931.5769,-151 2030.4231,-151 2030.4231,-187"/>
<text text-anchor="middle" x="1981" y="-164.8" font-family="Times,serif" font-size="14.00" fill="#000000">SharedModule</text>
</g>
<!-- AccountMenuComponent&#45;&gt;SharedModule -->
<g id="edge1" class="edge">
<title>AccountMenuComponent&#45;&gt;SharedModule</title>
<path fill="none" stroke="#000000" d="M3566,-122.2228C3566,-142.3652 3566,-172 3566,-172 3566,-172 2040.6129,-172 2040.6129,-172"/>
<polygon fill="#000000" stroke="#000000" points="2040.613,-168.5001 2030.6129,-172 2040.6129,-175.5001 2040.613,-168.5001"/>
</g>
<!-- AlertComponent -->
<g id="node2" class="node">
<title>AlertComponent</title>
<polygon fill="#ffffb3" stroke="#000000" points="3467.0954,-122 3356.9046,-122 3356.9046,-86 3467.0954,-86 3467.0954,-122"/>
<text text-anchor="middle" x="3412" y="-99.8" font-family="Times,serif" font-size="14.00" fill="#000000">AlertComponent</text>
</g>
<!-- AlertComponent&#45;&gt;SharedModule -->
<g id="edge2" class="edge">
<title>AlertComponent&#45;&gt;SharedModule</title>
<path fill="none" stroke="#000000" d="M3412,-122.0348C3412,-141.5762 3412,-170 3412,-170 3412,-170 2040.2583,-170 2040.2583,-170"/>
<polygon fill="#000000" stroke="#000000" points="2040.2583,-166.5001 2030.2583,-170 2040.2582,-173.5001 2040.2583,-166.5001"/>
</g>
<!-- CallbackComponent -->
<g id="node3" class="node">
<title>CallbackComponent</title>
<polygon fill="#ffffb3" stroke="#000000" points="3338.594,-122 3207.406,-122 3207.406,-86 3338.594,-86 3338.594,-122"/>
<text text-anchor="middle" x="3273" y="-99.8" font-family="Times,serif" font-size="14.00" fill="#000000">CallbackComponent</text>
</g>
<!-- CallbackComponent&#45;&gt;SharedModule -->
<g id="edge3" class="edge">
<title>CallbackComponent&#45;&gt;SharedModule</title>
<path fill="none" stroke="#000000" d="M3273,-122.1061C3273,-141.3391 3273,-169 3273,-169 3273,-169 2040.4626,-169 2040.4626,-169"/>
<polygon fill="#000000" stroke="#000000" points="2040.4626,-165.5001 2030.4626,-169 2040.4625,-172.5001 2040.4626,-165.5001"/>
</g>
<!-- DataTableComponent -->
<g id="node4" class="node">
<title>DataTableComponent</title>
<polygon fill="#ffffb3" stroke="#000000" points="3189.6317,-122 3050.3683,-122 3050.3683,-86 3189.6317,-86 3189.6317,-122"/>
<text text-anchor="middle" x="3120" y="-99.8" font-family="Times,serif" font-size="14.00" fill="#000000">DataTableComponent</text>
</g>
<!-- DataTableComponent&#45;&gt;SharedModule -->
<g id="edge4" class="edge">
<title>DataTableComponent&#45;&gt;SharedModule</title>
<path fill="none" stroke="#000000" d="M3101.3217,-122.2222C3101.3217,-140.8285 3101.3217,-167 3101.3217,-167 3101.3217,-167 2040.2212,-167 2040.2212,-167"/>
<polygon fill="#000000" stroke="#000000" points="2040.2212,-163.5001 2030.2212,-167 2040.2212,-170.5001 2040.2212,-163.5001"/>
</g>
<!-- FilterPipe -->
<g id="node5" class="node">
<title>FilterPipe</title>
<polygon fill="#ffffb3" stroke="#000000" points="3032.7177,-122 2961.2823,-122 2961.2823,-86 3032.7177,-86 3032.7177,-122"/>
<text text-anchor="middle" x="2997" y="-99.8" font-family="Times,serif" font-size="14.00" fill="#000000">FilterPipe</text>
</g>
<!-- FilterPipe&#45;&gt;SharedModule -->
<g id="edge5" class="edge">
<title>FilterPipe&#45;&gt;SharedModule</title>
<path fill="none" stroke="#000000" d="M2965.5945,-122.302C2965.5945,-140.2699 2965.5945,-165 2965.5945,-165 2965.5945,-165 2040.501,-165 2040.501,-165"/>
<polygon fill="#000000" stroke="#000000" points="2040.501,-161.5001 2030.501,-165 2040.5009,-168.5001 2040.501,-161.5001"/>
</g>
<!-- FormatTimeForHumansPipe -->
<g id="node6" class="node">
<title>FormatTimeForHumansPipe</title>
<polygon fill="#ffffb3" stroke="#000000" points="2943.4748,-122 2766.5252,-122 2766.5252,-86 2943.4748,-86 2943.4748,-122"/>
<text text-anchor="middle" x="2855" y="-99.8" font-family="Times,serif" font-size="14.00" fill="#000000">FormatTimeForHumansPipe</text>
</g>
<!-- FormatTimeForHumansPipe&#45;&gt;SharedModule -->
<g id="edge6" class="edge">
<title>FormatTimeForHumansPipe&#45;&gt;SharedModule</title>
<path fill="none" stroke="#000000" d="M2802.4048,-122.0225C2802.4048,-139.3734 2802.4048,-163 2802.4048,-163 2802.4048,-163 2040.2273,-163 2040.2273,-163"/>
<polygon fill="#000000" stroke="#000000" points="2040.2274,-159.5001 2030.2273,-163 2040.2273,-166.5001 2040.2274,-159.5001"/>
</g>
<!-- FourComponent -->
<g id="node7" class="node">
<title>FourComponent</title>
<polygon fill="#ffffb3" stroke="#000000" points="2748.7758,-122 2641.2242,-122 2641.2242,-86 2748.7758,-86 2748.7758,-122"/>
<text text-anchor="middle" x="2695" y="-99.8" font-family="Times,serif" font-size="14.00" fill="#000000">FourComponent</text>
</g>
<!-- FourComponent&#45;&gt;SharedModule -->
<g id="edge7" class="edge">
<title>FourComponent&#45;&gt;SharedModule</title>
<path fill="none" stroke="#000000" d="M2663.3389,-122.0352C2663.3389,-138.7344 2663.3389,-161 2663.3389,-161 2663.3389,-161 2040.3466,-161 2040.3466,-161"/>
<polygon fill="#000000" stroke="#000000" points="2040.3467,-157.5001 2030.3466,-161 2040.3466,-164.5001 2040.3467,-157.5001"/>
</g>
<!-- GridComponent -->
<g id="node8" class="node">
<title>GridComponent</title>
<polygon fill="#ffffb3" stroke="#000000" points="2623.4902,-122 2516.5098,-122 2516.5098,-86 2623.4902,-86 2623.4902,-122"/>
<text text-anchor="middle" x="2570" y="-99.8" font-family="Times,serif" font-size="14.00" fill="#000000">GridComponent</text>
</g>
<!-- GridComponent&#45;&gt;SharedModule -->
<g id="edge8" class="edge">
<title>GridComponent&#45;&gt;SharedModule</title>
<path fill="none" stroke="#000000" d="M2520.4318,-122.0091C2520.4318,-138.0494 2520.4318,-159 2520.4318,-159 2520.4318,-159 2040.301,-159 2040.301,-159"/>
<polygon fill="#000000" stroke="#000000" points="2040.301,-155.5001 2030.301,-159 2040.301,-162.5001 2040.301,-155.5001"/>
</g>
<!-- HomeComponent -->
<g id="node9" class="node">
<title>HomeComponent</title>
<polygon fill="#ffffb3" stroke="#000000" points="2498.5451,-122 2383.4549,-122 2383.4549,-86 2498.5451,-86 2498.5451,-122"/>
<text text-anchor="middle" x="2441" y="-99.8" font-family="Times,serif" font-size="14.00" fill="#000000">HomeComponent</text>
</g>
<!-- HomeComponent&#45;&gt;SharedModule -->
<g id="edge9" class="edge">
<title>HomeComponent&#45;&gt;SharedModule</title>
<path fill="none" stroke="#000000" d="M2407.2327,-122.2396C2407.2327,-137.5706 2407.2327,-157 2407.2327,-157 2407.2327,-157 2040.3107,-157 2040.3107,-157"/>
<polygon fill="#000000" stroke="#000000" points="2040.3107,-153.5001 2030.3107,-157 2040.3107,-160.5001 2040.3107,-153.5001"/>
</g>
<!-- IdRendererGridComponent -->
<g id="node10" class="node">
<title>IdRendererGridComponent</title>
<polygon fill="#ffffb3" stroke="#000000" points="2364.9524,-122 2195.0476,-122 2195.0476,-86 2364.9524,-86 2364.9524,-122"/>
<text text-anchor="middle" x="2280" y="-99.8" font-family="Times,serif" font-size="14.00" fill="#000000">IdRendererGridComponent</text>
</g>
<!-- IdRendererGridComponent&#45;&gt;SharedModule -->
<g id="edge10" class="edge">
<title>IdRendererGridComponent&#45;&gt;SharedModule</title>
<path fill="none" stroke="#000000" d="M2213.8308,-122.1243C2213.8308,-136.7832 2213.8308,-155 2213.8308,-155 2213.8308,-155 2040.3774,-155 2040.3774,-155"/>
<polygon fill="#000000" stroke="#000000" points="2040.3775,-151.5001 2030.3774,-155 2040.3774,-158.5001 2040.3775,-151.5001"/>
</g>
<!-- LogoComponent -->
<g id="node11" class="node">
<title>LogoComponent</title>
<polygon fill="#ffffb3" stroke="#000000" points="2177.3851,-122 2066.6149,-122 2066.6149,-86 2177.3851,-86 2177.3851,-122"/>
<text text-anchor="middle" x="2122" y="-99.8" font-family="Times,serif" font-size="14.00" fill="#000000">LogoComponent</text>
</g>
<!-- LogoComponent&#45;&gt;SharedModule -->
<g id="edge11" class="edge">
<title>LogoComponent&#45;&gt;SharedModule</title>
<path fill="none" stroke="#000000" d="M2084.9013,-122.2458C2084.9013,-136.1772 2084.9013,-153 2084.9013,-153 2084.9013,-153 2040.2122,-153 2040.2122,-153"/>
<polygon fill="#000000" stroke="#000000" points="2040.2122,-149.5001 2030.2122,-153 2040.2122,-156.5001 2040.2122,-149.5001"/>
</g>
<!-- NavIconsComponent -->
<g id="node12" class="node">
<title>NavIconsComponent</title>
<polygon fill="#ffffb3" stroke="#000000" points="2048.4734,-122 1913.5266,-122 1913.5266,-86 2048.4734,-86 2048.4734,-122"/>
<text text-anchor="middle" x="1981" y="-99.8" font-family="Times,serif" font-size="14.00" fill="#000000">NavIconsComponent</text>
</g>
<!-- NavIconsComponent&#45;&gt;SharedModule -->
<g id="edge12" class="edge">
<title>NavIconsComponent&#45;&gt;SharedModule</title>
<path fill="none" stroke="#000000" d="M1981,-122.1061C1981,-122.1061 1981,-140.991 1981,-140.991"/>
<polygon fill="#000000" stroke="#000000" points="1977.5001,-140.9909 1981,-150.991 1984.5001,-140.991 1977.5001,-140.9909"/>
</g>
<!-- NavigationComponent -->
<g id="node13" class="node">
<title>NavigationComponent</title>
<polygon fill="#ffffb3" stroke="#000000" points="1895.5407,-122 1752.4593,-122 1752.4593,-86 1895.5407,-86 1895.5407,-122"/>
<text text-anchor="middle" x="1824" y="-99.8" font-family="Times,serif" font-size="14.00" fill="#000000">NavigationComponent</text>
</g>
<!-- NavigationComponent&#45;&gt;SharedModule -->
<g id="edge13" class="edge">
<title>NavigationComponent&#45;&gt;SharedModule</title>
<path fill="none" stroke="#000000" d="M1875.624,-122.2458C1875.624,-136.1772 1875.624,-153 1875.624,-153 1875.624,-153 1921.7058,-153 1921.7058,-153"/>
<polygon fill="#000000" stroke="#000000" points="1921.7058,-156.5001 1931.7058,-153 1921.7058,-149.5001 1921.7058,-156.5001"/>
</g>
<!-- SearchBarComponent -->
<g id="node14" class="node">
<title>SearchBarComponent</title>
<polygon fill="#ffffb3" stroke="#000000" points="1733.6317,-122 1594.3683,-122 1594.3683,-86 1733.6317,-86 1733.6317,-122"/>
<text text-anchor="middle" x="1664" y="-99.8" font-family="Times,serif" font-size="14.00" fill="#000000">SearchBarComponent</text>
</g>
<!-- SearchBarComponent&#45;&gt;SharedModule -->
<g id="edge14" class="edge">
<title>SearchBarComponent&#45;&gt;SharedModule</title>
<path fill="none" stroke="#000000" d="M1728.3116,-122.1243C1728.3116,-136.7832 1728.3116,-155 1728.3116,-155 1728.3116,-155 1921.6793,-155 1921.6793,-155"/>
<polygon fill="#000000" stroke="#000000" points="1921.6793,-158.5001 1931.6793,-155 1921.6792,-151.5001 1921.6793,-158.5001"/>
</g>
<!-- SearchToolPanelGridComponent -->
<g id="node15" class="node">
<title>SearchToolPanelGridComponent</title>
<polygon fill="#ffffb3" stroke="#000000" points="1576.1232,-122 1373.8768,-122 1373.8768,-86 1576.1232,-86 1576.1232,-122"/>
<text text-anchor="middle" x="1475" y="-99.8" font-family="Times,serif" font-size="14.00" fill="#000000">SearchToolPanelGridComponent</text>
</g>
<!-- SearchToolPanelGridComponent&#45;&gt;SharedModule -->
<g id="edge15" class="edge">
<title>SearchToolPanelGridComponent&#45;&gt;SharedModule</title>
<path fill="none" stroke="#000000" d="M1571.5374,-122.2396C1571.5374,-137.5706 1571.5374,-157 1571.5374,-157 1571.5374,-157 1921.6092,-157 1921.6092,-157"/>
<polygon fill="#000000" stroke="#000000" points="1921.6093,-160.5001 1931.6092,-157 1921.6092,-153.5001 1921.6093,-160.5001"/>
</g>
<!-- SidebarComponent -->
<g id="node16" class="node">
<title>SidebarComponent</title>
<polygon fill="#ffffb3" stroke="#000000" points="1356.0954,-122 1231.9046,-122 1231.9046,-86 1356.0954,-86 1356.0954,-122"/>
<text text-anchor="middle" x="1294" y="-99.8" font-family="Times,serif" font-size="14.00" fill="#000000">SidebarComponent</text>
</g>
<!-- SidebarComponent&#45;&gt;SharedModule -->
<g id="edge16" class="edge">
<title>SidebarComponent&#45;&gt;SharedModule</title>
<path fill="none" stroke="#000000" d="M1298.2411,-122.0091C1298.2411,-138.0494 1298.2411,-159 1298.2411,-159 1298.2411,-159 1921.623,-159 1921.623,-159"/>
<polygon fill="#000000" stroke="#000000" points="1921.623,-162.5001 1931.623,-159 1921.623,-155.5001 1921.623,-162.5001"/>
</g>
<!-- SimulationsGridComponent -->
<g id="node17" class="node">
<title>SimulationsGridComponent</title>
<polygon fill="#ffffb3" stroke="#000000" points="1213.885,-122 1040.115,-122 1040.115,-86 1213.885,-86 1213.885,-122"/>
<text text-anchor="middle" x="1127" y="-99.8" font-family="Times,serif" font-size="14.00" fill="#000000">SimulationsGridComponent</text>
</g>
<!-- SimulationsGridComponent&#45;&gt;SharedModule -->
<g id="edge17" class="edge">
<title>SimulationsGridComponent&#45;&gt;SharedModule</title>
<path fill="none" stroke="#000000" d="M1154.5724,-122.0352C1154.5724,-138.7344 1154.5724,-161 1154.5724,-161 1154.5724,-161 1921.7781,-161 1921.7781,-161"/>
<polygon fill="#000000" stroke="#000000" points="1921.7782,-164.5001 1931.7781,-161 1921.7781,-157.5001 1921.7782,-164.5001"/>
</g>
<!-- UnderConstructionComponent -->
<g id="node18" class="node">
<title>UnderConstructionComponent</title>
<polygon fill="#ffffb3" stroke="#000000" points="1022.1427,-122 833.8573,-122 833.8573,-86 1022.1427,-86 1022.1427,-122"/>
<text text-anchor="middle" x="928" y="-99.8" font-family="Times,serif" font-size="14.00" fill="#000000">UnderConstructionComponent</text>
</g>
<!-- UnderConstructionComponent&#45;&gt;SharedModule -->
<g id="edge18" class="edge">
<title>UnderConstructionComponent&#45;&gt;SharedModule</title>
<path fill="none" stroke="#000000" d="M961.3144,-122.0225C961.3144,-139.3734 961.3144,-163 961.3144,-163 961.3144,-163 1921.4738,-163 1921.4738,-163"/>
<polygon fill="#000000" stroke="#000000" points="1921.4739,-166.5001 1931.4738,-163 1921.4738,-159.5001 1921.4739,-166.5001"/>
</g>
<!-- AccountMenuComponent  -->
<g id="node21" class="node">
<title>AccountMenuComponent </title>
<polygon fill="#fb8072" stroke="#000000" points="3152.418,-252 2987.582,-252 2987.582,-216 3152.418,-216 3152.418,-252"/>
<text text-anchor="middle" x="3070" y="-229.8" font-family="Times,serif" font-size="14.00" fill="#000000">AccountMenuComponent </text>
</g>
<!-- SharedModule&#45;&gt;AccountMenuComponent  -->
<g id="edge20" class="edge">
<title>SharedModule&#45;&gt;AccountMenuComponent </title>
<path fill="none" stroke="#000000" stroke-dasharray="5,2" d="M2030.2877,-174C2235.3243,-174 3010.0749,-174 3010.0749,-174 3010.0749,-174 3010.0749,-205.998 3010.0749,-205.998"/>
<polygon fill="#000000" stroke="#000000" points="3006.5749,-205.998 3010.0749,-215.998 3013.5749,-205.9981 3006.5749,-205.998"/>
</g>
<!-- AlertComponent  -->
<g id="node22" class="node">
<title>AlertComponent </title>
<polygon fill="#fb8072" stroke="#000000" points="2969.5961,-252 2856.4039,-252 2856.4039,-216 2969.5961,-216 2969.5961,-252"/>
<text text-anchor="middle" x="2913" y="-229.8" font-family="Times,serif" font-size="14.00" fill="#000000">AlertComponent </text>
</g>
<!-- SharedModule&#45;&gt;AlertComponent  -->
<g id="edge21" class="edge">
<title>SharedModule&#45;&gt;AlertComponent </title>
<path fill="none" stroke="#000000" stroke-dasharray="5,2" d="M2030.4011,-176C2221.2546,-176 2899.8449,-176 2899.8449,-176 2899.8449,-176 2899.8449,-205.9664 2899.8449,-205.9664"/>
<polygon fill="#000000" stroke="#000000" points="2896.3449,-205.9663 2899.8449,-215.9664 2903.3449,-205.9664 2896.3449,-205.9663"/>
</g>
<!-- CallbackComponent  -->
<g id="node23" class="node">
<title>CallbackComponent </title>
<polygon fill="#fb8072" stroke="#000000" points="2838.0946,-252 2703.9054,-252 2703.9054,-216 2838.0946,-216 2838.0946,-252"/>
<text text-anchor="middle" x="2771" y="-229.8" font-family="Times,serif" font-size="14.00" fill="#000000">CallbackComponent </text>
</g>
<!-- SharedModule&#45;&gt;CallbackComponent  -->
<g id="edge22" class="edge">
<title>SharedModule&#45;&gt;CallbackComponent </title>
<path fill="none" stroke="#000000" stroke-dasharray="5,2" d="M2030.4781,-178C2196.9366,-178 2726.2954,-178 2726.2954,-178 2726.2954,-178 2726.2954,-205.973 2726.2954,-205.973"/>
<polygon fill="#000000" stroke="#000000" points="2722.7955,-205.973 2726.2954,-215.973 2729.7955,-205.973 2722.7955,-205.973"/>
</g>
<!-- DataTableComponent  -->
<g id="node24" class="node">
<title>DataTableComponent </title>
<polygon fill="#fb8072" stroke="#000000" points="2685.6313,-252 2542.3687,-252 2542.3687,-216 2685.6313,-216 2685.6313,-252"/>
<text text-anchor="middle" x="2614" y="-229.8" font-family="Times,serif" font-size="14.00" fill="#000000">DataTableComponent </text>
</g>
<!-- SharedModule&#45;&gt;DataTableComponent  -->
<g id="edge23" class="edge">
<title>SharedModule&#45;&gt;DataTableComponent </title>
<path fill="none" stroke="#000000" stroke-dasharray="5,2" d="M2030.2613,-180C2174.0281,-180 2582.9648,-180 2582.9648,-180 2582.9648,-180 2582.9648,-205.7181 2582.9648,-205.7181"/>
<polygon fill="#000000" stroke="#000000" points="2579.4648,-205.718 2582.9648,-215.7181 2586.4648,-205.7181 2579.4648,-205.718"/>
</g>
<!-- FilterPipe  -->
<g id="node25" class="node">
<title>FilterPipe </title>
<polygon fill="#fb8072" stroke="#000000" points="2524.2179,-252 2449.7821,-252 2449.7821,-216 2524.2179,-216 2524.2179,-252"/>
<text text-anchor="middle" x="2487" y="-229.8" font-family="Times,serif" font-size="14.00" fill="#000000">FilterPipe </text>
</g>
<!-- SharedModule&#45;&gt;FilterPipe  -->
<g id="edge24" class="edge">
<title>SharedModule&#45;&gt;FilterPipe </title>
<path fill="none" stroke="#000000" stroke-dasharray="5,2" d="M2030.5487,-182C2155.6192,-182 2474.2067,-182 2474.2067,-182 2474.2067,-182 2474.2067,-205.8129 2474.2067,-205.8129"/>
<polygon fill="#000000" stroke="#000000" points="2470.7068,-205.8129 2474.2067,-215.8129 2477.7068,-205.813 2470.7068,-205.8129"/>
</g>
<!-- FormatTimeForHumansPipe  -->
<g id="node26" class="node">
<title>FormatTimeForHumansPipe </title>
<polygon fill="#fb8072" stroke="#000000" points="2431.4754,-252 2250.5246,-252 2250.5246,-216 2431.4754,-216 2431.4754,-252"/>
<text text-anchor="middle" x="2341" y="-229.8" font-family="Times,serif" font-size="14.00" fill="#000000">FormatTimeForHumansPipe </text>
</g>
<!-- SharedModule&#45;&gt;FormatTimeForHumansPipe  -->
<g id="edge25" class="edge">
<title>SharedModule&#45;&gt;FormatTimeForHumansPipe </title>
<path fill="none" stroke="#000000" stroke-dasharray="5,2" d="M2030.2896,-184C2121.6035,-184 2307.8694,-184 2307.8694,-184 2307.8694,-184 2307.8694,-205.9489 2307.8694,-205.9489"/>
<polygon fill="#000000" stroke="#000000" points="2304.3695,-205.9488 2307.8694,-215.9489 2311.3695,-205.9489 2304.3695,-205.9488"/>
</g>
<!-- FourComponent  -->
<g id="node27" class="node">
<title>FourComponent </title>
<polygon fill="#fb8072" stroke="#000000" points="2232.7759,-252 2121.2241,-252 2121.2241,-216 2232.7759,-216 2232.7759,-252"/>
<text text-anchor="middle" x="2177" y="-229.8" font-family="Times,serif" font-size="14.00" fill="#000000">FourComponent </text>
</g>
<!-- SharedModule&#45;&gt;FourComponent  -->
<g id="edge26" class="edge">
<title>SharedModule&#45;&gt;FourComponent </title>
<path fill="none" stroke="#000000" stroke-dasharray="5,2" d="M2030.6154,-186C2080.29,-186 2149.4024,-186 2149.4024,-186 2149.4024,-186 2149.4024,-205.8533 2149.4024,-205.8533"/>
<polygon fill="#000000" stroke="#000000" points="2145.9024,-205.8532 2149.4024,-215.8533 2152.9024,-205.8533 2145.9024,-205.8532"/>
</g>
<!-- GridComponent  -->
<g id="node28" class="node">
<title>GridComponent </title>
<polygon fill="#fb8072" stroke="#000000" points="2103.4913,-252 1992.5087,-252 1992.5087,-216 2103.4913,-216 2103.4913,-252"/>
<text text-anchor="middle" x="2048" y="-229.8" font-family="Times,serif" font-size="14.00" fill="#000000">GridComponent </text>
</g>
<!-- SharedModule&#45;&gt;GridComponent  -->
<g id="edge27" class="edge">
<title>SharedModule&#45;&gt;GridComponent </title>
<path fill="none" stroke="#000000" stroke-dasharray="5,2" d="M2011.483,-187.1061C2011.483,-187.1061 2011.483,-205.991 2011.483,-205.991"/>
<polygon fill="#000000" stroke="#000000" points="2007.9831,-205.9909 2011.483,-215.991 2014.9831,-205.991 2007.9831,-205.9909"/>
</g>
<!-- HomeComponent  -->
<g id="node29" class="node">
<title>HomeComponent </title>
<polygon fill="#fb8072" stroke="#000000" points="1974.5442,-252 1855.4558,-252 1855.4558,-216 1974.5442,-216 1974.5442,-252"/>
<text text-anchor="middle" x="1915" y="-229.8" font-family="Times,serif" font-size="14.00" fill="#000000">HomeComponent </text>
</g>
<!-- SharedModule&#45;&gt;HomeComponent  -->
<g id="edge28" class="edge">
<title>SharedModule&#45;&gt;HomeComponent </title>
<path fill="none" stroke="#000000" stroke-dasharray="5,2" d="M1953.1555,-187.1061C1953.1555,-187.1061 1953.1555,-205.991 1953.1555,-205.991"/>
<polygon fill="#000000" stroke="#000000" points="1949.6556,-205.9909 1953.1555,-215.991 1956.6556,-205.991 1949.6556,-205.9909"/>
</g>
<!-- LogoComponent  -->
<g id="node30" class="node">
<title>LogoComponent </title>
<polygon fill="#fb8072" stroke="#000000" points="1837.3857,-252 1722.6143,-252 1722.6143,-216 1837.3857,-216 1837.3857,-252"/>
<text text-anchor="middle" x="1780" y="-229.8" font-family="Times,serif" font-size="14.00" fill="#000000">LogoComponent </text>
</g>
<!-- SharedModule&#45;&gt;LogoComponent  -->
<g id="edge29" class="edge">
<title>SharedModule&#45;&gt;LogoComponent </title>
<path fill="none" stroke="#000000" stroke-dasharray="5,2" d="M1931.5671,-186C1876.3782,-186 1794.7113,-186 1794.7113,-186 1794.7113,-186 1794.7113,-205.8533 1794.7113,-205.8533"/>
<polygon fill="#000000" stroke="#000000" points="1791.2113,-205.8532 1794.7113,-215.8533 1798.2113,-205.8533 1791.2113,-205.8532"/>
</g>
<!-- NavIconsComponent  -->
<g id="node31" class="node">
<title>NavIconsComponent </title>
<polygon fill="#fb8072" stroke="#000000" points="1705.4742,-252 1566.5258,-252 1566.5258,-216 1705.4742,-216 1705.4742,-252"/>
<text text-anchor="middle" x="1636" y="-229.8" font-family="Times,serif" font-size="14.00" fill="#000000">NavIconsComponent </text>
</g>
<!-- SharedModule&#45;&gt;NavIconsComponent  -->
<g id="edge30" class="edge">
<title>SharedModule&#45;&gt;NavIconsComponent </title>
<path fill="none" stroke="#000000" stroke-dasharray="5,2" d="M1931.7603,-184C1839.4734,-184 1649.7106,-184 1649.7106,-184 1649.7106,-184 1649.7106,-205.9489 1649.7106,-205.9489"/>
<polygon fill="#000000" stroke="#000000" points="1646.2106,-205.9488 1649.7106,-215.9489 1653.2106,-205.9489 1646.2106,-205.9488"/>
</g>
<!-- NavigationComponent  -->
<g id="node32" class="node">
<title>NavigationComponent </title>
<polygon fill="#fb8072" stroke="#000000" points="1548.54,-252 1401.46,-252 1401.46,-216 1548.54,-216 1548.54,-252"/>
<text text-anchor="middle" x="1475" y="-229.8" font-family="Times,serif" font-size="14.00" fill="#000000">NavigationComponent </text>
</g>
<!-- SharedModule&#45;&gt;NavigationComponent  -->
<g id="edge31" class="edge">
<title>SharedModule&#45;&gt;NavigationComponent </title>
<path fill="none" stroke="#000000" stroke-dasharray="5,2" d="M1931.5613,-182C1804.2386,-182 1475,-182 1475,-182 1475,-182 1475,-205.8129 1475,-205.8129"/>
<polygon fill="#000000" stroke="#000000" points="1471.5001,-205.8129 1475,-215.8129 1478.5001,-205.813 1471.5001,-205.8129"/>
</g>
<!-- SearchBarComponent  -->
<g id="node33" class="node">
<title>SearchBarComponent </title>
<polygon fill="#fb8072" stroke="#000000" points="1383.6313,-252 1240.3687,-252 1240.3687,-216 1383.6313,-216 1383.6313,-252"/>
<text text-anchor="middle" x="1312" y="-229.8" font-family="Times,serif" font-size="14.00" fill="#000000">SearchBarComponent </text>
</g>
<!-- SharedModule&#45;&gt;SearchBarComponent  -->
<g id="edge32" class="edge">
<title>SharedModule&#45;&gt;SearchBarComponent </title>
<path fill="none" stroke="#000000" stroke-dasharray="5,2" d="M1931.7053,-180C1787.841,-180 1378.6271,-180 1378.6271,-180 1378.6271,-180 1378.6271,-205.7181 1378.6271,-205.7181"/>
<polygon fill="#000000" stroke="#000000" points="1375.1272,-205.718 1378.6271,-215.7181 1382.1272,-205.7181 1375.1272,-205.718"/>
</g>
<!-- SidebarComponent  -->
<g id="node34" class="node">
<title>SidebarComponent </title>
<polygon fill="#fb8072" stroke="#000000" points="1222.596,-252 1095.404,-252 1095.404,-216 1222.596,-216 1222.596,-252"/>
<text text-anchor="middle" x="1159" y="-229.8" font-family="Times,serif" font-size="14.00" fill="#000000">SidebarComponent </text>
</g>
<!-- SharedModule&#45;&gt;SidebarComponent  -->
<g id="edge33" class="edge">
<title>SharedModule&#45;&gt;SidebarComponent </title>
<path fill="none" stroke="#000000" stroke-dasharray="5,2" d="M1931.5493,-178C1762.5546,-178 1218.3701,-178 1218.3701,-178 1218.3701,-178 1218.3701,-205.973 1218.3701,-205.973"/>
<polygon fill="#000000" stroke="#000000" points="1214.8702,-205.973 1218.3701,-215.973 1221.8702,-205.973 1214.8702,-205.973"/>
</g>
<!-- SimulationsGridComponent  -->
<g id="node35" class="node">
<title>SimulationsGridComponent </title>
<polygon fill="#fb8072" stroke="#000000" points="1077.8854,-252 900.1146,-252 900.1146,-216 1077.8854,-216 1077.8854,-252"/>
<text text-anchor="middle" x="989" y="-229.8" font-family="Times,serif" font-size="14.00" fill="#000000">SimulationsGridComponent </text>
</g>
<!-- SharedModule&#45;&gt;SimulationsGridComponent  -->
<g id="edge34" class="edge">
<title>SharedModule&#45;&gt;SimulationsGridComponent </title>
<path fill="none" stroke="#000000" stroke-dasharray="5,2" d="M1931.7486,-176C1740.6618,-176 1058.875,-176 1058.875,-176 1058.875,-176 1058.875,-205.9664 1058.875,-205.9664"/>
<polygon fill="#000000" stroke="#000000" points="1055.3751,-205.9663 1058.875,-215.9664 1062.3751,-205.9664 1055.3751,-205.9663"/>
</g>
<!-- UnderConstructionComponent  -->
<g id="node36" class="node">
<title>UnderConstructionComponent </title>
<polygon fill="#fb8072" stroke="#000000" points="882.1425,-252 689.8575,-252 689.8575,-216 882.1425,-216 882.1425,-252"/>
<text text-anchor="middle" x="786" y="-229.8" font-family="Times,serif" font-size="14.00" fill="#000000">UnderConstructionComponent </text>
</g>
<!-- SharedModule&#45;&gt;UnderConstructionComponent  -->
<g id="edge35" class="edge">
<title>SharedModule&#45;&gt;UnderConstructionComponent </title>
<path fill="none" stroke="#000000" stroke-dasharray="5,2" d="M1931.6556,-174C1714.8909,-174 857.875,-174 857.875,-174 857.875,-174 857.875,-205.998 857.875,-205.998"/>
<polygon fill="#000000" stroke="#000000" points="854.3751,-205.998 857.875,-215.998 861.3751,-205.9981 854.3751,-205.998"/>
</g>
<!-- MaterialModule -->
<g id="node20" class="node">
<title>MaterialModule</title>
<polygon fill="#8dd3c7" stroke="#000000" points="810.4706,-122 807.4706,-126 786.4706,-126 783.4706,-122 703.5294,-122 703.5294,-86 810.4706,-86 810.4706,-122"/>
<text text-anchor="middle" x="757" y="-99.8" font-family="Times,serif" font-size="14.00" fill="#000000">MaterialModule</text>
</g>
<!-- MaterialModule&#45;&gt;SharedModule -->
<g id="edge19" class="edge">
<title>MaterialModule&#45;&gt;SharedModule</title>
<path fill="none" stroke="#000000" d="M757,-122.302C757,-140.2699 757,-165 757,-165 757,-165 1921.5018,-165 1921.5018,-165"/>
<polygon fill="#000000" stroke="#000000" points="1921.5018,-168.5001 1931.5018,-165 1921.5017,-161.5001 1921.5018,-168.5001"/>
</g>
<!-- ModelService -->
<g id="node37" class="node">
<title>ModelService</title>
<ellipse fill="#fdb462" stroke="#000000" cx="615" cy="-104" rx="65.4072" ry="18"/>
<text text-anchor="middle" x="615" y="-99.8" font-family="Times,serif" font-size="14.00" fill="#000000">ModelService</text>
</g>
<!-- ModelService&#45;&gt;SharedModule -->
<g id="edge36" class="edge">
<title>ModelService&#45;&gt;SharedModule</title>
<path fill="none" stroke="#000000" d="M615,-122.2222C615,-140.8285 615,-167 615,-167 615,-167 1921.5763,-167 1921.5763,-167"/>
<polygon fill="#000000" stroke="#000000" points="1921.5764,-170.5001 1931.5763,-167 1921.5763,-163.5001 1921.5764,-170.5001"/>
</g>
<!-- SimulationService -->
<g id="node38" class="node">
<title>SimulationService</title>
<ellipse fill="#fdb462" stroke="#000000" cx="449" cy="-104" rx="82.2584" ry="18"/>
<text text-anchor="middle" x="449" y="-99.8" font-family="Times,serif" font-size="14.00" fill="#000000">SimulationService</text>
</g>
<!-- SimulationService&#45;&gt;SharedModule -->
<g id="edge37" class="edge">
<title>SimulationService&#45;&gt;SharedModule</title>
<path fill="none" stroke="#000000" d="M449,-122.1061C449,-141.3391 449,-169 449,-169 449,-169 1921.7628,-169 1921.7628,-169"/>
<polygon fill="#000000" stroke="#000000" points="1921.7628,-172.5001 1931.7628,-169 1921.7627,-165.5001 1921.7628,-172.5001"/>
</g>
<!-- UserService -->
<g id="node39" class="node">
<title>UserService</title>
<ellipse fill="#fdb462" stroke="#000000" cx="290" cy="-104" rx="58.4415" ry="18"/>
<text text-anchor="middle" x="290" y="-99.8" font-family="Times,serif" font-size="14.00" fill="#000000">UserService</text>
</g>
<!-- UserService&#45;&gt;SharedModule -->
<g id="edge38" class="edge">
<title>UserService&#45;&gt;SharedModule</title>
<path fill="none" stroke="#000000" d="M290,-122.0348C290,-141.5762 290,-170 290,-170 290,-170 1921.7623,-170 1921.7623,-170"/>
<polygon fill="#000000" stroke="#000000" points="1921.7623,-173.5001 1931.7623,-170 1921.7623,-166.5001 1921.7623,-173.5001"/>
</g>
<!-- VisualizationsService -->
<g id="node40" class="node">
<title>VisualizationsService</title>
<ellipse fill="#fdb462" stroke="#000000" cx="119" cy="-104" rx="95.4772" ry="18"/>
<text text-anchor="middle" x="119" y="-99.8" font-family="Times,serif" font-size="14.00" fill="#000000">VisualizationsService</text>
</g>
<!-- VisualizationsService&#45;&gt;SharedModule -->
<g id="edge39" class="edge">
<title>VisualizationsService&#45;&gt;SharedModule</title>
<path fill="none" stroke="#000000" d="M119,-122.2228C119,-142.3652 119,-172 119,-172 119,-172 1921.6756,-172 1921.6756,-172"/>
<polygon fill="#000000" stroke="#000000" points="1921.6757,-175.5001 1931.6756,-172 1921.6756,-168.5001 1921.6757,-175.5001"/>
</g>
</g>
</svg>
