<?xml version="1.0" encoding="UTF-8" standalone="no"?>
<!DOCTYPE svg PUBLIC "-//W3C//DTD SVG 1.1//EN"
 "http://www.w3.org/Graphics/SVG/1.1/DTD/svg11.dtd">
<!-- Generated by graphviz version 2.40.1 (20161225.0304)
 -->
<!-- Title: dependencies Pages: 1 -->
<svg width="783pt" height="211pt"
 viewBox="0.00 0.00 783.00 211.00" xmlns="http://www.w3.org/2000/svg" xmlns:xlink="http://www.w3.org/1999/xlink">
<g id="graph0" class="graph" transform="scale(1 1) rotate(0) translate(4 207)">
<title>dependencies</title>
<polygon fill="#ffffff" stroke="transparent" points="-4,4 -4,-207 779,-207 779,4 -4,4"/>
<text text-anchor="start" x="366.5091" y="-42.4" font-family="sans-serif" font-weight="bold" font-size="14.00" fill="#000000">Legend</text>
<polygon fill="#ffffb3" stroke="transparent" points="153.5,-10 153.5,-30 173.5,-30 173.5,-10 153.5,-10"/>
<text text-anchor="start" x="177.129" y="-15.4" font-family="sans-serif" font-size="14.00" fill="#000000"> &#160;Declarations</text>
<polygon fill="#8dd3c7" stroke="transparent" points="266.5,-10 266.5,-30 286.5,-30 286.5,-10 266.5,-10"/>
<text text-anchor="start" x="290.2251" y="-15.4" font-family="sans-serif" font-size="14.00" fill="#000000"> &#160;Module</text>
<polygon fill="#80b1d3" stroke="transparent" points="352.5,-10 352.5,-30 372.5,-30 372.5,-10 352.5,-10"/>
<text text-anchor="start" x="376.2812" y="-15.4" font-family="sans-serif" font-size="14.00" fill="#000000"> &#160;Bootstrap</text>
<polygon fill="#fdb462" stroke="transparent" points="449.5,-10 449.5,-30 469.5,-30 469.5,-10 449.5,-10"/>
<text text-anchor="start" x="473.1732" y="-15.4" font-family="sans-serif" font-size="14.00" fill="#000000"> &#160;Providers</text>
<polygon fill="#fb8072" stroke="transparent" points="545.5,-10 545.5,-30 565.5,-30 565.5,-10 545.5,-10"/>
<text text-anchor="start" x="569.2258" y="-15.4" font-family="sans-serif" font-size="14.00" fill="#000000"> &#160;Exports</text>
<g id="clust1" class="cluster">
<title>cluster_VisualizeModule</title>
<polygon fill="none" stroke="#000000" stroke-dasharray="1,5" points="8,-70 8,-195 767,-195 767,-70 8,-70"/>
</g>
<g id="clust2" class="cluster">
<title>cluster_VisualizeModule_declarations</title>
<polygon fill="none" stroke="#000000" points="439,-78 439,-130 759,-130 759,-78 439,-78"/>
</g>
<g id="clust5" class="cluster">
<title>cluster_VisualizeModule_imports</title>
<polygon fill="none" stroke="#000000" points="16,-78 16,-130 431,-130 431,-78 16,-78"/>
</g>
<!-- VegaViewerComponent -->
<g id="node1" class="node">
<title>VegaViewerComponent</title>
<polygon fill="#ffffb3" stroke="#000000" points="751.0618,-122 598.9382,-122 598.9382,-86 751.0618,-86 751.0618,-122"/>
<text text-anchor="middle" x="675" y="-99.8" font-family="Times,serif" font-size="14.00" fill="#000000">VegaViewerComponent</text>
</g>
<!-- VisualizeModule -->
<g id="node3" class="node">
<title>VisualizeModule</title>
<polygon fill="#8dd3c7" stroke="#000000" points="426.4174,-187 423.4174,-191 402.4174,-191 399.4174,-187 313.5826,-187 313.5826,-151 426.4174,-151 426.4174,-187"/>
<text text-anchor="middle" x="370" y="-164.8" font-family="Times,serif" font-size="14.00" fill="#000000">VisualizeModule</text>
</g>
<!-- VegaViewerComponent&#45;&gt;VisualizeModule -->
<g id="edge1" class="edge">
<title>VegaViewerComponent&#45;&gt;VisualizeModule</title>
<path fill="none" stroke="#000000" d="M675,-122.2843C675,-143.3211 675,-175 675,-175 675,-175 436.2971,-175 436.2971,-175"/>
<polygon fill="#000000" stroke="#000000" points="436.2972,-171.5001 426.2971,-175 436.2971,-178.5001 436.2972,-171.5001"/>
</g>
<!-- VisualizeComponent -->
<g id="node2" class="node">
<title>VisualizeComponent</title>
<polygon fill="#ffffb3" stroke="#000000" points="581.1993,-122 446.8007,-122 446.8007,-86 581.1993,-86 581.1993,-122"/>
<text text-anchor="middle" x="514" y="-99.8" font-family="Times,serif" font-size="14.00" fill="#000000">VisualizeComponent</text>
</g>
<!-- VisualizeComponent&#45;&gt;VisualizeModule -->
<g id="edge2" class="edge">
<title>VisualizeComponent&#45;&gt;VisualizeModule</title>
<path fill="none" stroke="#000000" d="M514,-122.0225C514,-139.3734 514,-163 514,-163 514,-163 436.4993,-163 436.4993,-163"/>
<polygon fill="#000000" stroke="#000000" points="436.4993,-159.5001 426.4993,-163 436.4993,-166.5001 436.4993,-159.5001"/>
</g>
<!-- MaterialModule -->
<g id="node4" class="node">
<title>MaterialModule</title>
<polygon fill="#8dd3c7" stroke="#000000" points="423.4706,-122 420.4706,-126 399.4706,-126 396.4706,-122 316.5294,-122 316.5294,-86 423.4706,-86 423.4706,-122"/>
<text text-anchor="middle" x="370" y="-99.8" font-family="Times,serif" font-size="14.00" fill="#000000">MaterialModule</text>
</g>
<!-- MaterialModule&#45;&gt;VisualizeModule -->
<g id="edge3" class="edge">
<title>MaterialModule&#45;&gt;VisualizeModule</title>
<path fill="none" stroke="#000000" d="M370,-122.1061C370,-122.1061 370,-140.991 370,-140.991"/>
<polygon fill="#000000" stroke="#000000" points="366.5001,-140.9909 370,-150.991 373.5001,-140.991 366.5001,-140.9909"/>
</g>
<!-- SharedModule -->
<g id="node5" class="node">
<title>SharedModule</title>
<polygon fill="#8dd3c7" stroke="#000000" points="298.4231,-122 295.4231,-126 274.4231,-126 271.4231,-122 199.5769,-122 199.5769,-86 298.4231,-86 298.4231,-122"/>
<text text-anchor="middle" x="249" y="-99.8" font-family="Times,serif" font-size="14.00" fill="#000000">SharedModule</text>
</g>
<!-- SharedModule&#45;&gt;VisualizeModule -->
<g id="edge4" class="edge">
<title>SharedModule&#45;&gt;VisualizeModule</title>
<path fill="none" stroke="#000000" d="M249,-122.0225C249,-139.3734 249,-163 249,-163 249,-163 303.7508,-163 303.7508,-163"/>
<polygon fill="#000000" stroke="#000000" points="303.7508,-166.5001 313.7508,-163 303.7508,-159.5001 303.7508,-166.5001"/>
</g>
<!-- VisualizeRoutingModule -->
<g id="node6" class="node">
<title>VisualizeRoutingModule</title>
<polygon fill="#8dd3c7" stroke="#000000" points="181.5351,-122 178.5351,-126 157.5351,-126 154.5351,-122 24.4649,-122 24.4649,-86 181.5351,-86 181.5351,-122"/>
<text text-anchor="middle" x="103" y="-99.8" font-family="Times,serif" font-size="14.00" fill="#000000">VisualizeRoutingModule</text>
</g>
<!-- VisualizeRoutingModule&#45;&gt;VisualizeModule -->
<g id="edge5" class="edge">
<title>VisualizeRoutingModule&#45;&gt;VisualizeModule</title>
<path fill="none" stroke="#000000" d="M103,-122.2843C103,-143.3211 103,-175 103,-175 103,-175 303.7024,-175 303.7024,-175"/>
<polygon fill="#000000" stroke="#000000" points="303.7025,-178.5001 313.7024,-175 303.7024,-171.5001 303.7025,-178.5001"/>
</g>
</g>
</svg>
