<?xml version="1.0" encoding="UTF-8" standalone="no"?>
<!DOCTYPE svg PUBLIC "-//W3C//DTD SVG 1.1//EN"
 "http://www.w3.org/Graphics/SVG/1.1/DTD/svg11.dtd">
<!-- Generated by graphviz version 2.40.1 (20161225.0304)
 -->
<!-- Title: dependencies Pages: 1 -->
<svg width="658pt" height="211pt"
 viewBox="0.00 0.00 658.00 211.00" xmlns="http://www.w3.org/2000/svg" xmlns:xlink="http://www.w3.org/1999/xlink">
<g id="graph0" class="graph" transform="scale(1 1) rotate(0) translate(4 207)">
<title>dependencies</title>
<polygon fill="#ffffff" stroke="transparent" points="-4,4 -4,-207 654,-207 654,4 -4,4"/>
<text text-anchor="start" x="304.0091" y="-42.4" font-family="sans-serif" font-weight="bold" font-size="14.00" fill="#000000">Legend</text>
<polygon fill="#ffffb3" stroke="transparent" points="91,-10 91,-30 111,-30 111,-10 91,-10"/>
<text text-anchor="start" x="114.629" y="-15.4" font-family="sans-serif" font-size="14.00" fill="#000000"> &#160;Declarations</text>
<polygon fill="#8dd3c7" stroke="transparent" points="204,-10 204,-30 224,-30 224,-10 204,-10"/>
<text text-anchor="start" x="227.7251" y="-15.4" font-family="sans-serif" font-size="14.00" fill="#000000"> &#160;Module</text>
<polygon fill="#80b1d3" stroke="transparent" points="290,-10 290,-30 310,-30 310,-10 290,-10"/>
<text text-anchor="start" x="313.7812" y="-15.4" font-family="sans-serif" font-size="14.00" fill="#000000"> &#160;Bootstrap</text>
<polygon fill="#fdb462" stroke="transparent" points="387,-10 387,-30 407,-30 407,-10 387,-10"/>
<text text-anchor="start" x="410.6732" y="-15.4" font-family="sans-serif" font-size="14.00" fill="#000000"> &#160;Providers</text>
<polygon fill="#fb8072" stroke="transparent" points="483,-10 483,-30 503,-30 503,-10 483,-10"/>
<text text-anchor="start" x="506.7258" y="-15.4" font-family="sans-serif" font-size="14.00" fill="#000000"> &#160;Exports</text>
<g id="clust1" class="cluster">
<title>cluster_VisualizeModule</title>
<polygon fill="none" stroke="#000000" stroke-dasharray="1,5" points="8,-70 8,-195 642,-195 642,-70 8,-70"/>
</g>
<g id="clust2" class="cluster">
<title>cluster_VisualizeModule_declarations</title>
<polygon fill="none" stroke="#000000" points="314,-78 314,-130 634,-130 634,-78 314,-78"/>
</g>
<g id="clust5" class="cluster">
<title>cluster_VisualizeModule_imports</title>
<polygon fill="none" stroke="#000000" points="16,-78 16,-130 306,-130 306,-78 16,-78"/>
</g>
<!-- VegaViewerComponent -->
<g id="node1" class="node">
<title>VegaViewerComponent</title>
<polygon fill="#ffffb3" stroke="#000000" points="626.0618,-122 473.9382,-122 473.9382,-86 626.0618,-86 626.0618,-122"/>
<text text-anchor="middle" x="550" y="-99.8" font-family="Times,serif" font-size="14.00" fill="#000000">VegaViewerComponent</text>
</g>
<!-- VisualizeModule -->
<g id="node3" class="node">
<title>VisualizeModule</title>
<polygon fill="#8dd3c7" stroke="#000000" points="375.4174,-187 372.4174,-191 351.4174,-191 348.4174,-187 262.5826,-187 262.5826,-151 375.4174,-151 375.4174,-187"/>
<text text-anchor="middle" x="319" y="-164.8" font-family="Times,serif" font-size="14.00" fill="#000000">VisualizeModule</text>
</g>
<!-- VegaViewerComponent&#45;&gt;VisualizeModule -->
<g id="edge1" class="edge">
<title>VegaViewerComponent&#45;&gt;VisualizeModule</title>
<path fill="none" stroke="#000000" d="M550,-122.1061C550,-141.3391 550,-169 550,-169 550,-169 385.2136,-169 385.2136,-169"/>
<polygon fill="#000000" stroke="#000000" points="385.2136,-165.5001 375.2136,-169 385.2135,-172.5001 385.2136,-165.5001"/>
</g>
<!-- VisualizeComponent -->
<g id="node2" class="node">
<title>VisualizeComponent</title>
<polygon fill="#ffffb3" stroke="#000000" points="456.1993,-122 321.8007,-122 321.8007,-86 456.1993,-86 456.1993,-122"/>
<text text-anchor="middle" x="389" y="-99.8" font-family="Times,serif" font-size="14.00" fill="#000000">VisualizeComponent</text>
</g>
<!-- VisualizeComponent&#45;&gt;VisualizeModule -->
<g id="edge2" class="edge">
<title>VisualizeComponent&#45;&gt;VisualizeModule</title>
<path fill="none" stroke="#000000" d="M348.5544,-122.1061C348.5544,-122.1061 348.5544,-140.991 348.5544,-140.991"/>
<polygon fill="#000000" stroke="#000000" points="345.0544,-140.9909 348.5544,-150.991 352.0544,-140.991 345.0544,-140.9909"/>
</g>
<!-- SharedModule -->
<g id="node4" class="node">
<title>SharedModule</title>
<polygon fill="#8dd3c7" stroke="#000000" points="298.4231,-122 295.4231,-126 274.4231,-126 271.4231,-122 199.5769,-122 199.5769,-86 298.4231,-86 298.4231,-122"/>
<text text-anchor="middle" x="249" y="-99.8" font-family="Times,serif" font-size="14.00" fill="#000000">SharedModule</text>
</g>
<!-- SharedModule&#45;&gt;VisualizeModule -->
<g id="edge3" class="edge">
<title>SharedModule&#45;&gt;VisualizeModule</title>
<path fill="none" stroke="#000000" d="M280.5014,-122.1061C280.5014,-122.1061 280.5014,-140.991 280.5014,-140.991"/>
<polygon fill="#000000" stroke="#000000" points="277.0015,-140.9909 280.5014,-150.991 284.0015,-140.991 277.0015,-140.9909"/>
</g>
<!-- VisualizeRoutingModule -->
<g id="node5" class="node">
<title>VisualizeRoutingModule</title>
<polygon fill="#8dd3c7" stroke="#000000" points="181.5351,-122 178.5351,-126 157.5351,-126 154.5351,-122 24.4649,-122 24.4649,-86 181.5351,-86 181.5351,-122"/>
<text text-anchor="middle" x="103" y="-99.8" font-family="Times,serif" font-size="14.00" fill="#000000">VisualizeRoutingModule</text>
</g>
<!-- VisualizeRoutingModule&#45;&gt;VisualizeModule -->
<g id="edge4" class="edge">
<title>VisualizeRoutingModule&#45;&gt;VisualizeModule</title>
<path fill="none" stroke="#000000" d="M103,-122.1061C103,-141.3391 103,-169 103,-169 103,-169 252.5307,-169 252.5307,-169"/>
<polygon fill="#000000" stroke="#000000" points="252.5307,-172.5001 262.5307,-169 252.5306,-165.5001 252.5307,-172.5001"/>
</g>
</g>
</svg>
