<?xml version="1.0" encoding="utf-8"?>
<!-- Generator: Adobe Illustrator 24.2.3, SVG Export Plug-In . SVG Version: 6.00 Build 0)  -->
<svg version="1.1" id="Layer_1" xmlns="http://www.w3.org/2000/svg" xmlns:xlink="http://www.w3.org/1999/xlink" x="0px" y="0px"
	 viewBox="0 0 186.1 165" style="enable-background:new 0 0 186.1 165;" xml:space="preserve">
<style type="text/css">
	.st0{fill:#BCE0FB;}
	.st1{fill:#8CD6F4;stroke:#231F20;stroke-width:0.5;stroke-miterlimit:10;}
	.st2{fill:#FFE0B3;}
	.st3{fill:none;stroke:#666666;stroke-width:0.5;stroke-miterlimit:10;}
	.st4{fill:none;stroke:#666666;stroke-width:0.5;stroke-miterlimit:10;stroke-dasharray:1.9936,1.9936;}
	.st5{fill:#59C3F7;stroke:#231F20;stroke-width:0.5;stroke-miterlimit:10;}
	.st6{fill:#BBF9C4;}
	.st7{fill:#19A4F9;stroke:#231F20;stroke-width:0.5;stroke-miterlimit:10;}
	.st8{fill:#46F75B;stroke:#000000;stroke-width:0.5;stroke-miterlimit:10;}
	.st9{fill:#FFAE43;stroke:#000000;stroke-width:0.5;stroke-miterlimit:10;}
	.st10{fill:none;stroke:#000000;stroke-miterlimit:10;}
</style>
<rect class="st0" width="110.3" height="82.5"/>
<polygon class="st1" points="7.5,75 7.5,50.1 13.7,48.8 26.7,46.8 33.4,38.3 46.3,29.2 54.1,30.6 66.5,30 75.6,24 87.4,16 
	97.9,18.7 102.8,14.7 102.8,74.9 "/>
<rect y="96.3" class="st2" width="186.1" height="68.8"/>
<g>
	<g>
		<line class="st3" x1="7.5" y1="151.2" x2="8.5" y2="151"/>
		<line class="st4" x1="10.4" y1="150.5" x2="176.7" y2="113"/>
		<line class="st3" x1="177.7" y1="112.8" x2="178.6" y2="112.6"/>
	</g>
</g>
<polygon class="st5" points="7.5,75 7.5,59.1 17.7,56.8 26.7,50.8 37.4,47.3 42.3,41.2 54.1,39.6 69.5,34 75.6,33 83.4,22 
	97.9,23.7 102.8,23.7 102.8,74.9 "/>
<rect x="124.1" class="st6" width="62.1" height="82.5"/>
<polygon class="st7" points="7.5,75 7.5,66.1 19.9,60.1 30.9,56.2 49.7,46.7 65.7,46.7 83.9,39.6 91.3,30.7 102.8,30.7 102.8,74.9 
	"/>
<rect x="135.9" y="52.7" class="st8" width="7.1" height="22.3"/>
<rect x="146.3" y="36.3" class="st8" width="7.1" height="38.7"/>
<rect x="156.8" y="22" class="st8" width="7.1" height="53"/>
<rect x="167.3" y="12.7" class="st8" width="7.1" height="62.3"/>
<circle class="st9" cx="14.3" cy="149.6" r="2.5"/>
<circle class="st9" cx="30.1" cy="138.3" r="2.5"/>
<circle class="st9" cx="43.7" cy="149.6" r="2.5"/>
<circle class="st9" cx="46.2" cy="133.3" r="2.5"/>
<circle class="st9" cx="69.7" cy="130.6" r="2.5"/>
<circle class="st9" cx="61.3" cy="147.1" r="2.5"/>
<circle class="st9" cx="90.6" cy="144.6" r="2.5"/>
<circle class="st9" cx="95.4" cy="125.3" r="2.5"/>
<circle class="st9" cx="111.6" cy="127.7" r="2.5"/>
<circle class="st9" cx="119.3" cy="138.3" r="2.5"/>
<circle class="st9" cx="135.9" cy="130.2" r="2.5"/>
<circle class="st9" cx="143" cy="113.2" r="2.5"/>
<circle class="st9" cx="158.3" cy="125.6" r="2.5"/>
<circle class="st9" cx="163.9" cy="110.7" r="2.5"/>
<rect x="7.5" y="103.8" class="st10" width="171.1" height="53.8"/>
<rect x="7.5" y="7.5" class="st10" width="95.3" height="67.5"/>
<rect x="131.6" y="7.5" class="st10" width="47.1" height="67.5"/>
</svg>
