<?xml version="1.0" encoding="UTF-8"?>
<svg width="500px" height="559px" viewBox="0 0 500 559" version="1.1" xmlns="http://www.w3.org/2000/svg" xmlns:xlink="http://www.w3.org/1999/xlink">
    <!-- Generator: Sketch 51.3 (57544) - http://www.bohemiancoding.com/sketch -->
    <title>Shape</title>
    <desc>Created with Sketch.</desc>
    <defs></defs>
    <g id="Page-1" stroke="none" stroke-width="1" fill="none" fill-rule="evenodd">
        <path d="M396.945352,451.663202 L340.825017,279.147384 L487.730403,172.555733 L306.140319,172.555733 L250.016653,0.0465683604 L250,0 L431.616729,0 L487.753717,172.539102 L487.757047,172.535775 L487.803675,172.509165 C520.403429,272.604529 486.827814,386.450865 396.945352,451.663202 L396.945352,451.663202 L396.945352,451.663202 Z M102.95719,451.646584 L102.910603,451.67982 L249.723486,558.212058 L396.569647,451.649907 L249.770074,345.114345 L102.95719,451.646584 L102.95719,451.646584 L102.95719,451.646584 Z M12.2917469,172.506924 L12.2917469,172.506924 C-22.0209864,278.015411 17.8096234,389.813629 103.06864,451.663202 L103.08196,451.609983 L159.199796,279.113037 L12.3516876,172.546838 L193.868844,172.546838 L249.98668,0.0465659599 L250,0 L68.4029227,0 L12.2917469,172.506924 L12.2917469,172.506924 L12.2917469,172.506924 Z" id="Shape" fill="#EB5424"></path>
    </g>
</svg>