<svg id="Layer_1" xmlns="http://www.w3.org/2000/svg" width="512" height="512" viewBox="0 0 512 512"><style>.st0{fill:#066da5}</style><g id="Work_area"><path class="st0" d="M467.2 221.2c-9.5-6.4-31.2-8.6-48-5.5-2.2-15.7-10.9-29.4-27-41.9l-9.2-6.2-6.2 9.2c-7.9 11.8-11.8 28.3-10.5 44 .5 5.6 2.4 15.4 8.1 24.1-5.7 3.1-17 7.2-31.8 7h-285l-.5 3.3c-2.7 15.7-2.7 65.1 29.4 103 24.3 28.8 60.9 43.4 108.6 43.4 103.2 0 179.7-47.5 215.5-133.9 14.1.3 44.4.1 59.9-29.6.4-.6 1.3-2.5 4-8.1l1.5-3.1-8.8-5.7zm-224.9-71.6h43.3v-39.4h-43.3z"/><path class="st0" d="M242.3 196.8h43.3v-39.4h-43.3zm-51.3 0h43.3v-39.4H191zm-51.2-39.4h43.3v39.4h-43.3zm-51.3 47.2h43.3V244H88.5zm51.3 0h43.3V244h-43.3zM191 244h43.3v-39.4H191zm51.3 0h43.3v-39.4h-43.3zm51.2 0H337v-39.4h-43.4V244z"/></g></svg>