<?xml version="1.0" encoding="utf-8"?>
<!-- Generator: Adobe Illustrator 13.0.2, SVG Export Plug-In . SVG Version: 6.00 Build 14948)  -->
<!DOCTYPE svg PUBLIC "-//W3C//DTD SVG 1.1//EN" "http://www.w3.org/Graphics/SVG/1.1/DTD/svg11.dtd">
<svg version="1.1" id="Layer_1" xmlns="http://www.w3.org/2000/svg" xmlns:xlink="http://www.w3.org/1999/xlink" x="0px" y="0px"
	 width="584px" height="720px" viewBox="0 0 583.588 720" enable-background="new 0 0 583.588 720" xml:space="preserve">
<polyline fill="#12133E" points="444.35,89.562 352.73,0 0,360.012 205.831,562.9 349.514,415.946 234.145,303.767 "/>
<polyline fill="#6A6AB1" points="139.354,630.517 231.039,720 583.588,359.862 377.688,157.029 234.028,304.067 349.458,416.166 "/>
<polyline fill="#FFFFFF" points="125.65,407.01 125.65,312.347 138.478,312.347 188.212,386.647 188.212,312.347 200.226,312.347 
	200.226,407.01 187.396,407.01 137.676,332.711 137.676,407.01 "/>
<rect x="228.65" y="312.267" fill="#FFFFFF" width="12.5" height="94.745"/>
<path fill="#FFFFFF" d="M270.736,407.01v-94.665h35.479c7.235,0,13.08,0.929,17.376,2.87c4.386,1.874,7.834,4.823,10.291,8.789
	c2.503,4.028,3.722,8.21,3.722,12.528c0,4.021-1.102,7.848-3.263,11.439c-2.216,3.535-5.544,6.41-9.979,8.649
	c5.729,1.653,10.141,4.538,13.242,8.569c3.029,4.113,4.617,8.855,4.617,14.403c0,4.384-0.941,8.565-2.802,12.368
	c-1.929,3.826-4.203,6.775-6.95,8.788c-2.801,2.104-6.248,3.677-10.381,4.688c-4.143,1.079-9.222,1.573-15.287,1.573
	 M283.208,352.086H303.7c5.539,0,9.58-0.354,11.969-1.078c3.203-0.951,5.604-2.528,7.189-4.676c1.619-2.254,2.432-4.974,2.432-8.295
	c0-3.166-0.759-5.905-2.271-8.28c-1.516-2.368-3.676-4.032-6.479-4.893c-2.801-0.93-7.578-1.368-14.424-1.368H283.21v28.588
	L283.208,352.086L283.208,352.086z M283.208,395.857h23.592c4.076,0,6.882-0.14,8.512-0.501c2.916-0.506,5.32-1.361,7.293-2.529
	c1.929-1.221,3.504-3.011,4.802-5.248c1.218-2.295,1.86-4.973,1.86-7.983c0-3.536-0.93-6.642-2.732-9.222
	c-1.815-2.598-4.33-4.387-7.547-5.467c-3.205-1.092-7.809-1.599-13.884-1.599H283.21v32.551h-0.003V395.857z"/>
<rect x="369.602" y="312.267" fill="#FFFFFF" width="12.473" height="94.745"/>
<path fill="#FFFFFF" d="M408.975,407.01v-94.665h35.491c7.235,0,13.069,0.929,17.447,2.87c4.319,1.874,7.766,4.823,10.28,8.789
	c2.434,4.028,3.677,8.21,3.677,12.528c0,4.021-1.127,7.848-3.275,11.439c-2.216,3.535-5.477,6.41-9.923,8.649
	c5.72,1.653,10.095,4.538,13.198,8.569c3.089,4.113,4.605,8.855,4.605,14.403c0,4.384-0.931,8.565-2.789,12.368
	c-1.874,3.826-4.215,6.775-6.959,8.788c-2.732,2.104-6.235,3.677-10.38,4.688c-4.134,1.079-9.222,1.573-15.298,1.573
	 M421.47,352.086h20.494c5.537,0,9.565-0.354,11.955-1.078c3.216-0.951,5.617-2.528,7.237-4.676
	c1.573-2.254,2.401-4.974,2.401-8.295c0-3.166-0.771-5.905-2.285-8.28c-1.457-2.368-3.618-4.032-6.422-4.893
	c-2.801-0.93-7.635-1.368-14.413-1.368h-18.962L421.47,352.086L421.47,352.086z M421.47,395.857h23.569
	c4.087,0,6.949-0.14,8.591-0.501c2.852-0.506,5.309-1.361,7.239-2.529c1.916-1.221,3.503-3.011,4.778-5.248
	c1.24-2.295,1.86-4.973,1.86-7.983c0-3.536-0.931-6.642-2.732-9.222c-1.813-2.598-4.307-4.387-7.522-5.467
	c-3.218-1.092-7.821-1.599-13.828-1.599h-21.949L421.47,395.857L421.47,395.857z"/>
</svg>
