<?xml version="1.0" encoding="utf-8"?>
<!-- Generator: Adobe Illustrator 23.0.1, SVG Export Plug-In . SVG Version: 6.00 Build 0)  -->
<svg version="1.1" id="Layer_1" xmlns="http://www.w3.org/2000/svg" xmlns:xlink="http://www.w3.org/1999/xlink" x="0px" y="0px"
	 viewBox="0 0 522.2379 522.8284" style="enable-background:new 0 0 522.2379 522.8284;" xml:space="preserve">
<style type="text/css">
	.st0{fill:#1D2F33;}
</style>
<path class="st0" d="M484.7788,237.9905c-1.1016-1.6372-2.0956-3.4097-2.9629-5.3374c-1.6602-4.3643-3.1992-8.7637-4.5879-13.2256
	c-0.832-8.4243-0.8731-16.7407-0.6895-24.0229c3.0137-15.6303,14.3028-23.8979,27.8575-28.9951
	c-1.5743-3.9726-3.5274-8.6846-4.8887-11.9678c-14.6153,7.0905-32.207,8.356-45.4453-4.1367
	c-2.8145-2.9839-5.5664-6.0327-8.2305-9.1689c-4.4082-7.9766-7.9062-16.2759-10.7227-23.5723
	c-3.1835-15.5976,4.084-27.5532,14.6543-37.4595c-2.9824-3.0576-6.5976-6.6729-9.1035-9.1851
	c-10.7968,12.1479-26.5664,20.0479-43.5801,13.5722c-3.25-1.456-6.4726-2.9741-9.6601-4.5746
	c-7.4434-5.8394-14.1211-12.4229-19.7188-18.2993c-8.9121-13.185-6.7773-27.0063-0.7968-40.2016
	c-3.92-1.69-8.6446-3.6446-11.918-5.0015c-5.3301,15.3491-16.877,28.6816-35.0664,29.2124
	c-5.5449-0.1602-11.0899-0.4653-16.6328-1.0596c-7.0606-2.3061-13.7578-5.0669-19.6465-7.6714
	c-13.2852-8.7641-16.5996-22.3569-16.127-36.8364c-4.2656-0.0576-9.373-0.063-12.9218-0.0576
	c0.9492,16.2183-4.6182,32.957-21.2139,40.4038c-3.834,1.4614-7.6982,2.835-11.6084,4.0933
	c-9.0332,1.0122-18.0098,1.0624-25.8232,0.874c-15.6212-3.0186-23.8858-14.3135-29-27.8652
	c-3.959,1.5727-8.6797,3.5317-11.9414,4.8818c7.076,14.6323,8.3349,32.2173-4.1495,45.4556
	c-3.3515,3.1655-6.7871,6.2422-10.3359,9.206c-7.7783,4.2368-15.8291,7.6182-22.9355,10.3594
	c-15.586,3.1948-27.542-4.0801-37.4502-14.6494c-3.0586,2.978-6.674,6.5898-9.1719,9.0981
	c12.1357,10.7998,20.0351,26.5659,13.5625,43.5771c-1.5889,3.5483-3.2481,7.0654-5.0137,10.5377
	c-5.6015,6.9697-11.8105,13.2411-17.3838,18.5444c-13.1719,8.9106-27.0039,6.769-40.2002,0.7949
	c-1.6845,3.9199-3.6406,8.6411-4.9962,11.912c15.3496,5.336,28.6856,16.8765,29.2119,35.0699
	c-0.1367,4.8276-0.3867,9.6533-0.8398,14.4765c-2.3203,7.5425-5.2187,14.7119-7.9922,21.0337
	c-0.1377,0.3159-0.2783,0.6436-0.416,0.9546c-8.7627,13.272-22.3613,16.5864-36.8379,16.1157
	c-0.0547,4.2632-0.0596,9.3755-0.0547,12.9136c16.2139-0.9424,32.9551,4.6211,40.4024,21.2314
	c1.5019,3.9317,2.9091,7.9014,4.1953,11.9209c0.9961,8.9815,1.041,17.8995,0.8506,25.6622
	c-3.0166,15.6279-14.3067,23.8964-27.8672,28.996c1.5801,3.9668,3.5254,8.6915,4.8887,11.9571
	c14.6279-7.0811,32.2158-8.3428,45.4521,4.1494c3.1123,3.2842,6.1357,6.6553,9.0488,10.1367
	c4.2158,7.7549,7.586,15.7734,10.3232,22.8477c3.1914,15.5887-4.0821,27.5439-14.6602,37.4482
	c2.9805,3.0498,6.5908,6.666,9.0977,9.1699c10.7998-12.1357,26.5722-20.0381,43.5781-13.5586
	c3.79,1.6934,7.5391,3.4766,11.2383,5.3781c6.9219,5.5752,13.1484,11.743,18.4189,17.2762
	c8.917,13.1729,6.7793,27.0031,0.7959,40.1964c3.9199,1.7002,8.6406,3.6465,11.9131,5.0098
	c5.334-15.3574,16.8848-28.6943,35.0762-29.2119c4.6484,0.1289,9.292,0.3652,13.9365,0.7871
	c8.3213,2.4814,16.2373,5.707,23.0723,8.7344c13.2793,8.7734,16.5908,22.372,16.1201,36.8505
	c4.2705,0.0577,9.373,0.0577,12.9219,0.0577c-0.9493-16.2276,4.6152-32.9649,21.2206-40.4063
	c4.3964-1.6777,8.83-3.2344,13.3281-4.6318c8.4023-0.8223,16.6933-0.8594,23.9648-0.6895
	c15.625,3.0186,23.8809,14.3135,28.9904,27.876c3.9609-1.5752,8.6894-3.542,11.955-4.8975
	c-7.0761-14.6308-8.3457-32.2177,4.1504-45.455c3.3496-3.1661,6.7813-6.2354,10.3243-9.1934
	c7.4101-3.9482,15.0097-7.1377,21.7635-9.75c15.5801-3.1875,27.543,4.082,37.4473,14.6553
	c3.0508-2.9727,6.6719-6.5928,9.1777-9.0918c-12.1426-10.8036-20.0449-26.5713-13.5682-43.5821
	c2.1191-4.7304,4.371-9.4003,6.83-13.9834c5.2305-6.289,10.8711-11.9794,15.9844-16.8447
	c13.1738-8.9179,26.9922-6.7754,40.2012-0.8027c1.6777-3.917,3.6367-8.625,4.9941-11.918
	c-15.3456-5.3174-28.6816-16.8691-29.2148-35.0556c0.1426-5.1094,0.4199-10.2139,0.9258-15.3165
	c2.3769-7.5009,5.3007-14.6084,8.0605-20.8251c8.7637-13.2735,22.3516-16.5938,36.8281-16.1211
	c0.0704-4.2686,0.0704-9.3741,0.0704-12.9205C507.894,254.715,493.1577,250.4548,484.7788,237.9905z M419.019,126.9098
	c6.0293,1.5342,11.4961,7.3955,15.9395,12.7471c4.25,6.6792,9.3183,13.7469,11.4765,22.0215l-0.9453,3.4687
	c-2.418,5.6226-9.4531,6.9868-14.9043,8.7393c-2.4976,0.3805-4.9809,0.7863-7.4637,1.188
	c-6.0344-11.3194-13.2275-21.9384-21.517-31.7733c1.864-2.9674,3.7869-5.9019,5.8068-8.7776
	C410.4741,130.7698,413.8726,126.7228,419.019,126.9098z M261.119,440.9549c-99.1576,0-179.5407-80.3831-179.5407-179.5407
	S161.9613,81.8735,261.119,81.8735s179.5406,80.383,179.5406,179.5406S360.2766,440.9549,261.119,440.9549z M356.4194,76.4216
	c5.5723-0.81,12.0781,1.8423,17.832,4.7622c6.7365,4.8037,14.6719,9.5279,20.1328,16.7437l0.4571,3.5659
	c-0.0743,6.1177-6.045,10.0649-10.42,13.772c-2.3144,1.3991-4.6028,2.8182-6.8925,4.2322
	c-9.6362-7.9249-20.0136-14.803-31.0418-20.5974c0.6109-3.6788,1.2962-7.3489,2.1101-10.9991
	C349.9995,83.2537,351.5836,78.2112,356.4194,76.4216z M278.8764,54.8918c6.6563-3.9638,17.4512-2.5488,25.1289-1.7651
	c1.6505,0.1714,3.2578,0.4326,4.8535,0.7139c4.7071,1.1797,9.4102,2.7104,13.7032,5.2319l1.791,3.1118
	c2.2676,5.6826-1.7363,11.626-4.3633,16.7207c-1.7076,2.3224-3.386,4.6543-5.0631,6.9806
	c-11.973-3.6724-24.2732-6.0829-36.808-7.2284c-0.7661-3.3704-1.4685-6.7588-2.0644-10.1731
	C275.5678,63.6614,275.0972,58.3888,278.8764,54.8918z M198.4409,63.8121c3.7246-4.9814,11.2461-7.79,17.8935-9.8476
	c7.7637-1.3755,16.1895-3.3179,24.6299-2.1509l2.8399,2.2031c4.2704,4.3721,2.8418,11.3965,2.374,17.1138
	c-0.6171,2.5037-1.2095,5.0058-1.8007,7.5042c-12.7996,1.1514-25.3565,3.6173-37.57,7.4022
	c-1.9921-2.8107-3.9327-5.6618-5.7856-8.5773C198.7398,73.1808,196.2916,68.4962,198.4409,63.8121z M141.2359,86.2966
	c6.375-4.1059,13.1377-8.7666,21.002-10.8091l3.4638,0.9297c5.6113,2.4214,6.9844,9.4439,8.7295,14.9058
	c0.3894,2.5543,0.8047,5.0934,1.2158,7.632c-11.5881,6.0981-22.4507,13.4019-32.4955,21.8506
	c-2.9047-1.8278-5.7772-3.7123-8.5932-5.6886c-3.752-3.0761-7.8174-6.4702-7.6065-11.6181
	C128.6226,96.8913,135.5239,90.9474,141.2359,86.2966z M82.4517,146.5154c4.3946-6.3228,8.9082-13.3892,15.5069-18.3804
	l3.5654-0.4556c6.1142,0.0791,10.0693,6.0503,13.7685,10.4203c1.3546,2.2397,2.7281,4.4554,4.0972,6.6725
	c-7.9052,9.5804-14.7712,19.8976-20.5665,30.8592c-3.48-0.5895-6.952-1.2469-10.4057-2.0179
	c-4.6455-1.4043-9.6992-2.9785-11.4765-7.8174C76.064,159.7493,79.2612,152.6022,82.4517,146.5154z M53.0629,218.9919
	c1.3985-6.5024,2.9903-13.3193,6.5235-19.3432l3.1152-1.7876c5.6865-2.2593,11.6231,1.7328,16.7168,4.3569
	c2.1291,1.5684,4.2665,3.1062,6.4001,4.6469c-3.7937,12.1827-6.2783,24.7069-7.4502,37.4747
	c-3.2757,0.7401-6.5684,1.4194-9.8846,1.9995c-4.8251,0.4785-10.0898,0.9502-13.5947-2.8384
	C51.0385,237.0212,52.2681,226.6203,53.0629,218.9919z M63.8931,324.1124c-5.0791-3.7949-7.8974-11.5273-9.9609-18.2587
	c-1.3692-7.709-3.2715-16.0674-2.1211-24.4297l2.1982-2.836c4.3848-4.2724,11.4043-2.8476,17.1065-2.373
	c1.2392,0.3047,2.4785,0.6035,3.7168,0.8984c1.1643,0.2781,2.326,0.5521,3.4883,0.827c1.15,12.9528,3.6478,25.657,7.4934,38.0097
	c-2.7144,1.9199-5.4647,3.794-8.2786,5.5823C73.2603,323.8215,68.5767,326.2678,63.8931,324.1124z M103.3754,395.3204
	c-6.5625-1.6621-12.4619-8.4628-17.0957-14.1542c-4.081-6.3291-8.6845-13.0538-10.7148-20.8409l0.9375-3.4619
	c2.417-5.6289,9.4463-6.9941,14.8994-8.7412c2.442-0.3718,4.8696-0.7685,7.2969-1.1616
	c6.0922,11.5641,13.3859,22.4051,21.82,32.4312c-1.7783,2.814-3.6107,5.5975-5.529,8.3281
	C111.9204,391.4728,108.5278,395.5266,103.3754,395.3204z M166.2515,445.5891c-6.3301,0.9248-13.8672-2.624-20.123-5.9521
	c-6.253-4.3448-13.1914-8.8204-18.1211-15.3243l-0.4463-3.5497c0.0771-6.127,6.0469-10.084,10.4189-13.7929
	c2.1445-1.2949,4.2664-2.6081,6.3893-3.9175c9.8121,8.109,20.397,15.1289,31.658,21.0212
	c-0.5761,3.3582-1.2165,6.7087-1.9623,10.0427C172.6674,438.7667,171.0894,443.8049,166.2515,445.5891z M244.5103,467.9308
	c-6.0312,3.5908-15.4707,2.7695-22.9062,2.002c-7.1318-1.5332-14.8077-3.0635-21.4991-6.9883l-1.7802-3.1104
	c-2.2696-5.6855,1.7324-11.6211,4.3535-16.7168c1.5206-2.0665,3.0123-4.1409,4.5067-6.2119
	c12.3903,3.8102,25.1319,6.2662,38.1212,7.3686c0.7574,3.334,1.4524,6.6853,2.043,10.061
	C247.8217,459.1682,248.2993,464.4308,244.5103,467.9308z M324.8178,458.6583c-4.3242,5.792-13.7656,8.6436-21.0175,10.7901
	c-6.8399,1.2617-14.1036,2.5654-21.3692,1.5635l-2.832-2.1973c-4.2774-4.3838-2.8477-11.4043-2.3731-17.1094
	c0.6243-2.5407,1.2234-5.0797,1.8218-7.6146c12.7529-1.2304,25.2574-3.7853,37.4214-7.635
	c1.9877,2.8052,3.9239,5.6508,5.7725,8.5602C324.5229,449.2883,326.9858,453.9827,324.8178,458.6583z M379.9918,437.4954
	c-5.7813,3.747-11.9336,7.6699-18.9551,9.5019l-3.4629-0.9443c-5.6348-2.4219-6.9942-9.4483-8.752-14.9053
	c-0.3954-2.6097-0.8184-5.2037-1.2368-7.797c11.1201-5.9393,21.5635-12.9973,31.2504-21.1154
	c2.937,1.8486,5.8417,3.7554,8.6896,5.7571c3.7578,3.0664,7.8087,6.4502,7.6113,11.6074
	C393.3687,426.5519,385.8413,432.7532,379.9918,437.4954z M437.5756,379.4495c-0.1152,0.2128-0.2421,0.415-0.3593,0.6259
	c-3.6856,5.3213-7.6914,10.8028-13.084,14.8868l-3.5664,0.4521c-6.1211-0.0654-10.0723-6.0518-13.7832-10.4199
	c-1.3629-2.2544-2.7449-4.4844-4.1225-6.7156c8.321-10.052,15.5028-20.9133,21.4935-32.4863
	c3.3233,0.5709,6.6392,1.2048,9.9395,1.9411c4.6367,1.4053,9.6837,2.9883,11.4707,7.8203
	C446.6733,363.217,441.2456,372.6545,437.5756,379.4495z M469.1049,303.2902c-0.0468,0.4835-0.1211,0.9599-0.1836,1.4404
	c-1.2929,5.7666-2.9003,11.6738-6.0058,16.9678l-3.1133,1.7921c-5.6836,2.2646-11.6269-1.7471-16.7246-4.3633
	c-2.0773-1.5291-4.1628-3.0286-6.2452-4.5307c3.6728-12.1296,6.0564-24.5919,7.1397-37.2927
	c1.4188-0.3228,2.8398-0.6371,4.2676-0.9266c1.8281-0.3711,3.6602-0.7246,5.5-1.0469c4.832-0.4814,10.1035-0.9492,13.5996,2.8291
	C471.3022,284.8176,469.894,295.6116,469.1049,303.2902z M470.4135,240.2389l-2.1933,2.8408
	c-4.3848,4.2725-11.3946,2.8433-17.1153,2.3775c-2.4326-0.6003-4.8622-1.1716-7.29-1.7464
	c-1.2222-12.8331-3.7831-25.4158-7.6566-37.6534c2.72-1.9194,5.4784-3.7896,8.2962-5.5778
	c4.2696-2.3027,8.959-4.7392,13.6407-2.5874c5.7285,4.2774,8.5801,13.5625,10.7265,20.7818
	C470.0894,225.5685,471.435,232.902,470.4135,240.2389z"/>
<path class="st0" d="M98.0167,316.5975c10.5984-1.2355,15.5512-2.4789,15.5512-14.1396v-83.7718
	c-9.893-12.1861-12.7241-12.729-15.0181-12.729v-4.4159h37.289l61.3257,75.4722h0.3473V223.461
	c0-10.6033-2.1198-16.4406-16.4317-17.5038v-4.4159h37.9934v4.4159c-12.7212,1.6003-13.7904,5.663-13.7904,14.1386v104.0979h-4.9382
	l-78.6448-95.7847h-0.3579v70.6963c0,12.7232,3.7163,16.0738,16.7936,17.4922v4.4227H98.0167V316.5975z M303.3473,237.0627
	c-3.1832-12.3652-13.7874-32.6904-34.636-32.6904c-9.1897,0-18.9165,5.3022-18.9165,16.7898c0,9.5399,3.3584,13.4265,18.212,20.8485
	l25.9737,12.9022c6.0045,3.0071,19.4456,13.263,19.4456,32.5239c0,15.5504-11.3183,36.9418-43.8277,36.9418
	c-16.7985,0-24.7507-6.0143-30.2231-6.0143c-3.7203,0-4.6026,3.1833-5.306,6.0143h-5.1173V280.722h5.1173
	c3.5374,17.8482,13.7865,37.8232,36.2335,37.8232c21.2086,0,22.0919-17.4961,22.0919-19.7998
	c0-11.8417-8.3083-16.0777-19.7939-21.5646l-11.8418-5.6505c-30.2279-14.4938-30.2279-29.6929-30.2279-37.8212
	c0-10.7804,5.4821-34.8082,39.0674-34.8082c14.1397,0,22.4363,5.8265,27.5691,5.8265c4.0608,0,4.9402-2.651,5.8256-6.0085h5.3059
	v38.3437H303.3473z M323.8262,201.5412h100.1937v35.5214h-4.2339c-3.8875-18.3765-8.6605-29.5052-39.0626-29.5052
	c-9.542,0-12.7193,0.7043-12.7193,8.3044v40.9967c21.9148,0.3542,24.5688-12.19,27.0438-26.3268h4.4109v59.7341h-4.4109
	c-1.9418-14.4938-4.7671-27.3941-27.0438-27.3941v41.1718c0,11.6706,7.0707,12.0227,19.4438,12.5539v4.4227h-63.6217v-4.4227
	c10.0769-1.0585,15.5465-1.5916,15.5465-12.5539v-85.5375c0-11.6578-7.2479-12.0061-15.5465-12.549V201.5412z"/>
</svg>
