<?xml version="1.0" encoding="utf-8"?>
<svg version="1.1" xmlns="http://www.w3.org/2000/svg" xmlns:xlink="http://www.w3.org/1999/xlink" x="0px" y="0px"
	 viewBox="0 0 682 227.1" style="enable-background:new 0 0 682 227.1;" xml:space="preserve">
	 <title>Mount Sinai</title>
<style type="text/css">
	.st0{display:none;}
	.st1{display:inline;fill:#00AEEF;}
	.st2{display:inline;fill:#D80B8C;}
	.st3{display:inline;fill:#221F72;}
	.st4{fill:#00AEEF;}
	.st5{fill:#D80B8C;}
	.st6{fill:#221F72;}
</style>
<g>
	<g class="st0">
		<polygon class="st1" points="300.9,225.1 294.1,225.1 326.4,176.3 330,181.5 		"/>
		<polygon class="st1" points="313,225.1 306.2,225.1 332.4,185 336,190.3 		"/>
		<path class="st1" d="M322,169.9L322,169.9c-0.2-0.3-0.6-1.2-1.5-1.2c-0.9,0-1.3,0.8-1.5,1.2h0l-37,55.2h6.8l35.3-52.1L322,169.9z"
			/>
		<path class="st1" d="M304.4,178L304.4,178c-0.2-0.3-0.6-1.2-1.5-1.2c-0.9,0-1.3,0.8-1.5,1.2h0l-31.5,47.1h6.8l29.8-44L304.4,178z"
			/>
		<path class="st2" d="M304.4,178L304.4,178c-0.2-0.3-0.6-1.2-1.5-1.2c-0.9,0-1.3,0.8-1.5,1.2l-2.1,3.1l29.7,43.9h6.8L304.4,178z"/>
		<path class="st2" d="M321.9,169.9L321.9,169.9c-0.2-0.3-0.6-1.2-1.5-1.2c-0.9,0-1.3,0.8-1.5,1.2l-2.1,3.1l36.4,52.1h6.8
			L321.9,169.9z"/>
		<polygon class="st3" points="330,181.5 326.4,176.3 322.8,181.6 326.5,186.8 		"/>
		<polygon class="st3" points="336,190.3 332.4,185 328.9,190.3 332.5,195.5 		"/>
		<polygon class="st2" points="341.1,225.1 347.9,225.1 314.7,176.2 311.1,181.5 		"/>
		<path class="st3" d="M321.9,169.9L321.9,169.9c-0.2-0.3-0.6-1.2-1.5-1.2c-0.1,0-0.2,0-0.3,0c-0.7,0.2-1,0.8-1.2,1.1h0l-1.9,2.8
			l-0.2,0.3l3.6,5.2l3.6-5.3L321.9,169.9z"/>
		<polygon class="st3" points="314.7,176.2 311.1,181.5 314.7,186.8 318.3,181.5 		"/>
		<polygon class="st3" points="320.7,195.5 324.2,190.2 320.6,184.9 317.1,190.2 		"/>
		<polygon class="st3" points="326.8,204.3 330.2,199 326.6,193.8 323.2,199.1 		"/>
		<path class="st3" d="M304.4,178c-0.2-0.3-0.6-1.2-1.5-1.2c-0.1,0-0.2,0-0.3,0c-0.7,0.2-1,0.8-1.2,1.1h0l-2.1,3.1l3.6,5.3l3.6-5.3
			l0,0L304.4,178L304.4,178z"/>
		<polygon class="st3" points="312.4,190.1 308.9,184.8 305.3,190.1 308.9,195.4 		"/>
		<polygon class="st3" points="318.4,198.9 314.8,193.7 311.3,199 314.9,204.2 		"/>
		<polygon class="st3" points="324.3,207.9 320.8,202.6 317.4,207.9 320.9,213.1 		"/>
	</g>
</g>
<g>
	<g>
		<polygon class="st4" points="124.3,225.4 96.9,225.4 226.1,30.1 240.7,51.2 		"/>
		<polygon class="st4" points="172.8,225.4 145.4,225.4 250.2,65 264.7,86 		"/>
		<path class="st4" d="M208.5,4.7L208.5,4.7C207.6,3.3,206,0,202.4,0c-3.7,0-5.2,3.4-6.1,4.7h0L48.5,225.4h27.4l141-208.6L208.5,4.7
			z"/>
		<path class="st4" d="M138.3,37.1L138.3,37.1c-0.9-1.4-2.6-4.6-6.1-4.6c-3.7,0-5.2,3.4-6.1,4.6h0L0,225.4h27.4L146.5,49.5
			L138.3,37.1z"/>
		<path class="st5" d="M138.3,37.2L138.3,37.2c-0.9-1.3-2.5-4.6-6.1-4.6c-3.7,0-5.2,3.4-6.1,4.6l-8.3,12.4l118.8,175.8H264
			L138.3,37.2z"/>
		<path class="st5" d="M208.5,4.7L208.5,4.7C207.6,3.3,206,0,202.4,0c-3.7,0-5.2,3.4-6.1,4.7L188,17.1l145.5,208.3h27.4L208.5,4.7z"
			/>
		<polygon class="st6" points="240.6,51.2 226.1,30.2 212,51.5 226.6,72.3 		"/>
		<polygon class="st6" points="264.7,86.1 250.2,65 236.3,86.2 250.8,107.1 		"/>
		<polygon class="st5" points="285,225.4 312.4,225.4 179.5,29.9 165.1,51.2 		"/>
		<path class="st6" d="M208.5,4.7L208.5,4.7C207.6,3.3,206,0,202.4,0c-0.5,0-0.9,0.1-1.3,0.1c-2.7,0.7-4,3.4-4.8,4.5h0l-7.5,11.2
			l-0.8,1.2l14.6,20.9l14.3-21.2L208.5,4.7z"/>
		<polygon class="st6" points="179.5,29.9 165.1,51.2 179.5,72.1 193.8,50.9 		"/>
		<polygon class="st6" points="203.5,106.9 217.5,85.8 203.2,64.8 189.1,86 		"/>
		<polygon class="st6" points="227.7,142.1 241.6,121.2 227.2,100.1 213.4,121.3 		"/>
		<path class="st6" d="M138.3,37.2c-0.9-1.3-2.6-4.6-6.1-4.6c-0.5,0-0.9,0.1-1.3,0.1c-2.7,0.7-4,3.4-4.8,4.5h0l-8.3,12.4l14.3,21.2
			l14.4-21.3l-0.1-0.2L138.3,37.2L138.3,37.2z"/>
		<polygon class="st6" points="170.5,85.4 156.4,64.3 142.1,85.6 156.2,106.5 		"/>
		<polygon class="st6" points="194.2,120.8 180.1,99.7 166,121 180.1,141.8 		"/>
		<polygon class="st6" points="218.1,156.7 204,135.6 190.2,156.8 204.3,177.6 		"/>
	</g>
	<g>
		<path d="M377.9,125.3c5.8,0,10.3-1.2,10.3-12.4V64.6l-8.5-0.4v-3.7l26.1,0.4l16.7,45.9h0.1l17-45.9l25.8-0.4v3.7l-8.7,0.4v60.3
			l8.7,0.4v3.7c-4.3,0-12.4-0.4-16.7-0.4c-4.3,0-12,0.4-16.3,0.4v-3.7l8.6-0.4V69.4h-0.2l-21.3,59.4h-5.3l-21.5-59.4h-0.2v43.5
			c0,11.2,4.2,12.4,11.1,12.4v3.7c-5.4,0-8.5-0.4-12.9-0.4c-4.3,0-7.5,0.4-12.9,0.4V125.3z"/>
		<path d="M467.2,104.6c0-18.4,12.4-26.9,26.2-26.9c14,0,26.4,7.5,26.4,25.8c0,18.5-12.1,26.9-26.4,26.9
			C479.4,130.4,467.2,123,467.2,104.6z M504,104c0-14.7-2.9-22.7-10.6-22.7c-7.5,0-10.5,8-10.5,22.7c0,14.8,3,22.7,10.5,22.7
			C501.1,126.7,504,118.8,504,104z"/>
		<path d="M529,89.1c0-5.9-1.8-5.9-7.3-5.9v-3.7l21.6-1.1v29.7c0,10.4,0.2,15.7,6.9,15.7c5.3,0,12-6.3,12-16.8V89.1
			c0-5.9-2.5-5.9-7.2-5.9v-3.7l21.5-1.1v46.2l7.3,0.2v3.7l-20.7,1.1l-0.3-9.6h-0.1c-3.5,5.8-9.5,10.2-18,10.2
			c-11.3,0-15.6-5.8-15.6-18.1V89.1z"/>
		<path d="M614.7,125.3v3.7c-5.2,0-8-0.4-14.3-0.4c-6.3,0-9.2,0.4-14.5,0.4v-3.7l7.3-0.5V88.9c0-5.7-1.8-5.7-7.3-5.7v-3.7l20.7-1.1
			l0.2,9.4h0.1c3.7-5.9,9.5-10.3,18-10.3c9.1,0,15.6,5.5,15.6,19.1v28.1l7.5,0.5v3.7c-5.3,0-8.2-0.4-14.5-0.4c-6.3,0-9,0.4-14.3,0.4
			v-3.7l7.1-0.5V99.8c0-11.7-1.3-15.9-7-15.9c-5.3,0-11.9,6.3-11.9,16.8v24L614.7,125.3z"/>
		<path d="M667.8,114.6c-0.2,6.7,0,10.4,4.4,10.4c4,0,6.3-5.7,6.3-5.7l3.5,1.3c0,0-2.3,9.9-13.6,9.9c-13.3,0-14.7-7.2-14.7-15.7
			V83.7h-8.1v-4.2h8.1v-18c8.1,0,14.1-2.1,14.1-2.1v20.1h12.1v4.2h-12.1V114.6z"/>
		<path d="M386.6,199.8c0.9,4.9,7.9,23.2,22,23.2c8.9,0,12.4-5,12.4-10.6c0-20-37.3-8.9-37.3-36.2c0-16.1,13.3-21.4,23.1-21.4
			c9,0,13.6,2.9,15.3,2.9c1.8,0,2.4-2.4,2.4-2.4h3.6c0,3.6-0.2,6.2-0.2,9.6c0,5.1,0.2,8,0.2,11.4h-3.6c-0.9-4.8-7-17.9-18.6-17.9
			c-6.5,0-10.9,4-10.9,9.6c0,18.4,38.3,7.8,38.3,36.7c0,15.9-12,22.2-25.2,22.2c-11.4,0-17.4-3.9-19.3-3.9c-2.3,0-2.7,2.6-2.7,2.6
			h-3.6c0-5.2,0.3-8.3,0.3-13.5c0-5-0.3-8.1-0.3-12.5H386.6z"/>
		<path d="M466.4,221.3v3.7c-5.2,0-8.2-0.4-14.5-0.4c-6.3,0-9.2,0.4-14.5,0.4v-3.7l7.3-0.5v-35.6c0-5.9-1.9-5.9-7.3-5.9v-3.7
			l21.6-1.1v46.3L466.4,221.3z M452.1,148.6c4.4,0,8.6,2.9,8.6,8.2c0,5.3-4.2,8.2-8.6,8.2c-4.5,0-8.7-2.9-8.7-8.2
			C443.3,151.5,447.5,148.6,452.1,148.6z"/>
		<path d="M497.4,221.3v3.7c-5.2,0-8-0.4-14.3-0.4c-6.3,0-9.2,0.4-14.5,0.4v-3.7l7.3-0.5v-35.9c0-5.7-1.8-5.7-7.3-5.7v-3.7l20.7-1.1
			l0.2,9.4h0.1c3.7-5.9,9.5-10.3,18-10.3c9.1,0,15.6,5.5,15.6,19.1v28.1l7.5,0.5v3.7c-5.3,0-8.2-0.4-14.5-0.4c-6.3,0-9,0.4-14.3,0.4
			v-3.7l7.1-0.5v-24.9c0-11.7-1.3-15.9-7-15.9c-5.3,0-11.9,6.3-11.9,16.8v24L497.4,221.3z"/>
		<path d="M588.4,216.7c0,0-1.5,9.8-12.6,9.8c-5.3,0-9.7-2.2-11.6-7.6H564c-2.4,4.5-6.9,8-14.8,8c-7.6,0-16.5-3.5-16.5-14.8
			c0-14,16.5-15.3,31.2-15.2v-5.3c0.3-8.6-0.4-14.4-7.5-14.4c-5.4,0-7.8,2.7-8.3,3.8c0,0,2.4,1.3,2.4,5c0,3.8-2.8,6.5-7.2,6.5
			c-4.2,0-7.2-2.6-7.2-6.9c0-7.7,9.8-12,21.5-12c18.9,0,20.5,10.7,20.3,20.8l-0.5,20.4c-0.1,3.3,1,5.6,3.3,5.6
			c3.1,0,4.2-4.6,4.2-4.6L588.4,216.7z M563.6,200.6c-13.4-0.2-16.4,3.3-16.4,10.2c0,6.4,2.5,9.6,7,9.6c4.2,0,9-3.7,9.2-11.4
			L563.6,200.6z"/>
		<path d="M617.4,221.3v3.7c-5.2,0-8.2-0.4-14.5-0.4c-6.3,0-9.2,0.4-14.5,0.4v-3.7l7.3-0.5v-35.6c0-5.9-1.9-5.9-7.3-5.9v-3.7
			l21.6-1.1v46.3L617.4,221.3z M603,148.6c4.4,0,8.6,2.9,8.6,8.2c0,5.3-4.2,8.2-8.6,8.2c-4.5,0-8.7-2.9-8.7-8.2
			C594.3,151.5,598.5,148.6,603,148.6z"/>
	</g>
</g>
</svg>
