<?xml version="1.0" encoding="utf-8"?>
<!-- Generator: Adobe Illustrator 16.0.0, SVG Export Plug-In . SVG Version: 6.00 Build 0)  -->
<!DOCTYPE svg PUBLIC "-//W3C//DTD SVG 1.1//EN" "http://www.w3.org/Graphics/SVG/1.1/DTD/svg11.dtd">
<svg version="1.1" id="Layer_1" xmlns="http://www.w3.org/2000/svg" xmlns:xlink="http://www.w3.org/1999/xlink" x="0px" y="0px"
	 width="91.5px" height="50px" viewBox="0 0 91.5 50" style="enable-background:new 0 0 91.5 50;" xml:space="preserve">
<g id="SED-ML">
	<g>
		<path style="fill:#186CB5;" d="M71.041016,25.870605c-0.087891-1.983887-0.174805-4.383789-0.174805-6.78418H70.77832
			c-0.611328,2.106445-1.425781,4.45752-2.182617,6.392578l-2.387695,6.440918h-3.464844l-2.09668-6.39209
			c-0.639648-1.935059-1.30957-4.286133-1.775391-6.441406H58.8125c-0.116211,2.229004-0.203125,4.775879-0.348633,6.833008
			l-0.349609,6.27002h-4.104492l1.251953-16.506836h5.910156l1.920898,5.510254
			c0.611328,1.910156,1.222656,3.967285,1.65918,5.902832h0.087891c0.552734-1.911133,1.222656-4.09082,1.863281-5.927246
			l2.095703-5.48584h5.793945l1.077148,16.506836h-4.337891L71.041016,25.870605z"/>
		<path style="fill:#186CB5;" d="M79.078125,15.682617h4.454102v13.37207h7.802734v3.134766H79.078125V15.682617z"/>
	</g>
	<g>
		<g>
			<defs>
				<ellipse id="SVGID_1_" cx="24.942383" cy="25.000488" rx="24.942383" ry="24.999512"/>
			</defs>
			<clipPath id="SVGID_2_">
				<use xlink:href="#SVGID_1_"  style="overflow:visible;"/>
			</clipPath>
			<g style="clip-path:url(#SVGID_2_);">
				<rect id="Background" x="-0.568359" y="-0.509766" style="fill:#186CB5;" width="51.021484" height="51.021484"/>
				<g>
					<g>
						<g id="Graph">
							<g>
								<path style="fill:#4082C3;" d="M18.510254,26.339844c1.04541-2.994141,3.34082-5.66748,6.397949-3.126953
									c1.177246,0.978027,2.14209,2.318848,3.12793,3.474609c1.299805,1.523438,2.740234,2.80957,4.595215,3.558594
									c3.100098,1.251953,9.03125-1.199219,11.960449-1.924805C45.887695,28,45.337891,26.001953,44.041016,26.323242
									c-2.972656,0.737305-5.958984,1.213867-8.938965,1.879883c-4.045898,0.904297-6.979492-5.000977-9.653809-7.223145
									c-4.477051-3.720703-7.533691,0.795898-8.935059,4.809082C16.071777,27.053711,18.072754,27.591797,18.510254,26.339844
									L18.510254,26.339844z"/>
							</g>
						</g>
						<g id="y_axis">
							<g>
								<g>
									<g>
										<polygon style="fill:#4082C3;" points="18.003906,39.542969 18.003906,18.980469 20.938965,18.980469 17.279297,7.894043 
											13.619629,18.980469 16.554199,18.980469 16.554199,39.542969 										"/>
									</g>
								</g>
							</g>
						</g>
						<g id="x_axis">
							<g>
								<g>
									<g>
										<polygon style="fill:#4082C3;" points="17.201172,39.540039 34.345703,39.540039 34.345703,42.692383 
											43.589844,38.761719 34.345703,34.831055 34.345703,37.983398 17.201172,37.983398 										"/>
									</g>
								</g>
							</g>
						</g>
					</g>
					<g id="Small_model">
						<polygon style="fill:#4082C3;" points="16.777344,25.648926 8.935547,34.787109 8.912109,34.787109 8.912109,16.424805 
							16.755859,25.562988 						"/>
						
							<rect x="9.341797" y="20.89209" style="fill:none;stroke:#186CB5;stroke-width:0.680268;" width="2.958984" height="2.82666"/>
						
							<rect x="9.341797" y="27.382813" style="fill:none;stroke:#186CB5;stroke-width:0.680268;" width="2.958984" height="2.826172"/>
						<line style="fill:none;stroke:#186CB5;stroke-width:0.680268;" x1="10.820313" y1="23.71875" x2="10.820313" y2="27.382813"/>
					</g>
				</g>
			</g>
		</g>
		<g>
			<path style="fill:#FFFFFF;" d="M5.192383,27.789063c0.994629,0.427734,2.522949,0.857422,4.100098,0.857422
				c1.698242,0,2.596191-0.591797,2.596191-1.490234c0-0.857422-0.776367-1.346191-2.741699-1.937988
				c-2.717285-0.795898-4.488281-2.060547-4.488281-4.060059c0-2.345703,2.329102-4.141113,6.186523-4.141113
				c1.84375,0,3.202637,0.326172,4.172852,0.693359l-0.824707,2.509766c-0.655273-0.265625-1.819824-0.65332-3.420898-0.65332
				S8.39502,20.179199,8.39502,20.893066c0,0.877441,0.921875,1.265137,3.032715,1.938477
				c2.886719,0.897461,4.245605,2.162109,4.245605,4.100098c0,2.304688-2.11084,4.263672-6.599121,4.263672
				c-1.868164,0-3.711914-0.408203-4.633789-0.835938L5.192383,27.789063z"/>
			<path style="fill:#FFFFFF;" d="M27.901855,25.177246h-6.016602v3.26416h6.720215v2.550781H18.172852V17.241211h10.092773
				v2.550293h-6.380371v2.855957h6.016602V25.177246z"/>
			<path style="fill:#FFFFFF;" d="M31.129883,17.424805c1.358887-0.183594,3.129883-0.285156,4.998047-0.285156
				c3.105469,0,5.119141,0.469238,6.696289,1.46875c1.698242,1.060547,2.765625,2.753906,2.765625,5.181641
				c0,2.631836-1.140137,4.448242-2.717285,5.569336c-1.722656,1.203125-4.342773,1.775391-7.54541,1.775391
				c-1.916504,0-3.275391-0.101563-4.197266-0.205078V17.424805z M34.842285,28.646484
				c0.314941,0.060547,0.824707,0.060547,1.285645,0.060547c3.348145,0.019531,5.531738-1.53125,5.531738-4.814941
				c0.023926-2.855957-1.965332-4.365723-5.143555-4.365723c-0.824707,0-1.358887,0.061035-1.673828,0.122559V28.646484z"/>
		</g>
	</g>
</g>
<g>
</g>
<g>
</g>
<g>
</g>
<g>
</g>
<g>
</g>
<g>
</g>
</svg>
