<?xml version="1.0" encoding="utf-8"?>
<!-- Generator: Adobe Illustrator 16.0.0, SVG Export Plug-In . SVG Version: 6.00 Build 0)  -->
<!DOCTYPE svg PUBLIC "-//W3C//DTD SVG 1.1//EN" "http://www.w3.org/Graphics/SVG/1.1/DTD/svg11.dtd">
<svg version="1.1" id="Layer_1" xmlns="http://www.w3.org/2000/svg" xmlns:xlink="http://www.w3.org/1999/xlink" x="0px" y="0px"
	 width="46.549805px" height="50px" viewBox="0 0 46.549805 50" style="enable-background:new 0 0 46.549805 50;"
	 xml:space="preserve">
<g id="Angular" transform="translate(-31.9,-30)">
	<polygon id="polygon3601" style="fill:#DD1E34;" points="31.9,38.300293 35.449806,69.074219 55.174416,80 55.174416,80 
		55.174416,80 74.899025,69.074219 78.449806,38.300293 55.174416,30.000488 55.174416,30.000488 55.174416,30.000488 	"/>
	<polygon id="polygon3603" style="fill:#C32033;" points="55.174416,60.849609 55.174416,60.849609 55.174416,80 55.174416,80 
		74.899025,69.074219 78.449806,38.300293 55.174416,30.000488 55.174416,30.000488 55.174416,35.550293 55.174416,35.524902 	"/>
	<path id="path3605" style="fill:#FFFFFF;" d="M55.174416,35.524902L40.624611,68.150391l0,0
		h5.424805l0,0l2.924805-7.300781h12.350586l2.924805,7.300781l0,0h5.424805l0,0L55.174416,35.524902L55.174416,35.524902
		L55.174416,35.524902L55.174416,35.524902L55.174416,35.524902z M59.424416,56.349609h-8.5l4.25-10.224121L59.424416,56.349609z"/>
</g>
<g>
</g>
<g>
</g>
<g>
</g>
<g>
</g>
<g>
</g>
<g>
</g>
</svg>
