<?xml version="1.0" encoding="utf-8"?>
<!-- Generator: Adobe Illustrator 16.0.0, SVG Export Plug-In . SVG Version: 6.00 Build 0)  -->
<!DOCTYPE svg PUBLIC "-//W3C//DTD SVG 1.1//EN" "http://www.w3.org/Graphics/SVG/1.1/DTD/svg11.dtd">
<svg version="1.1" id="Layer_1" xmlns="http://www.w3.org/2000/svg" xmlns:xlink="http://www.w3.org/1999/xlink" x="0px" y="0px"
	 width="72.070313px" height="50px" viewBox="0 0 72.070313 50" style="enable-background:new 0 0 72.070313 50;"
	 xml:space="preserve">
<g id="Docker">
	<path style="fill:#4791CE;" d="M70.555664,19.045898c-1.630859-1.098145-5.353516-1.475098-8.237305-0.943848
		c-0.376953-2.693359-1.871094-5.044922-4.632813-7.189453l-1.578125-1.0625l-1.064453,1.578125
		c-1.355469,2.024414-2.025391,4.855469-1.802734,7.549316c0.085938,0.960938,0.412109,2.642578,1.390625,4.135742
		c-0.978516,0.532227-2.916016,1.235352-5.457031,1.201172H0.271484l-0.085938,0.56543
		c-0.464844,2.694336-0.464844,11.170898,5.042969,17.674805C9.398926,47.496094,15.680176,50,23.864258,50
		c17.708008,0,30.834961-8.150391,36.977539-22.974609c2.420898,0.050781,7.620117,0.016602,10.27832-5.079102
		c0.070313-0.102539,0.224609-0.428711,0.6875-1.389648l0.257813-0.532227L70.555664,19.045898z M31.964355,6.760254h7.430176V0
		h-7.430176V6.760254z"/>
	<path style="fill:#4791CE;" d="M31.964355,14.859863h7.430176V8.098145h-7.430176V14.859863z M23.161133,14.859863h7.429688
		V8.098145h-7.429688V14.859863z M14.375488,8.098145h7.430176v6.761719h-7.430176V8.098145z M5.572266,16.197754h7.430176v6.76123
		H5.572266V16.197754z M14.375488,16.197754h7.430176v6.76123h-7.430176V16.197754z M23.161133,22.958984h7.429688v-6.76123
		h-7.429688V22.958984z M31.964355,22.958984h7.430176v-6.76123h-7.430176V22.958984z M40.75,22.958984h7.462891v-6.76123h-7.445313
		v6.76123H40.75z"/>
</g>
<g>
</g>
<g>
</g>
<g>
</g>
<g>
</g>
<g>
</g>
<g>
</g>
</svg>
