<?xml version="1.0" encoding="UTF-8" standalone="no"?>
<!-- Generator: Adobe Illustrator 15.1.0, SVG Export Plug-In . SVG Version: 6.00 Build 0)  -->

<svg
   xmlns:dc="http://purl.org/dc/elements/1.1/"
   xmlns:cc="http://creativecommons.org/ns#"
   xmlns:rdf="http://www.w3.org/1999/02/22-rdf-syntax-ns#"
   xmlns:svg="http://www.w3.org/2000/svg"
   xmlns="http://www.w3.org/2000/svg"
   xmlns:sodipodi="http://sodipodi.sourceforge.net/DTD/sodipodi-0.dtd"
   xmlns:inkscape="http://www.inkscape.org/namespaces/inkscape"
   version="1.1"
   id="Layer_1"
   viewBox="0 0 255.00161 224"
   xml:space="preserve"
   sodipodi:docname="eslint.svg"
   width="255.00162"
   height="224"
   inkscape:version="0.92.3 (2405546, 2018-03-11)"><metadata
   id="metadata6499"><rdf:RDF><cc:Work
       rdf:about=""><dc:format>image/svg+xml</dc:format><dc:type
         rdf:resource="http://purl.org/dc/dcmitype/StillImage" /><dc:title></dc:title></cc:Work></rdf:RDF></metadata><defs
   id="defs6497" /><sodipodi:namedview
   pagecolor="#ffffff"
   bordercolor="#666666"
   borderopacity="1"
   objecttolerance="10"
   gridtolerance="10"
   guidetolerance="10"
   inkscape:pageopacity="0"
   inkscape:pageshadow="2"
   inkscape:window-width="1920"
   inkscape:window-height="1112"
   id="namedview6495"
   showgrid="false"
   fit-margin-top="0"
   fit-margin-left="0"
   fit-margin-right="0"
   fit-margin-bottom="0"
   inkscape:zoom="3.5678156"
   inkscape:cx="127.50101"
   inkscape:cy="112"
   inkscape:window-x="0"
   inkscape:window-y="0"
   inkscape:window-maximized="1"
   inkscape:current-layer="Layer_1" />
<g
   id="g6492"
   transform="translate(-19.9115,-17.491)">
	<path
   d="m 97.021,99.016 48.432,-27.962 c 1.212,-0.7 2.706,-0.7 3.918,0 l 48.433,27.962 c 1.211,0.7 1.959,1.993 1.959,3.393 v 55.924 c 0,1.399 -0.748,2.693 -1.959,3.394 l -48.433,27.962 c -1.212,0.7 -2.706,0.7 -3.918,0 L 97.021,161.727 c -1.212,-0.7 -1.959,-1.994 -1.959,-3.394 v -55.924 c 0.001,-1.4 0.748,-2.693 1.959,-3.393"
   id="path6488"
   inkscape:connector-curvature="0"
   style="fill:#8080f2" />
	<path
   d="M 273.336,124.488 215.469,23.816 c -2.102,-3.64 -5.985,-6.325 -10.188,-6.325 H 89.545 c -4.204,0 -8.088,2.685 -10.19,6.325 l -57.867,100.45 c -2.102,3.641 -2.102,8.236 0,11.877 l 57.867,99.847 c 2.102,3.64 5.986,5.501 10.19,5.501 H 205.28 c 4.203,0 8.087,-1.805 10.188,-5.446 l 57.867,-100.01 c 2.104,-3.639 2.104,-7.907 0.001,-11.547 m -47.917,48.41 c 0,1.48 -0.891,2.849 -2.174,3.59 l -73.71,42.527 c -1.282,0.74 -2.888,0.74 -4.17,0 L 71.598,176.488 c -1.282,-0.741 -2.179,-2.109 -2.179,-3.59 V 87.843 c 0,-1.481 0.884,-2.849 2.167,-3.59 l 73.707,-42.527 c 1.282,-0.741 2.886,-0.741 4.168,0 l 73.772,42.527 c 1.283,0.741 2.186,2.109 2.186,3.59 z"
   id="path6490"
   inkscape:connector-curvature="0"
   style="fill:#4b32c3" />
</g>
</svg>