<?xml version="1.0" encoding="utf-8"?>
<!-- Generator: Adobe Illustrator 16.0.0, SVG Export Plug-In . SVG Version: 6.00 Build 0)  -->
<!DOCTYPE svg PUBLIC "-//W3C//DTD SVG 1.1//EN" "http://www.w3.org/Graphics/SVG/1.1/DTD/svg11.dtd">
<svg version="1.1" id="Layer_1" xmlns="http://www.w3.org/2000/svg" xmlns:xlink="http://www.w3.org/1999/xlink" x="0px" y="0px"
	 width="43.100098px" height="50px" viewBox="0 0 43.100098 50" style="enable-background:new 0 0 43.100098 50;"
	 xml:space="preserve">
<path id="FontAwesome" style="fill:#4E95D0;" d="M43.099609,35.099609c0,0.701172-0.599609,1-1.299805,1.300781
	C39,37.600586,36,38.700195,32.799805,38.700195c-4.5,0-6.599609-2.799805-11.999023-2.799805
	c-3.900391,0-8.000977,1.399414-11.300781,2.899414C9.299805,38.900391,9.099609,38.900391,8.900391,39v7.600586
	C8.900391,48.69043,7.325195,50,5.599609,50c-1.899414,0-3.399414-1.5-3.399414-3.399414V10.000488
	C0.899414,8.999512,0,7.400879,0,5.600098c0-3.100586,2.500977-5.599609,5.599609-5.599609
	c3.100586,0,5.599609,2.499023,5.599609,5.599609c0,1.800781-0.799805,3.399414-2.200195,4.400391v3.099609
	c0.40332-0.134766,5.740234-2.799805,11.202148-2.799805c6.374023,0,9.538086,2.700195,12.399414,2.700195
	c3.798828,0,7.999023-2.700195,8.999023-2.700195c0.799805,0,1.5,0.599609,1.5,1.299805V35.099609L43.099609,35.099609z"/>
<g>
</g>
<g>
</g>
<g>
</g>
<g>
</g>
<g>
</g>
<g>
</g>
</svg>
