<?xml version="1.0" encoding="utf-8"?>
<!-- Generator: Adobe Illustrator 16.0.0, SVG Export Plug-In . SVG Version: 6.00 Build 0)  -->
<!DOCTYPE svg PUBLIC "-//W3C//DTD SVG 1.1//EN" "http://www.w3.org/Graphics/SVG/1.1/DTD/svg11.dtd">
<svg version="1.1" id="Layer_1" xmlns="http://www.w3.org/2000/svg" xmlns:xlink="http://www.w3.org/1999/xlink" x="0px" y="0px"
	 width="41.589844px" height="50px" viewBox="0 0 41.589844 50" style="enable-background:new 0 0 41.589844 50;"
	 xml:space="preserve">
<g id="cobrapy">
	<path style="fill:#333333;stroke:#010101;stroke-width:0.08732;" d="M33.779785,33.040039c0,0-0.447266-1.494141-0.90625-2.558594
		c-0.455078-1.070313-1.138672-2.505859-1.138672-2.505859s4.951172,0.535156,8.214844,5.787109
		c3.267578,5.25,0.667969,10.107422,0.386719,10.603516c0,0-1.537109,2.988281-3.880859,4.263672
		c-2.34375,1.28125-3.335938,1.335938-3.625,1.365234c-0.285156,0.027344-0.689453-0.044922-0.736328-0.457031
		c-0.025391-0.248047-0.091797-0.492188,0.298828-0.658203c0.304688-0.128906,2.042969-0.724609,3.142578-1.685547
		c1.09375-0.960938,2.384766-1.767578,3.166016-4.818359s-1.115234-5.986328-1.4375-6.464844
		C35.779785,33.723633,33.779785,33.040039,33.779785,33.040039z"/>
	<path style="fill:#333333;stroke:#010101;stroke-width:0.08732;" d="M32.000488,11.791992c0,0,1.912109-4.681152-0.929688-7.98584
		C28.58252,0.91748,22.844238-1.721191,16.555176,1.42334c-4.701172,2.351563-7.349609,6.982422-7.349609,11.540527
		c0,4.560547,2.132813,7.743652,2.132813,7.743652s-1.332031-8.353027,4.607422-11.608398
		c4.603516-2.527344,7.740234-1.650391,10.054688-0.78125C28.311035,9.187012,32.000488,11.791992,32.000488,11.791992z"/>
	<path style="fill:#333333;stroke:#010101;stroke-width:0.08732;" d="M28.602051,11.401367c0,0-3.298828-2.501465-7.509766-2.145996
		c-3.869141,0.332031-6.447266,3.395996-7.025391,4.413574c-0.578125,1.019531-2.330078,5.046875-0.716797,8.45459
		c4.544922,9.60791,14.443359,7.660645,12.326172,16.775879c-0.351563,1.523438-2.982422,3.460938-4.607422,3.835938
		C14.92041,44.151367,9.82666,42.428711,8.422363,41.499023c-4.041016-2.667969-2.431641-6.363281-1.175781-7.533203
		c2.884766-2.689453,11.71875-3.892578,11.71875-3.892578l-3.917969-3.523438c0,0-8.300781,0.814453-11.964844,4.40625
		c-4.078125,3.996094-3.287109,8.833984-2.242188,11.175781c2.324219,5.193359,8.546875,7.447266,12.583984,7.675781
		c3.097656,0.175781,17.138672,1.582031,19.341797-11.427734c1.529297-9.058594-7.412109-17.449707-8.339844-18.781738
		c-1.421875-2.052246-1.166016-4.26123-0.931641-4.862793C24.605957,11.899414,28.602051,11.401367,28.602051,11.401367z"/>
</g>
<g>
</g>
<g>
</g>
<g>
</g>
<g>
</g>
<g>
</g>
<g>
</g>
</svg>
