<?xml version="1.0" encoding="utf-8"?>
<!-- Generator: Adobe Illustrator 16.0.0, SVG Export Plug-In . SVG Version: 6.00 Build 0)  -->
<!DOCTYPE svg PUBLIC "-//W3C//DTD SVG 1.1//EN" "http://www.w3.org/Graphics/SVG/1.1/DTD/svg11.dtd">
<svg version="1.1" id="Layer_1" xmlns="http://www.w3.org/2000/svg" xmlns:xlink="http://www.w3.org/1999/xlink" x="0px" y="0px"
	 width="100px" height="100px" viewBox="0 0 100 100" style="enable-background:new 0 0 100 100;" xml:space="preserve">
<path style="fill-rule:evenodd;clip-rule:evenodd;fill:#404040;" d="M100,17.967773c0,21.616211,0,43.229492,0,64.84668
	C96.910156,91.574219,91.166016,97.558594,82.033203,100c-21.876953,0-43.752441,0-65.627441,0
	C8.856934,97.351563,3.217285,92.591797,0,85.15625c0-23.4375,0-46.875,0-70.3125C3.425293,7.229004,9.119629,2.240234,17.186035,0
	c21.616211,0,43.22998,0,64.847168,0C91.378906,2.634277,97.367188,8.623535,100,17.967773z M39.807129,53.078125
	c0-13.957031,0-27.019531,0-40.205566c-3.200195,0-5.972656,0-8.883789,0c0,23.873535,0,47.504395,0,71.30127
	c2.970703,0,5.750977,0,8.731445,0c0-6.941406,0-13.679688,0-20.382813c2.077148-1.931641,4.026367-3.746094,6.170898-5.748047
	c5.896973,9.037109,11.555176,17.714844,17.057129,26.142578c3.738281,0,7.056641,0,10.972656,0
	c-7.396484-11.03125-14.511719-21.644531-21.455078-32c6.263672-6.679688,12.337891-13.154297,18.353516-19.564453
	c-3.332031,0-6.917969,0-10.507813,0C53.617188,39.253906,47.093262,45.783203,39.807129,53.078125z"/>
</svg>
