<?xml version="1.0" encoding="utf-8"?>
<!-- Generator: Adobe Illustrator 16.0.0, SVG Export Plug-In . SVG Version: 6.00 Build 0)  -->
<!DOCTYPE svg PUBLIC "-//W3C//DTD SVG 1.1//EN" "http://www.w3.org/Graphics/SVG/1.1/DTD/svg11.dtd">
<svg version="1.1" id="Layer_1" xmlns="http://www.w3.org/2000/svg" xmlns:xlink="http://www.w3.org/1999/xlink" x="0px" y="0px"
	 width="120.629883px" height="50px" viewBox="0 0 120.629883 50" style="enable-background:new 0 0 120.629883 50;"
	 xml:space="preserve">
<path id="libRoadRunner" style="fill-rule:evenodd;clip-rule:evenodd;fill:#F8981D;" d="M85.168945,33.291016
	c-0.072266,0.908203-0.232422,1.820313-0.1875,2.724609c0.0625,1.253906-0.076172,2.652344,1.408203,3.330078
	c0.943359,1.882813,2.6875,1.115234,4.154297,1.226563c0.541016,0.041016,1.09375-0.082031,1.642578-0.125
	c1.929688-0.146484,3.857422-0.357422,5.791016-0.417969c1.847656-0.054688,3.630859,0.322266,5.287109,1.214844
	c0.220703,0.119141,0.5,0.123047,0.734375,0.224609c0.271484,0.121094,0.572266,0.236328,0.763672,0.443359
	c0.25,0.279297,0.275391,0.621094-0.257813,0.556641c-0.556641-0.070313-1.107422-0.207031-1.65625-0.335938
	c-0.914063-0.214844-1.814453-0.509766-2.742188-0.652344c-1.175781-0.185547-1.326172,0.310547-1.628906,1.363281
	c-0.076172,0.255859-0.037109,0.552734-0.015625,0.826172c0.072266,0.884766-0.097656,1.216797-0.925781,1.517578
	c-0.572266,0.208984-1.193359,0.291016-1.761719,0.503906c-0.390625,0.146484-0.726563,0.433594-1.095703,0.640625
	c-0.150391,0.082031-0.330078,0.119141-0.496094,0.175781c0.021484-0.171875,0.011719-0.355469,0.070313-0.517578
	c0.267578-0.716797,0.810547-1.080078,1.556641-1.1875c1.019531-0.154297,1.945313-1.412109,1.779297-2.412109
	c-0.09375-0.546875-0.603516-0.878906-1.179688-0.771484c-0.275391,0.050781-0.560547,0.128906-0.837891,0.128906
	C93.129883,41.75,90.71582,41.943359,88.34668,42.595703c-1.181641,0.324219-2.412109,0.097656-3.5-0.234375
	c-1.164063-0.353516-1.779297-1.523438-2.042969-2.689453c-0.333984-1.490234-0.6875-2.931641-2.011719-3.876953
	c-0.291016-0.207031-0.662109-0.380859-1.013672-0.417969c-1.824219-0.177734-3.671875-0.193359-5.474609-0.496094
	c-1.039063-0.173828-2.023438-0.75-3.003906-1.208984c-0.541016-0.251953-1.052734-0.359375-1.623047-0.183594
	c-1.486328,0.455078-2.949219,0.410156-4.414063-0.130859c-1.458984-0.542969-2.912109-1.126953-4.411133-1.515625
	c-1.025391-0.267578-2.167969-0.474609-3.125,0.320313c-0.296875,0.248047-0.750977,0.582031-0.748047,0.875
	c0.012695,1.130859-0.546875,2.056641-0.921875,3.044922C55.324219,38,54.539063,39.902344,53.762695,41.808594
	c-0.272461,0.673828-0.68457,1.148438-1.416992,1.476563c-0.882813,0.396484-1.642578,1.072266-2.456055,1.628906
	c-0.15625,0.107422-0.288086,0.273438-0.459961,0.332031c-1.376953,0.464844-2.095703,1.646484-2.912109,2.703125
	c-0.253906,0.326172-0.400391,0.357422-0.753906,0.216797c-0.610352-0.242188-1.085938,0.046875-1.589844,0.429688
	c-0.691406,0.525391-1.479492,0.933594-2.236328,1.371094c-0.097656,0.056641-0.294922,0.037109-0.388672-0.027344
	c-0.058594-0.041016-0.064453-0.263672-0.008789-0.349609c0.178711-0.285156,0.34668-0.697266,0.610352-0.783203
	c1.316406-0.425781,2.124023-1.509766,3.12793-2.330078c0.228516-0.189453,0.275391-0.589844,0.444336-0.871094
	c0.177734-0.302734,0.334961-0.699219,0.613281-0.849609c1.063477-0.5625,2.165039-1.054688,3.265625-1.546875
	c0.767578-0.341797,0.863281-0.767578,0.256836-1.335938c-1.370117-1.287109-1.282227-2.664063,0.259766-3.818359
	c0.071289-0.050781,0.397461,0.072266,0.397461,0.123047c0.011719,0.283203-0.019531,0.570313-0.072266,0.851563
	c-0.099609,0.550781-0.105469,1.056641,0.509766,1.326172c0.587891,0.257813,0.955078,0.001953,1.339844-0.464844
	c0.853516-1.050781,1.094727-2.322266,1.460938-3.5625c0.15625-0.533203,0.575195-0.988281,0.741211-1.521484
	c0.37207-1.189453,0.738281-2.390625,0.959961-3.613281c0.234375-1.308594-0.84375-1.726563-1.888672-1.402344
	c-0.382813,0.117188-0.754883,0.273438-1.129883,0.412109c-0.675781,0.253906-1.076172-0.070313-0.966797-0.78125
	c0.081055-0.517578-0.178711-0.816406-0.663086-0.871094c-0.272461-0.027344-0.556641,0.070313-0.838867,0.123047
	c-1.854492,0.339844-3.713867,0.683594-5.568359,1.03125c-0.163086,0.03125-0.329102,0.070313-0.472656,0.144531
	c-1.807617,0.962891-3.769531,1.451172-5.731445,1.982422c-1.989258,0.535156-3.916016,1.292969-6.03125,1.21875
	c-0.628906-0.021484-0.844727,0.388672-0.541016,1.025391c0.244141,0.519531,0.130859,1.021484-0.259766,1.240234
	c-0.319336,0.181641-0.929688,0.162109-1.248047-0.035156c-0.532227-0.322266-0.955078-0.841797-1.386719-1.310547
	c-0.568359-0.621094-1.119141-1.179688-2.085938-0.802734c-0.388672,0.154297-0.854492,0.113281-1.239258,0.271484
	c-0.68457,0.28125-0.932617,0.892578-1.010742,1.595703c-0.024414,0.230469-0.074219,0.470703-0.171875,0.679688
	c-0.472656,1.021484-0.569336,1.060547-1.679688,0.957031c-0.763672-0.068359-1.527344-0.109375-2.290039-0.142578
	c-0.819336-0.037109-1.169922-0.326172-1.327148-1.136719c-0.102539-0.533203-0.697266-0.861328-1.337891-0.746094
	c-0.816406,0.144531-1.630859,0.304688-2.453125,0.414063c-0.296875,0.041016-0.644531,0.027344-0.916992-0.087891
	c-0.925781-0.394531-1.830078-0.28125-2.768555-0.0625c-1.032227,0.238281-2.083984,0.435547-3.134766,0.560547
	c-0.296875,0.035156-0.826172-0.162109-0.922852-0.388672C6.739258,33.517578,5.474609,34,4.358398,34.142578
	c-1.069336,0.138672-2.118164,0.458984-3.188477,0.613281c-0.28125,0.042969-0.700195-0.146484-0.897461-0.369141
	c-0.516602-0.576172-0.296875-0.992188,0.647461-1.421875c1.048828-0.474609,2.173828-0.769531,3.266602-1.144531
	c2.051758-0.705078,4.079102-1.492188,6.163086-2.095703c2.625-0.761719,5.287109-1.402344,7.945313-2.035156
	c1.626953-0.386719,3.285156-0.632813,4.921875-0.978516c1.794922-0.382813,3.576172-0.839844,5.380859-1.193359
	c0.929688-0.185547,1.895508-0.193359,2.837891-0.328125c0.700195-0.099609,1.382813-0.291016,2.080078-0.416016
	c0.634766-0.117188,1.276367-0.212891,1.917969-0.300781c1.103516-0.15625,2.210938-0.289063,3.316406-0.447266
	c1.269531-0.179688,2.533203-0.384766,3.800781-0.568359c1.479492-0.214844,2.962891-0.414063,4.441406-0.625
	c0.917969-0.128906,1.833984-0.257813,2.748047-0.396484c0.183594-0.027344,0.402344-0.050781,0.537109-0.162109
	c0.882813-0.722656,1.953125-0.587891,2.975586-0.716797c0.888672-0.115234,1.767578-0.318359,2.646484-0.492188
	c0.112305-0.023438,0.231445-0.087891,0.30957-0.169922c1.662109-1.755859,3.888672-2.050293,6.102539-2.380371
	c0.210938-0.03125,0.414063-0.091797,0.617188-0.144531c1.117188-0.279297,2.199219-0.351563,3.380859-0.205078
	c1.339844,0.162109,2.765625-0.078125,4-0.767578c1.154297-0.644531,2.382813-0.734375,3.652344-0.787109
	c0.492188-0.019531,0.974609-0.257813,1.460938-0.392578c0.382813-0.107422,0.818359-0.380859,1.136719-0.28125
	c1.060547,0.328125,1.949219-0.203125,2.90625-0.408203c0.599609-0.128906,1.212891-0.205078,1.804688-0.361328
	c0.404297-0.103516,0.847656-0.224609,1.154297-0.480469c1.011719-0.847656,2.111328-0.873047,3.353516-0.707031
	c0.908203,0.117188,1.896484,0.033203,2.785156-0.197266c1.273438-0.332031,2.501953-0.847656,3.71875-1.355469
	c0.486328-0.201172,0.898438-0.583984,1.330078-0.908203c0.541016-0.40625,1.009766-0.943359,1.605469-1.232422
	c1.550781-0.759277,2.697266-1.82959,3.177734-3.532715c0.109375-0.378906,0.332031-0.744141,0.363281-1.125
	c0.019531-0.275391-0.130859-0.625-0.318359-0.835938c-0.847656-0.941406-0.832031-1.439453,0.136719-2.308594
	c0.154297-0.138672,0.255859-0.339844,0.384766-0.509766c0.654297-0.898438,1.75-1.205078,2.582031-1.869141
	c0.220703-0.179688,0.796875-0.101563,1.113281,0.056641c0.863281,0.431641,1.699219,0.939453,2.5,1.486328
	c0.224609,0.15625,0.380859,0.546875,0.402344,0.839844c0.050781,0.669922,0.388672,0.980469,0.986328,1.236328
	c0.787109,0.341797,1.714844,0.664063,2.224609,1.289063c1.052734,1.287109,2.402344,1.476563,3.880859,1.613281
	c1.893555,0.173828,3.786133,0.394531,5.651367,0.742188c0.803711,0.148438,1.545898,0.660156,2.302734,1.029297
	c0.03418,0.017578,0.005859,0.333984-0.056641,0.361328c-0.208984,0.09375-0.450195,0.160156-0.681641,0.167969
	c-1.636719,0.060547-3.273438,0.103516-4.90918,0.152344c-0.194336,0.005859-0.454102-0.0625-0.570313,0.037109
	c-1.103516,0.938965-2.636719,0.798828-3.828125,1.550293c-0.425781,0.267578-1.111328,0.302734-1.630859,0.199219
	c-0.744141-0.144531-1.337891-0.083984-1.982422,0.34375c-0.472656,0.3125-1.082031,0.417969-1.621094,0.636719
	c-0.560547,0.228516-1.117188,0.466797-1.660156,0.732422c-1.574219,0.773438-3.212891,1.453125-4.693359,2.380859
	c-1.339844,0.841797-2.603516,1.865234-3.722656,2.986328c-0.867188,0.867188-1.689453,1.712402-2.771484,2.319824
	c-0.423828,0.238281-0.814453,0.742188-0.964844,1.207031c-0.453125,1.380859-1.642578,2.175781-2.408203,3.294922
	c-0.785156,1.148438-1.470703,2.365234-2.230469,3.53125c-0.400391,0.613281-0.878906,1.177734-1.310547,1.773438
	C84.852539,31.060547,85.172852,32.203125,85.168945,33.291016z"/>
<g>
</g>
<g>
</g>
<g>
</g>
<g>
</g>
<g>
</g>
<g>
</g>
</svg>
