<?xml version="1.0" encoding="utf-8"?>
<!-- Generator: Adobe Illustrator 16.0.0, SVG Export Plug-In . SVG Version: 6.00 Build 0)  -->
<!DOCTYPE svg PUBLIC "-//W3C//DTD SVG 1.1//EN" "http://www.w3.org/Graphics/SVG/1.1/DTD/svg11.dtd">
<svg version="1.1" id="Layer_1" xmlns="http://www.w3.org/2000/svg" xmlns:xlink="http://www.w3.org/1999/xlink" x="0px" y="0px"
	 width="60.339844px" height="50px" viewBox="0 0 60.339844 50" style="enable-background:new 0 0 60.339844 50;"
	 xml:space="preserve">
<g id="OMEX" transform="matrix(6.0002423,0,0,6.0002423,-1.0594214,-7.4606473)">
	<g id="g4356" transform="matrix(0.01046984,0,0,0.01046984,0.18703295,-0.08022585)">
		<path id="path3338" style="fill:#1F636A;" d="M419.23761,835.230835
			c-73.278107-30.871948-101.320892-96.99939-101.320892-148.732422c0-58.199707,36.716766-128.679688,120.720764-155.906372
			l-0.715057-24.436432l61.059906,40.253204l-60.344849,41.660034v-14.363403c0,0-77.941528,25.679993-77.941528,113.072754
			c0,74.428467,59.256714,102.471191,59.256714,102.471191L419.23761,835.230835z"/>
		<path id="path4159" style="fill:#1F636A;" d="M518.382202,530.592041
			c89.817749,25.143677,121.435852,105.603455,121.435852,157.336426c0,54.62439-31.680298,137.322632-140.120667,158.090454
			l0.746155,21.545044l-61.091003-40.229858l60.344849-41.691162v18.000977c0,0,98.802612-15.669189,98.802612-116.710327
			c0-88.791748-80.832825-112.513062-80.832825-112.513062L518.382202,530.592041z"/>
		<path id="path4163" style="fill:#323232;" d="M914.556458,413.104553v29.814911
			l-855.242676-0.932709l-15.980034-0.015533v-25.959778l-44.333717,40.121063v466.180237h960.480896V458.044525
			L914.556458,413.104553z M39.416428,486.600281h878.124634v398.809143H39.416428V486.600281z"/>
		<path id="path4171" style="fill:#DFDB28;" d="M647.155151,205.721649
			c-9.047058,0-18.094116,2.704803-26.239563,10.85025c-8.145447,8.129929-48.841736,48.841705-48.841736,48.841705H138.90303
			c-9.948669,0-18.995728,9.948669-18.995728,18.078583v46.04364h504.3349
			c6.466614-6.45108,36.809998-36.794495,44.147156-44.147156c11.098999-11.083435,25.306885-15.5448,37.556213-15.5448h133.840515
			v-46.945236c0-5.425125-5.440674-17.176987-18.094116-17.176987H647.155151z"/>
		<path id="path4173" style="fill:#8BC640;" d="M585.691101,126.427727
			c-9.047058,0-18.063049,2.704796-26.208496,10.850258L510.6409,186.11969H197.724472
			c-9.948654,0-18.995712,9.933105-18.995712,18.078583v45.219757h386.723022
			c6.466675-6.435547,36.810059-36.794495,44.178284-44.147186c11.067871-11.08342,25.275818-15.529236,37.525085-15.529236
			h131.16687v-46.136902c0-5.425125-5.409607-17.176979-18.094116-17.176979H585.691101z"/>
		<path id="path4169" style="fill:#BBB0B3;" d="M59.313751,426.006744
			c0,0,0-54.251312,0-62.396759s9.047058-18.078583,18.99572-18.078583s552.55481,0,552.55481,0
			s40.696228-40.696228,48.841675-48.857239c8.145447-8.129913,17.192505-10.834717,26.239624-10.834717
			c9.047058,0,161.852234,0,174.536743,0c12.653503,0,18.094177,11.751862,18.094177,17.176971c0,5.42514,0,123.891907,0,123.891907
			L59.313751,426.006744z"/>
	</g>
</g>
<g>
</g>
<g>
</g>
<g>
</g>
<g>
</g>
<g>
</g>
<g>
</g>
</svg>
