<?xml version="1.0" encoding="utf-8"?>
<!-- Generator: Adobe Illustrator 16.0.0, SVG Export Plug-In . SVG Version: 6.00 Build 0)  -->
<!DOCTYPE svg PUBLIC "-//W3C//DTD SVG 1.1//EN" "http://www.w3.org/Graphics/SVG/1.1/DTD/svg11.dtd">
<svg version="1.1" id="Layer_1" xmlns="http://www.w3.org/2000/svg" xmlns:xlink="http://www.w3.org/1999/xlink" x="0px" y="0px"
	 width="48.649902px" height="50px" viewBox="0 0 48.649902 50" style="enable-background:new 0 0 48.649902 50;"
	 xml:space="preserve">
<g id="Open_Source_Brain">
	<path style="fill-rule:evenodd;clip-rule:evenodd;fill:#F26722;" d="M37.335938,30.173828
		c0.75-1.245117,1.501953-2.488281,2.248047-3.735352c0.140625-0.235352,0.251953-0.489746,0.394531-0.724609
		c0.582031-0.943359,1.005859-1.943359,1.175781-3.050781c0.050781-0.325684,0.199219-0.649414,0.357422-0.943359
		c0.28125-0.520996,0.673828-0.722168,1.162109-0.432129c0.767578,0.458008,1.509766,0.987305,2.15625,1.601563
		c0.496094,0.47168,0.369141,1.02832-0.257813,1.352051c-0.625,0.321289-1.310547,0.535645-1.982422,0.751465
		c-0.308594,0.098633-0.515625,0.219727-0.691406,0.51416c-3.791016,6.358398-6.283203,10.358398-3.822266,6.306641
		c0.091797-0.150391-0.162109,0.31543-0.240234,0.472656c-0.326172,0.678711-0.650391,1.359375-0.974609,2.038086
		c-0.478516,0.854492-0.558594,1.804688-0.679688,2.750977c-0.201172,1.585938-0.404297,3.172852-0.654297,4.75293
		c-0.507813,3.233398-2.453125,5.316406-5.363281,6.619141c-1.773438,0.794922-3.628906,1.249023-5.554688,1.454102
		C24.509766,49.911133,24.416016,49.96582,24.318359,50c-1.232422,0-2.464844,0-3.697266,0
		c-0.111328-0.040039-0.220703-0.102539-0.335938-0.116211c-2.580078-0.293945-5.046875-0.981445-7.369141-2.148438
		c-4.75-2.384766-8.091797-6.115234-10.294922-10.90332c-0.103516-0.226563-0.125-0.62207,0.005859-0.789063
		c0.140625-0.177734,0.544922-0.296875,0.765625-0.225586c0.316406,0.102539,0.638672,0.349609,0.833984,0.625
		c0.285156,0.40332,0.431641,0.904297,0.6875,1.332031c1.740234,2.908203,4.119141,5.188477,6.980469,6.969727
		c1.183594,0.736328,2.441406,1.321289,3.853516,1.525391c1.650391,0.236328,2.902344-0.529297,3.388672-2.128906
		c0.326172-1.076172,0.279297-2.179688,0.195313-3.27832c-0.082031-1.09082-0.294922-2.149414-0.978516-3.052734
		c-0.703125-0.928711-1.617188-1.597656-2.675781-2.039063c-0.958984-0.398438-1.958984-0.701172-2.941406-1.044922
		l0.009766,0.006836c-0.029297-0.029297-0.056641-0.05957-0.085938-0.089844
		c-0.591797-0.158203-1.183594-0.318359-1.775391-0.476563c-0.691406-0.167969-1.382813-0.337891-2.074219-0.505859
		c-2.025391-0.492188-4.080078-0.908203-5.962891-1.84375c-0.730469-0.363281-1.392578-0.870117-2.058594-1.349609
		c-0.320313-0.230469-0.423828-0.589844-0.152344-0.9375c0.261719-0.335938,0.603516-0.267578,0.917969-0.078125
		c0.332031,0.197266,0.642578,0.433594,0.972656,0.639648c2.078125,1.291992,4.345703,1.966797,6.783203,2.092773
		c0.787109-0.004883,1.574219-0.009766,2.361328-0.013672c1.376953-0.254883,2.78125-0.412109,4.125-0.785156
		c2.332031-0.647461,4.476563-1.722656,6.361328-3.270508c0.400391-0.350586,0.800781-0.701172,1.201172-1.051758
		c0.904297-0.771484,1.583984-1.720703,2.189453-2.731445c0.494141-1.047363,1.125-2.056152,1.455078-3.153809
		c0.501953-1.663574,0.794922-3.388184,1.171875-5.088379c0.128906-0.582031,0.4375-0.74707,0.978516-0.51123
		c0.478516,0.208008,0.650391,0.486816,0.498047,0.999023c-0.345703,1.176758-0.736328,2.339844-1.101563,3.510742
		c-0.496094,1.600098-0.984375,3.204102-1.476563,4.805176c-0.253906,1.333984-0.242188,2.648438,0.664063,3.744141
		c1.326172,1.603516,2.830078,3.039063,4.648438,4.082031c0.439453,0.249023,1.011719,0.416016,1.505859,0.382813
		c0.697266-0.046875,1.294922-0.466797,1.789063-0.982422C36.232422,31.470703,36.783203,30.822266,37.335938,30.173828z"/>
	<g>
		<path style="fill-rule:evenodd;clip-rule:evenodd;fill:#35ABC7;" d="M23.259766,11.050781
			c0.300781-0.569336,0.599609-1.138672,0.900391-1.70752c1.152344-0.122559,2.253906-0.407715,3.292969-0.937012
			c1.923828-0.983887,3.90625-1.803223,6.050781-2.177246c3.140625-0.549805,5.902344,0.306641,8.328125,2.307129
			c2.705078,2.230469,4.457031,5.126953,5.525391,8.416504c2.529297,7.79248,1.310547,15.038574-3.351563,21.736816
			c-0.367188,0.527344-0.669922,0.637695-1.029297,0.394531c-0.433594-0.294922-0.572266-1.039063-0.230469-1.473633
			c0.890625-1.132813,1.523438-2.404297,2.039063-3.737305c0.832031-2.157227,1.341797-4.386719,1.527344-6.693359
			c0.126953-1.576172,0.123047-3.13916-0.296875-4.674316c-0.103516-0.373047-0.236328-0.741699-0.40625-1.087891
			c-0.728516-1.492188-1.992188-2.06543-3.576172-1.605957c-1.494141,0.43457-2.765625,1.271484-3.878906,2.32959
			c-0.882813,0.839355-1.273438,1.951172-1.367188,3.139648c-0.130859,1.660645,0.099609,3.291504,0.548828,4.893066
			c-0.552734,0.648438-1.103516,1.296875-1.654297,1.945313c-0.091797-0.132813-0.183594-0.265625-0.277344-0.396484
			c-2.146484-3.045898-4.904297-5.34375-8.330078-6.830078c0.492188-1.601074,0.980469-3.205078,1.476563-4.805176
			c0.365234-1.170898,0.755859-2.333984,1.101563-3.510742c0.152344-0.512207-0.019531-0.791016-0.498047-0.999023
			c-0.541016-0.23584-0.849609-0.070801-0.978516,0.51123c-0.376953,1.700195-0.669922,3.424805-1.171875,5.088379
			c-0.330078,1.097656-0.960938,2.106445-1.455078,3.153809c-1.183594-0.198242-2.365234-0.397461-3.546875-0.597168
			c-0.105469-0.532715-0.208984-1.066406-0.3125-1.599121c1.101563-0.328125,2.101563-0.855469,2.6875-1.863281
			c0.390625-0.674316,0.615234-1.455566,0.841797-2.208984c0.433594-1.442871,0.724609-2.913574,0.765625-4.431641
			c0.027344-1.103027-0.478516-1.814941-1.474609-2.200684C24.105469,11.273926,23.675781,11.175293,23.259766,11.050781z"/>
		<path style="fill-rule:evenodd;clip-rule:evenodd;fill:#35ABC7;" d="M21.681641,9.615234
			c-0.382813,0.392578-0.763672,0.784668-1.144531,1.177246C18.691406,10.807617,16.84375,10.867188,15,10.820313
			c-1.212891-0.03125-2.359375,0.183105-3.519531,0.487793c-1.251953,0.329102-1.904297-0.262695-1.84375-1.544922
			c0.037109-0.76416,0.310547-1.455566,0.746094-2.073242c0.349609-0.494141,0.759766-0.561523,1.253906-0.201172
			c0.324219,0.23584,0.671875,0.495117,0.878906,0.825195c0.560547,0.902832,1.419922,1.093262,2.365234,1.121094
			C17.148438,9.501953,19.414063,9.556641,21.681641,9.615234z"/>
		<path style="fill-rule:evenodd;clip-rule:evenodd;fill:#35ABC7;" d="M36.861328,34.324219
			c0.324219-0.678711,0.648438-1.359375,0.974609-2.038086c0.785156,2.583008,1.621094,5.158203,1.796875,7.875
			c0.044922,0.700195-0.09375,1.415039-0.183594,2.119141c-0.052734,0.40918-0.289063,0.700195-0.744141,0.677734
			c-0.363281-0.018555-0.574219-0.385742-0.554688-0.893555c0.03125-0.792969,0.107422-1.585938,0.080078-2.376953
			C38.167969,37.805664,37.695313,36.016602,36.861328,34.324219z"/>
	</g>
	<path style="fill-rule:evenodd;clip-rule:evenodd;fill:none;" d="M11.671875,32.169922
		c-0.060547-0.333984-0.144531-0.666016-0.175781-1.000977c-0.087891-0.94043,0.263672-1.665039,1.087891-2.157227
		c1.857422-1.104492,3.880859-1.765625,5.988281-2.152344c1.396484-0.255859,2.542969,0.396484,3.585938,1.254883
		c-1.884766,1.547852-4.029297,2.623047-6.361328,3.270508C14.453125,31.757813,13.048828,31.915039,11.671875,32.169922z"/>
	<path style="fill-rule:evenodd;clip-rule:evenodd;fill:none;" d="M27.074219,24.892578
		c3.425781,1.486328,6.183594,3.78418,8.330078,6.830078c0.09375,0.130859,0.185547,0.263672,0.277344,0.396484
		c-0.494141,0.515625-1.091797,0.935547-1.789063,0.982422c-0.494141,0.033203-1.066406-0.133789-1.505859-0.382813
		c-1.818359-1.042969-3.322266-2.478516-4.648438-4.082031C26.832031,27.541016,26.820313,26.226563,27.074219,24.892578z"/>
	<g>
		<path style="fill-rule:evenodd;clip-rule:evenodd;fill:#88AB3E;" d="M23.359375,27.0625
			c-0.400391,0.350586-0.800781,0.701172-1.201172,1.051758c-1.042969-0.858398-2.189453-1.510742-3.585938-1.254883
			c-2.107422,0.386719-4.130859,1.047852-5.988281,2.152344c-0.824219,0.492188-1.175781,1.216797-1.087891,2.157227
			c0.03125,0.334961,0.115234,0.666992,0.175781,1.000977c-0.787109,0.003906-1.574219,0.008789-2.361328,0.013672
			c-0.583984-0.552734-1.123047-1.168945-1.765625-1.642578c-1.064453-0.788086-2.197266-1.484375-3.302734-2.220703
			c-1.925781-1.283203-3.320313-2.961426-3.898438-5.247559C0.236328,22.644043,0.115234,22.217285,0,21.789551
			c0-0.874512,0-1.750488,0-2.626465c0.033203-0.08252,0.080078-0.161621,0.097656-0.248535
			c0.15625-0.757813,0.265625-1.529785,0.466797-2.275879c0.941406-3.47168,2.716797-6.489258,5.136719-9.123047
			C9.335938,3.559082,13.787109,1.07959,19.128906,0.26709C19.628906,0.190918,20.125,0.088867,20.621094,0
			c1.298828,0,2.59375,0,3.890625,0c0.378906,0.202637,0.820313,0.352539,0.607422,0.944336
			c-0.1875,0.532715-0.650391,0.800781-1.251953,0.744141c-1.78125-0.168457-3.519531,0.098633-5.238281,0.549805
			c-2.894531,0.76123-5.589844,1.945313-7.947266,3.819336C9.800781,6.757813,9.033203,7.571289,8.59375,8.637695
			c-0.431641,1.050781-0.351563,2.095703,0.416016,2.913574c1.587891,1.688477,3.529297,2.766602,5.917969,2.625488
			c0.789063-0.047363,1.603516-0.38916,2.320313-0.762207c1.255859-0.654297,2.320313-1.587891,3.289063-2.62207
			c0.380859-0.392578,0.761719-0.784668,1.144531-1.177246c1.304688-1.39209,2.597656-2.796387,3.921875-4.171875
			c0.966797-1.005371,2.017578-1.918945,3.259766-2.575684c0.369141-0.195313,0.763672-0.34668,1.158203-0.486816
			c0.363281-0.129883,0.6875-0.038574,0.855469,0.331055c0.179688,0.395508-0.060547,0.662598-0.365234,0.844727
			c-0.623047,0.371094-1.285156,0.681641-1.894531,1.073242c-1.873047,1.20166-3.330078,2.803223-4.457031,4.713379
			c-0.300781,0.568848-0.599609,1.138184-0.900391,1.70752c-0.095703,0.185547-0.203125,0.367676-0.283203,0.55957
			c-0.949219,2.290527-1.486328,4.679199-1.523438,7.155273c-0.017578,1.121094,0.152344,2.245605,0.236328,3.369141
			c0.103516,0.532715,0.207031,1.066406,0.3125,1.599121C22.453125,24.843262,22.90625,25.953125,23.359375,27.0625z"/>
		<path style="fill-rule:evenodd;clip-rule:evenodd;fill:#88AB3E;" d="M12.736328,34.725586
			c0.136719,0.306641,0.261719,0.618164,0.416016,0.917969c0.84375,1.635742,1.6875,3.270508,2.542969,4.898438
			c0.078125,0.150391,0.226563,0.262695,0.347656,0.387695c0.466797,0.487305,0.988281,0.932617,1.392578,1.466797
			c0.412109,0.545898,0.289063,1.104492-0.244141,1.541016c-0.765625,0.62793-1.677734,0.827148-2.634766,0.77832
			c-0.607422-0.029297-0.873047-0.354492-0.828125-0.963867c0.033203-0.412109,0.09375-0.849609,0.259766-1.222656
			c0.400391-0.888672,0.222656-1.714844-0.107422-2.564453c-0.685547-1.768555-1.533203-3.452148-2.548828-5.052734
			c-0.15625-0.245117-0.298828-0.49707-0.447266-0.746094c0.591797,0.158203,1.183594,0.318359,1.775391,0.476563
			c0.029297,0.030273,0.056641,0.060547,0.085938,0.089844L12.736328,34.725586z"/>
	</g>
	<path style="fill-rule:evenodd;clip-rule:evenodd;fill:none;" d="M22.001953,23.733887
		c1.181641,0.199707,2.363281,0.398926,3.546875,0.597168c-0.605469,1.010742-1.285156,1.959961-2.189453,2.731445
		C22.90625,25.953125,22.453125,24.843262,22.001953,23.733887z"/>
	<path style="fill-rule:evenodd;clip-rule:evenodd;fill:none;" d="M12.746094,34.732422
		c-0.029297-0.029297-0.056641-0.05957-0.085938-0.089844C12.689453,34.672852,12.716797,34.703125,12.746094,34.732422z"/>
	<path style="fill-rule:evenodd;clip-rule:evenodd;fill:none;" d="M23.259766,11.050781
		c0.416016,0.124512,0.845703,0.223145,1.25,0.379395c0.996094,0.385742,1.501953,1.097656,1.474609,2.200684
		c-0.041016,1.518066-0.332031,2.98877-0.765625,4.431641c-0.226563,0.753418-0.451172,1.534668-0.841797,2.208984
		c-0.585938,1.007813-1.585938,1.535156-2.6875,1.863281c-0.083984-1.123535-0.253906-2.248047-0.236328-3.369141
		c0.037109-2.476074,0.574219-4.864746,1.523438-7.155273C23.056641,11.418457,23.164063,11.236328,23.259766,11.050781z"/>
</g>
<g>
</g>
<g>
</g>
<g>
</g>
<g>
</g>
<g>
</g>
<g>
</g>
</svg>
