<?xml version="1.0" encoding="utf-8"?>
<!-- Generator: Adobe Illustrator 16.0.0, SVG Export Plug-In . SVG Version: 6.00 Build 0)  -->
<!DOCTYPE svg PUBLIC "-//W3C//DTD SVG 1.1//EN" "http://www.w3.org/Graphics/SVG/1.1/DTD/svg11.dtd">
<svg version="1.1" id="Layer_1" xmlns="http://www.w3.org/2000/svg" xmlns:xlink="http://www.w3.org/1999/xlink" x="0px" y="0px"
	 width="58.410156px" height="50px" viewBox="0 0 58.410156 50" style="enable-background:new 0 0 58.410156 50;"
	 xml:space="preserve">
<g id="Physiome">
	
		<linearGradient id="path10_1_" gradientUnits="userSpaceOnUse" x1="152.5" y1="-140.035645" x2="195.001877" y2="-126.227264" gradientTransform="matrix(1 0 0 -1 -157.523438 -108.338867)">
		<stop  offset="0" style="stop-color:#FFFFFF"/>
		<stop  offset="1" style="stop-color:#010101"/>
	</linearGradient>
	<path id="path10" style="fill:url(#path10_1_);" d="M40.206055,18.356934l-0.289063,0.665527c0,0-4.010742,0.209473-7.875,0.728027
		c-5.780762,0.776367-10.840332,1.963867-14.086914,2.969238c-2.884766,0.894043-5.676758,1.86084-7.513672,2.731934
		c-1.836914,0.870605-4.750977,2.565918-5.843262,3.499512c-1.092773,0.933594-2.45459,2.582031-2.45459,2.582031
		l-0.237793,0.078125c0,0,0.392578-1.117188,2.94043-3.246094c1.541016-1.287109,4.117188-2.713379,6.647949-3.895508
		c3.260742-1.522949,7.221191-2.660156,10.134766-3.42041s6.374023-1.40918,9.842773-1.900391
		C34.939453,18.658203,40.206055,18.356934,40.206055,18.356934L40.206055,18.356934z"/>
	<path id="path12" style="fill:#CB2026;" d="M4.129395,30.019531c1.542969-1.089844,3.258301-1.923828,5.000977-2.640625
		c3.577637-1.474121,7.359863-2.414063,11.129395-3.248535c4.209473-0.931641,8.485352-1.518066,12.774414-1.921387
		c1.310547-0.123047,2.62207-0.242676,3.936523-0.3125c0.158203-0.008301,1.444336-0.043945,1.50293-0.083496
		c0,0,0.408203-0.478516,0.566406-0.700684c0.158203-0.22168,0.435547-0.759766,0.435547-0.759766
		c-0.3125,0.017578-0.625,0.038086-0.935547,0.057129c-2.777344,0.171875-5.544922,0.465332-8.303711,0.82959
		c-3.337402,0.44043-6.67334,0.96582-9.958008,1.706055c-2.688477,0.605957-5.349121,1.351074-7.940918,2.290527
		c-2.48584,0.900879-4.907715,1.992676-7.111328,3.467285C3.16748,30.082031,2.01709,31.46875,2.01709,31.46875
		s0.45166-0.078125,0.657227-0.277344C3.117188,30.763672,3.626465,30.375,4.129395,30.019531L4.129395,30.019531z"/>
	
		<linearGradient id="path19_1_" gradientUnits="userSpaceOnUse" x1="159.876953" y1="-151.727539" x2="165.324493" y2="-144.738724" gradientTransform="matrix(1 0 0 -1 -157.523438 -108.338867)">
		<stop  offset="0" style="stop-color:#FFFFFF"/>
		<stop  offset="1" style="stop-color:#010101"/>
	</linearGradient>
	<path id="path19" style="fill:url(#path19_1_);" d="M11.217285,44.613281c0,0-0.397949,0.033203-0.728516-0.150391
		c-0.360352-0.203125-0.65332-0.603516-0.771973-0.835938c-0.104004-0.205078-0.435547-0.914063-0.565918-1.865234
		c-0.101563-0.738281-0.30127-2.976563-0.364258-3.585938c-0.063477-0.609375-0.174316-1.355469-0.348633-1.6875
		c-0.173828-0.332031-0.475098-0.59375-0.680664-0.679688c-0.206055-0.087891-0.815918-0.087891-1.243164,0.039063
		c-0.427734,0.126953-1.734375,0.513672-2.280273,0.697266c-0.546387,0.181641-1.67627,0.515625-2.016602,0.541016
		c-0.34082,0.023438-0.93457-0.005859-1.198242-0.105469c-0.42627-0.162109-0.744141-0.642578-0.839355-0.896484
		c-0.094727-0.251953-0.063477-0.720703-0.047363-1.021484c0.015625-0.300781,0.158203-0.894531,0.300781-1.322266
		s0.388184-0.957031,0.681152-1.353516c0.29248-0.396484,0.712402-0.822266,1.068848-1.052734s0.850098-0.472656,1.282715-0.523438
		c0.345703-0.039063,0.878906-0.039063,1.116211,0.025391c0.237793,0.0625,0.475098,0.181641,0.728516,0.410156
		c0.253418,0.230469,0.499023,0.769531,0.499023,0.769531s-0.483887-0.599609-0.791992-0.712891
		c-0.467285-0.171875-0.902344-0.150391-1.250977-0.087891c-0.348145,0.064453-1.290527,0.570313-1.702148,0.974609
		s-0.93457,1.083984-1.171875,1.630859c-0.237793,0.546875-0.419922,0.847656-0.467285,1.417969
		c-0.047363,0.568359,0.071289,1.099609,0.150391,1.21875s0.306152,0.269531,0.538574,0.300781
		c0.127441,0.017578,0.657227,0.007813,0.96582-0.054688c0.308594-0.064453,0.910645-0.310547,1.393555-0.5
		s1.029297-0.490234,1.615234-0.673828c0.585938-0.181641,1.41748-0.371094,1.718262-0.394531s0.807617-0.007813,1.092773,0.0625
		c0.285156,0.072266,0.633301,0.292969,0.744141,0.435547s0.48291,0.585938,0.585938,1.037109s0.33252,1.363281,0.411621,1.972656
		s0.198242,2.453125,0.237793,2.960938c0.039551,0.505859,0.189941,1.353516,0.269043,1.623047s0.134766,0.494141,0.304688,0.740234
		c0.141113,0.203125,0.309082,0.388672,0.407715,0.470703C10.980469,44.539063,11.217285,44.613281,11.217285,44.613281
		L11.217285,44.613281z"/>
	
		<linearGradient id="path26_1_" gradientUnits="userSpaceOnUse" x1="170.574219" y1="-156.869629" x2="175.674942" y2="-144.248138" gradientTransform="matrix(1 0 0 -1 -157.523438 -108.338867)">
		<stop  offset="0" style="stop-color:#FFFFFF"/>
		<stop  offset="1" style="stop-color:#010101"/>
	</linearGradient>
	<path id="path26" style="fill:url(#path26_1_);" d="M19.921387,35.464844c-0.179199,0.009766-0.532715,0.132813-0.717773,0.238281
		c-0.158203,0.089844-0.866699,0.761719-1.551758,2.134766v-1.195313l-0.010742-0.296875l-0.633301-0.326172v3.306641
		c-0.226563,0.574219-0.422852,1.134766-0.612305,1.785156v-4.964844l-0.625488,0.587891l0.013184,6.306641
		c-0.112793,0.324219-0.208984,0.582031-0.269043,0.722656c-0.065918,0.150391-0.137695,0.345703-0.216797,0.542969v-6.333984
		l-0.654297,1.636719v5.626953c-0.129395,0.105469-0.243164,0.191406-0.243164,0.191406s0.288574-0.017578,0.470215-0.044922
		c0.18457-0.025391,0.487305-0.222656,0.70166-0.414063c0.30127-0.265625,0.839844-1.328125,1.180176-2.279297
		c0.345703-0.96875,0.380859-0.982422,0.725586-2.003906c0.533203-1.578125,1.207031-3.173828,1.446289-3.621094
		c0.237793-0.443359,0.65625-0.978516,0.802246-1.140625c0.237793-0.263672,0.644043-0.400391,0.644043-0.400391
		S20.101074,35.455078,19.921387,35.464844L19.921387,35.464844z M13.50293,44.78125l0.084473,0.316406l0.496094,0.328125v-4.160156
		l-0.580566,1.044922V44.78125L13.50293,44.78125z"/>
	
		<linearGradient id="path33_1_" gradientUnits="userSpaceOnUse" x1="168.466797" y1="-155.836914" x2="172.805801" y2="-145.100266" gradientTransform="matrix(1 0 0 -1 -157.523438 -108.338867)">
		<stop  offset="0" style="stop-color:#FFFFFF"/>
		<stop  offset="1" style="stop-color:#010101"/>
	</linearGradient>
	<path id="path33" style="fill:url(#path33_1_);" d="M16.427246,36.132813c0,0-0.40625-0.007813-0.638672,0.123047
		C15.596191,36.365234,15.202637,36.720703,15.012695,37c-0.132813,0.197266-0.763184,1.318359-0.929199,1.816406
		s-0.839355,2.582031-0.997559,3.048828s-0.715332,1.826172-0.881348,2.072266
		c-0.166504,0.244141-0.314453,0.40625-0.456543,0.501953c-0.142578,0.09375-0.530762,0.173828-0.530762,0.173828
		s0.443359,0.068359,0.760254-0.052734c0.20166-0.078125,0.601563-0.431641,0.839355-0.794922
		c0.237305-0.365234,0.945313-1.564453,1.229492-2.236328c0.290527-0.685547,0.575684-1.638672,0.939941-2.611328
		c0.364258-0.974609,0.437988-1.138672,0.643555-1.542969c0.206055-0.402344,0.388184-0.730469,0.480469-0.880859
		C16.179199,36.382813,16.427246,36.132813,16.427246,36.132813L16.427246,36.132813z"/>
	<path id="path35" style="fill:#CB2026;" d="M1.626465,34.689453c0.258301-0.390625,0.869629-1.076172,1.256348-1.404297
		c0.173828-0.148438,0.63916-0.398438,0.817871-0.4375c0.116211-0.027344,0.570313-0.123047,0.717773-0.101563
		C4.631836,32.777344,4.888184,32.820313,5.088867,33s0.506836,0.716797,0.506836,0.716797S5.469238,33.242188,5.342285,33.0625
		c-0.401855-0.568359-0.898926-0.541016-1.034668-0.552734C3.875,32.466797,3.29834,32.535156,2.834961,32.724609
		c-0.606934,0.248047-1.572754,1.171875-1.931641,1.732422c-0.251465,0.392578-0.702148,1.171875-0.833984,1.810547
		c-0.068359,0.328125-0.138184,1.349609,0.064453,2.009766c0.040039-0.367188,0.122559-0.808594,0.20459-1.054688
		C0.452148,36.880859,1.186523,35.353516,1.626465,34.689453L1.626465,34.689453z"/>
	<path id="path37_1_" style="fill:none;" d="M30.87793,36.396484v2.634766c0.094727-0.345703,0.24707-0.861328,0.418945-1.423828
		C31.142578,37.158203,30.998047,36.740234,30.87793,36.396484z"/>
	<path id="path39_1_" style="fill:none;" d="M30.022461,34.599609c-0.231445-0.373047-0.458008-0.671875-0.641602-0.861328
		c0.003906,0.019531,0.008789,0.039063,0.008789,0.058594c0,0.207031,0,9.074219,0,11.363281
		c0.086914-0.353516,0.352539-1.451172,0.632813-2.613281V34.599609z"/>
	<path id="path41_1_" style="fill:none;" d="M27.955566,34.269531v13.933594c0.138672-0.142578,0.268066-0.308594,0.364258-0.494141
		c0.035645-0.070313,0.098145-0.199219,0.175293-0.361328c-0.013672-0.025391-0.024414-0.052734-0.024414-0.082031
		c0-0.158203,0-13.927734,0-13.927734s-0.327637,0.341797-0.443848,0.675781
		C28.016113,34.044922,27.990723,34.136719,27.955566,34.269531L27.955566,34.269531z"/>
	<path id="path43" style="fill:none;" d="M26.962891,38.341797c-0.03125,0.171875-0.19043,0.869141-0.393066,1.736328v8.345703
		c0.032715,0.037109,0.062988,0.066406,0.087402,0.083984c0.170898,0.130859,0.36377,0.269531,0.451172,0.330078V37.691406
		C27.035645,38,26.982422,38.236328,26.962891,38.341797z"/>
	<path id="path45" style="fill:none;" d="M25.132324,45.472656c0.174805,0.519531,0.352539,1.017578,0.447754,1.308594
		c0.035156,0.107422,0.094238,0.240234,0.166504,0.380859v-3.626953c-0.123047,0.501953-0.211426,0.855469-0.234863,0.923828
		C25.398926,44.794922,25.272461,45.138672,25.132324,45.472656z"/>
	<path id="path47" style="fill:#CB2026;" d="M21.64502,47.574219c-0.213867-0.238281-0.316895-0.357422-0.506836-0.759766
		c-0.189941-0.404297-0.33252-0.800781-0.522461-1.576172s-0.324707-1.472656-0.427734-2.296875
		c-0.102539-0.822266-0.237305-2.414063-0.475098-3.800781c-0.237305-1.384766-0.597656-2.193359-0.918457-2.660156
		c-0.299316-0.435547-0.617676-0.703125-0.942383-0.783203c-0.272949-0.068359-0.569824-0.042969-0.787598,0.007813
		c-0.312988,0.074219-0.637207,0.427734-0.637207,0.427734s0.197754-0.021484,0.324707-0.023438
		c0.169922-0.003906,0.451172,0.082031,0.601563,0.208984s0.403809,0.566406,0.67334,1.238281
		c0.269043,0.673828,0.458984,2.083984,0.601563,3.214844c0.142578,1.132813,0.302734,2.146484,0.401367,2.806641
		c0.173828,1.166016,0.48291,2.123047,0.749512,2.712891c0.274414,0.607422,0.885254,1.386719,1.371094,1.603516
		c0.485352,0.216797,1.062012,0.228516,1.062012,0.228516S21.858887,47.810547,21.64502,47.574219L21.64502,47.574219z"/>
	<path id="path49_1_" style="fill:#CB2026;" d="M13.724609,44.955078c-0.153809-0.197266-0.312988-0.539063-0.427734-0.800781
		c-0.131836-0.300781-0.416992-1.335938-0.512207-1.742188c-0.094727-0.408203-0.502441-2.269531-0.597656-2.701172
		c-0.094727-0.431641-0.360352-1.441406-0.534668-1.904297c-0.173828-0.462891-0.609375-1.28125-0.783691-1.46875
		c-0.171387-0.183594-0.409668-0.396484-0.649414-0.451172c-0.205566-0.046875-0.538086-0.03125-0.696777,0.007813
		c-0.187012,0.046875-0.427246,0.199219-0.427246,0.199219l0.103027,0.244141c0,0,0.047363-0.009766,0.150391-0.017578
		s0.337891,0.046875,0.546387,0.167969c0.197266,0.115234,0.306152,0.248047,0.554199,0.619141
		c0.208496,0.310547,0.324707,0.726563,0.499023,1.265625c0.173828,0.539063,0.458984,1.939453,0.648926,2.890625
		c0.19043,0.949219,0.649414,2.548828,0.818359,2.962891c0.137207,0.337891,0.480469,0.960938,0.828613,1.193359
		c0.252441,0.167969,0.478027,0.203125,0.723145,0.195313c0.245605-0.007813,0.433105-0.1875,0.433105-0.1875
		s-0.137207-0.044922-0.243164-0.091797C14.049316,45.287109,13.851563,45.119141,13.724609,44.955078L13.724609,44.955078z"/>
	<path id="path51_1_" style="fill:#CB2026;" d="M6.968262,37.095703c-0.496582,0.226563-1.055664,0.544922-1.525879,0.775391
		c-0.462402,0.228516-1.130371,0.59375-1.48291,0.755859C3.420898,38.875,2.280762,39.349609,1.958496,39.371094
		c-0.202637,0.013672-0.648926,0.068359-0.870605-0.005859s-0.464844-0.189453-0.82373-0.78125
		c-0.052734-0.085938-0.095215-0.191406-0.130371-0.306641C0.109375,38.5,0.100586,38.697266,0.116211,38.806641
		c0.03418,0.232422,0.253906,0.582031,0.395996,0.679688c0.227051,0.158203,0.638672,0.248047,0.997559,0.248047
		s0.75-0.083984,1.467773-0.273438s2.850098-1.234375,3.430664-1.519531s1.953125-1.289063,1.953125-1.289063l-0.147949-0.201172
		C8.213867,36.451172,7.265625,36.958984,6.968262,37.095703L6.968262,37.095703z"/>
	
		<linearGradient id="path58_1_" gradientUnits="userSpaceOnUse" x1="183.951172" y1="-162.611328" x2="191.23468" y2="-141.710861" gradientTransform="matrix(1 0 0 -1 -157.523438 -108.338867)">
		<stop  offset="0" style="stop-color:#FFFFFF"/>
		<stop  offset="1" style="stop-color:#010101"/>
	</linearGradient>
	<path id="path58" style="fill:url(#path58_1_);" d="M30.87793,39.03125c-0.030273,0.107422-0.054688,0.199219-0.071289,0.271484
		c-0.104492,0.427734-0.455078,1.878906-0.78418,3.244141c-0.280273,1.162109-0.545898,2.259766-0.633789,2.613281
		c-0.006836,0.03125-0.013672,0.056641-0.017578,0.076172c-0.100586,0.398438-0.589844,1.5-0.875977,2.111328
		c-0.077637,0.162109-0.139648,0.291016-0.175781,0.361328c-0.095703,0.185547-0.225586,0.351563-0.364258,0.494141
		c-0.387695,0.404297-0.847168,0.634766-0.847168,0.634766s0.013672,0.003906,0.035645,0.009766
		c0.120605,0.029297,0.53125,0.119141,0.843262,0.09375c0.369629-0.03125,0.808105-0.210938,1.088379-0.486328
		c0.15918-0.15625,0.885742-1.082031,1.224609-1.894531c0.336914-0.8125,0.883789-2.443359,1.179688-3.626953
		c0.124023-0.498047,0.388672-1.658203,0.663086-2.882813c-0.249023-0.712891-0.5625-1.625-0.845703-2.443359
		C31.125,38.169922,30.972656,38.685547,30.87793,39.03125z"/>
	
		<linearGradient id="path65_2_" gradientUnits="userSpaceOnUse" x1="183.643555" y1="-162.503906" x2="190.926956" y2="-141.60376" gradientTransform="matrix(1 0 0 -1 -157.523438 -108.338867)">
		<stop  offset="0" style="stop-color:#FFFFFF"/>
		<stop  offset="1" style="stop-color:#010101"/>
	</linearGradient>
	<path id="path65_1_" style="fill:url(#path65_2_);" d="M32.882813,36.666016c0.047852-0.230469,0.083984-0.40625,0.101563-0.501953
		c0.091797-0.509766,0.331055-1.640625,0.482422-2.177734c0.148438-0.521484,0.263672-0.828125,0.316406-0.964844
		c0.053711-0.138672,0.311523-0.617188,0.311523-0.617188s-0.568359,0.279297-0.837891,0.572266
		c-0.179688,0.197266-0.662109,0.902344-0.917969,1.46875c-0.047852,0.107422-0.132813,0.339844-0.237305,0.646484
		c0.109375,0.189453,0.213867,0.382813,0.3125,0.582031C32.555664,35.958984,32.71582,36.300781,32.882813,36.666016z"/>
	<path style="fill:#CB2026;" d="M26.569824,48.423828v-8.458984l-0.633301,1.742188l-0.189941,1.457031v3.998047
		c-0.072266-0.140625-0.131348-0.273438-0.166504-0.380859c-0.095703-0.291016-0.272949-0.789063-0.448242-1.308594
		c-0.129395-0.382813-0.258301-0.777344-0.351563-1.105469c-0.056152-0.197266-0.129395-0.488281-0.211914-0.828125
		c-0.254395-1.050781-0.596191-2.583984-0.793457-3.416016c-0.153809-0.646484-0.768066-2.628906-0.981934-3.087891
		s-0.712402-1.160156-0.897461-1.3125c-0.269043-0.220703-0.522461-0.320313-0.875977-0.332031
		c-0.348145-0.009766-0.649414,0.132813-0.649414,0.132813s0.269043,0.089844,0.55957,0.458984
		c0.243652,0.310547,0.40625,0.759766,0.59668,1.265625C21.69043,37.6875,22.062012,39.5,22.333984,40.789063
		c0.213379,1.011719,0.575195,2.96875,1.1875,4.621094c0.089355,0.240234,0.191406,0.482422,0.300781,0.720703
		c0.142578,0.308594,0.297363,0.607422,0.453613,0.878906c0.276855,0.480469,0.557129,0.871094,0.776367,1.076172
		c0.327637,0.306641,0.614746,0.541016,1.098145,0.683594c0.34082,0.101563,1.005371,0.103516,1.005371,0.103516
		s-0.010742-0.007813-0.025391-0.019531l0.013672-0.005859c-0.022461-0.005859-0.035645-0.009766-0.035645-0.009766
		c-0.087402-0.060547-0.280273-0.199219-0.451172-0.330078C26.632813,48.490234,26.603027,48.460938,26.569824,48.423828
		L26.569824,48.423828z"/>
	<path style="fill:#CB2026;" d="M54.93457,15.437988c0.042969-0.084473,0.355469,0.082031,1.519531-1.40918
		c0.441406-0.564941,1.1875-1.845215,1.410156-2.415039c0.220703-0.570313,0.542969-1.688965,0.542969-1.998047
		c0-0.308594-0.037109-0.654297-0.279297-1.07666c-0.294922-0.512695-1.388672-1.224609-1.705078-1.406738
		s-0.291016-0.163574-0.292969-0.364258c-0.003906-0.245117-0.003906-0.572754,0.054688-0.736328
		c0.101563-0.28418,0.238281-0.375,0.451172-0.522461c0.091797-0.063477,0.285156-0.108887,0.476563-0.760254
		c0.150391-0.516113,0.142578-1.595703,0.142578-2.169434c0-0.213867-0.509766-0.55957-0.634766-1.171875
		c-0.085938-0.424805-0.134766-0.807617-0.513672-1.140137c-0.380859-0.33252-1.054688-0.26123-1.283203-0.26123
		c-0.230469,0-0.419922,0.007813-0.808594,0.071289c-0.386719,0.062988-0.744141,0.229492-1.138672,0.648926
		c-0.396484,0.419922-0.597656,0.992676-0.609375,1.710449c-0.013672,0.712402,0.128906,1.454102,0.302734,1.921387
		s0.734375,1.174316,0.828125,1.309082c0.095703,0.134277,0.095703,0.126465,0.080078,0.245605
		c-0.015625,0.118652-0.189453,0.430176-0.285156,0.546387c-0.117188,0.143066-0.642578,0.213379-1.044922,0.22168
		c-0.404297,0.007813-1.179688-0.119141-1.65625-0.126953c-0.474609-0.007813-1.068359-0.103027-1.789063,0.419922
		c-0.720703,0.522461-0.990234,1.140137-1.322266,1.551758s-0.759766,0.730469-1.369141,1.599609
		c-0.59375,0.847168-0.712891,1.100586-0.943359,1.599121c-0.228516,0.499023-0.324219,0.815918-0.425781,1.108398
		c-0.103516,0.292969-0.330078,0.333008-0.845703,0.942383c-0.513672,0.609863-0.833984,1.050293-1.351563,1.552246
		c-0.357422,0.348145-0.734375,0.625488-1.160156,1.480469c-0.455078,0.910645-0.439453,1.354004-1.021484,2.644531
		c-0.404297,0.892578-0.705078,1.55957-1.085938,2.15332c-0.378906,0.59375-0.833984,0.953125-1.1875,1.449219
		c-0.3125,0.4375-0.439453,0.732422-0.600586,1.369629c-0.073242,0.286621-0.327148,1.169434-0.272461,1.262207
		c0.055664,0.091797,0.097656,0.049805,0.15625,0.039063c0.057617-0.010742,0.105469-0.083984,0.18457-0.253906
		c0.079102-0.167969,0.473633-0.976074,0.864258-1.44043s0.847656-1.03125,1.472656-1.040527
		c0.650391-0.009766,1.259766,0.924316,1.513672,0.992676c0.125,0.03418,0.224609-0.116211,0.234375-0.205566
		c0.009766-0.089844-0.208984-0.334473-0.271484-0.430176c-0.074219-0.11377-0.109375-0.330078-0.203125-0.572754
		c-0.095703-0.243164-0.201172-0.406738-0.191406-0.649414c0.011719-0.242676,0.222656-0.728516,0.433594-1.261719
		c0.210938-0.532715,0.470703-0.928711,0.681641-1.161133s0.300781-0.285156,0.791016-0.554199s1.314453-0.865723,1.890625-1.794922
		c0.574219-0.928711,0.496094-1.609863,0.585938-1.715332c0.087891-0.105957,1.503906-1.04541,2.226563-1.699707
		c0.722656-0.654785,1.224609-1.853027,1.255859-1.853027c0.033203,0,0.195313,1.583496,0.232422,2.01123
		s-0.046875,1.520508-0.089844,1.631348c-0.041016,0.11084-0.660156,0.617188-0.84375,0.85498
		c-0.185547,0.237305-0.681641,0.717773-0.871094,0.950195c-0.189453,0.231934-0.480469,0.596191-0.744141,1.377441
		s-0.242188,0.807617-0.306641,1.78418c-0.0625,0.976563,0.210938,0.950195,0.185547,1.678711
		c-0.027344,0.728516-0.75,1.842285-0.882813,2.359375c-0.130859,0.51709-0.230469,1.916992-0.285156,2.016602
		c-0.052734,0.099609-0.416016,0.263672-0.416016,0.263672c-0.339844,0.142578-0.998047,0.324219-1.345703,0.308594
		c-0.373047-0.017578-0.443359-0.371094-0.808594-0.439453c-0.234375-0.044922-0.550781,0.001953-0.769531,0.087891
		c-0.189453,0.076172-0.341797,0.199219-0.472656,0.355469c-0.417969,0.503906-0.380859,1.224609-0.705078,1.777344
		c-0.097656,0.166016-0.257813,0.298828-0.412109,0.40625c-0.333984,0.234375-0.712891,0.417969-1,0.712891
		c-0.34375,0.351563-0.591797,0.841797-0.779297,1.292969c-0.152344,0.371094-0.320313,0.666016-0.333984,1.230469
		c-0.001953,0.050781,0.466797,0.316406,0.5625,0.324219c0.130859,0.011719,0.402344-0.353516,0.484375-0.435547
		c0.207031-0.205078,0.416016-0.425781,0.671875-0.574219c0.203125-0.115234,0.435547-0.152344,0.652344-0.232422
		c0.236328-0.087891,0.455078-0.220703,0.652344-0.376953c0.371094-0.296875,0.695313-0.65625,1.085938-0.927734
		c0.199219-0.138672,0.416016-0.253906,0.640625-0.347656c0.037109-0.017578,0.416016-0.173828,0.388672-0.105469
		c-0.074219,0.179688-0.232422,0.5-0.335938,0.722656c-0.167969,0.359375-0.300781,0.824219-0.496094,1.169922
		c-0.197266,0.351563-0.476563,0.644531-0.791016,0.894531c-0.519531,0.412109-1.107422,0.691406-1.539063,1.240234
		c-0.414063,0.525391-0.910156,1.478516-1.183594,2.439453c-0.414063,1.457031-0.722656,2.607422-0.966797,3.533203
		c-0.246094,0.925781-0.546875,1.796875-0.958984,2.40625c-0.411133,0.611328-0.624023,0.810547-0.924805,1.007813
		s-0.480469,0.376953-0.609375,0.542969c-0.111328,0.142578-0.22168,0.423828-0.229492,0.675781
		c-0.005859,0.173828-0.003906,0.902344-0.138672,1.314453s-0.558594,0.666016-0.915039,1.314453
		c-0.356445,0.650391-0.317383,0.869141-0.326172,1.361328c-0.007813,0.490234,0.077148,0.826172,0.266602,1.001953
		c0.148438,0.136719,0.382813,0.105469,0.858398,0.082031c0.474609-0.023438,0.820313-0.113281,1.274414-0.751953
		c0.436523-0.613281,0.543945-1.101563,0.813477-1.796875c0.268555-0.697266,0.477539-0.871094,1.022461-1.964844
		c0.546875-1.091797,0.896484-2.121094,1.425781-3.166016c0.53125-1.044922,1.353516-1.876953,1.947266-2.636719
		s1.626953-2.009766,2.359375-3.041016c0.849609-1.193359,0.939453-2.052734,0.990234-2.113281
		c0.087891-0.105469,0.884766-0.630859,1.742188-1.513672c0.816406-0.837891,1.109375-1.517578,1.195313-1.667969
		c0.087891-0.150391,0.654297-0.568359,1.193359-1.134766c0.539063-0.564453,1.046875-1.265625,1.03125-1.265625
		s1.783203-0.208984,3.771484-0.638672c1.957031-0.423828,2.59375-0.867188,2.763672-1.146484
		c0.144531-0.238281,0.242188-0.716797,0.251953-1.098145c0.007813-0.378906-0.072266-0.696289-0.341797-1.408691
		c-0.269531-0.712891-0.648438-1.274902-1.400391-2.446777c-0.753906-1.171875-2.177734-2.494141-2.169922-2.557129
		c0.007813-0.063477,0.451172-0.831543,0.736328-1.306641S54.807617,15.683594,54.93457,15.437988L54.93457,15.437988z"/>
	<path style="fill:#CB2026;" d="M27.108398,36.931641v11.90625c0,0,0.459473-0.230469,0.847168-0.634766V33.867188
		l-0.720703,1.679688L27.108398,36.931641z"/>
	<path style="fill:#CB2026;" d="M34.923828,32.412109c0.316406,0.076172,0.714844,0.294922,1.322266,1.130859
		c0.545898,0.751953,0.958008,1.791016,1.164063,2.304688c0.260742,0.654297,0.665039,2.019531,0.665039,2.019531
		s0.308594-1.052734,0.386719-1.298828c0.080078-0.246094,0.46875-1.1875,0.46875-1.1875s-0.712891-1.425781-1.322266-2.201172
		c-0.475586-0.605469-1.045898-1.171875-1.520508-1.402344c-0.475586-0.228516-0.958008-0.181641-1.227539-0.09375
		c-0.412109,0.134766-0.759766,0.705078-0.759766,0.705078S34.503906,32.308594,34.923828,32.412109L34.923828,32.412109z"/>
	<path style="fill:#CB2026;" d="M45.129883,49.205078c-0.691406-0.763672-1.326172-2.035156-1.529297-2.416016
		c-0.253906-0.474609-1.382813-3.164063-1.509766-3.449219s-1.070313-2.808594-1.070313-2.808594
		s-0.560547,0.6875-0.792969,1.025391s-0.564453,0.927734-0.564453,0.927734s0.478516,1.273438,0.738281,1.90625
		c0.261719,0.632813,0.949219,2.046875,1.267578,2.548828c0.339844,0.539063,1.210938,1.814453,2.255859,2.408203
		c1.298828,0.738281,2.130859,0.59375,2.130859,0.59375S45.508789,49.625,45.129883,49.205078L45.129883,49.205078z"/>
	<path style="fill:#CB2026;" d="M34.820313,44.509766c0.119141-0.705078,0.744141-1.226563,0.744141-1.226563
		s-1.124023-2.929688-1.551758-3.992188c-0.300781-0.746094-0.732422-1.755859-1.129883-2.625
		c-0.166992-0.365234-0.327148-0.707031-0.46875-0.992188c-0.098633-0.199219-0.204102-0.392578-0.3125-0.582031
		c-0.477539-0.820313-1.039063-1.511719-1.548828-1.873047c-0.356445-0.269531-0.783203-0.316406-1.029297-0.316406
		c-0.688477-0.023438-1.052734,0.435547-1.052734,0.435547s0,13.769531,0,13.927734c0,0.029297,0.010742,0.056641,0.024414,0.082031
		c0.286133-0.611328,0.775391-1.712891,0.875977-2.111328c0.003906-0.019531,0.010742-0.044922,0.017578-0.074219V33.796875
		c0-0.019531-0.003906-0.039063-0.007813-0.058594c0.183594,0.189453,0.410156,0.488281,0.641602,0.861328v7.947266
		c0.329102-1.365234,0.679688-2.816406,0.78418-3.244141c0.016602-0.072266,0.041016-0.164063,0.071289-0.271484v-2.634766
		c0.119141,0.34375,0.264648,0.761719,0.418945,1.210938c0.283203,0.818359,0.59668,1.730469,0.845703,2.443359
		c0.144531,0.414063,0.267578,0.761719,0.350586,0.982422c0.308594,0.832031,0.585938,1.537109,1.076172,2.685547
		c0.491211,1.146484,1.108398,2.294922,1.100586,2.263672C34.789063,45.705078,34.741211,44.849609,34.820313,44.509766
		L34.820313,44.509766z"/>
	<path style="fill:#CB2026;" d="M37.508789,47.019531c0,0-0.256836,0.498047-0.357422,0.876953
		c-0.06543,0.244141-0.337891,0.800781-0.337891,0.800781s0.168945,0.371094,1.476563,0.919922
		c1.246094,0.521484,2.861328,0.357422,2.861328,0.357422s-1.097656-0.251953-2.238281-1.277344
		C37.977539,47.857422,37.508789,47.019531,37.508789,47.019531L37.508789,47.019531z"/>
	
		<linearGradient id="path74_1_" gradientUnits="userSpaceOnUse" x1="179.011719" y1="-161.92041" x2="185.345856" y2="-142.474533" gradientTransform="matrix(1 0 0 -1 -157.523438 -108.338867)">
		<stop  offset="0" style="stop-color:#FFFFFF"/>
		<stop  offset="1" style="stop-color:#010101"/>
	</linearGradient>
	<path id="path74" style="fill:url(#path74_1_);" d="M27.89209,33.423828c-0.296875,0.134766-0.665039,0.546875-0.886719,0.916016
		S26.139648,36.125,25.77002,37.929688c-0.369141,1.804688-0.928711,4.244141-1.07666,5.046875
		c-0.026855,0.144531-0.070313,0.339844-0.125,0.5625c0.08252,0.339844,0.155762,0.630859,0.212402,0.828125
		c0.092773,0.328125,0.22168,0.722656,0.351563,1.105469c0.140137-0.333984,0.266602-0.677734,0.379395-1.013672
		c0.023438-0.068359,0.111816-0.421875,0.234863-0.923828c0.223145-0.914063,0.560059-2.330078,0.823242-3.457031
		c0.202637-0.867188,0.361816-1.564453,0.393555-1.736328C26.98291,38.236328,27.035645,38,27.108398,37.691406
		c0.233887-0.996094,0.67041-2.753906,0.847168-3.421875c0.035156-0.132813,0.060547-0.224609,0.071289-0.255859
		c0.116211-0.333984,0.443848-0.675781,0.443848-0.675781S28.111816,33.326172,27.89209,33.423828L27.89209,33.423828z
		 M23.664063,46.554688C23.465332,47,23.151855,47.5625,22.903809,47.775391c-0.22168,0.1875-0.691406,0.347656-0.691406,0.347656
		s0.626465-0.042969,0.765625-0.080078c0.179688-0.046875,0.522461-0.242188,0.723145-0.412109
		c0.168945-0.140625,0.42334-0.431641,0.575195-0.621094c-0.15625-0.271484-0.311035-0.570313-0.454102-0.878906
		C23.759277,46.316406,23.705078,46.464844,23.664063,46.554688L23.664063,46.554688z"/>
</g>
<g>
</g>
<g>
</g>
<g>
</g>
<g>
</g>
<g>
</g>
<g>
</g>
</svg>
