<?xml version="1.0" encoding="utf-8"?>
<!-- Generator: Adobe Illustrator 16.0.0, SVG Export Plug-In . SVG Version: 6.00 Build 0)  -->
<!DOCTYPE svg PUBLIC "-//W3C//DTD SVG 1.1//EN" "http://www.w3.org/Graphics/SVG/1.1/DTD/svg11.dtd">
<svg version="1.1" id="Layer_1" xmlns="http://www.w3.org/2000/svg" xmlns:xlink="http://www.w3.org/1999/xlink" x="0px" y="0px"
	 width="49.98877px" height="50px" viewBox="0 0 49.98877 50" style="enable-background:new 0 0 49.98877 50;" xml:space="preserve"
	>
<g id="VCell">
	<g>
		<g>
			<polygon style="fill:#337D8D;stroke:#FFFFFF;stroke-width:0.791387;stroke-miterlimit:10;" points="24.974121,50.599609 
				24.974121,26.858398 -0.350098,14.987305 -0.350098,38.727539 			"/>
		</g>
	</g>
	<g>
		
			<line style="fill:none;stroke:#FFFFFF;stroke-width:0.791387;stroke-miterlimit:10;" x1="-0.350098" y1="32.791992" x2="24.974121" y2="44.663086"/>
	</g>
	<g>
		
			<line style="fill:none;stroke:#FFFFFF;stroke-width:0.791387;stroke-miterlimit:10;" x1="-0.350098" y1="26.858398" x2="24.974121" y2="38.727539"/>
	</g>
	<g>
		
			<line style="fill:none;stroke:#FFFFFF;stroke-width:0.791387;stroke-miterlimit:10;" x1="-0.350098" y1="20.922852" x2="24.974121" y2="32.791992"/>
	</g>
	<g>
		<g>
			<polygon style="fill:#2D4B52;stroke:#FFFFFF;stroke-width:0.791387;stroke-miterlimit:10;" points="24.974121,50.599609 
				24.974121,26.858398 50.298828,14.987305 50.298828,38.727539 			"/>
		</g>
	</g>
	<polygon style="fill:#4BBDD8;stroke:#FFFFFF;stroke-width:0.791387;stroke-miterlimit:10;" points="50.298828,14.987305 
		24.974121,26.858398 -0.350098,14.987305 24.974121,3.117188 	"/>
	
		<line style="fill:none;stroke:#FFFFFF;stroke-width:0.773851;stroke-miterlimit:10;" x1="24.974121" y1="26.858398" x2="24.974121" y2="50.599609"/>
	
		<line style="fill:none;stroke:#FFFFFF;stroke-width:0.773851;stroke-miterlimit:10;" x1="-0.350098" y1="14.987305" x2="-0.350098" y2="38.727539"/>
	
		<line style="fill:none;stroke:#FFFFFF;stroke-width:0.773851;stroke-miterlimit:10;" x1="5.981445" y1="17.955566" x2="5.981445" y2="41.695313"/>
	
		<line style="fill:none;stroke:#FFFFFF;stroke-width:0.773851;stroke-miterlimit:10;" x1="12.312012" y1="20.922852" x2="12.312012" y2="44.663086"/>
	
		<line style="fill:none;stroke:#FFFFFF;stroke-width:0.773851;stroke-miterlimit:10;" x1="18.643555" y1="23.891113" x2="18.643555" y2="47.632813"/>
	
		<line style="fill:none;stroke:#FFFFFF;stroke-width:0.773851;stroke-miterlimit:10;" x1="37.63623" y1="20.922852" x2="37.63623" y2="44.663086"/>
	
		<line style="fill:none;stroke:#FFFFFF;stroke-width:0.773851;stroke-miterlimit:10;" x1="43.967773" y1="17.955566" x2="43.967773" y2="41.695313"/>
	<g>
		
			<line style="fill:none;stroke:#FFFFFF;stroke-width:0.791387;stroke-miterlimit:10;" x1="50.298828" y1="32.791992" x2="24.974121" y2="44.663086"/>
	</g>
	<g>
		
			<line style="fill:none;stroke:#FFFFFF;stroke-width:0.791387;stroke-miterlimit:10;" x1="50.298828" y1="26.858398" x2="24.974121" y2="38.727539"/>
	</g>
	<g>
		
			<line style="fill:none;stroke:#FFFFFF;stroke-width:0.791387;stroke-miterlimit:10;" x1="50.298828" y1="20.922852" x2="24.974121" y2="32.791992"/>
	</g>
	<g>
		
			<line style="fill:none;stroke:#FFFFFF;stroke-width:0.791387;stroke-miterlimit:10;" x1="43.967773" y1="12.019531" x2="18.643555" y2="23.891113"/>
	</g>
	<g>
		
			<line style="fill:none;stroke:#FFFFFF;stroke-width:0.791387;stroke-miterlimit:10;" x1="37.63623" y1="9.051758" x2="12.312012" y2="20.922852"/>
	</g>
	<g>
		
			<line style="fill:none;stroke:#FFFFFF;stroke-width:0.791387;stroke-miterlimit:10;" x1="31.305176" y1="6.084961" x2="5.981445" y2="17.955566"/>
	</g>
	
		<line style="fill:none;stroke:#FFFFFF;stroke-width:0.773851;stroke-miterlimit:10;" x1="50.298828" y1="14.987305" x2="50.298828" y2="38.727539"/>
	<g>
		
			<line style="fill:none;stroke:#FFFFFF;stroke-width:0.791387;stroke-miterlimit:10;" x1="5.981445" y1="12.019531" x2="31.305176" y2="23.891113"/>
	</g>
	<g>
		
			<line style="fill:none;stroke:#FFFFFF;stroke-width:0.791387;stroke-miterlimit:10;" x1="12.312012" y1="9.051758" x2="37.63623" y2="20.922852"/>
	</g>
	<g>
		
			<line style="fill:none;stroke:#FFFFFF;stroke-width:0.791387;stroke-miterlimit:10;" x1="18.643555" y1="6.084961" x2="43.967773" y2="17.955566"/>
	</g>
	
		<line style="fill:none;stroke:#FFFFFF;stroke-width:0.773851;stroke-miterlimit:10;" x1="31.305176" y1="23.891113" x2="31.305176" y2="47.632813"/>
	<g>
		<path style="fill:#FFFFFF;stroke:#010101;stroke-width:0.791387;stroke-miterlimit:10;" d="M2.097168,0.536621h2.214844
			l0.946777,9.021973l4.398926-9.021973h2.214844L5.57959,12.465332H3.808105L2.097168,0.536621z"/>
		<path style="fill:#FFFFFF;stroke:#010101;stroke-width:0.791387;stroke-miterlimit:10;" d="M15.080078,12.565918
			c-0.631348,0-1.191406-0.142578-1.680176-0.428223s-0.900879-0.663574-1.237305-1.134277
			c-0.335938-0.470215-0.593262-1.010254-0.770996-1.621094c-0.178223-0.610352-0.267578-1.240234-0.267578-1.890137
			c0-0.548828,0.071289-1.103027,0.213867-1.663086s0.348633-1.100586,0.618652-1.621582
			c0.269531-0.520996,0.595703-1.007813,0.977539-1.461426s0.80957-0.848633,1.283203-1.18457
			c0.473145-0.335938,0.984863-0.602051,1.534668-0.79834c0.550293-0.195801,1.130371-0.293945,1.741211-0.293945
			c0.957031,0,1.73877,0.241211,2.344727,0.722656c0.605469,0.481445,1.000488,1.108887,1.183594,1.881836L19.17334,4.299805
			c-0.061035-0.335938-0.163086-0.618652-0.305176-0.848145c-0.143066-0.229492-0.313477-0.411621-0.511719-0.546387
			c-0.19873-0.134277-0.412598-0.231934-0.641602-0.293945c-0.229004-0.061523-0.456055-0.092285-0.679688-0.092285
			c-0.570313,0-1.089844,0.151367-1.558105,0.453613s-0.865234,0.688965-1.191406,1.15918
			c-0.325684,0.470703-0.577637,0.991211-0.755859,1.5625s-0.26709,1.125977-0.26709,1.663574
			c0,0.425781,0.050781,0.829102,0.152344,1.209473c0.102051,0.380859,0.249512,0.716797,0.443359,1.008301
			c0.193359,0.291016,0.429688,0.520508,0.709961,0.688477c0.279785,0.168457,0.603516,0.252441,0.970215,0.252441
			c0.223633,0,0.46582-0.033691,0.725098-0.101074c0.259766-0.067383,0.51416-0.17334,0.763672-0.319336
			c0.249512-0.14502,0.48877-0.333008,0.718262-0.5625c0.229004-0.229492,0.435059-0.506836,0.618164-0.832031l1.512207,1.092285
			c-0.244141,0.448242-0.552246,0.842773-0.923828,1.18457c-0.37207,0.341797-0.773926,0.629883-1.206543,0.865234
			c-0.433105,0.235352-0.880859,0.414551-1.344238,0.537598S15.497559,12.565918,15.080078,12.565918z"/>
		<path style="fill:#FFFFFF;stroke:#010101;stroke-width:0.791387;stroke-miterlimit:10;" d="M23.373535,0.536621h7.025879
			l-0.381836,2.032715h-4.94873l-0.549805,2.873047h4.261719l-0.366699,1.881836h-4.26123l-0.595703,3.108398h5.070801
			l-0.397461,2.032715h-7.163086L23.373535,0.536621z"/>
		<path style="fill:#FFFFFF;stroke:#010101;stroke-width:0.791387;stroke-miterlimit:10;" d="M32.506836,0.536621h2.092773
			l-1.90918,9.895996h5.177734l-0.381836,2.032715h-7.285645L32.506836,0.536621z"/>
		<path style="fill:#FFFFFF;stroke:#010101;stroke-width:0.791387;stroke-miterlimit:10;" d="M41.380859,0.536621h2.092773
			l-1.90918,9.895996h5.177734l-0.381836,2.032715h-7.285645L41.380859,0.536621z"/>
	</g>
</g>
<g>
</g>
<g>
</g>
<g>
</g>
<g>
</g>
<g>
</g>
<g>
</g>
</svg>
