<?xml version="1.0" encoding="UTF-8" standalone="no"?>
<!DOCTYPE svg PUBLIC "-//W3C//DTD SVG 1.1//EN"
 "http://www.w3.org/Graphics/SVG/1.1/DTD/svg11.dtd">
<!-- Generated by graphviz version 2.40.1 (20161225.0304)
 -->
<!-- Title: dependencies Pages: 1 -->
<svg width="997pt" height="211pt"
 viewBox="0.00 0.00 997.00 211.00" xmlns="http://www.w3.org/2000/svg" xmlns:xlink="http://www.w3.org/1999/xlink">
<g id="graph0" class="graph" transform="scale(1 1) rotate(0) translate(4 207)">
<title>dependencies</title>
<polygon fill="#ffffff" stroke="transparent" points="-4,4 -4,-207 993,-207 993,4 -4,4"/>
<text text-anchor="start" x="473.5091" y="-42.4" font-family="sans-serif" font-weight="bold" font-size="14.00" fill="#000000">Legend</text>
<polygon fill="#ffffb3" stroke="transparent" points="260.5,-10 260.5,-30 280.5,-30 280.5,-10 260.5,-10"/>
<text text-anchor="start" x="284.129" y="-15.4" font-family="sans-serif" font-size="14.00" fill="#000000"> &#160;Declarations</text>
<polygon fill="#8dd3c7" stroke="transparent" points="373.5,-10 373.5,-30 393.5,-30 393.5,-10 373.5,-10"/>
<text text-anchor="start" x="397.2251" y="-15.4" font-family="sans-serif" font-size="14.00" fill="#000000"> &#160;Module</text>
<polygon fill="#80b1d3" stroke="transparent" points="459.5,-10 459.5,-30 479.5,-30 479.5,-10 459.5,-10"/>
<text text-anchor="start" x="483.2812" y="-15.4" font-family="sans-serif" font-size="14.00" fill="#000000"> &#160;Bootstrap</text>
<polygon fill="#fdb462" stroke="transparent" points="556.5,-10 556.5,-30 576.5,-30 576.5,-10 556.5,-10"/>
<text text-anchor="start" x="580.1732" y="-15.4" font-family="sans-serif" font-size="14.00" fill="#000000"> &#160;Providers</text>
<polygon fill="#fb8072" stroke="transparent" points="652.5,-10 652.5,-30 672.5,-30 672.5,-10 652.5,-10"/>
<text text-anchor="start" x="676.2258" y="-15.4" font-family="sans-serif" font-size="14.00" fill="#000000"> &#160;Exports</text>
<g id="clust1" class="cluster">
<title>cluster_SimulationsModule</title>
<polygon fill="none" stroke="#000000" stroke-dasharray="1,5" points="8,-70 8,-195 981,-195 981,-70 8,-70"/>
</g>
<g id="clust2" class="cluster">
<title>cluster_SimulationsModule_declarations</title>
<polygon fill="none" stroke="#000000" points="453,-78 453,-130 973,-130 973,-78 453,-78"/>
</g>
<g id="clust6" class="cluster">
<title>cluster_SimulationsModule_imports</title>
<polygon fill="none" stroke="#000000" points="16,-78 16,-130 445,-130 445,-78 16,-78"/>
</g>
<!-- NewSimulationComponent -->
<g id="node1" class="node">
<title>NewSimulationComponent</title>
<polygon fill="#ffffb3" stroke="#000000" points="964.7105,-122 795.2895,-122 795.2895,-86 964.7105,-86 964.7105,-122"/>
<text text-anchor="middle" x="880" y="-99.8" font-family="Times,serif" font-size="14.00" fill="#000000">NewSimulationComponent</text>
</g>
<!-- SimulationsModule -->
<g id="node4" class="node">
<title>SimulationsModule</title>
<polygon fill="#8dd3c7" stroke="#000000" points="518.4454,-187 515.4454,-191 494.4454,-191 491.4454,-187 391.5546,-187 391.5546,-151 518.4454,-151 518.4454,-187"/>
<text text-anchor="middle" x="455" y="-164.8" font-family="Times,serif" font-size="14.00" fill="#000000">SimulationsModule</text>
</g>
<!-- NewSimulationComponent&#45;&gt;SimulationsModule -->
<g id="edge1" class="edge">
<title>NewSimulationComponent&#45;&gt;SimulationsModule</title>
<path fill="none" stroke="#000000" d="M880,-122.2843C880,-143.3211 880,-175 880,-175 880,-175 528.6268,-175 528.6268,-175"/>
<polygon fill="#000000" stroke="#000000" points="528.6268,-171.5001 518.6268,-175 528.6268,-178.5001 528.6268,-171.5001"/>
</g>
<!-- PastSimulationComponent -->
<g id="node2" class="node">
<title>PastSimulationComponent</title>
<polygon fill="#ffffb3" stroke="#000000" points="777.115,-122 610.885,-122 610.885,-86 777.115,-86 777.115,-122"/>
<text text-anchor="middle" x="694" y="-99.8" font-family="Times,serif" font-size="14.00" fill="#000000">PastSimulationComponent</text>
</g>
<!-- PastSimulationComponent&#45;&gt;SimulationsModule -->
<g id="edge2" class="edge">
<title>PastSimulationComponent&#45;&gt;SimulationsModule</title>
<path fill="none" stroke="#000000" d="M694,-122.0225C694,-139.3734 694,-163 694,-163 694,-163 528.4201,-163 528.4201,-163"/>
<polygon fill="#000000" stroke="#000000" points="528.4202,-159.5001 518.4201,-163 528.4201,-166.5001 528.4202,-159.5001"/>
</g>
<!-- SimulateComponent -->
<g id="node3" class="node">
<title>SimulateComponent</title>
<polygon fill="#ffffb3" stroke="#000000" points="592.6066,-122 461.3934,-122 461.3934,-86 592.6066,-86 592.6066,-122"/>
<text text-anchor="middle" x="527" y="-99.8" font-family="Times,serif" font-size="14.00" fill="#000000">SimulateComponent</text>
</g>
<!-- SimulateComponent&#45;&gt;SimulationsModule -->
<g id="edge3" class="edge">
<title>SimulateComponent&#45;&gt;SimulationsModule</title>
<path fill="none" stroke="#000000" d="M489.8345,-122.1061C489.8345,-122.1061 489.8345,-140.991 489.8345,-140.991"/>
<polygon fill="#000000" stroke="#000000" points="486.3346,-140.9909 489.8345,-150.991 493.3346,-140.991 486.3346,-140.9909"/>
</g>
<!-- MaterialModule -->
<g id="node5" class="node">
<title>MaterialModule</title>
<polygon fill="#8dd3c7" stroke="#000000" points="437.4706,-122 434.4706,-126 413.4706,-126 410.4706,-122 330.5294,-122 330.5294,-86 437.4706,-86 437.4706,-122"/>
<text text-anchor="middle" x="384" y="-99.8" font-family="Times,serif" font-size="14.00" fill="#000000">MaterialModule</text>
</g>
<!-- MaterialModule&#45;&gt;SimulationsModule -->
<g id="edge4" class="edge">
<title>MaterialModule&#45;&gt;SimulationsModule</title>
<path fill="none" stroke="#000000" d="M414.6315,-122.1061C414.6315,-122.1061 414.6315,-140.991 414.6315,-140.991"/>
<polygon fill="#000000" stroke="#000000" points="411.1316,-140.9909 414.6315,-150.991 418.1316,-140.991 411.1316,-140.9909"/>
</g>
<!-- SharedModule -->
<g id="node6" class="node">
<title>SharedModule</title>
<polygon fill="#8dd3c7" stroke="#000000" points="312.4231,-122 309.4231,-126 288.4231,-126 285.4231,-122 213.5769,-122 213.5769,-86 312.4231,-86 312.4231,-122"/>
<text text-anchor="middle" x="263" y="-99.8" font-family="Times,serif" font-size="14.00" fill="#000000">SharedModule</text>
</g>
<!-- SharedModule&#45;&gt;SimulationsModule -->
<g id="edge5" class="edge">
<title>SharedModule&#45;&gt;SimulationsModule</title>
<path fill="none" stroke="#000000" d="M263,-122.0225C263,-139.3734 263,-163 263,-163 263,-163 381.5999,-163 381.5999,-163"/>
<polygon fill="#000000" stroke="#000000" points="381.5999,-166.5001 391.5999,-163 381.5999,-159.5001 381.5999,-166.5001"/>
</g>
<!-- SimulationsRoutingModule -->
<g id="node7" class="node">
<title>SimulationsRoutingModule</title>
<polygon fill="#8dd3c7" stroke="#000000" points="195.563,-122 192.563,-126 171.563,-126 168.563,-122 24.437,-122 24.437,-86 195.563,-86 195.563,-122"/>
<text text-anchor="middle" x="110" y="-99.8" font-family="Times,serif" font-size="14.00" fill="#000000">SimulationsRoutingModule</text>
</g>
<!-- SimulationsRoutingModule&#45;&gt;SimulationsModule -->
<g id="edge6" class="edge">
<title>SimulationsRoutingModule&#45;&gt;SimulationsModule</title>
<path fill="none" stroke="#000000" d="M110,-122.2843C110,-143.3211 110,-175 110,-175 110,-175 381.7217,-175 381.7217,-175"/>
<polygon fill="#000000" stroke="#000000" points="381.7217,-178.5001 391.7217,-175 381.7216,-171.5001 381.7217,-178.5001"/>
</g>
</g>
</svg>
