<?xml version="1.0" encoding="UTF-8" standalone="no"?>
<!DOCTYPE svg PUBLIC "-//W3C//DTD SVG 1.1//EN"
 "http://www.w3.org/Graphics/SVG/1.1/DTD/svg11.dtd">
<!-- Generated by graphviz version 2.40.1 (20161225.0304)
 -->
<!-- Title: dependencies Pages: 1 -->
<svg width="504pt" height="211pt"
 viewBox="0.00 0.00 504.00 211.00" xmlns="http://www.w3.org/2000/svg" xmlns:xlink="http://www.w3.org/1999/xlink">
<g id="graph0" class="graph" transform="scale(1 1) rotate(0) translate(4 207)">
<title>dependencies</title>
<polygon fill="#ffffff" stroke="transparent" points="-4,4 -4,-207 500,-207 500,4 -4,4"/>
<text text-anchor="start" x="227.0091" y="-42.4" font-family="sans-serif" font-weight="bold" font-size="14.00" fill="#000000">Legend</text>
<polygon fill="#ffffb3" stroke="transparent" points="14,-10 14,-30 34,-30 34,-10 14,-10"/>
<text text-anchor="start" x="37.629" y="-15.4" font-family="sans-serif" font-size="14.00" fill="#000000"> &#160;Declarations</text>
<polygon fill="#8dd3c7" stroke="transparent" points="127,-10 127,-30 147,-30 147,-10 127,-10"/>
<text text-anchor="start" x="150.7251" y="-15.4" font-family="sans-serif" font-size="14.00" fill="#000000"> &#160;Module</text>
<polygon fill="#80b1d3" stroke="transparent" points="213,-10 213,-30 233,-30 233,-10 213,-10"/>
<text text-anchor="start" x="236.7812" y="-15.4" font-family="sans-serif" font-size="14.00" fill="#000000"> &#160;Bootstrap</text>
<polygon fill="#fdb462" stroke="transparent" points="310,-10 310,-30 330,-30 330,-10 310,-10"/>
<text text-anchor="start" x="333.6732" y="-15.4" font-family="sans-serif" font-size="14.00" fill="#000000"> &#160;Providers</text>
<polygon fill="#fb8072" stroke="transparent" points="406,-10 406,-30 426,-30 426,-10 406,-10"/>
<text text-anchor="start" x="429.7258" y="-15.4" font-family="sans-serif" font-size="14.00" fill="#000000"> &#160;Exports</text>
<g id="clust1" class="cluster">
<title>cluster_SimulationsModule</title>
<polygon fill="none" stroke="#000000" stroke-dasharray="1,5" points="25.5,-70 25.5,-195 470.5,-195 470.5,-70 25.5,-70"/>
</g>
<g id="clust3" class="cluster">
<title>cluster_SimulationsModule_imports</title>
<polygon fill="none" stroke="#000000" points="33.5,-78 33.5,-130 462.5,-130 462.5,-78 33.5,-78"/>
</g>
<!-- MaterialModule -->
<g id="node1" class="node">
<title>MaterialModule</title>
<polygon fill="#8dd3c7" stroke="#000000" points="454.9706,-122 451.9706,-126 430.9706,-126 427.9706,-122 348.0294,-122 348.0294,-86 454.9706,-86 454.9706,-122"/>
<text text-anchor="middle" x="401.5" y="-99.8" font-family="Times,serif" font-size="14.00" fill="#000000">MaterialModule</text>
</g>
<!-- SimulationsModule -->
<g id="node4" class="node">
<title>SimulationsModule</title>
<polygon fill="#8dd3c7" stroke="#000000" points="343.9454,-187 340.9454,-191 319.9454,-191 316.9454,-187 217.0546,-187 217.0546,-151 343.9454,-151 343.9454,-187"/>
<text text-anchor="middle" x="280.5" y="-164.8" font-family="Times,serif" font-size="14.00" fill="#000000">SimulationsModule</text>
</g>
<!-- MaterialModule&#45;&gt;SimulationsModule -->
<g id="edge1" class="edge">
<title>MaterialModule&#45;&gt;SimulationsModule</title>
<path fill="none" stroke="#000000" d="M348.0011,-104C341.2876,-104 336.7167,-104 336.7167,-104 336.7167,-104 336.7167,-140.8939 336.7167,-140.8939"/>
<polygon fill="#000000" stroke="#000000" points="333.2168,-140.8938 336.7167,-150.8939 340.2168,-140.8939 333.2168,-140.8938"/>
</g>
<!-- SharedModule -->
<g id="node2" class="node">
<title>SharedModule</title>
<polygon fill="#8dd3c7" stroke="#000000" points="329.9231,-122 326.9231,-126 305.9231,-126 302.9231,-122 231.0769,-122 231.0769,-86 329.9231,-86 329.9231,-122"/>
<text text-anchor="middle" x="280.5" y="-99.8" font-family="Times,serif" font-size="14.00" fill="#000000">SharedModule</text>
</g>
<!-- SharedModule&#45;&gt;SimulationsModule -->
<g id="edge2" class="edge">
<title>SharedModule&#45;&gt;SimulationsModule</title>
<path fill="none" stroke="#000000" d="M280.5,-122.1061C280.5,-122.1061 280.5,-140.991 280.5,-140.991"/>
<polygon fill="#000000" stroke="#000000" points="277.0001,-140.9909 280.5,-150.991 284.0001,-140.991 277.0001,-140.9909"/>
</g>
<!-- SimulationsRoutingModule -->
<g id="node3" class="node">
<title>SimulationsRoutingModule</title>
<polygon fill="#8dd3c7" stroke="#000000" points="213.063,-122 210.063,-126 189.063,-126 186.063,-122 41.937,-122 41.937,-86 213.063,-86 213.063,-122"/>
<text text-anchor="middle" x="127.5" y="-99.8" font-family="Times,serif" font-size="14.00" fill="#000000">SimulationsRoutingModule</text>
</g>
<!-- SimulationsRoutingModule&#45;&gt;SimulationsModule -->
<g id="edge3" class="edge">
<title>SimulationsRoutingModule&#45;&gt;SimulationsModule</title>
<path fill="none" stroke="#000000" d="M213.181,-104C219.977,-104 224.2833,-104 224.2833,-104 224.2833,-104 224.2833,-140.8939 224.2833,-140.8939"/>
<polygon fill="#000000" stroke="#000000" points="220.7834,-140.8938 224.2833,-150.8939 227.7834,-140.8939 220.7834,-140.8938"/>
</g>
</g>
</svg>
