<?xml version="1.0" encoding="UTF-8" standalone="no"?>
<!DOCTYPE svg PUBLIC "-//W3C//DTD SVG 1.1//EN"
 "http://www.w3.org/Graphics/SVG/1.1/DTD/svg11.dtd">
<!-- Generated by graphviz version 2.40.1 (20161225.0304)
 -->
<!-- Title: dependencies Pages: 1 -->
<svg width="1104pt" height="211pt"
 viewBox="0.00 0.00 1104.00 211.00" xmlns="http://www.w3.org/2000/svg" xmlns:xlink="http://www.w3.org/1999/xlink">
<g id="graph0" class="graph" transform="scale(1 1) rotate(0) translate(4 207)">
<title>dependencies</title>
<polygon fill="#ffffff" stroke="transparent" points="-4,4 -4,-207 1100,-207 1100,4 -4,4"/>
<text text-anchor="start" x="527.0091" y="-42.4" font-family="sans-serif" font-weight="bold" font-size="14.00" fill="#000000">Legend</text>
<polygon fill="#ffffb3" stroke="transparent" points="314,-10 314,-30 334,-30 334,-10 314,-10"/>
<text text-anchor="start" x="337.629" y="-15.4" font-family="sans-serif" font-size="14.00" fill="#000000"> &#160;Declarations</text>
<polygon fill="#8dd3c7" stroke="transparent" points="427,-10 427,-30 447,-30 447,-10 427,-10"/>
<text text-anchor="start" x="450.7251" y="-15.4" font-family="sans-serif" font-size="14.00" fill="#000000"> &#160;Module</text>
<polygon fill="#80b1d3" stroke="transparent" points="513,-10 513,-30 533,-30 533,-10 513,-10"/>
<text text-anchor="start" x="536.7812" y="-15.4" font-family="sans-serif" font-size="14.00" fill="#000000"> &#160;Bootstrap</text>
<polygon fill="#fdb462" stroke="transparent" points="610,-10 610,-30 630,-30 630,-10 610,-10"/>
<text text-anchor="start" x="633.6732" y="-15.4" font-family="sans-serif" font-size="14.00" fill="#000000"> &#160;Providers</text>
<polygon fill="#fb8072" stroke="transparent" points="706,-10 706,-30 726,-30 726,-10 706,-10"/>
<text text-anchor="start" x="729.7258" y="-15.4" font-family="sans-serif" font-size="14.00" fill="#000000"> &#160;Exports</text>
<g id="clust1" class="cluster">
<title>cluster_SimulateModule</title>
<polygon fill="none" stroke="#000000" stroke-dasharray="1,5" points="8,-70 8,-195 1088,-195 1088,-70 8,-70"/>
</g>
<g id="clust2" class="cluster">
<title>cluster_SimulateModule_declarations</title>
<polygon fill="none" stroke="#000000" points="435,-78 435,-130 1080,-130 1080,-78 435,-78"/>
</g>
<g id="clust7" class="cluster">
<title>cluster_SimulateModule_imports</title>
<polygon fill="none" stroke="#000000" points="16,-78 16,-130 427,-130 427,-78 16,-78"/>
</g>
<!-- DataComponent -->
<g id="node1" class="node">
<title>DataComponent</title>
<polygon fill="#ffffb3" stroke="#000000" points="1071.7591,-122 964.2409,-122 964.2409,-86 1071.7591,-86 1071.7591,-122"/>
<text text-anchor="middle" x="1018" y="-99.8" font-family="Times,serif" font-size="14.00" fill="#000000">DataComponent</text>
</g>
<!-- SimulateModule -->
<g id="node5" class="node">
<title>SimulateModule</title>
<polygon fill="#8dd3c7" stroke="#000000" points="563.8245,-187 560.8245,-191 539.8245,-191 536.8245,-187 454.1755,-187 454.1755,-151 563.8245,-151 563.8245,-187"/>
<text text-anchor="middle" x="509" y="-164.8" font-family="Times,serif" font-size="14.00" fill="#000000">SimulateModule</text>
</g>
<!-- DataComponent&#45;&gt;SimulateModule -->
<g id="edge1" class="edge">
<title>DataComponent&#45;&gt;SimulateModule</title>
<path fill="none" stroke="#000000" d="M1018,-122.2921C1018,-144.2057 1018,-178 1018,-178 1018,-178 573.9555,-178 573.9555,-178"/>
<polygon fill="#000000" stroke="#000000" points="573.9556,-174.5001 563.9555,-178 573.9555,-181.5001 573.9556,-174.5001"/>
</g>
<!-- NewSimulationComponent -->
<g id="node2" class="node">
<title>NewSimulationComponent</title>
<polygon fill="#ffffb3" stroke="#000000" points="946.7105,-122 777.2895,-122 777.2895,-86 946.7105,-86 946.7105,-122"/>
<text text-anchor="middle" x="862" y="-99.8" font-family="Times,serif" font-size="14.00" fill="#000000">NewSimulationComponent</text>
</g>
<!-- NewSimulationComponent&#45;&gt;SimulateModule -->
<g id="edge2" class="edge">
<title>NewSimulationComponent&#45;&gt;SimulateModule</title>
<path fill="none" stroke="#000000" d="M862,-122.1061C862,-141.3391 862,-169 862,-169 862,-169 573.7689,-169 573.7689,-169"/>
<polygon fill="#000000" stroke="#000000" points="573.769,-165.5001 563.7689,-169 573.7689,-172.5001 573.769,-165.5001"/>
</g>
<!-- PastSimulationComponent -->
<g id="node3" class="node">
<title>PastSimulationComponent</title>
<polygon fill="#ffffb3" stroke="#000000" points="759.115,-122 592.885,-122 592.885,-86 759.115,-86 759.115,-122"/>
<text text-anchor="middle" x="676" y="-99.8" font-family="Times,serif" font-size="14.00" fill="#000000">PastSimulationComponent</text>
</g>
<!-- PastSimulationComponent&#45;&gt;SimulateModule -->
<g id="edge3" class="edge">
<title>PastSimulationComponent&#45;&gt;SimulateModule</title>
<path fill="none" stroke="#000000" d="M676,-122.027C676,-138.3976 676,-160 676,-160 676,-160 573.682,-160 573.682,-160"/>
<polygon fill="#000000" stroke="#000000" points="573.6821,-156.5001 563.682,-160 573.682,-163.5001 573.6821,-156.5001"/>
</g>
<!-- SimulateComponent -->
<g id="node4" class="node">
<title>SimulateComponent</title>
<polygon fill="#ffffb3" stroke="#000000" points="574.6066,-122 443.3934,-122 443.3934,-86 574.6066,-86 574.6066,-122"/>
<text text-anchor="middle" x="509" y="-99.8" font-family="Times,serif" font-size="14.00" fill="#000000">SimulateComponent</text>
</g>
<!-- SimulateComponent&#45;&gt;SimulateModule -->
<g id="edge4" class="edge">
<title>SimulateComponent&#45;&gt;SimulateModule</title>
<path fill="none" stroke="#000000" d="M509,-122.1061C509,-122.1061 509,-140.991 509,-140.991"/>
<polygon fill="#000000" stroke="#000000" points="505.5001,-140.9909 509,-150.991 512.5001,-140.991 505.5001,-140.9909"/>
</g>
<!-- MaterialModule -->
<g id="node6" class="node">
<title>MaterialModule</title>
<polygon fill="#8dd3c7" stroke="#000000" points="419.4706,-122 416.4706,-126 395.4706,-126 392.4706,-122 312.5294,-122 312.5294,-86 419.4706,-86 419.4706,-122"/>
<text text-anchor="middle" x="366" y="-99.8" font-family="Times,serif" font-size="14.00" fill="#000000">MaterialModule</text>
</g>
<!-- MaterialModule&#45;&gt;SimulateModule -->
<g id="edge5" class="edge">
<title>MaterialModule&#45;&gt;SimulateModule</title>
<path fill="none" stroke="#000000" d="M366,-122.027C366,-138.3976 366,-160 366,-160 366,-160 444.1214,-160 444.1214,-160"/>
<polygon fill="#000000" stroke="#000000" points="444.1215,-163.5001 454.1214,-160 444.1214,-156.5001 444.1215,-163.5001"/>
</g>
<!-- SharedModule -->
<g id="node7" class="node">
<title>SharedModule</title>
<polygon fill="#8dd3c7" stroke="#000000" points="294.4231,-122 291.4231,-126 270.4231,-126 267.4231,-122 195.5769,-122 195.5769,-86 294.4231,-86 294.4231,-122"/>
<text text-anchor="middle" x="245" y="-99.8" font-family="Times,serif" font-size="14.00" fill="#000000">SharedModule</text>
</g>
<!-- SharedModule&#45;&gt;SimulateModule -->
<g id="edge6" class="edge">
<title>SharedModule&#45;&gt;SimulateModule</title>
<path fill="none" stroke="#000000" d="M245,-122.1061C245,-141.3391 245,-169 245,-169 245,-169 444.299,-169 444.299,-169"/>
<polygon fill="#000000" stroke="#000000" points="444.2991,-172.5001 454.299,-169 444.299,-165.5001 444.2991,-172.5001"/>
</g>
<!-- SimulateRoutingModule -->
<g id="node8" class="node">
<title>SimulateRoutingModule</title>
<polygon fill="#8dd3c7" stroke="#000000" points="178.4424,-122 175.4424,-126 154.4424,-126 151.4424,-122 23.5576,-122 23.5576,-86 178.4424,-86 178.4424,-122"/>
<text text-anchor="middle" x="101" y="-99.8" font-family="Times,serif" font-size="14.00" fill="#000000">SimulateRoutingModule</text>
</g>
<!-- SimulateRoutingModule&#45;&gt;SimulateModule -->
<g id="edge7" class="edge">
<title>SimulateRoutingModule&#45;&gt;SimulateModule</title>
<path fill="none" stroke="#000000" d="M101,-122.2921C101,-144.2057 101,-178 101,-178 101,-178 443.9753,-178 443.9753,-178"/>
<polygon fill="#000000" stroke="#000000" points="443.9753,-181.5001 453.9753,-178 443.9753,-174.5001 443.9753,-181.5001"/>
</g>
</g>
</svg>
