<?xml version="1.0" encoding="UTF-8" standalone="no"?>
<!DOCTYPE svg PUBLIC "-//W3C//DTD SVG 1.1//EN"
 "http://www.w3.org/Graphics/SVG/1.1/DTD/svg11.dtd">
<!-- Generated by graphviz version 2.40.1 (20161225.0304)
 -->
<!-- Title: dependencies Pages: 1 -->
<svg width="5813pt" height="355pt"
 viewBox="0.00 0.00 5813.00 355.00" xmlns="http://www.w3.org/2000/svg" xmlns:xlink="http://www.w3.org/1999/xlink">
<g id="graph0" class="graph" transform="scale(1 1) rotate(0) translate(4 351)">
<title>dependencies</title>
<polygon fill="#ffffff" stroke="transparent" points="-4,4 -4,-351 5809,-351 5809,4 -4,4"/>
<text text-anchor="start" x="2881.5091" y="-42.4" font-family="sans-serif" font-weight="bold" font-size="14.00" fill="#000000">Legend</text>
<polygon fill="#ffffb3" stroke="transparent" points="2668.5,-10 2668.5,-30 2688.5,-30 2688.5,-10 2668.5,-10"/>
<text text-anchor="start" x="2692.129" y="-15.4" font-family="sans-serif" font-size="14.00" fill="#000000"> &#160;Declarations</text>
<polygon fill="#8dd3c7" stroke="transparent" points="2781.5,-10 2781.5,-30 2801.5,-30 2801.5,-10 2781.5,-10"/>
<text text-anchor="start" x="2805.2251" y="-15.4" font-family="sans-serif" font-size="14.00" fill="#000000"> &#160;Module</text>
<polygon fill="#80b1d3" stroke="transparent" points="2867.5,-10 2867.5,-30 2887.5,-30 2887.5,-10 2867.5,-10"/>
<text text-anchor="start" x="2891.2812" y="-15.4" font-family="sans-serif" font-size="14.00" fill="#000000"> &#160;Bootstrap</text>
<polygon fill="#fdb462" stroke="transparent" points="2964.5,-10 2964.5,-30 2984.5,-30 2984.5,-10 2964.5,-10"/>
<text text-anchor="start" x="2988.1732" y="-15.4" font-family="sans-serif" font-size="14.00" fill="#000000"> &#160;Providers</text>
<polygon fill="#fb8072" stroke="transparent" points="3060.5,-10 3060.5,-30 3080.5,-30 3080.5,-10 3060.5,-10"/>
<text text-anchor="start" x="3084.2258" y="-15.4" font-family="sans-serif" font-size="14.00" fill="#000000"> &#160;Exports</text>
<g id="clust1" class="cluster">
<title>cluster_AppModule</title>
<polygon fill="none" stroke="#000000" stroke-dasharray="1,5" points="382,-70 382,-339 3447,-339 3447,-70 382,-70"/>
</g>
<g id="clust2" class="cluster">
<title>cluster_AppModule_declarations</title>
<polygon fill="none" stroke="#000000" points="390,-143 390,-195 2920,-195 2920,-143 390,-143"/>
</g>
<g id="clust20" class="cluster">
<title>cluster_AppModule_imports</title>
<polygon fill="none" stroke="#000000" points="3170,-78 3170,-195 3439,-195 3439,-78 3170,-78"/>
</g>
<g id="clust22" class="cluster">
<title>cluster_AppModule_bootstrap</title>
<polygon fill="none" stroke="#000000" points="2044,-279 2044,-331 2168,-331 2168,-279 2044,-279"/>
</g>
<g id="clust23" class="cluster">
<title>cluster_AppModule_providers</title>
<polygon fill="none" stroke="#000000" points="2942,-143 2942,-195 3162,-195 3162,-143 2942,-143"/>
</g>
<g id="clust36" class="cluster">
<title>cluster_SharedModule</title>
<polygon fill="none" stroke="#000000" stroke-dasharray="1,5" points="3455,-203 3455,-271 5797,-271 5797,-203 3455,-203"/>
</g>
<g id="clust37" class="cluster">
<title>cluster_SharedModule_declarations</title>
<polygon fill="none" stroke="#000000" points="4644,-211 4644,-263 5789,-263 5789,-211 4644,-211"/>
</g>
<g id="clust47" class="cluster">
<title>cluster_SharedModule_exports</title>
<polygon fill="none" stroke="#000000" points="3463,-211 3463,-263 4636,-263 4636,-211 3463,-211"/>
</g>
<g id="clust50" class="cluster">
<title>cluster_VisualizeModule</title>
<polygon fill="none" stroke="#000000" stroke-dasharray="1,5" points="8,-135 8,-263 374,-263 374,-135 8,-135"/>
</g>
<g id="clust51" class="cluster">
<title>cluster_VisualizeModule_declarations</title>
<polygon fill="none" stroke="#000000" points="198,-143 198,-195 366,-195 366,-143 198,-143"/>
</g>
<g id="clust54" class="cluster">
<title>cluster_VisualizeModule_imports</title>
<polygon fill="none" stroke="#000000" points="16,-143 16,-195 190,-195 190,-143 16,-143"/>
</g>
<!-- AboutComponent -->
<g id="node1" class="node">
<title>AboutComponent</title>
<polygon fill="#ffffb3" stroke="#000000" points="2912.3301,-187 2795.6699,-187 2795.6699,-151 2912.3301,-151 2912.3301,-187"/>
<text text-anchor="middle" x="2854" y="-164.8" font-family="Times,serif" font-size="14.00" fill="#000000">AboutComponent</text>
</g>
<!-- AppModule -->
<g id="node18" class="node">
<title>AppModule</title>
<polygon fill="#8dd3c7" stroke="#000000" points="2147.6571,-255 2144.6571,-259 2123.6571,-259 2120.6571,-255 2064.3429,-255 2064.3429,-219 2147.6571,-219 2147.6571,-255"/>
<text text-anchor="middle" x="2106" y="-232.8" font-family="Times,serif" font-size="14.00" fill="#000000">AppModule</text>
</g>
<!-- AboutComponent&#45;&gt;AppModule -->
<g id="edge1" class="edge">
<title>AboutComponent&#45;&gt;AppModule</title>
<path fill="none" stroke="#000000" d="M2854,-187.0267C2854,-207.7672 2854,-239 2854,-239 2854,-239 2157.8185,-239 2157.8185,-239"/>
<polygon fill="#000000" stroke="#000000" points="2157.8186,-235.5001 2147.8185,-239 2157.8185,-242.5001 2157.8186,-235.5001"/>
</g>
<!-- AlertComponent -->
<g id="node2" class="node">
<title>AlertComponent</title>
<polygon fill="#ffffb3" stroke="#000000" points="2778.0954,-187 2667.9046,-187 2667.9046,-151 2778.0954,-151 2778.0954,-187"/>
<text text-anchor="middle" x="2723" y="-164.8" font-family="Times,serif" font-size="14.00" fill="#000000">AlertComponent</text>
</g>
<!-- AlertComponent&#45;&gt;AppModule -->
<g id="edge2" class="edge">
<title>AlertComponent&#45;&gt;AppModule</title>
<path fill="none" stroke="#000000" d="M2704.6508,-187.1686C2704.6508,-206.0898 2704.6508,-233 2704.6508,-233 2704.6508,-233 2158.096,-233 2158.096,-233"/>
<polygon fill="#000000" stroke="#000000" points="2158.096,-229.5001 2148.096,-233 2158.0959,-236.5001 2158.096,-229.5001"/>
</g>
<!-- AlertComponent&#45;&gt;AppModule -->
<g id="edge3" class="edge">
<title>AlertComponent&#45;&gt;AppModule</title>
<path fill="none" stroke="#000000" d="M2741.3492,-187.308C2741.3492,-207.1455 2741.3492,-236 2741.3492,-236 2741.3492,-236 2157.687,-236 2157.687,-236"/>
<polygon fill="#000000" stroke="#000000" points="2157.6871,-232.5001 2147.687,-236 2157.687,-239.5001 2157.6871,-232.5001"/>
</g>
<!-- AppComponent -->
<g id="node3" class="node">
<title>AppComponent</title>
<polygon fill="#ffffb3" stroke="#000000" points="2649.9399,-187 2544.0601,-187 2544.0601,-151 2649.9399,-151 2649.9399,-187"/>
<text text-anchor="middle" x="2597" y="-164.8" font-family="Times,serif" font-size="14.00" fill="#000000">AppComponent</text>
</g>
<!-- AppComponent&#45;&gt;AppModule -->
<g id="edge4" class="edge">
<title>AppComponent&#45;&gt;AppModule</title>
<path fill="none" stroke="#000000" d="M2597,-187.002C2597,-204.6754 2597,-229 2597,-229 2597,-229 2157.8624,-229 2157.8624,-229"/>
<polygon fill="#000000" stroke="#000000" points="2157.8624,-225.5001 2147.8624,-229 2157.8623,-232.5001 2157.8624,-225.5001"/>
</g>
<!-- CallbackComponent -->
<g id="node4" class="node">
<title>CallbackComponent</title>
<polygon fill="#ffffb3" stroke="#000000" points="2526.594,-187 2395.406,-187 2395.406,-151 2526.594,-151 2526.594,-187"/>
<text text-anchor="middle" x="2461" y="-164.8" font-family="Times,serif" font-size="14.00" fill="#000000">CallbackComponent</text>
</g>
<!-- CallbackComponent&#45;&gt;AppModule -->
<g id="edge5" class="edge">
<title>CallbackComponent&#45;&gt;AppModule</title>
<path fill="none" stroke="#000000" d="M2461,-187.0352C2461,-203.7344 2461,-226 2461,-226 2461,-226 2157.7669,-226 2157.7669,-226"/>
<polygon fill="#000000" stroke="#000000" points="2157.767,-222.5001 2147.7669,-226 2157.7669,-229.5001 2157.767,-222.5001"/>
</g>
<!-- DataComponent -->
<g id="node5" class="node">
<title>DataComponent</title>
<polygon fill="#ffffb3" stroke="#000000" points="2377.7591,-187 2270.2409,-187 2270.2409,-151 2377.7591,-151 2377.7591,-187"/>
<text text-anchor="middle" x="2324" y="-164.8" font-family="Times,serif" font-size="14.00" fill="#000000">DataComponent</text>
</g>
<!-- DataComponent&#45;&gt;AppModule -->
<g id="edge6" class="edge">
<title>DataComponent&#45;&gt;AppModule</title>
<path fill="none" stroke="#000000" d="M2324,-187.2819C2324,-202.9478 2324,-223 2324,-223 2324,-223 2157.7747,-223 2157.7747,-223"/>
<polygon fill="#000000" stroke="#000000" points="2157.7747,-219.5001 2147.7747,-223 2157.7746,-226.5001 2157.7747,-219.5001"/>
</g>
<!-- DataTableComponent -->
<g id="node6" class="node">
<title>DataTableComponent</title>
<polygon fill="#ffffb3" stroke="#000000" points="2251.6317,-187 2112.3683,-187 2112.3683,-151 2251.6317,-151 2251.6317,-187"/>
<text text-anchor="middle" x="2182" y="-164.8" font-family="Times,serif" font-size="14.00" fill="#000000">DataTableComponent</text>
</g>
<!-- DataTableComponent&#45;&gt;AppModule -->
<g id="edge7" class="edge">
<title>DataTableComponent&#45;&gt;AppModule</title>
<path fill="none" stroke="#000000" d="M2130.0063,-187.2228C2130.0063,-187.2228 2130.0063,-208.7269 2130.0063,-208.7269"/>
<polygon fill="#000000" stroke="#000000" points="2126.5064,-208.7269 2130.0063,-218.7269 2133.5064,-208.727 2126.5064,-208.7269"/>
</g>
<!-- FileEditComponent -->
<g id="node7" class="node">
<title>FileEditComponent</title>
<polygon fill="#ffffb3" stroke="#000000" points="2094.4454,-187 1967.5546,-187 1967.5546,-151 2094.4454,-151 2094.4454,-187"/>
<text text-anchor="middle" x="2031" y="-164.8" font-family="Times,serif" font-size="14.00" fill="#000000">FileEditComponent</text>
</g>
<!-- FileEditComponent&#45;&gt;AppModule -->
<g id="edge8" class="edge">
<title>FileEditComponent&#45;&gt;AppModule</title>
<path fill="none" stroke="#000000" d="M2079.197,-187.2228C2079.197,-187.2228 2079.197,-208.7269 2079.197,-208.7269"/>
<polygon fill="#000000" stroke="#000000" points="2075.6971,-208.7269 2079.197,-218.7269 2082.6971,-208.727 2075.6971,-208.7269"/>
</g>
<!-- FileTableComponent -->
<g id="node8" class="node">
<title>FileTableComponent</title>
<polygon fill="#ffffb3" stroke="#000000" points="1949.4832,-187 1814.5168,-187 1814.5168,-151 1949.4832,-151 1949.4832,-187"/>
<text text-anchor="middle" x="1882" y="-164.8" font-family="Times,serif" font-size="14.00" fill="#000000">FileTableComponent</text>
</g>
<!-- FileTableComponent&#45;&gt;AppModule -->
<g id="edge9" class="edge">
<title>FileTableComponent&#45;&gt;AppModule</title>
<path fill="none" stroke="#000000" d="M1882,-187.2396C1882,-202.5706 1882,-222 1882,-222 1882,-222 2054.1301,-222 2054.1301,-222"/>
<polygon fill="#000000" stroke="#000000" points="2054.1301,-225.5001 2064.1301,-222 2054.13,-218.5001 2054.1301,-225.5001"/>
</g>
<!-- FourComponent -->
<g id="node9" class="node">
<title>FourComponent</title>
<polygon fill="#ffffb3" stroke="#000000" points="1796.7758,-187 1689.2242,-187 1689.2242,-151 1796.7758,-151 1796.7758,-187"/>
<text text-anchor="middle" x="1743" y="-164.8" font-family="Times,serif" font-size="14.00" fill="#000000">FourComponent</text>
</g>
<!-- FourComponent&#45;&gt;AppModule -->
<g id="edge10" class="edge">
<title>FourComponent&#45;&gt;AppModule</title>
<path fill="none" stroke="#000000" d="M1743,-187.027C1743,-203.3976 1743,-225 1743,-225 1743,-225 2054.0047,-225 2054.0047,-225"/>
<polygon fill="#000000" stroke="#000000" points="2054.0047,-228.5001 2064.0047,-225 2054.0046,-221.5001 2054.0047,-228.5001"/>
</g>
<!-- HomeComponent -->
<g id="node10" class="node">
<title>HomeComponent</title>
<polygon fill="#ffffb3" stroke="#000000" points="1670.5451,-187 1555.4549,-187 1555.4549,-151 1670.5451,-151 1670.5451,-187"/>
<text text-anchor="middle" x="1613" y="-164.8" font-family="Times,serif" font-size="14.00" fill="#000000">HomeComponent</text>
</g>
<!-- HomeComponent&#45;&gt;AppModule -->
<g id="edge11" class="edge">
<title>HomeComponent&#45;&gt;AppModule</title>
<path fill="none" stroke="#000000" d="M1613,-187.0225C1613,-204.3734 1613,-228 1613,-228 1613,-228 2053.9671,-228 2053.9671,-228"/>
<polygon fill="#000000" stroke="#000000" points="2053.9671,-231.5001 2063.9671,-228 2053.9671,-224.5001 2053.9671,-231.5001"/>
</g>
<!-- NewSimulationComponent -->
<g id="node11" class="node">
<title>NewSimulationComponent</title>
<polygon fill="#ffffb3" stroke="#000000" points="1537.7105,-187 1368.2895,-187 1368.2895,-151 1537.7105,-151 1537.7105,-187"/>
<text text-anchor="middle" x="1453" y="-164.8" font-family="Times,serif" font-size="14.00" fill="#000000">NewSimulationComponent</text>
</g>
<!-- NewSimulationComponent&#45;&gt;AppModule -->
<g id="edge12" class="edge">
<title>NewSimulationComponent&#45;&gt;AppModule</title>
<path fill="none" stroke="#000000" d="M1453,-187.2667C1453,-205.5552 1453,-231 1453,-231 1453,-231 2054.1586,-231 2054.1586,-231"/>
<polygon fill="#000000" stroke="#000000" points="2054.1586,-234.5001 2064.1586,-231 2054.1585,-227.5001 2054.1586,-234.5001"/>
</g>
<!-- PastSimulationComponent -->
<g id="node12" class="node">
<title>PastSimulationComponent</title>
<polygon fill="#ffffb3" stroke="#000000" points="1350.115,-187 1183.885,-187 1183.885,-151 1350.115,-151 1350.115,-187"/>
<text text-anchor="middle" x="1267" y="-164.8" font-family="Times,serif" font-size="14.00" fill="#000000">PastSimulationComponent</text>
</g>
<!-- PastSimulationComponent&#45;&gt;AppModule -->
<g id="edge13" class="edge">
<title>PastSimulationComponent&#45;&gt;AppModule</title>
<path fill="none" stroke="#000000" d="M1267,-187.1061C1267,-206.3391 1267,-234 1267,-234 1267,-234 2054.1068,-234 2054.1068,-234"/>
<polygon fill="#000000" stroke="#000000" points="2054.1068,-237.5001 2064.1068,-234 2054.1068,-230.5001 2054.1068,-237.5001"/>
</g>
<!-- ProfileComponent -->
<g id="node13" class="node">
<title>ProfileComponent</title>
<polygon fill="#ffffb3" stroke="#000000" points="1165.9328,-187 1046.0672,-187 1046.0672,-151 1165.9328,-151 1165.9328,-187"/>
<text text-anchor="middle" x="1106" y="-164.8" font-family="Times,serif" font-size="14.00" fill="#000000">ProfileComponent</text>
</g>
<!-- ProfileComponent&#45;&gt;AppModule -->
<g id="edge14" class="edge">
<title>ProfileComponent&#45;&gt;AppModule</title>
<path fill="none" stroke="#000000" d="M1106,-187.2228C1106,-207.3652 1106,-237 1106,-237 1106,-237 2054.3044,-237 2054.3044,-237"/>
<polygon fill="#000000" stroke="#000000" points="2054.3044,-240.5001 2064.3044,-237 2054.3044,-233.5001 2054.3044,-240.5001"/>
</g>
<!-- SimulateComponent -->
<g id="node14" class="node">
<title>SimulateComponent</title>
<polygon fill="#ffffb3" stroke="#000000" points="1028.6066,-187 897.3934,-187 897.3934,-151 1028.6066,-151 1028.6066,-187"/>
<text text-anchor="middle" x="963" y="-164.8" font-family="Times,serif" font-size="14.00" fill="#000000">SimulateComponent</text>
</g>
<!-- SimulateComponent&#45;&gt;AppModule -->
<g id="edge15" class="edge">
<title>SimulateComponent&#45;&gt;AppModule</title>
<path fill="none" stroke="#000000" d="M963,-187.2843C963,-208.3211 963,-240 963,-240 963,-240 2054.3052,-240 2054.3052,-240"/>
<polygon fill="#000000" stroke="#000000" points="2054.3053,-243.5001 2064.3052,-240 2054.3052,-236.5001 2054.3053,-243.5001"/>
</g>
<!-- UnderConstructionComponent -->
<g id="node15" class="node">
<title>UnderConstructionComponent</title>
<polygon fill="#ffffb3" stroke="#000000" points="879.1427,-187 690.8573,-187 690.8573,-151 879.1427,-151 879.1427,-187"/>
<text text-anchor="middle" x="785" y="-164.8" font-family="Times,serif" font-size="14.00" fill="#000000">UnderConstructionComponent</text>
</g>
<!-- UnderConstructionComponent&#45;&gt;AppModule -->
<g id="edge16" class="edge">
<title>UnderConstructionComponent&#45;&gt;AppModule</title>
<path fill="none" stroke="#000000" d="M785,-187.2921C785,-209.2057 785,-243 785,-243 785,-243 2054.2833,-243 2054.2833,-243"/>
<polygon fill="#000000" stroke="#000000" points="2054.2833,-246.5001 2064.2833,-243 2054.2833,-239.5001 2054.2833,-246.5001"/>
</g>
<!-- UploadComponent -->
<g id="node16" class="node">
<title>UploadComponent</title>
<polygon fill="#ffffb3" stroke="#000000" points="672.045,-187 549.955,-187 549.955,-151 672.045,-151 672.045,-187"/>
<text text-anchor="middle" x="611" y="-164.8" font-family="Times,serif" font-size="14.00" fill="#000000">UploadComponent</text>
</g>
<!-- UploadComponent&#45;&gt;AppModule -->
<g id="edge17" class="edge">
<title>UploadComponent&#45;&gt;AppModule</title>
<path fill="none" stroke="#000000" d="M611,-187.2479C611,-210.0179 611,-246 611,-246 611,-246 2054.0611,-246 2054.0611,-246"/>
<polygon fill="#000000" stroke="#000000" points="2054.0612,-249.5001 2064.0611,-246 2054.0611,-242.5001 2054.0612,-249.5001"/>
</g>
<!-- VisualizeComponent -->
<g id="node17" class="node">
<title>VisualizeComponent</title>
<polygon fill="#ffffb3" stroke="#000000" points="532.1993,-187 397.8007,-187 397.8007,-151 532.1993,-151 532.1993,-187"/>
<text text-anchor="middle" x="465" y="-164.8" font-family="Times,serif" font-size="14.00" fill="#000000">VisualizeComponent</text>
</g>
<!-- VisualizeComponent&#45;&gt;AppModule -->
<g id="edge18" class="edge">
<title>VisualizeComponent&#45;&gt;AppModule</title>
<path fill="none" stroke="#000000" d="M487.3665,-187.1532C487.3665,-210.7566 487.3665,-249 487.3665,-249 487.3665,-249 2053.9507,-249 2053.9507,-249"/>
<polygon fill="#000000" stroke="#000000" points="2053.9507,-252.5001 2063.9507,-249 2053.9506,-245.5001 2053.9507,-252.5001"/>
</g>
<!-- VisualizeModule -->
<g id="node41" class="node">
<title>VisualizeModule</title>
<polygon fill="#8dd3c7" stroke="#000000" points="352.4174,-255 349.4174,-259 328.4174,-259 325.4174,-255 239.5826,-255 239.5826,-219 352.4174,-219 352.4174,-255"/>
<text text-anchor="middle" x="296" y="-232.8" font-family="Times,serif" font-size="14.00" fill="#000000">VisualizeModule</text>
</g>
<!-- VisualizeComponent&#45;&gt;VisualizeModule -->
<g id="edge42" class="edge">
<title>VisualizeComponent&#45;&gt;VisualizeModule</title>
<path fill="none" stroke="#000000" d="M442.6335,-187.0098C442.6335,-211.4207 442.6335,-252 442.6335,-252 442.6335,-252 362.273,-252 362.273,-252"/>
<polygon fill="#000000" stroke="#000000" points="362.273,-248.5001 352.273,-252 362.2729,-255.5001 362.273,-248.5001"/>
</g>
<!-- AppComponent  -->
<g id="node22" class="node">
<title>AppComponent </title>
<polygon fill="#80b1d3" stroke="#000000" points="2160.439,-323 2051.561,-323 2051.561,-287 2160.439,-287 2160.439,-323"/>
<text text-anchor="middle" x="2106" y="-300.8" font-family="Times,serif" font-size="14.00" fill="#000000">AppComponent </text>
</g>
<!-- AppModule&#45;&gt;AppComponent  -->
<g id="edge22" class="edge">
<title>AppModule&#45;&gt;AppComponent </title>
<path fill="none" stroke="#000000" stroke-dasharray="1,5" d="M2106,-255.2228C2106,-255.2228 2106,-276.7269 2106,-276.7269"/>
<polygon fill="#000000" stroke="#000000" points="2102.5001,-276.7269 2106,-286.7269 2109.5001,-276.727 2102.5001,-276.7269"/>
</g>
<!-- AppRoutingModule -->
<g id="node19" class="node">
<title>AppRoutingModule</title>
<polygon fill="#8dd3c7" stroke="#000000" points="3306.2744,-122 3303.2744,-126 3282.2744,-126 3279.2744,-122 3177.7256,-122 3177.7256,-86 3306.2744,-86 3306.2744,-122"/>
<text text-anchor="middle" x="3242" y="-99.8" font-family="Times,serif" font-size="14.00" fill="#000000">AppRoutingModule</text>
</g>
<!-- AppRoutingModule&#45;&gt;AppModule -->
<g id="edge19" class="edge">
<title>AppRoutingModule&#45;&gt;AppModule</title>
<path fill="none" stroke="#000000" d="M3177.5105,-104C2936.6052,-104 2103.2033,-104 2103.2033,-104 2103.2033,-104 2103.2033,-208.7858 2103.2033,-208.7858"/>
<polygon fill="#000000" stroke="#000000" points="2099.7034,-208.7858 2103.2033,-218.7858 2106.7034,-208.7858 2099.7034,-208.7858"/>
</g>
<!-- MaterialModule -->
<g id="node20" class="node">
<title>MaterialModule</title>
<polygon fill="#8dd3c7" stroke="#000000" points="3431.4706,-122 3428.4706,-126 3407.4706,-126 3404.4706,-122 3324.5294,-122 3324.5294,-86 3431.4706,-86 3431.4706,-122"/>
<text text-anchor="middle" x="3378" y="-99.8" font-family="Times,serif" font-size="14.00" fill="#000000">MaterialModule</text>
</g>
<!-- MaterialModule&#45;&gt;AppModule -->
<g id="edge20" class="edge">
<title>MaterialModule&#45;&gt;AppModule</title>
<path fill="none" stroke="#000000" d="M3328.6518,-122.2733C3328.6518,-160.6253 3328.6518,-246 3328.6518,-246 3328.6518,-246 2157.7327,-246 2157.7327,-246"/>
<polygon fill="#000000" stroke="#000000" points="2157.7328,-242.5001 2147.7327,-246 2157.7327,-249.5001 2157.7328,-242.5001"/>
</g>
<!-- SharedModule -->
<g id="node21" class="node">
<title>SharedModule</title>
<polygon fill="#8dd3c7" stroke="#000000" points="3431.4231,-187 3428.4231,-191 3407.4231,-191 3404.4231,-187 3332.5769,-187 3332.5769,-151 3431.4231,-151 3431.4231,-187"/>
<text text-anchor="middle" x="3382" y="-164.8" font-family="Times,serif" font-size="14.00" fill="#000000">SharedModule</text>
</g>
<!-- MaterialModule&#45;&gt;SharedModule -->
<g id="edge32" class="edge">
<title>MaterialModule&#45;&gt;SharedModule</title>
<path fill="none" stroke="#000000" d="M3382,-122.1061C3382,-122.1061 3382,-140.991 3382,-140.991"/>
<polygon fill="#000000" stroke="#000000" points="3378.5001,-140.9909 3382,-150.991 3385.5001,-140.991 3378.5001,-140.9909"/>
</g>
<!-- SharedModule&#45;&gt;AppModule -->
<g id="edge21" class="edge">
<title>SharedModule&#45;&gt;AppModule</title>
<path fill="none" stroke="#000000" d="M3382,-187.1532C3382,-210.7566 3382,-249 3382,-249 3382,-249 2157.7294,-249 2157.7294,-249"/>
<polygon fill="#000000" stroke="#000000" points="2157.7294,-245.5001 2147.7294,-249 2157.7293,-252.5001 2157.7294,-245.5001"/>
</g>
<!-- AccountMenuComponent  -->
<g id="node32" class="node">
<title>AccountMenuComponent </title>
<polygon fill="#fb8072" stroke="#000000" points="4000.418,-255 3835.582,-255 3835.582,-219 4000.418,-219 4000.418,-255"/>
<text text-anchor="middle" x="3918" y="-232.8" font-family="Times,serif" font-size="14.00" fill="#000000">AccountMenuComponent </text>
</g>
<!-- SharedModule&#45;&gt;AccountMenuComponent  -->
<g id="edge33" class="edge">
<title>SharedModule&#45;&gt;AccountMenuComponent </title>
<path fill="none" stroke="#000000" stroke-dasharray="5,2" d="M3431.4648,-181C3564.1563,-181 3918,-181 3918,-181 3918,-181 3918,-208.973 3918,-208.973"/>
<polygon fill="#000000" stroke="#000000" points="3914.5001,-208.973 3918,-218.973 3921.5001,-208.973 3914.5001,-208.973"/>
</g>
<!-- FilterPipe  -->
<g id="node33" class="node">
<title>FilterPipe </title>
<polygon fill="#fb8072" stroke="#000000" points="3817.2179,-255 3742.7821,-255 3742.7821,-219 3817.2179,-219 3817.2179,-255"/>
<text text-anchor="middle" x="3780" y="-232.8" font-family="Times,serif" font-size="14.00" fill="#000000">FilterPipe </text>
</g>
<!-- SharedModule&#45;&gt;FilterPipe  -->
<g id="edge34" class="edge">
<title>SharedModule&#45;&gt;FilterPipe </title>
<path fill="none" stroke="#000000" stroke-dasharray="5,2" d="M3431.6022,-183C3538.2932,-183 3780,-183 3780,-183 3780,-183 3780,-208.7181 3780,-208.7181"/>
<polygon fill="#000000" stroke="#000000" points="3776.5001,-208.718 3780,-218.7181 3783.5001,-208.7181 3776.5001,-208.718"/>
</g>
<!-- FooterComponent  -->
<g id="node34" class="node">
<title>FooterComponent </title>
<polygon fill="#fb8072" stroke="#000000" points="3724.8814,-255 3603.1186,-255 3603.1186,-219 3724.8814,-219 3724.8814,-255"/>
<text text-anchor="middle" x="3664" y="-232.8" font-family="Times,serif" font-size="14.00" fill="#000000">FooterComponent </text>
</g>
<!-- SharedModule&#45;&gt;FooterComponent  -->
<g id="edge35" class="edge">
<title>SharedModule&#45;&gt;FooterComponent </title>
<path fill="none" stroke="#000000" stroke-dasharray="5,2" d="M3431.4433,-185C3512.3197,-185 3664,-185 3664,-185 3664,-185 3664,-208.8129 3664,-208.8129"/>
<polygon fill="#000000" stroke="#000000" points="3660.5001,-208.8129 3664,-218.8129 3667.5001,-208.813 3660.5001,-208.8129"/>
</g>
<!-- LogoComponent  -->
<g id="node35" class="node">
<title>LogoComponent </title>
<polygon fill="#fb8072" stroke="#000000" points="3585.3857,-255 3470.6143,-255 3470.6143,-219 3585.3857,-219 3585.3857,-255"/>
<text text-anchor="middle" x="3528" y="-232.8" font-family="Times,serif" font-size="14.00" fill="#000000">LogoComponent </text>
</g>
<!-- SharedModule&#45;&gt;LogoComponent  -->
<g id="edge36" class="edge">
<title>SharedModule&#45;&gt;LogoComponent </title>
<path fill="none" stroke="#000000" stroke-dasharray="5,2" d="M3406.6056,-187.0098C3406.6056,-211.4207 3406.6056,-252 3406.6056,-252 3406.6056,-252 3460.5023,-252 3460.5023,-252"/>
<polygon fill="#000000" stroke="#000000" points="3460.5023,-255.5001 3470.5023,-252 3460.5023,-248.5001 3460.5023,-255.5001"/>
</g>
<!-- NavIconsComponent  -->
<g id="node36" class="node">
<title>NavIconsComponent </title>
<polygon fill="#fb8072" stroke="#000000" points="4628.4742,-255 4489.5258,-255 4489.5258,-219 4628.4742,-219 4628.4742,-255"/>
<text text-anchor="middle" x="4559" y="-232.8" font-family="Times,serif" font-size="14.00" fill="#000000">NavIconsComponent </text>
</g>
<!-- SharedModule&#45;&gt;NavIconsComponent  -->
<g id="edge37" class="edge">
<title>SharedModule&#45;&gt;NavIconsComponent </title>
<path fill="none" stroke="#000000" stroke-dasharray="5,2" d="M3431.4485,-172C3654.8396,-172 4559,-172 4559,-172 4559,-172 4559,-208.8939 4559,-208.8939"/>
<polygon fill="#000000" stroke="#000000" points="4555.5001,-208.8938 4559,-218.8939 4562.5001,-208.8939 4555.5001,-208.8938"/>
</g>
<!-- NavigationComponent  -->
<g id="node37" class="node">
<title>NavigationComponent </title>
<polygon fill="#fb8072" stroke="#000000" points="4471.54,-255 4324.46,-255 4324.46,-219 4471.54,-219 4471.54,-255"/>
<text text-anchor="middle" x="4398" y="-232.8" font-family="Times,serif" font-size="14.00" fill="#000000">NavigationComponent </text>
</g>
<!-- SharedModule&#45;&gt;NavigationComponent  -->
<g id="edge38" class="edge">
<title>SharedModule&#45;&gt;NavigationComponent </title>
<path fill="none" stroke="#000000" stroke-dasharray="5,2" d="M3431.3471,-174C3634.8138,-174 4398,-174 4398,-174 4398,-174 4398,-208.7778 4398,-208.7778"/>
<polygon fill="#000000" stroke="#000000" points="4394.5001,-208.7778 4398,-218.7778 4401.5001,-208.7778 4394.5001,-208.7778"/>
</g>
<!-- SearchBarComponent  -->
<g id="node38" class="node">
<title>SearchBarComponent </title>
<polygon fill="#fb8072" stroke="#000000" points="4306.6313,-255 4163.3687,-255 4163.3687,-219 4306.6313,-219 4306.6313,-255"/>
<text text-anchor="middle" x="4235" y="-232.8" font-family="Times,serif" font-size="14.00" fill="#000000">SearchBarComponent </text>
</g>
<!-- SharedModule&#45;&gt;SearchBarComponent  -->
<g id="edge39" class="edge">
<title>SharedModule&#45;&gt;SearchBarComponent </title>
<path fill="none" stroke="#000000" stroke-dasharray="5,2" d="M3431.2358,-176C3612.8878,-176 4235,-176 4235,-176 4235,-176 4235,-208.698 4235,-208.698"/>
<polygon fill="#000000" stroke="#000000" points="4231.5001,-208.698 4235,-218.698 4238.5001,-208.698 4231.5001,-208.698"/>
</g>
<!-- SidebarComponent  -->
<g id="node39" class="node">
<title>SidebarComponent </title>
<polygon fill="#fb8072" stroke="#000000" points="4145.596,-255 4018.404,-255 4018.404,-219 4145.596,-219 4145.596,-255"/>
<text text-anchor="middle" x="4082" y="-232.8" font-family="Times,serif" font-size="14.00" fill="#000000">SidebarComponent </text>
</g>
<!-- SharedModule&#45;&gt;SidebarComponent  -->
<g id="edge40" class="edge">
<title>SharedModule&#45;&gt;SidebarComponent </title>
<path fill="none" stroke="#000000" stroke-dasharray="5,2" d="M3431.2226,-178C3590.5575,-178 4082,-178 4082,-178 4082,-178 4082,-208.9775 4082,-208.9775"/>
<polygon fill="#000000" stroke="#000000" points="4078.5001,-208.9774 4082,-218.9775 4085.5001,-208.9775 4078.5001,-208.9774"/>
</g>
<!-- SharedModule&#45;&gt;VisualizeModule -->
<g id="edge43" class="edge">
<title>SharedModule&#45;&gt;VisualizeModule</title>
<path fill="none" stroke="#000000" d="M3357.3945,-187.1944C3357.3945,-195.2782 3357.3945,-203 3357.3945,-203 3357.3945,-203 314.7361,-203 314.7361,-203 314.7361,-203 314.7361,-208.8056 314.7361,-208.8056"/>
<polygon fill="#000000" stroke="#000000" points="311.2362,-208.8055 314.7361,-218.8056 318.2362,-208.8056 311.2362,-208.8055"/>
</g>
<!-- AuthInterceptorService -->
<g id="node23" class="node">
<title>AuthInterceptorService</title>
<ellipse fill="#fdb462" stroke="#000000" cx="3052" cy="-169" rx="101.8225" ry="18"/>
<text text-anchor="middle" x="3052" y="-164.8" font-family="Times,serif" font-size="14.00" fill="#000000">AuthInterceptorService</text>
</g>
<!-- AuthInterceptorService&#45;&gt;AppModule -->
<g id="edge23" class="edge">
<title>AuthInterceptorService&#45;&gt;AppModule</title>
<path fill="none" stroke="#000000" d="M3052,-187.0449C3052,-208.6623 3052,-242 3052,-242 3052,-242 2157.8691,-242 2157.8691,-242"/>
<polygon fill="#000000" stroke="#000000" points="2157.8691,-238.5001 2147.8691,-242 2157.869,-245.5001 2157.8691,-238.5001"/>
</g>
<!-- AccountMenuComponent -->
<g id="node24" class="node">
<title>AccountMenuComponent</title>
<polygon fill="#ffffb3" stroke="#000000" points="5166.9185,-255 5005.0815,-255 5005.0815,-219 5166.9185,-219 5166.9185,-255"/>
<text text-anchor="middle" x="5086" y="-232.8" font-family="Times,serif" font-size="14.00" fill="#000000">AccountMenuComponent</text>
</g>
<!-- AccountMenuComponent&#45;&gt;SharedModule -->
<g id="edge24" class="edge">
<title>AccountMenuComponent&#45;&gt;SharedModule</title>
<path fill="none" stroke="#000000" d="M5086,-218.7079C5086,-196.7943 5086,-163 5086,-163 5086,-163 3441.6162,-163 3441.6162,-163"/>
<polygon fill="#000000" stroke="#000000" points="3441.6163,-159.5001 3431.6162,-163 3441.6162,-166.5001 3441.6163,-159.5001"/>
</g>
<!-- FilterPipe -->
<g id="node25" class="node">
<title>FilterPipe</title>
<polygon fill="#ffffb3" stroke="#000000" points="4987.7177,-255 4916.2823,-255 4916.2823,-219 4987.7177,-219 4987.7177,-255"/>
<text text-anchor="middle" x="4952" y="-232.8" font-family="Times,serif" font-size="14.00" fill="#000000">FilterPipe</text>
</g>
<!-- FilterPipe&#45;&gt;SharedModule -->
<g id="edge25" class="edge">
<title>FilterPipe&#45;&gt;SharedModule</title>
<path fill="none" stroke="#000000" d="M4952,-218.8314C4952,-197.502 4952,-165 4952,-165 4952,-165 3441.58,-165 3441.58,-165"/>
<polygon fill="#000000" stroke="#000000" points="3441.5801,-161.5001 3431.58,-165 3441.58,-168.5001 3441.5801,-161.5001"/>
</g>
<!-- FooterComponent -->
<g id="node26" class="node">
<title>FooterComponent</title>
<polygon fill="#ffffb3" stroke="#000000" points="4897.8809,-255 4780.1191,-255 4780.1191,-219 4897.8809,-219 4897.8809,-255"/>
<text text-anchor="middle" x="4839" y="-232.8" font-family="Times,serif" font-size="14.00" fill="#000000">FooterComponent</text>
</g>
<!-- FooterComponent&#45;&gt;SharedModule -->
<g id="edge26" class="edge">
<title>FooterComponent&#45;&gt;SharedModule</title>
<path fill="none" stroke="#000000" d="M4839,-218.9733C4839,-198.2328 4839,-167 4839,-167 4839,-167 3441.3119,-167 3441.3119,-167"/>
<polygon fill="#000000" stroke="#000000" points="3441.3119,-163.5001 3431.3119,-167 3441.3118,-170.5001 3441.3119,-163.5001"/>
</g>
<!-- LogoComponent -->
<g id="node27" class="node">
<title>LogoComponent</title>
<polygon fill="#ffffb3" stroke="#000000" points="4762.3851,-255 4651.6149,-255 4651.6149,-219 4762.3851,-219 4762.3851,-255"/>
<text text-anchor="middle" x="4707" y="-232.8" font-family="Times,serif" font-size="14.00" fill="#000000">LogoComponent</text>
</g>
<!-- LogoComponent&#45;&gt;SharedModule -->
<g id="edge27" class="edge">
<title>LogoComponent&#45;&gt;SharedModule</title>
<path fill="none" stroke="#000000" d="M4707,-218.7772C4707,-198.6348 4707,-169 4707,-169 4707,-169 3441.5233,-169 3441.5233,-169"/>
<polygon fill="#000000" stroke="#000000" points="3441.5234,-165.5001 3431.5233,-169 3441.5233,-172.5001 3441.5234,-165.5001"/>
</g>
<!-- NavIconsComponent -->
<g id="node28" class="node">
<title>NavIconsComponent</title>
<polygon fill="#ffffb3" stroke="#000000" points="5781.4734,-255 5646.5266,-255 5646.5266,-219 5781.4734,-219 5781.4734,-255"/>
<text text-anchor="middle" x="5714" y="-232.8" font-family="Times,serif" font-size="14.00" fill="#000000">NavIconsComponent</text>
</g>
<!-- NavIconsComponent&#45;&gt;SharedModule -->
<g id="edge28" class="edge">
<title>NavIconsComponent&#45;&gt;SharedModule</title>
<path fill="none" stroke="#000000" d="M5714,-218.9902C5714,-194.5793 5714,-154 5714,-154 5714,-154 3441.2452,-154 3441.2452,-154"/>
<polygon fill="#000000" stroke="#000000" points="3441.2452,-150.5001 3431.2452,-154 3441.2452,-157.5001 3441.2452,-150.5001"/>
</g>
<!-- NavigationComponent -->
<g id="node29" class="node">
<title>NavigationComponent</title>
<polygon fill="#ffffb3" stroke="#000000" points="5628.5407,-255 5485.4593,-255 5485.4593,-219 5628.5407,-219 5628.5407,-255"/>
<text text-anchor="middle" x="5557" y="-232.8" font-family="Times,serif" font-size="14.00" fill="#000000">NavigationComponent</text>
</g>
<!-- NavigationComponent&#45;&gt;SharedModule -->
<g id="edge29" class="edge">
<title>NavigationComponent&#45;&gt;SharedModule</title>
<path fill="none" stroke="#000000" d="M5557,-218.6198C5557,-194.7215 5557,-156 5557,-156 5557,-156 3441.2543,-156 3441.2543,-156"/>
<polygon fill="#000000" stroke="#000000" points="3441.2543,-152.5001 3431.2543,-156 3441.2542,-159.5001 3441.2543,-152.5001"/>
</g>
<!-- SearchBarComponent -->
<g id="node30" class="node">
<title>SearchBarComponent</title>
<polygon fill="#ffffb3" stroke="#000000" points="5466.6317,-255 5327.3683,-255 5327.3683,-219 5466.6317,-219 5466.6317,-255"/>
<text text-anchor="middle" x="5397" y="-232.8" font-family="Times,serif" font-size="14.00" fill="#000000">SearchBarComponent</text>
</g>
<!-- SearchBarComponent&#45;&gt;SharedModule -->
<g id="edge30" class="edge">
<title>SearchBarComponent&#45;&gt;SharedModule</title>
<path fill="none" stroke="#000000" d="M5397,-218.6772C5397,-195.3398 5397,-158 5397,-158 5397,-158 3441.3089,-158 3441.3089,-158"/>
<polygon fill="#000000" stroke="#000000" points="3441.3089,-154.5001 3431.3089,-158 3441.3088,-161.5001 3441.3089,-154.5001"/>
</g>
<!-- SidebarComponent -->
<g id="node31" class="node">
<title>SidebarComponent</title>
<polygon fill="#ffffb3" stroke="#000000" points="5309.0954,-255 5184.9046,-255 5184.9046,-219 5309.0954,-219 5309.0954,-255"/>
<text text-anchor="middle" x="5247" y="-232.8" font-family="Times,serif" font-size="14.00" fill="#000000">SidebarComponent</text>
</g>
<!-- SidebarComponent&#45;&gt;SharedModule -->
<g id="edge31" class="edge">
<title>SidebarComponent&#45;&gt;SharedModule</title>
<path fill="none" stroke="#000000" d="M5247,-218.7521C5247,-195.9821 5247,-160 5247,-160 5247,-160 3441.4038,-160 3441.4038,-160"/>
<polygon fill="#000000" stroke="#000000" points="3441.4039,-156.5001 3431.4038,-160 3441.4038,-163.5001 3441.4039,-156.5001"/>
</g>
<!-- VegaViewerComponent -->
<g id="node40" class="node">
<title>VegaViewerComponent</title>
<polygon fill="#ffffb3" stroke="#000000" points="358.0618,-187 205.9382,-187 205.9382,-151 358.0618,-151 358.0618,-187"/>
<text text-anchor="middle" x="282" y="-164.8" font-family="Times,serif" font-size="14.00" fill="#000000">VegaViewerComponent</text>
</g>
<!-- VegaViewerComponent&#45;&gt;VisualizeModule -->
<g id="edge41" class="edge">
<title>VegaViewerComponent&#45;&gt;VisualizeModule</title>
<path fill="none" stroke="#000000" d="M277.2639,-187.2228C277.2639,-187.2228 277.2639,-208.7269 277.2639,-208.7269"/>
<polygon fill="#000000" stroke="#000000" points="273.764,-208.7269 277.2639,-218.7269 280.764,-208.727 273.764,-208.7269"/>
</g>
<!-- VisualizeRoutingModule -->
<g id="node42" class="node">
<title>VisualizeRoutingModule</title>
<polygon fill="#8dd3c7" stroke="#000000" points="181.5351,-187 178.5351,-191 157.5351,-191 154.5351,-187 24.4649,-187 24.4649,-151 181.5351,-151 181.5351,-187"/>
<text text-anchor="middle" x="103" y="-164.8" font-family="Times,serif" font-size="14.00" fill="#000000">VisualizeRoutingModule</text>
</g>
<!-- VisualizeRoutingModule&#45;&gt;VisualizeModule -->
<g id="edge44" class="edge">
<title>VisualizeRoutingModule&#45;&gt;VisualizeModule</title>
<path fill="none" stroke="#000000" d="M103,-187.2228C103,-207.3652 103,-237 103,-237 103,-237 229.6576,-237 229.6576,-237"/>
<polygon fill="#000000" stroke="#000000" points="229.6576,-240.5001 239.6576,-237 229.6575,-233.5001 229.6576,-240.5001"/>
</g>
</g>
</svg>
