<?xml version="1.0" encoding="utf-8"?>
<!-- Generator: Adobe Illustrator 16.0.0, SVG Export Plug-In . SVG Version: 6.00 Build 0)  -->
<!DOCTYPE svg PUBLIC "-//W3C//DTD SVG 1.1//EN" "http://www.w3.org/Graphics/SVG/1.1/DTD/svg11.dtd">
<svg version="1.1" id="Layer_1" xmlns="http://www.w3.org/2000/svg" xmlns:xlink="http://www.w3.org/1999/xlink" x="0px" y="0px"
	 width="151.200195px" height="100px" viewBox="0 0 151.200195 100" style="enable-background:new 0 0 151.200195 100;"
	 xml:space="preserve">
<path style="fill:#2196F3;" d="M74.305664,5.790527l0.9375,5.537109l0.368164-0.061523l0.188477,1.144531l-0.224609,0.037598
	c-0.222656,0.036621-0.275391,0.336914-0.222656,0.859863l-0.582031,0.098145l-1.265625-7.479004L74.305664,5.790527z"/>
<path style="fill:#2196F3;" d="M79.973633,6.32959l-0.262695,5.164551l0.259766,0.016113l-0.049805,1.068848l-0.166016-0.009766
	c-0.166016-0.009766-0.253906,0.250488-0.305664,0.730469l-0.428711-0.024902l0.363281-6.979004L79.973633,6.32959z"/>
<path style="fill:#2196F3;" d="M60.349609,4.430176l2.158203,2.810547l0.362305-0.278809l0.449219,0.583496l-0.229492,0.170898
	c-0.223633,0.17041-0.21582,0.39502-0.053711,0.682129l-0.585938,0.447754l-3.164063-4.105469L60.349609,4.430176z"/>
<path style="fill:#2196F3;" d="M33.181641,22.378906l5.054199,0.219727l0.029785-0.655762l1.049805,0.044434l-0.020996,0.407227
	c-0.018555,0.40918,0.22998,0.609375,0.700684,0.691406l-0.047852,1.068359l-6.83252-0.30127L33.181641,22.378906z"/>
<path style="fill:#2196F3;" d="M76.871094,0.561523L77.24707,4.08252l0.34668-0.038086l0.081055,0.727539l-0.211914,0.023926
	c-0.220703,0.022461-0.293945,0.212402-0.293945,0.544434l-0.55957,0.05957l-0.507813-4.755859L76.871094,0.561523z"/>
<path style="fill:#2196F3;" d="M87.624023,2.382324l-0.726563,2.909668l0.15332,0.716309L86.90332,6.609863l-0.193359-0.050781
	c-0.200195-0.046387-0.328125,0.07666-0.424805,0.34082l-0.508789-0.125977l1.083008-4.576172L87.624023,2.382324z"/>
<path style="fill:#2196F3;" d="M84.266602,7.781738l-1.024414,4.308105l0.255859,0.058105l-0.209961,0.89209l-0.15332-0.038086
	c-0.163086-0.036133-0.285156,0.163574-0.408203,0.55957l-0.410156-0.099121l1.37793-5.81543L84.266602,7.781738z"/>
<path style="fill:#2196F3;" d="M108.545898,25.36084l-2.426758,1.665527l0.148438,0.214844l-0.505859,0.347656l-0.091797-0.131836
	c-0.087891-0.135742-0.251953-0.113281-0.493164,0.018555l-0.242188-0.34668l3.277344-2.252441L108.545898,25.36084z"/>
<path style="fill:#2196F3;" d="M47.292969,86.386719c-1.151367-0.930664-1.114258-2.508789,0.044922-3.929688l3.925781-4.818359
	c1.169922-1.435547,2.689453-1.77832,3.84668-0.838867c1.164063,0.951172,1.125,2.501953-0.045898,3.935547l-3.922852,4.818359
	C49.983887,86.97168,48.458008,87.341797,47.292969,86.386719 M53.660156,79.408203
	c0.224609-0.276367,0.242188-0.582031-0.024414-0.798828c-0.253906-0.209961-0.561523-0.136719-0.787109,0.135742l-4.09375,5.022461
	c-0.223145,0.274414-0.244629,0.606445,0.01123,0.822266c0.266113,0.213867,0.580078,0.118164,0.799805-0.15918L53.660156,79.408203
	z"/>
<path style="fill:#2196F3;" d="M59.072266,79.220703l6.603516-10.375977l-1.479492-0.96582l1.368164-2.144531l0.916992,0.598633
	c0.915039,0.59375,1.672852,0.34375,2.429688-0.530273l2.397461,1.568359l-8.923828,14.015625L59.072266,79.220703z"/>
<path style="fill:#2196F3;" d="M73.807617,67.071289l4.552734-8.102539l-0.683594-0.396484l0.945313-1.669922l0.420898,0.244141
	c0.428711,0.246094,0.847656-0.052734,1.337891-0.775391l1.104492,0.639648l-6.15332,10.946289L73.807617,67.071289z"/>
<path style="fill:#2196F3;" d="M26.899414,52.157227l6.805664-2.709961l-0.303711-0.790039l1.40625-0.560547l0.187988,0.493164
	c0.186523,0.490234,0.621094,0.577148,1.285645,0.404297l0.489258,1.279297l-9.746094,3.899414L26.899414,52.157227z"/>
<path style="fill:#2196F3;" d="M33.615234,71.552734l7.10791-5.618164l-0.49707-0.647461l1.46582-1.161133l0.307129,0.399414
	c0.313477,0.399414,0.813965,0.297852,1.527344-0.15918l0.804688,1.044922l-9.597656,7.591797L33.615234,71.552734z"/>
<path style="fill:#2196F3;" d="M108.642578,68.383789l-3.787109-7.586914l-0.717773,0.345703l-0.783203-1.568359l0.441406-0.217773
	c0.449219-0.209961,0.459961-0.696289,0.174805-1.436523l1.161133-0.568359L110.25,67.606445L108.642578,68.383789z"/>
<path style="fill:#2196F3;" d="M115.672852,60.649414l-5.975586-4.816406l-0.426758,0.512695l-1.232422-0.995117l0.262695-0.31543
	c0.264648-0.323242,0.083008-0.714844-0.433594-1.209961l0.69043-0.832031l8.069336,6.501953L115.672852,60.649414z"/>
<path style="fill:#2196F3;" d="M125.640625,49.398438l-3.910156-0.325195l-0.068359,0.664063l-0.704102-0.056641l0.040039-0.413086
	c0.040039-0.415039-0.111328-0.616211-0.423828-0.708008l0.108398-1.076172l4.602539,0.392578L125.640625,49.398438z"/>
<path style="fill:#2196F3;" d="M118.077148,71.807617l-3.764648-4.836914l-0.607422,0.461914l-0.77832-1l0.37793-0.286133
	c0.37793-0.288086,0.359375-0.663086,0.067383-1.15918l0.985352-0.75l5.082031,6.535156L118.077148,71.807617z"/>
<path style="fill:#2196F3;" d="M57.9375,52.708008l6.766602-5.115234l-0.441406-0.595703l1.404297-1.055664l0.271484,0.371094
	c0.267578,0.367188,0.738281,0.276367,1.40918-0.145508l0.708984,0.96582l-9.143555,6.900391L57.9375,52.708008z"/>
<path style="fill:#2196F3;" d="M49.445801,34.259766L57.616211,32l-0.185547-0.717773l1.689453-0.464844l0.117188,0.441406
	c0.118164,0.44043,0.582031,0.52832,1.361328,0.387695l0.306641,1.151367l-11.041992,3.0625L49.445801,34.259766z"/>
<path style="fill:#2196F3;" d="M53.939453,15.49707l6.737305,3.620117l0.307617-0.564453l1.400391,0.749512l-0.193359,0.351074
	c-0.196289,0.348145,0.057617,0.692383,0.652344,1.083984l-0.503906,0.912598l-9.102539-4.888184L53.939453,15.49707z"/>
<path style="fill:#2196F3;" d="M60.234375,10.402832l4.692383,4.455566l0.384766-0.39502l0.96875,0.919434l-0.237305,0.245605
	c-0.236328,0.244629-0.113281,0.583984,0.289063,1.036133l-0.62207,0.638184l-6.338867-6.016602L60.234375,10.402832z"/>
<path style="fill:#2196F3;" d="M36.213379,43.004883l9.49707-2.945313l-0.325684-1.106445l1.963379-0.605469l0.204102,0.681641
	c0.203125,0.683594,0.779297,0.84375,1.696289,0.678711l0.53125,1.77832L36.94873,45.476563L36.213379,43.004883z"/>
<path style="fill:#2196F3;" d="M43.202148,15.98877l6.73291,2.232422l0.221191-0.653809l1.392578,0.462891l-0.136719,0.40332
	c-0.139648,0.401367,0.145508,0.69873,0.744141,0.972168l-0.358398,1.054688l-9.754395-3.166016L43.202148,15.98877z"/>
<path style="fill:#2196F3;" d="M71.680664,85.123047l4.713867-10.988281l-1.580078-0.689453l0.975586-2.276367l0.975586,0.428711
	c0.976563,0.428711,1.664063,0.064453,2.254883-0.892578l2.551758,1.119141l-6.364258,14.847656L71.680664,85.123047z"/>
<path style="fill:#2196F3;" d="M106.457031,83.457031l-2.326172-8.886719l-1.043945,0.269531l-0.481445-1.836914l0.646484-0.169922
	c0.644531-0.166016,0.827148-0.694336,0.710938-1.550781l1.689453-0.436523l3.142578,12.010742L106.457031,83.457031z"/>
<path style="fill:#2196F3;" d="M117.123047,36.786133l-5.37793,1.478516l0.123047,0.43457l-1.113281,0.305664l-0.074219-0.264648
	c-0.079102-0.270508-0.386719-0.321289-0.897461-0.220703l-0.196289-0.702148l7.264648-2.00293L117.123047,36.786133z"/>
<path style="fill:#2196F3;" d="M112.202148,27.763672l-3.71875,2.254883l0.129883,0.213867l-0.771484,0.463867l-0.078125-0.125977
	c-0.077148-0.130859-0.304688-0.077148-0.664063,0.114258l-0.209961-0.34082l5.022461-3.050781L112.202148,27.763672z"/>
<path style="fill:#2196F3;" d="M120.856445,32.646484l-2.84668,1.016602l0.133789,0.359375l-0.493164,0.18457l-0.085938-0.223633
	c-0.084961-0.223633-0.244141-0.279297-0.481445-0.233398l-0.21875-0.586914l3.692383-1.326172L120.856445,32.646484z"/>
<path style="fill:#2196F3;" d="M117.928711,27.817383l-2.522461,1.038086l0.147461,0.357422l-0.519531,0.212891l-0.092773-0.220703
	c-0.092773-0.220703-0.263672-0.268555-0.511719-0.207031l-0.238281-0.577148l3.40332-1.397461L117.928711,27.817383z"/>
<path style="fill:#2196F3;" d="M114.754883,23.209961l-2.625977,1.505859l0.152344,0.256836l-0.546875,0.310059L111.642578,25.125
	c-0.089844-0.158691-0.268555-0.157227-0.527344-0.043457l-0.242188-0.415039l3.548828-2.035156L114.754883,23.209961z"/>
<path style="fill:#2196F3;" d="M115.249023,31.774414l-4.756836,1.845703l0.109375,0.289063l-0.982422,0.382813l-0.070313-0.180664
	c-0.071289-0.178711-0.344727-0.165039-0.798828-0.020508l-0.18457-0.470703l6.430664-2.491211L115.249023,31.774414z"/>
<path style="fill:#2196F3;" d="M90.508789,88.286133c-2.369141-0.248047-3.75293-1.969727-3.541992-4.262695l0.727539-7.775391
	c0.223633-2.313477,1.897461-3.691406,4.261719-3.44043c2.386719,0.249023,3.751953,1.941406,3.537109,4.260742l-0.726563,7.768555
	C94.552734,87.139648,92.893555,88.53418,90.508789,88.286133 M92.442383,76.567383
	c0.043945-0.445313-0.210938-0.785156-0.755859-0.84375c-0.529297-0.056641-0.866211,0.222656-0.90625,0.667969l-0.755859,8.112305
	c-0.045898,0.438477,0.230469,0.806641,0.755859,0.866211c0.546875,0.050781,0.861328-0.253906,0.90625-0.693359
	L92.442383,76.567383z"/>
<path style="fill:#2196F3;" d="M37.000488,30.402344c0.025879-1.613281,1.128418-2.652344,2.731445-2.648438l5.426758,0.016602
	c1.617676,0.009766,2.675781,1.057617,2.647461,2.669922c-0.023438,1.626953-1.112305,2.654297-2.730957,2.648438
	l-5.424805-0.016602C38.047852,33.066406,36.974609,32.03125,37.000488,30.402344 M45.233398,30.999023
	C45.544434,31,45.762207,30.806641,45.770996,30.43457c0.003418-0.359375-0.209473-0.570313-0.520508-0.570313l-5.658203-0.016602
	c-0.312012-0.001953-0.550293,0.204102-0.553711,0.558594c-0.007324,0.378906,0.226074,0.572266,0.534668,0.572266
	L45.233398,30.999023z"/>
<path style="fill:#2196F3;" d="M39.835938,58.476563c-1.29834-2.202148-0.693848-4.507813,1.439453-5.802734l7.230469-4.375977
	c2.152832-1.301758,4.421875-0.743164,5.725586,1.462891c1.311523,2.223633,0.712891,4.500977-1.444336,5.803711l-7.225586,4.375
	C43.428711,61.234375,41.145996,60.708984,39.835938,58.476563 M51.269531,52.610352
	c0.414063-0.25293,0.544922-0.694336,0.245117-1.209961c-0.285156-0.489258-0.744629-0.594727-1.157227-0.34668l-7.541016,4.567383
	c-0.411621,0.250977-0.556641,0.723633-0.266602,1.21582c0.299805,0.509766,0.76709,0.584961,1.183594,0.332031L51.269531,52.610352
	z"/>
<path style="fill:#2196F3;" d="M48.634277,71.947266c-1.969238-1.953125-1.958008-4.549805-0.05127-6.516602l6.453125-6.648438
	c1.925781-1.976563,4.480469-2.023438,6.451172-0.070313c1.991211,1.967773,1.979492,4.535156,0.051758,6.511719l-6.455078,6.647461
	C53.179688,73.834961,50.625,73.916992,48.634277,71.947266 M59.128906,62.538086
	c0.375977-0.37793,0.392578-0.880859-0.0625-1.333008c-0.438477-0.436523-0.953125-0.423828-1.317383-0.043945l-6.734375,6.93457
	c-0.373047,0.381836-0.393066,0.920898,0.044922,1.356445c0.455078,0.451172,0.973633,0.400391,1.337891,0.018555
	L59.128906,62.538086z"/>
<path style="fill:#2196F3;" d="M65.552734,61.203125c-1.164063-1.022461-1.097656-2.641602,0.115234-4.056641l4.118164-4.804688
	c1.224609-1.433594,2.795898-1.71875,3.959961-0.701172c1.177734,1.03125,1.103516,2.631836-0.121094,4.061523l-4.111328,4.801758
	C68.300781,61.919922,66.730469,62.230469,65.552734,61.203125 M72.208008,54.270508
	c0.242188-0.276367,0.260742-0.585938-0.006836-0.828125c-0.257813-0.225586-0.576172-0.15918-0.813477,0.111328l-4.289063,5.009766
	c-0.232422,0.271484-0.262695,0.609375-0.004883,0.834961c0.275391,0.240234,0.586914,0.150391,0.823242-0.121094
	L72.208008,54.270508z"/>
<path style="fill:#2196F3;" d="M53.301758,44.853516c-0.727539-1.374023-0.179688-2.822266,1.325195-3.630859l5.087891-2.749023
	c1.518555-0.817383,3.001953-0.464844,3.723633,0.910156c0.740234,1.395508,0.193359,2.820313-1.325195,3.639648l-5.089844,2.74707
	C55.518555,46.579102,54.037109,46.25,53.301758,44.853516 M61.290039,41.171875
	c0.289063-0.160156,0.412109-0.435547,0.236328-0.756836c-0.15625-0.304688-0.456055-0.374023-0.74707-0.214844l-5.3125,2.864258
	c-0.292969,0.15918-0.414063,0.455078-0.253906,0.759766c0.164063,0.319336,0.475586,0.369141,0.768555,0.208984
	L61.290039,41.171875z"/>
<path style="fill:#2196F3;" d="M49.791016,24.970703c0.195313-1.338867,1.438477-2.05127,3.079102-1.82373l5.552734,0.772461
	c1.651367,0.23291,2.618164,1.252441,2.416016,2.589355c-0.198242,1.353516-1.425781,2.053711-3.078125,1.826172l-5.550781-0.774414
	C50.569824,27.331055,49.586426,26.322266,49.791016,24.970703 M58.148438,26.617188
	c0.318359,0.041992,0.56543-0.084961,0.612305-0.396484c0.043945-0.298828-0.152344-0.503906-0.47168-0.547852l-5.791992-0.805176
	c-0.316406-0.041992-0.581055,0.096191-0.625,0.393066c-0.047852,0.30957,0.166992,0.503418,0.486328,0.54834L58.148438,26.617188z"
	/>
<path style="fill:#2196F3;" d="M52.405273,9.385254c0.630859-0.813477,1.572266-0.93457,2.350586-0.344727l2.642578,2.010254
	c0.791016,0.599609,0.902344,1.520508,0.272461,2.333984c-0.634766,0.81543-1.557617,0.939941-2.345703,0.339844l-2.644531-2.006348
	C51.901367,11.125,51.770508,10.203613,52.405273,9.385254 M56.201172,12.719727
	c0.148438,0.114746,0.332031,0.098145,0.481445-0.088867c0.137695-0.183105,0.114258-0.367676-0.040039-0.483887l-2.75293-2.09082
	c-0.154297-0.115723-0.350586-0.097656-0.487305,0.083008c-0.145508,0.185547-0.107422,0.371582,0.043945,0.486816
	L56.201172,12.719727z"/>
<path style="fill:#2196F3;" d="M66.257813,7.237305c0.679688-0.42627,1.584961,0.019043,2.267578,1.07666l2.30957,3.590332
	c0.6875,1.068359,0.697266,2.054688,0.022461,2.480957c-0.686523,0.429199-1.578125-0.008301-2.262695-1.077148l-2.306641-3.590332
	C65.609375,8.65918,65.571289,7.666016,66.257813,7.237305 M69.523438,12.838379
	c0.138672,0.205078,0.310547,0.297852,0.467773,0.199707c0.15332-0.092285,0.149414-0.29541,0.016602-0.499023L67.59668,8.794922
	c-0.12793-0.205566-0.319336-0.304688-0.466797-0.209473c-0.15918,0.09668-0.144531,0.304688-0.005859,0.508301L69.523438,12.838379
	z"/>
<path style="fill:#2196F3;" d="M69.132813,1.138672c0.613281-0.205566,1.1875,0.164551,1.449219,0.911133l0.883789,2.523438
	c0.258789,0.750977,0.040039,1.384277-0.577148,1.592285c-0.62207,0.208984-1.182617-0.157227-1.449219-0.910156L68.55957,2.731445
	C68.300781,1.989258,68.511719,1.349121,69.132813,1.138672 M70.254883,5.045898
	C70.304688,5.1875,70.415039,5.26416,70.556641,5.21875c0.137695-0.046875,0.185547-0.174316,0.136719-0.319824l-0.926758-2.632813
	c-0.047852-0.144531-0.165039-0.225586-0.300781-0.179688c-0.140625,0.049316-0.183594,0.182617-0.130859,0.325195
	L70.254883,5.045898z"/>
<path style="fill:#2196F3;" d="M82.651367,1.246094c0.299805,0.044922,0.425781,0.591309,0.320313,1.347656l-0.358398,2.566895
	c-0.103516,0.762695-0.367188,1.240723-0.668945,1.193359c-0.310547-0.045898-0.428711-0.582031-0.320313-1.344727
	l0.350586-2.567871C82.080078,1.683594,82.34668,1.200684,82.651367,1.246094 M82.005859,5.126953
	c-0.022461,0.146484,0.00293,0.253418,0.070313,0.265625c0.068359,0.01123,0.125977-0.085938,0.140625-0.231934l0.370117-2.679688
	c0.020508-0.145996-0.003906-0.263184-0.069336-0.272461c-0.070313-0.010254-0.119141,0.095703-0.144531,0.241699
	L82.005859,5.126953z"/>
<path style="fill:#2196F3;" d="M85.68457,71.34082c-1.503906-0.370117-2.192383-1.841797-1.762695-3.657227l1.435547-6.15625
	c0.429688-1.835938,1.69043-2.813477,3.195313-2.447266c1.517578,0.370117,2.197266,1.824219,1.764648,3.65625l-1.441406,6.15625
	C88.456055,70.712891,87.200195,71.708984,85.68457,71.34082 M88.404297,62.12207
	c0.077148-0.354492-0.041992-0.644531-0.389648-0.729492c-0.334961-0.085938-0.586914,0.113281-0.673828,0.46582l-1.501953,6.421875
	c-0.078125,0.351563,0.052734,0.667969,0.384766,0.74707c0.34668,0.087891,0.591797-0.134766,0.676758-0.488281L88.404297,62.12207z
	"/>
<path style="fill:#2196F3;" d="M98.425781,71.961914c-1.541016,0.110352-2.643555-1.084961-2.795898-2.943359l-0.515625-6.300781
	c-0.150391-1.87793,0.750977-3.192383,2.293945-3.304688c1.55957-0.110352,2.646484,1.063477,2.802734,2.943359l0.507813,6.301758
	C100.868164,70.519531,99.984375,71.851563,98.425781,71.961914 M98.19043,62.354492
	c-0.027344-0.362305-0.233398-0.600586-0.588867-0.574219c-0.344727,0.023438-0.524414,0.293945-0.494141,0.648438
	l0.532227,6.576172c0.033203,0.357422,0.251953,0.613281,0.595703,0.59375c0.356445-0.029297,0.522461-0.3125,0.490234-0.673828
	L98.19043,62.354492z"/>
<path style="fill:#2196F3;" d="M119.963867,53.089844c-0.524414,1.083984-1.81543,1.333008-3.21875,0.679688l-4.753906-2.233398
	c-1.417969-0.666992-2.019531-1.804688-1.499023-2.888672c0.525391-1.098633,1.802734-1.349609,3.216797-0.679688l4.757813,2.228516
	C119.870117,50.853516,120.488281,51.992188,119.963867,53.089844 M112.926758,49.319336
	c-0.276367-0.125977-0.52832-0.085938-0.649414,0.166992c-0.116211,0.238281,0.006836,0.466797,0.28125,0.59082l4.958008,2.333984
	c0.274414,0.123047,0.545898,0.080078,0.661133-0.15918c0.118164-0.251953-0.022461-0.475586-0.293945-0.608398
	L112.926758,49.319336z"/>
<path style="fill:#2196F3;" d="M120.43457,43.467773c-0.056641,1.138672-1.094727,1.842773-2.576172,1.78418l-5.010742-0.194336
	c-1.494141-0.05957-2.449219-0.835938-2.394531-1.973633c0.056641-1.157227,1.083984-1.847656,2.577148-1.789063l5.012695,0.191406
	C119.520508,41.543945,120.493164,42.3125,120.43457,43.467773 M112.84375,42.771484
	c-0.289063-0.013672-0.49707,0.120117-0.507813,0.378906c-0.010742,0.256836,0.181641,0.415039,0.467773,0.426758l5.229492,0.198242
	c0.285156,0.008789,0.507813-0.126953,0.519531-0.382813c0.014648-0.261719-0.197266-0.40625-0.482422-0.418945L112.84375,42.771484
	z"/>
<path style="fill:#2196F3;" d="M124.902344,60.179688c-0.47168,0.928711-1.329102,1.261719-2.133789,0.861328l-2.743164-1.353516
	c-0.813477-0.40332-1.050781-1.271484-0.579102-2.202148c0.475586-0.941406,1.318359-1.264648,2.134766-0.866211l2.738281,1.358398
	C125.128906,58.374023,125.376953,59.243164,124.902344,60.179688 M120.905273,57.791992
	c-0.154297-0.072266-0.323242-0.014648-0.431641,0.198242c-0.103516,0.207031-0.054688,0.382813,0.100586,0.461914l2.858398,1.40918
	c0.15625,0.077148,0.333984,0.018555,0.441406-0.19043c0.107422-0.217773,0.044922-0.384766-0.110352-0.46582L120.905273,57.791992z
	"/>
<path style="fill:#2196F3;" d="M26.794922,38.422852c-0.27832-1.3125,0.42627-2.360352,1.729004-2.651367l4.412109-0.976563
	c1.314453-0.291016,2.365723,0.368164,2.643066,1.685547c0.282227,1.327148-0.416016,2.360352-1.729004,2.651367l-4.40918,0.978516
	C28.138184,40.397461,27.076172,39.75293,26.794922,38.422852 M33.594238,37.402344
	c0.251953-0.055664,0.392578-0.254883,0.32959-0.558594c-0.05957-0.291992-0.274902-0.423828-0.526855-0.365234l-4.597656,1.018555
	c-0.257324,0.057617-0.408691,0.268555-0.350586,0.5625c0.068359,0.300781,0.291016,0.416992,0.543457,0.361328L33.594238,37.402344
	z"/>
<path style="fill:#2196F3;" d="M123.076172,39.042969c-0.024414,0.582031-0.370117,0.941406-0.856445,0.920898l-1.648438-0.076172
	c-0.490234-0.017578-0.801758-0.408203-0.776367-0.990234c0.023438-0.584961,0.364258-0.935547,0.857422-0.917969l1.644531,0.079102
	C122.783203,38.075195,123.098633,38.459961,123.076172,39.042969 M120.582031,38.733398
	c-0.095703-0.005859-0.163086,0.058594-0.169922,0.198242c-0.003906,0.124023,0.058594,0.203125,0.152344,0.206055
	l1.720703,0.077148c0.088867,0.005859,0.164063-0.070313,0.171875-0.195313c0.003906-0.132813-0.063477-0.209961-0.157227-0.212891
	L120.582031,38.733398z"/>
<path style="fill:#8fcaf9;" d="M97.443359,22.488281c10.816406,9.057617,14.405273,22.589844,8.015625,30.222656
	c-6.395508,7.638672-20.347656,6.489258-31.166016-2.566406c-10.821289-9.055664-14.40625-22.587891-8.012695-30.226074
	C72.669922,12.282227,86.619141,13.432129,97.443359,22.488281"/>
<path style="fill:#2196F3;" d="M126.43457,45.345703c-2.541992-12.394531-10.96582-23.359863-19.547852-31.305176
	c-8.583008-7.94873-12.797852-9.935059-18.833984-12.15918C82.017578-0.347168,74.463867-0.26709,69.220703,0.449707
	c-4.105469,0.558594-13.353516,3.576172-18.754395,8.663086c-5.89502,5.544434-14.015137,8.410645-16.84668,10.805664
	c-12.792969,10.810059-9.549316,35.98291-8.580566,40.05127c2.223633,9.378906,6.275879,19.389648,17.480469,28.929688
	c12.932617,11,33.397461,12.477539,43.862305,10.166992c14.782227-3.255859,27.419922-11.521484,33.138672-20.423828
	C125.244141,69.744141,128.976563,57.743164,126.43457,45.345703 M101.798828,90.325195
	c-22.415039,12.698242-49.601563,4.12793-64.111328-13.332031c-11.687988-14.0625-17.881836-45.917969-0.252441-56.601074
	c12.890137-7.810059,15.035645-12.554688,23.70166-16.152344c15.104492-6.264648,32.435547-4.962891,51.095703,16.152344
	C131.439453,42.121094,130.928711,73.826172,101.798828,90.325195"/>
</svg>
