<?xml version="1.0" encoding="utf-8"?>
<!-- Generator: Adobe Illustrator 16.0.0, SVG Export Plug-In . SVG Version: 6.00 Build 0)  -->
<!DOCTYPE svg PUBLIC "-//W3C//DTD SVG 1.1//EN" "http://www.w3.org/Graphics/SVG/1.1/DTD/svg11.dtd">
<svg version="1.1" id="Layer_1" xmlns="http://www.w3.org/2000/svg" xmlns:xlink="http://www.w3.org/1999/xlink" x="0px" y="0px"
	 width="50.000977px" height="50px" viewBox="0 0 50.000977 50" style="enable-background:new 0 0 50.000977 50;"
	 xml:space="preserve">
<g id="NIGMS">
	<path style="fill-rule:evenodd;clip-rule:evenodd;fill:#1B2F5B;" d="M26.21582,49.995117c-0.824707,0-1.647949,0-2.472656,0
		c-0.375488-0.040039-0.751465-0.080078-1.12793-0.120117c-6.980957-0.739258-12.674805-3.854492-17.131348-9.263672
		c-0.130859-0.160156-0.129883-0.244141,0.013672-0.396484c2.313965-2.458008,4.957031-4.517578,7.749023-6.388672
		c5.350098-3.583008,10.866211-6.904297,16.345703-10.280273c4.022949-2.479492,8.065918-4.927734,11.799316-7.843262
		c1.69873-1.326172,3.22998-2.788086,4.072754-4.833496c0.080078-0.193359,0.121094-0.010742,0.148438,0.029297
		c2.333008,3.422852,3.74707,7.188965,4.213379,11.306641c0.064453,0.569336,0.113281,1.139648,0.170898,1.709473
		c0,0.737793,0,1.475586,0,2.214355c-0.014648,0.042969-0.039063,0.085938-0.041992,0.130859
		c-0.053711,1.041992-0.167969,2.074219-0.352051,3.099609c-0.605957,3.399414-1.867676,6.537109-3.768555,9.417969
		c-0.055664,0.084961-0.084961,0.160156-0.194336,0.035156c-1.416016-1.615234-3.266113-2.552734-5.262695-3.172852
		c-6.319824-1.959961-12.655762-3.859375-18.98584-5.785156c-0.120117-0.037109-0.200195-0.013672-0.296875,0.050781
		c-0.80957,0.53125-1.620605,1.05957-2.429688,1.588867c-0.043945,0.029297-0.079102,0.072266-0.119141,0.107422
		c0.043945,0.024414,0.085938,0.049805,0.129883,0.070313c4.356934,1.970703,8.717773,3.928711,13.065918,5.914063
		c2.192871,1,4.449707,1.873047,6.519531,3.129883c2.293945,1.392578,4.271973,3.110352,5.609863,5.483398
		c0.061523,0.108398,0.182617,0.244141,0.051758,0.348633c-0.15332,0.121094-0.243164-0.057617-0.329102-0.149414
		c-0.74707-0.799805-1.569824-1.491211-2.599609-1.907227c-0.186035-0.075195-0.302246-0.052734-0.456543,0.070313
		c-3.742188,2.957031-7.978027,4.723633-12.720215,5.268555C27.28418,49.891602,26.749512,49.94043,26.21582,49.995117z"/>
	<path style="fill-rule:evenodd;clip-rule:evenodd;fill:#4D65AF;" d="M44.352051,4.291504
		c-0.03418-0.093262-0.038086-0.244629-0.191406-0.216797c-0.165527,0.029297-0.123535,0.178223-0.111816,0.283691
		c0.124512,1.180176-0.143555,2.265137-0.759277,3.274414c-0.112305,0.184082-0.164063,0.177734-0.308594,0.030273
		c-4.266113-4.361816-9.42627-6.892578-15.501465-7.536621c-0.407715-0.042969-0.813965-0.082031-1.219727-0.12207
		c-0.883301,0-1.76416,0-2.647461,0c-0.612793,0.068359-1.229492,0.119629-1.839355,0.208496
		C13.738281,1.391602,7.613281,5.469727,3.42334,12.410645c-2.080566,3.443848-3.149902,7.222656-3.375488,11.239746
		c-0.001953,0.060059-0.02832,0.118652-0.041992,0.177734c0,0.780762,0,1.562012,0,2.34375
		c0.054688,0.53418,0.106445,1.069336,0.165039,1.603516c0.300293,2.75293,1.050781,5.380859,2.230469,7.886719
		c0.057617,0.121094,0.084961,0.238281,0.081055,0.37207c-0.047852,1.856445,0.109375,3.695313,0.530762,5.515625
		c0-0.243164-0.00293-0.485352,0.000977-0.727539c0.003906-0.254883,0.013672-0.506836,0.024414-0.759766
		c0.070313-1.830078,0.275391-3.643555,0.589355-5.449219c0.474121-2.710938,1.95166-4.719727,4.166992-6.265625
		c1.546387-1.078125,3.293945-1.737305,5.001953-2.47998c7.188477-3.127441,14.397949-6.212402,21.45166-9.641113
		c2.30127-1.118164,4.587402-2.268066,6.756348-3.634766c1.134277-0.714355,2.057129-1.635742,2.770508-2.76416
		C44.879883,8.080078,45.086914,6.232422,44.352051,4.291504z M14.678223,14.625488
		c-0.000977,0.001953-0.00293,0.00293-0.003906,0.004395c-0.00293,0.000488-0.005859,0.000977-0.007813,0.001465
		c-0.024414,0.01709-0.047852,0.03418-0.071289,0.050293c-1.771973,1.064941-3.531738,2.148438-5.200195,3.370117
		c-1.098633,0.804199-2.181152,1.625977-3.078613,2.662109c-1.047852,1.212402-0.97998,1.922363,0.291504,2.902832
		c1.143066,0.880859,2.452637,1.463379,3.759766,2.052246c0.058594,0.026855,0.114258,0.058105,0.172852,0.087402
		c-0.058594,0.036133-0.113281,0.077148-0.175781,0.107422c-0.740234,0.36084-1.481934,0.719238-2.222656,1.080566
		c-0.079102,0.039063-0.141602,0.073242-0.239258,0.019531c-1.213867-0.69043-2.416992-1.397461-3.43457-2.37207
		c-0.539551-0.515625-0.995605-1.088867-1.167969-1.840332c-0.133789-0.579102,0.011719-1.102539,0.32373-1.590332
		c0.526855-0.82666,1.265625-1.444336,2.04834-2.005859c2.297852-1.642578,4.842773-2.818359,7.425781-3.91748
		c0.484863-0.206543,0.979492-0.393066,1.466797-0.589844c0.03418-0.005859,0.067383-0.01123,0.101563-0.016602
		c0.001953-0.001465,0.00293-0.002441,0.004883-0.003906C14.67334,14.626953,14.675293,14.626465,14.678223,14.625488
		c0.008789-0.010742,0.016602-0.022949,0.026855-0.032227c0.00293-0.001465,0.016602,0.010742,0.024414,0.01709
		C14.711914,14.615234,14.694824,14.620605,14.678223,14.625488z"/>
	<path style="fill-rule:evenodd;clip-rule:evenodd;fill:#C1D833;" d="M25.875488,11.294922
		c0.000977-2.788086-2.243652-5.043457-5.030273-5.047852c-2.796875-0.004883-5.051758,2.248047-5.050781,5.043945
		c0.000977,2.786133,2.251953,5.038574,5.037109,5.041016C23.613281,16.333984,25.873535,14.077148,25.875488,11.294922z"/>
	<path style="fill-rule:evenodd;clip-rule:evenodd;fill:none;" d="M0.005859,26.171875
		c0.054688,0.53418,0.106445,1.069336,0.165039,1.603516c0.300293,2.75293,1.050781,5.380859,2.230469,7.886719
		c0.057617,0.121094,0.084961,0.238281,0.081055,0.37207c-0.047852,1.856445,0.109375,3.695313,0.530762,5.515625
		c0-0.243164-0.00293-0.485352,0.000977-0.727539c0.003906-0.254883,0.013672-0.506836,0.024414-0.759766
		c0.070313-1.830078,0.275391-3.643555,0.589355-5.449219c0.474121-2.710938,1.95166-4.719727,4.166992-6.265625
		c1.546387-1.078125,3.293945-1.737305,5.001953-2.47998c7.188477-3.127441,14.397949-6.212402,21.45166-9.641113
		c2.30127-1.118164,4.587402-2.268066,6.756348-3.634766c1.134277-0.714355,2.057129-1.635742,2.770508-2.76416
		c1.104492-1.747559,1.311523-3.595215,0.57666-5.536133c-0.03418-0.093262-0.038086-0.244629-0.191406-0.216797
		c-0.165527,0.029297-0.123535,0.178223-0.111816,0.283691c0.124512,1.180176-0.143555,2.265137-0.759277,3.274414
		c-0.112305,0.184082-0.164063,0.177734-0.308594,0.030273c-4.266113-4.361816-9.42627-6.892578-15.501465-7.536621
		c-0.407715-0.042969-0.813965-0.082031-1.219727-0.12207c7.844238,0,15.687012,0.000488,23.53125-0.004395
		c0.175781-0.000977,0.209961,0.034668,0.209961,0.209961c-0.004883,7.901855-0.003906,15.803223-0.003906,23.70459
		c-0.057617-0.569824-0.106445-1.140137-0.170898-1.709473c-0.466309-4.117676-1.880371-7.883789-4.213379-11.306641
		c-0.027344-0.040039-0.068359-0.222656-0.148438-0.029297c-0.842773,2.04541-2.374023,3.507324-4.072754,4.833496
		c-3.733398,2.915527-7.776367,5.36377-11.799316,7.843262c-5.479492,3.375977-10.995605,6.697266-16.345703,10.280273
		c-2.791992,1.871094-5.435059,3.930664-7.749023,6.388672c-0.143555,0.152344-0.144531,0.236328-0.013672,0.396484
		c4.456543,5.40918,10.150391,8.524414,17.131348,9.263672c0.376465,0.040039,0.752441,0.080078,1.12793,0.120117
		c-7.848145,0-15.694824-0.000977-23.542969,0.003906C0.037109,49.999023,0,49.963867,0,49.800781
		C0.005859,41.923828,0.005859,34.047852,0.005859,26.171875z"/>
	<path style="fill-rule:evenodd;clip-rule:evenodd;fill:none;" d="M26.21582,49.995117
		c0.533691-0.054688,1.068359-0.103516,1.601563-0.165039c4.742188-0.544922,8.978027-2.311523,12.720215-5.268555
		c0.154297-0.123047,0.270508-0.145508,0.456543-0.070313c1.029785,0.416016,1.852539,1.107422,2.599609,1.907227
		c0.085938,0.091797,0.175781,0.270508,0.329102,0.149414c0.130859-0.104492,0.009766-0.240234-0.051758-0.348633
		c-1.337891-2.373047-3.315918-4.09082-5.609863-5.483398c-2.069824-1.256836-4.32666-2.129883-6.519531-3.129883
		c-4.348145-1.985352-8.708984-3.943359-13.065918-5.914063c-0.043945-0.020508-0.085938-0.045898-0.129883-0.070313
		c0.040039-0.035156,0.075195-0.078125,0.119141-0.107422c0.809082-0.529297,1.620117-1.057617,2.429688-1.588867
		c0.09668-0.064453,0.176758-0.087891,0.296875-0.050781c6.330078,1.925781,12.666016,3.825195,18.98584,5.785156
		c1.996582,0.620117,3.84668,1.557617,5.262695,3.172852c0.109375,0.125,0.138672,0.049805,0.194336-0.035156
		c1.900879-2.880859,3.162598-6.018555,3.768555-9.417969c0.184082-1.025391,0.29834-2.057617,0.352051-3.099609
		c0.00293-0.044922,0.027344-0.087891,0.041992-0.130859c0,7.886719-0.000977,15.772461,0.003906,23.661133
		C50.000977,49.964844,49.96582,50,49.791016,50C41.932129,49.994141,34.074219,49.995117,26.21582,49.995117z"/>
	<path style="fill-rule:evenodd;clip-rule:evenodd;fill:none;" d="M23.612305,0.004395
		c-0.612793,0.068359-1.229492,0.119629-1.839355,0.208496C13.738281,1.391602,7.613281,5.469727,3.42334,12.410645
		c-2.080566,3.443848-3.149902,7.222656-3.375488,11.239746c-0.001953,0.060059-0.02832,0.118652-0.041992,0.177734
		c0-7.87207,0-15.745117-0.005859-23.618164C0,0.034668,0.03418-0.000977,0.210938,0
		C8.012207,0.004883,15.812012,0.004395,23.612305,0.004395z"/>
	<path style="fill-rule:evenodd;clip-rule:evenodd;fill:none;" d="M14.674316,14.629883
		c0.009766-0.012207,0.019531-0.025879,0.030762-0.036621c0.00293-0.001465,0.016602,0.010742,0.024414,0.01709
		c-0.019531,0.005859-0.038574,0.01123-0.058105,0.01709L14.674316,14.629883z"/>
	<path style="fill-rule:evenodd;clip-rule:evenodd;fill:none;" d="M14.671387,14.627441
		c-0.025391,0.018066-0.050781,0.036621-0.076172,0.054199c-0.009766-0.010742-0.019531-0.021973-0.029297-0.033691
		c0.036133-0.005859,0.071289-0.012207,0.108398-0.018066L14.671387,14.627441z"/>
</g>
</svg>
