<?xml version="1.0" encoding="utf-8"?>
<!-- Generator: Adobe Illustrator 16.0.0, SVG Export Plug-In . SVG Version: 6.00 Build 0)  -->
<!DOCTYPE svg PUBLIC "-//W3C//DTD SVG 1.1//EN" "http://www.w3.org/Graphics/SVG/1.1/DTD/svg11.dtd">
<svg version="1.1" id="Layer_1" xmlns="http://www.w3.org/2000/svg" xmlns:xlink="http://www.w3.org/1999/xlink" x="0px" y="0px"
	 width="130.290039px" height="50px" viewBox="0 0 130.290039 50" style="enable-background:new 0 0 130.290039 50;"
	 xml:space="preserve">
<g id="UConn">
	<g>
		<path style="fill:#0D162F;" d="M14.931641,35.230469h3.251953v5.84375h6.001953v-5.84375h3.253906V50h-3.253906v-5.928711
			h-6.001953V50h-3.251953V35.230469z"/>
		<path style="fill:#0D162F;" d="M34.164063,35.230469h11.15625v2.890625h-7.923828v2.996094h6.972656v2.890625h-6.972656v3.102539
			h8.029297V50H34.164063V35.230469z"/>
		<path style="fill:#0D162F;" d="M56.564453,35.125h3L65.904297,50h-3.402344l-1.351563-3.313477h-6.253906L53.544922,50h-3.318359
			L56.564453,35.125z M59.988281,43.818359l-1.964844-4.789063l-1.964844,4.789063H59.988281z"/>
		<path style="fill:#0D162F;" d="M71.361328,35.230469h3.253906v11.81543h7.375V50H71.361328V35.230469z"/>
		<path style="fill:#0D162F;" d="M88.945313,38.226563h-4.5v-2.996094h12.251953v2.996094h-4.498047V50h-3.253906V38.226563z"/>
		<path style="fill:#0D162F;" d="M102.365234,35.230469h3.253906v5.84375h6.001953v-5.84375h3.251953V50h-3.251953v-5.928711
			h-6.001953V50h-3.253906V35.230469z"/>
	</g>
	<g>
		<g>
			<path style="fill:#0D162F;" d="M17.25,21.408203c-1.759766,0.515137-3.560547,1.157715-5.751953,1.157715
				c-2.1875,0-3.988281-0.642578-5.746094-1.157715V0.729004H0v23.553223c3.132813,1.844727,7.125,2.959961,11.498047,2.959961
				c4.333984,0,8.367188-1.115234,11.5-2.959961V0.729004H17.25V21.408203z"/>
			<path style="fill:#0D162F;" d="M44.162109,5.79248v3.817383h5.75V2.914551C46.78125,1.072754,42.789063,0,38.412109,0
				c-4.332031,0-8.322266,1.072754-11.451172,2.914551V24.32666c3.128906,1.800293,7.119141,2.872559,11.451172,2.872559
				c4.376953,0,8.369141-1.072266,11.5-2.872559v-7.810547h-5.75v4.89209c-1.716797,0.515137-3.558594,0.814941-5.75,0.814941
				c-2.185547,0-3.988281-0.299805-5.707031-0.814941V5.79248c1.71875-0.520508,3.521484-0.820801,5.707031-0.820801
				C40.603516,4.97168,42.445313,5.271973,44.162109,5.79248z"/>
			<path style="fill:#0D162F;" d="M53.982422,2.875v21.45166c3.134766,1.800293,7.126953,2.872559,11.501953,2.872559
				c4.333984,0,8.369141-1.072266,11.498047-2.872559V2.875C73.853516,1.072754,69.859375,0,65.484375,0
				C61.150391,0,57.117188,1.072754,53.982422,2.875z M71.234375,21.408203c-1.759766,0.515137-3.5625,0.814941-5.75,0.814941
				s-3.988281-0.299805-5.75-0.814941V5.79248c1.761719-0.560059,3.5625-0.820801,5.75-0.820801s3.990234,0.300293,5.75,0.820801
				V21.408203z"/>
			<polygon style="fill:#0D162F;" points="98.412109,18.961914 98.285156,18.961914 86.869141,0.729004 80.734375,0.729004 
				80.734375,26.428711 85.927734,26.428711 85.927734,8.191406 86.099609,8.191406 97.509766,26.428711 103.646484,26.428711 
				103.646484,0.729004 98.412109,0.729004 			"/>
			<polygon style="fill:#0D162F;" points="125.046875,18.961914 124.917969,18.961914 113.507813,0.729004 107.373047,0.729004 
				107.373047,26.428711 112.5625,26.428711 112.5625,8.191406 112.734375,8.191406 124.146484,26.428711 130.28125,26.428711 
				130.28125,0.729004 125.046875,0.729004 			"/>
		</g>
	</g>
</g>
<g>
</g>
<g>
</g>
<g>
</g>
<g>
</g>
<g>
</g>
<g>
</g>
</svg>
