<?xml version="1.0" encoding="UTF-8" standalone="no"?>
<svg
   xmlns:dc="http://purl.org/dc/elements/1.1/"
   xmlns:cc="http://creativecommons.org/ns#"
   xmlns:rdf="http://www.w3.org/1999/02/22-rdf-syntax-ns#"
   xmlns:svg="http://www.w3.org/2000/svg"
   xmlns="http://www.w3.org/2000/svg"
   xmlns:sodipodi="http://sodipodi.sourceforge.net/DTD/sodipodi-0.dtd"
   xmlns:inkscape="http://www.inkscape.org/namespaces/inkscape"
   viewBox="0 0 356.31 330.00001"
   version="1.1"
   id="svg4946"
   sodipodi:docname="bruit-io.svg"
   width="356.31"
   height="330"
   inkscape:version="0.92.3 (2405546, 2018-03-11)">
  <metadata
     id="metadata4952">
    <rdf:RDF>
      <cc:Work
         rdf:about="">
        <dc:format>image/svg+xml</dc:format>
        <dc:type
           rdf:resource="http://purl.org/dc/dcmitype/StillImage" />
        <dc:title></dc:title>
      </cc:Work>
    </rdf:RDF>
  </metadata>
  <defs
     id="defs4950" />
  <sodipodi:namedview
     pagecolor="#ffffff"
     bordercolor="#666666"
     borderopacity="1"
     objecttolerance="10"
     gridtolerance="10"
     guidetolerance="10"
     inkscape:pageopacity="0"
     inkscape:pageshadow="2"
     inkscape:window-width="1920"
     inkscape:window-height="1030"
     id="namedview4948"
     showgrid="false"
     fit-margin-top="0"
     fit-margin-left="0"
     fit-margin-right="0"
     fit-margin-bottom="0"
     inkscape:zoom="1.1717065"
     inkscape:cx="171.44"
     inkscape:cy="141.38622"
     inkscape:window-x="0"
     inkscape:window-y="0"
     inkscape:window-maximized="1"
     inkscape:current-layer="svg4946" />
  <g
     data-name="Calque 8"
     id="g4932"
     transform="translate(-54.42)">
    <path
       d="m 260.66,269.33 c 0.08,9.37 -5.13,13.89 -12,13.85 -43.14,-0.23 -86.28,-0.09 -129.41,-0.18 a 9.38,9.38 0 0 0 -6.77,2.68 c -5.37,4.9 -10.91,9.56 -16.4,14.3 -0.58,0.5 -1.24,0.87 -2.29,1.59 v -18.51 h -3.2 c -4.08,0 -8.18,-0.29 -12.24,0.06 -9.48,0.82 -13.28,-5.35 -13.21,-14.9 0.26,-34.33 0.1,-68.67 0.11,-103 a 43.73,43.73 0 0 1 0.12,-4.44 c 0.59,-5.76 4.32,-9.73 9.37,-10 1.2,-0.07 2.4,0 3.59,0 H 232.91 V 138.16 H 76.46 c -13.15,0 -21.94,10 -22,25.12 q -0.08,53.73 0,107.46 c 0,15 8.82,25 22,25 h 6.53 V 330 c 11,-9.83 21.46,-18.74 31.44,-28.33 a 21.24,21.24 0 0 1 16.24,-6.28 c 39.76,0.29 79.51,0.16 119.27,0.13 10.45,0 18.55,-7 20.92,-18 a 34.48,34.48 0 0 0 0.61,-7.12 v -85.81 h -11 c 0.03,28.24 -0.03,56.49 0.19,84.74 z"
       id="path4928"
       inkscape:connector-curvature="0"
       style="fill:#2d2e82" />
    <path
       d="m 232.91,150.75 h -159 a 8.78,8.78 0 0 0 -8.78,8.79 v 114.72 a 8.78,8.78 0 0 0 8.78,8.79 h 20.5 v 18.5 l 22.9,-18.5 h 134.57 a 8.79,8.79 0 0 0 8.79,-8.79 v -89.68 h -27.76 z"
       id="path4930"
       inkscape:connector-curvature="0"
       style="fill:#c6c6c5" />
  </g>
  <g
     data-name="Calque 9"
     id="g4942"
     transform="translate(-54.42)">
    <path
       d="M 410.73,0 212.36,89.17 258.59,133.44 375.72,45.91 Z"
       id="path4934"
       inkscape:connector-curvature="0"
       style="fill:#7bdfb8" />
    <path
       d="M 289.22,162.37 380.16,86.47 410.73,0 375.72,45.91 249.96,176.67 Z"
       id="path4936"
       inkscape:connector-curvature="0"
       style="fill:#4c8468" />
    <path
       d="M 380.16,86.47 337.68,206.63 289.22,162.37 Z"
       id="path4938"
       inkscape:connector-curvature="0"
       style="fill:#5c9a8a" />
    <path
       d="m 73.89,283.07 h 19.68 v 20.05 l 23.74,-20.05 135.92,0.26 c 0,0 6.49,-0.73 7.5,-8.43 l -0.23,-90.3 h -27.61 v -24.78 z"
       id="path4940"
       inkscape:connector-curvature="0"
       style="fill:#6f6f6e" />
  </g>
  <path
     stroke-miterlimit="10"
     d="m 10.79,220.71 h 33.85 c 0,0 7.31,-50.18 17.43,-41.75 10.12,8.43 25,86.93 29.06,81.53 4.06,-5.4 30.76,-99.71 36.23,-95.29 5.47,4.42 18.46,57 23.25,57 h 55.72"
     id="path4944"
     inkscape:connector-curvature="0"
     style="fill:none;stroke:#f5f5f5;stroke-width:4.75;stroke-miterlimit:10" />
</svg>
