<?xml version="1.0" encoding="UTF-8" standalone="no"?>
<svg
   xmlns:dc="http://purl.org/dc/elements/1.1/"
   xmlns:cc="http://creativecommons.org/ns#"
   xmlns:rdf="http://www.w3.org/1999/02/22-rdf-syntax-ns#"
   xmlns:svg="http://www.w3.org/2000/svg"
   xmlns="http://www.w3.org/2000/svg"
   xmlns:sodipodi="http://sodipodi.sourceforge.net/DTD/sodipodi-0.dtd"
   xmlns:inkscape="http://www.inkscape.org/namespaces/inkscape"
   id="Layer_1"
   data-name="Layer 1"
   viewBox="0 0 85.722849 86.37002"
   version="1.1"
   sodipodi:docname="cypress.svg"
   width="85.722847"
   height="86.370018"
   inkscape:version="0.92.3 (2405546, 2018-03-11)">
  <metadata
     id="metadata6614">
    <rdf:RDF>
      <cc:Work
         rdf:about="">
        <dc:format>image/svg+xml</dc:format>
        <dc:type
           rdf:resource="http://purl.org/dc/dcmitype/StillImage" />
        <dc:title>Automated Visual Testing- Your First, Best Path</dc:title>
      </cc:Work>
    </rdf:RDF>
  </metadata>
  <sodipodi:namedview
     pagecolor="#ffffff"
     bordercolor="#666666"
     borderopacity="1"
     objecttolerance="10"
     gridtolerance="10"
     guidetolerance="10"
     inkscape:pageopacity="0"
     inkscape:pageshadow="2"
     inkscape:window-width="1920"
     inkscape:window-height="1112"
     id="namedview6612"
     showgrid="false"
     fit-margin-top="0"
     fit-margin-left="0"
     fit-margin-right="0"
     fit-margin-bottom="0"
     inkscape:zoom="2.4980769"
     inkscape:cx="182.10283"
     inkscape:cy="-44.269989"
     inkscape:window-x="0"
     inkscape:window-y="0"
     inkscape:window-maximized="1"
     inkscape:current-layer="Layer_1" />
  <defs
     id="defs6589">
    <style
       id="style6582">.cls-1{fill:url(#linear-gradient);}.cls-2{fill:#0086ae;}.cls-3{fill:#fff;}.cls-4{fill:#7cb7d8;}.cls-5{fill:#005482;}</style>
    <linearGradient
       id="linear-gradient"
       x1="20.450001"
       y1="116.85"
       x2="220.45"
       y2="116.85"
       gradientTransform="rotate(45,120.45209,116.84289)"
       gradientUnits="userSpaceOnUse">
      <stop
         offset="0"
         stop-color="#005482"
         id="stop6584" />
      <stop
         offset="1"
         stop-color="#dd056c"
         id="stop6586" />
    </linearGradient>
  </defs>
  <title
     id="title6591">Automated Visual Testing- Your First, Best Path</title>
  <path
     class="cls-3"
     d="M 42.562828,1.0446487e-5 A 43.13,43.13 0 0 1 85.722828,43.17001 a 43.17,43.17 0 0 1 -43.19,43.2 43.19,43.19 0 0 1 0,-86.369999553513 z M 40.982828,24.43001 c 0.31,1 0.59,1.94 0.88,2.86 l 4,12.66 q 3,9.8 6.1,19.58 c 0.63,2.06 1.28,4.1 1.91,6.16 a 0.8,0.8 0 0 1 -0.1,0.63 9.72,9.72 0 0 1 -3.81,2.83 24.16,24.16 0 0 1 -5.37,1.35 c -0.33,0 -0.46,0.15 -0.4,0.51 0.12,0.69 0.2,1.4 0.3,2.09 0.21,1.41 0.43,2.82 0.63,4.23 0,0.29 0.14,0.41 0.46,0.38 a 33.13,33.13 0 0 0 6.09,-1.11 18.74,18.74 0 0 0 11.07,-8.44 34.57,34.57 0 0 0 3.27,-7.78 c 2.41,-7.56 4.86,-15.1 7.29,-22.66 q 2.07,-6.42 4.15,-12.84 c 0,-0.13 0.06,-0.27 0.1,-0.45 h -0.5 c -3.07,0 -6.15,0 -9.22,0 -0.46,0 -0.62,0.18 -0.73,0.59 q -1.36,5.4 -2.75,10.8 l -4.92,19.28 c 0,0.16 -0.1,0.31 -0.15,0.46 a 1.06,1.06 0 0 1 -0.24,-0.49 q -2,-8.13 -3.94,-16.27 c -1.11,-4.59 -2.23,-9.17 -3.33,-13.76 -0.1,-0.46 -0.27,-0.61 -0.74,-0.61 -3.14,0 -6.28,0 -9.41,0 z m -20.69,19 c 0,-0.89 0.08,-1.78 0.13,-2.67 a 16.87,16.87 0 0 1 1,-4.82 8.16,8.16 0 0 1 1.89,-3.06 7.11,7.11 0 0 1 5.39,-1.91 11.22,11.22 0 0 1 6.71,2.38 c 0.31,0.23 0.48,0.23 0.72,-0.1 q 1.86,-2.56 3.77,-5.11 c 0.21,-0.28 0.2,-0.46 -0.08,-0.65 a 36.71,36.71 0 0 0 -3.47,-2.25 18.39,18.39 0 0 0 -11.2,-1.77 c -7.42,1 -12,5.38 -14.3,12.37 a 25.19,25.19 0 0 0 -1,9.42 21.73,21.73 0 0 0 2.46,9.28 15.7,15.7 0 0 0 8.51,7.46 20.25,20.25 0 0 0 10.88,0.85 18.56,18.56 0 0 0 8,-3.62 c 0.35,-0.27 0.44,-0.47 0.15,-0.87 q -1.91,-2.68 -3.76,-5.4 c -0.19,-0.27 -0.34,-0.32 -0.61,-0.13 -0.27,0.19 -0.64,0.39 -1,0.58 a 11.94,11.94 0 0 1 -6.28,1.83 7,7 0 0 1 -7,-5.06 21.31,21.31 0 0 1 -0.91,-6.74 z"
     id="path6597"
     style="fill:#000000;fill-opacity:1"
     inkscape:connector-curvature="0" />
</svg>
