<?xml version="1.0" encoding="UTF-8" standalone="no"?>
<!DOCTYPE svg PUBLIC "-//W3C//DTD SVG 1.1//EN"
 "http://www.w3.org/Graphics/SVG/1.1/DTD/svg11.dtd">
<!-- Generated by graphviz version 2.40.1 (20161225.0304)
 -->
<!-- Title: dependencies Pages: 1 -->
<svg width="3677pt" height="284pt"
 viewBox="0.00 0.00 3677.00 284.00" xmlns="http://www.w3.org/2000/svg" xmlns:xlink="http://www.w3.org/1999/xlink">
<g id="graph0" class="graph" transform="scale(1 1) rotate(0) translate(4 280)">
<title>dependencies</title>
<polygon fill="#ffffff" stroke="transparent" points="-4,4 -4,-280 3673,-280 3673,4 -4,4"/>
<text text-anchor="start" x="1813.5091" y="-42.4" font-family="sans-serif" font-weight="bold" font-size="14.00" fill="#000000">Legend</text>
<polygon fill="#ffffb3" stroke="transparent" points="1600.5,-10 1600.5,-30 1620.5,-30 1620.5,-10 1600.5,-10"/>
<text text-anchor="start" x="1624.129" y="-15.4" font-family="sans-serif" font-size="14.00" fill="#000000"> &#160;Declarations</text>
<polygon fill="#8dd3c7" stroke="transparent" points="1713.5,-10 1713.5,-30 1733.5,-30 1733.5,-10 1713.5,-10"/>
<text text-anchor="start" x="1737.2251" y="-15.4" font-family="sans-serif" font-size="14.00" fill="#000000"> &#160;Module</text>
<polygon fill="#80b1d3" stroke="transparent" points="1799.5,-10 1799.5,-30 1819.5,-30 1819.5,-10 1799.5,-10"/>
<text text-anchor="start" x="1823.2812" y="-15.4" font-family="sans-serif" font-size="14.00" fill="#000000"> &#160;Bootstrap</text>
<polygon fill="#fdb462" stroke="transparent" points="1896.5,-10 1896.5,-30 1916.5,-30 1916.5,-10 1896.5,-10"/>
<text text-anchor="start" x="1920.1732" y="-15.4" font-family="sans-serif" font-size="14.00" fill="#000000"> &#160;Providers</text>
<polygon fill="#fb8072" stroke="transparent" points="1992.5,-10 1992.5,-30 2012.5,-30 2012.5,-10 1992.5,-10"/>
<text text-anchor="start" x="2016.2258" y="-15.4" font-family="sans-serif" font-size="14.00" fill="#000000"> &#160;Exports</text>
<g id="clust1" class="cluster">
<title>cluster_AppModule</title>
<polygon fill="none" stroke="#000000" stroke-dasharray="1,5" points="8,-70 8,-268 3661,-268 3661,-70 8,-70"/>
</g>
<g id="clust2" class="cluster">
<title>cluster_AppModule_declarations</title>
<polygon fill="none" stroke="#000000" points="521,-78 521,-130 3653,-130 3653,-78 521,-78"/>
</g>
<g id="clust24" class="cluster">
<title>cluster_AppModule_imports</title>
<polygon fill="none" stroke="#000000" points="244,-78 244,-130 513,-130 513,-78 244,-78"/>
</g>
<g id="clust26" class="cluster">
<title>cluster_AppModule_bootstrap</title>
<polygon fill="none" stroke="#000000" points="2024,-208 2024,-260 2148,-260 2148,-208 2024,-208"/>
</g>
<g id="clust27" class="cluster">
<title>cluster_AppModule_providers</title>
<polygon fill="none" stroke="#000000" points="16,-78 16,-130 236,-130 236,-78 16,-78"/>
</g>
<!-- AboutComponent -->
<g id="node1" class="node">
<title>AboutComponent</title>
<polygon fill="#ffffb3" stroke="#000000" points="3645.3301,-122 3528.6699,-122 3528.6699,-86 3645.3301,-86 3645.3301,-122"/>
<text text-anchor="middle" x="3587" y="-99.8" font-family="Times,serif" font-size="14.00" fill="#000000">AboutComponent</text>
</g>
<!-- AppModule -->
<g id="node22" class="node">
<title>AppModule</title>
<polygon fill="#8dd3c7" stroke="#000000" points="2127.6571,-187 2124.6571,-191 2103.6571,-191 2100.6571,-187 2044.3429,-187 2044.3429,-151 2127.6571,-151 2127.6571,-187"/>
<text text-anchor="middle" x="2086" y="-164.8" font-family="Times,serif" font-size="14.00" fill="#000000">AppModule</text>
</g>
<!-- AboutComponent&#45;&gt;AppModule -->
<g id="edge1" class="edge">
<title>AboutComponent&#45;&gt;AppModule</title>
<path fill="none" stroke="#000000" d="M3587,-122.3802C3587,-146.2785 3587,-185 3587,-185 3587,-185 2137.7119,-185 2137.7119,-185"/>
<polygon fill="#000000" stroke="#000000" points="2137.712,-181.5001 2127.7119,-185 2137.7119,-188.5001 2137.712,-181.5001"/>
</g>
<!-- AlertComponent -->
<g id="node2" class="node">
<title>AlertComponent</title>
<polygon fill="#ffffb3" stroke="#000000" points="3511.0954,-122 3400.9046,-122 3400.9046,-86 3511.0954,-86 3511.0954,-122"/>
<text text-anchor="middle" x="3456" y="-99.8" font-family="Times,serif" font-size="14.00" fill="#000000">AlertComponent</text>
</g>
<!-- AlertComponent&#45;&gt;AppModule -->
<g id="edge2" class="edge">
<title>AlertComponent&#45;&gt;AppModule</title>
<path fill="none" stroke="#000000" d="M3437.6508,-122.1554C3437.6508,-144.3519 3437.6508,-179 3437.6508,-179 3437.6508,-179 2137.9344,-179 2137.9344,-179"/>
<polygon fill="#000000" stroke="#000000" points="2137.9344,-175.5001 2127.9344,-179 2137.9344,-182.5001 2137.9344,-175.5001"/>
</g>
<!-- AlertComponent&#45;&gt;AppModule -->
<g id="edge3" class="edge">
<title>AlertComponent&#45;&gt;AppModule</title>
<path fill="none" stroke="#000000" d="M3474.3492,-122.0908C3474.3492,-145.1328 3474.3492,-182 3474.3492,-182 3474.3492,-182 2137.9288,-182 2137.9288,-182"/>
<polygon fill="#000000" stroke="#000000" points="2137.9288,-178.5001 2127.9288,-182 2137.9287,-185.5001 2137.9288,-178.5001"/>
</g>
<!-- AppComponent -->
<g id="node3" class="node">
<title>AppComponent</title>
<polygon fill="#ffffb3" stroke="#000000" points="3382.9399,-122 3277.0601,-122 3277.0601,-86 3382.9399,-86 3382.9399,-122"/>
<text text-anchor="middle" x="3330" y="-99.8" font-family="Times,serif" font-size="14.00" fill="#000000">AppComponent</text>
</g>
<!-- AppComponent&#45;&gt;AppModule -->
<g id="edge4" class="edge">
<title>AppComponent&#45;&gt;AppModule</title>
<path fill="none" stroke="#000000" d="M3330,-122.1686C3330,-143.498 3330,-176 3330,-176 3330,-176 2137.7458,-176 2137.7458,-176"/>
<polygon fill="#000000" stroke="#000000" points="2137.7459,-172.5001 2127.7458,-176 2137.7458,-179.5001 2137.7459,-172.5001"/>
</g>
<!-- CallbackComponent -->
<g id="node4" class="node">
<title>CallbackComponent</title>
<polygon fill="#ffffb3" stroke="#000000" points="3259.594,-122 3128.406,-122 3128.406,-86 3259.594,-86 3259.594,-122"/>
<text text-anchor="middle" x="3194" y="-99.8" font-family="Times,serif" font-size="14.00" fill="#000000">CallbackComponent</text>
</g>
<!-- CallbackComponent&#45;&gt;AppModule -->
<g id="edge5" class="edge">
<title>CallbackComponent&#45;&gt;AppModule</title>
<path fill="none" stroke="#000000" d="M3194,-122.0267C3194,-142.7672 3194,-174 3194,-174 3194,-174 2137.7467,-174 2137.7467,-174"/>
<polygon fill="#000000" stroke="#000000" points="2137.7467,-170.5001 2127.7467,-174 2137.7467,-177.5001 2137.7467,-170.5001"/>
</g>
<!-- FileEditComponent -->
<g id="node5" class="node">
<title>FileEditComponent</title>
<polygon fill="#ffffb3" stroke="#000000" points="3110.4454,-122 2983.5546,-122 2983.5546,-86 3110.4454,-86 3110.4454,-122"/>
<text text-anchor="middle" x="3047" y="-99.8" font-family="Times,serif" font-size="14.00" fill="#000000">FileEditComponent</text>
</g>
<!-- FileEditComponent&#45;&gt;AppModule -->
<g id="edge6" class="edge">
<title>FileEditComponent&#45;&gt;AppModule</title>
<path fill="none" stroke="#000000" d="M3047,-122.308C3047,-142.1455 3047,-171 3047,-171 3047,-171 2137.9109,-171 2137.9109,-171"/>
<polygon fill="#000000" stroke="#000000" points="2137.9109,-167.5001 2127.9109,-171 2137.9109,-174.5001 2137.9109,-167.5001"/>
</g>
<!-- FileTableComponent -->
<g id="node6" class="node">
<title>FileTableComponent</title>
<polygon fill="#ffffb3" stroke="#000000" points="2965.4832,-122 2830.5168,-122 2830.5168,-86 2965.4832,-86 2965.4832,-122"/>
<text text-anchor="middle" x="2898" y="-99.8" font-family="Times,serif" font-size="14.00" fill="#000000">FileTableComponent</text>
</g>
<!-- FileTableComponent&#45;&gt;AppModule -->
<g id="edge7" class="edge">
<title>FileTableComponent&#45;&gt;AppModule</title>
<path fill="none" stroke="#000000" d="M2898,-122.1686C2898,-141.0898 2898,-168 2898,-168 2898,-168 2137.6647,-168 2137.6647,-168"/>
<polygon fill="#000000" stroke="#000000" points="2137.6648,-164.5001 2127.6647,-168 2137.6647,-171.5001 2137.6648,-164.5001"/>
</g>
<!-- FooterComponent -->
<g id="node7" class="node">
<title>FooterComponent</title>
<polygon fill="#ffffb3" stroke="#000000" points="2812.8809,-122 2695.1191,-122 2695.1191,-86 2812.8809,-86 2812.8809,-122"/>
<text text-anchor="middle" x="2754" y="-99.8" font-family="Times,serif" font-size="14.00" fill="#000000">FooterComponent</text>
</g>
<!-- FooterComponent&#45;&gt;AppModule -->
<g id="edge8" class="edge">
<title>FooterComponent&#45;&gt;AppModule</title>
<path fill="none" stroke="#000000" d="M2754,-122.302C2754,-140.2699 2754,-165 2754,-165 2754,-165 2137.7864,-165 2137.7864,-165"/>
<polygon fill="#000000" stroke="#000000" points="2137.7864,-161.5001 2127.7864,-165 2137.7864,-168.5001 2137.7864,-161.5001"/>
</g>
<!-- FourComponent -->
<g id="node8" class="node">
<title>FourComponent</title>
<polygon fill="#ffffb3" stroke="#000000" points="2676.7758,-122 2569.2242,-122 2569.2242,-86 2676.7758,-86 2676.7758,-122"/>
<text text-anchor="middle" x="2623" y="-99.8" font-family="Times,serif" font-size="14.00" fill="#000000">FourComponent</text>
</g>
<!-- FourComponent&#45;&gt;AppModule -->
<g id="edge9" class="edge">
<title>FourComponent&#45;&gt;AppModule</title>
<path fill="none" stroke="#000000" d="M2623,-122.0225C2623,-139.3734 2623,-163 2623,-163 2623,-163 2137.6906,-163 2137.6906,-163"/>
<polygon fill="#000000" stroke="#000000" points="2137.6907,-159.5001 2127.6906,-163 2137.6906,-166.5001 2137.6907,-159.5001"/>
</g>
<!-- HomeComponent -->
<g id="node9" class="node">
<title>HomeComponent</title>
<polygon fill="#ffffb3" stroke="#000000" points="2550.5451,-122 2435.4549,-122 2435.4549,-86 2550.5451,-86 2550.5451,-122"/>
<text text-anchor="middle" x="2493" y="-99.8" font-family="Times,serif" font-size="14.00" fill="#000000">HomeComponent</text>
</g>
<!-- HomeComponent&#45;&gt;AppModule -->
<g id="edge10" class="edge">
<title>HomeComponent&#45;&gt;AppModule</title>
<path fill="none" stroke="#000000" d="M2493,-122.027C2493,-138.3976 2493,-160 2493,-160 2493,-160 2138.0232,-160 2138.0232,-160"/>
<polygon fill="#000000" stroke="#000000" points="2138.0232,-156.5001 2128.0232,-160 2138.0232,-163.5001 2138.0232,-156.5001"/>
</g>
<!-- LinksComponent -->
<g id="node10" class="node">
<title>LinksComponent</title>
<polygon fill="#ffffb3" stroke="#000000" points="2417.7204,-122 2304.2796,-122 2304.2796,-86 2417.7204,-86 2417.7204,-122"/>
<text text-anchor="middle" x="2361" y="-99.8" font-family="Times,serif" font-size="14.00" fill="#000000">LinksComponent</text>
</g>
<!-- LinksComponent&#45;&gt;AppModule -->
<g id="edge11" class="edge">
<title>LinksComponent&#45;&gt;AppModule</title>
<path fill="none" stroke="#000000" d="M2361,-122.2396C2361,-137.5706 2361,-157 2361,-157 2361,-157 2137.7666,-157 2137.7666,-157"/>
<polygon fill="#000000" stroke="#000000" points="2137.7666,-153.5001 2127.7666,-157 2137.7665,-160.5001 2137.7666,-153.5001"/>
</g>
<!-- LogoComponent -->
<g id="node11" class="node">
<title>LogoComponent</title>
<polygon fill="#ffffb3" stroke="#000000" points="2286.3851,-122 2175.6149,-122 2175.6149,-86 2286.3851,-86 2286.3851,-122"/>
<text text-anchor="middle" x="2231" y="-99.8" font-family="Times,serif" font-size="14.00" fill="#000000">LogoComponent</text>
</g>
<!-- LogoComponent&#45;&gt;AppModule -->
<g id="edge12" class="edge">
<title>LogoComponent&#45;&gt;AppModule</title>
<path fill="none" stroke="#000000" d="M2231,-122.0511C2231,-136.373 2231,-154 2231,-154 2231,-154 2137.94,-154 2137.94,-154"/>
<polygon fill="#000000" stroke="#000000" points="2137.94,-150.5001 2127.94,-154 2137.94,-157.5001 2137.94,-150.5001"/>
</g>
<!-- NavigationComponent -->
<g id="node12" class="node">
<title>NavigationComponent</title>
<polygon fill="#ffffb3" stroke="#000000" points="2157.5407,-122 2014.4593,-122 2014.4593,-86 2157.5407,-86 2157.5407,-122"/>
<text text-anchor="middle" x="2086" y="-99.8" font-family="Times,serif" font-size="14.00" fill="#000000">NavigationComponent</text>
</g>
<!-- NavigationComponent&#45;&gt;AppModule -->
<g id="edge13" class="edge">
<title>NavigationComponent&#45;&gt;AppModule</title>
<path fill="none" stroke="#000000" d="M2086,-122.1061C2086,-122.1061 2086,-140.991 2086,-140.991"/>
<polygon fill="#000000" stroke="#000000" points="2082.5001,-140.9909 2086,-150.991 2089.5001,-140.991 2082.5001,-140.9909"/>
</g>
<!-- NewSimulationComponent -->
<g id="node13" class="node">
<title>NewSimulationComponent</title>
<polygon fill="#ffffb3" stroke="#000000" points="1996.7105,-122 1827.2895,-122 1827.2895,-86 1996.7105,-86 1996.7105,-122"/>
<text text-anchor="middle" x="1912" y="-99.8" font-family="Times,serif" font-size="14.00" fill="#000000">NewSimulationComponent</text>
</g>
<!-- NewSimulationComponent&#45;&gt;AppModule -->
<g id="edge14" class="edge">
<title>NewSimulationComponent&#45;&gt;AppModule</title>
<path fill="none" stroke="#000000" d="M1912,-122.0511C1912,-136.373 1912,-154 1912,-154 1912,-154 2034.3227,-154 2034.3227,-154"/>
<polygon fill="#000000" stroke="#000000" points="2034.3227,-157.5001 2044.3227,-154 2034.3226,-150.5001 2034.3227,-157.5001"/>
</g>
<!-- PastSimulationComponent -->
<g id="node14" class="node">
<title>PastSimulationComponent</title>
<polygon fill="#ffffb3" stroke="#000000" points="1809.115,-122 1642.885,-122 1642.885,-86 1809.115,-86 1809.115,-122"/>
<text text-anchor="middle" x="1726" y="-99.8" font-family="Times,serif" font-size="14.00" fill="#000000">PastSimulationComponent</text>
</g>
<!-- PastSimulationComponent&#45;&gt;AppModule -->
<g id="edge15" class="edge">
<title>PastSimulationComponent&#45;&gt;AppModule</title>
<path fill="none" stroke="#000000" d="M1726,-122.2396C1726,-137.5706 1726,-157 1726,-157 1726,-157 2033.9989,-157 2033.9989,-157"/>
<polygon fill="#000000" stroke="#000000" points="2033.9989,-160.5001 2043.9989,-157 2033.9988,-153.5001 2033.9989,-160.5001"/>
</g>
<!-- ProfileComponent -->
<g id="node15" class="node">
<title>ProfileComponent</title>
<polygon fill="#ffffb3" stroke="#000000" points="1624.9328,-122 1505.0672,-122 1505.0672,-86 1624.9328,-86 1624.9328,-122"/>
<text text-anchor="middle" x="1565" y="-99.8" font-family="Times,serif" font-size="14.00" fill="#000000">ProfileComponent</text>
</g>
<!-- ProfileComponent&#45;&gt;AppModule -->
<g id="edge16" class="edge">
<title>ProfileComponent&#45;&gt;AppModule</title>
<path fill="none" stroke="#000000" d="M1565,-122.027C1565,-138.3976 1565,-160 1565,-160 1565,-160 2034.2451,-160 2034.2451,-160"/>
<polygon fill="#000000" stroke="#000000" points="2034.2451,-163.5001 2044.2451,-160 2034.245,-156.5001 2034.2451,-163.5001"/>
</g>
<!-- SearchBarComponent -->
<g id="node16" class="node">
<title>SearchBarComponent</title>
<polygon fill="#ffffb3" stroke="#000000" points="1486.6317,-122 1347.3683,-122 1347.3683,-86 1486.6317,-86 1486.6317,-122"/>
<text text-anchor="middle" x="1417" y="-99.8" font-family="Times,serif" font-size="14.00" fill="#000000">SearchBarComponent</text>
</g>
<!-- SearchBarComponent&#45;&gt;AppModule -->
<g id="edge17" class="edge">
<title>SearchBarComponent&#45;&gt;AppModule</title>
<path fill="none" stroke="#000000" d="M1417,-122.0225C1417,-139.3734 1417,-163 1417,-163 1417,-163 2034.1511,-163 2034.1511,-163"/>
<polygon fill="#000000" stroke="#000000" points="2034.1511,-166.5001 2044.1511,-163 2034.151,-159.5001 2034.1511,-166.5001"/>
</g>
<!-- SimulateComponent -->
<g id="node17" class="node">
<title>SimulateComponent</title>
<polygon fill="#ffffb3" stroke="#000000" points="1329.6066,-122 1198.3934,-122 1198.3934,-86 1329.6066,-86 1329.6066,-122"/>
<text text-anchor="middle" x="1264" y="-99.8" font-family="Times,serif" font-size="14.00" fill="#000000">SimulateComponent</text>
</g>
<!-- SimulateComponent&#45;&gt;AppModule -->
<g id="edge18" class="edge">
<title>SimulateComponent&#45;&gt;AppModule</title>
<path fill="none" stroke="#000000" d="M1264,-122.302C1264,-140.2699 1264,-165 1264,-165 1264,-165 2034.1068,-165 2034.1068,-165"/>
<polygon fill="#000000" stroke="#000000" points="2034.1068,-168.5001 2044.1068,-165 2034.1068,-161.5001 2034.1068,-168.5001"/>
</g>
<!-- UnderConstructionComponent -->
<g id="node18" class="node">
<title>UnderConstructionComponent</title>
<polygon fill="#ffffb3" stroke="#000000" points="1180.1427,-122 991.8573,-122 991.8573,-86 1180.1427,-86 1180.1427,-122"/>
<text text-anchor="middle" x="1086" y="-99.8" font-family="Times,serif" font-size="14.00" fill="#000000">UnderConstructionComponent</text>
</g>
<!-- UnderConstructionComponent&#45;&gt;AppModule -->
<g id="edge19" class="edge">
<title>UnderConstructionComponent&#45;&gt;AppModule</title>
<path fill="none" stroke="#000000" d="M1086,-122.1686C1086,-141.0898 1086,-168 1086,-168 1086,-168 2034.3044,-168 2034.3044,-168"/>
<polygon fill="#000000" stroke="#000000" points="2034.3044,-171.5001 2044.3044,-168 2034.3044,-164.5001 2034.3044,-171.5001"/>
</g>
<!-- UploadComponent -->
<g id="node19" class="node">
<title>UploadComponent</title>
<polygon fill="#ffffb3" stroke="#000000" points="973.045,-122 850.955,-122 850.955,-86 973.045,-86 973.045,-122"/>
<text text-anchor="middle" x="912" y="-99.8" font-family="Times,serif" font-size="14.00" fill="#000000">UploadComponent</text>
</g>
<!-- UploadComponent&#45;&gt;AppModule -->
<g id="edge20" class="edge">
<title>UploadComponent&#45;&gt;AppModule</title>
<path fill="none" stroke="#000000" d="M912,-122.308C912,-142.1455 912,-171 912,-171 912,-171 2034.2167,-171 2034.2167,-171"/>
<polygon fill="#000000" stroke="#000000" points="2034.2168,-174.5001 2044.2167,-171 2034.2167,-167.5001 2034.2168,-174.5001"/>
</g>
<!-- VegaViewerComponent -->
<g id="node20" class="node">
<title>VegaViewerComponent</title>
<polygon fill="#ffffb3" stroke="#000000" points="833.0618,-122 680.9382,-122 680.9382,-86 833.0618,-86 833.0618,-122"/>
<text text-anchor="middle" x="757" y="-99.8" font-family="Times,serif" font-size="14.00" fill="#000000">VegaViewerComponent</text>
</g>
<!-- VegaViewerComponent&#45;&gt;AppModule -->
<g id="edge21" class="edge">
<title>VegaViewerComponent&#45;&gt;AppModule</title>
<path fill="none" stroke="#000000" d="M757,-122.0267C757,-142.7672 757,-174 757,-174 757,-174 2034.0307,-174 2034.0307,-174"/>
<polygon fill="#000000" stroke="#000000" points="2034.0307,-177.5001 2044.0307,-174 2034.0306,-170.5001 2034.0307,-177.5001"/>
</g>
<!-- VisualizeComponent -->
<g id="node21" class="node">
<title>VisualizeComponent</title>
<polygon fill="#ffffb3" stroke="#000000" points="663.1993,-122 528.8007,-122 528.8007,-86 663.1993,-86 663.1993,-122"/>
<text text-anchor="middle" x="596" y="-99.8" font-family="Times,serif" font-size="14.00" fill="#000000">VisualizeComponent</text>
</g>
<!-- VisualizeComponent&#45;&gt;AppModule -->
<g id="edge22" class="edge">
<title>VisualizeComponent&#45;&gt;AppModule</title>
<path fill="none" stroke="#000000" d="M596,-122.1686C596,-143.498 596,-176 596,-176 596,-176 2034.2014,-176 2034.2014,-176"/>
<polygon fill="#000000" stroke="#000000" points="2034.2014,-179.5001 2044.2014,-176 2034.2014,-172.5001 2034.2014,-179.5001"/>
</g>
<!-- AppComponent  -->
<g id="node25" class="node">
<title>AppComponent </title>
<polygon fill="#80b1d3" stroke="#000000" points="2140.439,-252 2031.561,-252 2031.561,-216 2140.439,-216 2140.439,-252"/>
<text text-anchor="middle" x="2086" y="-229.8" font-family="Times,serif" font-size="14.00" fill="#000000">AppComponent </text>
</g>
<!-- AppModule&#45;&gt;AppComponent  -->
<g id="edge25" class="edge">
<title>AppModule&#45;&gt;AppComponent </title>
<path fill="none" stroke="#000000" stroke-dasharray="1,5" d="M2086,-187.1061C2086,-187.1061 2086,-205.991 2086,-205.991"/>
<polygon fill="#000000" stroke="#000000" points="2082.5001,-205.9909 2086,-215.991 2089.5001,-205.991 2082.5001,-205.9909"/>
</g>
<!-- AppRoutingModule -->
<g id="node23" class="node">
<title>AppRoutingModule</title>
<polygon fill="#8dd3c7" stroke="#000000" points="505.2744,-122 502.2744,-126 481.2744,-126 478.2744,-122 376.7256,-122 376.7256,-86 505.2744,-86 505.2744,-122"/>
<text text-anchor="middle" x="441" y="-99.8" font-family="Times,serif" font-size="14.00" fill="#000000">AppRoutingModule</text>
</g>
<!-- AppRoutingModule&#45;&gt;AppModule -->
<g id="edge23" class="edge">
<title>AppRoutingModule&#45;&gt;AppModule</title>
<path fill="none" stroke="#000000" d="M441,-122.1554C441,-144.3519 441,-179 441,-179 441,-179 2034.0999,-179 2034.0999,-179"/>
<polygon fill="#000000" stroke="#000000" points="2034.0999,-182.5001 2044.0999,-179 2034.0999,-175.5001 2034.0999,-182.5001"/>
</g>
<!-- MaterialModule -->
<g id="node24" class="node">
<title>MaterialModule</title>
<polygon fill="#8dd3c7" stroke="#000000" points="358.4706,-122 355.4706,-126 334.4706,-126 331.4706,-122 251.5294,-122 251.5294,-86 358.4706,-86 358.4706,-122"/>
<text text-anchor="middle" x="305" y="-99.8" font-family="Times,serif" font-size="14.00" fill="#000000">MaterialModule</text>
</g>
<!-- MaterialModule&#45;&gt;AppModule -->
<g id="edge24" class="edge">
<title>MaterialModule&#45;&gt;AppModule</title>
<path fill="none" stroke="#000000" d="M305,-122.0908C305,-145.1328 305,-182 305,-182 305,-182 2034.1656,-182 2034.1656,-182"/>
<polygon fill="#000000" stroke="#000000" points="2034.1657,-185.5001 2044.1656,-182 2034.1656,-178.5001 2034.1657,-185.5001"/>
</g>
<!-- AuthInterceptorService -->
<g id="node26" class="node">
<title>AuthInterceptorService</title>
<ellipse fill="#fdb462" stroke="#000000" cx="126" cy="-104" rx="101.8225" ry="18"/>
<text text-anchor="middle" x="126" y="-99.8" font-family="Times,serif" font-size="14.00" fill="#000000">AuthInterceptorService</text>
</g>
<!-- AuthInterceptorService&#45;&gt;AppModule -->
<g id="edge26" class="edge">
<title>AuthInterceptorService&#45;&gt;AppModule</title>
<path fill="none" stroke="#000000" d="M126,-122.3802C126,-146.2785 126,-185 126,-185 126,-185 2034.1559,-185 2034.1559,-185"/>
<polygon fill="#000000" stroke="#000000" points="2034.1559,-188.5001 2044.1559,-185 2034.1558,-181.5001 2034.1559,-188.5001"/>
</g>
</g>
</svg>
