<?xml version="1.0" encoding="UTF-8" standalone="no"?>
<!DOCTYPE svg PUBLIC "-//W3C//DTD SVG 1.1//EN"
 "http://www.w3.org/Graphics/SVG/1.1/DTD/svg11.dtd">
<!-- Generated by graphviz version 2.40.1 (20161225.0304)
 -->
<!-- Title: dependencies Pages: 1 -->
<svg width="989pt" height="284pt"
 viewBox="0.00 0.00 989.00 284.00" xmlns="http://www.w3.org/2000/svg" xmlns:xlink="http://www.w3.org/1999/xlink">
<g id="graph0" class="graph" transform="scale(1 1) rotate(0) translate(4 280)">
<title>dependencies</title>
<polygon fill="#ffffff" stroke="transparent" points="-4,4 -4,-280 985,-280 985,4 -4,4"/>
<text text-anchor="start" x="469.5091" y="-42.4" font-family="sans-serif" font-weight="bold" font-size="14.00" fill="#000000">Legend</text>
<polygon fill="#ffffb3" stroke="transparent" points="256.5,-10 256.5,-30 276.5,-30 276.5,-10 256.5,-10"/>
<text text-anchor="start" x="280.129" y="-15.4" font-family="sans-serif" font-size="14.00" fill="#000000"> &#160;Declarations</text>
<polygon fill="#8dd3c7" stroke="transparent" points="369.5,-10 369.5,-30 389.5,-30 389.5,-10 369.5,-10"/>
<text text-anchor="start" x="393.2251" y="-15.4" font-family="sans-serif" font-size="14.00" fill="#000000"> &#160;Module</text>
<polygon fill="#80b1d3" stroke="transparent" points="455.5,-10 455.5,-30 475.5,-30 475.5,-10 455.5,-10"/>
<text text-anchor="start" x="479.2812" y="-15.4" font-family="sans-serif" font-size="14.00" fill="#000000"> &#160;Bootstrap</text>
<polygon fill="#fdb462" stroke="transparent" points="552.5,-10 552.5,-30 572.5,-30 572.5,-10 552.5,-10"/>
<text text-anchor="start" x="576.1732" y="-15.4" font-family="sans-serif" font-size="14.00" fill="#000000"> &#160;Providers</text>
<polygon fill="#fb8072" stroke="transparent" points="648.5,-10 648.5,-30 668.5,-30 668.5,-10 648.5,-10"/>
<text text-anchor="start" x="672.2258" y="-15.4" font-family="sans-serif" font-size="14.00" fill="#000000"> &#160;Exports</text>
<g id="clust1" class="cluster">
<title>cluster_AppModule</title>
<polygon fill="none" stroke="#000000" stroke-dasharray="1,5" points="8,-70 8,-268 973,-268 973,-70 8,-70"/>
</g>
<g id="clust2" class="cluster">
<title>cluster_AppModule_declarations</title>
<polygon fill="none" stroke="#000000" points="843,-78 843,-130 965,-130 965,-78 843,-78"/>
</g>
<g id="clust4" class="cluster">
<title>cluster_AppModule_imports</title>
<polygon fill="none" stroke="#000000" points="449,-78 449,-130 835,-130 835,-78 449,-78"/>
</g>
<g id="clust6" class="cluster">
<title>cluster_AppModule_bootstrap</title>
<polygon fill="none" stroke="#000000" points="504,-208 504,-260 628,-260 628,-208 504,-208"/>
</g>
<g id="clust7" class="cluster">
<title>cluster_AppModule_providers</title>
<polygon fill="none" stroke="#000000" points="16,-78 16,-130 441,-130 441,-78 16,-78"/>
</g>
<!-- AppComponent -->
<g id="node1" class="node">
<title>AppComponent</title>
<polygon fill="#ffffb3" stroke="#000000" points="956.9399,-122 851.0601,-122 851.0601,-86 956.9399,-86 956.9399,-122"/>
<text text-anchor="middle" x="904" y="-99.8" font-family="Times,serif" font-size="14.00" fill="#000000">AppComponent</text>
</g>
<!-- AppModule -->
<g id="node2" class="node">
<title>AppModule</title>
<polygon fill="#8dd3c7" stroke="#000000" points="607.6571,-187 604.6571,-191 583.6571,-191 580.6571,-187 524.3429,-187 524.3429,-151 607.6571,-151 607.6571,-187"/>
<text text-anchor="middle" x="566" y="-164.8" font-family="Times,serif" font-size="14.00" fill="#000000">AppModule</text>
</g>
<!-- AppComponent&#45;&gt;AppModule -->
<g id="edge1" class="edge">
<title>AppComponent&#45;&gt;AppModule</title>
<path fill="none" stroke="#000000" d="M904,-122.2843C904,-143.3211 904,-175 904,-175 904,-175 617.7844,-175 617.7844,-175"/>
<polygon fill="#000000" stroke="#000000" points="617.7845,-171.5001 607.7844,-175 617.7844,-178.5001 617.7845,-171.5001"/>
</g>
<!-- AppComponent  -->
<g id="node6" class="node">
<title>AppComponent </title>
<polygon fill="#80b1d3" stroke="#000000" points="620.439,-252 511.561,-252 511.561,-216 620.439,-216 620.439,-252"/>
<text text-anchor="middle" x="566" y="-229.8" font-family="Times,serif" font-size="14.00" fill="#000000">AppComponent </text>
</g>
<!-- AppModule&#45;&gt;AppComponent  -->
<g id="edge5" class="edge">
<title>AppModule&#45;&gt;AppComponent </title>
<path fill="none" stroke="#000000" stroke-dasharray="1,5" d="M566,-187.1061C566,-187.1061 566,-205.991 566,-205.991"/>
<polygon fill="#000000" stroke="#000000" points="562.5001,-205.9909 566,-215.991 569.5001,-205.991 562.5001,-205.9909"/>
</g>
<!-- AppRoutingModule -->
<g id="node3" class="node">
<title>AppRoutingModule</title>
<polygon fill="#8dd3c7" stroke="#000000" points="827.2744,-122 824.2744,-126 803.2744,-126 800.2744,-122 698.7256,-122 698.7256,-86 827.2744,-86 827.2744,-122"/>
<text text-anchor="middle" x="763" y="-99.8" font-family="Times,serif" font-size="14.00" fill="#000000">AppRoutingModule</text>
</g>
<!-- AppRoutingModule&#45;&gt;AppModule -->
<g id="edge2" class="edge">
<title>AppRoutingModule&#45;&gt;AppModule</title>
<path fill="none" stroke="#000000" d="M763,-122.0225C763,-139.3734 763,-163 763,-163 763,-163 617.7786,-163 617.7786,-163"/>
<polygon fill="#000000" stroke="#000000" points="617.7787,-159.5001 607.7786,-163 617.7786,-166.5001 617.7787,-159.5001"/>
</g>
<!-- MaterialModule -->
<g id="node4" class="node">
<title>MaterialModule</title>
<polygon fill="#8dd3c7" stroke="#000000" points="680.4706,-122 677.4706,-126 656.4706,-126 653.4706,-122 573.5294,-122 573.5294,-86 680.4706,-86 680.4706,-122"/>
<text text-anchor="middle" x="627" y="-99.8" font-family="Times,serif" font-size="14.00" fill="#000000">MaterialModule</text>
</g>
<!-- MaterialModule&#45;&gt;AppModule -->
<g id="edge3" class="edge">
<title>MaterialModule&#45;&gt;AppModule</title>
<path fill="none" stroke="#000000" d="M590.6715,-122.1061C590.6715,-122.1061 590.6715,-140.991 590.6715,-140.991"/>
<polygon fill="#000000" stroke="#000000" points="587.1715,-140.9909 590.6715,-150.991 594.1715,-140.991 587.1715,-140.9909"/>
</g>
<!-- SharedModule -->
<g id="node5" class="node">
<title>SharedModule</title>
<polygon fill="#8dd3c7" stroke="#000000" points="555.4231,-122 552.4231,-126 531.4231,-126 528.4231,-122 456.5769,-122 456.5769,-86 555.4231,-86 555.4231,-122"/>
<text text-anchor="middle" x="506" y="-99.8" font-family="Times,serif" font-size="14.00" fill="#000000">SharedModule</text>
</g>
<!-- SharedModule&#45;&gt;AppModule -->
<g id="edge4" class="edge">
<title>SharedModule&#45;&gt;AppModule</title>
<path fill="none" stroke="#000000" d="M539.6915,-122.1061C539.6915,-122.1061 539.6915,-140.991 539.6915,-140.991"/>
<polygon fill="#000000" stroke="#000000" points="536.1915,-140.9909 539.6915,-150.991 543.1915,-140.991 536.1915,-140.9909"/>
</g>
<!-- AuthInterceptorService -->
<g id="node7" class="node">
<title>AuthInterceptorService</title>
<ellipse fill="#fdb462" stroke="#000000" cx="331" cy="-104" rx="101.8225" ry="18"/>
<text text-anchor="middle" x="331" y="-99.8" font-family="Times,serif" font-size="14.00" fill="#000000">AuthInterceptorService</text>
</g>
<!-- AuthInterceptorService&#45;&gt;AppModule -->
<g id="edge6" class="edge">
<title>AuthInterceptorService&#45;&gt;AppModule</title>
<path fill="none" stroke="#000000" d="M331,-122.0225C331,-139.3734 331,-163 331,-163 331,-163 514.2575,-163 514.2575,-163"/>
<polygon fill="#000000" stroke="#000000" points="514.2575,-166.5001 524.2575,-163 514.2575,-159.5001 514.2575,-166.5001"/>
</g>
<!-- BreadCrumbsService -->
<g id="node8" class="node">
<title>BreadCrumbsService</title>
<ellipse fill="#fdb462" stroke="#000000" cx="118" cy="-104" rx="93.7572" ry="18"/>
<text text-anchor="middle" x="118" y="-99.8" font-family="Times,serif" font-size="14.00" fill="#000000">BreadCrumbsService</text>
</g>
<!-- BreadCrumbsService&#45;&gt;AppModule -->
<g id="edge7" class="edge">
<title>BreadCrumbsService&#45;&gt;AppModule</title>
<path fill="none" stroke="#000000" d="M118,-122.2843C118,-143.3211 118,-175 118,-175 118,-175 514.2555,-175 514.2555,-175"/>
<polygon fill="#000000" stroke="#000000" points="514.2556,-178.5001 524.2555,-175 514.2555,-171.5001 514.2556,-178.5001"/>
</g>
</g>
</svg>
