<?xml version="1.0" encoding="UTF-8" standalone="no"?>
<!DOCTYPE svg PUBLIC "-//W3C//DTD SVG 1.1//EN"
 "http://www.w3.org/Graphics/SVG/1.1/DTD/svg11.dtd">
<!-- Generated by graphviz version 2.40.1 (20161225.0304)
 -->
<!-- Title: dependencies Pages: 1 -->
<svg width="3192pt" height="284pt"
 viewBox="0.00 0.00 3192.00 284.00" xmlns="http://www.w3.org/2000/svg" xmlns:xlink="http://www.w3.org/1999/xlink">
<g id="graph0" class="graph" transform="scale(1 1) rotate(0) translate(4 280)">
<title>dependencies</title>
<polygon fill="#ffffff" stroke="transparent" points="-4,4 -4,-280 3188,-280 3188,4 -4,4"/>
<text text-anchor="start" x="1571.0091" y="-42.4" font-family="sans-serif" font-weight="bold" font-size="14.00" fill="#000000">Legend</text>
<polygon fill="#ffffb3" stroke="transparent" points="1358,-10 1358,-30 1378,-30 1378,-10 1358,-10"/>
<text text-anchor="start" x="1381.629" y="-15.4" font-family="sans-serif" font-size="14.00" fill="#000000"> &#160;Declarations</text>
<polygon fill="#8dd3c7" stroke="transparent" points="1471,-10 1471,-30 1491,-30 1491,-10 1471,-10"/>
<text text-anchor="start" x="1494.7251" y="-15.4" font-family="sans-serif" font-size="14.00" fill="#000000"> &#160;Module</text>
<polygon fill="#80b1d3" stroke="transparent" points="1557,-10 1557,-30 1577,-30 1577,-10 1557,-10"/>
<text text-anchor="start" x="1580.7812" y="-15.4" font-family="sans-serif" font-size="14.00" fill="#000000"> &#160;Bootstrap</text>
<polygon fill="#fdb462" stroke="transparent" points="1654,-10 1654,-30 1674,-30 1674,-10 1654,-10"/>
<text text-anchor="start" x="1677.6732" y="-15.4" font-family="sans-serif" font-size="14.00" fill="#000000"> &#160;Providers</text>
<polygon fill="#fb8072" stroke="transparent" points="1750,-10 1750,-30 1770,-30 1770,-10 1750,-10"/>
<text text-anchor="start" x="1773.7258" y="-15.4" font-family="sans-serif" font-size="14.00" fill="#000000"> &#160;Exports</text>
<g id="clust1" class="cluster">
<title>cluster_AppModule</title>
<polygon fill="none" stroke="#000000" stroke-dasharray="1,5" points="8,-70 8,-268 3176,-268 3176,-70 8,-70"/>
</g>
<g id="clust2" class="cluster">
<title>cluster_AppModule_declarations</title>
<polygon fill="none" stroke="#000000" points="638,-78 638,-130 3168,-130 3168,-78 638,-78"/>
</g>
<g id="clust20" class="cluster">
<title>cluster_AppModule_imports</title>
<polygon fill="none" stroke="#000000" points="244,-78 244,-130 630,-130 630,-78 244,-78"/>
</g>
<g id="clust22" class="cluster">
<title>cluster_AppModule_bootstrap</title>
<polygon fill="none" stroke="#000000" points="1719,-208 1719,-260 1843,-260 1843,-208 1719,-208"/>
</g>
<g id="clust23" class="cluster">
<title>cluster_AppModule_providers</title>
<polygon fill="none" stroke="#000000" points="16,-78 16,-130 236,-130 236,-78 16,-78"/>
</g>
<!-- AboutComponent -->
<g id="node1" class="node">
<title>AboutComponent</title>
<polygon fill="#ffffb3" stroke="#000000" points="3160.3301,-122 3043.6699,-122 3043.6699,-86 3160.3301,-86 3160.3301,-122"/>
<text text-anchor="middle" x="3102" y="-99.8" font-family="Times,serif" font-size="14.00" fill="#000000">AboutComponent</text>
</g>
<!-- AppModule -->
<g id="node18" class="node">
<title>AppModule</title>
<polygon fill="#8dd3c7" stroke="#000000" points="1822.6571,-187 1819.6571,-191 1798.6571,-191 1795.6571,-187 1739.3429,-187 1739.3429,-151 1822.6571,-151 1822.6571,-187"/>
<text text-anchor="middle" x="1781" y="-164.8" font-family="Times,serif" font-size="14.00" fill="#000000">AppModule</text>
</g>
<!-- AboutComponent&#45;&gt;AppModule -->
<g id="edge1" class="edge">
<title>AboutComponent&#45;&gt;AppModule</title>
<path fill="none" stroke="#000000" d="M3102,-122.1532C3102,-145.7566 3102,-184 3102,-184 3102,-184 1832.7167,-184 1832.7167,-184"/>
<polygon fill="#000000" stroke="#000000" points="1832.7167,-180.5001 1822.7167,-184 1832.7167,-187.5001 1832.7167,-180.5001"/>
</g>
<!-- AlertComponent -->
<g id="node2" class="node">
<title>AlertComponent</title>
<polygon fill="#ffffb3" stroke="#000000" points="3026.0954,-122 2915.9046,-122 2915.9046,-86 3026.0954,-86 3026.0954,-122"/>
<text text-anchor="middle" x="2971" y="-99.8" font-family="Times,serif" font-size="14.00" fill="#000000">AlertComponent</text>
</g>
<!-- AlertComponent&#45;&gt;AppModule -->
<g id="edge2" class="edge">
<title>AlertComponent&#45;&gt;AppModule</title>
<path fill="none" stroke="#000000" d="M2952.6508,-122.2921C2952.6508,-144.2057 2952.6508,-178 2952.6508,-178 2952.6508,-178 1832.6997,-178 1832.6997,-178"/>
<polygon fill="#000000" stroke="#000000" points="1832.6997,-174.5001 1822.6997,-178 1832.6996,-181.5001 1832.6997,-174.5001"/>
</g>
<!-- AlertComponent&#45;&gt;AppModule -->
<g id="edge3" class="edge">
<title>AlertComponent&#45;&gt;AppModule</title>
<path fill="none" stroke="#000000" d="M2989.3492,-122.2479C2989.3492,-145.0179 2989.3492,-181 2989.3492,-181 2989.3492,-181 1832.945,-181 1832.945,-181"/>
<polygon fill="#000000" stroke="#000000" points="1832.9451,-177.5001 1822.945,-181 1832.945,-184.5001 1832.9451,-177.5001"/>
</g>
<!-- AppComponent -->
<g id="node3" class="node">
<title>AppComponent</title>
<polygon fill="#ffffb3" stroke="#000000" points="2897.9399,-122 2792.0601,-122 2792.0601,-86 2897.9399,-86 2897.9399,-122"/>
<text text-anchor="middle" x="2845" y="-99.8" font-family="Times,serif" font-size="14.00" fill="#000000">AppComponent</text>
</g>
<!-- AppComponent&#45;&gt;AppModule -->
<g id="edge4" class="edge">
<title>AppComponent&#45;&gt;AppModule</title>
<path fill="none" stroke="#000000" d="M2845,-122.0267C2845,-142.7672 2845,-174 2845,-174 2845,-174 1832.7101,-174 1832.7101,-174"/>
<polygon fill="#000000" stroke="#000000" points="1832.7101,-170.5001 1822.7101,-174 1832.71,-177.5001 1832.7101,-170.5001"/>
</g>
<!-- CallbackComponent -->
<g id="node4" class="node">
<title>CallbackComponent</title>
<polygon fill="#ffffb3" stroke="#000000" points="2774.594,-122 2643.406,-122 2643.406,-86 2774.594,-86 2774.594,-122"/>
<text text-anchor="middle" x="2709" y="-99.8" font-family="Times,serif" font-size="14.00" fill="#000000">CallbackComponent</text>
</g>
<!-- CallbackComponent&#45;&gt;AppModule -->
<g id="edge5" class="edge">
<title>CallbackComponent&#45;&gt;AppModule</title>
<path fill="none" stroke="#000000" d="M2709,-122.308C2709,-142.1455 2709,-171 2709,-171 2709,-171 1832.6771,-171 1832.6771,-171"/>
<polygon fill="#000000" stroke="#000000" points="1832.6771,-167.5001 1822.6771,-171 1832.677,-174.5001 1832.6771,-167.5001"/>
</g>
<!-- DataComponent -->
<g id="node5" class="node">
<title>DataComponent</title>
<polygon fill="#ffffb3" stroke="#000000" points="2625.7591,-122 2518.2409,-122 2518.2409,-86 2625.7591,-86 2625.7591,-122"/>
<text text-anchor="middle" x="2572" y="-99.8" font-family="Times,serif" font-size="14.00" fill="#000000">DataComponent</text>
</g>
<!-- DataComponent&#45;&gt;AppModule -->
<g id="edge6" class="edge">
<title>DataComponent&#45;&gt;AppModule</title>
<path fill="none" stroke="#000000" d="M2572,-122.1686C2572,-141.0898 2572,-168 2572,-168 2572,-168 1832.6911,-168 1832.6911,-168"/>
<polygon fill="#000000" stroke="#000000" points="1832.6911,-164.5001 1822.6911,-168 1832.6911,-171.5001 1832.6911,-164.5001"/>
</g>
<!-- DataTableComponent -->
<g id="node6" class="node">
<title>DataTableComponent</title>
<polygon fill="#ffffb3" stroke="#000000" points="2499.6317,-122 2360.3683,-122 2360.3683,-86 2499.6317,-86 2499.6317,-122"/>
<text text-anchor="middle" x="2430" y="-99.8" font-family="Times,serif" font-size="14.00" fill="#000000">DataTableComponent</text>
</g>
<!-- DataTableComponent&#45;&gt;AppModule -->
<g id="edge7" class="edge">
<title>DataTableComponent&#45;&gt;AppModule</title>
<path fill="none" stroke="#000000" d="M2430,-122.302C2430,-140.2699 2430,-165 2430,-165 2430,-165 1833.0826,-165 1833.0826,-165"/>
<polygon fill="#000000" stroke="#000000" points="1833.0827,-161.5001 1823.0826,-165 1833.0826,-168.5001 1833.0827,-161.5001"/>
</g>
<!-- FileEditComponent -->
<g id="node7" class="node">
<title>FileEditComponent</title>
<polygon fill="#ffffb3" stroke="#000000" points="2342.4454,-122 2215.5546,-122 2215.5546,-86 2342.4454,-86 2342.4454,-122"/>
<text text-anchor="middle" x="2279" y="-99.8" font-family="Times,serif" font-size="14.00" fill="#000000">FileEditComponent</text>
</g>
<!-- FileEditComponent&#45;&gt;AppModule -->
<g id="edge8" class="edge">
<title>FileEditComponent&#45;&gt;AppModule</title>
<path fill="none" stroke="#000000" d="M2279,-122.0352C2279,-138.7344 2279,-161 2279,-161 2279,-161 1833.03,-161 1833.03,-161"/>
<polygon fill="#000000" stroke="#000000" points="1833.03,-157.5001 1823.03,-161 1833.03,-164.5001 1833.03,-157.5001"/>
</g>
<!-- FileTableComponent -->
<g id="node8" class="node">
<title>FileTableComponent</title>
<polygon fill="#ffffb3" stroke="#000000" points="2197.4832,-122 2062.5168,-122 2062.5168,-86 2197.4832,-86 2197.4832,-122"/>
<text text-anchor="middle" x="2130" y="-99.8" font-family="Times,serif" font-size="14.00" fill="#000000">FileTableComponent</text>
</g>
<!-- FileTableComponent&#45;&gt;AppModule -->
<g id="edge9" class="edge">
<title>FileTableComponent&#45;&gt;AppModule</title>
<path fill="none" stroke="#000000" d="M2130,-122.2819C2130,-137.9478 2130,-158 2130,-158 2130,-158 1832.7509,-158 1832.7509,-158"/>
<polygon fill="#000000" stroke="#000000" points="1832.7509,-154.5001 1822.7509,-158 1832.7509,-161.5001 1832.7509,-154.5001"/>
</g>
<!-- FourComponent -->
<g id="node9" class="node">
<title>FourComponent</title>
<polygon fill="#ffffb3" stroke="#000000" points="2044.7758,-122 1937.2242,-122 1937.2242,-86 2044.7758,-86 2044.7758,-122"/>
<text text-anchor="middle" x="1991" y="-99.8" font-family="Times,serif" font-size="14.00" fill="#000000">FourComponent</text>
</g>
<!-- FourComponent&#45;&gt;AppModule -->
<g id="edge10" class="edge">
<title>FourComponent&#45;&gt;AppModule</title>
<path fill="none" stroke="#000000" d="M1991,-122.1243C1991,-136.7832 1991,-155 1991,-155 1991,-155 1832.7403,-155 1832.7403,-155"/>
<polygon fill="#000000" stroke="#000000" points="1832.7404,-151.5001 1822.7403,-155 1832.7403,-158.5001 1832.7404,-151.5001"/>
</g>
<!-- HomeComponent -->
<g id="node10" class="node">
<title>HomeComponent</title>
<polygon fill="#ffffb3" stroke="#000000" points="1918.5451,-122 1803.4549,-122 1803.4549,-86 1918.5451,-86 1918.5451,-122"/>
<text text-anchor="middle" x="1861" y="-99.8" font-family="Times,serif" font-size="14.00" fill="#000000">HomeComponent</text>
</g>
<!-- HomeComponent&#45;&gt;AppModule -->
<g id="edge11" class="edge">
<title>HomeComponent&#45;&gt;AppModule</title>
<path fill="none" stroke="#000000" d="M1813.0281,-122.1061C1813.0281,-122.1061 1813.0281,-140.991 1813.0281,-140.991"/>
<polygon fill="#000000" stroke="#000000" points="1809.5281,-140.9909 1813.0281,-150.991 1816.5281,-140.991 1809.5281,-140.9909"/>
</g>
<!-- NewSimulationComponent -->
<g id="node11" class="node">
<title>NewSimulationComponent</title>
<polygon fill="#ffffb3" stroke="#000000" points="1785.7105,-122 1616.2895,-122 1616.2895,-86 1785.7105,-86 1785.7105,-122"/>
<text text-anchor="middle" x="1701" y="-99.8" font-family="Times,serif" font-size="14.00" fill="#000000">NewSimulationComponent</text>
</g>
<!-- NewSimulationComponent&#45;&gt;AppModule -->
<g id="edge12" class="edge">
<title>NewSimulationComponent&#45;&gt;AppModule</title>
<path fill="none" stroke="#000000" d="M1762.3885,-122.1061C1762.3885,-122.1061 1762.3885,-140.991 1762.3885,-140.991"/>
<polygon fill="#000000" stroke="#000000" points="1758.8886,-140.9909 1762.3885,-150.991 1765.8886,-140.991 1758.8886,-140.9909"/>
</g>
<!-- PastSimulationComponent -->
<g id="node12" class="node">
<title>PastSimulationComponent</title>
<polygon fill="#ffffb3" stroke="#000000" points="1598.115,-122 1431.885,-122 1431.885,-86 1598.115,-86 1598.115,-122"/>
<text text-anchor="middle" x="1515" y="-99.8" font-family="Times,serif" font-size="14.00" fill="#000000">PastSimulationComponent</text>
</g>
<!-- PastSimulationComponent&#45;&gt;AppModule -->
<g id="edge13" class="edge">
<title>PastSimulationComponent&#45;&gt;AppModule</title>
<path fill="none" stroke="#000000" d="M1515,-122.1243C1515,-136.7832 1515,-155 1515,-155 1515,-155 1729.1449,-155 1729.1449,-155"/>
<polygon fill="#000000" stroke="#000000" points="1729.1449,-158.5001 1739.1449,-155 1729.1448,-151.5001 1729.1449,-158.5001"/>
</g>
<!-- ProfileComponent -->
<g id="node13" class="node">
<title>ProfileComponent</title>
<polygon fill="#ffffb3" stroke="#000000" points="1413.9328,-122 1294.0672,-122 1294.0672,-86 1413.9328,-86 1413.9328,-122"/>
<text text-anchor="middle" x="1354" y="-99.8" font-family="Times,serif" font-size="14.00" fill="#000000">ProfileComponent</text>
</g>
<!-- ProfileComponent&#45;&gt;AppModule -->
<g id="edge14" class="edge">
<title>ProfileComponent&#45;&gt;AppModule</title>
<path fill="none" stroke="#000000" d="M1354,-122.2819C1354,-137.9478 1354,-158 1354,-158 1354,-158 1729.28,-158 1729.28,-158"/>
<polygon fill="#000000" stroke="#000000" points="1729.28,-161.5001 1739.28,-158 1729.2799,-154.5001 1729.28,-161.5001"/>
</g>
<!-- SimulateComponent -->
<g id="node14" class="node">
<title>SimulateComponent</title>
<polygon fill="#ffffb3" stroke="#000000" points="1276.6066,-122 1145.3934,-122 1145.3934,-86 1276.6066,-86 1276.6066,-122"/>
<text text-anchor="middle" x="1211" y="-99.8" font-family="Times,serif" font-size="14.00" fill="#000000">SimulateComponent</text>
</g>
<!-- SimulateComponent&#45;&gt;AppModule -->
<g id="edge15" class="edge">
<title>SimulateComponent&#45;&gt;AppModule</title>
<path fill="none" stroke="#000000" d="M1211,-122.0352C1211,-138.7344 1211,-161 1211,-161 1211,-161 1729.0865,-161 1729.0865,-161"/>
<polygon fill="#000000" stroke="#000000" points="1729.0866,-164.5001 1739.0865,-161 1729.0865,-157.5001 1729.0866,-164.5001"/>
</g>
<!-- UnderConstructionComponent -->
<g id="node15" class="node">
<title>UnderConstructionComponent</title>
<polygon fill="#ffffb3" stroke="#000000" points="1127.1427,-122 938.8573,-122 938.8573,-86 1127.1427,-86 1127.1427,-122"/>
<text text-anchor="middle" x="1033" y="-99.8" font-family="Times,serif" font-size="14.00" fill="#000000">UnderConstructionComponent</text>
</g>
<!-- UnderConstructionComponent&#45;&gt;AppModule -->
<g id="edge16" class="edge">
<title>UnderConstructionComponent&#45;&gt;AppModule</title>
<path fill="none" stroke="#000000" d="M1033,-122.302C1033,-140.2699 1033,-165 1033,-165 1033,-165 1729.1815,-165 1729.1815,-165"/>
<polygon fill="#000000" stroke="#000000" points="1729.1815,-168.5001 1739.1815,-165 1729.1814,-161.5001 1729.1815,-168.5001"/>
</g>
<!-- UploadComponent -->
<g id="node16" class="node">
<title>UploadComponent</title>
<polygon fill="#ffffb3" stroke="#000000" points="920.045,-122 797.955,-122 797.955,-86 920.045,-86 920.045,-122"/>
<text text-anchor="middle" x="859" y="-99.8" font-family="Times,serif" font-size="14.00" fill="#000000">UploadComponent</text>
</g>
<!-- UploadComponent&#45;&gt;AppModule -->
<g id="edge17" class="edge">
<title>UploadComponent&#45;&gt;AppModule</title>
<path fill="none" stroke="#000000" d="M859,-122.1686C859,-141.0898 859,-168 859,-168 859,-168 1729.2906,-168 1729.2906,-168"/>
<polygon fill="#000000" stroke="#000000" points="1729.2906,-171.5001 1739.2906,-168 1729.2905,-164.5001 1729.2906,-171.5001"/>
</g>
<!-- VisualizeComponent -->
<g id="node17" class="node">
<title>VisualizeComponent</title>
<polygon fill="#ffffb3" stroke="#000000" points="780.1993,-122 645.8007,-122 645.8007,-86 780.1993,-86 780.1993,-122"/>
<text text-anchor="middle" x="713" y="-99.8" font-family="Times,serif" font-size="14.00" fill="#000000">VisualizeComponent</text>
</g>
<!-- VisualizeComponent&#45;&gt;AppModule -->
<g id="edge18" class="edge">
<title>VisualizeComponent&#45;&gt;AppModule</title>
<path fill="none" stroke="#000000" d="M713,-122.308C713,-142.1455 713,-171 713,-171 713,-171 1729.1331,-171 1729.1331,-171"/>
<polygon fill="#000000" stroke="#000000" points="1729.1332,-174.5001 1739.1331,-171 1729.1331,-167.5001 1729.1332,-174.5001"/>
</g>
<!-- AppComponent  -->
<g id="node22" class="node">
<title>AppComponent </title>
<polygon fill="#80b1d3" stroke="#000000" points="1835.439,-252 1726.561,-252 1726.561,-216 1835.439,-216 1835.439,-252"/>
<text text-anchor="middle" x="1781" y="-229.8" font-family="Times,serif" font-size="14.00" fill="#000000">AppComponent </text>
</g>
<!-- AppModule&#45;&gt;AppComponent  -->
<g id="edge22" class="edge">
<title>AppModule&#45;&gt;AppComponent </title>
<path fill="none" stroke="#000000" stroke-dasharray="1,5" d="M1781,-187.1061C1781,-187.1061 1781,-205.991 1781,-205.991"/>
<polygon fill="#000000" stroke="#000000" points="1777.5001,-205.9909 1781,-215.991 1784.5001,-205.991 1777.5001,-205.9909"/>
</g>
<!-- AppRoutingModule -->
<g id="node19" class="node">
<title>AppRoutingModule</title>
<polygon fill="#8dd3c7" stroke="#000000" points="622.2744,-122 619.2744,-126 598.2744,-126 595.2744,-122 493.7256,-122 493.7256,-86 622.2744,-86 622.2744,-122"/>
<text text-anchor="middle" x="558" y="-99.8" font-family="Times,serif" font-size="14.00" fill="#000000">AppRoutingModule</text>
</g>
<!-- AppRoutingModule&#45;&gt;AppModule -->
<g id="edge19" class="edge">
<title>AppRoutingModule&#45;&gt;AppModule</title>
<path fill="none" stroke="#000000" d="M558,-122.0267C558,-142.7672 558,-174 558,-174 558,-174 1729.2554,-174 1729.2554,-174"/>
<polygon fill="#000000" stroke="#000000" points="1729.2554,-177.5001 1739.2554,-174 1729.2553,-170.5001 1729.2554,-177.5001"/>
</g>
<!-- MaterialModule -->
<g id="node20" class="node">
<title>MaterialModule</title>
<polygon fill="#8dd3c7" stroke="#000000" points="475.4706,-122 472.4706,-126 451.4706,-126 448.4706,-122 368.5294,-122 368.5294,-86 475.4706,-86 475.4706,-122"/>
<text text-anchor="middle" x="422" y="-99.8" font-family="Times,serif" font-size="14.00" fill="#000000">MaterialModule</text>
</g>
<!-- MaterialModule&#45;&gt;AppModule -->
<g id="edge20" class="edge">
<title>MaterialModule&#45;&gt;AppModule</title>
<path fill="none" stroke="#000000" d="M422,-122.2921C422,-144.2057 422,-178 422,-178 422,-178 1729.2125,-178 1729.2125,-178"/>
<polygon fill="#000000" stroke="#000000" points="1729.2125,-181.5001 1739.2125,-178 1729.2124,-174.5001 1729.2125,-181.5001"/>
</g>
<!-- SharedModule -->
<g id="node21" class="node">
<title>SharedModule</title>
<polygon fill="#8dd3c7" stroke="#000000" points="350.4231,-122 347.4231,-126 326.4231,-126 323.4231,-122 251.5769,-122 251.5769,-86 350.4231,-86 350.4231,-122"/>
<text text-anchor="middle" x="301" y="-99.8" font-family="Times,serif" font-size="14.00" fill="#000000">SharedModule</text>
</g>
<!-- SharedModule&#45;&gt;AppModule -->
<g id="edge21" class="edge">
<title>SharedModule&#45;&gt;AppModule</title>
<path fill="none" stroke="#000000" d="M301,-122.2479C301,-145.0179 301,-181 301,-181 301,-181 1729.0905,-181 1729.0905,-181"/>
<polygon fill="#000000" stroke="#000000" points="1729.0905,-184.5001 1739.0905,-181 1729.0905,-177.5001 1729.0905,-184.5001"/>
</g>
<!-- AuthInterceptorService -->
<g id="node23" class="node">
<title>AuthInterceptorService</title>
<ellipse fill="#fdb462" stroke="#000000" cx="126" cy="-104" rx="101.8225" ry="18"/>
<text text-anchor="middle" x="126" y="-99.8" font-family="Times,serif" font-size="14.00" fill="#000000">AuthInterceptorService</text>
</g>
<!-- AuthInterceptorService&#45;&gt;AppModule -->
<g id="edge23" class="edge">
<title>AuthInterceptorService&#45;&gt;AppModule</title>
<path fill="none" stroke="#000000" d="M126,-122.1532C126,-145.7566 126,-184 126,-184 126,-184 1729.2619,-184 1729.2619,-184"/>
<polygon fill="#000000" stroke="#000000" points="1729.262,-187.5001 1739.2619,-184 1729.2619,-180.5001 1729.262,-187.5001"/>
</g>
</g>
</svg>
