<?xml version="1.0" encoding="UTF-8" standalone="no"?>
<!DOCTYPE svg PUBLIC "-//W3C//DTD SVG 1.1//EN"
 "http://www.w3.org/Graphics/SVG/1.1/DTD/svg11.dtd">
<!-- Generated by graphviz version 2.40.1 (20161225.0304)
 -->
<!-- Title: dependencies Pages: 1 -->
<svg width="1141pt" height="284pt"
 viewBox="0.00 0.00 1141.00 284.00" xmlns="http://www.w3.org/2000/svg" xmlns:xlink="http://www.w3.org/1999/xlink">
<g id="graph0" class="graph" transform="scale(1 1) rotate(0) translate(4 280)">
<title>dependencies</title>
<polygon fill="#ffffff" stroke="transparent" points="-4,4 -4,-280 1137,-280 1137,4 -4,4"/>
<text text-anchor="start" x="545.5091" y="-42.4" font-family="sans-serif" font-weight="bold" font-size="14.00" fill="#000000">Legend</text>
<polygon fill="#ffffb3" stroke="transparent" points="332.5,-10 332.5,-30 352.5,-30 352.5,-10 332.5,-10"/>
<text text-anchor="start" x="356.129" y="-15.4" font-family="sans-serif" font-size="14.00" fill="#000000"> &#160;Declarations</text>
<polygon fill="#8dd3c7" stroke="transparent" points="445.5,-10 445.5,-30 465.5,-30 465.5,-10 445.5,-10"/>
<text text-anchor="start" x="469.2251" y="-15.4" font-family="sans-serif" font-size="14.00" fill="#000000"> &#160;Module</text>
<polygon fill="#80b1d3" stroke="transparent" points="531.5,-10 531.5,-30 551.5,-30 551.5,-10 531.5,-10"/>
<text text-anchor="start" x="555.2812" y="-15.4" font-family="sans-serif" font-size="14.00" fill="#000000"> &#160;Bootstrap</text>
<polygon fill="#fdb462" stroke="transparent" points="628.5,-10 628.5,-30 648.5,-30 648.5,-10 628.5,-10"/>
<text text-anchor="start" x="652.1732" y="-15.4" font-family="sans-serif" font-size="14.00" fill="#000000"> &#160;Providers</text>
<polygon fill="#fb8072" stroke="transparent" points="724.5,-10 724.5,-30 744.5,-30 744.5,-10 724.5,-10"/>
<text text-anchor="start" x="748.2258" y="-15.4" font-family="sans-serif" font-size="14.00" fill="#000000"> &#160;Exports</text>
<g id="clust1" class="cluster">
<title>cluster_AppModule</title>
<polygon fill="none" stroke="#000000" stroke-dasharray="1,5" points="8,-70 8,-268 1125,-268 1125,-70 8,-70"/>
</g>
<g id="clust2" class="cluster">
<title>cluster_AppModule_declarations</title>
<polygon fill="none" stroke="#000000" points="995,-78 995,-130 1117,-130 1117,-78 995,-78"/>
</g>
<g id="clust4" class="cluster">
<title>cluster_AppModule_imports</title>
<polygon fill="none" stroke="#000000" points="244,-78 244,-130 987,-130 987,-78 244,-78"/>
</g>
<g id="clust6" class="cluster">
<title>cluster_AppModule_bootstrap</title>
<polygon fill="none" stroke="#000000" points="547,-208 547,-260 671,-260 671,-208 547,-208"/>
</g>
<g id="clust7" class="cluster">
<title>cluster_AppModule_providers</title>
<polygon fill="none" stroke="#000000" points="16,-78 16,-130 236,-130 236,-78 16,-78"/>
</g>
<!-- AppComponent -->
<g id="node1" class="node">
<title>AppComponent</title>
<polygon fill="#ffffb3" stroke="#000000" points="1108.9399,-122 1003.0601,-122 1003.0601,-86 1108.9399,-86 1108.9399,-122"/>
<text text-anchor="middle" x="1056" y="-99.8" font-family="Times,serif" font-size="14.00" fill="#000000">AppComponent</text>
</g>
<!-- AppModule -->
<g id="node2" class="node">
<title>AppModule</title>
<polygon fill="#8dd3c7" stroke="#000000" points="650.6571,-187 647.6571,-191 626.6571,-191 623.6571,-187 567.3429,-187 567.3429,-151 650.6571,-151 650.6571,-187"/>
<text text-anchor="middle" x="609" y="-164.8" font-family="Times,serif" font-size="14.00" fill="#000000">AppModule</text>
</g>
<!-- AppComponent&#45;&gt;AppModule -->
<g id="edge1" class="edge">
<title>AppComponent&#45;&gt;AppModule</title>
<path fill="none" stroke="#000000" d="M1056,-122.2921C1056,-144.2057 1056,-178 1056,-178 1056,-178 661.0527,-178 661.0527,-178"/>
<polygon fill="#000000" stroke="#000000" points="661.0527,-174.5001 651.0527,-178 661.0526,-181.5001 661.0527,-174.5001"/>
</g>
<!-- AppComponent  -->
<g id="node9" class="node">
<title>AppComponent </title>
<polygon fill="#80b1d3" stroke="#000000" points="663.439,-252 554.561,-252 554.561,-216 663.439,-216 663.439,-252"/>
<text text-anchor="middle" x="609" y="-229.8" font-family="Times,serif" font-size="14.00" fill="#000000">AppComponent </text>
</g>
<!-- AppModule&#45;&gt;AppComponent  -->
<g id="edge8" class="edge">
<title>AppModule&#45;&gt;AppComponent </title>
<path fill="none" stroke="#000000" stroke-dasharray="1,5" d="M609,-187.1061C609,-187.1061 609,-205.991 609,-205.991"/>
<polygon fill="#000000" stroke="#000000" points="605.5001,-205.9909 609,-215.991 612.5001,-205.991 605.5001,-205.9909"/>
</g>
<!-- AboutModule -->
<g id="node3" class="node">
<title>AboutModule</title>
<polygon fill="#8dd3c7" stroke="#000000" points="979.0481,-122 976.0481,-126 955.0481,-126 952.0481,-122 884.9519,-122 884.9519,-86 979.0481,-86 979.0481,-122"/>
<text text-anchor="middle" x="932" y="-99.8" font-family="Times,serif" font-size="14.00" fill="#000000">AboutModule</text>
</g>
<!-- AboutModule&#45;&gt;AppModule -->
<g id="edge2" class="edge">
<title>AboutModule&#45;&gt;AppModule</title>
<path fill="none" stroke="#000000" d="M932,-122.1061C932,-141.3391 932,-169 932,-169 932,-169 660.8955,-169 660.8955,-169"/>
<polygon fill="#000000" stroke="#000000" points="660.8955,-165.5001 650.8955,-169 660.8954,-172.5001 660.8955,-165.5001"/>
</g>
<!-- AccountModule -->
<g id="node4" class="node">
<title>AccountModule</title>
<polygon fill="#8dd3c7" stroke="#000000" points="866.4762,-122 863.4762,-126 842.4762,-126 839.4762,-122 759.5238,-122 759.5238,-86 866.4762,-86 866.4762,-122"/>
<text text-anchor="middle" x="813" y="-99.8" font-family="Times,serif" font-size="14.00" fill="#000000">AccountModule</text>
</g>
<!-- AccountModule&#45;&gt;AppModule -->
<g id="edge3" class="edge">
<title>AccountModule&#45;&gt;AppModule</title>
<path fill="none" stroke="#000000" d="M813,-122.027C813,-138.3976 813,-160 813,-160 813,-160 660.7747,-160 660.7747,-160"/>
<polygon fill="#000000" stroke="#000000" points="660.7747,-156.5001 650.7747,-160 660.7747,-163.5001 660.7747,-156.5001"/>
</g>
<!-- AppRoutingModule -->
<g id="node5" class="node">
<title>AppRoutingModule</title>
<polygon fill="#8dd3c7" stroke="#000000" points="741.2744,-122 738.2744,-126 717.2744,-126 714.2744,-122 612.7256,-122 612.7256,-86 741.2744,-86 741.2744,-122"/>
<text text-anchor="middle" x="677" y="-99.8" font-family="Times,serif" font-size="14.00" fill="#000000">AppRoutingModule</text>
</g>
<!-- AppRoutingModule&#45;&gt;AppModule -->
<g id="edge4" class="edge">
<title>AppRoutingModule&#45;&gt;AppModule</title>
<path fill="none" stroke="#000000" d="M631.7206,-122.1061C631.7206,-122.1061 631.7206,-140.991 631.7206,-140.991"/>
<polygon fill="#000000" stroke="#000000" points="628.2206,-140.9909 631.7206,-150.991 635.2206,-140.991 628.2206,-140.9909"/>
</g>
<!-- MaterialModule -->
<g id="node6" class="node">
<title>MaterialModule</title>
<polygon fill="#8dd3c7" stroke="#000000" points="594.4706,-122 591.4706,-126 570.4706,-126 567.4706,-122 487.5294,-122 487.5294,-86 594.4706,-86 594.4706,-122"/>
<text text-anchor="middle" x="541" y="-99.8" font-family="Times,serif" font-size="14.00" fill="#000000">MaterialModule</text>
</g>
<!-- MaterialModule&#45;&gt;AppModule -->
<g id="edge5" class="edge">
<title>MaterialModule&#45;&gt;AppModule</title>
<path fill="none" stroke="#000000" d="M580.8286,-122.1061C580.8286,-122.1061 580.8286,-140.991 580.8286,-140.991"/>
<polygon fill="#000000" stroke="#000000" points="577.3286,-140.9909 580.8286,-150.991 584.3286,-140.991 577.3286,-140.9909"/>
</g>
<!-- ModelsModule -->
<g id="node7" class="node">
<title>ModelsModule</title>
<polygon fill="#8dd3c7" stroke="#000000" points="469.5452,-122 466.5452,-126 445.5452,-126 442.5452,-122 368.4548,-122 368.4548,-86 469.5452,-86 469.5452,-122"/>
<text text-anchor="middle" x="419" y="-99.8" font-family="Times,serif" font-size="14.00" fill="#000000">ModelsModule</text>
</g>
<!-- ModelsModule&#45;&gt;AppModule -->
<g id="edge6" class="edge">
<title>ModelsModule&#45;&gt;AppModule</title>
<path fill="none" stroke="#000000" d="M419,-122.027C419,-138.3976 419,-160 419,-160 419,-160 557.3037,-160 557.3037,-160"/>
<polygon fill="#000000" stroke="#000000" points="557.3037,-163.5001 567.3037,-160 557.3037,-156.5001 557.3037,-163.5001"/>
</g>
<!-- SharedModule -->
<g id="node8" class="node">
<title>SharedModule</title>
<polygon fill="#8dd3c7" stroke="#000000" points="350.4231,-122 347.4231,-126 326.4231,-126 323.4231,-122 251.5769,-122 251.5769,-86 350.4231,-86 350.4231,-122"/>
<text text-anchor="middle" x="301" y="-99.8" font-family="Times,serif" font-size="14.00" fill="#000000">SharedModule</text>
</g>
<!-- SharedModule&#45;&gt;AppModule -->
<g id="edge7" class="edge">
<title>SharedModule&#45;&gt;AppModule</title>
<path fill="none" stroke="#000000" d="M301,-122.1061C301,-141.3391 301,-169 301,-169 301,-169 557.1412,-169 557.1412,-169"/>
<polygon fill="#000000" stroke="#000000" points="557.1412,-172.5001 567.1412,-169 557.1412,-165.5001 557.1412,-172.5001"/>
</g>
<!-- AuthInterceptorService -->
<g id="node10" class="node">
<title>AuthInterceptorService</title>
<ellipse fill="#fdb462" stroke="#000000" cx="126" cy="-104" rx="101.8225" ry="18"/>
<text text-anchor="middle" x="126" y="-99.8" font-family="Times,serif" font-size="14.00" fill="#000000">AuthInterceptorService</text>
</g>
<!-- AuthInterceptorService&#45;&gt;AppModule -->
<g id="edge9" class="edge">
<title>AuthInterceptorService&#45;&gt;AppModule</title>
<path fill="none" stroke="#000000" d="M126,-122.2921C126,-144.2057 126,-178 126,-178 126,-178 556.9819,-178 556.9819,-178"/>
<polygon fill="#000000" stroke="#000000" points="556.9819,-181.5001 566.9819,-178 556.9818,-174.5001 556.9819,-181.5001"/>
</g>
</g>
</svg>
