<?xml version="1.0" encoding="UTF-8" standalone="no"?>
<svg
   xmlns:dc="http://purl.org/dc/elements/1.1/"
   xmlns:cc="http://creativecommons.org/ns#"
   xmlns:rdf="http://www.w3.org/1999/02/22-rdf-syntax-ns#"
   xmlns:svg="http://www.w3.org/2000/svg"
   xmlns="http://www.w3.org/2000/svg"
   xmlns:sodipodi="http://sodipodi.sourceforge.net/DTD/sodipodi-0.dtd"
   xmlns:inkscape="http://www.inkscape.org/namespaces/inkscape"
   id="Layer_1"
   data-name="Layer 1"
   viewBox="0 0 195.98062 436.66"
   version="1.1"
   inkscape:version="0.91 r13725"
   sodipodi:docname="mongdb.svg"
   width="195.98062"
   height="436.66">
  <metadata
     id="metadata3448">
    <rdf:RDF>
      <cc:Work
         rdf:about="">
        <dc:format>image/svg+xml</dc:format>
        <dc:type
           rdf:resource="http://purl.org/dc/dcmitype/StillImage" />
        <dc:title>MongoDB_Leaf_FullColor_RGB</dc:title>
      </cc:Work>
    </rdf:RDF>
  </metadata>
  <sodipodi:namedview
     pagecolor="#ffffff"
     bordercolor="#666666"
     borderopacity="1"
     objecttolerance="10"
     gridtolerance="10"
     guidetolerance="10"
     inkscape:pageopacity="0"
     inkscape:pageshadow="2"
     inkscape:window-width="1360"
     inkscape:window-height="608"
     id="namedview3446"
     showgrid="false"
     fit-margin-top="0"
     fit-margin-left="0"
     fit-margin-right="0"
     fit-margin-bottom="0"
     inkscape:zoom="0.94537347"
     inkscape:cx="97.994299"
     inkscape:cy="218.32"
     inkscape:window-x="0"
     inkscape:window-y="0"
     inkscape:window-maximized="1"
     inkscape:current-layer="Layer_1" />
  <defs
     id="defs3434">
    <style
       id="style3436">.cls-1{fill:#10aa50;}.cls-2{fill:#b8c4c2;}.cls-3{fill:#12924f;}</style>
  </defs>
  <title
     id="title3438">MongoDB_Leaf_FullColor_RGB</title>
  <path
     class="cls-1"
     d="m 192.5143,173.77 c -23,-101.47 -71,-128.49 -83.18,-147.59 C 102.7143,15.79 95.9643,0 95.9643,0 c -0.66,9 -1.83,14.7 -9.51,21.54 C 71.0743,35.25 5.7143004,88.51 0.22430036,203.81 -4.8956996,311.31 79.2243,377.61 90.4043,384.46 c 8.54,4.2 19,0.08 24,-3.77 40.54,-27.84 96,-102.07 78.06,-206.92"
     id="path3440"
     inkscape:connector-curvature="0"
     style="fill:#10aa50" />
  <path
     class="cls-2"
     d="m 99.4443,327.2 c -2.11,26.62 -3.63,42.11 -9,57.29 0,0 3.54,25.33 6,52.17 l 8.77,0 a 488.62,488.62 0 0 1 9.57,-56.2 c -11.36,-5.57 -14.91,-29.91 -15.34,-53.26 z"
     id="path3442"
     inkscape:connector-curvature="0"
     style="fill:#b8c4c2" />
  <path
     class="cls-3"
     d="m 114.7743,380.48 0,0 c -11.48,-5.3 -14.8,-30.13 -15.31,-53.28 a 1090.8,1090.8 0 0 0 2.45,-114.71 c -0.6,-20.07 0.3,-185.92 -4.94,-210.2 2.12,4.75 7.24,15.91 12.36,23.88 12.23,19.11 60.19,46.13 83.17,147.61 17.91,104.58 -37.22,178.68 -77.73,206.7 z"
     id="path3444"
     inkscape:connector-curvature="0"
     style="fill:#12924f" />
</svg>
