<?xml version="1.0" encoding="UTF-8" standalone="no"?>
<svg
   xmlns:dc="http://purl.org/dc/elements/1.1/"
   xmlns:cc="http://creativecommons.org/ns#"
   xmlns:rdf="http://www.w3.org/1999/02/22-rdf-syntax-ns#"
   xmlns:svg="http://www.w3.org/2000/svg"
   xmlns="http://www.w3.org/2000/svg"
   xmlns:sodipodi="http://sodipodi.sourceforge.net/DTD/sodipodi-0.dtd"
   xmlns:inkscape="http://www.inkscape.org/namespaces/inkscape"
   x="0px"
   y="0px"
   viewBox="33 24 186.2 200"
   version="1.1"
   id="svg11453"
   sodipodi:docname="codelyzer.svg"
   width="186.2"
   height="200"
   inkscape:version="0.92.3 (2405546, 2018-03-11)">
  <metadata
     id="metadata11459">
    <rdf:RDF>
      <cc:Work
         rdf:about="">
        <dc:format>image/svg+xml</dc:format>
        <dc:type
           rdf:resource="http://purl.org/dc/dcmitype/StillImage" />
        <dc:title></dc:title>
      </cc:Work>
    </rdf:RDF>
  </metadata>
  <defs
     id="defs11457" />
  <sodipodi:namedview
     pagecolor="#ffffff"
     bordercolor="#666666"
     borderopacity="1"
     objecttolerance="10"
     gridtolerance="10"
     guidetolerance="10"
     inkscape:pageopacity="0"
     inkscape:pageshadow="2"
     inkscape:window-width="1920"
     inkscape:window-height="1112"
     id="namedview11455"
     showgrid="false"
     fit-margin-top="0"
     fit-margin-left="0"
     fit-margin-right="0"
     fit-margin-bottom="0"
     inkscape:zoom="1.6013889"
     inkscape:cx="62.55844"
     inkscape:cy="70.653902"
     inkscape:window-x="0"
     inkscape:window-y="0"
     inkscape:window-maximized="1"
     inkscape:current-layer="svg11453" />
  <style
     type="text/css"
     id="style11405">
    .st0{fill:#DD0031;}
    .st1{fill:#C3002F;}
    .st2{fill:#FFFFFF;}
  </style>
  <polygon
     style="fill:#dd0031"
     id="polygon11407"
     points="46.1,186.3 125,230 203.9,186.3 218.1,63.2 125,30 31.9,63.2 "
     class="st0"
     transform="translate(1.1,-6)" />
  <polygon
     class="st1"
     points="127.943,225.925 206.843,182.225 221.043,59.125 127.943,25.925 127.943,48.125 127.943,48.025 127.943,149.325 "
     style="fill:#c3002f"
     id="polygon11421"
     transform="translate(-1.90001,-2.000005)" />
  <path
     d="M 178.41675,161.22377 152.76811,135.7603 c -3.82167,5.90016 -8.87928,10.91834 -14.82283,14.71233 L 163.596,175.9361 c 4.09493,4.06413 10.73434,4.06413 14.82052,0 4.09517,-4.05749 4.09517,-10.64843 2.3e-4,-14.71233 z"
     style="fill:#ffffff;stroke-width:0.22957246"
     id="path11411"
     inkscape:connector-curvature="0" />
  <path
     d="m 153.53815,109.61887 c 0,-22.983555 -18.77168,-41.619119 -41.9247,-41.619119 -23.15256,0 -41.92516,18.635564 -41.92516,41.619119 0,22.98354 18.7726,41.61819 41.92516,41.61819 23.15302,0 41.9247,-18.63465 41.9247,-41.61819 z m -41.9247,31.21312 c -17.33919,0 -31.44358,-14.00028 -31.44358,-31.21289 0,-17.212623 14.10439,-31.214056 31.44358,-31.214056 17.33873,0 31.44428,14.001433 31.44428,31.214056 0,17.21261 -14.10555,31.21289 -31.44428,31.21289 z"
     style="fill:#ffffff;stroke-width:0.22957246"
     id="path11413"
     inkscape:connector-curvature="0" />
  <path
     d="m 87.15743,109.61887 h 6.98665 c 0,-9.56173 7.83733,-17.34117 17.46914,-17.34117 v -6.936328 c -13.48319,0 -24.45579,10.892494 -24.45579,24.277498 z"
     style="fill:#ffffff;stroke-width:0.22957246"
     id="path11415"
     inkscape:connector-curvature="0" />
  <g
     transform="matrix(0.230415,0,0,0.228733,71.0301,65.920741)"
     id="g11423" />
  <g
     transform="matrix(0.230415,0,0,0.228733,71.0301,65.920741)"
     id="g11425" />
  <g
     transform="matrix(0.230415,0,0,0.228733,71.0301,65.920741)"
     id="g11427" />
  <g
     transform="matrix(0.230415,0,0,0.228733,71.0301,65.920741)"
     id="g11429" />
  <g
     transform="matrix(0.230415,0,0,0.228733,71.0301,65.920741)"
     id="g11431" />
  <g
     transform="matrix(0.230415,0,0,0.228733,71.0301,65.920741)"
     id="g11433" />
  <g
     transform="matrix(0.230415,0,0,0.228733,71.0301,65.920741)"
     id="g11435" />
  <g
     transform="matrix(0.230415,0,0,0.228733,71.0301,65.920741)"
     id="g11437" />
  <g
     transform="matrix(0.230415,0,0,0.228733,71.0301,65.920741)"
     id="g11439" />
  <g
     transform="matrix(0.230415,0,0,0.228733,71.0301,65.920741)"
     id="g11441" />
  <g
     transform="matrix(0.230415,0,0,0.228733,71.0301,65.920741)"
     id="g11443" />
  <g
     transform="matrix(0.230415,0,0,0.228733,71.0301,65.920741)"
     id="g11445" />
  <g
     transform="matrix(0.230415,0,0,0.228733,71.0301,65.920741)"
     id="g11447" />
  <g
     transform="matrix(0.230415,0,0,0.228733,71.0301,65.920741)"
     id="g11449" />
  <g
     transform="matrix(0.230415,0,0,0.228733,71.0301,65.920741)"
     id="g11451" />
</svg>
