<?xml version="1.0" encoding="utf-8"?>
<!-- Generator: Adobe Illustrator 16.0.0, SVG Export Plug-In . SVG Version: 6.00 Build 0)  -->
<!DOCTYPE svg PUBLIC "-//W3C//DTD SVG 1.1//EN" "http://www.w3.org/Graphics/SVG/1.1/DTD/svg11.dtd">
<svg version="1.1" id="bb55a8ea-0295-4ce8-826f-771acf95c490"
	 xmlns="http://www.w3.org/2000/svg" xmlns:xlink="http://www.w3.org/1999/xlink" x="0px" y="0px" width="51.269531px"
	 height="50px" viewBox="0 0 51.269531 50" style="enable-background:new 0 0 51.269531 50;" xml:space="preserve">
<title>techservicelogo_</title>
<path id="b3f1b1d7-ba54-45a8-acf7-617a44a94f2d" d="M51.270508,25.626953c0.001953,11.02832-7.052734,20.822266-17.513672,24.313477
	c-1.298828,0.25293-1.760742-0.546875-1.760742-1.230469c0-0.841797,0.030273-3.602539,0.030273-7.03125
	c0-2.392578-0.821289-3.951172-1.739258-4.746094c5.706055-0.632813,11.701172-2.802734,11.701172-12.645996
	c0.039063-2.545898-0.90625-5.009766-2.636719-6.878906c0.265625-0.646484,1.142578-3.251953-0.250977-6.782715
	c0,0-2.148438-0.688477-7.042969,2.627441c-4.200195-1.147461-8.631836-1.147461-12.832031,0
	C14.32666,9.930664,12.174316,10.625,12.174316,10.625c-1.390137,3.530762-0.51416,6.13623-0.248047,6.782715
	c-1.730469,1.870117-2.675293,4.333008-2.639648,6.878906c0,9.818848,5.981934,12.018066,11.674316,12.664551
	c-0.730469,0.639648-1.395508,1.772461-1.624023,3.428711c-1.464844,0.654297-5.172852,1.787109-7.458984-2.114258
	c0,0-1.356445-2.461914-3.925781-2.641602c0,0-2.500977-0.036133-0.174805,1.556641c0,0,1.678223,0.789063,2.844238,3.750977
	c0,0,1.510254,4.576172,8.633301,3.018555c0,2.141602,0.037109,4.162109,0.037109,4.772461
	c0,0.677734-0.47168,1.470703-1.751953,1.235352C4.108887,45.484375-3.152344,30.969727,1.320313,17.539551
	C5.79248,4.108887,20.307617-3.152832,33.739258,1.320313c10.469727,3.486816,17.53125,13.283691,17.53125,24.318359V25.626953z
	 M9.72168,36.800781c0.063965-0.125977-0.04248-0.302734-0.229004-0.387695c-0.1875-0.083008-0.386719-0.049805-0.441406,0.079102
	c-0.054199,0.129883,0.044922,0.302734,0.22998,0.387695C9.425293,36.973633,9.619141,36.94043,9.72168,36.800781z
	 M9.419922,36.56543l1.353027,1.390625c0.129883-0.113281,0.096191-0.348633-0.072754-0.53125
	c-0.168945-0.180664-0.398926-0.231445-0.525391-0.116211c-0.126465,0.113281-0.091309,0.353516,0.075195,0.530273
	c0.166016,0.178711,0.401367,0.233398,0.522949,0.117188L9.419922,36.56543z M11.769043,39.416016
	c0.160156-0.112305,0.160156-0.384766,0-0.603516c-0.160156-0.22168-0.413086-0.326172-0.570801-0.21582
	c-0.156738,0.113281-0.162598,0.381836,0,0.604492c0.162598,0.223633,0.416504,0.329102,0.574219,0.219727L11.769043,39.416016z
	 M11.769043,39.416016l1.382813,1.423828c0.151367-0.152344,0.084961-0.446289-0.13916-0.654297
	c-0.222656-0.208984-0.521973-0.251953-0.664063-0.095703c-0.129395,0.222656-0.066406,0.505859,0.14502,0.654297
	c0.221191,0.212891,0.519043,0.254883,0.658203,0.095703L11.769043,39.416016z M11.769043,39.416016l1.911621,0.826172
	c0.060059-0.202148-0.129883-0.433594-0.419922-0.520508c-0.289551-0.088867-0.58252,0-0.643555,0.205078
	c-0.060059,0.205078,0.132813,0.4375,0.422852,0.523438c0.290527,0.088867,0.577148,0,0.640625-0.208008L11.769043,39.416016z
	 M11.769043,39.416016l2.095703,0.15332c0-0.208984-0.247559-0.376953-0.552734-0.375
	c-0.304688,0.003906-0.545898,0.182617-0.545898,0.392578c0,0.212891,0.250488,0.382813,0.555664,0.375
	c0.304199-0.006836,0.551758-0.179688,0.542969-0.392578L11.769043,39.416016z M11.769043,39.416016l1.954102-0.331055
	c-0.039551-0.208984-0.302246-0.333008-0.604004-0.283203c-0.301758,0.052734-0.513184,0.268555-0.477051,0.481445
	c0.036133,0.211914,0.301758,0.329102,0.603516,0.273438c0.302246-0.054688,0.516602-0.264648,0.480469-0.47168L11.769043,39.416016
	z"/>
</svg>
