<?xml version="1.0" encoding="utf-8"?>
<!-- Generator: Adobe Illustrator 16.0.0, SVG Export Plug-In . SVG Version: 6.00 Build 0)  -->
<!DOCTYPE svg PUBLIC "-//W3C//DTD SVG 1.1//EN" "http://www.w3.org/Graphics/SVG/1.1/DTD/svg11.dtd">
<svg version="1.1" id="Layer_1" xmlns="http://www.w3.org/2000/svg" xmlns:xlink="http://www.w3.org/1999/xlink" x="0px" y="0px"
	 width="44.5px" height="50px" viewBox="0 0 44.5 50" style="enable-background:new 0 0 44.5 50;" xml:space="preserve">
<g id="GraphQL">
	<g>
		<g>
			
				<rect x="12.297789" y="-0.576195" transform="matrix(0.865909 0.500201 -0.500201 0.865909 11.73022 -4.017242)" style="fill:#D54799;" width="2.120242" height="40.892624"/>
		</g>
	</g>
	<g>
		<g>
			<rect x="1.795898" y="34.21875" style="fill:#D54799;" width="40.895996" height="2.120117"/>
		</g>
	</g>
	<g>
		<g>
			
				<rect x="1.553369" y="39.336609" transform="matrix(0.866052 0.499954 -0.499954 0.866052 21.986359 -1.269871)" style="fill:#D54799;" width="23.619337" height="2.119754"/>
		</g>
	</g>
	<g>
		<g>
			
				<rect x="19.322899" y="8.555113" transform="matrix(0.866016 0.500017 -0.500017 0.866016 8.979111 -14.278753)" style="fill:#D54799;" width="23.620314" height="2.120242"/>
		</g>
	</g>
	<g>
		<g>
			
				<rect x="12.308775" y="-2.203157" transform="matrix(0.500201 0.865909 -0.865909 0.500201 15.000919 -6.774471)" style="fill:#D54799;" width="2.120242" height="23.621159"/>
		</g>
	</g>
	<g>
		<g>
			
				<rect x="10.698849" y="18.811884" transform="matrix(0.499985 0.866034 -0.866034 0.499985 32.783119 -17.038708)" style="fill:#D54799;" width="40.896736" height="2.11842"/>
		</g>
	</g>
	<g>
		<g>
			<rect x="3.416992" y="13.189453" style="fill:#D54799;" width="2.120117" height="23.621094"/>
		</g>
	</g>
	<g>
		<g>
			<rect x="38.963379" y="13.189453" style="fill:#D54799;" width="2.121094" height="23.621094"/>
		</g>
	</g>
	<g>
		<g>
			
				<rect x="30.206779" y="30.113369" transform="matrix(0.499996 0.866028 -0.866028 0.499996 50.540718 -6.769135)" style="fill:#D54799;" width="1.851576" height="20.542791"/>
		</g>
	</g>
	<path style="fill:#D54799;" d="M43.891113,37.5c-1.224609,2.130859-3.957031,2.859375-6.089844,1.632813
		c-2.130859-1.224609-2.859375-3.957031-1.632813-6.088867c1.224609-2.132813,3.957031-2.860352,6.089844-1.633789
		C44.402832,32.647461,45.131348,35.369141,43.891113,37.5"/>
	<path style="fill:#D54799;" d="M8.320313,16.955078c-1.225586,2.133789-3.958008,2.861328-6.089844,1.635742
		C0.097656,17.364258-0.630859,14.631836,0.595703,12.5c1.225586-2.131836,3.958984-2.859375,6.089844-1.634766
		C8.817383,12.104492,9.545898,14.823242,8.320313,16.955078"/>
	<path style="fill:#D54799;" d="M0.608398,37.5c-1.225586-2.130859-0.49707-4.852539,1.633789-6.089844
		c2.131836-1.226563,4.852539-0.499023,6.091797,1.633789c1.225586,2.131836,0.498047,4.850586-1.635742,6.088867
		C4.554688,40.359375,1.833984,39.630859,0.608398,37.5"/>
	<path style="fill:#D54799;" d="M36.180176,16.955078c-1.226563-2.131836-0.498047-4.850586,1.634766-6.089844
		c2.132813-1.224609,4.851563-0.49707,6.089844,1.634766c1.226563,2.131836,0.498047,4.852539-1.632813,6.09082
		C40.137207,19.816406,37.406738,19.088867,36.180176,16.955078"/>
	<path style="fill:#D54799;" d="M22.25,50c-2.463867,0-4.456055-1.992188-4.456055-4.455078
		c0-2.464844,1.992188-4.458984,4.456055-4.458984c2.463379,0,4.455566,1.994141,4.455566,4.458984
		C26.705566,47.994141,24.713379,50,22.25,50"/>
	<path style="fill:#D54799;" d="M22.25,8.912109c-2.463867,0-4.456055-1.992188-4.456055-4.457031
		C17.793945,1.991211,19.786133,0,22.25,0c2.463379,0,4.455566,1.991211,4.455566,4.455078
		C26.705566,6.919922,24.713379,8.912109,22.25,8.912109"/>
</g>
<g>
</g>
<g>
</g>
<g>
</g>
<g>
</g>
<g>
</g>
<g>
</g>
</svg>
