<?xml version="1.0" encoding="utf-8"?>
<!-- Generator: Adobe Illustrator 16.0.0, SVG Export Plug-In . SVG Version: 6.00 Build 0)  -->
<!DOCTYPE svg PUBLIC "-//W3C//DTD SVG 1.1//EN" "http://www.w3.org/Graphics/SVG/1.1/DTD/svg11.dtd">
<svg version="1.1" id="Layer_1" xmlns="http://www.w3.org/2000/svg" xmlns:xlink="http://www.w3.org/1999/xlink" x="0px" y="0px"
	 width="45px" height="50px" viewBox="0 0 45 50" style="enable-background:new 0 0 45 50;" xml:space="preserve">
<path id="Heroku" style="fill:#492D8C;" d="M40.500488,0H4.5C2.014648,0,0,2.014648,0,4.5v41C0,47.984375,2.014648,50,4.5,50
	h36.000488c2.484375,0,4.5-2.015625,4.5-4.5v-41C45.000488,2.014648,42.984863,0,40.500488,0z M11.248535,42.5v-10l5.626953,5
	L11.248535,42.5z M28.748535,42.5V27.567383C28.725098,26.402344,28.162598,25,25.623535,25
	c-5.082031,0-10.785156,2.556641-10.841797,2.582031l-3.533203,1.600586V7.499023h5v14.195313
	c2.498047-0.8125,5.986328-1.695313,9.375-1.695313c3.091797,0,4.941406,1.21582,5.949219,2.235352
	c2.150391,2.174805,2.179688,4.946289,2.177734,5.265625v15H28.748535z M29.998535,15.625h-4.998047
	c1.964844-2.578125,3.197266-5.291016,3.748047-8.125977h5.001953C33.412598,10.339844,32.260254,13.061523,29.998535,15.625z"/>
<g>
</g>
<g>
</g>
<g>
</g>
<g>
</g>
<g>
</g>
<g>
</g>
</svg>
