<?xml version="1.0" encoding="UTF-8" standalone="no"?>
<!-- Generator: Adobe Illustrator 18.1.1, SVG Export Plug-In . SVG Version: 6.00 Build 0)  -->

<svg
   xmlns:dc="http://purl.org/dc/elements/1.1/"
   xmlns:cc="http://creativecommons.org/ns#"
   xmlns:rdf="http://www.w3.org/1999/02/22-rdf-syntax-ns#"
   xmlns:svg="http://www.w3.org/2000/svg"
   xmlns="http://www.w3.org/2000/svg"
   xmlns:sodipodi="http://sodipodi.sourceforge.net/DTD/sodipodi-0.dtd"
   xmlns:inkscape="http://www.inkscape.org/namespaces/inkscape"
   version="1.1"
   id="Layer_1"
   x="0px"
   y="0px"
   viewBox="0 0 537.65784 529.62677"
   enable-background="new 0 0 544.329956 544.347595"
   xml:space="preserve"
   sodipodi:docname="rxjs.svg"
   width="537.65784"
   height="529.62677"
   inkscape:version="0.92.3 (2405546, 2018-03-11)"><metadata
   id="metadata6060"><rdf:RDF><cc:Work
       rdf:about=""><dc:format>image/svg+xml</dc:format><dc:type
         rdf:resource="http://purl.org/dc/dcmitype/StillImage" /><dc:title></dc:title></cc:Work></rdf:RDF></metadata><defs
   id="defs6058" /><sodipodi:namedview
   pagecolor="#ffffff"
   bordercolor="#666666"
   borderopacity="1"
   objecttolerance="10"
   gridtolerance="10"
   guidetolerance="10"
   inkscape:pageopacity="0"
   inkscape:pageshadow="2"
   inkscape:window-width="1920"
   inkscape:window-height="1112"
   id="namedview6056"
   showgrid="false"
   fit-margin-top="0"
   fit-margin-left="0"
   fit-margin-right="0"
   fit-margin-bottom="0"
   inkscape:zoom="1.6974448"
   inkscape:cx="268.91174"
   inkscape:cy="264.6508"
   inkscape:window-x="0"
   inkscape:window-y="0"
   inkscape:window-maximized="1"
   inkscape:current-layer="Layer_1" />
<g
   id="g6053"
   transform="translate(-3.2532412,-7.1978186)">
	<path
   d="M 292.19531,536.59821 C 262.1864,535.66779 233.18152,529.54156 205.31489,518.60986 129.62904,488.91928 74.13089,437.93719 42.132427,362.495 c -0.748692,-1.7652 -1.254826,-3.63321 -1.874104,-5.45331 -0.938187,-2.04785 -0.506447,-4.48365 -1.823624,-6.42356 -0.563038,-1.6296 -0.67025,-3.25558 0.0465,-4.86984 3.085445,-2.02725 4.822586,0.75223 6.710461,2.13574 18.758419,13.74701 37.1371,28.00031 55.70161,42.00656 46.97195,35.43863 93.89091,70.94764 140.81917,106.44413 14.47195,10.94659 29.04397,21.76135 43.4305,32.8197 2.71249,2.08496 5.91825,3.81555 7.05237,7.44379 z"
   id="path5713"
   inkscape:connector-curvature="0"
   style="fill:#ec168e" />
	<path
   d="M 32.670208,341.05945 C 23.562313,331.69665 15.058062,321.83557 8.552242,310.4473 1.782796,298.59753 0.632775,287.16882 10.240252,275.75781 20.236691,263.88473 19.608521,250.17212 15.272225,236.20105 12.404721,226.96231 9.183212,217.84201 7.014002,208.3771 4.194578,196.07513 6.97179,185.39087 15.205053,175.9826 c 5.93701,-6.7843 12.139154,-13.42794 19.457382,-18.61788 11.873112,-8.42017 15.71273,-20.10721 16.059349,-33.84263 0.2131,-8.44442 -0.252319,-16.89392 0.903522,-25.344295 1.994457,-14.581482 9.994873,-24.051575 23.495388,-29.229767 7.625717,-2.924896 15.61557,-4.769562 23.678818,-5.027557 17.972528,-0.574982 31.335448,-9.362427 42.690778,-22.284058 4.30506,-4.898834 8.80123,-9.64978 12.83081,-14.766937 13.01177,-16.523621 30.56652,-21.292023 50.4379,-19.214813 18.15712,1.897949 33.56555,9.942688 46.35173,22.978485 -2.41191,2.486511 -5.84636,0.890442 -8.56256,2.161041 -3.45177,0.866486 -7.07208,-0.03192 -10.5067,1.018463 -3.08998,0.629761 -6.30095,0.361053 -9.353,1.272705 -3.50738,1.015564 -7.17727,1.124115 -10.71997,1.937866 -4.1847,1.271545 -8.54643,1.801392 -12.73422,3.057556 -4.70195,0.908234 -9.13962,2.689331 -13.6634,4.180634 -4.60541,1.641418 -9.23339,3.225586 -13.69104,5.25235 -5.49166,2.004547 -10.66384,4.701752 -15.85346,7.357819 -5.80171,2.783905 -11.30455,6.092957 -16.71779,9.556061 -4.74661,2.970428 -9.46452,5.984741 -13.94979,9.346069 -3.74237,2.570251 -7.16087,5.550293 -10.64838,8.442719 -4.01274,2.926788 -7.50238,6.476532 -11.36811,9.577362 -3.952695,3.810089 -7.792348,7.732547 -11.650433,11.636197 -2.936386,2.47385 -4.728386,5.95175 -7.492157,8.57743 -4.46933,5.01638 -8.430237,10.43252 -12.452332,15.80038 -3.247864,4.54727 -6.242523,9.26315 -9.323753,13.92175 -3.110573,5.06467 -6.209915,10.13333 -8.738392,15.52668 -2.625294,5.13131 -5.331242,10.22042 -7.534,15.56082 -10.649246,24.60013 -17.310078,50.27664 -20.699247,76.81607 -3.414032,26.73404 -1.260208,53.03625 6.324932,78.91614 0.986755,3.36669 3.45327,6.77533 0.89328,10.51019 z"
   id="path5715"
   inkscape:connector-curvature="0"
   style="fill:#ec168e" />
	<path
   d="m 336.7059,534.62738 c -10.86166,1.95465 -21.80801,2.53314 -32.82153,2.01965 -12.18121,-8.12866 -23.64194,-17.23956 -35.302,-26.0697 C 241.58696,490.13367 214.53191,469.7688 187.55754,449.29785 139.93124,413.1539 92.111694,377.26538 44.575882,341.00244 c -2.649117,-2.0209 -5.801079,-3.40381 -7.932381,-6.11603 -2.159546,-8.70758 -1.130795,-17.49597 -0.722832,-26.26062 1.955566,-3.79931 4.176949,-1.30362 5.908615,0.0264 13.84407,10.63324 27.956062,20.90958 41.834076,31.49585 27.33466,20.85126 54.85151,41.46167 82.24229,62.23813 55.61529,42.18527 111.33239,84.23553 167.00183,126.34909 1.84261,1.39392 5.13659,2.27209 3.79842,5.89209 z"
   id="path5717"
   inkscape:connector-curvature="0"
   style="fill:#eb0b8d" />
	<path
   d="m 37.227848,307.10449 c -0.184013,9.52899 -1.002789,19.07758 0.882664,28.54257 2.136093,2.98276 1.671036,6.2475 1.033333,9.53098 0.0276,1.74008 0.05519,3.48016 0.08278,5.22021 0.516167,1.08332 0.931602,2.12207 -0.948708,2.14588 -2.281425,-3.62677 -2.729469,-8.14865 -5.607544,-11.48444 -0.461952,-7.27475 -3.624729,-13.87463 -5.245441,-20.87247 -8.263813,-35.68118 -5.450184,-70.90551 3.685753,-105.94686 3.638378,-13.9552 7.98991,-27.65635 14.271069,-40.68259 3.953552,0.59009 3.451107,3.85461 3.70253,6.46857 1.535908,15.96826 3.496002,31.86279 7.583168,47.41772 0.186485,2.01184 -0.57682,3.80173 -1.32859,5.59247 -0.886742,1.80432 -1.827045,3.58792 -2.681625,5.41354 -0.821831,1.52085 -1.451687,3.12244 -1.975754,4.77048 -1.930573,4.75635 -3.698898,9.56473 -4.910416,14.56287 -0.836433,3.08425 -1.941376,6.09378 -2.481552,9.25787 -0.807617,3.50137 -1.505062,7.02029 -1.901878,10.59576 -0.694237,4.2305 -1.405106,8.45639 -1.781487,12.73142 0.03198,4.17071 -1.648121,8.19098 -1.051353,12.41052 -0.06741,1.5575 -0.133264,3.11627 -1.326948,4.3255 z"
   id="path5719"
   inkscape:connector-curvature="0"
   style="fill:#512c86" />
	<path
   d="m 37.227844,307.10449 c 0.02683,-1.45196 0.05365,-2.90393 0.08047,-4.35586 0.484062,-0.78717 -0.0026,-2.11609 1.349442,-2.42228 3.021564,0.21003 5.108368,2.24006 7.32655,3.90857 41.050381,30.87836 82.057964,61.81351 122.917694,92.94394 2.11706,1.61292 4.55955,2.64435 6.74685,4.1156 4.86486,5.6539 9.3247,11.72834 14.67339,16.87989 13.9299,13.41629 29.67151,24.28149 47.64825,31.69946 4.03615,-0.36499 5.95603,3.05258 8.74588,4.90796 1.74816,1.16257 3.30165,2.58032 4.92441,3.9061 11.48508,8.9797 23.62314,16.93167 36.68436,23.44812 2.19458,1.09487 4.33908,2.31234 5.79663,4.40582 1.91574,3.31897 5.19965,5.17599 8.09653,7.39624 14.50717,11.11844 29.38446,21.75091 43.67199,33.15491 1.65351,1.31976 4.91886,2.03308 3.52149,5.48254 -4.07349,1.68597 -8.38132,1.92065 -12.70587,2.05188 -1.74369,-4.67456 -6.4144,-6.26257 -9.90012,-8.91632 -32.49692,-24.74021 -65.17184,-49.24658 -97.78693,-73.8317 -18.19563,-13.71579 -36.39688,-27.42428 -54.558,-41.1857 C 140.23066,384.75613 106.04811,358.75571 71.801861,332.83942 60.346039,324.1701 48.75634,315.67777 37.227844,307.10449 Z"
   id="path5721"
   inkscape:connector-curvature="0"
   style="fill:#e60a8d" />
	<path
   d="m 39.143845,345.17804 c -1.599403,-3.04095 -0.899666,-6.33112 -1.033298,-9.53098 7.561237,3.19407 13.206234,9.12345 19.628803,13.91337 25.450912,18.98092 50.78587,38.11788 76.10718,57.27191 36.93321,27.93771 73.80292,55.95938 110.72909,83.90637 18.1825,13.76117 36.45575,27.40259 54.60956,41.20129 1.72852,1.31379 4.08048,2.20588 4.69919,4.70703 -3.89633,-0.0163 -7.79273,-0.0326 -11.68906,-0.0488 -33.49432,-25.49262 -66.96458,-51.01694 -100.49122,-76.46701 -23.47463,-17.81958 -47.02916,-35.53388 -70.5428,-53.3021 -25.609211,-19.35174 -51.209232,-38.71567 -76.825306,-58.05832 -1.67817,-1.26715 -3.459046,-2.39828 -5.192139,-3.59274 z"
   id="path5723"
   inkscape:connector-curvature="0"
   style="fill:#eb0f8e" />
	<path
   d="m 389.75369,71.767639 c 16.97586,10.222839 32.49689,22.300903 46.4282,36.406311 19.47289,35.55573 11.02185,81.68533 -25.54642,106.4567 -3.79975,2.57394 -7.0958,6.72787 -12.63602,4.58581 -3.18976,0.0259 -6.40607,0.30173 -9.45389,-1.00589 -0.25644,-3.1701 2.4563,-3.45749 4.38172,-4.34726 24.51388,-11.32837 39.98022,-29.72876 43.53796,-56.89969 4.89352,-37.37237 -18.80057,-70.393248 -53.68561,-76.530088 -47.81872,-8.412048 -80.66595,30.343448 -80.83624,66.478268 -0.088,18.65616 4.41162,35.15866 16.97766,49.20874 1.41754,1.58493 3.306,3.39338 1.90384,6.0376 -4.04343,-0.92145 -8.00583,-2.07736 -11.69028,-4.03802 -9.4418,-10.66364 -14.0296,-23.46805 -16.03991,-37.279 -6.0878,-41.82309 22.5773,-85.494747 70.95013,-91.146419 8.71756,-1.018554 17.16742,1.037751 25.70886,2.072938 z"
   id="path5725"
   inkscape:connector-curvature="0"
   style="fill:#d5128c" />
	<path
   d="m 293.29413,487.05753 c -9.13681,-6.72113 -19.99451,-10.60035 -28.97638,-17.59339 -4.38135,-3.41113 -8.913,-6.62924 -13.37657,-9.93472 -3.79963,-7.59128 -9.01415,-14.30676 -13.76805,-21.25357 -11.44869,-16.72992 -22.73757,-33.57352 -34.40645,-50.15354 -0.60799,-0.86389 -0.8465,-1.94885 -1.64833,-2.69015 l 0.0184,0.0424 c -1.10864,-2.01853 0.0754,-4.32328 -0.79556,-6.37146 -0.40836,-3.66721 1.65265,-1.14353 1.99693,-0.61307 4.93986,7.61066 12.3262,12.78454 18.68852,18.97119 13.75131,13.37155 29.26084,24.52173 44.88556,35.52634 -0.17361,1.77554 1.07568,2.89349 1.94513,4.18069 10.21246,15.11899 20.47714,30.20212 30.80099,45.24536 1.40284,2.04416 4.90415,4.46814 0.96933,7.48438 -2.68167,0.32416 -4.55477,-1.15317 -6.33355,-2.84042 z"
   id="path5727"
   inkscape:connector-curvature="0"
   style="fill:#eb0b8d" />
	<path
   d="m 286.89667,189.68942 c -4.81174,-1.28656 -9.29862,-3.36715 -13.71802,-5.61261 -3.44251,-7.07602 -4.75128,-14.70721 -5.56827,-22.41247 -3.47955,-32.81641 7.08658,-61.10861 28.68387,-85.368137 11.81473,-13.271088 27.01617,-21.844055 43.77493,-27.60379 1.64624,-0.565796 3.39328,-0.972229 5.08106,0.02231 4.89209,1.447754 9.50451,3.537445 13.92572,6.066223 0.19424,3.961792 -3.17801,3.749542 -5.46436,4.309265 -10.51156,2.573395 -20.70444,5.895538 -29.76196,11.99472 -24.98413,16.823944 -39.41934,40.017549 -43.05948,70.107389 -1.72458,14.25586 1.07477,27.63559 5.29434,40.99133 0.75504,2.38993 2.59888,4.79047 0.81217,7.50577 z"
   id="path5729"
   inkscape:connector-curvature="0"
   style="fill:#c9148c" />
	<path
   d="m 262.42334,179.36197 c -2.41724,-0.91065 -4.83453,-1.82129 -7.25179,-2.7319 -1.73294,-0.48185 -3.60159,-0.76624 -4.21684,-2.88675 -3.55626,-15.81412 -3.09245,-31.63907 -0.0653,-47.46219 0.42964,-2.2457 0.84512,-4.47714 0.49748,-6.76712 -0.3063,-2.77683 1.16817,-5.01355 2.32146,-7.32236 2.94414,-5.89392 6.16734,-11.6655 7.56547,-18.198882 11.33655,-22.105743 27.34455,-39.900299 48.76197,-52.675964 2.02435,-1.20755 3.82983,-3.22113 6.61358,-2.162292 4.79758,0.802032 9.47245,2.011566 13.85962,4.175812 -0.48675,2.348846 -2.3052,3.440186 -4.22714,4.377472 -22.52789,10.986237 -39.84509,27.466888 -51.63504,49.563843 -7.99152,14.977871 -12.18524,31.091031 -12.74902,48.074641 -0.29816,8.98038 -0.10511,17.93876 1.80615,26.80842 0.50952,2.36459 1.70026,5.27599 -1.28064,7.20727 z"
   id="path5731"
   inkscape:connector-curvature="0"
   style="fill:#be198c" />
	<path
   d="m 44.603638,257.27087 c 1.179939,-5.12466 2.786758,-10.0982 5.229897,-14.77575 2.018188,-0.64905 3.381588,0.71112 4.721287,1.73056 30.546619,23.24435 61.261758,46.26596 91.817718,69.49774 0.27666,0.21033 0.49342,0.50119 0.74574,0.74713 0.0415,2.40573 0.0831,4.8114 0.12462,7.21713 1.0137,2.0752 -0.0129,4.3714 0.70179,6.47901 0.0912,1.43368 0.18238,2.8674 0.27357,4.30108 -3.68924,0.76715 -5.80273,-2.04406 -8.21164,-3.85156 -29.10055,-21.83478 -58.095656,-43.80969 -87.092284,-65.78247 -2.663298,-2.01816 -5.351874,-3.99017 -8.310698,-5.56287 z"
   id="path5733"
   inkscape:connector-curvature="0"
   style="fill:#cc128c" />
	<path
   d="m 369.30948,215.01923 c -10.48673,-1.12961 -20.57025,-3.9838 -30.58066,-7.15049 -15.4671,-8.3381 -25.71393,-20.98663 -30.92142,-37.70816 -7.0003,-22.47836 -3.41537,-43.39318 10.76526,-61.9812 14.80622,-19.408017 35.04175,-28.632748 59.24646,-25.42764 27.84769,3.687469 45.79657,20.26801 53.88443,47.16824 11.80115,39.25061 -16.9577,84.20621 -61.91641,85.31653 -0.15732,0.004 -0.31836,-0.14157 -0.47766,-0.21728 z"
   id="path5735"
   inkscape:connector-curvature="0"
   style="fill:#db108c" />
	<path
   d="m 38.299812,290.08237 c 0.44754,-4.25351 0.375916,-8.58597 1.926056,-12.67191 3.120266,-1.67908 4.939808,0.84393 6.913216,2.32532 27.330498,20.51614 54.593486,41.12213 81.792766,61.81195 8.54783,6.50207 17.37307,12.64004 25.63993,19.51117 2.87861,6.69159 5.75725,13.38324 8.63589,20.07486 -3.34004,1.64383 -5.32226,-1.11273 -7.36778,-2.63986 -13.99083,-10.44483 -27.96469,-20.9152 -41.85636,-31.4914 -22.873865,-17.41479 -45.9219,-34.59888 -68.755312,-52.0664 -2.244797,-1.71723 -4.626587,-3.22528 -6.928406,-4.85373 z"
   id="path5737"
   inkscape:connector-curvature="0"
   style="fill:#df0e8c" />
	<path
   d="m 320.82489,202.15814 c -1.03088,-4.3761 -4.83621,-6.77749 -7.2298,-10.18259 -8.6329,-12.28106 -12.88211,-25.78347 -13.04361,-40.96377 -0.18344,-17.24823 4.14627,-32.76746 15.01755,-46.10916 13.25357,-16.265352 29.81973,-25.991091 51.56256,-26.721315 21.55527,-0.723877 39.23123,6.531403 53.599,22.288025 11.08304,12.15433 16.75342,26.63815 17.59235,42.98349 0.73565,14.33404 -1.79975,27.99737 -9.3346,40.44281 -8.69955,14.36908 -20.47284,25.24899 -36.20264,31.57718 -1.58633,0.63821 -3.55093,0.70465 -4.24014,2.73773 -4.71683,-0.0584 -9.33926,-0.71997 -13.83905,-2.16537 2.41144,-2.0094 5.49558,-2.3205 8.33896,-3.00184 44.75186,-10.72369 66.98578,-65.61041 37.30704,-105.08914 -21.91205,-29.147519 -59.67011,-33.513059 -87.80188,-12.794309 -33.76474,24.867339 -37.25507,73.200229 -6.96369,102.980589 2.17768,2.14096 6.50873,2.81143 5.81943,7.30524 -3.69394,-0.55905 -7.22745,-1.63446 -10.58148,-3.28757 z"
   id="path5739"
   inkscape:connector-curvature="0"
   style="fill:#d8118c" />
	<path
   d="m 286.89664,189.68942 c -2.11173,-7.41546 -4.54825,-14.75635 -6.27124,-22.26108 -4.31366,-18.78875 -1.52249,-37.0776 6.08719,-54.39575 12.55157,-28.564816 33.88278,-47.295071 64.55893,-54.836881 2.71423,-0.667328 6.19064,-0.05722 7.80441,-3.414703 4.88345,2.610535 9.76691,5.221161 14.65033,7.831787 -0.51013,2.757568 -2.90576,2.134644 -4.62027,2.39328 -8.35608,1.26059 -16.70041,2.180542 -24.82504,4.981049 -32.25855,11.119263 -55.69782,43.872098 -56.02601,78.036988 -0.13205,13.74933 3.03751,26.52539 8.48044,38.9415 0.94956,2.16601 2.74637,4.32348 0.77985,6.85809 -3.72833,-0.8931 -7.31562,-2.14856 -10.61859,-4.13428 z"
   id="path5741"
   inkscape:connector-curvature="0"
   style="fill:#cc138c" />
	<path
   d="m 262.42334,179.36197 c 1.49463,-4.7955 -0.55481,-9.35938 -1.14612,-13.96103 -2.68423,-20.88922 0.22235,-40.92935 8.06864,-60.38187 4.38662,-10.875332 10.52774,-20.806392 18.20147,-29.451656 10.38034,-11.69458 22.29621,-21.858978 36.7425,-28.431152 2.30337,-1.047913 4.08093,-2.656036 6.21917,-3.805908 5.13123,1.112854 9.98359,2.983978 14.64127,5.384369 -13.94834,3.649506 -26.30264,10.407074 -37.68064,19.14386 -11.05444,8.488281 -19.2947,19.345612 -25.9118,31.392151 -7.06,12.852936 -11.16891,26.670506 -12.73041,41.368836 -1.43167,13.4765 0.11728,26.44046 4.11026,39.26224 0.40406,1.29751 0.17578,2.79196 0.24097,4.19503 -3.58511,-1.57162 -7.1702,-3.14325 -10.75531,-4.71487 z"
   id="path5743"
   inkscape:connector-curvature="0"
   style="fill:#c3168c" />
	<path
   d="m 44.603638,257.27087 c 1.950573,-1.11361 3.304329,0.1182 4.716507,1.18225 21.274826,16.03009 42.57402,32.02805 63.820535,48.09562 9.50556,7.1885 18.87832,14.55255 28.378,21.74899 2.08796,1.5817 4.45892,2.78986 6.69958,4.17004 1.0049,5.28144 2.0098,10.56281 3.01468,15.84424 -2.8414,-0.14099 -4.75589,-2.11566 -6.80644,-3.65094 -33.20488,-24.86023 -66.16784,-50.04126 -99.322709,-74.96808 -1.11282,-0.83664 -2.337982,-1.5924 -2.96146,-2.93692 0.210467,-3.32 1.485156,-6.36386 2.461307,-9.4852 z"
   id="path5745"
   inkscape:connector-curvature="0"
   style="fill:#d2128c" />
	<path
   d="m 42.14233,266.75607 c 7.497379,3.5463 13.47678,9.27622 20.005146,14.17069 27.98967,20.98443 55.792704,42.21777 83.675704,63.34466 1.79343,1.35883 4.11128,2.01545 5.40976,4.04059 1.11293,4.24896 2.22589,8.49793 3.33884,12.74689 -6.88227,-2.23352 -11.71927,-7.58228 -17.30167,-11.69775 -21.45302,-15.81571 -42.65296,-31.97522 -63.914961,-48.04926 -9.372467,-7.08557 -18.681271,-14.25574 -27.984276,-21.43246 -1.563202,-1.20591 -3.129013,-2.27042 -5.144951,-2.46897 -0.106659,-3.68555 0.827469,-7.1839 1.916408,-10.65439 z"
   id="path5747"
   inkscape:connector-curvature="0"
   style="fill:#d9108c" />
	<path
   d="m 149.35748,283.95508 c 0.13007,3.17694 -0.34308,6.27521 -1.21536,9.32147 -2.41296,0.82837 -4.07292,-0.78235 -5.67862,-1.99936 -27.87155,-21.12475 -55.812682,-42.15756 -83.662322,-63.31119 -0.419132,-0.31836 -0.718864,-0.76629 -0.992535,-1.2218 -0.663731,-3.84015 2.550968,-5.9397 3.964535,-8.85461 0.824501,-1.03821 1.721981,-1.98102 3.090649,-2.2811 4.224266,1.17407 7.168602,4.36447 10.483368,6.89047 23.382362,17.8187 46.941355,35.40363 70.335665,53.20627 2.80373,2.13358 5.31738,4.21866 3.67462,8.24985 z"
   id="path5749"
   inkscape:connector-curvature="0"
   style="fill:#bd1a8c" />
	<path
   d="m 493.3667,209.52109 c 0.36902,-16.59732 -0.0988,-33.10288 -5.14966,-49.13718 -1.38992,-4.41248 -2.65976,-8.86154 -5.61731,-13.65424 19.86273,15.07746 35.60254,54.11829 30.67542,93.66272 -1.84021,2.95179 -3.62943,1.38486 -4.89823,-0.34384 -5.19198,-7.07382 -9.96777,-14.44363 -14.65063,-21.85687 -1.61304,-2.55359 -1.10297,-5.73663 -0.35959,-8.67059 z"
   id="path5751"
   inkscape:connector-curvature="0"
   style="fill:#512c87" />
	<path
   d="m 467.81399,474.31253 c -3.48681,3.54718 -7.11923,6.923 -11.32772,9.62045 -3.38019,0.45035 -6.80597,0.19934 -10.0325,2.01697 -2.53382,1.4274 -4.21582,-0.78665 -5.62198,-2.64639 -3.82798,-5.06265 -7.29255,-10.38803 -10.84906,-15.63385 -11.17536,-16.48358 -22.47049,-32.88464 -33.66916,-49.35178 -1.24317,-1.82797 -3.06708,-3.54321 -2.37644,-6.1643 3.83371,-1.57535 7.66742,-3.1507 11.50113,-4.72608 2.35022,0.92096 3.17856,3.21485 4.44409,5.06363 13.73822,20.07022 27.36768,40.21506 41.23838,60.19437 3.85623,5.5545 3.91113,5.51642 9.85092,1.64499 2.27618,-1.3555 4.55826,-2.99189 6.84234,-0.018 z"
   id="path5753"
   inkscape:connector-curvature="0"
   style="fill:#aa218d" />
	<path
   d="m 299.66086,451.1792 c 4.59561,1.78976 9.19122,3.5795 13.78683,5.36923 1.96399,1.00378 3.15128,2.76263 4.28925,4.53107 7.51282,11.6745 15.7178,22.87958 23.35028,34.47238 1.63718,2.4866 3.46695,4.86008 4.005,7.93082 0.39963,2.28061 2.27369,3.47485 3.97071,4.7131 6.24621,4.5578 12.27331,9.40149 18.37219,14.1485 1.76193,1.37146 4.54529,2.5307 3.14853,5.77185 -4.23444,1.04511 -8.46881,2.09027 -12.70322,3.13538 -13.32052,-9.33454 -25.87829,-19.68494 -38.9852,-29.30536 -1.64514,-1.20746 -3.4252,-2.62381 -2.64898,-5.19596 0.35122,-0.3822 0.78695,-0.60177 1.302,-0.66497 3.75882,0.50872 7.29089,2.19021 11.82767,2.68701 -2.24469,-4.81601 -4.97883,-8.46866 -7.63611,-12.10446 -6.76459,-9.25547 -12.59171,-19.14585 -19.42334,-28.35544 -1.51184,-2.038 -3.43878,-4.14212 -2.65561,-7.13315 z"
   id="path5755"
   inkscape:connector-curvature="0"
   style="fill:#df0e8c" />
	<path
   d="m 159.93072,247.89484 c -1.14794,2.76461 -2.29586,5.52923 -3.44378,8.29385 -2.62653,0.7128 -4.38924,-1.04828 -6.14485,-2.38235 -23.29619,-17.70237 -46.7515,-35.19458 -69.981861,-52.98371 -0.98436,-0.75378 -1.930679,-1.54709 -2.365311,-2.77646 0.822258,-3.86099 3.6185,-6.12143 6.647797,-8.19668 2.319489,-0.36493 4.06588,0.84695 5.76545,2.14038 21.898905,16.66586 43.846325,33.26758 65.794505,49.86834 1.89683,1.43473 5.11554,2.41922 3.72805,6.03663 z"
   id="path5757"
   inkscape:connector-curvature="0"
   style="fill:#a9218d" />
	<path
   d="m 38.299812,290.08237 c 2.5522,-1.27423 3.944435,0.98135 5.429932,2.09774 34.425774,25.87165 68.800046,51.81208 103.127466,77.81412 5.27215,3.99356 9.95471,8.81006 16.35043,11.13953 2.49179,4.22738 4.98355,8.45471 7.47533,12.6821 -3.24654,1.82525 -5.34166,-0.7244 -7.43225,-2.25919 -11.91103,-8.74423 -23.71994,-17.62845 -35.48413,-26.5704 -28.00845,-21.28919 -56.064259,-42.51563 -84.21188,-63.62049 -1.638794,-1.22876 -3.292664,-3.05749 -5.407532,-0.64984 -0.280178,0.67792 -0.560349,1.35581 -0.839699,2.03321 -0.672568,-4.30118 0.786313,-8.43494 0.992333,-12.66678 z"
   id="path5759"
   inkscape:connector-curvature="0"
   style="fill:#e30c8c" />
	<path
   d="m 456.2178,313.35977 c 2.38919,-3.92056 4.77835,-7.84115 7.16748,-11.76175 2.04789,-0.83349 2.92728,0.78089 3.77588,2.00281 13.87668,19.98163 27.3512,40.23914 41.25034,60.20587 0.29733,0.42719 0.44211,0.95893 0.64471,1.44776 -2.28656,3.88055 -4.888,7.52166 -8.12063,10.68304 -2.30918,0.62415 -3.1229,-1.25281 -4.00135,-2.62768 -4.81353,-7.53376 -10.45694,-14.50922 -14.95242,-22.25324 -8.67099,-12.50885 -17.56137,-24.86801 -25.76401,-37.69681 z"
   id="path5761"
   inkscape:connector-curvature="0"
   style="fill:#762a8a" />
	<path
   d="m 199.2422,202.30725 c -3.13839,2.48459 -6.27676,4.96918 -9.41516,7.45377 -2.5479,1.23269 -4.41757,-0.24909 -6.23652,-1.64786 -18.44895,-14.18717 -37.2472,-27.91419 -55.60235,-42.22431 -1.66024,-1.29434 -3.43503,-2.55505 -3.59553,-4.96276 0.13641,-0.83817 0.6162,-1.44019 1.29826,-1.90671 3.07241,-1.50611 6.16924,-2.95185 9.60637,-3.44986 1.83838,-0.13822 3.45142,0.41925 4.91181,1.53695 19.28312,14.75855 38.57252,29.50889 58.10113,43.943 0.42557,0.31451 0.71008,0.77249 0.93199,1.25778 z"
   id="path5763"
   inkscape:connector-curvature="0"
   style="fill:#8b288c" />
	<path
   d="m 149.35748,283.95508 c 0.1472,-2.61002 -0.66466,-4.36127 -3.0202,-6.11041 -20.10033,-14.92576 -40.04216,-30.06534 -60.000977,-45.1811 -7.25708,-5.49612 -14.43174,-11.10107 -21.64399,-16.65637 -0.417191,-3.12002 1.155235,-5.29565 3.390846,-7.16382 0.675262,-0.39852 1.394577,-0.66192 2.185333,-0.69857 3.259201,0.80209 5.132416,3.59314 7.64563,5.44705 23.920978,17.64572 47.398418,35.88186 71.233998,53.64227 1.13131,0.84296 2.28378,1.64118 3.16148,2.76489 -0.98402,4.65204 -1.96808,9.30402 -2.95212,13.95606 z"
   id="path5765"
   inkscape:connector-curvature="0"
   style="fill:#b91b8c" />
	<path
   d="m 393.93713,412.15362 c 12.85712,18.961 25.70041,37.93146 38.58118,56.87644 3.24274,4.76944 6.71634,9.38498 9.86493,14.21402 1.51685,2.32648 3.54147,2.70556 5.16614,1.11124 3.06015,-3.00296 5.89636,-1.8111 8.93686,-0.42237 -2.47306,2.65076 -5.30191,4.84217 -8.48667,6.57419 -3.63516,-2.89117 -7.17175,-1.3277 -10.71054,0.24497 -0.51281,0.0349 -1.00512,-0.0475 -1.48324,-0.23319 -5.1575,-4.65659 -8.24762,-10.8819 -12.09433,-16.47909 -12.02753,-17.50083 -23.99503,-35.04554 -35.92234,-52.61634 -1.2369,-1.82217 -3.04971,-3.53512 -2.336,-6.14584 2.82801,-1.04135 5.65598,-2.0827 8.48401,-3.12403 z"
   id="path5767"
   inkscape:connector-curvature="0"
   style="fill:#b01f8d" />
	<path
   d="m 159.93072,247.89484 c 0.0244,-3.16575 -2.94375,-3.82303 -4.73834,-5.19928 -21.97012,-16.8487 -44.05123,-33.55274 -66.117802,-50.27549 -1.263786,-0.95773 -2.661728,-1.72638 -4.316505,-1.81933 -0.647369,-1.09439 0.02118,-1.91422 0.565697,-2.76496 1.759613,-1.80056 3.258865,-3.96032 5.997803,-4.44574 2.105217,-0.0756 3.659706,1.16806 5.200195,2.3082 22.213302,16.44037 44.028482,33.40903 66.191012,49.91718 0.9793,0.72943 2.00641,1.45157 2.52694,2.63821 -1.76966,3.21375 -3.53933,6.42746 -5.309,9.64121 z"
   id="path5769"
   inkscape:connector-curvature="0"
   style="fill:#a5228d" />
	<path
   d="m 58.064873,226.53143 c 10.443733,6.41889 19.810295,14.32254 29.594208,21.63944 18.187559,13.60162 36.133039,27.52664 54.222299,41.2604 1.94115,1.47376 4.16699,2.57251 6.26076,3.84528 0.0776,3.28348 0.0893,6.56122 -0.84548,9.75696 -4.16179,-1.66474 -7.30954,-4.82559 -10.79168,-7.45752 -26.81907,-20.27039 -53.474645,-40.75714 -80.492559,-60.76425 -0.71447,-0.52909 -1.3787,-1.08896 -1.844276,-1.85618 0.631641,-1.46557 1.263279,-2.93112 1.894913,-4.39669 0.682135,-0.66113 0.33359,-2.33994 2.001815,-2.02744 z"
   id="path5771"
   inkscape:connector-curvature="0"
   style="fill:#c1178c" />
	<path
   d="m 317.64694,496.58954 c -0.3529,-7e-4 -0.70581,-10e-4 -1.05871,-10e-4 -6.40638,-0.73496 -12.50599,-2.17111 -16.94117,-7.41175 1.88514,-1.93414 -0.0665,-3.26053 -0.91818,-4.51321 -10.74612,-15.80621 -21.5636,-31.56403 -32.40832,-47.30289 -1.00943,-1.46499 -2.58753,-2.69085 -0.40833,-4.37283 7.00739,4.013 14.0148,8.02609 21.02219,12.03912 11.01932,15.46631 21.40542,31.36731 32.19006,46.99506 1.13568,1.64569 3.30133,4.45373 -1.47754,4.56781 z"
   id="path5773"
   inkscape:connector-curvature="0"
   style="fill:#e60a8d" />
	<path
   d="m 397.99945,219.21646 c 4.31104,1.04401 6.62445,-2.33182 9.67688,-4.23566 10.96848,-6.84124 19.64829,-15.94522 26.26733,-26.91595 9.71494,-16.10193 12.49262,-33.60144 10.05912,-52.18183 -1.06757,-8.15142 -3.82355,-15.65002 -6.98029,-23.08486 -0.64923,-1.52912 -0.77829,-3.04425 -0.8406,-4.62421 4.49667,3.55069 8.40313,7.66809 11.79324,12.2814 5.75564,15.19187 5.95584,30.75296 2.35821,46.33664 -5.16974,22.39307 -17.03872,40.41205 -36.33294,53.26834 -5.35663,0.15415 -10.73087,0.64276 -16.00095,-0.84387 z"
   id="path5775"
   inkscape:connector-curvature="0"
   style="fill:#d0138c" />
	<path
   d="m 461.64706,475.41177 c -1.17578,0.7652 -2.48016,1.38971 -3.50155,2.32376 -2.42926,2.2215 -4.11124,1.70386 -5.8895,-0.91262 -14.99722,-22.06681 -30.07263,-44.08048 -45.10061,-66.12644 -0.68869,-1.01025 -1.14994,-2.1756 -1.71711,-3.26886 2.83344,-1.40329 5.66693,-2.80649 8.50043,-4.20965 9.96329,12.92218 18.55566,26.79315 27.81445,40.20285 6.18012,8.95083 12.43702,17.85003 18.3675,26.97097 0.98956,1.52198 3.01043,2.74152 1.52639,5.01999 z"
   id="path5777"
   inkscape:connector-curvature="0"
   style="fill:#a6228d" />
	<path
   d="m 124.94133,160.94311 c 6.14258,7.11643 14.26656,11.82078 21.55547,17.52033 12.42506,9.71579 25.16645,19.0264 37.7261,28.5715 1.72136,1.30823 3.43018,2.44235 5.60405,2.72605 -2.56721,2.43386 -5.13451,4.86773 -7.70181,7.3016 -2.49219,0.61942 -3.89533,-1.32184 -5.45873,-2.53992 -18.54703,-14.4497 -37.63485,-28.18557 -56.18716,-42.62689 -2.07021,-1.61151 -4.32006,-3.04611 -5.42454,-5.59833 -0.13434,-1.17465 0.42383,-2.03817 1.24069,-2.78982 2.76607,-1.23724 5.05918,-4.08978 8.64593,-2.56452 z"
   id="path5779"
   inkscape:connector-curvature="0"
   style="fill:#91278c" />
	<path
   d="m 78.368164,198.00449 c 23.567496,17.75195 47.126036,35.51584 70.716296,53.23748 2.36917,1.77982 4.9304,3.30393 7.40248,4.94672 -0.88474,2.53235 -1.76947,5.0647 -2.65419,7.59708 -2.19226,0.93307 -3.77787,-0.4903 -5.24404,-1.60737 -25.15971,-19.16915 -50.773968,-37.74057 -75.558307,-57.40692 -0.875664,-2.47592 1.28595,-3.55569 2.353188,-5.14502 0.873123,-0.75808 1.396743,-2.17971 2.984573,-1.62197 z"
   id="path5781"
   inkscape:connector-curvature="0"
   style="fill:#af1f8d" />
	<path
   d="m 370.58365,528.11621 c -2.54147,-6.12317 -9.23688,-7.70782 -13.34494,-12.15698 -1.62387,-1.75867 -3.80487,-3.11719 -5.94357,-4.2637 -5.22535,-2.80112 -6.80951,-8.10984 -9.69895,-12.6951 -8.30298,-13.17609 -17.28433,-25.9245 -25.98315,-38.85166 -0.78083,-1.16037 -1.44632,-2.3984 -2.16535,-3.60034 4.92832,1.42618 9.85657,2.85242 14.78489,4.2786 8.93273,14.3352 18.73471,28.08456 28.30307,41.99136 3.08367,4.48184 7.93307,6.89374 12.01901,10.19321 3.01019,2.43072 6.21814,4.6181 9.25985,7.01312 1.60239,1.26172 3.67127,2.31189 3.32105,4.93152 -3.5173,1.05334 -7.03461,2.10663 -10.55191,3.15997 z"
   id="path5783"
   inkscape:connector-curvature="0"
   style="fill:#d9108c" />
	<path
   d="m 272.23676,31.723999 c 2.09799,0.09952 4.19598,0.199005 6.294,0.298492 2.46674,0.379913 2.82904,1.701752 1.60419,3.672302 -0.75491,1.214508 -1.93479,2.031433 -2.97052,2.977295 -14.03824,12.820068 -25.50995,27.601654 -34.14131,44.566376 -1.02343,2.011536 -1.86657,4.28363 -4.61383,4.611847 -0.78492,0.07205 -1.55561,-0.01257 -2.3163,-0.206879 -2.18109,-0.735596 -4.37725,-1.422577 -6.65477,-1.827606 -1.03579,-0.34787 -1.98577,-0.784882 -2.06325,-2.08197 7.87044,-17.105621 18.48926,-32.37088 30.76312,-46.596283 3.89859,-4.518432 7.96478,-7.326416 14.09867,-5.413574 z"
   id="path5785"
   inkscape:connector-curvature="0"
   style="fill:#aa218d" />
	<path
   d="m 316.64941,39.15451 c -16.22668,8.55191 -30.01202,19.997711 -41.18017,34.585724 -4.93115,6.441162 -8.96704,13.427673 -12.8822,20.498352 -2.75071,1.610229 -5.07013,-0.540558 -7.60325,-0.860443 -1.03172,-0.363861 -1.97967,-0.827332 -2.2913,-2.010315 3.78801,-11.646301 11.06395,-21.242889 18.84511,-30.312592 7.5646,-8.817261 15.90487,-17.006409 25.81366,-23.338226 1.7257,-1.102722 3.2684,-2.868591 5.69131,-1.794434 4.71875,0.306306 9.19379,1.638673 13.60684,3.231934 z"
   id="path5787"
   inkscape:connector-curvature="0"
   style="fill:#ba1b8c" />
	<path
   d="m 212.16093,193.94379 c -2.00456,1.72207 -4.18547,3.15582 -6.67601,4.0834 -2.5512,1.27307 -4.35141,-0.3403 -6.16232,-1.67828 -16.94485,-12.51984 -33.3589,-25.74256 -50.43292,-38.0932 -2.12698,-1.53858 -4.16538,-3.26804 -4.96243,-5.98111 -0.68024,-12.90503 0.86197,-25.63547 2.97751,-38.31543 0.32217,-1.931 1.1018,-3.72418 2.84608,-4.8899 4.68649,0.60071 3.21995,4.90955 4.54886,7.53702 -2.61015,9.57849 -2.05908,19.51615 -3.25311,29.25904 -0.64313,5.24758 2.80897,4.62268 6.07078,4.31152 0.81676,0.022 1.59461,0.20453 2.31999,0.58142 1.67554,4.32162 5.3458,6.7258 8.86901,9.32165 14.18614,10.45215 28.20561,21.12577 42.14087,31.90998 0.69662,0.53912 1.39413,1.08197 1.71369,1.95389 z"
   id="path5789"
   inkscape:connector-curvature="0"
   style="fill:#83298b" />
	<path
   d="m 509.05621,365.25446 c -3.44143,-2.33436 -5.3453,-5.96228 -7.60617,-9.24741 -11.68841,-16.9838 -23.29324,-34.02521 -34.91299,-51.05621 -0.88077,-1.2909 -1.45313,-2.84244 -3.1517,-3.35276 1.89987,-3.44268 3.7998,-6.88525 5.69973,-10.32788 6.23896,7.22986 11.41181,15.2237 16.62055,23.19184 0.096,0.36279 0.19198,0.72558 0.2879,1.0884 2.8129,2.42896 4.89014,5.48911 6.83188,8.57187 6.96954,11.06488 15.33755,21.19904 21.68076,32.67514 -1.04456,3.31656 -3.79185,5.53586 -5.44996,8.45701 z"
   id="path5791"
   inkscape:connector-curvature="0"
   style="fill:#722b89" />
	<path
   d="m 54.168144,232.95557 c 6.789707,2.4017 11.686134,7.6521 17.278175,11.77893 19.901985,14.68737 39.696861,29.52966 59.216441,44.71923 5.63012,4.38117 12.04207,7.89911 16.63375,13.57959 -0.0592,1.69501 -0.11859,3.38984 -0.17795,5.0846 -3.13034,2.1217 -4.93457,-0.64624 -6.88345,-2.07895 -19.60787,-14.41446 -38.73052,-29.47488 -58.317706,-43.91785 -8.800377,-6.48913 -17.283173,-13.39248 -26.084641,-19.88025 -1.519875,-1.12033 -3.394196,-1.98541 -4.020111,-4.03659 0.276795,-1.97772 1.256955,-3.63977 2.355492,-5.24871 z"
   id="path5793"
   inkscape:connector-curvature="0"
   style="fill:#c5168c" />
	<path
   d="m 389.75369,71.767639 c -3.2648,3.211914 -6.86624,0.510254 -9.91919,-0.03607 -13.92279,-2.491425 -26.97821,0.350708 -39.43698,5.933838 -26.07513,11.685059 -40.80899,32.506013 -45.79739,60.195433 -3.50461,19.45291 1.29086,37.5228 11.37823,54.32016 1.15183,1.91809 3.06833,3.45032 3.15625,5.93912 -2.03888,0.17944 -3.71408,-0.75476 -5.36822,-1.75336 -8.37805,-9.45279 -11.92285,-21.05548 -13.88617,-33.08771 -4.4704,-27.39645 3.37283,-51.53268 21.92447,-71.680416 14.37222,-15.608765 32.82513,-24.124298 54.24887,-25.188995 5.73029,-0.28476 11.63327,-0.973541 17.21826,1.362762 2.44336,0.873048 4.59686,2.21634 6.48187,3.99524 z"
   id="path5795"
   inkscape:connector-curvature="0"
   style="fill:#d1138c" />
	<path
   d="m 178.00331,221.33182 c -1.78683,2.11398 -3.5737,4.22796 -5.36056,6.34195 -2.22506,0.79239 -3.66262,-0.66803 -5.18895,-1.83347 -19.91011,-15.20276 -39.99419,-30.17587 -59.89261,-45.39358 -2.04562,-1.56443 -4.68026,-2.64783 -5.44038,-5.52262 0.34985,-3.12881 3.08944,-3.93133 5.19923,-5.35501 0.96033,-0.44269 1.94132,-0.77441 3.01918,-0.48874 21.20544,16.90415 43.29229,32.65882 64.70433,49.29901 1.10167,0.85617 2.33728,1.60443 2.95976,2.95246 z"
   id="path5797"
   inkscape:connector-curvature="0"
   style="fill:#99258c" />
	<path
   d="m 408.82013,513.58069 c -3.40021,2.86865 -7.55271,4.13129 -11.67102,5.46686 -7.36728,-4.69642 -14.55411,-9.70038 -21.7135,-14.66617 -6.18341,-4.28882 -8.92728,-12.01242 -13.5102,-17.99143 -3.62234,-4.72574 -6.72219,-9.8508 -9.97052,-14.8529 -1.2091,-1.86188 -3.21862,-3.84174 -1.82571,-6.17081 1.28076,-2.14163 3.85998,-0.71448 5.83707,-1.03708 0.68994,-0.11252 1.39517,0.005 1.9826,0.47009 1.38974,0.0274 2.77948,0.0548 4.16922,0.0821 5.11124,6.05166 9.34158,12.73108 13.75379,19.28171 3.04272,4.51739 6.02188,9.0744 9.26397,13.46069 2.20084,2.97757 4.77896,4.67023 8.54444,5.45941 6.35904,1.33279 11.25116,5.32135 15.13986,10.4975 z"
   id="path5799"
   inkscape:connector-curvature="0"
   style="fill:#cc138c" />
	<path
   d="m 357.94885,464.79926 c -0.52603,0.008 -1.06198,-0.047 -1.57629,0.0347 -1.82517,0.28998 -4.21546,-0.96151 -5.37949,0.94458 -1.26504,2.07144 1.08097,3.51676 2.04697,4.97632 6.45996,9.76059 13.14096,19.37448 19.67816,29.08453 2.13709,3.17438 5.11777,5.09867 8.42682,6.86072 6.00497,3.19779 11.64856,6.96445 16.00406,12.34739 -2.98779,1.85406 -6.35056,2.75268 -9.65863,3.79064 -10.15247,-7.14025 -20.95691,-13.45129 -27.83121,-24.42968 -6.0592,-9.67664 -12.88434,-18.85718 -19.19296,-28.37607 -1.3671,-2.06281 -3.62662,-4.14115 -1.64175,-7.07724 6.37478,0.61472 12.74954,1.22943 19.12432,1.84412 z"
   id="path5801"
   inkscape:connector-curvature="0"
   style="fill:#d1138c" />
	<path
   d="m 461.64706,475.41177 c -6.13501,-9.13238 -12.23993,-18.28512 -18.41198,-27.39242 -9.34778,-13.79346 -18.75858,-27.54425 -28.08194,-41.35407 -0.65964,-0.97705 -0.8212,-2.29034 -1.21442,-3.44729 2.10175,-1.07791 4.20346,-2.1558 6.30518,-3.23368 2.64337,1.15122 3.57501,3.79618 5.03283,5.93027 4.46762,6.54019 8.73712,13.21701 13.70456,19.40311 8.02838,13.70794 17.80969,26.24557 26.46332,39.53772 1.4407,2.21301 3.20224,3.81952 6.10696,1.9226 1.20841,-0.78906 2.63492,-1.07366 3.87302,0.16666 -2.10086,2.90631 -4.73679,5.25992 -7.6106,7.36786 -2.2972,-0.98874 -4.34719,-0.59073 -6.16693,1.09924 z"
   id="path5803"
   inkscape:connector-curvature="0"
   style="fill:#a2238d" />
	<path
   d="m 201.11835,385.43216 c 2.49807,1.44949 4.20483,3.60974 5.79657,5.98727 8.68391,12.97071 17.44107,25.89249 26.20747,38.80777 5.61536,8.27295 11.33028,16.47864 16.89557,24.78489 0.84572,1.26223 2.80859,2.58001 0.92322,4.51733 -4.32355,-3.21851 -8.64707,-6.43701 -12.97064,-9.65558 -2.82061,-5.15549 -7.6711,-8.52435 -11.40635,-12.8858 -11.46406,-13.38602 -20.76461,-27.87775 -24.68916,-45.32263 -0.45708,-2.03168 -0.51416,-4.15332 -0.75668,-6.23325 z"
   id="path5805"
   inkscape:connector-curvature="0"
   style="fill:#eb108e" />
	<path
   d="m 383.27182,67.7724 c -17.82275,-0.952118 -35.27667,0.528442 -51.06622,9.721008 -15.70969,9.146057 -27.67127,21.734375 -34.89789,38.807772 -4.81845,11.38403 -7.38312,23.00635 -7.17468,35.28219 0.24993,14.72101 4.51104,28.30146 11.9042,40.96662 0.70017,1.19946 1.15839,2.54019 1.72907,3.81604 -2.13123,-0.72992 -4.4216,-1.06967 -6.25107,-2.54233 -0.71521,-5.8739 -4.24939,-10.69263 -6.03369,-16.20566 -9.62406,-29.73566 -4.45661,-56.78253 14.21566,-81.469847 13.26032,-17.532013 31.35019,-27.265564 52.59967,-31.321442 5.06788,-0.967316 10.40088,-0.611359 15.42939,-2.213959 3.67926,0.799684 6.60568,2.992097 9.54556,5.159608 z"
   id="path5807"
   inkscape:connector-curvature="0"
   style="fill:#d1138d" />
	<path
   d="m 165.23972,238.25363 c -7.44155,-3.66174 -13.44225,-9.37356 -20.01166,-14.25055 -16.46477,-12.22311 -32.68971,-24.76892 -49.09202,-37.07715 -1.473587,-1.1058 -2.896492,-2.664 -5.032211,-2.67865 -0.261879,-0.26998 -0.388336,-0.56579 -0.37941,-0.88732 0.0093,-0.33448 0.04758,-0.50168 0.111526,-0.50351 1.446663,-1.92032 3.391983,-3.09693 5.661316,-3.79419 2.303833,-0.38687 4.139839,0.72397 5.820659,2.01709 22.20279,17.0813 44.78877,33.65747 66.94407,50.80102 -0.74811,2.49844 -2.43512,4.40436 -4.02227,6.37326 z"
   id="path5809"
   inkscape:connector-curvature="0"
   style="fill:#a1238d" />
	<path
   d="m 73.140854,204.35947 c 7.10881,3.52307 12.850182,9.00027 19.169273,13.62649 14.274853,10.45062 28.276723,21.27527 42.345303,32.00589 6.26522,4.77875 12.10647,10.13782 19.17724,13.79386 -0.50764,2.07113 -1.01535,4.14224 -1.52307,6.21331 -6.88211,-2.55712 -11.91363,-7.86773 -17.63188,-12.09683 -19.69498,-14.56616 -39.186227,-29.40805 -58.726502,-44.18274 -2.090981,-1.58099 -3.994461,-3.41 -5.984932,-5.12396 -0.495842,-2.57663 1.116676,-3.57324 3.174568,-4.23602 z"
   id="path5811"
   inkscape:connector-curvature="0"
   style="fill:#b41d8c" />
	<path
   d="m 434.20465,499.95886 c -3.60773,2.84924 -7.53641,5.16107 -11.74057,7.01169 -3.99966,-3.38178 -7.64181,-7.26309 -13.80652,-6.21432 -2.47482,0.42102 -3.85019,-2.03949 -5.23599,-3.89805 -5.68646,-7.62606 -10.74991,-15.6748 -16.04053,-23.56832 -2.70398,-4.03428 -5.35946,-7.96637 -11.09301,-7.48752 -0.6933,0.058 -1.29059,-0.49054 -1.70975,-1.09641 7.14081,-0.62482 14.28168,-1.24969 21.42248,-1.87454 5.15479,5.07129 8.67264,11.36063 12.77259,17.21381 2.30706,3.29357 4.63339,6.59213 6.65872,10.05944 2.22229,3.8046 4.64837,5.47434 9.38547,3.78754 4.52627,-1.61169 8.21301,1.22327 9.38711,6.06668 z"
   id="path5813"
   inkscape:connector-curvature="0"
   style="fill:#be198d" />
	<path
   d="m 414.0004,220.06033 c 0.65387,-3.60592 4.1719,-4.64441 6.42868,-6.56076 22.91031,-19.45474 31.86889,-44.56183 30.5935,-73.92855 -0.28091,-6.46778 -3.17383,-12.55869 -3.04748,-19.11561 3.60919,3.58408 7.12198,7.24357 9.32428,11.92753 2.67575,26.31637 -1.79761,50.79855 -18.40457,72.21429 -2.6037,3.35763 -5.6507,6.26816 -8.60562,9.2803 -1.49555,1.52448 -3.12595,2.9755 -2.17115,5.46469 -4.64526,1.43076 -9.3941,0.82602 -14.11764,0.71811 z"
   id="path5815"
   inkscape:connector-curvature="0"
   style="fill:#cd138c" />
	<path
   d="m 501.90195,300.74652 c 3.492,-4.67792 6.98401,-9.35577 10.47598,-14.03366 4.46008,4.28973 7.4397,9.68155 10.90436,14.70749 3.27997,4.75812 6.28473,9.70981 10.06952,14.1069 -1.71021,6.25864 -3.70764,12.40891 -6.83527,18.13327 -2.4198,0.80194 -3.59692,-1.03836 -4.64813,-2.5 -6.82929,-9.49576 -13.36673,-19.1954 -19.86603,-28.91974 -0.29718,-0.44467 -0.2901,-0.98077 -0.10043,-1.49426 z"
   id="path5817"
   inkscape:connector-curvature="0"
   style="fill:#612c89" />
	<path
   d="m 456.2178,313.35977 c 1.08091,0.88757 2.439,1.58463 3.19993,2.69205 7.85732,11.4353 15.61813,22.93689 23.40579,34.42004 -0.36368,3.36957 -1.75196,5.60682 -5.62906,5.09348 -1.56217,0.81634 -3.12433,1.63266 -4.68646,2.44897 -2.21827,0.71946 -3.23246,-0.95334 -4.27753,-2.29641 -6.83191,-8.7793 -12.32495,-18.48505 -18.90372,-27.44403 -0.95257,-1.29725 -1.48327,-2.84095 -0.44925,-4.43857 2.44678,-3.49186 4.89356,-6.98368 7.3403,-10.47553 z"
   id="path5819"
   inkscape:connector-curvature="0"
   style="fill:#7c2a8a" />
	<path
   d="m 428.11804,219.34222 c -4.94446,-0.27539 -3.15777,-2.293 -1.03717,-4.22421 7.84808,-7.14719 14.50556,-15.25754 19.27603,-24.74676 6.36484,-12.66062 10.29605,-25.9415 10.09369,-40.34131 -0.0824,-5.86414 -1.18811,-11.85654 0.84879,-17.64701 2.75415,3.7284 6.21569,6.96912 7.88864,11.44291 -1.68128,9.47891 -0.86575,19.23602 -3.57599,28.63162 -4.49326,15.57675 -11.62085,29.6763 -22.34363,41.88318 -1.7149,1.95224 -3.39575,4.05154 -6.17267,4.63598 -1.65924,0.12186 -3.31845,0.24372 -4.97769,0.3656 z"
   id="path5821"
   inkscape:connector-curvature="0"
   style="fill:#ca138c" />
	<path
   d="m 228.98157,185.44424 c -3.6185,1.72486 -7.23702,3.44971 -10.85552,5.17456 -15.11896,-11.18618 -30.04129,-22.63281 -44.9651,-34.07595 -1.72569,-1.32322 -4.78339,-2.54731 -2.32213,-5.75965 1.27501,-0.71774 2.68544,-0.74801 4.0866,-0.84259 2.29624,-0.0191 4.59315,-0.0662 6.88439,0.11548 2.93132,0.70392 6.10225,0.50629 8.75966,2.26746 0.76204,2.73248 2.96193,4.2157 5.06296,5.78659 9.67714,7.23532 19.35556,14.46911 28.99016,21.76095 1.92457,1.45664 4.18451,2.71817 4.35898,5.57315 z"
   id="path5823"
   inkscape:connector-curvature="0"
   style="fill:#7b2a8a" />
	<path
   d="m 331.40637,205.44571 c -3.59903,-5.67093 -9.24423,-9.44672 -13.3515,-14.75305 -9.33569,-12.06113 -14.13315,-25.88761 -13.92239,-40.60682 0.46911,-32.76492 21.41949,-60.874751 54.99481,-67.249171 33.504,-6.36087 64.94406,16.493073 72.96466,47.642151 9.65753,37.50647 -13.21536,74.84225 -49.31732,83.48041 -2.69992,0.64602 -5.07535,2.55447 -8.06797,2.08587 -1.8724,0.0452 -3.75067,0.12204 -5.39654,-1.02606 9.33743,-2.30493 19.05957,-3.22113 27.70917,-7.98172 19.96454,-10.98819 32.06634,-27.4642 34.99868,-50.24545 3.60019,-27.96964 -6.99008,-49.83371 -30.46588,-64.570527 -17.1697,-10.778229 -36.18606,-11.836731 -55.0957,-3.861938 -23.3616,9.852386 -36.92157,28.063045 -40.04004,52.734315 -2.91754,23.08154 4.37381,43.26526 22.8078,58.75095 3.16312,2.65719 7.39728,4.12237 9.50467,8.02389 -2.4602,-0.7489 -5.09924,-0.95761 -7.32245,-2.42285 z"
   id="path5825"
   inkscape:connector-curvature="0"
   style="fill:#d9108c" />
	<path
   d="m 433.09573,218.97662 c 18.19385,-19.03299 29.56586,-41.03466 29.6222,-67.97625 0.006,-2.64753 0.29827,-5.24781 2.46994,-7.17441 3.00457,3.41421 4.06735,7.81848 6.00442,11.77701 1.42371,3.9082 -0.34347,7.56372 -0.95294,11.29223 -2.64923,16.20627 -9.05936,30.82764 -18.74387,44.05402 -1.34677,1.83938 -2.59341,3.74386 -4.64764,4.89868 -4.40256,1.84064 -9.03076,2.68936 -13.75211,3.12872 z"
   id="path5827"
   inkscape:connector-curvature="0"
   style="fill:#c8148c" />
	<path
   d="m 338.82452,462.95514 c -0.24441,3.33288 2.08963,5.53638 3.69785,7.96371 5.81265,8.77344 12.1022,17.24381 17.63992,26.18283 5.4473,8.79303 13.60767,14.45151 21.62015,20.35181 2.15555,1.58734 4.10702,3.26831 5.70801,5.38465 -2.11829,0.70605 -4.23661,1.4121 -6.35489,2.1181 -5.69418,-6.30634 -12.99408,-10.65058 -19.76401,-15.55139 -4.6561,-3.37067 -7.3591,-7.99976 -10.48282,-12.32199 -7.18902,-9.9473 -13.80304,-20.30896 -20.73279,-30.44611 -1.23501,-1.80655 -2.2482,-3.55063 -1.92337,-5.80972 3.53067,0.70938 7.06131,1.41876 10.59195,2.12811 z"
   id="path5829"
   inkscape:connector-curvature="0"
   style="fill:#d5128c" />
	<path
   d="m 51.812653,238.20428 c 10.908611,6.70206 20.480911,15.20948 30.716843,22.81885 20.349684,15.12793 40.511014,30.50943 60.711854,45.83667 1.2194,0.92517 2.42805,1.32047 3.87721,1.25812 -9e-5,2.11755 -1.8e-4,4.23511 -2.7e-4,6.35263 -6.84871,-2.25677 -11.67969,-7.57959 -17.24774,-11.68674 -21.39103,-15.77862 -42.516896,-31.91674 -63.73644,-47.9277 -5.44363,-4.10742 -10.868095,-8.24026 -16.300972,-12.36118 0.111167,-1.68328 0.791755,-3.10391 1.979515,-4.29065 z"
   id="path5831"
   inkscape:connector-curvature="0"
   style="fill:#c8148c" />
	<path
   d="m 501.90198,300.74652 c 7.30566,8.69421 12.78076,18.68176 19.57123,27.74487 1.48089,1.9765 2.74804,4.03937 5.04333,5.16907 -1.58124,5.22321 -4.21881,9.94367 -6.95563,14.61694 -2.22229,0.20423 -2.93676,-1.63812 -3.95642,-2.98883 -7.53866,-9.98669 -13.76196,-20.88672 -21.37332,-30.8266 -0.92902,-1.21328 -2.12659,-2.5213 -0.82242,-4.23516 2.83109,-3.1601 5.66214,-6.32019 8.49323,-9.48029 z"
   id="path5833"
   inkscape:connector-curvature="0"
   style="fill:#692c89" />
	<path
   d="m 38.147171,300.71594 c 0.08739,-2.51239 -0.764809,-5.64587 3.629005,-2.30987 35.814339,27.19214 71.745304,54.23065 107.653984,81.29846 5.30983,4.00256 10.69301,7.90784 16.03294,11.8706 1.56769,1.16333 3.1548,2.25022 5.21982,2.24073 1.93387,2.30792 3.96398,4.55194 4.96594,7.4786 -3.16542,0.59067 -5.37671,-1.37738 -7.576,-3.04141 C 139.69534,376.78272 111.36619,355.24847 83.005874,333.75537 70.57405,324.3338 58.11861,314.94296 45.626823,305.60113 c -2.379962,-1.77981 -4.980743,-3.2644 -7.479652,-4.88519 z"
   id="path5835"
   inkscape:connector-curvature="0"
   style="fill:#e60a8d" />
	<path
   d="m 178.00331,221.33182 c -7.35283,-3.48404 -13.17483,-9.16495 -19.63968,-13.8956 -14.15045,-10.35452 -27.99531,-21.12637 -41.98475,-31.7016 -2.40299,-1.81656 -4.61771,-3.78729 -6.26333,-6.33701 0.61384,-2.95993 2.23708,-4.24237 5.27484,-3.17404 22.24492,16.94635 44.48983,33.8927 66.73475,50.83902 -1.37394,1.4231 -2.74787,2.84616 -4.12183,4.26923 z"
   id="path5837"
   inkscape:connector-curvature="0"
   style="fill:#95268c" />
	<path
   d="m 169.26199,231.88037 c -6.70974,-2.03894 -11.38756,-7.19205 -16.75786,-11.19894 -16.80923,-12.54166 -33.37113,-25.4144 -50.10282,-38.06098 -1.73932,-1.31466 -3.51276,-3.0635 -6.102741,-2.64148 -0.4888,-2.47726 1.499481,-3.42657 2.910347,-4.73788 1.099824,-0.57321 2.187984,-1.24967 3.491634,-0.56244 10.48797,8.17956 20.92901,16.42023 31.47648,24.52234 11.68479,8.97571 23.45865,17.83563 35.2217,26.70889 0.97185,0.73309 2.15764,1.18262 3.24402,1.76389 -0.4941,1.91076 -2.30709,2.76159 -3.38076,4.2066 z"
   id="path5839"
   inkscape:connector-curvature="0"
   style="fill:#9d248d" />
	<path
   d="m 238.24397,86.819763 c 5.00193,-2.83667 5.72521,-8.562286 8.34967,-12.915649 8.43445,-13.99054 18.83086,-26.227448 30.79924,-37.219696 1.49948,-1.377136 4.0466,-2.294769 1.13788,-4.661926 4.27496,0.22998 8.55594,0.41745 12.66812,1.795837 1.5055,3.050507 -1.20474,4.043335 -2.80932,5.337494 -14.11838,11.387451 -25.76465,24.871429 -34.99309,40.492004 -2.02083,3.420593 -2.80304,7.675995 -6.46478,10.054474 -0.76369,0.252991 -1.54554,0.310638 -2.34185,0.228821 -1.79634,-0.360992 -3.61223,-0.647583 -5.35705,-1.245514 -0.72251,-0.412476 -1.30557,-0.902466 -0.98882,-1.865845 z"
   id="path5841"
   inkscape:connector-curvature="0"
   style="fill:#b01e8d" />
	<path
   d="m 493.3667,209.52109 c -0.51859,4.4162 0.90436,8.04898 3.62506,11.62323 4.2533,5.58761 8.00909,11.55951 11.86011,17.44424 1.14328,1.74704 2.00366,3.49552 4.42328,1.80383 -0.54786,7.89234 -1.91965,15.63514 -4.21177,23.21094 -2.13714,0.39441 -3.30685,-1.09936 -4.2619,-2.50351 -5.23068,-7.69046 -10.86795,-15.09973 -15.86722,-22.94906 1.47745,-9.54325 2.95496,-19.08646 4.43244,-28.62967 z"
   id="path5843"
   inkscape:connector-curvature="0"
   style="fill:#572d89" />
	<path
   d="m 170.47188,151.41565 c 1.78119,4.87949 6.69333,6.40735 10.27635,9.23019 11.68779,9.20816 23.69685,18.00907 35.60992,26.92978 1.07439,0.80451 1.7351,1.70441 1.7679,3.04318 -1.7503,1.53568 -3.7653,2.59632 -5.96528,3.32492 -7.97989,-3.81222 -14.04828,-10.28625 -21.18128,-15.2889 -9.59848,-6.73182 -18.84919,-13.96238 -28.18733,-21.06022 -1.95402,-1.48526 -4.98195,-2.69992 -2.90916,-6.18154 3.53018,-2.26697 7.05981,-2.2692 10.58888,0.003 z"
   id="path5845"
   inkscape:connector-curvature="0"
   style="fill:#7f2a8b" />
	<path
   d="m 145.05882,153.52942 c 18.55541,14.12994 37.11078,28.25995 55.66632,42.38971 1.41898,1.08053 2.93058,1.95312 4.75977,2.10803 -1.84047,1.77743 -3.89764,3.23874 -6.24274,4.28009 -8.56372,-3.87262 -15.235,-10.48602 -22.69731,-15.91928 -12.59985,-9.1738 -24.79805,-18.90051 -37.11883,-28.45441 -1.22013,-0.94613 -2.45203,-1.2811 -3.89661,-1.22769 -0.24367,-1.96606 1.40625,-1.96118 2.56226,-2.47504 2.29765,-0.45956 4.51722,-1.74047 6.96714,-0.70141 z"
   id="path5847"
   inkscape:connector-curvature="0"
   style="fill:#87288b" />
	<path
   d="m 397.83362,458.55728 c -2.44272,0.0148 -4.91809,0.28003 -7.19995,-0.93887 -7.59192,-9.75412 -13.85922,-20.43131 -21.1579,-30.39292 -1.45517,-1.98608 -3.16544,-3.78195 -4.41818,-5.91616 3.80789,-1.49286 7.74728,-2.48755 11.78479,-3.1106 3.23739,-1.14734 4.3385,1.45752 5.66821,3.37878 7.02344,10.14771 14.08578,20.27072 20.78906,30.63483 1.19919,1.85419 3.50287,3.93036 2.05515,6.07181 -1.16333,1.72073 -3.95221,0.47473 -6.00797,0.67303 -0.52804,0.051 -1.03506,-0.16488 -1.51321,-0.3999 z"
   id="path5849"
   inkscape:connector-curvature="0"
   style="fill:#ba1b8d" />
	<path
   d="m 272.23676,31.723999 c -6.13331,-1.308746 -9.84269,2.282104 -13.33106,6.484467 -9.29834,11.201569 -17.98393,22.795898 -25.2314,35.493164 -1.89555,3.320953 -1.53548,8.165649 -6.002,9.936432 -2.68845,1.500671 -4.64957,0.125732 -6.51128,-1.639343 -0.45855,-4.489594 2.034,-8.003265 3.99987,-11.645813 6.26231,-11.603546 13.45407,-22.580719 22.20337,-32.496155 1.0124,-1.147369 2.08538,-2.341278 2.61905,-3.888794 -1.73772,-1.631989 -3.82077,-0.515472 -5.58469,-1.076294 -0.78322,-0.163147 -1.47458,-0.482208 -1.96439,-1.143585 2.68447,-1.988251 5.81485,-0.505829 8.67652,-1.114868 7.01724,0.842773 14.15591,-0.665467 21.12601,1.090789 z"
   id="path5851"
   inkscape:connector-curvature="0"
   style="fill:#a6228e" />
	<path
   d="m 434.20465,499.95886 c -2.8862,-4.33297 -6.22229,-7.16589 -11.72449,-3.96908 -2.11947,1.23135 -4.25732,0.67764 -5.522,-1.36051 -6.69638,-10.7919 -14.79233,-20.65933 -20.9574,-31.79788 2.76734,-0.64786 5.51426,-1.43778 8.40772,-1.20618 3.42108,-1.48605 5.19278,0.74304 6.80954,3.11234 4.91534,7.20334 10.04114,14.26144 14.80753,21.56836 1.51959,2.32956 3.04003,4.88647 6.57946,3.94146 1.20926,-0.2658 2.42047,-0.59027 3.63028,-0.0121 0.35263,-1.5e-4 0.70523,-6.1e-4 1.05786,-0.001 2.97757,-0.25681 5.05277,0.66467 5.25843,4.02722 -3.16318,1.34125 -4.9982,4.62817 -8.34693,5.69763 z"
   id="path5853"
   inkscape:connector-curvature="0"
   style="fill:#ba1b8c" />
	<path
   d="m 500.72131,438.31769 c -2.40478,3.87805 -5.33163,7.3349 -8.53027,10.57245 -1.89365,1.42266 -2.99585,-0.0926 -3.90497,-1.26883 -6.88757,-8.9111 -12.70736,-18.5603 -19.0766,-27.83121 -0.49869,-0.72583 -0.56668,-1.65195 -0.13299,-2.51636 4.58368,-2.10205 9.16735,-4.2041 13.75103,-6.30612 5.83332,9.20255 13.23627,17.37824 17.8938,27.35007 z"
   id="path5855"
   inkscape:connector-curvature="0"
   style="fill:#8c288c" />
	<path
   d="m 374.57828,464.70593 c 6.76822,-1.34585 10.46679,2.37018 13.80319,7.64576 5.2355,8.27844 11.09409,16.16046 16.49304,24.3396 1.4188,2.14941 2.91648,3.60885 5.48828,3.02874 6.4133,-1.44665 9.54233,2.37766 12.10129,7.25052 -1.92889,1.53198 -3.99298,2.80454 -6.4346,3.35239 -3.71005,1.60229 -5.41431,-1.90033 -8.01315,-3.13248 -0.40006,-0.24219 -0.77298,-0.52344 -1.13669,-0.81503 -1.19827,-1.09104 -2.47583,-2.04022 -4.14111,-2.30222 -1.42633,-0.36346 -2.83454,-0.7724 -4.19202,-1.34909 -4.26364,-2.57037 -6.14704,-7.14343 -8.93051,-10.90756 -5.22022,-7.0593 -9.66629,-14.66745 -14.8259,-21.78592 -1.0871,-1.49979 -2.5011,-3.12921 -1.02539,-5.22009 0.24271,-0.25647 0.51388,-0.29135 0.81357,-0.10462 z"
   id="path5857"
   inkscape:connector-curvature="0"
   style="fill:#c4168d" />
	<path
   d="m 246.69255,88.949005 c 4.737,-7.162384 8.39285,-14.940094 13.46034,-21.966431 8.10907,-11.243774 17.75852,-20.841248 28.38169,-29.570038 1.2579,-1.0336 2.66064,-1.72879 2.6643,-3.594208 4.08408,-0.06717 8.00614,0.777466 11.84308,2.104401 -6.67389,3.193909 -12.22168,7.957977 -17.69195,12.804626 -13.53339,11.990448 -23.83106,26.464111 -32.29183,42.331787 -0.61038,0.619171 -1.36303,0.869141 -2.21808,0.862823 -1.7075,-0.533903 -3.98977,-0.275664 -4.14755,-2.97296 z"
   id="path5859"
   inkscape:connector-curvature="0"
   style="fill:#b51d8d" />
	<path
   d="m 317.64694,496.58954 c 3.9119,-1.09754 1.06598,-3.12079 0.30844,-4.24161 -9.32895,-13.80255 -18.83303,-27.48657 -28.18145,-41.27615 -1.23087,-1.81565 -3.15723,-3.44538 -2.83951,-6.04511 4.24215,2.05088 8.48428,4.10169 12.72644,6.15253 8.73147,14.74142 19.08459,28.39963 28.50802,42.67883 0.38507,0.58353 0.89038,1.11731 1.14344,1.75247 0.59512,1.49381 3.04412,2.64026 1.46368,4.52146 -1.30627,1.55484 -3.01242,-0.008 -4.34216,-0.50272 -2.90833,-1.08108 -6.2898,-0.81247 -8.7869,-3.0397 z"
   id="path5861"
   inkscape:connector-curvature="0"
   style="fill:#e30c8c" />
	<path
   d="m 436.23529,490.23529 c -1.05881,0.35297 -2.11764,0.70587 -3.17645,1.05884 -3.20163,-1.62198 -4.46915,-4.8873 -6.21048,-7.64752 -5.05695,-8.01612 -10.67298,-15.62339 -16.33975,-23.20169 -3.93631,-2.55985 -8.65836,0.15411 -12.67337,-1.88782 2.25616,1.8e-4 4.51397,1.8e-4 7.06936,1.8e-4 -0.57068,-3.42911 -2.64874,-5.41742 -4.17624,-7.6806 -6.66101,-9.86884 -13.38098,-19.69788 -20.02752,-29.57636 -0.99234,-1.47485 -1.71823,-3.12338 -3.85834,-3.10153 2.87012,-0.97375 5.74039,-1.94745 8.61063,-2.92114 13.57876,20.04925 27.15692,40.09894 40.73681,60.1474 3.3454,4.93884 6.69675,9.8736 10.04535,14.81024 z"
   id="path5863"
   inkscape:connector-curvature="0"
   style="fill:#b51d8d" />
	<path
   d="m 365.05759,421.30933 c 4.03698,0.56961 4.66806,4.44332 6.52359,6.99243 5.97104,8.20306 11.68359,16.59485 17.45391,24.94281 0.89231,1.29098 1.69974,2.68527 1.59861,4.37381 -5.87274,-0.52716 -11.53568,-1.85773 -16.88025,-4.40763 -6.5607,-8.21231 -12.19827,-17.06497 -17.90833,-25.86578 -0.75851,-1.16913 -1.41085,-2.43182 -1.31637,-3.91547 3.39795,-1.26132 6.92511,-1.88095 10.52884,-2.12017 z"
   id="path5865"
   inkscape:connector-curvature="0"
   style="fill:#be198d" />
	<path
   d="m 446.84784,215.8479 c 4.52145,-8.30267 10.60782,-15.60208 14.53995,-24.35263 5.1788,-11.52472 7.11526,-23.77558 9.8045,-35.89227 3.08521,5.97592 5.19797,12.22299 5.30505,19.02917 -0.12747,6.98654 -3.64267,12.93057 -6.11605,19.15048 -1.86289,4.68454 -4.23752,9.19278 -6.64893,13.64862 -4.92673,4.21274 -10.63785,6.85187 -16.88452,8.41663 z"
   id="path5867"
   inkscape:connector-curvature="0"
   style="fill:#c3178d" />
	<path
   d="m 493.40875,310.22681 c 6.82355,10.17444 13.61823,20.36847 20.4906,30.50985 1.76117,2.59897 3.76776,5.03168 5.66156,7.54075 -1.34149,3.04376 -2.89105,5.96408 -5.05475,8.52005 -4.32006,-3.02854 -6.25534,-7.94077 -9.12213,-12.04123 -6.69198,-9.57169 -13.62655,-19.00855 -19.3905,-29.20578 3.46588,-0.38987 4.66373,-3.93882 7.41522,-5.32364 z"
   id="path5869"
   inkscape:connector-curvature="0"
   style="fill:#6e2b8a" />
	<path
   d="m 477.19446,355.56534 c 2.7239,-0.76114 4.07965,-3.03437 5.62906,-5.09348 5.22097,7.62006 10.46417,15.22501 15.63647,22.87793 0.69702,1.03134 1.24909,2.10474 2.47559,2.58771 -2.56931,4.02667 -5.74335,7.52722 -9.30228,10.69299 -1.92261,0.74527 -3.05231,-0.5621 -3.90127,-1.81399 -4.59894,-6.78177 -9.5391,-13.32956 -13.91501,-20.26248 -0.66364,-1.05133 -1.0474,-2.21448 -0.51444,-3.47711 1.12161,-1.96125 3.57218,-2.98408 3.89188,-5.51157 z"
   id="path5871"
   inkscape:connector-curvature="0"
   style="fill:#7c2a8b" />
	<path
   d="m 446.77231,383.18628 c 3.56878,-2.68353 7.1376,-5.36701 10.70642,-8.05048 0.68445,0.15225 1.44223,0.28559 1.8638,0.85614 5.68487,7.69489 11.09308,15.58158 16.24121,23.64533 0.39124,0.61285 0.33795,1.3244 -0.0326,1.97839 -3.17261,3.36057 -6.91025,5.95194 -10.99237,8.07437 -0.99701,0.18601 -1.69034,-0.35599 -2.20639,-1.06802 -5.21396,-7.19425 -10.36444,-14.43356 -15.07416,-21.97321 -0.65582,-1.04992 -1.08536,-2.19986 -0.50592,-3.46252 z"
   id="path5873"
   inkscape:connector-curvature="0"
   style="fill:#8c288c" />
	<path
   d="m 424.59387,351.54517 c 3.50922,-3.5893 7.01843,-7.17859 10.52768,-10.76789 3.76675,2.82456 5.73724,7.04834 8.27655,10.80216 3.63797,5.37796 7.32318,10.71878 11.14197,15.96869 -4.98074,2.70413 -10.28165,4.45272 -15.87796,5.31949 -0.16577,0.0544 -0.42066,0.20733 -0.48462,0.14941 -6.33179,-5.73511 -10.92563,-12.66596 -14.06058,-20.58325 -0.0978,-0.24707 0.24485,-0.61603 0.47696,-0.88861 z"
   id="path5875"
   inkscape:connector-curvature="0"
   style="fill:#8c288c" />
	<path
   d="m 480.58517,265.72308 c 1.77674,-5.33188 3.5535,-10.66379 5.33024,-15.99566 3.17776,0.12783 4.28088,2.76089 5.77981,4.85894 4.6973,6.57499 8.50458,13.792 14.19791,19.6478 -1.6044,5.49954 -3.6771,10.81125 -6.36991,15.87402 -1.73486,1.21207 -2.67538,-0.1824 -3.39883,-1.26782 -5.1496,-7.72616 -10.78204,-15.12839 -15.53922,-23.11728 z"
   id="path5877"
   inkscape:connector-curvature="0"
   style="fill:#612c89" />
	<path
   d="m 299.64706,489.17648 c 5.23795,3.40564 11.45615,4.57074 16.94117,7.41175 0.2059,2.62448 2.22811,3.83236 4.04867,5.20318 11.89176,8.9541 23.7761,17.91818 35.68173,26.85379 0.91281,0.68506 1.4607,1.48566 1.5618,2.60633 -2.80072,0.583 -5.51303,1.73181 -8.46866,1.32397 -5.22085,-6.70746 -12.62698,-10.797 -19.18606,-15.87952 -11.61566,-9.00085 -23.40567,-17.77694 -35.15106,-26.60943 -1.06842,-0.80338 -1.75409,-1.68463 -1.78052,-3.02902 2.11764,0.70629 4.23529,1.41262 6.35293,2.11895 z"
   id="path5879"
   inkscape:connector-curvature="0"
   style="fill:#e30c8c" />
	<path
   d="m 447.84195,423.78302 c 2.82199,-0.71124 5.64398,-1.42252 8.46594,-2.13379 6.23502,11.98847 15.04553,22.28842 22.09564,33.73947 1.27841,2.07648 3.58841,1.94211 5.29792,3.04227 -0.91629,1.83346 -2.30243,3.22314 -4.04197,4.27899 -5.57055,4.11417 -6.34637,4.13709 -10.39502,-1.4946 -7.36624,-10.24649 -14.37927,-20.74295 -21.38458,-31.23874 -1.21444,-1.81964 -3.45205,-4.12622 -0.0379,-6.1936 z"
   id="path5881"
   inkscape:connector-curvature="0"
   style="fill:#99258c" />
	<path
   d="m 228.98157,185.44424 c -8.97931,-8.38455 -19.40537,-14.89978 -29.02962,-22.45157 -2.89325,-2.27023 -5.89964,-4.39605 -8.84763,-6.59686 -1.0579,-0.78976 -2.0372,-1.61593 -0.50573,-2.87207 0.61016,-0.6254 1.34866,-1.00513 2.2053,-1.16302 2.83785,-0.32804 5.47489,0.66833 8.17806,1.23941 3.03686,1.00543 6.39247,1.2091 8.93822,3.47976 5.47966,5.98828 12.41137,10.19019 18.72819,15.14768 2.34072,1.837 4.72704,3.61963 6.95392,5.59073 1.25026,1.10666 3.007,2.16159 1.57677,4.30682 -2.56514,1.51972 -5.29964,2.62113 -8.19748,3.31912 z"
   id="path5883"
   inkscape:connector-curvature="0"
   style="fill:#762a8a" />
	<path
   d="m 447.84195,423.78302 c -1.42755,1.7713 -0.46924,3.33698 0.52673,4.79215 7.12512,10.41024 14.47965,20.67022 21.34448,31.24844 2.76377,4.25882 5.44651,5.9678 9.94632,2.88635 -1.08117,1.74204 -2.49466,3.15173 -4.23489,4.23471 -0.52872,0.0175 -1.23276,-0.18115 -1.56021,0.0845 -5.84796,4.74392 -8.4191,0.37936 -11.24234,-3.85596 -7.21524,-10.82391 -14.52646,-21.58402 -21.84201,-32.34061 -1.099,-1.61596 -2.25171,-3.15887 -2.4271,-5.18551 0.43061,-0.97354 1.00647,-1.65427 2.19944,-1.09134 2.42987,-0.25757 4.85974,-0.51514 7.28958,-0.77271 z"
   id="path5885"
   inkscape:connector-curvature="0"
   style="fill:#9d248d" />
	<path
   d="m 399.17648,501.88236 c 1.41178,0.3529 2.82352,0.70587 4.23529,1.0588 1.46598,0.98654 2.73127,2.24063 4.2353,3.17649 1.80526,1.05673 3.10852,2.72625 4.83062,3.91107 1.32932,0.91452 0.44004,1.70151 -0.57022,2.2565 -1.00702,0.48449 -1.76541,1.56146 -3.08734,1.29547 -3.1427,-2.24262 -6.28122,-4.49112 -9.43088,-6.72391 -0.85132,-0.60358 -1.72479,-1.64352 -2.60724,-1.66418 -10.65979,-0.24906 -14.20749,-8.96585 -19.1343,-15.97107 -4.44806,-6.3244 -8.68152,-12.79929 -13.06806,-19.16751 -1.10873,-1.60962 -2.26086,-3.15186 -2.46158,-5.17264 2.8234,-4.9e-4 5.64682,-9.8e-4 8.47019,-10e-4 6.13052,7.03827 10.77179,15.1268 15.99109,22.8032 2.66183,3.91488 5.72784,7.54956 8.06152,11.69155 0.97833,1.73645 2.13837,3.27604 4.53561,2.5077 z"
   id="path5887"
   inkscape:connector-curvature="0"
   style="fill:#c8148c" />
	<path
   d="m 525.15845,265.71585 c 4.04065,-8.32916 8.0813,-16.65832 12.68915,-26.15655 3.28692,15.77133 3.92498,30.44589 1.93286,45.2593 -1.53186,1.14276 -2.74237,0.19873 -3.64515,-0.82586 -4.2901,-4.86939 -7.70941,-10.37317 -11.1903,-15.82209 -0.46039,-0.72061 -0.40338,-1.68286 0.21344,-2.4548 z"
   id="path5889"
   inkscape:connector-curvature="0"
   style="fill:#532d87" />
	<path
   d="m 454.54007,367.54813 c -0.75912,-0.37662 -1.78473,-0.55417 -2.23721,-1.15983 -6.15906,-8.24456 -12.07486,-16.65802 -17.18128,-25.61099 2.44562,-2.86117 4.89124,-5.72232 7.33683,-8.58346 4.79556,3.55853 6.98217,9.12561 10.38629,13.73806 4.0397,5.47361 8.38971,10.82651 10.9624,17.26255 -2.83115,2.00012 -5.86026,3.57879 -9.26703,4.35367 z"
   id="path5891"
   inkscape:connector-curvature="0"
   style="fill:#86298b" />
	<path
   d="m 525.15845,265.71588 c 4.30194,6.80545 7.67822,14.31946 14.62201,19.10272 -0.46088,6.44135 -1.60761,12.76639 -3.22296,19.01197 -1.89533,0.37536 -2.97645,-0.90628 -3.95081,-2.12232 -5.41248,-6.75491 -9.87244,-14.1745 -14.72778,-21.31824 -0.38465,-0.56591 -0.5503,-1.29214 -0.14594,-1.9873 2.47516,-4.22891 4.95032,-8.45789 7.42548,-12.68683 z"
   id="path5893"
   inkscape:connector-curvature="0"
   style="fill:#572d89" />
	<path
   d="m 463.8071,363.19446 c -7.6987,-9.93237 -14.85828,-20.23609 -21.34867,-31.00061 2.13968,-2.78614 4.27939,-5.57233 6.4191,-8.35852 0.16831,3.26526 2.70887,5.19479 4.3411,7.61938 5.26452,7.82022 10.61319,15.58374 15.8902,23.39563 0.90371,1.33777 1.88491,2.51764 3.39911,3.16394 -2.51822,2.36847 -5.50437,3.95093 -8.70084,5.18018 z"
   id="path5895"
   inkscape:connector-curvature="0"
   style="fill:#81298b" />
	<path
   d="m 475.55115,401.61566 c -6.02414,-8.8266 -12.04828,-17.65326 -18.07242,-26.47986 3.13373,-2.63729 6.26749,-5.27459 9.40124,-7.91192 6.1547,8.69824 12.74161,17.11694 17.34659,26.81765 -2.60305,2.85544 -5.33777,5.56009 -8.67541,7.57413 z"
   id="path5897"
   inkscape:connector-curvature="0"
   style="fill:#86298b" />
	<path
   d="m 500.72131,438.31769 c -6.40286,-8.82996 -13.84942,-16.97708 -17.8938,-27.35004 3.17774,-1.72552 6.35541,-3.45099 9.53312,-5.17651 5.63549,7.34729 11.43624,14.58288 15.53302,22.9707 -2.02799,3.45758 -4.35785,6.68857 -7.17234,9.55585 z"
   id="path5899"
   inkscape:connector-curvature="0"
   style="fill:#87298b" />
	<path
   d="m 517.73291,278.40271 c 4.96143,7.10611 9.88171,14.24158 14.91675,21.2951 1.09112,1.52857 2.59436,2.76294 3.90783,4.13276 -1.06854,3.89892 -2.13708,7.79779 -3.20562,11.69668 -0.90619,-0.4779 -2.12274,-0.72647 -2.67121,-1.46869 -6.52453,-8.82861 -12.79431,-17.83426 -18.30267,-27.3457 1.78497,-2.77005 3.56995,-5.54007 5.35492,-8.31015 z"
   id="path5901"
   inkscape:connector-curvature="0"
   style="fill:#5d2d89" />
	<path
   d="m 237.17905,182.12512 c -2.28931,-5.02521 -7.40389,-7.0126 -11.27195,-10.30542 -4.61872,-3.93182 -9.61863,-7.41919 -14.4981,-11.03885 -1.06769,-0.79199 -1.73352,-1.6802 -1.76148,-3.01263 1.57413,-0.79935 3.05648,-0.0871 4.56394,0.26156 4.31311,1.72236 8.88116,2.63022 13.27136,4.10901 2.94173,1.46399 6.11712,2.39332 9.04407,3.89328 2.00425,0.99329 4.18083,1.58097 6.18229,2.58445 3.07982,2.02453 7.07636,2.63415 9.29622,5.99188 1.05502,0.67395 2.11006,1.3479 3.16562,2.02176 -5.99696,1.8316 -11.99448,3.66327 -17.99197,5.49496 z"
   id="path5903"
   inkscape:connector-curvature="0"
   style="fill:#732b89" />
	<path
   d="m 483.70145,458.43097 c -2.54239,1.0769 -4.41779,0.76218 -6.11756,-1.82623 -6.69668,-10.1977 -13.58651,-20.26886 -20.43856,-30.3639 -0.98203,-1.4469 -2.36066,-2.72851 -0.83744,-4.59158 2.13281,-0.68826 4.2656,-1.37653 6.39838,-2.06479 6.09222,8.08518 11.67456,16.52432 17.28183,24.94501 2.22623,3.3432 4.46567,6.67071 7.10763,9.70676 -0.48492,1.92135 -1.7698,3.19546 -3.39428,4.19473 z"
   id="path5905"
   inkscape:connector-curvature="0"
   style="fill:#95268d" />
	<path
   d="m 473.32877,282.7796 c 1.73336,-3.94617 3.46676,-7.89236 5.20016,-11.83856 3.64325,2.16043 5.31979,5.96326 7.59751,9.23459 3.51364,5.04629 6.84378,10.2203 10.40658,15.23474 -0.80499,4.05038 -3.25952,7.25037 -5.45627,10.58322 -1.59176,1.18317 -2.71051,0.11694 -3.53155,-0.98041 -5.01914,-6.70825 -9.92023,-13.50293 -14.19684,-20.72098 -0.26819,-0.45266 -0.21219,-1.00509 -0.0196,-1.5126 z"
   id="path5907"
   inkscape:connector-curvature="0"
   style="fill:#692c89" />
	<path
   d="m 505.89313,274.23416 c -3.7233,-0.016 -4.50772,-3.39181 -6.23526,-5.59073 -4.8162,-6.13022 -7.95523,-13.48352 -13.74246,-18.91601 1.00631,-3.85886 2.01263,-7.71775 3.01892,-11.57663 6.25723,4.70575 9.09075,12.07006 13.87463,17.92599 2.0643,2.52692 3.32703,5.71094 6.25446,7.52655 -1.05677,3.54361 -2.11353,7.08722 -3.17029,10.63083 z"
   id="path5909"
   inkscape:connector-curvature="0"
   style="fill:#5d2d89" />
	<path
   d="m 354.52875,423.4295 c 5.92807,8.62668 11.8865,17.23291 17.74667,25.90546 0.75376,1.11548 0.99783,2.57544 1.47803,3.87579 -6.53427,-1.61859 -12.51157,-4.47284 -18.11167,-8.16394 -3.01052,-4.83822 -6.29235,-9.49978 -9.34045,-14.31176 -1.14816,-1.8125 -2.96771,-3.63245 -1.12457,-6.05674 3.06405,-0.8153 6.16617,-1.34546 9.35199,-1.24881 z"
   id="path5911"
   inkscape:connector-curvature="0"
   style="fill:#c4178d" />
	<path
   d="m 487.09573,454.23624 c -1.56646,0.0104 -2.70282,-0.82428 -3.52023,-2.02323 -6.8233,-10.00821 -13.62973,-20.02804 -20.37521,-30.08868 -0.44266,-0.66022 -0.34195,-1.68479 -0.49402,-2.53989 2.12341,-0.77023 4.24679,-1.54049 6.37021,-2.3107 6.82565,10.0661 13.65417,20.13034 20.47235,30.2016 0.64407,0.95133 1.52646,1.38217 2.64221,1.4148 -1.09705,2.35522 -3.07373,3.87207 -5.09531,5.3461 z"
   id="path5913"
   inkscape:connector-curvature="0"
   style="fill:#92278d" />
	<path
   d="m 484.22656,394.04153 c -6.48156,-7.51303 -10.92254,-16.4581 -16.98312,-24.27191 -0.45645,-0.58853 -0.25766,-1.68524 -0.36353,-2.54574 2.14087,-2.04902 4.28177,-4.09803 6.42267,-6.14698 5.61725,8.87146 10.97931,17.92597 18.33066,25.55353 -2.1539,2.78516 -4.63538,5.24292 -7.40668,7.4111 z"
   id="path5915"
   inkscape:connector-curvature="0"
   style="fill:#81298b" />
	<path
   d="m 500.64642,400.88098 c 4.2663,-2.76846 8.5326,-5.53692 12.79889,-8.30536 3.92261,2.95984 4.84693,8.5669 9.56055,10.82831 -2.23761,5.67819 -5.45831,10.8111 -8.8056,15.87381 -1.64191,1.15085 -2.71674,-0.0376 -3.49918,-1.1091 -3.60629,-4.9386 -7.08002,-9.97351 -10.11566,-15.29224 -0.36701,-0.64306 -0.29004,-1.34008 0.061,-1.99542 z"
   id="path5917"
   inkscape:connector-curvature="0"
   style="fill:#7c2a8b" />
	<path
   d="m 473.32877,282.7796 c 4.69165,6.64661 9.38958,13.28873 14.06979,19.94336 0.97488,1.38611 1.50354,3.2453 3.67822,3.27063 -1.35998,3.0958 -3.29257,5.82843 -5.37115,8.46838 -0.33838,-0.0734 -0.8378,-0.0284 -0.99192,-0.23761 -5.49267,-7.45788 -11.58236,-14.51208 -15.62863,-22.95419 1.41455,-2.83017 2.82914,-5.66034 4.24369,-8.49057 z"
   id="path5919"
   inkscape:connector-curvature="0"
   style="fill:#6e2c8a" />
	<path
   d="m 459.80011,413.07651 c -2.41431,2.56421 -5.76294,3.58523 -8.70813,5.27255 -6.8439,-7.2464 -11.54895,-16.02344 -17.22116,-24.10785 -0.53159,-0.75763 -0.40933,-1.65503 0.27792,-2.37979 2.41089,-1.59317 4.82172,-3.18631 7.23261,-4.77945 5.32419,5.61563 8.73282,12.60989 13.41131,18.7016 1.77994,2.31763 4.05011,4.38129 5.00745,7.29294 z"
   id="path5921"
   inkscape:connector-curvature="0"
   style="fill:#95268d" />
	<path
   d="m 434.14874,391.86142 c 4.353,6.62213 8.67539,13.26468 13.07663,19.85461 1.42795,2.13804 3.42453,3.92572 3.86661,6.633 -1.77457,1.54459 -3.76056,2.68924 -6.07529,3.21213 -1.86557,0.57425 -2.97045,-0.63309 -3.93328,-1.84397 -5.3108,-6.67898 -9.7211,-13.98513 -14.51462,-21.02459 -0.51728,-0.75962 -0.52228,-1.63462 0.14636,-2.39518 2.47787,-1.47863 4.95575,-2.9573 7.43359,-4.436 z"
   id="path5923"
   inkscape:connector-curvature="0"
   style="fill:#99258d" />
	<path
   d="m 500.64645,400.88098 c 3.50525,5.26941 7.04737,10.51502 10.48813,15.8263 0.79129,1.22143 1.41736,2.4537 3.06574,2.57046 -2.1023,3.16138 -4.20447,6.32272 -6.30667,9.4841 -5.64823,-7.33868 -11.69574,-14.40741 -15.53302,-22.9707 2.76193,-1.63669 5.52386,-3.27344 8.28582,-4.91016 z"
   id="path5925"
   inkscape:connector-curvature="0"
   style="fill:#82298b" />
	<path
   d="m 428.97562,374.90924 c -6.29731,1.69476 -12.72089,2.08771 -19.20441,1.86313 -1.85422,-2.59036 -4.53082,-4.76092 -4.29636,-8.41736 4.24262,-3.5249 8.4852,-7.0498 12.72782,-10.5747 4.91705,4.87563 8.96634,10.29702 10.77295,17.12893 z"
   id="path5927"
   inkscape:connector-curvature="0"
   style="fill:#97268d" />
	<path
   d="m 426.71515,396.29742 c 5.90658,8.56159 10.49801,18.07587 18.30139,25.26361 -1.03064,1.68006 -3.56344,1.12079 -4.46417,2.99463 -0.73316,0.3638 -1.46628,0.7276 -2.19943,1.0914 -7.53531,-7.49646 -12.52133,-16.79187 -18.10901,-25.66272 2.15707,-1.229 4.31411,-2.45794 6.47122,-3.68692 z"
   id="path5929"
   inkscape:connector-curvature="0"
   style="fill:#9d248d" />
	<path
   d="m 523.00586,403.40393 c -1.07471,0.40466 -2.18421,1.47846 -3.15741,-0.15332 -2.12531,-3.56369 -5.25739,-6.52362 -6.40308,-10.67493 6.49237,-4.92218 12.98468,-9.84433 19.47705,-14.76648 -2.1214,9.28614 -5.26825,17.74985 -9.91656,25.59473 z"
   id="path5931"
   inkscape:connector-curvature="0"
   style="fill:#762c8a" />
	<path
   d="m 459.80011,413.07651 c -7.84854,-7.45359 -13.41086,-16.5271 -18.4187,-25.99408 1.79694,-1.29904 3.5939,-2.59763 5.3909,-3.89615 5.20871,9.31784 11.83112,17.68701 17.78653,26.50378 -1.11478,1.79138 -2.90598,2.63221 -4.75873,3.38645 z"
   id="path5933"
   inkscape:connector-curvature="0"
   style="fill:#91278d" />
	<path
   d="m 428.97562,374.90924 c -3.59101,-5.70959 -7.18198,-11.41925 -10.77295,-17.12894 2.1304,-2.0784 4.26077,-4.15673 6.3912,-6.23513 3.6742,7.77694 8.90482,14.52697 14.06784,21.3222 -3.08047,1.38281 -6.29791,2.11746 -9.68609,2.04187 z"
   id="path5935"
   inkscape:connector-curvature="0"
   style="fill:#92288d" />
	<path
   d="m 345.17676,424.67831 c 0.90774,5.38166 5.11017,8.89313 7.58691,13.38352 1.22122,2.21411 3.55307,3.98514 2.87811,6.98486 -9.43847,-4.61343 -17.28341,-11.32727 -25.8424,-19.34909 5.87988,-0.38977 10.62863,-0.70453 15.37738,-1.01929 z"
   id="path5937"
   inkscape:connector-curvature="0"
   style="fill:#c9168d" />
	<path
   d="m 496.53302,295.41037 c -1.09927,-0.0648 -2.04736,-0.42447 -2.6843,-1.38419 -5.1069,-7.69488 -10.21331,-15.39001 -15.31982,-23.08511 0.15585,-1.94803 0.92017,-3.65625 2.05627,-5.21799 6.46048,5.52686 9.81833,13.36115 14.84781,19.95178 1.22208,1.60138 1.73407,3.87375 4.09024,4.43332 -0.42682,2.08878 -1.72006,3.689 -2.9902,5.30219 z"
   id="path5939"
   inkscape:connector-curvature="0"
   style="fill:#662d89" />
	<path
   d="m 410.50861,460.44492 c 1.24969,0.1625 2.36248,0.52221 3.13604,1.65316 6.59903,9.64731 13.61408,19.01743 19.41419,29.19605 -3.70658,2.37961 -5.50574,-0.38925 -7.2063,-2.84039 -5.39792,-7.78061 -10.73926,-15.60227 -15.9715,-23.49488 -1.37375,-2.07229 -2.82565,-3.56524 -5.47244,-3.33362 1.87939,-1.18875 4.01053,-1.07675 6.10001,-1.18032 z"
   id="path5941"
   inkscape:connector-curvature="0"
   style="fill:#b61d8d" />
	<path
   d="m 463.73236,207.43127 c 0.10455,-6.79611 5.18234,-11.63949 6.99655,-17.80984 1.5051,-5.11914 3.81498,-10.00165 5.76838,-14.98914 1.9064,13.33081 -1.70017,24.51621 -12.76493,32.79898 z"
   id="path5943"
   inkscape:connector-curvature="0"
   style="fill:#c01b8e" />
	<path
   d="m 399.17648,501.88236 c -2.51248,1.54962 -3.57736,1.48739 -5.07391,-0.70533 -7.46378,-10.93533 -14.88892,-21.89727 -22.26322,-32.893 -0.65426,-0.97562 -0.84509,-2.26203 -1.25112,-3.40412 1.05886,-0.0231 2.11764,-0.0462 3.17648,-0.0694 0.16278,3.08813 2.5531,4.89892 4.11447,7.18738 5.93222,8.69461 11.88568,17.37509 17.75449,26.11236 0.99408,1.47992 1.85879,2.98343 3.54281,3.77207 z"
   id="path5945"
   inkscape:connector-curvature="0"
   style="fill:#c8168c" />
	<path
   d="m 405.47485,368.35501 c 1.32846,2.8587 4.40903,4.82309 4.29633,8.41736 -4.51385,0.30868 -8.97931,0.0306 -13.81235,-1.15335 2.86432,-3.13336 6.3689,-4.97681 9.51602,-7.26401 z"
   id="path5947"
   inkscape:connector-curvature="0"
   style="fill:#9f288f" />
	<path
   d="m 442.5516,494.26126 c -1.15499,-2.12308 -3.21487,-3.06454 -5.25845,-4.02725 6.17661,-4.2803 7.14273,-4.25568 10.70639,0.2731 -1.81595,1.25144 -3.63193,2.50278 -5.44794,3.75415 z"
   id="path5949"
   inkscape:connector-curvature="0"
   style="fill:#b61d8d" />
	<path
   d="m 411.90747,512.28522 c 0.62793,-3.47058 -3.82916,-3.42862 -4.26041,-6.16758 3.32053,0.3526 4.8313,4.31254 8.38245,4.20533 -1.16919,1.08438 -2.46689,1.89871 -4.12204,1.96225 z"
   id="path5951"
   inkscape:connector-curvature="0"
   style="fill:#c8168c" />
	<path
   d="m 38.277924,352.54413 c 0.316032,-0.71512 0.632065,-1.43024 0.948395,-2.1456 1.55637,2.02487 0.905785,4.39261 1.031616,6.64151 -0.659745,-1.4975 -1.319878,-2.99674 -1.980011,-4.49591 z"
   id="path5953"
   inkscape:connector-curvature="0"
   style="fill:#63388f" />
	<path
   d="m 200.34122,379.10306 c 1.54528,1.9638 0.59686,4.23907 0.79565,6.37124 -1.1315,-2.01544 -0.87085,-4.20495 -0.79565,-6.37124 z"
   id="path5955"
   inkscape:connector-curvature="0"
   style="fill:#eb108e" />
	<path
   d="m 147.94469,328.16669 c -1.43361,-2.02918 -0.54152,-4.31043 -0.70195,-6.47834 0.86908,2.09021 0.81625,4.28095 0.70195,6.47834 z"
   id="path5957"
   inkscape:connector-curvature="0"
   style="fill:#d2128c" />
	<path
   d="m 138.70331,155.6442 c -1.16373,0.0377 -2.41333,-0.18125 -3.17389,1.06167 -3.17691,1.05792 -6.35382,2.11588 -9.53071,3.1738 -2.36163,-2.54605 -2.58357,-5.73865 -2.38912,-8.90405 1.19651,-19.47715 2.67658,-38.90851 7.24792,-57.985355 2.21614,-9.24823 5.48799,-18.171448 7.78525,-27.381805 5.28821,-3.806274 10.80234,-7.212799 16.91466,-9.561066 3.64763,1.192719 2.06718,3.844513 1.40007,5.895477 -2.12199,6.523621 -4.70371,12.880463 -6.69461,19.467682 -5.88736,19.479247 -9.44965,39.292997 -10.23352,59.661867 -0.18581,4.82812 -0.0688,9.79361 -1.32605,14.57178 z"
   id="path5959"
   inkscape:connector-curvature="0"
   style="fill:#7b2a8a" />
	<path
   d="m 138.64276,65.608459 c 1.80087,1.456177 0.95911,3.098724 0.3961,4.777618 -6.29673,18.777344 -10.60182,37.951503 -12.0867,57.760133 -0.79285,10.57666 -2.33755,21.10214 -0.95343,31.73352 -0.35248,0.3544 -0.70494,0.70886 -1.0574,1.06335 -2.81953,1.06644 -5.63908,2.13285 -8.45863,3.19922 -2.77286,-1.89343 -2.52503,-4.85547 -2.59967,-7.63513 -0.4557,-16.97015 1.25201,-33.76691 4.22845,-50.44922 1.85691,-10.407591 4.32565,-20.686827 6.67513,-30.990141 4.08586,-3.933654 8.96841,-6.700316 13.85615,-9.45935 z"
   id="path5961"
   inkscape:connector-curvature="0"
   style="fill:#762a8a" />
	<path
   d="m 138.70331,155.64423 c -2.67566,-8.19831 -0.0961,-16.45575 0.35664,-24.55915 0.76891,-13.76321 3.37929,-27.42578 7.01909,-40.810086 2.67593,-9.839844 5.80698,-19.526337 9.63181,-28.981628 0.7279,-1.7995 1.85673,-3.551086 -0.15291,-5.245392 4.97606,-3.212494 10.23356,-5.821869 15.95366,-7.439148 1.87552,2.271149 0.33748,4.313019 -0.49948,6.341278 -3.87198,9.382996 -8.1278,18.623688 -10.37258,28.596283 -0.68101,1.461945 -1.78143,2.612793 -2.94328,3.67395 -5.43549,4.964447 -8.21568,10.850555 -6.60741,18.349303 0.2614,1.2189 0.27107,2.4556 -0.7196,3.44708 -3.64122,6.13959 -3.53545,13.21457 -4.00165,19.86353 -0.57396,8.18576 -2.06316,16.379 -1.30878,24.64917 -2.1185,0.70492 -4.23701,1.40985 -6.35551,2.11481 z"
   id="path5963"
   inkscape:connector-curvature="0"
   style="fill:#81298b" />
	<path
   d="m 78.368164,198.00449 c -0.727554,0.67019 -1.455093,1.34039 -2.182648,2.01056 -2.753578,-1.08121 -3.27861,-3.56254 -3.542664,-6.02637 -1.818726,-16.97144 -4.127075,-33.91937 -2.398354,-51.0661 0.458626,-4.54907 -0.157951,-9.17148 0.780388,-13.70172 3.63446,-5.75544 7.773254,-11.11579 12.52832,-15.99338 4.214607,1.64017 2.646576,5.24377 2.432587,8.06506 -0.823708,10.86005 -1.866356,21.68872 -1.826111,32.61096 0.03699,10.0376 0.885109,19.99762 1.868896,29.96015 0.15757,1.5957 0.272675,3.14599 -0.20182,4.69424 -0.35656,0.68088 -0.713112,1.36176 -1.069176,2.04276 -2.129469,2.46798 -4.259444,4.93591 -6.389418,7.40384 z"
   id="path5965"
   inkscape:connector-curvature="0"
   style="fill:#612c88" />
	<path
   d="m 99.564201,175.83002 c -1.088165,1.38311 -2.176338,2.76623 -3.265076,4.14914 -1.729492,1.09088 -3.458427,2.18197 -5.187355,3.27304 -1.932709,-0.78037 -2.370102,-2.49396 -2.553612,-4.28031 -1.550095,-15.08948 -1.756821,-30.19427 -0.660652,-45.32995 0.699493,-9.65848 1.802826,-19.26596 3.095612,-28.85688 3.624031,-4.15542 7.402969,-8.154018 11.736712,-11.590816 3.71797,1.522491 2.31495,4.606567 1.9685,7.139956 -1.33351,9.75143 -2.84774,19.46396 -3.79972,29.28042 -1.312818,13.53757 -0.53984,27.05689 -0.6895,40.58326 -0.0211,1.90527 0.59823,3.87124 -0.644909,5.63214 z"
   id="path5967"
   inkscape:connector-curvature="0"
   style="fill:#692c89" />
	<path
   d="m 124.78661,75.06781 c 1.59398,1.134613 1.4647,2.825409 1.01092,4.300323 -4.5294,14.722321 -7.158,29.869717 -8.81299,45.091247 -1.42833,13.13702 -3.20739,26.42545 -0.50198,39.68262 -0.3638,0.69415 -0.72775,1.388 -1.09193,2.08172 -2.23967,0.25846 -3.70766,1.79892 -5.27507,3.17405 -0.70756,0.34036 -1.41511,0.68084 -2.12267,1.02136 -2.01329,-1.56638 -2.41219,-3.85868 -2.48694,-6.14307 -0.89593,-27.37628 1.80642,-54.37204 8.70547,-80.912901 3.15837,-3.232605 6.4957,-6.23703 10.57519,-8.295349 z"
   id="path5969"
   inkscape:connector-curvature="0"
   style="fill:#722b89" />
	<path
   d="m 114.21142,83.363159 c 1.37096,6.401611 -1.78268,12.180389 -2.56065,18.290011 -1.29759,10.19037 -3.02591,20.30404 -3.82059,30.58401 -0.59491,7.69577 -0.85832,15.35861 -0.88613,23.05304 -0.0183,5.0679 -0.28598,10.15518 1.04894,15.12952 -1.70994,1.48679 -4.11395,2.11188 -5.29241,4.25919 -1.04576,0.38305 -2.09148,0.76635 -3.13679,1.15036 -0.924614,-2.86484 -1.074577,-5.7999 -1.133957,-8.80405 -0.457222,-23.13642 0.38343,-46.16211 5.176947,-68.905702 0.3431,-1.62793 0.72726,-3.522949 -0.87704,-4.925385 3.57103,-3.576203 7.08483,-7.219238 11.48168,-9.830994 z"
   id="path5971"
   inkscape:connector-curvature="0"
   style="fill:#6e2b89" />
	<path
   d="m 71.024887,129.22086 c 2.043732,5.06469 1.512833,10.47738 0.660416,15.45111 -1.929581,11.25879 1.084404,22.26883 0.682846,33.42291 -0.172653,4.79584 1.361603,9.62985 1.645256,14.47436 0.160957,2.74891 0.909294,5.12241 2.172585,7.44669 -1.015892,1.44721 -2.031303,2.89529 -3.045914,4.34345 -1.057922,1.41201 -2.116631,2.82397 -3.174561,4.23602 -0.40464,0.28033 -0.810074,0.56058 -1.2155,0.84079 -3.426941,-2.09158 -2.95977,-5.77811 -3.479378,-8.94528 -3.007744,-18.33283 -3.648338,-36.82465 -3.434597,-55.36374 0.0082,-0.7088 -0.03115,-1.40909 -0.159142,-2.10517 2.730268,-4.86163 5.728162,-9.54202 9.347989,-13.80114 z"
   id="path5973"
   inkscape:connector-curvature="0"
   style="fill:#5c2d88" />
	<path
   d="m 61.676899,143.022 c 2.537418,1.47034 1.87709,3.9628 1.824409,6.14615 -0.464371,19.24585 1.028126,38.34061 4.294315,57.30264 0.174713,1.01432 0.630692,1.98017 0.955063,2.96699 -2.2658,1.62527 -2.338547,4.60659 -4.05925,6.56933 -0.699112,0.72855 -1.399113,1.45697 -2.09911,2.18543 -3.158817,-0.17209 -3.299095,-2.76584 -3.69482,-4.9011 -2.796356,-15.08841 -4.668831,-30.29416 -5.382229,-45.62814 -0.139557,-2.9996 -0.506165,-5.96719 -0.782177,-8.94833 2.455079,-5.53089 5.313348,-10.83197 8.943799,-15.69297 z"
   id="path5975"
   inkscape:connector-curvature="0"
   style="fill:#582d88" />
	<path
   d="m 52.733101,158.71497 c 1.724865,1.24142 2.306843,3.02008 2.314705,5.03854 0.06544,16.80829 2.887375,33.32132 5.299866,49.88007 0.262402,1.80108 0.725883,3.41598 2.2439,4.55835 -1.507576,2.78048 -3.0159,5.56033 -4.525467,8.33987 -0.668129,0.67612 -1.33503,1.35263 -2.002483,2.02811 -4.265045,-9.22223 -4.610832,-19.30222 -6.236137,-29.08243 -1.172447,-7.05518 -2.201851,-14.16113 -2.214813,-21.35864 -0.0033,-1.82163 -0.698788,-3.426 -2.230633,-4.56083 2.121345,-5.11071 4.264789,-10.21035 7.351062,-14.84304 z"
   id="path5977"
   inkscape:connector-curvature="0"
   style="fill:#552d88" />
	<path
   d="m 90.993118,104.78507 c 3.025795,5.48803 0.06898,10.95681 -0.396774,16.3182 -1.470619,16.92874 -2.771034,33.81384 -0.702599,50.76615 0.462379,3.78952 -0.854546,7.7691 1.217415,11.38202 -0.01566,0.33224 -0.01861,0.66387 -0.0078,0.99575 -1.759003,1.4364 -3.518463,2.87271 -5.277267,4.30988 -3.504105,-6.31595 -2.13559,-13.4271 -2.7854,-20.10376 -1.032349,-10.60694 -0.560211,-21.35282 -0.02334,-32.06754 0.385216,-7.68829 3.262405,-15.39041 0.53611,-23.15802 2.400786,-2.88397 4.353987,-6.16232 7.43965,-8.44268 z"
   id="path5979"
   inkscape:connector-curvature="0"
   style="fill:#652c88" />
	<path
   d="m 159.87068,83.510223 c 0.12076,-7.922821 4.35689,-14.573944 6.7412,-21.796844 1.46258,-4.430664 4.49531,-8.275421 4.89976,-13.103821 4.25771,-2.574707 8.90828,-4.121613 13.71965,-5.248169 2.30396,2.112946 2.47881,2.19751 0.9925,5.269714 -2.51862,5.206085 -4.81487,10.51059 -7.26807,15.744019 -1.78861,3.815674 -3.38194,7.695679 -4.36675,11.806396 -4.34887,3.553376 -8.68214,7.153138 -14.71829,7.328705 z"
   id="path5981"
   inkscape:connector-curvature="0"
   style="fill:#87288b" />
	<path
   d="m 222.34956,33.928833 c 3.00083,-1.689148 6.29273,-0.945801 9.47321,-1.133698 3.16231,0.674286 3.45813,1.124054 1.66263,4.060303 -3.00983,4.922119 -6.90035,9.232941 -9.86626,14.217255 -4.55925,7.662079 -9.54092,15.077026 -12.78117,23.457611 -0.5013,1.296539 -1.17696,2.551758 -2.4513,3.325012 -3.99408,0.504395 -7.70738,0.05124 -10.61074,-3.134155 5.69836,-9.006073 9.62829,-18.997284 15.54882,-27.894165 2.90996,-4.372864 5.60469,-8.885864 9.02481,-12.898163 z"
   id="path5983"
   inkscape:connector-curvature="0"
   style="fill:#99258c" />
	<path
   d="m 173.6608,76.286743 c 0.48399,-7.911987 5.5092,-14.12326 8.01852,-21.281403 0.9144,-2.608459 2.44585,-4.998749 3.66922,-7.501556 0.67793,-1.386871 1.70117,-2.812286 -0.11684,-4.141907 4.34241,-2.193176 8.85498,-3.832642 13.75165,-4.220459 3.45093,0.676666 3.72217,1.282623 1.86688,4.993713 -3.42146,6.843964 -7.6495,13.262268 -10.4559,20.444366 -1.01057,2.586212 -1.87565,5.221069 -2.89303,7.804718 -4.28666,2.45572 -8.58474,4.880281 -13.8405,3.902528 z"
   id="path5985"
   inkscape:connector-curvature="0"
   style="fill:#8d288c" />
	<path
   d="m 208.57344,77.374207 c 4.67377,-14.088196 13.06734,-26.068329 21.5394,-38.003693 1.10779,-1.560608 2.38249,-3.028198 3.29356,-4.695343 0.80808,-1.478607 -0.55841,-1.655823 -1.58305,-1.87973 3.37712,-1.968445 7.07786,-0.661224 10.61125,-1.04718 0.71283,0.01645 1.42601,0.03311 2.13921,0.04974 1.43432,1.998932 -0.13663,3.314453 -1.19846,4.575714 -10.21985,12.139008 -18.65967,25.40387 -25.40597,39.760132 -0.74256,1.5802 -1.5624,3.163788 -3.29583,3.958527 -2.59092,0.345183 -5.08352,0.464446 -6.10011,-2.718171 z"
   id="path5987"
   inkscape:connector-curvature="0"
   style="fill:#9d248d" />
	<path
   d="m 222.34956,33.928833 c -1.3338,5.986053 -5.95567,10.093628 -8.88101,15.165375 -4.20718,7.294159 -8.29378,14.628357 -11.84067,22.250458 -0.83934,1.80368 -1.55928,3.059601 -3.70706,2.809784 -2.92557,1.578339 -5.37686,0.766052 -7.54083,-1.491577 6.11709,-9.80484 10.28964,-20.688934 16.76724,-30.303009 1.46921,-2.180634 2.61829,-4.582367 4.61116,-6.381653 3.34674,-1.632264 7.10446,-1.140442 10.59117,-2.049378 z"
   id="path5989"
   inkscape:connector-curvature="0"
   style="fill:#95268c" />
	<path
   d="m 211.75839,35.97821 c -1.37932,5.398407 -5.12305,9.537476 -7.78549,14.230988 -3.30342,5.823425 -6.36108,11.743835 -9.03413,17.859467 -0.92215,2.109772 -1.94161,3.705597 -4.37822,3.942596 -1.09549,0.865112 -2.15136,0.898895 -3.15558,-0.150421 -1.55564,-1.9617 -0.12586,-3.551331 0.58561,-5.290344 3.37542,-8.250366 7.70844,-16.007416 12.16582,-23.696564 1.06616,-1.839142 1.61052,-3.23291 -1.17238,-3.732178 4.01349,-2.040924 8.44841,-2.382171 12.77437,-3.163544 z"
   id="path5991"
   inkscape:connector-curvature="0"
   style="fill:#90278c" />
	<path
   d="m 252.0054,174.6084 c -3.19742,-1.6901 -6.39482,-3.38022 -9.59224,-5.07035 -3.58442,-9.50143 -2.65718,-19.34591 -2.12192,-29.13992 0.1353,-2.47583 0.6392,-4.9035 -0.90625,-7.12204 -0.43118,-0.79431 -0.46472,-1.56341 0.17542,-2.27035 4.07634,-0.91907 6.98758,-3.20832 8.39537,-7.23993 1.23682,-1.81217 1.6163,-4.29975 4.04623,-5.17661 1.80857,1.76367 1.27912,4.04999 0.87407,5.98102 -3.19404,15.22717 -4.1349,30.46567 -0.95869,45.82047 0.28009,1.35403 0.0703,2.80941 0.088,4.21771 z"
   id="path5993"
   inkscape:connector-curvature="0"
   style="fill:#ba1b8c" />
	<path
   d="m 252.00201,118.5892 c -1.07035,1.75788 -1.47958,3.91272 -3.17848,5.29316 -1.95665,-2.10611 -1.60724,-4.67127 -0.91247,-6.98023 2.48022,-8.24301 4.52035,-16.61496 7.26541,-24.7789 2.4702,0.705109 4.94041,1.410187 7.41057,2.115326 -1.76447,8.883634 -6.91787,16.294124 -10.58503,24.350644 z"
   id="path5995"
   inkscape:connector-curvature="0"
   style="fill:#c7178c" />
	<path
   d="m 370.06558,87.882355 c 32.181,-0.463928 58.92652,26.939485 58.73175,60.380675 -0.19192,32.94928 -27.24353,62.44281 -61.79431,61.33115 -32.9949,-1.06162 -57.25131,-26.66486 -57.22467,-59.81812 0.0277,-34.38382 25.82715,-61.483976 60.28723,-61.893705 z"
   id="path5997"
   inkscape:connector-curvature="0"
   style="fill:#df0e8c" />
	<path
   d="m 221.30072,81.501434 c 2.12369,0.71225 4.24741,1.42453 6.37134,2.136719 0.44258,0.853912 1.24872,0.999176 2.09135,1.073364 1.40648,1.876495 0.37619,3.734467 -0.12524,5.540741 -3.43851,12.386442 -7.24604,24.666592 -10.70233,37.048762 -0.75658,2.71039 -1.6247,5.45099 -4.42366,6.90873 -3.62114,0.98736 -7.23153,1.20416 -10.81739,-0.15372 -1.89811,-1.61908 -1.01022,-3.55719 -0.48721,-5.35477 4.07776,-14.01513 8.17979,-28.02319 12.25571,-42.038907 0.62237,-2.140167 1.01892,-4.534698 3.35943,-5.723358 0.92052,-0.22998 1.75748,-0.08859 2.478,0.562439 z"
   id="path5999"
   inkscape:connector-curvature="0"
   style="fill:#eb0c8d" />
	<path
   d="m 214.96759,133.32028 c 4.80421,-10.75329 6.65555,-22.43194 10.48119,-33.497862 1.709,-4.94339 2.8926,-10.06842 4.31463,-15.110962 2.32471,0.07483 4.50079,0.606873 6.37363,2.071808 0.75728,0.891968 0.82376,1.946533 0.52724,2.985138 -4.04891,14.181948 -7.81137,28.449428 -12.59865,42.415468 -0.94605,1.16501 -2.31755,1.56296 -3.65317,2.03131 -1.65626,0.41565 -3.30316,0.58502 -4.89087,-0.27216 -0.18555,-0.20578 -0.36977,-0.41427 -0.554,-0.62274 z"
   id="path6001"
   inkscape:connector-curvature="0"
   style="fill:#e40d8d" />
	<path
   d="m 223.4137,132.36279 c 3.24758,-15.47018 8.71962,-30.31942 12.72311,-45.579068 0.70248,0.01175 1.40472,0.02393 2.10709,0.03607 0.3507,0.351074 0.70135,0.702179 1.052,1.053314 1.20083,1.380219 0.95227,2.941589 0.48955,4.482635 -3.63216,12.097109 -6.88001,24.307069 -10.67475,36.355869 -0.47386,1.50451 -1.07127,2.98242 -2.37712,4.02179 -1.18356,0.56378 -2.30522,0.56869 -3.31988,-0.37061 z"
   id="path6003"
   inkscape:connector-curvature="0"
   style="fill:#df108d" />
	<path
   d="m 255.17647,92.12323 c 1.67308,4.214203 -1.36203,7.631927 -1.98653,11.45969 -1.11462,6.83194 -5.1709,13.04019 -4.36641,20.29943 -1.22813,4.29398 -2.78116,8.21662 -8.47059,7.41236 -1.2551,-1.36167 -1.01303,-2.96954 -0.58149,-4.50113 3.2047,-11.37375 6.15978,-22.82135 9.96239,-34.019807 0.23024,-0.678101 0.68297,-1.226257 1.20604,-1.711731 0.7061,-9.46e-4 1.41222,-0.0019 2.1183,-0.0029 0.457,0.850586 1.24754,1.03717 2.11829,1.064088 z"
   id="path6005"
   inkscape:connector-curvature="0"
   style="fill:#cb178c" />
	<path
   d="m 187.40497,71.86084 c 1.05201,0.05008 2.10405,0.100128 3.15584,0.15033 2.2608,1.376892 4.76596,1.915039 7.36074,2.142914 3.24529,2.082367 6.99244,2.505585 10.65195,3.219391 1.88033,1.421082 4.05228,1.943878 6.35471,2.065002 0.35467,0.47464 0.50987,1.007416 0.47453,1.597595 -4.15347,16.898743 -9.55219,33.445768 -14.30946,50.175628 -0.38164,1.34213 -0.85854,2.68903 -1.94816,3.68845 -1.87924,1.13254 -3.96687,1.02292 -6.0363,1.02881 -0.58944,0.0177 -1.17959,0.0117 -1.76905,0.004 -3.2134,0.0484 -6.45995,-0.36911 -9.59897,0.71206 -4.76693,0.65946 -9.53524,0.55506 -14.30136,0.0245 -4.28324,-1.4234 -5.67388,-5.65714 -8.36969,-8.62732 -2.35535,-3.5303 -4.48256,-7.1792 -5.56145,-11.3407 -1.04645,-2.56125 -2.09288,-5.12246 -3.13919,-7.68405 -3.33542,-10.924529 0.77748,-19.07376 9.50166,-25.50598 4.59656,-2.408997 9.19321,-4.817078 13.78993,-7.224762 4.58149,-1.474916 9.16286,-2.950227 13.74427,-4.425508 z"
   id="path6007"
   inkscape:connector-curvature="0"
   style="fill:#ec168e" />
	<path
   d="m 159.81316,127.26331 c 2.14022,2.76263 4.28047,5.52526 6.4207,8.2879 6.44967,1.07477 6.61981,1.07233 6.72409,8.27899 0.0397,2.74731 1.62709,4.95453 1.74858,7.57471 -1.41156,0.004 -2.82312,0.007 -4.23467,0.0107 -3.52961,-8.3e-4 -7.05925,-0.002 -10.58886,-0.003 -0.70566,-8.6e-4 -1.41134,-0.002 -2.11701,-0.003 -3.19716,-6.8559 -2.09035,-19.91113 2.04717,-24.14715 z"
   id="path6009"
   inkscape:connector-curvature="0"
   style="fill:#8b288c" />
	<path
   d="m 159.81316,127.26331 c -3.36353,7.82174 -1.6153,16.07687 -2.04718,24.14718 -1.36191,0.28943 -2.71746,0.61466 -4.08721,0.86048 -2.498,0.44836 -4.48283,-0.3462 -4.29826,-3.11594 0.63867,-9.58392 1.46509,-19.15698 2.37742,-28.71918 0.1231,-1.28997 1.14519,-2.49414 1.75069,-3.73639 2.75465,3.13239 4.18831,7.05182 6.30454,10.56385 z"
   id="path6011"
   inkscape:connector-curvature="0"
   style="fill:#87288b" />
	<path
   d="m 174.70653,151.40491 c -3.76428,-1.28028 -3.41045,-4.41565 -3.14322,-7.34619 0.3894,-4.27073 -0.0187,-7.88065 -5.32947,-8.50769 5.28394,-0.0124 10.56787,-0.0249 15.85181,-0.0375 0.63878,-0.39557 1.1701,-0.28317 1.59659,0.33499 0.56707,5.2962 0.73545,10.55469 -1.56524,15.56452 -2.47017,-0.003 -4.9403,-0.005 -7.41047,-0.008 z"
   id="path6013"
   inkscape:connector-curvature="0"
   style="fill:#93268c" />
	<path
   d="m 182.117,151.41306 c -0.20929,-5.31656 0.11077,-10.59827 1.04367,-15.8396 2.68465,-1.41822 5.7226,0.22259 8.43287,-0.97394 0.36804,-0.01 0.73608,-0.0196 1.10412,-0.0295 2.79509,6.30868 1.67539,12.61831 0.004,18.92804 -0.70122,0.009 -1.40242,0.0172 -2.10353,0.0257 -2.54712,-1.82867 -5.80425,-0.80459 -8.48148,-2.11074 z"
   id="path6015"
   inkscape:connector-curvature="0"
   style="fill:#98258c" />
	<path
   d="m 250.93988,91.062042 c -0.96166,8.173676 -4.45229,15.671478 -6.31111,23.607608 -1.30487,5.57116 -3.56491,10.89889 -4.27583,16.62506 -0.3566,0.35092 -0.7132,0.70184 -1.06981,1.05273 -0.59256,0.74967 -1.41492,1.06131 -2.31685,1.22757 -1.79465,0.19425 -3.55939,0.20404 -5.11052,-0.93564 -0.86991,-1.54116 -0.29115,-3.07119 0.11641,-4.56454 3.21701,-11.78754 6.92219,-23.43427 10.18309,-35.209535 0.42409,-1.531433 0.98071,-2.996948 2.42582,-3.901367 0.70391,-0.005 1.40784,-0.01007 2.11162,-0.01501 1.41564,0.704438 2.83141,1.408784 4.24718,2.113129 z"
   id="path6017"
   inkscape:connector-curvature="0"
   style="fill:#d2148c" />
	<path
   d="m 244.58108,88.963928 c -4.23547,14.453922 -8.47093,28.907862 -12.7064,43.361812 -1.75967,1.54752 -3.52265,1.56873 -5.28903,0.0114 4.23674,-14.82129 8.47346,-29.64258 12.71022,-44.463961 1.85991,-0.112151 3.65819,0.0744 5.28521,1.090699 z"
   id="path6019"
   inkscape:connector-curvature="0"
   style="fill:#da138d" />
	<path
   d="m 215.02798,80.406616 c -0.0276,-0.323456 -0.0608,-0.646332 -0.0997,-0.968384 7.60419,-16.330444 16.6337,-31.753204 28.70801,-45.253632 0.53435,-0.597473 0.63511,-1.582733 0.93767,-2.386963 2.58769,0.206543 6.3096,-1.260254 7.50552,0.672394 1.56096,2.522614 -2.22131,4.366516 -3.72382,6.118256 -8.36918,9.757294 -15.35766,20.371582 -21.68007,31.527832 -2.09623,3.698914 -3.24052,7.759155 -5.37501,11.385559 -0.70311,0.0053 -1.4063,0.01086 -2.1095,0.01642 -1.29729,-0.709228 -3.12199,0.557099 -4.16315,-1.11148 z"
   id="path6021"
   inkscape:connector-curvature="0"
   style="fill:#a2238d" />
	<path
   d="m 407.64706,506.11764 c -2.14508,-0.0811 -3.30328,-1.47799 -4.23529,-3.17648 2.14502,0.0811 3.30335,1.47791 4.23529,3.17648 z"
   id="path6023"
   inkscape:connector-curvature="0"
   style="fill:#c8168c" />
	<path
   d="m 203.29176,133.44913 c 3.89176,-0.0424 7.78354,-0.0847 11.67556,-0.12796 l -0.0563,0.16284 c 0.32074,0.41232 0.79748,0.77548 0.87352,1.28943 1.20767,8.16183 0.45043,16.17358 -1.90413,24.05627 -1.53292,0.13239 -2.91805,-0.32452 -4.23293,-1.06152 -2.82786,-1.05167 -5.65574,-2.10336 -8.48361,-3.15506 -2.95427,-6.58212 -1.32597,-13.30261 -0.6114,-19.99844 0.49822,-1.35834 1.22682,-2.18775 2.73925,-1.16556 z"
   id="path6025"
   inkscape:connector-curvature="0"
   style="fill:#a5228d" />
	<path
   d="m 201.15932,134.46274 c 0.002,6.71661 0.003,13.43319 0.005,20.15008 -2.82072,-0.37115 -5.64131,-0.74258 -8.46197,-1.11435 -0.001,-6.31027 -0.003,-12.62014 -0.004,-18.92923 2.12046,-0.0943 4.24097,-0.18939 6.36148,-0.28448 0.74311,-0.44876 1.45066,-0.47821 2.10012,0.17798 z"
   id="path6027"
   inkscape:connector-curvature="0"
   style="fill:#9d248d" />
	<path
   d="m 213.88045,158.82971 c -0.77974,-8.49478 1.63595,-16.85956 1.03093,-25.34646 1.76494,-0.0283 3.53018,-0.0575 5.29545,-0.0866 0.31087,-0.16242 0.61798,-0.40476 0.94492,-0.43085 8.48744,-0.6778 8.76581,-0.45551 9.08948,8.13373 0.19725,5.23459 0.16156,10.47586 0.0233,15.71087 -0.0633,2.3953 0.10475,5.01551 -2.66548,6.32666 -4.7235,-0.95608 -9.5024,-1.73565 -13.71863,-4.30734 z"
   id="path6029"
   inkscape:connector-curvature="0"
   style="fill:#ab208d" />
	<path
   d="m 227.59907,163.13705 c 2.4858,-9.35223 0.54808,-18.84674 0.85537,-28.2691 0.0422,-1.29495 -1.34546,-1.41892 -2.43044,-1.43326 -1.9387,-0.0256 -3.87771,-0.0265 -5.81688,-0.0379 0.79392,-1.19681 2.04494,-0.97687 3.20655,-1.03412 1.05737,-0.008 2.11471,-0.0167 3.17201,-0.0253 1.76303,-0.004 3.52611,-0.007 5.28908,-0.0113 1.76684,0.0101 3.53375,0.0205 5.30067,0.0308 1.76308,3.19141 0.4536,6.57947 0.54919,9.86307 0.17946,6.16376 0.10952,12.33774 0.0189,18.50619 -0.0331,2.25348 0.24083,4.6409 -1.61703,6.4625 -2.70622,-1.6373 -6.10728,-1.8122 -8.52744,-4.05161 z"
   id="path6031"
   inkscape:connector-curvature="0"
   style="fill:#b31d8d" />
	<path
   d="m 236.12651,167.18866 c -0.003,-8.70233 0.0526,-17.4053 -0.0411,-26.10666 -0.0321,-2.98172 0.19832,-5.88226 1.09002,-8.72516 0.70265,-0.003 1.4053,-0.006 2.10781,-0.009 2.58333,-0.21502 3.60962,1.20444 3.14893,3.49713 -2.25854,11.23938 -0.3951,22.46222 -0.0185,33.69214 -2.0961,-0.78186 -4.19167,-1.565 -6.28722,-2.34811 z"
   id="path6033"
   inkscape:connector-curvature="0"
   style="fill:#b71c8c" />
	<path
   d="m 326.80792,119.63831 c -1.19378,-1.79194 0.19629,-3.12152 1.07239,-4.22824 22.91815,-28.950536 62.82141,-27.688359 83.44714,-0.28202 19.97013,26.53534 11.90781,61.96863 -13.58355,79.23969 -31.1388,21.09726 -72.84943,3.1318 -80.32184,-34.02192 -2.42407,-12.05273 -0.90305,-23.21279 3.92239,-34.19302 0.69269,-1.57623 1.11478,-3.73901 3.68549,-3.42224 0.37207,0.31357 0.56073,0.71368 0.5733,1.19897 -0.28622,1.82474 -0.47931,3.6428 0.44892,5.37235 0.72894,1.86456 1.99136,3.59424 1.45636,5.77566 -9.58841,27.96238 10.22186,57.67603 39.58841,59.36982 23.23086,1.33987 45.60876,-19.55973 46.55282,-43.4776 0.95871,-24.28778 -13.93631,-43.10947 -37.82498,-47.30118 -11.95627,-2.09796 -22.60156,1.768 -32.33054,8.5538 -1.58545,1.10581 -2.88314,2.59082 -4.48321,3.69928 -4.18265,0.85575 -8.31314,1.89011 -12.2031,3.71665 z"
   id="path6035"
   inkscape:connector-curvature="0"
   style="fill:#e30c8c" />
	<path
   d="m 326.80792,119.63831 c 2.91565,-4.44525 7.46021,-4.44339 12.01911,-4.40223 4.09735,-0.25882 6.60522,2.10831 8.66516,5.23175 4.75567,8.65986 -1.43427,18.96332 -12.69419,19.42286 -3.2034,-0.9217 -6.53057,-1.67585 -7.81747,-5.38504 -0.72543,-1.79511 -1.45084,-3.59021 -2.17627,-5.38532 -0.37118,-1.73681 -0.44394,-3.47049 0.0549,-5.19815 0.0569,-0.39716 0.11386,-0.79431 0.17075,-1.19156 0.59265,-1.03079 1.18533,-2.06155 1.77798,-3.09231 z"
   id="path6037"
   inkscape:connector-curvature="0"
   style="fill:#fefefe" />
	<path
   d="m 201.15932,134.46274 c -0.70005,-0.0581 -1.4001,-0.1163 -2.10013,-0.17621 4.26613,-15.06131 8.45228,-30.14438 12.86706,-45.160248 0.86324,-2.936066 0.76216,-6.285767 3.10094,-8.718903 1.4415,0.171082 3.06451,-0.339661 4.16382,1.11087 -4.74291,10.719543 -6.81151,22.282501 -10.48718,33.341981 -2.03388,6.11963 -3.62259,12.38721 -5.41202,18.58847 -0.84711,0.0517 -1.64679,0.20261 -2.13249,1.01404 z"
   id="path6039"
   inkscape:connector-curvature="0"
   style="fill:#eb108e" />
	<path
   d="m 191.59354,134.59952 c -2.6294,1.89697 -5.64126,0.47888 -8.4327,0.97345 -0.35832,-0.0194 -0.71646,-0.0393 -1.0749,-0.0593 3.01835,-1.87192 6.3291,-0.70505 9.5076,-0.91418 z"
   id="path6041"
   inkscape:connector-curvature="0"
   style="fill:#9d248d" />
	<path
   d="m 346.45584,120.66547 c -1.63678,-3.08301 -4.91867,-3.85453 -7.62881,-5.42939 5.52304,-7.65249 13.83465,-10.61642 22.42416,-12.41177 17.44843,-3.647003 32.20264,2.03204 43.26465,15.5766 11.57278,14.17001 13.82577,30.39407 6.9761,47.54816 -7.7088,19.30578 -25.1282,30.40741 -43.76407,29.83517 -23.76196,-0.72961 -43.93301,-20.7785 -43.67236,-44.16882 0.0647,-5.80423 -1.48553,-12.00202 2.92502,-17.10977 2.44131,1.52404 4.51916,3.73419 7.6102,4.03204 1.60434,1.798 1.2691,3.90512 0.99435,6.02289 -2.41171,18.58883 10.00986,35.55026 28.50629,38.94149 16.36124,2.99979 34.9545,-9.8999 38.41717,-27.48022 5.03937,-25.58521 -14.30111,-42.81607 -33.18762,-42.37381 -6.13601,0.14371 -11.72381,2.18793 -17.04095,5.12909 -1.80405,0.99792 -3.4567,2.58106 -5.82413,1.88834 z"
   id="path6043"
   inkscape:connector-curvature="0"
   style="fill:#e60a8d" />
	<path
   d="m 324.85919,123.92218 c -0.0183,1.73276 -0.0366,3.46548 -0.0549,5.19821 -1.19605,-1.7456 -1.23496,-3.47891 0.0549,-5.19821 z"
   id="path6045"
   inkscape:connector-curvature="0"
   style="fill:#df0e8c" />
	<path
   d="m 346.45584,120.66547 c 7.48062,-4.76432 15.19473,-8.62998 24.46304,-8.47522 17.76664,0.29663 33.5376,16.14425 33.5517,33.99868 0.0142,17.98035 -7.88925,30.05368 -23.14114,36.47187 -20.76416,8.73782 -42.24243,-5.85413 -46.84839,-25.89118 -1.4393,-6.2615 0.19925,-12.16473 0.10968,-18.23172 11.492,-1.59256 15.27237,-7.28686 11.86511,-17.87243 z"
   id="path6047"
   inkscape:connector-curvature="0"
   style="fill:#eb0b8d" />
	<path
   d="m 354.7059,148.6705 c 0.0205,-8.08069 7.0856,-15.2991 14.93427,-15.25818 7.58224,0.0395 14.75872,7.33231 14.71219,14.95069 -0.0476,7.80066 -7.95768,15.83624 -15.50666,15.75268 -7.53918,-0.0834 -14.16034,-7.31589 -14.1398,-15.44519 z"
   id="path6049"
   inkscape:connector-curvature="0"
   style="fill:#eb0f8e" />
	<path
   d="m 368.96619,155.67697 c -4.05594,-0.0979 -6.6286,-1.91388 -6.82422,-6.2132 -0.21161,-4.6517 2.70721,-7.57815 7.38827,-7.57458 3.8049,0.003 7.24359,3.21277 7.28952,6.80441 0.0427,3.33881 -4.03039,6.95734 -7.85357,6.98337 z"
   id="path6051"
   inkscape:connector-curvature="0"
   style="fill:#ec148e" />
</g>
</svg>