<?xml version="1.0" encoding="utf-8"?>
<!-- Generator: Adobe Illustrator 16.0.0, SVG Export Plug-In . SVG Version: 6.00 Build 0)  -->
<!DOCTYPE svg PUBLIC "-//W3C//DTD SVG 1.1//EN" "http://www.w3.org/Graphics/SVG/1.1/DTD/svg11.dtd">
<svg version="1.1" id="Layer_1" xmlns="http://www.w3.org/2000/svg" xmlns:xlink="http://www.w3.org/1999/xlink" x="0px" y="0px"
	 width="137.226563px" height="100px" viewBox="0 0 137.226563 100" style="enable-background:new 0 0 137.226563 100;"
	 xml:space="preserve">
<path style="fill-rule:evenodd;clip-rule:evenodd;fill:#5F1001;" d="M61.760742,2.960449
	c0.50293-0.255859,1.005859-0.511719,1.508789-0.767578c1.587891-0.588867,3.175781-1.177734,4.762695-1.76709
	C69.113281,0.283691,70.194336,0.14209,71.276367,0c1.561523,0.022949,3.124023,0.045898,4.685547,0.068848
	c1.473633,0.241211,2.947266,0.482422,4.419922,0.723633c0.986328,0.260254,1.97168,0.520996,2.957031,0.78125
	c0.34375,0.115723,0.686523,0.231934,1.030273,0.348145c0.895508,0.331055,1.791016,0.662598,2.686523,0.994629
	c1.456055,0.62793,2.911133,1.255859,4.366211,1.884277C92.376953,5.275391,93.332031,5.75,94.287109,6.225586
	c4.291016,2.103516,8.582031,4.20752,12.873047,6.311035c0.239258,0.356445,0.477539,0.711914,0.716797,1.068359
	c-0.00293,0.133789-0.005859,0.268066-0.008789,0.402344c-0.251953,0.137207-0.50293,0.273438-0.753906,0.410645
	c-1.780273-0.897461-3.554688-1.807617-5.34375-2.688477c-3.362305-1.654785-6.732422-3.29248-10.098633-4.9375
	c-1.152344-0.522461-2.303711-1.04541-3.455078-1.567871c-1.969727-0.643555-3.939453-1.287109-5.90918-1.931152
	c-2.088867-0.444824-4.178711-0.890137-6.268555-1.334961c-2.963867-0.294922-5.90332-0.301758-8.762695,0.708984
	C66.0625,3.069824,64.74707,3.276855,63.90918,4.408203c-2.240234,0.581543-3.828125,2.129883-5.427734,3.661133
	C57.740234,7.83252,57,7.595215,56.258789,7.357422c0.883789-0.847656,1.769531-1.694824,2.654297-2.54248
	c0.199219-0.134277,0.399414-0.268555,0.599609-0.402832c0.304688-0.217773,0.609375-0.436035,0.914063-0.654297
	C60.87207,3.492188,61.316406,3.226074,61.760742,2.960449z"/>
<path style="fill-rule:evenodd;clip-rule:evenodd;fill:#353435;" d="M99.828125,95.238281
	c0.008789,0.119141,0.011719,0.236328,0.006836,0.354492c-0.24707,0.678711-0.777344,0.795898-1.410156,0.711914l-0.113281,0.044922
	c-0.000977-0.126953-0.000977-0.254883-0.000977-0.381836c-0.131836-0.362305-0.264648-0.723633-0.396484-1.085938
	c-0.063477-0.139648-0.126953-0.280273-0.19043-0.420898c-0.013672-0.214844-0.027344-0.430664-0.041016-0.646484
	C99.208008,93.712891,99.208008,93.712891,99.828125,95.238281z"/>
<path style="fill-rule:evenodd;clip-rule:evenodd;fill:#BE0115;" d="M58.481445,8.069336
	c6.355469,2.209473,12.789063,2.71875,19.311523,0.812012c3.199219-0.935059,6.379883-1.929688,9.556641-2.936523
	c0.332031-0.105469,0.580078-0.474121,0.867188-0.720703c1.151367,0.522461,2.302734,1.04541,3.455078,1.567871
	c-2.552734,0.763184-5.108398,1.516602-7.658203,2.290527c-3.774414,1.146484-7.571289,2.213867-11.509766,2.608398
	c-4.600586,0.461426-9.071289-0.315918-13.485352-1.563477C58.15918,9.884277,57.257813,9.79248,56.375,9.631348
	c-0.678711-0.254883-1.358398-0.508789-2.037109-0.763672c-0.755859-0.214844-1.50293-0.474609-2.270508-0.636719
	c-3.400391-0.719727-6.799805-1.138672-10.265137-0.318848c-5.385742,1.274414-9.029785,4.708984-11.798828,9.282715
	c-1.962891,0.000977-3.925293,0.001465-5.888184,0.00293c0.525879-0.060059,1.067871-0.233887,1.572754-0.15918
	c1.516602,0.223633,2.371094-0.408203,3.186035-1.696777c2.166992-3.429688,5.016602-6.186035,8.779297-7.881348
	c0.865723-0.390137,1.729004-0.785645,2.593262-1.179199c2.660156-0.241211,5.301758-0.813965,7.996094-0.453613
	c2.256348,0.441895,4.513184,0.88623,6.77002,1.324219c0.413086,0.080566,0.830078,0.137695,1.246094,0.205566
	C57,7.595215,57.740234,7.83252,58.481445,8.069336z"/>
<path style="fill-rule:evenodd;clip-rule:evenodd;fill:#BF0216;" d="M112.279297,6.277344
	c-2.700195-1.44873-5.642578-2-8.631836-1.791016c-2.832031,0.198242-5.635742,0.812988-8.447266,1.275879
	c-0.321289,0.052734-0.609375,0.303711-0.913086,0.463379C93.332031,5.75,92.376953,5.275391,91.421875,4.800781
	c5.314453-1.70459,10.71582-2.909668,16.301758-1.785645c2.291992,0.461426,4.476563,1.464844,6.709961,2.222168
	c0.003906,0.098145,0.011719,0.196289,0.022461,0.293945c-0.59668,0.242676-1.193359,0.48584-1.789063,0.728516
	C112.538086,6.265625,112.408203,6.271973,112.279297,6.277344z"/>
<path style="fill-rule:evenodd;clip-rule:evenodd;fill:#AD76C3;" d="M122.956055,25.579102
	c-2.518555,0.499023-5.012695,0.547852-7.499023-0.243164c-5.464844-1.741699-8.121094-5.193848-8.342773-10.917969
	c0.250977-0.137207,0.501953-0.273438,0.753906-0.410645c-0.103516,0.664551,0.131836,1.157715,0.740234,1.462402
	c0.041992,0.663086-0.078125,1.390625,0.154297,1.979004c1.205078,3.052246,3.161133,5.34082,6.415039,6.452637
	c2.316406,0.791016,4.650391,0.635742,7,0.661133C122.4375,24.901855,122.697266,25.240234,122.956055,25.579102z"/>
<path style="fill-rule:evenodd;clip-rule:evenodd;fill:#601152;" d="M108.608398,15.469727
	c-0.608398-0.304688-0.84375-0.797852-0.740234-1.462402c0.00293-0.134277,0.005859-0.268555,0.008789-0.402344
	c0.12793-0.043945,0.254883-0.086914,0.382813-0.130371c2.852539,0.937012,5.150391,2.855957,7.668945,4.381348
	c0.164063,0.099121,0.237305,0.716797,0.104492,0.857422c-0.231445,0.244141-0.654297,0.398926-1.001953,0.408691
	c-0.25293,0.007324-0.511719-0.285156-0.772461-0.434082C112.375977,17.61377,110.492188,16.54248,108.608398,15.469727z"/>
<path style="fill-rule:evenodd;clip-rule:evenodd;fill:#AD76C3;" d="M108.259766,13.474609
	c-0.12793,0.043457-0.254883,0.086426-0.382813,0.129883c-0.239258-0.355957-0.477539-0.711426-0.716797-1.067871
	c0.667969-1.111816,1.217773-2.321777,2.035156-3.311035c0.899414-1.088379,2.044922-1.974121,3.083984-2.948242
	c0.128906-0.005371,0.258789-0.011719,0.387695-0.017578c0.357422,0.249023,0.714844,0.498047,1.073242,0.746582
	c-0.757813,0.572266-1.510742,1.148438-2.271484,1.71582C109.844727,9.933105,109.208984,11.809082,108.259766,13.474609z"/>
<path style="fill-rule:evenodd;clip-rule:evenodd;fill:#5F1086;" d="M23.016602,84.1875
	c2.812012,0.935547,5.704102,1.682617,8.417969,2.845703c4.900391,2.100586,9.693848,4.449219,14.532227,6.694336
	c0.998535,0.375977,1.996582,0.750977,2.995117,1.125977c2.467773,1.015625,4.94043,2.013672,7.636719,2.254883
	c0.750977,0.208008,1.50293,0.415039,2.253906,0.623047c0.974609,0.125,1.948242,0.25,2.922852,0.375
	c2.714844,0.241211,5.394531,0.105469,8.005859-0.754883c0.616211-0.230469,1.231445-0.461914,1.847656-0.693359
	c0.631836-0.339844,1.264648-0.680664,1.896484-1.021484c2.168945-0.917969,3.938477-2.381836,5.541992-4.070313
	c0.818359,0.200195,1.636719,0.399414,2.455078,0.599609c-0.985352,0.889648-1.970703,1.779297-2.955078,2.668945
	c-0.478516,0.375-0.956055,0.749023-1.43457,1.124023c-0.138672,0.113281-0.276367,0.226563-0.415039,0.339844
	c-0.606445,0.369141-1.212891,0.738281-1.820313,1.107422c-0.481445,0.24707-0.963867,0.494141-1.446289,0.741211
	c-0.606445,0.245117-1.213867,0.491211-1.821289,0.736328c-3.547852,1.040039-7.178711,1.234375-10.844727,1.05957
	c-1.24707-0.22168-2.495117-0.443359-3.742188-0.665039c-0.587891-0.131836-1.175781-0.264648-1.762695-0.397461
	c-0.518555-0.125-1.037109-0.25-1.555664-0.375c-1.362305-0.460938-2.725586-0.921875-4.088867-1.382813
	c-1.312988-0.484375-2.625977-0.969727-3.938477-1.455078c-0.719727-0.759766-1.592773-1.178711-2.649414-1.185547
	c-3.029297-1.496094-6.021484-3.072266-9.098633-4.460938c-2.366211-1.068359-4.828125-1.930664-7.269531-2.824219
	c-1.586426-0.580078-3.213379-1.051758-4.822266-1.571289c0.003906-0.09668-0.004395-0.192383-0.025391-0.288086
	C22.227051,84.955078,22.62207,84.572266,23.016602,84.1875z"/>
<path style="fill-rule:evenodd;clip-rule:evenodd;fill:#95017C;" d="M81.522461,92.166016
	c-0.818359-0.200195-1.636719-0.399414-2.455078-0.599609c-2.898438-0.609375-5.771484-1.537109-8.700195-1.766602
	c-7.62793-0.59668-14.519531,2.297852-21.405273,5.053711c-0.998535-0.375-1.996582-0.75-2.995117-1.125977
	c5.544922-2.113281,11.110352-4.180664,16.952148-5.329102c4.855469-0.955078,9.665039-0.455078,14.423828,0.753906
	c1.230469,0.3125,2.46875,0.599609,3.703125,0.897461c0.75293,0.143555,1.505859,0.287109,2.258789,0.430664
	c9.818359,3.490234,19.428711,0.757813,24.098633-8.405273c-0.457031-0.120117-0.907227-0.237305-1.358398-0.355469
	c1.262695,0.124023,2.525391,0.24707,3.788086,0.370117c-0.749023,1.171875-1.43457,2.388672-2.257813,3.505859
	c-2.875977,3.908203-6.632813,6.518555-11.415039,7.569336c-0.859375,0.188477-1.714844,0.394531-2.572266,0.592773
	l0.029297-0.017578c-1.276367-0.057617-2.566406-0.011719-3.825195-0.193359
	C87.026367,93.146484,84.277344,92.632813,81.522461,92.166016z"/>
<path style="fill-rule:evenodd;clip-rule:evenodd;fill:#5F1001;" d="M24.115234,17.197754
	c1.962891-0.001465,3.925293-0.001953,5.888184-0.00293c1.150879,0.067383,2.300293,0.179688,3.45166,0.193848
	c3.092285,0.037598,6.17334,0.081055,9.20459-0.794434c4.716309-1.361328,8.322754-4.340332,11.678223-7.726563
	c0.678711,0.254883,1.358398,0.508789,2.037109,0.763672c-7.257813,8.155273-16.407227,10.761719-26.979004,9.197266
	c-0.953125-0.015625-1.90625-0.03125-2.858887-0.047363c-1.454102,0.079102-2.90918,0.143555-4.361816,0.239746
	c-8.072266,0.53418-15.764648,6.355957-16.772461,16.508301C4.76123,35.449219,4.158203,36.375,3.489258,35.603516
	c0.310547-3.238281,1.11084-6.333984,2.927246-9.072266C10.609863,20.208984,16.607422,17.258789,24.115234,17.197754z"/>
<path style="fill-rule:evenodd;clip-rule:evenodd;fill:#5F0F86;" d="M83.304688,90.480469
	c-0.75293-0.143555-1.505859-0.287109-2.258789-0.430664c3.854492-4.137695,8.089844-7.713867,13.729492-9.168945
	c3.073242-0.792969,6.192383-1.091797,9.369141-0.841797c1.573242,0.123047,3.157227,0.095703,4.736328,0.136719
	c0.765625,0.013672,1.53125,0.025391,2.296875,0.039063c1.211914-0.010742,2.430664,0.046875,3.637695-0.043945
	c5.369141-0.405273,10.001953-2.374023,13.484375-6.614258c2.330078-2.835938,3.789063-6.03125,3.717773-9.791016
	c0.78418-0.236328,1.568359-0.47168,2.352539-0.707031c-0.160156,0.956055-0.316406,1.912109-0.481445,2.868164
	c-1.417969,8.238281-8.205078,14.077148-15.194336,15.356445c-2.905273,0.53125-5.904297,0.552734-8.861328,0.806641
	c-1.262695-0.123047-2.525391-0.246094-3.788086-0.370117c-1.157227-0.012695-2.31543-0.020508-3.472656-0.038086
	c-4.668945-0.069336-9.139648,0.750977-12.998047,3.505859C87.356445,86.771484,85.386719,88.704102,83.304688,90.480469z"/>
<path style="fill-rule:evenodd;clip-rule:evenodd;fill:#BE0115;" d="M3.489258,35.603516
	C4.158203,36.375,4.76123,35.449219,5.402832,35.529297c10.274414-1.506836,16.986816-7.509766,21.134277-16.748047
	c0.952637,0.016113,1.905762,0.031738,2.858887,0.047363c-0.411621,0.421875-0.906738,0.790527-1.219238,1.276367
	c-0.855469,1.329102-1.626465,2.711914-2.444336,4.06543c-4.287598,7.099121-10.658691,11.166504-18.67334,12.873535
	c-0.825684,0.176758-1.883301,0.00293-2.322266,1.075195c-0.622559-0.736328-1.254395-0.304688-1.884766-0.015625
	c-0.737793,0.140625-1.476563,0.282227-2.214355,0.422852c-0.725098-0.479492-0.818848-1.081055-0.347656-1.791992
	C1.398926,36.476563,2.616699,36.52832,3.489258,35.603516z"/>
<path style="fill-rule:evenodd;clip-rule:evenodd;fill:#95017C;" d="M111.177734,80.214844
	c-0.765625-0.013672-1.53125-0.025391-2.296875-0.039063c1.785156-2.896484,3.374023-5.936523,5.396484-8.65625
	c3.670898-4.938477,8.835938-7.704102,14.71582-9.214844c1.235352-0.316406,2.498047-0.529297,3.748047-0.789063
	c0.708984-0.226563,1.417969-0.451172,2.126953-0.677734c0.520508-0.139648,1.041016-0.279297,1.5625-0.419922
	c0.810547-0.019531,0.695313,0.574219,0.780273,1.099609c0.157227,0.960938-0.861328,0.614258-1.128906,1.082031
	c-0.570313,0.15332-1.140625,0.305664-1.711914,0.458984c-0.78418,0.235352-1.568359,0.470703-2.352539,0.707031
	c-0.719727,0.052734-1.458008,0.023438-2.157227,0.172852C120.62793,65.90625,114.886719,71.898438,111.177734,80.214844z"/>
<path style="fill-rule:evenodd;clip-rule:evenodd;fill:#5F1001;" d="M49.024414,27.185547
	c-0.680664,7.078125-5.805176,12.766602-13.141602,14.568359c-1.061035,0.259766-2.129395,0.505859-3.206543,0.681641
	c-3.726563,0.613281-7.194824,1.769531-9.907715,4.691406c-0.461426-0.422852-0.845215-0.773438-1.257324-1.150391
	c2.497559-2.841797,5.696777-4.176758,9.212402-4.923828c1.603516-0.339844,3.21875-0.634766,4.805664-1.041016
	c6.377441-1.632813,10.294922-5.662109,11.6875-12.115234c0.228516-0.494141,0.458008-0.988281,0.686523-1.482422
	c0.237305,0.113281,0.475098,0.226563,0.712402,0.339844C48.751953,26.897461,48.888184,27.041992,49.024414,27.185547z"/>
<path style="fill-rule:evenodd;clip-rule:evenodd;fill:#601086;" d="M97.25,67.387695
	c0.1875-0.508789,0.391602-1.012695,0.560547-1.527344c1.939453-5.913086,6.0625-9.533203,11.932617-11.250977
	c2.036133-0.595703,4.138672-0.958008,6.19043-1.501953c2.381836-0.629883,4.540039-1.700195,6.334961-3.441406
	c1.035156-1.003906,1.05957-0.978516,2.133789,0.335938c-2.24707,2.651367-5.200195,4.091797-8.498047,4.927734
	c-1.646484,0.417969-3.321289,0.725586-4.962891,1.160156c-5.678711,1.503906-9.746094,4.78418-11.526367,10.558594
	c-0.157227,0.509766-0.404297,0.991211-0.610352,1.486328c-0.141602,0.123047-0.283203,0.246094-0.424805,0.369141
	c-0.234375-0.120117-0.46875-0.240234-0.703125-0.361328C97.53418,67.891602,97.391602,67.639648,97.25,67.387695z"/>
<path style="fill-rule:evenodd;clip-rule:evenodd;fill:#C57C61;" d="M40.890625,56.794922
	c0.485352,1.226563,1.201172,2.414063,1.40918,3.68457c0.497559,3.037109-1.102051,5.908203-4.031738,7.287109
	c-3.039551,1.430664-6.108398,1.350586-9.020996-0.443359c-2.799805-1.725586-3.870117-4.317383-3.368652-7.490234
	c0.45459-2.875977,2.413086-4.620117,5.03418-5.491211c2.689941-0.893555,5.379395-0.772461,7.812012,0.949219
	c-0.73291,0.138672-1.46582,0.277344-2.199219,0.415039c-2.282715-0.676758-4.506348-0.712891-6.640137,0.540039
	c-2.974121,1.74707-4.008789,5.71875-1.494141,8.712891c1.912109,2.277344,4.526367,2.806641,7.258789,2.370117
	c1.914551-0.305664,3.674805-1.206055,4.645508-3.129883c1.291504-2.560547,0.777832-4.871094-0.873535-7.052734
	c0.366699-0.142578,0.733398-0.28418,1.100098-0.427734C40.64502,56.744141,40.768066,56.769531,40.890625,56.794922z"/>
<path style="fill-rule:evenodd;clip-rule:evenodd;fill:#AD75C3;" d="M94.667969,39.526367
	c-0.125-1.195313-0.28418-2.387695-0.369141-3.586914c-0.302734-4.291016,4.352539-8.412109,8.317383-8.521484
	c3.05957-0.083984,5.671875,0.544922,7.444336,3.205078c0.494141,0.742188,0.758789,1.636719,1.128906,2.462891
	c0.029297,0.09375,0.029297,0.189453,0.000977,0.285156c-0.357422,0.128906-0.714844,0.257813-1.072266,0.385742
	c-0.128906-0.186523-0.344727-0.361328-0.374023-0.563477c-0.299805-2.025391-1.720703-3.269531-3.355469-3.994141
	c-3.125-1.382813-6.128906-0.626953-8.489258,1.700195c-1.879883,1.852539-3.125977,4.15918-2.116211,7.020508
	c0.094727,0.269531,0.015625,0.601563,0.016602,0.90625c-0.008789,0.230469-0.018555,0.460938-0.027344,0.691406
	C95.40332,39.520508,95.035156,39.523438,94.667969,39.526367z"/>
<path style="fill-rule:evenodd;clip-rule:evenodd;fill:#601203;" d="M40.890625,56.794922
	c-0.122559-0.025391-0.245605-0.050781-0.368652-0.076172c-0.480469-0.445313-0.960449-0.892578-1.440918-1.337891
	c1.580078-0.390625,3.186035-0.699219,4.734863-1.1875c3.334473-1.049805,6.020996-3.029297,7.992676-5.933594
	c0.192383-0.283203,0.259766-0.650391,0.384766-0.978516c0.266602-0.246094,0.533203-0.492188,0.799805-0.739258
	c0.102539-0.00293,0.205078-0.009766,0.306641-0.020508c0.268555,0.009766,0.537109,0.019531,0.805664,0.02832
	c0.008789,0.258789,0.018555,0.516602,0.027344,0.775391c-0.418945,1.865234-1.711914,3.166992-2.977539,4.448242
	c-2.404297,2.432617-5.378418,3.852539-8.681641,4.628906C41.944336,56.527344,41.418457,56.664063,40.890625,56.794922z"/>
<path style="fill-rule:evenodd;clip-rule:evenodd;fill:#C57C61;" d="M10.561523,68.076172
	c2.306641-0.037109,4.597168-0.110352,6.816895,0.792969c3.57959,1.455078,7.495117,5.109375,7.071777,10.601563
	c-0.124023,1.607422-0.549805,3.09375-1.505859,4.40625c-0.373047-0.230469-0.746582-0.462891-1.119629-0.694336
	c1.080078-1.652344,1.833496-3.47168,1.43457-5.428711c-0.761719-3.732422-3.010254-6.291016-6.557129-7.791016
	c-2.041016-0.862305-4.131348-0.678711-6.227539-0.736328C10.503418,68.842773,10.532227,68.458984,10.561523,68.076172z"/>
<path style="fill-rule:evenodd;clip-rule:evenodd;fill:#AD76C4;" d="M91.382813,45.052734
	c0.297852,0.145508,0.583984,0.376953,0.895508,0.421875c3.204102,0.456055,4.744141,2.09375,4.62793,4.964844
	c-0.103516,2.552734-2.454102,4.84375-5.208008,4.853516c-1.167969,0.003906-2.337891-0.417969-3.505859-0.646484
	c0.106445-0.382813,0.213867-0.766602,0.322266-1.150391c0.642578,0.123047,1.337891,0.130859,1.917969,0.392578
	c1.207031,0.544922,2.250977,0.097656,3.236328-0.439453c1.585938-0.863281,1.886719-2.344727,1.797852-4.037109
	c-0.064453-1.24707-0.797852-1.933594-1.791992-2.226563c-0.813477-0.240234-1.745117-0.0625-2.624023-0.099609
	c-0.248047-0.009766-0.493164-0.120117-0.739258-0.18457c0.134766-0.360352,0.269531-0.719727,0.404297-1.080078
	C90.938477,45.56543,91.160156,45.308594,91.382813,45.052734z"/>
<path style="fill-rule:evenodd;clip-rule:evenodd;fill:#AD76C3;" d="M111.126953,35.515625
	c-0.730469,5.647461-6.739258,9.104492-12.182617,7.333984c-0.845703-0.275391-1.584961-0.871094-2.382813-1.298828
	c-0.357422-0.193359-0.741211-0.335938-1.113281-0.501953c0.251953-0.363281,0.50293-0.725586,0.753906-1.088867
	c0.117188-0.006836,0.231445,0.008789,0.341797,0.046875c0.413086,0.214844,0.864258,0.378906,1.234375,0.65332
	c2.368164,1.755859,4.853516,1.705078,7.470703,0.623047c2.317383-0.957031,3.551758-2.826172,4.46582-5.005859l-0.024414-0.073242
	C110.169922,35.974609,110.648438,35.745117,111.126953,35.515625z"/>
<path style="fill-rule:evenodd;clip-rule:evenodd;fill:#AD76C4;" d="M79.578125,72.546875
	c-1.8125,0.029297-3.166016-1.179688-3.132813-2.800781c0.03125-1.589844,1.786133-3.292969,3.487305-3.384766
	c1.646484-0.087891,3.070313,1.261719,3.05957,2.902344C82.981445,71.046875,81.452148,72.517578,79.578125,72.546875z
	 M79.894531,67.770508c-1.09375-0.00293-2.064453,0.999023-2.025391,2.092773
	c0.030273,0.841797,0.703125,1.433594,1.701172,1.493164c0.996094,0.05957,1.980469-1.022461,1.959961-2.15332
	C81.512695,68.202148,81.023438,67.774414,79.894531,67.770508z"/>
<path style="fill-rule:evenodd;clip-rule:evenodd;fill:#C57D63;" d="M52.993164,46.541992
	c-0.266602,0.24707-0.533203,0.493164-0.799805,0.739258c-2.562012-0.46875-4.116211-2.176758-3.968262-4.363281
	c0.155273-2.293945,2.189941-4.044922,4.73291-4.071289c0.604492-0.006836,1.208008-0.010742,1.811523-0.014648
	c0.029297,0.126953,0.058594,0.253906,0.086914,0.380859c-0.138672,0.365234-0.27832,0.732422-0.416992,1.099609
	c-0.666992-0.000977-1.333984-0.011719-2.000977,0c-1.060547,0.017578-2.492188,0.871094-2.679688,1.770508
	c-0.223145,1.067383-0.312012,2.206055,0.794922,2.942383C51.350586,45.556641,52.178711,46.038086,52.993164,46.541992z"/>
<path style="fill-rule:evenodd;clip-rule:evenodd;fill:#C67E64;" d="M62.869141,31.871094
	c-1.597656,0.001953-2.960938-1.244141-2.905273-2.652344c0.054688-1.373047,1.352539-2.500977,2.852539-2.478516
	c1.626953,0.024414,2.969727,1.232422,2.930664,2.637695C65.710938,30.717773,64.378906,31.871094,62.869141,31.871094z
	 M62.924805,30.426758c1.03418-0.020508,1.446289-0.37207,1.389648-1.186523
	c-0.044922-0.632813-0.953125-1.382813-1.648438-1.359375c-0.631836,0.021484-1.295898,0.800781-1.265625,1.49707
	C61.446289,30.394531,62.15625,30.456055,62.924805,30.426758z"/>
<path style="fill-rule:evenodd;clip-rule:evenodd;fill:#C67D62;" d="M80.429688,19.316406
	c-0.022461,1.410156-1.287109,2.603027-2.758789,2.602539c-1.496094-0.000977-2.945313-1.337891-2.925781-2.700195
	c0.019531-1.39209,1.507813-2.690918,2.995117-2.613281C79.185547,16.681152,80.451172,17.956055,80.429688,19.316406z
	 M77.458008,17.984375c-0.731445,0.026855-1.540039,0.793457-1.375977,1.393066
	c0.214844,0.781738,0.766602,1.194824,1.62207,1.168457c0.953125-0.029785,1.3125-0.400391,1.260742-1.362793
	C78.924805,18.462402,78.285156,17.953613,77.458008,17.984375z"/>
<path style="fill-rule:evenodd;clip-rule:evenodd;fill:#C67D63;" d="M72.201172,30.09375
	c-1.630859-0.019531-2.732422-1.030273-2.753906-2.527344c-0.019531-1.380859,1.245117-2.585449,2.727539-2.597656
	c1.567383-0.013184,2.818359,1.195313,2.806641,2.707031C74.96875,29.200195,73.917969,30.114258,72.201172,30.09375z
	 M73.816406,27.602539c-0.064453-0.672852-0.924805-1.243164-1.764648-1.207031
	c-0.766602,0.032227-1.524414,0.518555-1.349609,1.108398c0.173828,0.584961,0.990234,1.176758,1.641602,1.368164
	C73.016602,29.070313,73.869141,28.15625,73.816406,27.602539z"/>
<path style="fill-rule:evenodd;clip-rule:evenodd;fill:#AD76C4;" d="M67.960938,76.201172
	c-1.47168,0.003906-2.536133-0.956055-2.513672-2.269531c0.020508-1.210938,1.49707-2.75,2.6875-2.800781
	c1.349609-0.056641,2.743164,1.177734,2.708008,2.398438C70.799805,75.021484,69.53125,76.197266,67.960938,76.201172z
	 M67.999023,75.384766c0.589844-0.6875,1.196289-1.12207,1.393555-1.697266c0.224609-0.650391-0.250977-1.128906-1.005859-1.148438
	c-0.791992-0.023438-1.619141,0.720703-1.455078,1.464844C67.025391,74.427734,67.501953,74.767578,67.999023,75.384766z"/>
<path style="fill-rule:evenodd;clip-rule:evenodd;fill:#AD77C4;" d="M58.353516,67.770508
	c1.447266,0.032227,2.361328,0.988281,2.330078,2.438477c-0.032227,1.46875-1.428711,2.740234-2.897461,2.638672
	c-1.423828-0.097656-2.317383-1.108398-2.262695-2.557617C55.575195,68.933594,56.917969,67.738281,58.353516,67.770508z
	 M59.568359,69.90918c-0.275391-0.172852-0.646484-0.551758-1.079102-0.645508
	c-0.831055-0.181641-1.862305,0.501953-1.758789,1.117188c0.086914,0.515625,0.287109,1.039063,1.023438,1.060547
	C58.579102,71.46582,59.464844,70.916016,59.568359,69.90918z"/>
<path style="fill-rule:evenodd;clip-rule:evenodd;fill:#611287;" d="M96.202148,39.959961
	c-0.250977,0.363281-0.501953,0.725586-0.753906,1.088867c-1.583984,1.102539-2.975586,2.400391-4.06543,4.003906
	c-0.222656,0.255859-0.444336,0.512695-0.666992,0.768555c-0.450195,0.148438-0.895508,0.325195-1.356445,0.431641
	c-0.161133,0.037109-0.361328-0.09668-0.542969-0.151367c1.231445-2.832031,3.28125-4.93457,5.851563-6.575195
	c0.367188-0.00293,0.735352-0.005859,1.104492-0.008789C95.915039,39.665039,96.058594,39.8125,96.202148,39.959961z"/>
<path style="fill-rule:evenodd;clip-rule:evenodd;fill:#621487;" d="M134.868164,60.837891
	c-0.708984,0.226563-1.417969,0.451172-2.126953,0.677734c0.56543-3.126953,1.783203-6.005859,3.333008-8.757813
	c0.237305,0.382813,0.474609,0.765625,0.711914,1.146484c-0.239258,1.076172-0.477539,2.152344-0.716797,3.228516
	C135.668945,58.368164,135.268555,59.603516,134.868164,60.837891z"/>
<path style="fill-rule:evenodd;clip-rule:evenodd;fill:#611304;" d="M2.852051,38.103516
	c0.630371-0.289063,1.262207-0.720703,1.884766,0.015625c-0.435059,3.078125-1.689453,5.822266-3.411133,8.375977
	c-0.601563-1.209961-0.462891-2.418945,0.001953-3.62793C1.835449,41.279297,2.34375,39.691406,2.852051,38.103516z"/>
<path style="fill-rule:evenodd;clip-rule:evenodd;fill:#691F8D;" d="M88.816406,46.101563
	c0.181641,0.054688,0.381836,0.188477,0.542969,0.151367c0.460938-0.106445,0.90625-0.283203,1.356445-0.431641
	c-0.134766,0.360352-0.269531,0.719727-0.404297,1.080078c-0.233398,0.368164-0.46582,0.735352-0.699219,1.102539
	c-1.723633,1.375-2.114258,2.866211-1.145508,4.378906c0.015625,0.371094,0.03125,0.742188,0.047852,1.113281
	c-0.108398,0.383789-0.21582,0.767578-0.322266,1.150391c0.000977,0.421875-0.019531,0.84375,0.009766,1.262695
	c0.058594,0.87207-0.442383,1.208008-1.203125,1.213867c-0.205078,0.001953-0.603516-0.291016-0.589844-0.412109
	c0.15625-1.416016,0.374023-2.824219,0.576172-4.234375c0.371094-1.630859,0.742188-3.261719,1.113281-4.892578
	C88.337891,47.089844,88.577148,46.595703,88.816406,46.101563z"/>
<path style="fill-rule:evenodd;clip-rule:evenodd;fill:#621487;" d="M10.561523,68.076172
	c-0.029297,0.382813-0.058105,0.766602-0.086914,1.150391c-0.23584,0.004883-0.472168,0.009766-0.708008,0.015625
	c-0.356934-0.248047-0.713867-0.496094-1.071289-0.744141c0.15625-1.913086,0.715332-3.677734,1.938965-5.189453
	c0.279785-0.344727,0.508301-0.943359,1.111328-0.371094c0.392578,0.373047,0.822754,0.655273,0.332031,1.335938
	C11.264648,65.399414,10.504883,66.585938,10.561523,68.076172z"/>
<path style="fill-rule:evenodd;clip-rule:evenodd;fill:#621406;" d="M122.956055,25.579102
	c-0.258789-0.338867-0.518555-0.677246-0.77832-1.016602c-0.455078-0.425781-0.911133-0.851563-1.371094-1.28125
	c1.213867-1.094238,1.216797-1.098145,2.274414-0.289063c0.327148,0.250488,0.632813,0.530273,0.948242,0.795898
	c0.224609,0.270508,0.449219,0.541016,0.672852,0.811523c0.368164,1.013672,0.737305,2.027344,1.103516,3.035156
	c-1.483398,0.699219-1.470703,0.693359-2.073242-0.642578C123.511719,26.503906,123.216797,26.048828,122.956055,25.579102z"/>
<path style="fill-rule:evenodd;clip-rule:evenodd;fill:#631607;" d="M129.183594,24.329102
	c1.712891-0.585449,1.712891-0.583496,2.246094,0.818359c0.579102,1.522461,0.404297,3.078125,0.208984,4.632813
	c-0.076172,0.606445-0.44043,0.766602-1.030273,0.664063c-0.610352-0.105469-0.850586-0.414063-0.702148-0.99707
	C130.356445,27.669922,130.15918,25.986328,129.183594,24.329102z"/>
<path style="fill-rule:evenodd;clip-rule:evenodd;fill:#AD76C4;" d="M97.25,67.387695
	c0.141602,0.251953,0.28418,0.503906,0.426758,0.754883c-0.24707,0.246094-0.494141,0.492188-0.742188,0.738281
	c-0.853516,0.402344-1.771484,0.689453-1.876953,1.895508c-0.098633,1.133789,0.733398,1.370117,1.455078,1.756836
	c-0.017578,0.506836-0.035156,1.013672-0.053711,1.519531c-0.201172-0.132813-0.385742-0.330078-0.607422-0.388672
	c-1.427734-0.380859-2.176758-1.373047-2.207031-2.767578c-0.03418-1.501953,0.974609-2.431641,2.216797-3.080078
	C96.283203,67.595703,96.785156,67.526367,97.25,67.387695z"/>
<path style="fill-rule:evenodd;clip-rule:evenodd;fill:#611388;" d="M8.946289,57.255859
	c0.780762,0.007813,1.240723,0.96582,0.850098,1.587891c-0.821289,1.306641-1.426758,2.667969-1.465332,4.25
	c-0.005371,0.21875-0.4375,0.636719-0.583008,0.601563c-0.342285-0.083984-0.851563-0.349609-0.896973-0.609375
	c-0.111816-0.645508-0.166504-1.390625,0.054688-1.984375c0.439941-1.180664,1.072266-2.291016,1.646973-3.419922
	C8.650879,57.489258,8.855957,57.351563,8.946289,57.255859z"/>
<path style="fill-rule:evenodd;clip-rule:evenodd;fill:#C57B62;" d="M54.132813,47.325195
	c-0.008789-0.258789-0.018555-0.516602-0.027344-0.775391c0.365234-0.371094,0.729492-0.742188,1.094727-1.112305
	c1.241211-0.822266,1.787109-1.867188,1.113281-3.337891c-0.09375-0.203125-0.043945-0.472656-0.05957-0.710938
	c-0.021484-0.488281-0.042969-0.975586-0.064453-1.462891c0.120117-0.366211,0.239258-0.732422,0.359375-1.097656
	c0.183594,0.681641,0.212891,1.463867,0.579102,2.027344C58.827148,43.46875,57.226563,46.961914,54.132813,47.325195z"/>
<path style="fill-rule:evenodd;clip-rule:evenodd;fill:#BF061A;" d="M134.242188,22.39502
	c-0.109375,0.827148-0.217773,1.654785-0.328125,2.482422c-0.895508-0.864258-1.791016-1.728516-2.6875-2.592285
	c-0.472656-0.455566-0.945313-0.911133-1.417969-1.366699c0.010742-0.637695,0.09668-1.236328,0.789063-1.519043
	c0.873047,0.758789,1.746094,1.51709,2.618164,2.275391C133.557617,21.914551,133.900391,22.154785,134.242188,22.39502z"/>
<path style="fill-rule:evenodd;clip-rule:evenodd;fill:#C47B63;" d="M47.90332,26.414063
	c-0.228516,0.494141-0.458008,0.988281-0.686523,1.482422c-0.155273-0.435547-0.196289-0.976563-0.485352-1.287109
	c-0.912598-0.978516-1.415527-1.981934-0.652832-3.260742c0.682129-1.14502,1.941895-1.503418,3.644043-1.0625
	c-0.270996,0.155273-0.54248,0.311035-0.813965,0.466797C47.802734,23.405762,47.36084,25.013672,47.90332,26.414063z"/>
<path style="fill-rule:evenodd;clip-rule:evenodd;fill:#C57D63;" d="M8.695313,68.498047
	c0.357422,0.248047,0.714355,0.496094,1.071289,0.744141c-0.414063,0.205078-0.808594,0.474609-1.245117,0.604492
	c-2.208496,0.658203-3.906738,2.016602-5.327637,3.776367c-0.004395-0.726563-0.008789-1.453125-0.013672-2.178711
	C4.928711,70.294922,6.496582,68.805664,8.695313,68.498047z"/>
<path style="fill-rule:evenodd;clip-rule:evenodd;fill:#AD76C3;" d="M124.702148,24.599609
	c-0.223633-0.270508-0.448242-0.541016-0.672852-0.811523c0.503906-0.304688,1.022461-0.589355,1.509766-0.918457
	c1.185547-0.799805,2.397461-1.58252,2.857422-3.062988c0.360352,0.35791,0.72168,0.71582,1.083008,1.07373
	C128.207031,22.53125,126.866211,24.093262,124.702148,24.599609z"/>
<path style="fill-rule:evenodd;clip-rule:evenodd;fill:#C57D64;" d="M48.908691,22.75293
	c0.271484-0.155762,0.542969-0.311523,0.813965-0.466797c1.181641,0.419434,1.807617,1.325684,1.704102,2.506348
	c-0.119141,1.366699-1.100586,2.094238-2.402344,2.393066c-0.13623-0.143555-0.272461-0.288086-0.408691-0.431641
	C49.961426,24.786621,50,24.259766,48.908691,22.75293z"/>
<path style="fill-rule:evenodd;clip-rule:evenodd;fill:#631689;" d="M2.085938,58.628906
	c0.240723-0.62793-0.71875-1.265625,0.016113-1.889648c1.970215,0.682617,2.47168,0.982422,3.853516,2.306641
	c-0.881348,1.243164-0.867676,1.22168-2.097168,0.458008C3.30127,59.157227,2.678711,58.916992,2.085938,58.628906z"/>
<path style="fill-rule:evenodd;clip-rule:evenodd;fill:#AE79C4;" d="M98.379883,68.503906
	c0.141602-0.123047,0.283203-0.246094,0.424805-0.369141c1.980469,1.770508,1.844727,3.332031-0.445313,5.114258
	c-0.004883-0.484375-0.010742-0.969727-0.016602-1.454102C98.355469,70.698242,98.367188,69.601563,98.379883,68.503906z"/>
<path style="fill-rule:evenodd;clip-rule:evenodd;fill:#621588;" d="M111.19043,33.371094
	c0.02832-0.095703,0.02832-0.191406-0.000977-0.285156c0.386719-0.277344,0.792969-0.529297,1.155273-0.833984
	c0.990234-0.829102,0.983398-0.837891,2.236328,0.395508c-1.142578,0.879883-2.258789,1.741211-3.375,2.600586
	C111.200195,34.62207,111.195313,33.996094,111.19043,33.371094z"/>
<path style="fill-rule:evenodd;clip-rule:evenodd;fill:#671B0D;" d="M56.548828,38.828125
	c-0.120117,0.365234-0.239258,0.731445-0.359375,1.097656c-0.444336-0.238281-0.887695-0.475586-1.333008-0.712891
	c-0.02832-0.126953-0.057617-0.253906-0.086914-0.380859c0.083008-1.443359-0.117188-1.927734,1.901367-1.966797
	C56.629883,37.524414,56.588867,38.175781,56.548828,38.828125z"/>
<path style="fill-rule:evenodd;clip-rule:evenodd;fill:#721D98;" d="M98.342773,71.794922
	c0.005859,0.484375,0.011719,0.969727,0.016602,1.454102c-0.000977,1.047852-0.799805,1.183594-1.560547,1.314453
	c-0.081055,0.014648-0.224609-0.331055-0.339844-0.510742c0.018555-0.505859,0.036133-1.012695,0.053711-1.519531
	c0.124023-0.498047,0.248047-0.996094,0.371094-1.494141C96.919922,71.470703,96.955078,71.90332,97,72.441406
	C97.526367,72.188477,97.93457,71.992188,98.342773,71.794922z"/>
<path style="fill-rule:evenodd;clip-rule:evenodd;fill:#8A2304;" d="M39.081055,55.380859
	c0.480469,0.445313,0.960449,0.892578,1.440918,1.337891c-0.366699,0.143555-0.733398,0.285156-1.100098,0.427734
	c-0.244629-0.007813-0.48877-0.015625-0.73291-0.023438c-0.299316-1.273438-1.350586-1.010742-2.23291-1.09375
	c0.022461-0.107422,0.045898-0.214844,0.069336-0.323242c0.733398-0.137695,1.466309-0.276367,2.199219-0.415039
	C38.84375,55.320313,38.962402,55.350586,39.081055,55.380859z"/>
<path style="fill-rule:evenodd;clip-rule:evenodd;fill:#721C98;" d="M111.19043,33.371094
	c0.004883,0.625,0.009766,1.250977,0.015625,1.876953c0.00293,0.097656-0.023438,0.1875-0.079102,0.267578
	c-0.478516,0.229492-0.957031,0.458984-1.436523,0.688477c-0.112305-0.583984-0.224609-1.167969-0.336914-1.75293
	c0.254883-0.230469,0.509766-0.462891,0.764648-0.694336C110.475586,33.628906,110.833008,33.5,111.19043,33.371094z"/>
<path style="fill-rule:evenodd;clip-rule:evenodd;fill:#79289E;" d="M88.098633,47.583984
	c-0.371094,1.630859-0.742188,3.261719-1.113281,4.892578C86.334961,50.613281,86.823242,49.008789,88.098633,47.583984z"/>
<path style="fill-rule:evenodd;clip-rule:evenodd;fill:#9A196A;" d="M129.479492,20.880371
	c-0.361328-0.35791-0.722656-0.71582-1.083008-1.07373c-0.005859-0.116211-0.012695-0.231934-0.021484-0.348145
	c0.740234-0.254883,0.780273-0.865234,0.763672-1.504395c0.113281,0.01416,0.226563,0.030273,0.338867,0.04834
	c0.34375,0.363281,0.686523,0.726074,1.030273,1.089355c0.051758,0.096191,0.082031,0.19873,0.089844,0.307617
	c-0.692383,0.282715-0.77832,0.881348-0.789063,1.519043C129.697266,20.918945,129.586914,20.90625,129.479492,20.880371z"/>
<path style="fill-rule:evenodd;clip-rule:evenodd;fill:#8C253A;" d="M21.824707,83.182617
	c0.373047,0.231445,0.746582,0.463867,1.119629,0.694336c0.036621,0.101563,0.060547,0.205078,0.072266,0.310547
	c-0.394531,0.384766-0.789551,0.767578-1.18457,1.150391c-0.472656-0.126953-0.946289-0.253906-1.419434-0.380859
	c-0.013184-0.111328-0.025879-0.224609-0.038574-0.337891c0.919922-0.052734,0.959961-0.78125,1.100098-1.433594l0.174805-0.011719
	L21.824707,83.182617z"/>
<path style="fill-rule:evenodd;clip-rule:evenodd;fill:#AD75C3;" d="M130.507813,19.091797
	c-0.34375-0.363281-0.686523-0.726074-1.030273-1.089355c0.125977-0.76709,0.337891-1.531738,0.363281-2.302734
	c0.125-3.736816-2.553711-7.236816-5.796875-8.666504c-2.489258-1.09668-5.048828-1.515625-7.724609-0.773926
	c-0.118164-0.000488-0.236328-0.003418-0.355469-0.008301c-0.501953-0.239746-1.004883-0.479492-1.507813-0.719727
	c-0.010742-0.097656-0.018555-0.195801-0.022461-0.293945c2.042969-0.151855,4.103516-0.543945,6.12793-0.407715
	c5.05957,0.34082,9.015625,3.751953,10.175781,7.994629C131.306641,14.90625,131.098633,17.020996,130.507813,19.091797z"/>
<path style="fill-rule:evenodd;clip-rule:evenodd;fill:#991A6F;" d="M114.456055,5.53125
	c0.50293,0.240234,1.005859,0.47998,1.507813,0.719727c-0.626953,0.162109-1.394531,0.129883-1.47168,1.058105
	c-0.25-0.101074-0.500977-0.20166-0.751953-0.302734c-0.358398-0.248535-0.71582-0.497559-1.073242-0.746582
	C113.262695,6.01709,113.859375,5.773926,114.456055,5.53125z"/>
<path style="fill-rule:evenodd;clip-rule:evenodd;fill:#986AB0;" d="M113.740234,7.006348
	c0.250977,0.101074,0.501953,0.20166,0.751953,0.302734c2.557617,1.51709,4.90625,3.299316,7.015625,5.402832
	c2.271484,2.266602,4.576172,4.499023,6.867188,6.746582c0.008789,0.116211,0.015625,0.231934,0.021484,0.348145
	c-0.459961,1.480469-1.671875,2.263184-2.857422,3.062988c-0.487305,0.329102-1.005859,0.61377-1.509766,0.918457
	c-0.31543-0.265625-0.621094-0.54541-0.948242-0.795898c-1.057617-0.809082-1.060547-0.805176-2.274414,0.289063
	c0.459961,0.429688,0.916016,0.855469,1.371094,1.28125c-2.349609-0.025391-4.683594,0.129883-7-0.661133
	c-3.253906-1.111816-5.209961-3.400391-6.415039-6.452637c-0.232422-0.588379-0.112305-1.315918-0.154297-1.979004
	c1.883789,1.072754,3.767578,2.144043,5.650391,3.218262c0.260742,0.148926,0.519531,0.441406,0.772461,0.434082
	c0.347656-0.009766,0.770508-0.164551,1.001953-0.408691c0.132813-0.140625,0.05957-0.758301-0.104492-0.857422
	c-2.518555-1.525391-4.816406-3.444336-7.668945-4.381348c0.949219-1.665527,1.584961-3.541504,3.208984-4.752441
	C112.229492,8.154785,112.982422,7.578613,113.740234,7.006348z"/>
<path style="fill-rule:evenodd;clip-rule:evenodd;fill:#95017C;" d="M15.965332,89.306641
	c2.602539,2.115234,5.313477,4.057617,8.396973,5.436523c4.469727,1.999023,9.092285,2.006836,13.771973,1.061523
	c1.658691-0.335938,3.276855-0.876953,4.913574-1.322266c1.056641,0.006836,1.929688,0.425781,2.649414,1.185547
	c-1.93457,0.583984-3.867188,1.173828-5.804199,1.749023c-0.87793,0.260742-1.765137,0.493164-2.647461,0.737305
	c-2.188965,0.111328-4.378418,0.222656-6.566895,0.333984c-0.496094-0.146484-0.983887-0.339844-1.489258-0.432617
	c-5.210449-0.96582-9.622559-3.530273-13.681641-6.803711c-0.802246-0.648438-1.58252-1.322266-2.373047-1.983398
	c0.00293-0.088867,0.004395-0.176758,0.003906-0.264648c0.721191-0.013672,1.441406-0.027344,2.161621-0.040039
	C15.521973,89.078125,15.743652,89.192383,15.965332,89.306641z"/>
<path style="fill-rule:evenodd;clip-rule:evenodd;fill:#C67E65;" d="M15.965332,89.306641
	c-0.22168-0.114258-0.443359-0.228516-0.665039-0.342773c-0.257324-0.351563-0.514648-0.702148-0.771973-1.053711
	c2.123047-0.662109,4.314453-1.189453,5.884277-2.953125c0.473145,0.126953,0.946777,0.253906,1.419434,0.380859
	c0.020996,0.095703,0.029297,0.191406,0.025391,0.288086c-1.661133,1.266602-3.300781,2.563477-5.404785,3.063477
	C16.252441,88.736328,16.125977,89.09375,15.965332,89.306641z"/>
<path style="fill-rule:evenodd;clip-rule:evenodd;fill:#C57D63;" d="M13.138672,89.003906
	c0.000488,0.087891-0.000977,0.175781-0.003906,0.264648c-2.769531-0.077148-5.391602-0.645508-7.740234-2.21582
	c-0.433105-0.289063-0.973145-0.417969-1.464355-0.62207C3.932617,85.703125,3.93457,84.976563,3.936523,84.25
	c0.607422,0.488281,1.220703,0.97168,1.822266,1.46875c1.691895,1.397461,3.773438,1.755859,5.82666,2.194336
	c0.109863,0.011719,0.220703,0.020508,0.331543,0.024414C12.324219,88.292969,12.731445,88.648438,13.138672,89.003906z"/>
<path style="fill-rule:evenodd;clip-rule:evenodd;fill:#800D01;" d="M48.908691,22.75293
	C50,24.259766,49.961426,24.786621,48.615723,26.753906c-0.237305-0.113281-0.475098-0.226563-0.712402-0.339844
	C47.36084,25.013672,47.802734,23.405762,48.908691,22.75293z"/>
<path style="fill-rule:evenodd;clip-rule:evenodd;fill:#601086;" d="M98.342773,71.794922
	C97.93457,71.992188,97.526367,72.188477,97,72.441406c-0.044922-0.538086-0.080078-0.970703-0.116211-1.402344
	c0.016602-0.71875,0.03418-1.438477,0.050781-2.158203c0.248047-0.246094,0.495117-0.492188,0.742188-0.738281
	c0.234375,0.121094,0.46875,0.241211,0.703125,0.361328C98.367188,69.601563,98.355469,70.698242,98.342773,71.794922z"/>
<path style="fill-rule:evenodd;clip-rule:evenodd;fill:#B86661;" d="M38.688965,57.123047
	c0.244141,0.007813,0.488281,0.015625,0.73291,0.023438c1.651367,2.181641,2.165039,4.492188,0.873535,7.052734
	c-0.970703,1.923828-2.730957,2.824219-4.645508,3.129883c-2.732422,0.436523-5.34668-0.092773-7.258789-2.370117
	c-2.514648-2.994141-1.47998-6.96582,1.494141-8.712891c2.133789-1.25293,4.357422-1.216797,6.640137-0.540039
	c-0.023438,0.108398-0.046875,0.21582-0.069336,0.323242c-3.202637,0.563477-5.875,2.027344-7.919434,4.566406
	c0.554199,0.852539,1.021973,1.168945,1.884277,0.345703c1.45459-1.388672,3.202148-2.363281,5.135742-2.957031
	C36.591309,57.667969,37.644531,57.408203,38.688965,57.123047z"/>
<path style="fill-rule:evenodd;clip-rule:evenodd;fill:#986AB0;" d="M110.118164,33.756836
	c-0.254883,0.231445-0.509766,0.463867-0.764648,0.694336c-1.953125,0.613281-3.885742,1.304688-5.865234,1.817383
	c-2.625,0.680664-5.302734,1.168945-7.688477,2.557617c-0.000977-0.304688,0.078125-0.636719-0.016602-0.90625
	c-1.009766-2.861328,0.236328-5.167969,2.116211-7.020508c2.360352-2.327148,5.364258-3.083008,8.489258-1.700195
	c1.634766,0.724609,3.055664,1.96875,3.355469,3.994141C109.773438,33.395508,109.989258,33.570313,110.118164,33.756836z"/>
<path style="fill-rule:evenodd;clip-rule:evenodd;fill:#5F1086;" d="M95.799805,38.826172
	c2.385742-1.388672,5.063477-1.876953,7.688477-2.557617c1.979492-0.512695,3.912109-1.204102,5.865234-1.817383
	c0.112305,0.584961,0.224609,1.168945,0.336914,1.75293l0.024414,0.073242c-1.200195,0.380859-2.393555,0.791016-3.603516,1.139648
	c-2.943359,0.850586-5.894531,1.675781-8.845703,2.501953c-0.230469,0.06543-0.480469,0.060547-0.72168,0.087891
	c-0.110352-0.038086-0.224609-0.053711-0.341797-0.046875c-0.143555-0.147461-0.287109-0.294922-0.429688-0.442383
	C95.78125,39.287109,95.791016,39.056641,95.799805,38.826172z"/>
<path style="fill-rule:evenodd;clip-rule:evenodd;fill:#B86560;" d="M52.993164,46.541992
	c-0.814453-0.503906-1.642578-0.985352-2.439453-1.516602c-1.106934-0.736328-1.018066-1.875-0.794922-2.942383
	c0.1875-0.899414,1.619141-1.75293,2.679688-1.770508c0.666992-0.011719,1.333984-0.000977,2.000977,0
	c0.022461,0.125,0.043945,0.25,0.066406,0.375c-0.349609,1.384766-0.722656,2.763672-1.038086,4.15625
	c-0.123047,0.543945-0.116211,1.118164-0.167969,1.677734C53.198242,46.532227,53.095703,46.539063,52.993164,46.541992z"/>
<path style="fill-rule:evenodd;clip-rule:evenodd;fill:#800E03;" d="M53.299805,46.521484
	c0.051758-0.55957,0.044922-1.133789,0.167969-1.677734c0.31543-1.392578,0.688477-2.771484,1.038086-4.15625
	c0.481445,0.246094,0.963867,0.493164,1.445313,0.740234c-0.25,1.335938-0.500977,2.672852-0.750977,4.009766
	c-0.365234,0.370117-0.729492,0.741211-1.094727,1.112305C53.836914,46.541016,53.568359,46.53125,53.299805,46.521484z"/>
<path style="fill-rule:evenodd;clip-rule:evenodd;fill:#B86661;" d="M20.412598,84.957031
	c-1.569824,1.763672-3.76123,2.291016-5.884277,2.953125c-0.23877-0.126953-0.477539-0.255859-0.716797-0.382813
	c-1.867676-1.794922-3.691406-3.638672-5.617676-5.369141c-1.472168-1.322266-3.074219-2.5-4.618652-3.742188
	c-0.127441-1.597656-0.253906-3.195313-0.381348-4.792969c1.420898-1.759766,3.119141-3.118164,5.327637-3.776367
	c0.436523-0.129883,0.831055-0.399414,1.245117-0.604492c0.23584-0.005859,0.472168-0.010742,0.708008-0.015625
	c2.096191,0.057617,4.186523-0.125977,6.227539,0.736328c3.546875,1.5,5.79541,4.058594,6.557129,7.791016
	c0.398926,1.957031-0.354492,3.776367-1.43457,5.428711l-0.175781-0.008789l-0.174805,0.011719
	c-3.237793-2.234375-5.777832-4.970703-6.590332-8.992188c-0.183594-0.910156-0.989258-0.53418-1.510742-0.496094
	c-0.242188,0.017578-0.591309,0.507813-0.633789,0.818359c-0.053223,0.387695,0.126953,0.822266,0.263672,1.216797
	c1.344238,3.883789,3.893555,6.771484,7.371094,8.886719C20.386719,84.732422,20.399414,84.845703,20.412598,84.957031z"/>
<path style="fill-rule:evenodd;clip-rule:evenodd;fill:#986AB0;" d="M88.514648,53.496094
	c-0.016602-0.371094-0.032227-0.742188-0.047852-1.113281c0.381836-1.458984,0.763672-2.918945,1.145508-4.378906
	c0.233398-0.367188,0.46582-0.734375,0.699219-1.102539c0.246094,0.064453,0.491211,0.174805,0.739258,0.18457
	c0.878906,0.037109,1.810547-0.140625,2.624023,0.099609c0.994141,0.292969,1.727539,0.979492,1.791992,2.226563
	c0.088867,1.692383-0.211914,3.173828-1.797852,4.037109c-0.985352,0.537109-2.029297,0.984375-3.236328,0.439453
	C89.852539,53.626953,89.157227,53.619141,88.514648,53.496094z"/>
<path style="fill-rule:evenodd;clip-rule:evenodd;fill:#9869B0;" d="M96.543945,40.006836
	c0.241211-0.027344,0.491211-0.022461,0.72168-0.087891c2.951172-0.826172,5.902344-1.651367,8.845703-2.501953
	c1.209961-0.348633,2.40332-0.758789,3.603516-1.139648c-0.914063,2.179688-2.148438,4.048828-4.46582,5.005859
	c-2.617188,1.082031-5.102539,1.132813-7.470703-0.623047C97.408203,40.385742,96.957031,40.22168,96.543945,40.006836z"/>
<path style="fill-rule:evenodd;clip-rule:evenodd;fill:#996AB1;" d="M79.894531,67.770508
	c1.128906,0.003906,1.618164,0.431641,1.635742,1.432617c0.020508,1.130859-0.963867,2.212891-1.959961,2.15332
	c-0.998047-0.05957-1.670898-0.651367-1.701172-1.493164C77.830078,68.769531,78.800781,67.767578,79.894531,67.770508z"/>
<path style="fill-rule:evenodd;clip-rule:evenodd;fill:#8A2303;" d="M55.951172,41.427734
	c-0.481445-0.24707-0.963867-0.494141-1.445313-0.740234c-0.022461-0.125-0.043945-0.25-0.066406-0.375
	c0.138672-0.367188,0.27832-0.734375,0.416992-1.099609c0.445313,0.237305,0.888672,0.474609,1.333008,0.712891
	c0.021484,0.487305,0.042969,0.974609,0.064453,1.462891C56.154297,41.410156,56.053711,41.423828,55.951172,41.427734z"/>
<path style="fill-rule:evenodd;clip-rule:evenodd;fill:#B96661;" d="M62.925781,30.425781
	c-0.769531,0.030273-1.479492-0.03125-1.525391-1.047852c-0.030273-0.696289,0.633789-1.475586,1.265625-1.49707
	c0.695313-0.023438,1.603516,0.726563,1.648438,1.359375C64.371094,30.054688,63.958984,30.40625,62.925781,30.425781z"/>
<path style="fill-rule:evenodd;clip-rule:evenodd;fill:#B96661;" d="M77.458008,17.984375
	c0.827148-0.030762,1.466797,0.478027,1.506836,1.19873c0.051758,0.962402-0.307617,1.333008-1.260742,1.362793
	c-0.855469,0.026367-1.407227-0.386719-1.62207-1.168457C75.917969,18.777832,76.726563,18.01123,77.458008,17.984375z"/>
<path style="fill-rule:evenodd;clip-rule:evenodd;fill:#B96661;" d="M73.816406,27.602539
	c0.052734,0.553711-0.799805,1.467773-1.472656,1.269531c-0.651367-0.191406-1.467773-0.783203-1.641602-1.368164
	c-0.174805-0.589844,0.583008-1.076172,1.349609-1.108398C72.891602,26.359375,73.751953,26.929688,73.816406,27.602539z"/>
<path style="fill-rule:evenodd;clip-rule:evenodd;fill:#996AB1;" d="M67.999023,75.384766
	c-0.49707-0.617188-0.973633-0.957031-1.067383-1.380859c-0.164063-0.744141,0.663086-1.488281,1.455078-1.464844
	c0.754883,0.019531,1.230469,0.498047,1.005859,1.148438C69.195313,74.262695,68.588867,74.697266,67.999023,75.384766z"/>
<path style="fill-rule:evenodd;clip-rule:evenodd;fill:#9A6AB1;" d="M59.568359,69.90918
	c-0.103516,1.006836-0.989258,1.556641-1.814453,1.532227c-0.736328-0.021484-0.936523-0.544922-1.023438-1.060547
	c-0.103516-0.615234,0.927734-1.298828,1.758789-1.117188C58.921875,69.357422,59.292969,69.736328,59.568359,69.90918z"/>
<path style="fill-rule:evenodd;clip-rule:evenodd;fill:#601086;" d="M89.612305,48.003906
	c-0.381836,1.459961-0.763672,2.919922-1.145508,4.378906C87.498047,50.870117,87.888672,49.378906,89.612305,48.003906z"/>
<path style="fill-rule:evenodd;clip-rule:evenodd;fill:#940632;" d="M3.575195,78.416016
	c1.544434,1.242188,3.146484,2.419922,4.618652,3.742188c1.92627,1.730469,3.75,3.574219,5.617676,5.369141
	c-0.631348,0.136719-1.263184,0.273438-1.894531,0.410156c-0.11084-0.003906-0.22168-0.012695-0.331543-0.024414
	c-0.137695-0.196289-0.244141-0.424805-0.416992-0.581055c-2.510742-2.267578-5.03125-4.523438-7.549316-6.783203
	C3.604492,79.837891,3.589844,79.126953,3.575195,78.416016z"/>
<path style="fill-rule:evenodd;clip-rule:evenodd;fill:#B86661;" d="M3.619141,80.548828
	c2.518066,2.259766,5.038574,4.515625,7.549316,6.783203c0.172852,0.15625,0.279297,0.384766,0.416992,0.581055
	c-2.053223-0.438477-4.134766-0.796875-5.82666-2.194336C5.157227,85.22168,4.543945,84.738281,3.936523,84.25
	C3.831055,83.015625,3.725098,81.783203,3.619141,80.548828z"/>
<path style="fill-rule:evenodd;clip-rule:evenodd;fill:#9768B0;" d="M96.93457,68.880859
	c-0.016602,0.719727-0.03418,1.439453-0.050781,2.158203c-0.123047,0.498047-0.24707,0.996094-0.371094,1.494141
	c-0.72168-0.386719-1.553711-0.623047-1.455078-1.756836C95.163086,69.570313,96.081055,69.283203,96.93457,68.880859z"/>
<path style="fill-rule:evenodd;clip-rule:evenodd;fill:#B7635D;" d="M55.951172,41.427734
	c0.102539-0.003906,0.203125-0.017578,0.302734-0.039063c0.015625,0.238281-0.03418,0.507813,0.05957,0.710938
	c0.673828,1.470703,0.12793,2.515625-1.113281,3.337891C55.450195,44.100586,55.701172,42.763672,55.951172,41.427734z"/>
<path style="fill-rule:evenodd;clip-rule:evenodd;fill:#800D02;" d="M38.688965,57.123047
	c-1.044434,0.285156-2.097656,0.544922-3.132324,0.861328c-1.933594,0.59375-3.681152,1.568359-5.135742,2.957031
	c-0.862305,0.823242-1.330078,0.506836-1.884277-0.345703c2.044434-2.539063,4.716797-4.00293,7.919434-4.566406
	C37.338379,56.112305,38.389648,55.849609,38.688965,57.123047z"/>
<path style="fill-rule:evenodd;clip-rule:evenodd;fill:#9869B0;" d="M116.319336,6.259277
	c2.675781-0.741699,5.235352-0.322754,7.724609,0.773926c3.243164,1.429688,5.921875,4.929688,5.796875,8.666504
	c-0.025391,0.770996-0.237305,1.535645-0.363281,2.302734c-0.112305-0.018066-0.225586-0.03418-0.338867-0.04834
	c-0.183594-0.236328-0.345703-0.495117-0.555664-0.706055C124.706055,13.350098,120.988281,9.273926,116.319336,6.259277z"/>
<path style="fill-rule:evenodd;clip-rule:evenodd;fill:#850A58;" d="M116.319336,6.259277
	c4.668945,3.014648,8.386719,7.09082,12.263672,10.98877c0.209961,0.210938,0.37207,0.469727,0.555664,0.706055
	c0.016602,0.63916-0.023438,1.249512-0.763672,1.504395c-2.291016-2.247559-4.595703-4.47998-6.867188-6.746582
	c-2.109375-2.103516-4.458008-3.885742-7.015625-5.402832c0.077148-0.928223,0.844727-0.895996,1.47168-1.058105
	C116.083008,6.255859,116.201172,6.258789,116.319336,6.259277z"/>
<path style="fill-rule:evenodd;clip-rule:evenodd;fill:#7F0C36;" d="M20.374023,84.619141
	c-3.477539-2.115234-6.026855-5.00293-7.371094-8.886719c-0.136719-0.394531-0.316895-0.829102-0.263672-1.216797
	c0.04248-0.310547,0.391602-0.800781,0.633789-0.818359c0.521484-0.038086,1.327148-0.414063,1.510742,0.496094
	c0.8125,4.021484,3.352539,6.757813,6.590332,8.992188C21.333984,83.837891,21.293945,84.566406,20.374023,84.619141z"/>
<path style="fill-rule:evenodd;clip-rule:evenodd;fill:#A11D33;" d="M11.916992,87.9375
	c0.631348-0.136719,1.263184-0.273438,1.894531-0.410156c0.239258,0.126953,0.478027,0.255859,0.716797,0.382813
	c0.257324,0.351563,0.514648,0.702148,0.771973,1.053711c-0.720215,0.012695-1.44043,0.026367-2.161621,0.040039
	C12.731445,88.648438,12.324219,88.292969,11.916992,87.9375z"/>
</svg>
