<?xml version="1.0" encoding="UTF-8" standalone="no"?>
<!-- Created with Inkscape (http://www.inkscape.org/) -->

<svg
   xmlns:dc="http://purl.org/dc/elements/1.1/"
   xmlns:cc="http://creativecommons.org/ns#"
   xmlns:rdf="http://www.w3.org/1999/02/22-rdf-syntax-ns#"
   xmlns:svg="http://www.w3.org/2000/svg"
   xmlns="http://www.w3.org/2000/svg"
   xmlns:sodipodi="http://sodipodi.sourceforge.net/DTD/sodipodi-0.dtd"
   xmlns:inkscape="http://www.inkscape.org/namespaces/inkscape"
   width="24.264801"
   height="21.092493"
   viewBox="0 20 110.9248 84.369973"
   version="1.1"
   id="svg8"
   inkscape:version="0.92.3 (2405546, 2018-03-11)"
   sodipodi:docname="modeldb.svg">
  <defs
     id="defs2" />
  <sodipodi:namedview
     id="base"
     pagecolor="#ffffff"
     bordercolor="#666666"
     borderopacity="1.0"
     inkscape:pageopacity="0.0"
     inkscape:pageshadow="2"
     inkscape:zoom="14.481547"
     inkscape:cx="7.7802351"
     inkscape:cy="2.2688219"
     inkscape:document-units="mm"
     inkscape:current-layer="g64"
     showgrid="false"
     fit-margin-top="0"
     fit-margin-left="0"
     fit-margin-right="0"
     fit-margin-bottom="0"
     inkscape:window-width="1920"
     inkscape:window-height="952"
     inkscape:window-x="0"
     inkscape:window-y="0"
     inkscape:window-maximized="1"
     showguides="true"
     inkscape:guide-bbox="true"
     units="px" />
  <metadata
     id="metadata5">
    <rdf:RDF>
      <cc:Work
         rdf:about="">
        <dc:format>image/svg+xml</dc:format>
        <dc:type
           rdf:resource="http://purl.org/dc/dcmitype/StillImage" />
        <dc:title></dc:title>
      </cc:Work>
    </rdf:RDF>
  </metadata>
  <g
     inkscape:label="Layer 1"
     inkscape:groupmode="layer"
     id="layer1"
     transform="translate(173.13822,-1.6762085)">
    <g
       id="g64">
      <path
         inkscape:connector-curvature="0"
         id="path4522"
         d="m -141.11831,105.90229 c 7.4467,0.14027 14.90113,0.43832 22.33163,0.84272 5.39377,1.18209 10.9395,1.26635 16.42245,1.69604"
         style="fill:none;stroke:#000000;stroke-width:1.70000005;stroke-linecap:butt;stroke-linejoin:miter;stroke-miterlimit:4;stroke-dasharray:none;stroke-opacity:1" />
      <path
         inkscape:connector-curvature="0"
         id="path4535"
         d="m -105.30419,108.44135 c 0.17818,0.13363 0.34355,0.28631 0.53454,0.4009 0.35636,0 -0.0446,-0.0445 0.13363,0.13364 0.0315,0.0315 0.10214,-0.0315 0.13363,0 0.0315,0.0315 -0.0315,0.10213 0,0.13363 0.0315,0.0315 0.10214,-0.0315 0.13364,0 0.063,0.063 -0.063,0.20427 0,0.26727 0.0315,0.0315 0.10214,-0.0315 0.13364,0 0.0315,0.0315 -0.0199,0.0938 0,0.13363 0.0282,0.0564 0.10546,0.0773 0.13363,0.13364 0.0534,0.10691 -0.0534,0.294 0,0.4009 0.0282,0.0563 0.10546,0.0773 0.13364,0.13364 0.0265,0.053 -0.0273,0.37358 0,0.4009 0.0315,0.0315 0.10213,-0.0315 0.13363,0 0.0315,0.0315 -0.0315,0.10214 0,0.13364 0.0315,0.0315 0.10214,-0.0315 0.13363,0 0.17818,0.17818 -0.22272,0.13363 0.13364,0.13363"
         style="fill:none;stroke:#000000;stroke-width:1.70000005;stroke-linecap:butt;stroke-linejoin:miter;stroke-miterlimit:4;stroke-dasharray:none;stroke-opacity:1" />
      <path
         inkscape:connector-curvature="0"
         id="path4550"
         d="m -140.60714,72.104164 c 1.02339,0.193227 1.13617,-0.862277 1.7518,-1.40036 0.37132,-0.926349 0.93131,-1.762985 1.76352,-2.353046 0.56579,-0.418234 1.75886,-1.089232 1.21798,-1.829626 -0.7476,-0.11159 -1.73129,0.281056 -2.3046,-0.233498 -0.65439,-0.318066 -1.15308,-0.97377 -1.87739,-1.098058 -0.76243,0.07191 -1.52914,0.01838 -2.24927,-0.262189 -0.77835,-0.162635 -1.60394,-0.133989 -2.38988,-0.03734 -0.79203,0.121746 -0.81066,1.155603 -0.66839,1.774964 0.25433,1.110511 1.39039,1.415386 2.09052,2.156335 0.30976,0.853578 0.64913,1.693357 1.31647,2.358818 0.3864,0.399411 0.6479,1.144668 1.34924,0.923997 z"
         style="fill:#000000;stroke:#000000;stroke-width:0.26458332px;stroke-linecap:butt;stroke-linejoin:miter;stroke-opacity:1" />
      <path
         inkscape:connector-curvature="0"
         id="path4557"
         d="m -141.65285,31.200455 c 0.27372,-0.42419 0.77453,0.727819 1.03521,0.04811 0.23871,-0.543699 0.78646,-0.74016 1.33193,-0.678743 0.3064,-0.04964 0.15692,-0.177138 0.16005,-0.133534 0.80051,-0.123547 1.56553,-0.418526 2.37065,-0.516021 0.729,-0.169831 1.24595,-0.756115 1.63617,-1.358204 0.3541,-0.454353 0.91806,-0.660068 1.30307,-1.068238 0.4079,-0.261662 0.88067,-0.367484 1.28907,-0.626051 0.47811,-0.227884 0.99776,-0.531523 1.14595,-1.079737 0.0521,-0.132119 0.14418,-0.308077 0.31785,-0.269383"
         style="fill:none;stroke:#000000;stroke-width:1;stroke-linecap:butt;stroke-linejoin:miter;stroke-miterlimit:4;stroke-dasharray:none;stroke-opacity:1" />
      <path
         inkscape:connector-curvature="0"
         id="path4562"
         d="m -141.74153,22.116828 c 0,0.245816 0,0.491632 0,0.737448 0.006,-0.165318 -0.002,0.05327 -0.005,0.161484 0.17289,0.09358 -0.003,0.438752 0.19429,0.423972 2.1e-4,0.645463 -1.6e-4,1.303107 0,1.95329 -0.0168,0.214954 0.0381,0.43981 -0.0218,0.64616 -0.20943,0.228123 0.083,0.610085 -0.16723,0.802333 -0.007,0.265367 0.004,0.531256 0,0.796909 -0.01,0.195418 0.0597,0.418427 -0.1003,0.55636 0.01,0.707858 0.005,1.416339 0.006,2.124505 -0.11291,0.321962 0.17912,0.635575 0.15472,0.896446 -0.21951,-0.09848 -0.15183,0.04993 0.028,-0.01528 0.0651,-0.161561 0.13962,-0.319631 0.19526,-0.484682 0.0196,-0.05818 0,-0.388284 0,-0.47247 0,-0.063 -0.0199,-0.129225 0,-0.188988 0.0223,-0.06682 0.0722,-0.122171 0.0945,-0.188988 0.01,-0.02988 -0.0141,-0.06632 0,-0.09449 0.0199,-0.03984 0.0746,-0.05465 0.0945,-0.09449 0.12598,-0.251953 -0.12598,0.06297 0,-0.188988 0.19663,-0.393262 -0.007,0.101017 0.18899,-0.09449 0.19551,-0.195512 -0.29877,0.0076 0.0945,-0.188988 0.0282,-0.01409 0.0663,0.01409 0.0945,0 0.0399,-0.01992 0.0547,-0.07457 0.0945,-0.09449 0.0282,-0.01409 0.0663,0.01409 0.0945,0 0.20893,-0.104466 0.0293,-0.05865 0.0945,-0.188989 0.0199,-0.03984 0.0746,-0.05465 0.0945,-0.09449 0.0141,-0.02817 -0.0223,-0.07222 0,-0.09449 0.0223,-0.02227 0.0663,0.01409 0.0945,0 0.0398,-0.01992 0.0547,-0.07457 0.0945,-0.09449 0.0282,-0.01409 0.0722,0.02227 0.0945,0 0.0446,-0.04455 -0.0445,-0.144443 0,-0.188988 0.0223,-0.02227 0.0722,0.02227 0.0945,0 0.0445,-0.04454 -0.0445,-0.144443 0,-0.188988 0.0223,-0.02227 0.0722,0.02227 0.0945,0 0.0223,-0.02227 0,-0.063 0,-0.09449 0,-0.0315 0,-0.063 0,-0.09449 0,-0.188988 0,-0.377976 0,-0.566964 0,-0.0315 0,-0.063 0,-0.09449 0,-0.0315 -0.0223,-0.07222 0,-0.09449 0.0223,-0.02227 0.0804,0.02817 0.0945,0 0.0945,-0.188988 -0.0472,-0.141741 0,-0.283482 0.0223,-0.06682 0.0722,-0.122171 0.0945,-0.188989 0.0222,-0.06644 -0.0259,-0.446568 0,-0.47247 0.0223,-0.02227 0.0722,0.02227 0.0945,0 0.0259,-0.02585 -0.0256,-0.326714 0,-0.377976 0.0199,-0.03984 0.0746,-0.05465 0.0945,-0.09449 0.0171,-0.03417 0,-0.406746 0,-0.47247 0,-0.0315 -0.0223,-0.07222 0,-0.09449 0.0223,-0.02227 0.0722,0.02227 0.0945,0 0.0223,-0.02227 0,-0.063 0,-0.09449 0,-0.0315 0,-0.063 0,-0.09449 0,-0.220487 0,-0.440973 0,-0.661459 0,-0.0315 -0.0223,-0.07222 0,-0.09449 0.0223,-0.02227 0.0722,0.02227 0.0945,0 0.0193,-0.01932 -0.0187,-0.246016 0,-0.283482 0.0199,-0.03984 0.0746,-0.05465 0.0945,-0.09449 0.0504,-0.10075 -0.0504,-0.08824 0,-0.188988 0.0199,-0.03984 0.0746,-0.05465 0.0945,-0.09449 0.0282,-0.05635 -0.0445,-0.144443 0,-0.188988 0.0223,-0.02227 0.0722,0.02227 0.0945,0 0.0293,-0.02926 -0.0293,-0.443211 0,-0.47247 0.0223,-0.02227 0.0722,0.02227 0.0945,0 0.003,-0.003 0,-0.260565 0,-0.283483 0,-0.409474 0,-0.818948 0,-1.228422 0,-0.09449 0,-0.188988 0,-0.283482 0,-0.0315 -0.0223,-0.07222 0,-0.09449 0.0223,-0.02227 0.0804,0.02817 0.0945,0 0.0422,-0.08452 0,-0.188989 0,-0.283483"
         style="fill:none;stroke:#000000;stroke-width:1;stroke-linecap:butt;stroke-linejoin:miter;stroke-miterlimit:4;stroke-dasharray:none;stroke-opacity:1" />
      <path
         inkscape:connector-curvature="0"
         id="path4565"
         d="m -135.78787,21.077438 c -0.3313,0.904483 -0.7054,1.792407 -1.07973,2.679692 -0.0524,1.071712 -0.89363,1.83611 -1.55484,2.588529 -0.57854,0.750166 -0.68585,1.756905 -1.30196,2.485364 -0.43669,0.681431 -0.25266,1.696014 -0.98835,2.191085 -0.19096,0.23134 -0.77548,0.211619 -0.85209,0.242321 0.42643,0.0076 0.58858,-0.618469 0.88382,-0.898646 0.32247,-0.44988 0.72361,-0.853954 1.25207,-1.049964 0.63635,-0.310012 1.32859,-0.546407 1.8616,-1.026048 0.4593,-0.258023 0.9982,-0.600161 0.99522,-1.193445 0.0819,-0.650077 0.6849,-0.984806 1.13462,-1.360511 0.44161,-0.489812 0.098,-1.267665 0.61905,-1.708744 0.35078,-0.493349 0.72449,-0.870209 1.18017,-1.287597 0.15111,-0.105408 0.2293,-0.409251 0.40181,-0.433595"
         style="fill:none;stroke:#000000;stroke-width:1;stroke-linecap:butt;stroke-linejoin:miter;stroke-miterlimit:4;stroke-dasharray:none;stroke-opacity:1" />
      <path
         inkscape:connector-curvature="0"
         id="path4580"
         d="m -141.56484,31.264428 c 0.60033,-0.258668 1.09649,-0.723237 1.73003,-0.91543 0.4774,-0.19482 0.94002,-0.422538 1.47397,-0.369888 0.56333,-0.08478 0.94013,-0.523439 1.32039,-0.905361 0.45203,-0.276417 1.19923,-0.378065 1.32619,-0.973241 -0.007,-0.613636 0.78429,-0.589149 1.00898,-1.050965 0.24312,-0.492333 0.766,-0.767516 0.93728,-1.293894 0.0852,-0.509157 0.49919,-0.635688 0.90745,-0.804964 0.17648,-0.372436 0.52168,-0.568385 0.82291,-0.849548 0.04,-0.04648 0.076,-0.09665 0.10541,-0.150509"
         style="fill:none;stroke:#000000;stroke-width:1;stroke-linecap:butt;stroke-linejoin:miter;stroke-miterlimit:4;stroke-dasharray:none;stroke-opacity:1" />
      <path
         inkscape:connector-curvature="0"
         id="path4585"
         d="m -89.579704,44.417588 c -2.48424,1.222921 -5.319042,1.190349 -7.989492,1.214193 -1.882499,1.606125 -3.689364,3.03125 -6.324244,2.990884 -2.61746,1.016454 -4.83982,2.76956 -7.45979,3.806093 -2.43324,1.244913 -4.99378,2.208049 -7.71385,2.556286 -2.40412,1.167185 -4.1941,3.451041 -7.05314,3.904986 -1.95499,1.539413 -4.20347,3.011443 -6.69899,3.627748 -1.77979,-0.107015 -3.91584,3.158296 -3.20304,3.653106 1.88869,-0.508925 4.38198,-1.46165 6.75443,-1.248237 2.87638,-0.555129 6.09147,0.435608 8.67543,-1.279592 2.53078,-0.529704 5.36412,0.135959 7.6739,-1.185579 2.47078,-0.210271 4.84975,-0.901097 7.31852,-1.219977 2.06211,0.153295 4.05876,-0.637337 5.876616,-1.54995 2.833102,-1.492123 6.059659,-1.975186 9.096846,-2.907198 2.197915,-1.055647 4.483329,-1.928856 6.691116,-3.00976 2.172972,-1.051097 4.654729,-1.308869 6.572684,-2.837977 1.705115,-0.636619 3.060871,-1.773658 4.224271,-3.018384"
         style="fill:none;stroke:#000000;stroke-width:1.70000005;stroke-linecap:butt;stroke-linejoin:miter;stroke-miterlimit:4;stroke-dasharray:none;stroke-opacity:1" />
      <path
         inkscape:connector-curvature="0"
         id="path4590"
         d="m -107.15625,51.031994 c 0.75595,0.0016 1.51191,-0.0023 2.26786,0 0.40687,0.258568 0.88574,0.182151 1.3038,0.30176 0.3267,0.173548 0.80938,0.03006 1.20011,0.07558 0.40753,0.06526 0.94891,-0.180565 1.1999,0.234381 0.34353,0.298064 0.74034,0.463757 1.18314,0.481049 0.405864,0.224687 0.874991,0.108406 1.325112,0.135215 0.575153,2.18e-4 1.150308,0.0025 1.72546,4.29e-4 0.33479,-0.143969 0.715921,-0.08418 0.934133,-0.275521 0.412718,-0.16754 0.896892,-0.126575 1.329067,-0.291162 0.484066,-0.0989 0.978136,-0.143349 1.45959,-0.263358 0.252863,-0.07657 0.516731,0.07838 0.718421,-0.114893"
         style="fill:none;stroke:#000000;stroke-width:1.70000005;stroke-linecap:butt;stroke-linejoin:miter;stroke-miterlimit:4;stroke-dasharray:none;stroke-opacity:1" />
      <path
         inkscape:connector-curvature="0"
         id="path4594"
         d="m -145.52083,65.489581 c 0.26479,-0.626273 0.17741,-1.297839 0.189,-1.984372 -0.43051,-0.407065 -0.24376,-1.319133 -0.2835,-1.984372 0.39712,-0.368585 0.32516,-1.264447 1.22847,-1.417394 0.91895,-0.314844 1.69959,-0.291458 2.36239,-0.755939 0.97279,-0.227596 1.84972,-0.48724 2.93527,-0.565145 0.84485,-0.122648 1.32778,-0.520024 2.17193,-0.940612 0.54853,-0.342953 1.09771,-0.704772 1.79098,-0.951069 0.62788,-0.316961 1.30264,-0.541123 1.98441,-0.944926 0.63036,-0.17529 1.1505,-0.500856 1.60643,-0.850447 0.53695,-0.218835 1.19038,-0.396127 1.70904,-0.792479 0.69033,-0.271323 0.96022,-0.614863 1.50385,-0.8139 0.19996,-0.455435 1.0842,-0.325583 1.51195,-0.755937 0.97262,-0.08801 1.26223,-0.773749 1.92593,-1.033599 0.35745,-0.282345 1.30986,-0.437747 1.6649,-0.66728 0.78492,-0.197775 1.0308,-0.384977 1.32296,-0.850446 0.39821,-0.352087 0.73992,-0.763808 0.94498,-1.039432 0.52244,-0.426608 0.9897,-0.858972 1.33621,-1.152067 0.57391,-0.199155 0.99769,-0.694247 1.4987,-0.832295 0.79125,-0.258169 1.07172,-0.614302 1.98439,-0.75594 0.73173,-0.363778 1.31771,-0.595855 2.07892,-0.850447 0.61004,-0.276592 0.96573,-0.431338 1.53109,-0.842214 0.42055,-0.137062 1.07386,-0.791755 1.68176,-1.047655 0.71647,-0.469159 1.16563,-1.110955 1.70094,-1.228405 0.69572,-0.311109 0.84078,-0.665866 1.70092,-1.133919 0.16163,-0.303774 0.83956,-0.226165 0.94494,-0.472466"
         style="fill:none;stroke:#000000;stroke-width:1.70000005;stroke-linecap:butt;stroke-linejoin:miter;stroke-miterlimit:4;stroke-dasharray:none;stroke-opacity:1" />
      <path
         inkscape:connector-curvature="0"
         id="path4597"
         d="m -172.73512,41.488095 c 0.80249,0.43227 1.41138,1.08821 1.70704,1.790965 0.17184,0.66652 0.7114,1.264776 1.03335,1.70531 0.26088,0.542195 0.48819,0.583303 0.85049,1.322907 0.39449,0.597666 0.61392,0.937788 0.85047,1.511903 0.33866,0.618019 0.79423,1.225765 1.22845,1.511902 0.262,0.392831 0.35638,1.108002 0.567,1.464651 0.22557,0.560097 0.63328,0.855381 1.22847,1.370159 0.84202,0.336859 1.05153,1.114964 1.23838,1.469965 0.18505,0.610194 0.95625,1.091331 1.21878,1.580742 0.2004,0.155887 0.43155,0.912292 0.86567,1.291346 0.46246,0.302109 0.39192,1.06197 1.11849,1.516564 0.54033,0.536173 1.01505,0.833255 1.88349,1.288121 0.64849,0.261518 1.25114,0.478985 1.28663,0.949419 0.92171,0.438905 1.22918,0.459691 1.8399,0.876369 0.90842,0.339316 1.01628,0.648599 1.69912,1.138307 0.63875,0.395608 1.80049,0.640482 2.45686,1.133921 1.00519,0.459137 1.90427,1.163444 3.05221,1.345487 1.44558,0.599456 2.90304,1.189737 4.31674,1.848172 0.22026,0.02581 0.44198,0.01694 0.66305,0.01914"
         style="fill:none;stroke:#000000;stroke-width:1.70000005;stroke-linecap:butt;stroke-linejoin:miter;stroke-miterlimit:4;stroke-dasharray:none;stroke-opacity:1" />
      <path
         inkscape:connector-curvature="0"
         id="path4602"
         d="m -105.59997,61.2375 c 2.69184,0.138874 5.38804,0.08416 8.082114,0.09435 1.754043,-0.610834 3.69132,-0.539491 5.522521,-0.751208 1.478065,-0.216608 2.961212,-0.453146 4.480164,-0.435777 1.510531,-0.05961 2.829111,-0.508431 4.188378,-1.186631 1.180555,-0.68479 2.546715,-0.531926 3.806684,-0.884805 1.12474,-0.62589 2.471979,-0.280345 3.555232,-0.9661 1.306331,-0.750241 2.336374,-1.166377 3.384599,-2.024364 1.520256,-0.200472 3.000516,-0.694035 4.467851,-0.946246 1.529389,-0.102928 2.990004,-0.639762 4.462984,-0.992054 0.188585,-0.575578 0.769878,-0.223535 1.283371,-0.31728"
         style="fill:none;stroke:#000000;stroke-width:1.70000005;stroke-linecap:butt;stroke-linejoin:miter;stroke-miterlimit:4;stroke-dasharray:none;stroke-opacity:1" />
      <path
         inkscape:connector-curvature="0"
         id="path4606"
         d="m -84.855655,54.717261 c -0.220019,1.478934 0.705059,0.138094 0.944941,0.377976 0.04454,0.04454 -0.04454,0.144444 0,0.188989 0.08909,0.08909 0.288888,-0.08909 0.377976,0 0.391025,0.391023 -0.597535,-0.01529 0.188989,0.377976 0.05635,0.02817 0.132644,-0.02817 0.188989,0 0.07968,0.03984 0.114861,0.139571 0.188987,0.188987 0.117205,0.07814 0.260771,0.110852 0.377976,0.188989 0.148254,0.09884 0.218609,0.298291 0.377975,0.377976 0.178181,0.08909 0.388787,0.0999 0.566966,0.188989 0.07968,0.03984 0.109304,0.149146 0.188989,0.188987 0.05635,0.02817 0.132641,-0.02817 0.188986,0 0.07968,0.03984 0.109305,0.149145 0.18899,0.188989 0.07493,0.03747 0.528327,-0.03864 0.566965,0 0.04454,0.04454 -0.04455,0.144441 0,0.188986 0.06634,0.06634 0.814398,-0.06527 0.944938,0 0.07968,0.03984 0.125992,0.125992 0.188989,0.18899 0.188989,0 0.381646,-0.03706 0.566965,0 0.138128,0.02763 0.247187,0.136673 0.377976,0.188986 0.184962,0.07399 0.37162,0.149921 0.566965,0.18899 0.123544,0.02471 0.251984,0 0.377976,0 0.188986,0 0.377975,0 0.566962,0 0.063,0 0.129225,-0.01992 0.188989,0 0.125992,0.063 0.251984,0.125991 0.377976,0.188989 0,0.06299 -0.04454,0.144441 0,0.188986 0.05171,0.05171 0.653428,-0.05126 0.755952,0 0.07968,0.03984 0.109304,0.149146 0.188989,0.18899 0.04886,0.02442 0.999974,0 1.133927,0 0.063,0 0.125992,0 0.18899,0 0.125992,0 0.377975,-0.125992 0.377975,0 0,0.125991 -0.503967,0 -0.377975,0 0.755951,0 1.511905,0 2.267857,0 1.196925,0 2.39385,0 3.590774,0 0.04583,0 0.560885,0.0061 0.566963,0 0.04454,-0.04455 -0.04454,-0.144444 0,-0.18899 0.251983,-0.251984 0.188989,0.314981 0.188989,-0.188986"
         style="fill:none;stroke:#000000;stroke-width:1.70000005;stroke-linecap:butt;stroke-linejoin:miter;stroke-miterlimit:4;stroke-dasharray:none;stroke-opacity:1" />
      <path
         inkscape:connector-curvature="0"
         id="path4610"
         d="m -140.60714,37.141369 c 0.48363,-0.762049 1.19283,-1.396992 1.80342,-2.032758 1.07187,-0.861001 2.34324,-0.546047 3.64841,-0.638737 1.15492,-0.238105 2.61005,-0.641736 3.05879,-1.868158 0.37518,-0.961844 1.06538,-1.414002 1.76108,-2.215783 0.96488,-0.790112 1.89495,-1.738767 2.34883,-2.944161 0.36163,-1.192728 0.21301,-2.486301 0.53946,-3.69338 0.21399,-1.337762 -0.0574,-2.700792 0.12269,-4.038029 -0.0744,-1.397812 -1.83106,-1.429026 -2.2501,-2.594975 -0.73829,-0.83156 -1.95082,-0.585139 -2.89946,-1.01383 -1.03749,-0.104881 -2.0775,-0.252518 -3.11022,-0.319447 -1.23331,0.01008 -2.46666,-4.08e-4 -3.69998,0.0036 -1.04725,0.681184 -2.40409,0.562613 -3.45165,1.258395 -1.0192,0.423927 -1.65575,1.386732 -2.13382,2.335748 -0.46626,1.209137 -0.94813,2.469428 -0.88074,3.789445 -0.17247,1.08983 -0.24347,2.196315 -0.5192,3.222775 -0.0249,1.332871 -0.12275,2.720654 0.4797,3.95626 0.28408,1.098661 1.19956,1.90071 1.32329,3.064042 0.19021,1.074819 0.40745,2.38314 1.31219,3.104896 0.36155,0.253428 0.76633,0.454884 0.7898,0.523903 0.69189,0.0084 1.20605,0.661755 1.75751,0.100177 z"
         style="fill:none;stroke:#000000;stroke-width:0.26458332;stroke-linecap:butt;stroke-linejoin:miter;stroke-miterlimit:4;stroke-dasharray:2.11666654, 2.11666654;stroke-dashoffset:0;stroke-opacity:1" />
      <path
         inkscape:connector-curvature="0"
         id="path3710"
         d="m -141.65285,31.200455 c 0.17818,24.900612 0.35636,49.801223 0.53454,74.701835 -1.77314,3.1181 -5.51107,4.27211 -8.90785,3.86802 -4.4427,-0.0905 -8.91985,0.0667 -13.26357,1.04986 -2.91405,0.44172 -6.32746,-0.2279 -8.96548,0.42751"
         style="opacity:1;fill:none;stroke:#000000;stroke-width:1.70000005;stroke-linecap:butt;stroke-linejoin:miter;stroke-miterlimit:4;stroke-dasharray:none;stroke-opacity:1" />
    </g>
  </g>
</svg>
