<?xml version="1.0" encoding="UTF-8" standalone="no"?>
<!-- Created with Inkscape (http://www.inkscape.org/) -->

<svg
   xmlns:dc="http://purl.org/dc/elements/1.1/"
   xmlns:cc="http://creativecommons.org/ns#"
   xmlns:rdf="http://www.w3.org/1999/02/22-rdf-syntax-ns#"
   xmlns:svg="http://www.w3.org/2000/svg"
   xmlns="http://www.w3.org/2000/svg"
   xmlns:sodipodi="http://sodipodi.sourceforge.net/DTD/sodipodi-0.dtd"
   xmlns:inkscape="http://www.inkscape.org/namespaces/inkscape"
   width="453.43362"
   height="453.43362"
   viewBox="0 0 453.43362 453.43362"
   id="svg4252"
   version="1.1"
   sodipodi:docname="morpheus.svg"
   inkscape:version="0.92.3 (2405546, 2018-03-11)">
  <sodipodi:namedview
     pagecolor="#ffffff"
     bordercolor="#666666"
     borderopacity="1"
     objecttolerance="10"
     gridtolerance="10"
     guidetolerance="10"
     inkscape:pageopacity="0"
     inkscape:pageshadow="2"
     inkscape:window-width="1920"
     inkscape:window-height="952"
     id="namedview36274"
     showgrid="false"
     fit-margin-top="0"
     fit-margin-left="0"
     fit-margin-right="0"
     fit-margin-bottom="0"
     inkscape:zoom="1.4921875"
     inkscape:cx="226.71681"
     inkscape:cy="226.71681"
     inkscape:window-x="0"
     inkscape:window-y="0"
     inkscape:window-maximized="1"
     inkscape:current-layer="svg4252" />
  <defs
     id="defs4254" />
  <metadata
     id="metadata4257">
    <rdf:RDF>
      <cc:Work
         rdf:about="">
        <dc:format>image/svg+xml</dc:format>
        <dc:type
           rdf:resource="http://purl.org/dc/dcmitype/StillImage" />
        <dc:title></dc:title>
      </cc:Work>
    </rdf:RDF>
  </metadata>
  <g
     id="layer1"
     transform="translate(757.05934,15.440659)">
    <g
       id="g4834"
       transform="matrix(1.2944258,0,0,1.2944258,231.51953,-137.57815)">
      <g
         id="g6337"
         transform="matrix(0.88053018,0,0,0.88053018,-70.013629,32.496417)">
        <path
           transform="matrix(0.77254332,0,0,0.77254332,-786.34253,71.733966)"
           id="path6331"
           d="m 101.29454,15.359499 c 18.6858,38.91262 41.48379,77.434037 61.37277,116.378351 62.51878,1.88624 126.59578,-0.96829 189.33035,-3.85045 32.89575,-36.064287 68.29447,-70.155915 98.95647,-108.102678 -4.6048,-7.450383 -18.84226,-1.849788 -26.76694,-4.097795 C 316.63872,14.246946 208.51078,13.707543 101.29454,15.359499 Z"
           style="opacity:1;fill:#ffffff;fill-opacity:1;fill-rule:nonzero;stroke:none;stroke-width:15;stroke-linecap:butt;stroke-miterlimit:4;stroke-dasharray:none;stroke-dashoffset:0;stroke-opacity:1"
           inkscape:connector-curvature="0" />
        <path
           transform="matrix(0.77254332,0,0,0.77254332,-786.34253,71.733966)"
           id="path6333"
           d="m 468.05905,26.514633 c -35.54553,32.521435 -67.27084,69.94678 -99.43081,106.054687 -7.4635,10.90792 4.23719,25.67214 4.05054,37.80512 10.7838,46.58223 20.34309,93.89001 32.56777,139.86229 30.32091,14.53285 60.10914,31.38165 90.75334,44.50893 2.66481,-78.26966 1.66421,-157.92951 1.71796,-236.74612 -2.14338,-26.460558 5.71517,-57.569035 -14.96014,-78.750532 -4.23368,-4.494518 -8.03415,-11.850399 -14.69866,-12.734375 z"
           style="opacity:1;fill:#ffffff;fill-opacity:1;fill-rule:nonzero;stroke:none;stroke-width:15;stroke-linecap:butt;stroke-miterlimit:4;stroke-dasharray:none;stroke-dashoffset:0;stroke-opacity:1"
           inkscape:connector-curvature="0" />
        <path
           transform="matrix(0.77254332,0,0,0.77254332,-786.34253,71.733966)"
           id="path6335"
           d="m 124.10815,313.40637 c -35.891156,2.98794 -72.900696,7.26667 -107.678568,13.85045 -2.385645,40.83985 -3.764472,82.44769 0.770089,123.20312 8.304049,28.82352 37.4819,50.12296 67.809658,47.08056 40.527521,0.1374 81.650921,3.40663 121.866681,-1.43881 8.08928,-8.06811 2.65634,-23.51975 6.63122,-33.88394 2.12815,-26.12595 9.82006,-53.07813 7.59869,-78.99553 -30.39235,-22.99769 -59.61066,-48.61116 -90.9654,-69.7433 -2.005,-0.1878 -4.02301,-0.12272 -6.03237,-0.0726 z"
           style="opacity:1;fill:#ffffff;fill-opacity:1;fill-rule:nonzero;stroke:none;stroke-width:15;stroke-linecap:butt;stroke-miterlimit:4;stroke-dasharray:none;stroke-dashoffset:0;stroke-opacity:1"
           inkscape:connector-curvature="0" />
        <path
           style="opacity:1;fill:#0000ff;fill-opacity:1;fill-rule:nonzero;stroke:none;stroke-width:10;stroke-linecap:butt;stroke-miterlimit:4;stroke-dasharray:none;stroke-dashoffset:0;stroke-opacity:1"
           d="m -543.07092,343.75513 c -20.35498,9.4421 -41.95821,17.30807 -61.53526,27.73245 -3.89839,28.31966 -8.26533,57.40353 -11.14111,85.62695 17.08567,2.13604 35.61443,0.27344 53.24478,0.89688 41.17211,-0.38528 82.45322,0.85986 123.55618,-1.53229 21.57251,-6.81279 39.55687,-27.18969 38.73336,-50.59829 0.17785,-15.69896 1.23745,-31.96057 -0.42104,-47.29785 -26.24238,-14.26161 -53.45825,-27.4728 -80.07467,-41.32993 -21.0058,7.31216 -41.5959,17.95467 -62.36224,26.50208 z"
           id="path4201"
           inkscape:connector-curvature="0" />
        <path
           style="opacity:1;fill:#ffff00;fill-opacity:1;fill-rule:nonzero;stroke:none;stroke-width:10;stroke-linecap:butt;stroke-miterlimit:4;stroke-dasharray:none;stroke-dashoffset:0;stroke-opacity:1"
           d="m -528.54627,181.31847 c -43.11848,0.65212 -86.29365,0.86385 -129.36027,2.81262 -4.785,8.90961 -4.22684,20.53946 -6.99206,30.42416 -5.31997,29.69721 -11.02793,59.34444 -15.62428,89.15973 6.58865,8.71728 17.32991,14.37941 25.51666,21.82779 16.41808,12.31911 32.16526,26.3592 49.13182,37.40309 40.16332,-17.00111 80.51901,-34.47799 120.2934,-52.67676 2.51976,-6.7584 -2.59881,-14.77474 -2.9309,-21.89515 -8.01291,-35.36461 -15.33774,-70.96903 -24.92701,-105.92467 -4.08803,-2.75294 -10.46846,-0.24082 -15.10736,-1.13081 z"
           id="path4203"
           inkscape:connector-curvature="0" />
        <path
           style="opacity:1;fill:#ff0000;fill-opacity:1;fill-rule:nonzero;stroke:none;stroke-width:10;stroke-linecap:butt;stroke-miterlimit:4;stroke-dasharray:none;stroke-dashoffset:0;stroke-opacity:1"
           d="m -729.08743,80.883465 c -24.21965,2.82593 -45.92329,23.761595 -48.47227,47.973135 0.14758,61.48396 -1.56303,123.04459 0.38082,184.48475 6.32383,3.39365 15.31394,-1.33368 22.60247,-1.08677 21.59002,-3.57033 43.99603,-4.07821 65.00411,-10.28775 4.53462,-7.54075 3.69439,-17.89453 6.21186,-26.4487 5.56587,-31.56077 12.21975,-63.13505 16.94104,-94.71603 -18.5044,-32.7179 -36.00569,-65.93283 -52.68684,-99.609965 -2.80956,-2.24207 -6.71993,-0.11047 -9.98119,-0.30867 z"
           id="path4205"
           inkscape:connector-curvature="0" />
        <path
           style="opacity:1;fill:#ffffff;fill-opacity:1;fill-rule:nonzero;stroke:none;stroke-width:12;stroke-linecap:butt;stroke-miterlimit:4;stroke-dasharray:none;stroke-dashoffset:0;stroke-opacity:1"
           d="m 98.225341,40.179811 c -31.057615,1.419315 -58.816834,29.714087 -57.941888,61.121199 -0.652577,68.40482 0.03444,136.81736 -0.01291,205.22507 1.765999,3.59113 7.120039,3.05016 10.620815,2.70647 27.534661,-5.01557 55.666712,-5.99862 83.003632,-12.20425 4.17044,-0.9706 10.40611,-1.83892 10.3879,-7.4011 8.66802,-43.77172 16.47193,-87.70866 24.66092,-131.57211 -4.30092,-9.56158 -10.38326,-18.48844 -15.2051,-27.92407 -16.0787,-29.52262 -32.02608,-59.060407 -46.81638,-89.238318 -2.09931,-2.366302 -5.95414,-0.320478 -8.696987,-0.712891 z"
           id="path6345"
           transform="matrix(0.87736154,0,0,0.87736154,-813.51999,44.561276)"
           inkscape:connector-curvature="0" />
        <path
           style="opacity:1;fill:#ff0000;fill-opacity:1;fill-rule:nonzero;stroke:none;stroke-width:12;stroke-linecap:butt;stroke-miterlimit:4;stroke-dasharray:none;stroke-dashoffset:0;stroke-opacity:1"
           d="m 100.8495,39.952412 c -23.836113,0.600916 -46.51631,15.924531 -55.767296,37.950614 -5.87693,10.783613 -3.901743,23.616944 -4.691768,35.394604 -0.447725,65.18247 -0.291969,130.36872 -0.503544,195.55266 1.711005,4.16433 7.383535,0.44744 10.759569,0.86804 30.1166,-4.18688 60.379179,-7.50381 90.373249,-12.47518 3.4454,-1.79969 2.32716,-6.8976 3.66768,-10.07255 8.54642,-42.93142 16.14727,-86.0438 24.16155,-129.07645 -4.33144,-9.66082 -10.51419,-18.66135 -15.38289,-28.17135 -16.0665,-29.33785 -31.7489,-58.85659 -46.52419,-88.869663 -1.43227,-1.973021 -4.06607,-0.788909 -6.09236,-1.100725 z"
           id="path6347"
           transform="matrix(0.87736154,0,0,0.87736154,-813.51999,44.561276)"
           inkscape:connector-curvature="0" />
        <path
           style="opacity:1;fill:#ffff00;fill-opacity:1;fill-rule:nonzero;stroke:none;stroke-width:12;stroke-linecap:butt;stroke-miterlimit:4;stroke-dasharray:none;stroke-dashoffset:0;stroke-opacity:1"
           d="m 337.22255,156.54839 c -53.21372,0.83408 -106.44006,1.68693 -159.6317,3.33706 -3.41187,2.18166 -2.1647,7.45706 -3.57547,10.89354 -7.87095,41.63934 -15.94689,83.26289 -22.95494,125.04954 1.41218,5.86937 7.69784,8.87834 11.8305,12.7263 24.25162,18.41839 47.51888,38.25244 72.48591,55.73352 4.64996,0.40144 8.88174,-3.3472 13.33705,-4.58985 41.07456,-17.77417 82.37756,-35.08317 122.87389,-54.1462 3.26001,-1.06017 5.38799,-4.22942 3.7793,-7.5851 -9.89165,-46.81801 -21.15994,-93.33735 -32.08148,-139.92327 -1.10095,-2.45335 -4.02372,-1.17761 -6.06306,-1.49554 z"
           id="path6349"
           transform="matrix(0.87736154,0,0,0.87736154,-813.51999,44.561276)"
           inkscape:connector-curvature="0" />
      </g>
      <rect
         style="fill:none;fill-opacity:1;stroke:#000000;stroke-width:10.81560612;stroke-miterlimit:4;stroke-dasharray:none;stroke-opacity:1"
         id="rect2816"
         width="339.48151"
         height="339.48151"
         x="-758.31219"
         y="99.764305"
         ry="51.322998" />
      <g
         id="g3640"
         transform="matrix(0.88053018,0,0,0.88053018,-709.45225,-127.81118)"
         style="stroke-width:9.27052021;stroke-miterlimit:4;stroke-dasharray:none">
        <path
           id="path3611"
           d="M 9.1050921,261.07786 C 41.74246,326.35259 65.094782,365.57784 65.094782,365.57784"
           style="fill:none;stroke:#000000;stroke-width:12.28306198;stroke-linecap:round;stroke-linejoin:miter;stroke-miterlimit:4;stroke-dasharray:none;stroke-opacity:1"
           inkscape:connector-curvature="0" />
        <path
           id="path3637"
           d="M 43.608517,492.04762 C 100.7239,536.92399 118.40247,550.5229 118.40247,550.5229"
           style="fill:none;stroke:#000000;stroke-width:12.28306198;stroke-linecap:round;stroke-linejoin:miter;stroke-miterlimit:4;stroke-dasharray:none;stroke-opacity:1"
           inkscape:connector-curvature="0" />
        <path
           id="path3639"
           d="m 118.67445,551.61081 127.82966,-55.7555"
           style="fill:none;stroke:#000000;stroke-width:12.28306198;stroke-linecap:round;stroke-linejoin:miter;stroke-miterlimit:4;stroke-dasharray:none;stroke-opacity:1"
           inkscape:connector-curvature="0" />
        <path
           id="path3641"
           d="M 247.864,497.2152 216.58653,362.58608"
           style="fill:none;stroke:#000000;stroke-width:12.28306198;stroke-linecap:round;stroke-linejoin:miter;stroke-miterlimit:4;stroke-dasharray:none;stroke-opacity:1"
           inkscape:connector-curvature="0" />
        <path
           id="path3643"
           d="m 215.22664,358.50642 81.59341,-87.03297"
           style="fill:none;stroke:#000000;stroke-width:12.28306198;stroke-linecap:round;stroke-linejoin:miter;stroke-miterlimit:4;stroke-dasharray:none;stroke-opacity:1"
           inkscape:connector-curvature="0" />
        <path
           id="path3645"
           d="m 118.67445,550.25092 -12.23901,91.11263"
           style="fill:none;stroke:#000000;stroke-width:9.27052021;stroke-linecap:round;stroke-linejoin:miter;stroke-miterlimit:4;stroke-dasharray:none;stroke-opacity:1"
           inkscape:connector-curvature="0" />
        <path
           id="path3649"
           d="m 249.2239,498.57509 76.65814,38.93252"
           style="fill:none;stroke:#000000;stroke-width:12.28306198;stroke-linecap:round;stroke-linejoin:miter;stroke-miterlimit:4;stroke-dasharray:none;stroke-opacity:1"
           inkscape:connector-curvature="0" />
        <path
           id="path3651"
           d="M 67.542585,363.40202 213.05082,360.68224"
           style="fill:none;stroke:#000000;stroke-width:12.28306198;stroke-linecap:round;stroke-linejoin:miter;stroke-miterlimit:4;stroke-dasharray:none;stroke-opacity:1"
           inkscape:connector-curvature="0" />
        <path
           id="path3653"
           d="M 41.160713,489.05586 64.27885,363.94597"
           style="fill:none;stroke:#000000;stroke-width:12.28306198;stroke-linecap:round;stroke-linejoin:miter;stroke-miterlimit:4;stroke-dasharray:none;stroke-opacity:1"
           inkscape:connector-curvature="0" />
        <path
           id="path3761"
           d="m 41.160713,490.41575 -92.472526,12.23902"
           style="fill:none;stroke:#000000;stroke-width:12.28306198;stroke-linecap:round;stroke-linejoin:miter;stroke-miterlimit:4;stroke-dasharray:none;stroke-opacity:1"
           inkscape:connector-curvature="0" />
      </g>
    </g>
  </g>
</svg>
