<?xml version="1.0" encoding="utf-8"?>
<!-- Generator: Adobe Illustrator 16.0.0, SVG Export Plug-In . SVG Version: 6.00 Build 0)  -->
<!DOCTYPE svg PUBLIC "-//W3C//DTD SVG 1.1//EN" "http://www.w3.org/Graphics/SVG/1.1/DTD/svg11.dtd">
<svg version="1.1" id="Layer_1" xmlns="http://www.w3.org/2000/svg" xmlns:xlink="http://www.w3.org/1999/xlink" x="0px" y="0px"
	 width="62.139648px" height="50px" viewBox="0 0 62.139648 50" style="enable-background:new 0 0 62.139648 50;"
	 xml:space="preserve">
<g id="NeuroML">
	<path style="fill-rule:evenodd;clip-rule:evenodd;fill:#065BA0;" d="M62.140625,21.792969
		c0,0.75-0.412109,0.888672-1.263672,0.908203c-2.283203,0.053711-4.578125,0.142578-6.853516-0.011719
		c-3.396484-0.226563-6.317383,1.111328-9.195313,2.571289c-1.964844,1.000977-2.541016,2.463867-1.675781,4.526367
		C44,31.807617,45.130859,33.719727,46.232422,35.625c0.773438,1.332031,1.725586,2.563477,2.553711,3.867188
		c0.350586,0.554688,0.749023,0.769531,1.424805,0.763672c2.354492-0.029297,4.652344-0.371094,6.913086-1.023438
		c0.379883-0.107422,0.821289-0.003906,1.233398,0.003906c-0.376953,0.111328-0.751953,0.230469-1.130859,0.330078
		c-0.244141,0.068359-0.503906,0.089844-0.744141,0.169922c-0.337891,0.111328-0.662109,0.259766-0.993164,0.392578
		c0.334961,0.111328,0.669922,0.216797,1.000977,0.333984c0.121094,0.044922,0.230469,0.115234,0.345703,0.177734
		c-0.138672,0.017578-0.275391,0.039063-0.414063,0.050781c-0.453125,0.03125-0.907227,0.060547-1.361328,0.09375
		c0.263672,0.341797,0.654297,0.650391,0.757813,1.039063c0.167969,0.613281,0.142578,1.279297,0.200195,1.919922
		c-0.129883,0.042969-0.256836,0.082031-0.385742,0.126953c0.261719-2.119141-0.708984-3.226563-2.84082-3.173828
		c-0.93457,0.021484-1.866211,0.148438-2.801758,0.230469c0.537109,0.738281,1.050781,1.494141,1.615234,2.207031
		c0.892578,1.128906,1.847656,2.205078,2.728516,3.339844c0.568359,0.734375,1.158203,1.183594,2.102539,0.662109
		c0.100586-0.058594,0.271484,0.017578,0.410156,0.029297c-0.102539,0.095703-0.192383,0.207031-0.305664,0.283203
		c-0.894531,0.591797-1.675781,0.730469-2.367188-0.359375c-0.470703-0.742188-1.102539-1.378906-1.669922-2.060547
		c-0.087891-0.103516-0.21582-0.175781-0.324219-0.261719c-0.048828,0.158203-0.111328,0.308594-0.140625,0.470703
		c-0.015625,0.105469-0.001953,0.222656,0.033203,0.324219c0.144531,0.421875,0.298828,0.839844,0.449219,1.259766
		c-0.345703-0.431641-0.884766-0.820313-0.995117-1.306641c-0.19043-0.845703-0.379883-0.568359-0.702148-0.136719
		c-0.4375,0.589844-0.864258,1.185547-1.306641,1.771484c-0.076172,0.097656-0.205078,0.152344-0.310547,0.226563
		c-0.025391-0.136719-0.119141-0.320313-0.064453-0.40625c0.59082-0.925781,1.177734-1.851563,1.826172-2.736328
		c0.302734-0.414063,0.341797-0.634766-0.048828-1.054688c-1.173828-1.257813-2.310547-2.556641-3.388672-3.900391
		c-1.654297-2.055664-3.496094-3.892578-5.810547-5.192383c-3.902344-2.196289-8.056641-1.847656-11.425781,1.098633
		c-1.171875,1.022461-2.164063,2.293945-3.071289,3.572266c-1.126953,1.587891-2.045898,3.316406-3.12207,4.943359
		c-0.404297,0.607422-0.367188,1.058594,0.091797,1.558594c0.794922,0.869141,1.581055,1.744141,2.371094,2.619141
		c-0.068359,0.048828-0.134766,0.099609-0.203125,0.150391c-0.15625-0.089844-0.34375-0.154297-0.464844-0.28125
		c-0.416016-0.443359-0.743164-0.546875-1.003906,0.140625c-0.072266,0.1875-0.255859,0.332031-0.387695,0.494141
		c0.022461-0.195313,0.014648-0.396484,0.073242-0.580078c0.216797-0.683594-0.472656-2.351563-1.113281-2.658203
		c-0.058594-0.025391-0.167969-0.052734-0.181641-0.03125c-0.455078,0.662109-0.947266,1.306641-1.307617,2.019531
		c-0.081055,0.158203,0.290039,0.564453,0.480469,0.839844c0.251953,0.359375,0.53125,0.701172,0.797852,1.050781
		C22.902344,48.785156,22.5,48.59375,22.207031,48.294922c-0.583984-0.597656-0.869141-0.322266-1.212891,0.255859
		c-0.304688,0.515625-0.71875,0.964844-1.109375,1.423828c-0.051758,0.060547-0.251953-0.003906-0.384766-0.011719
		c0.0625-0.078125,0.132813-0.154297,0.1875-0.238281c0.235352-0.367188,0.492188-0.722656,0.694336-1.111328
		c0.125977-0.238281,0.164063-0.525391,0.239258-0.792969c-0.289063,0.011719-0.580078,0.021484-0.871094,0.025391
		c-0.488281,0.013672-0.977539,0.021484-1.464844,0.033203c0.431641-0.119141,0.857422-0.285156,1.296875-0.34375
		c1.121094-0.138672,1.871094-0.632813,2.443359-1.6875c1.386719-2.550781,2.853516-5.066406,4.425781-7.507813
		c1.118164-1.735352,1.03125-3.463867,0.450195-5.275391c-0.776367-2.423828-2.415039-4.242188-4.438477-5.635742
		c-2.414063-1.660156-4.884766-3.303711-7.518555-4.56543c-1.842773-0.884766-3.99707-1.12207-6.014648-1.638672
		c-0.709961-0.181641-1.425781-0.326172-2.137695-0.5c-1.287109-0.319336-1.663086-0.119141-2.139648,1.15332
		c-0.089844,0.241211-0.166016,0.487305-0.27832,0.717773c-0.053711,0.114258-0.174805,0.195313-0.264648,0.291016
		C4.09375,22.789063,4.070313,22.691406,4.0625,22.592773c-0.021484-0.264648-0.037109-0.529297-0.055664-0.793945
		c-0.230469,0.162109-0.460938,0.324219-0.691406,0.486328c-0.061523-0.072266-0.124023-0.146484-0.185547-0.219727
		c0.623047-1.008789,0.623047-1.004883-0.834961-1.067383C2.099609,20.990234,1.90918,20.916016,1.714844,20.875
		c0.183594-0.052734,0.363281-0.138672,0.550781-0.150391c0.755859-0.058594,1.529297-0.025391,2.271484-0.161133
		c0.552734-0.102539,0.814453-0.336914,0.15918-0.87793c-1.244141-1.027344-2.74707-0.861328-4.161133-1.125977
		C0.357422,18.525391,0.178711,18.496094,0,18.466797c0.180664-0.041992,0.357422-0.112305,0.537109-0.119141
		c0.40332-0.018555,0.8125,0.021484,1.209961-0.029297c0.079102-0.008789,0.117188-0.324219,0.174805-0.49707
		c0.053711-0.053711,0.107422-0.10791,0.162109-0.161621c0.601563,0.297363,1.199219,0.60791,1.810547,0.882324
		c0.115234,0.049805,0.367188-0.003906,0.435547-0.097656c0.140625-0.196289,0.199219-0.450195,0.292969-0.680176
		c0.058594,0.282715,0.035156,0.630371,0.195313,0.837402c0.388672,0.505859,0.799805,1.263672,1.310547,1.364258
		c3.65918,0.716797,7.342773,1.314453,11.02832,1.892578c0.552734,0.086914,1.202148-0.018555,1.726563-0.232422
		c3.547852-1.451172,5.994141-4.022461,6.984375-7.709473c0.625977-2.330078-0.733398-4.080078-2.466797-5.53125
		c-0.665039-0.554688-1.197266-1.301758-1.928711-1.724609c-0.510742-0.297363-1.255859-0.180176-1.893555-0.266602
		c-0.207031-0.028809-0.407227-0.117188-0.608398-0.178223c0.194336-0.05957,0.384766-0.142578,0.584961-0.176758
		c0.40918-0.068359,0.821289-0.111328,1.233398-0.163574c-0.21875-0.36377-0.426758-0.73291-0.657227-1.087402
		c-0.143555-0.22168-0.319336-0.42334-0.481445-0.631836c0.246094,0.118652,0.511719,0.210449,0.730469,0.365234
		c0.267578,0.192871,0.487305,0.448242,0.744141,0.657227c0.275391,0.225098,0.569336,0.424805,0.855469,0.635742
		c0.142578-0.480957,0.313477-0.959961,0.414063-1.449707c0.029297-0.147461-0.140625-0.331055-0.203125-0.502441
		c-0.134766-0.370605-0.261719-0.74707-0.390625-1.119629c0.239258,0.266602,0.460938,0.552734,0.730469,0.785156
		c0.082031,0.069824,0.338867,0.042969,0.443359-0.034668c0.84082-0.62793,0.851563-1.567871,0.892578-2.489746
		c0.003906-0.101074-0.019531-0.251953-0.085938-0.297363c-0.179688-0.116699-0.388672-0.19043-0.586914-0.280762
		c0.063477-0.075684,0.12207-0.208496,0.192383-0.21582c0.216797-0.02002,0.511719,0.104492,0.642578,0.001465
		c0.423828-0.325684,0.328125-0.288086,0.353516,0.214355c0.098633,1.979004-1.080078,3.498535-1.730469,5.205078
		c-0.255859,0.67334-0.201172,1.09668,0.412109,1.583008c3.328125,2.633789,6.720703,5.152832,10.878906,6.341309
		c3.8125,1.09082,7.124023,0.381348,9.677734-2.87207c0.521484-0.664063,1.230469-1.191895,1.693359-1.888672
		c0.435547-0.658691,0.75293-1.435059,0.953125-2.203613c0.388672-1.489258-0.296875-2.450684-1.703125-2.959961
		c-0.125-0.044922-0.232422-0.142578-0.347656-0.216309c0.115234-0.041016,0.257813-0.147461,0.337891-0.113281
		c1.414063,0.594238,0.981445-0.523926,1.077148-1.150391c0.036133-0.245117,0.06543-0.491699,0.094727-0.738281
		c0.080078,0.225098,0.210938,0.446289,0.225586,0.675293c0.061523,0.936035,0.09375,1.855957,0.750977,2.643066
		c0.170898,0.205078,0.079102,0.642578,0.077148,0.974121c-0.000977,0.370605-0.038086,0.741699-0.05957,1.112305
		c0.335938-0.259277,0.865234-0.455566,0.970703-0.786621c0.371094-1.159668,0.597656-2.365723,0.878906-3.554199
		c0.079102,0.028809,0.160156,0.05957,0.239258,0.088379c-0.00293,0.036133-0.018555,0.07373-0.012695,0.109863
		c0.257813,2.120605-0.30957,3.88916-2.134766,5.163574c-0.270508,0.1875-0.388672,0.59082-0.578125,0.893066
		c0.314453-0.041504,0.626953-0.10791,0.941406-0.120605c2.230469-0.089844,3.060547-1.875977,4.126953-3.383301
		c0.120117-0.170898,0.263672-0.325684,0.397461-0.487793c-0.004883,0.239746,0.068359,0.522461-0.032227,0.711426
		c-0.259766,0.484375-0.603516,0.92334-0.900391,1.388184c-0.074219,0.118652-0.102539,0.268066-0.152344,0.40332
		c0.165039,0.006836,0.388672,0.086426,0.485352,0.008789c0.436523-0.347656,0.834961-0.738281,1.244141-1.118164
		c0.09375-0.086426,0.168945-0.192383,0.25293-0.290039c0.019531,0.131836,0.103516,0.310059,0.047852,0.38916
		c-0.280273,0.397949-0.522461,0.950684-0.916992,1.120117c-1.642578,0.702148-3.353516,1.250977-5.005859,1.933594
		c-0.571289,0.23584-1.124023,0.623047-1.554688,1.067383c-0.970703,1.006836-1.876953,2.076172-2.775391,3.147461
		c-1.588867,1.890625-1.457031,3.187012,0.707031,4.367676c3.064453,1.670898,6.238281,3.069336,9.882813,2.942383
		c2.724609-0.097656,5.455078-0.046875,8.181641-0.001953C61.013672,20.808594,62.140625,21.105469,62.140625,21.792969z
		 M42.908203,32.682617c-0.027344-0.21582-0.005859-0.392578-0.072266-0.518555
		c-0.392578-0.745117-0.871094-1.455078-1.201172-2.228516c-1.078125-2.535156-0.515625-4.577148,1.841797-5.983398
		c1.306641-0.77832,2.808594-1.231445,4.224609-1.823242c0.299805-0.125,0.613281-0.21875,0.919922-0.324219
		c-0.28125-0.123047-0.566406-0.236328-0.84375-0.366211c-1.919922-0.90332-3.922852-1.677734-5.730469-2.772461
		c-0.943359-0.572266-1.713867-1.624023-2.232422-2.628906c-0.333008-0.642578-0.560547-0.831543-1.226563-0.835449
		c-3.535156-0.022949-6.982422-0.419434-10.001953-2.53125c-0.463867-0.325684-1.061523-0.460938-1.597656-0.684082
		c-0.061523,0.527344-0.121094,1.056641-0.185547,1.584473c-0.012695,0.109863-0.042969,0.217773-0.070313,0.32373
		c-1.15625,4.638672-4.0625,7.550781-8.660156,8.796875c-0.202148,0.054688-0.404297,0.108398-0.603516,0.162109
		c0.179688,0.115234,0.349609,0.251953,0.541992,0.338867c2.646484,1.178711,5.049805,2.731445,7.125977,4.754883
		c1.625977,1.581055,3.042969,3.316406,3.5,5.631836c0.236328,1.192383,0.208984,1.173828,1.208984,0.446289
		c3.920898-2.866211,8.020508-4.332031,12.634766-1.541016C42.576172,32.541992,42.680664,32.578125,42.908203,32.682617z
		 M4.216797,21.521484c-0.023438-0.012695-0.052734-0.041016-0.066406-0.03418C4.12207,21.5,4.101563,21.532227,4.078125,21.555664
		c0.044922,0.014648,0.091797,0.026367,0.136719,0.041992C4.214844,21.572266,4.214844,21.546875,4.216797,21.521484z"/>
	<path style="fill-rule:evenodd;clip-rule:evenodd;fill:#C3CBE0;" d="M48.80957,2.564453
		c-0.079102-0.028809-0.160156-0.05957-0.239258-0.088379c0.080078-0.450195,0.164063-0.899902,0.246094-1.352051
		c0.044922,0.019531,0.133789,0.042969,0.131836,0.05957C48.90625,1.644531,48.857422,2.103516,48.80957,2.564453z"/>
	<path style="fill-rule:evenodd;clip-rule:evenodd;fill:#C3CBE0;" d="M55.632813,43.871094
		c0.128906-0.044922,0.255859-0.083984,0.385742-0.126953c0.010742,0.072266,0.049805,0.150391,0.032227,0.212891
		c-0.113281,0.392578-0.241211,0.777344-0.363281,1.166016C55.669922,44.705078,55.651367,44.287109,55.632813,43.871094z"/>
	<path style="fill-rule:evenodd;clip-rule:evenodd;fill:#065BA0;" d="M3.31543,22.285156
		C3.085938,22.4375,2.855469,22.589844,2.625,22.742188c0.169922-0.224609,0.337891-0.451172,0.504883-0.676758
		C3.191406,22.138672,3.253906,22.212891,3.31543,22.285156z"/>
	<path style="fill-rule:evenodd;clip-rule:evenodd;fill:#065BA0;" d="M1.921875,17.821289
		c-0.076172-0.098633-0.15332-0.197754-0.228516-0.298828c0.128906,0.046875,0.259766,0.091797,0.390625,0.137207
		C2.029297,17.713379,1.975586,17.767578,1.921875,17.821289z"/>
	<path style="fill-rule:evenodd;clip-rule:evenodd;fill:#065BA0;" d="M26.743164,48.054688
		c0.116211,0.119141,0.233398,0.234375,0.350586,0.353516c-0.041016,0.035156-0.080078,0.074219-0.120117,0.115234
		c-0.12207-0.097656-0.245117-0.199219-0.369141-0.296875C26.651367,48.169922,26.696289,48.111328,26.743164,48.054688z"/>
	<path style="fill-rule:evenodd;clip-rule:evenodd;fill:#065BA0;" d="M26.564453,47.878906
		c0.05957,0.056641,0.119141,0.117188,0.178711,0.175781c-0.046875,0.056641-0.091797,0.115234-0.138672,0.171875
		c-0.081055-0.064453-0.162109-0.128906-0.243164-0.197266C26.429688,47.978516,26.496094,47.927734,26.564453,47.878906z"/>
	<path style="fill-rule:evenodd;clip-rule:evenodd;fill:#065BA0;" d="M27.09375,48.408203
		c0.041016,0.060547,0.083008,0.125,0.125,0.185547c-0.082031-0.023438-0.162109-0.048828-0.244141-0.074219
		C27.013672,48.482422,27.052734,48.443359,27.09375,48.408203z"/>
	<path style="fill-rule:evenodd;clip-rule:evenodd;fill:#FDFEFF;" d="M4.214844,21.521484c0,0.025391,0,0.050781,0,0.076172
		c-0.044922-0.015625-0.091797-0.027344-0.136719-0.041992C4.101563,21.532227,4.12207,21.5,4.150391,21.487305
		C4.164063,21.480469,4.193359,21.508789,4.214844,21.521484z"/>
	<path style="fill-rule:evenodd;clip-rule:evenodd;fill:#C3CBE0;" d="M47.777344,21.438477
		c-1.919922-0.90332-3.922852-1.677734-5.730469-2.772461c-0.943359-0.572266-1.713867-1.624023-2.232422-2.628906
		c-0.333008-0.642578-0.560547-0.831543-1.226563-0.835449c-3.535156-0.022949-6.982422-0.419434-10.001953-2.53125
		c-0.463867-0.325684-1.061523-0.460938-1.597656-0.684082c-0.061523,0.527344-0.121094,1.056641-0.185547,1.584473
		c-0.012695,0.109863-0.042969,0.217773-0.070313,0.32373c-1.15625,4.638672-4.0625,7.550781-8.660156,8.796875
		c-0.202148,0.054688-0.404297,0.108398-0.603516,0.162109c0.179688,0.115234,0.349609,0.251953,0.541992,0.338867
		c2.646484,1.178711,5.049805,2.731445,7.125977,4.754883c1.625977,1.581055,3.042969,3.316406,3.5,5.631836
		c0.236328,1.192383,0.208984,1.173828,1.208984,0.446289c3.920898-2.866211,8.020508-4.332031,12.634766-1.541016
		c0.095703,0.057617,0.200195,0.09375,0.427734,0.198242c-0.027344-0.21582-0.005859-0.392578-0.072266-0.518555
		c-0.392578-0.745117-0.871094-1.455078-1.201172-2.228516c-1.078125-2.535156-0.515625-4.577148,1.841797-5.983398
		c1.306641-0.77832,2.808594-1.231445,4.224609-1.823242c0.299805-0.125,0.613281-0.21875,0.919922-0.324219
		C48.339844,21.681641,48.054688,21.568359,47.777344,21.438477z M39.322266,24.544922
		c-0.378906,1.626953-1.84375,1.897461-3.161133,2.170898c-1.139648,0.234375-2.331055,0.230469-3.5,0.331055
		c-2.456055-0.039063-4.774414-0.367188-6.589844-2.268555c-2.250977-2.354492-1.816406-4.979492,1.092773-6.487305
		c4.017578-2.081055,8.192383-1.511719,11.113281,1.826172C39.423828,21.429688,39.699219,22.923828,39.322266,24.544922z"/>
	<path style="fill-rule:evenodd;clip-rule:evenodd;fill:#EF7538;" d="M31.624023,25.512695
		c-0.941406-0.251953-2.368164-0.478516-3.649414-1.036133c-0.736328-0.319336-1.365234-1.100586-1.811523-1.818359
		c-0.563477-0.90625-0.327148-1.817383,0.514648-2.556641c2.620117-2.299805,7.756836-2.000977,10.074219,0.604492
		c1.585938,1.782227,0.957031,3.892578-1.359375,4.381836C34.321289,25.31543,33.208984,25.339844,31.624023,25.512695z
		 M32.046875,20.572266c-0.65625-0.001953-1.618164-0.033203-1.798828,0.953125
		c-0.173828,0.955078,0.613281,1.535156,1.427734,1.824219c0.742188,0.259766,1.542969,0.408203,2.328125,0.458984
		c0.364258,0.023438,0.949219-0.208984,1.075195-0.488281c0.160156-0.356445,0.095703-0.958008-0.112305-1.3125
		C34.369141,20.984375,33.397461,20.533203,32.046875,20.572266z"/>
	<path style="fill-rule:evenodd;clip-rule:evenodd;fill:#C3CBE0;" d="M32.046875,20.572266
		c1.350586-0.039063,2.322266,0.412109,2.919922,1.435547c0.208008,0.354492,0.272461,0.956055,0.112305,1.3125
		c-0.125977,0.279297-0.710938,0.511719-1.075195,0.488281c-0.785156-0.050781-1.585938-0.199219-2.328125-0.458984
		c-0.814453-0.289063-1.601563-0.869141-1.427734-1.824219C30.428711,20.539063,31.390625,20.570313,32.046875,20.572266z
		 M33.726563,23.230469c0.110352-0.12793,0.50293-0.383789,0.5625-0.703125c0.115234-0.611328-0.875-1.396484-1.740234-1.298828
		c-0.435547,0.046875-1.068359,0.397461-1.185547,0.751953C31.181641,22.533203,32.380859,23.211914,33.726563,23.230469z"/>
	<path style="fill-rule:evenodd;clip-rule:evenodd;fill:#065BA0;" d="M33.726563,23.230469
		c-1.345703-0.018555-2.544922-0.697266-2.363281-1.25c0.117188-0.354492,0.75-0.705078,1.185547-0.751953
		c0.865234-0.097656,1.855469,0.6875,1.740234,1.298828C34.229492,22.84668,33.836914,23.102539,33.726563,23.230469z"/>
</g>
<g>
</g>
<g>
</g>
<g>
</g>
<g>
</g>
<g>
</g>
<g>
</g>
</svg>
