<?xml version="1.0" encoding="UTF-8" standalone="no"?>
<!DOCTYPE svg PUBLIC "-//W3C//DTD SVG 1.1//EN"
 "http://www.w3.org/Graphics/SVG/1.1/DTD/svg11.dtd">
<!-- Generated by graphviz version 2.40.1 (20161225.0304)
 -->
<!-- Title: dependencies Pages: 1 -->
<svg width="4671pt" height="284pt"
 viewBox="0.00 0.00 4671.00 284.00" xmlns="http://www.w3.org/2000/svg" xmlns:xlink="http://www.w3.org/1999/xlink">
<g id="graph0" class="graph" transform="scale(1 1) rotate(0) translate(4 280)">
<title>dependencies</title>
<polygon fill="#ffffff" stroke="transparent" points="-4,4 -4,-280 4667,-280 4667,4 -4,4"/>
<text text-anchor="start" x="2310.5091" y="-42.4" font-family="sans-serif" font-weight="bold" font-size="14.00" fill="#000000">Legend</text>
<polygon fill="#ffffb3" stroke="transparent" points="2097.5,-10 2097.5,-30 2117.5,-30 2117.5,-10 2097.5,-10"/>
<text text-anchor="start" x="2121.129" y="-15.4" font-family="sans-serif" font-size="14.00" fill="#000000"> &#160;Declarations</text>
<polygon fill="#8dd3c7" stroke="transparent" points="2210.5,-10 2210.5,-30 2230.5,-30 2230.5,-10 2210.5,-10"/>
<text text-anchor="start" x="2234.2251" y="-15.4" font-family="sans-serif" font-size="14.00" fill="#000000"> &#160;Module</text>
<polygon fill="#80b1d3" stroke="transparent" points="2296.5,-10 2296.5,-30 2316.5,-30 2316.5,-10 2296.5,-10"/>
<text text-anchor="start" x="2320.2812" y="-15.4" font-family="sans-serif" font-size="14.00" fill="#000000"> &#160;Bootstrap</text>
<polygon fill="#fdb462" stroke="transparent" points="2393.5,-10 2393.5,-30 2413.5,-30 2413.5,-10 2393.5,-10"/>
<text text-anchor="start" x="2417.1732" y="-15.4" font-family="sans-serif" font-size="14.00" fill="#000000"> &#160;Providers</text>
<polygon fill="#fb8072" stroke="transparent" points="2489.5,-10 2489.5,-30 2509.5,-30 2509.5,-10 2489.5,-10"/>
<text text-anchor="start" x="2513.2258" y="-15.4" font-family="sans-serif" font-size="14.00" fill="#000000"> &#160;Exports</text>
<g id="clust1" class="cluster">
<title>cluster_AppModule</title>
<polygon fill="none" stroke="#000000" stroke-dasharray="1,5" points="8,-70 8,-268 4655,-268 4655,-70 8,-70"/>
</g>
<g id="clust2" class="cluster">
<title>cluster_AppModule_declarations</title>
<polygon fill="none" stroke="#000000" points="1651,-78 1651,-130 4647,-130 4647,-78 1651,-78"/>
</g>
<g id="clust23" class="cluster">
<title>cluster_AppModule_imports</title>
<polygon fill="none" stroke="#000000" points="16,-78 16,-130 1643,-130 1643,-78 16,-78"/>
</g>
<g id="clust25" class="cluster">
<title>cluster_AppModule_bootstrap</title>
<polygon fill="none" stroke="#000000" points="2245,-208 2245,-260 2369,-260 2369,-208 2245,-208"/>
</g>
<!-- AppComponent -->
<g id="node1" class="node">
<title>AppComponent</title>
<polygon fill="#ffffb3" stroke="#000000" points="4638.9399,-122 4533.0601,-122 4533.0601,-86 4638.9399,-86 4638.9399,-122"/>
<text text-anchor="middle" x="4586" y="-99.8" font-family="Times,serif" font-size="14.00" fill="#000000">AppComponent</text>
</g>
<!-- AppModule -->
<g id="node21" class="node">
<title>AppModule</title>
<polygon fill="#8dd3c7" stroke="#000000" points="2348.6571,-187 2345.6571,-191 2324.6571,-191 2321.6571,-187 2265.3429,-187 2265.3429,-151 2348.6571,-151 2348.6571,-187"/>
<text text-anchor="middle" x="2307" y="-164.8" font-family="Times,serif" font-size="14.00" fill="#000000">AppModule</text>
</g>
<!-- AppComponent&#45;&gt;AppModule -->
<g id="edge1" class="edge">
<title>AppComponent&#45;&gt;AppModule</title>
<path fill="none" stroke="#000000" d="M4586,-122.3802C4586,-146.2785 4586,-185 4586,-185 4586,-185 2358.995,-185 2358.995,-185"/>
<polygon fill="#000000" stroke="#000000" points="2358.995,-181.5001 2348.995,-185 2358.9949,-188.5001 2358.995,-181.5001"/>
</g>
<!-- SearchBarComponent -->
<g id="node2" class="node">
<title>SearchBarComponent</title>
<polygon fill="#ffffb3" stroke="#000000" points="4514.6317,-122 4375.3683,-122 4375.3683,-86 4514.6317,-86 4514.6317,-122"/>
<text text-anchor="middle" x="4445" y="-99.8" font-family="Times,serif" font-size="14.00" fill="#000000">SearchBarComponent</text>
</g>
<!-- SearchBarComponent&#45;&gt;AppModule -->
<g id="edge2" class="edge">
<title>SearchBarComponent&#45;&gt;AppModule</title>
<path fill="none" stroke="#000000" d="M4445,-122.3228C4445,-145.6602 4445,-183 4445,-183 4445,-183 2358.7487,-183 2358.7487,-183"/>
<polygon fill="#000000" stroke="#000000" points="2358.7487,-179.5001 2348.7487,-183 2358.7487,-186.5001 2358.7487,-179.5001"/>
</g>
<!-- LogoComponent -->
<g id="node3" class="node">
<title>LogoComponent</title>
<polygon fill="#ffffb3" stroke="#000000" points="4357.3851,-122 4246.6149,-122 4246.6149,-86 4357.3851,-86 4357.3851,-122"/>
<text text-anchor="middle" x="4302" y="-99.8" font-family="Times,serif" font-size="14.00" fill="#000000">LogoComponent</text>
</g>
<!-- LogoComponent&#45;&gt;AppModule -->
<g id="edge3" class="edge">
<title>LogoComponent&#45;&gt;AppModule</title>
<path fill="none" stroke="#000000" d="M4302,-122.2479C4302,-145.0179 4302,-181 4302,-181 4302,-181 2358.6684,-181 2358.6684,-181"/>
<polygon fill="#000000" stroke="#000000" points="2358.6684,-177.5001 2348.6684,-181 2358.6684,-184.5001 2358.6684,-177.5001"/>
</g>
<!-- AboutComponent -->
<g id="node4" class="node">
<title>AboutComponent</title>
<polygon fill="#ffffb3" stroke="#000000" points="4228.3301,-122 4111.6699,-122 4111.6699,-86 4228.3301,-86 4228.3301,-122"/>
<text text-anchor="middle" x="4170" y="-99.8" font-family="Times,serif" font-size="14.00" fill="#000000">AboutComponent</text>
</g>
<!-- AboutComponent&#45;&gt;AppModule -->
<g id="edge4" class="edge">
<title>AboutComponent&#45;&gt;AppModule</title>
<path fill="none" stroke="#000000" d="M4170,-122.2921C4170,-144.2057 4170,-178 4170,-178 4170,-178 2358.9665,-178 2358.9665,-178"/>
<polygon fill="#000000" stroke="#000000" points="2358.9665,-174.5001 2348.9665,-178 2358.9665,-181.5001 2358.9665,-174.5001"/>
</g>
<!-- VisualizeComponent -->
<g id="node5" class="node">
<title>VisualizeComponent</title>
<polygon fill="#ffffb3" stroke="#000000" points="4094.1993,-122 3959.8007,-122 3959.8007,-86 4094.1993,-86 4094.1993,-122"/>
<text text-anchor="middle" x="4027" y="-99.8" font-family="Times,serif" font-size="14.00" fill="#000000">VisualizeComponent</text>
</g>
<!-- VisualizeComponent&#45;&gt;AppModule -->
<g id="edge5" class="edge">
<title>VisualizeComponent&#45;&gt;AppModule</title>
<path fill="none" stroke="#000000" d="M4027,-122.1686C4027,-143.498 4027,-176 4027,-176 4027,-176 2358.6648,-176 2358.6648,-176"/>
<polygon fill="#000000" stroke="#000000" points="2358.6649,-172.5001 2348.6648,-176 2358.6648,-179.5001 2358.6649,-172.5001"/>
</g>
<!-- SimulateComponent -->
<g id="node6" class="node">
<title>SimulateComponent</title>
<polygon fill="#ffffb3" stroke="#000000" points="3941.6066,-122 3810.3934,-122 3810.3934,-86 3941.6066,-86 3941.6066,-122"/>
<text text-anchor="middle" x="3876" y="-99.8" font-family="Times,serif" font-size="14.00" fill="#000000">SimulateComponent</text>
</g>
<!-- SimulateComponent&#45;&gt;AppModule -->
<g id="edge6" class="edge">
<title>SimulateComponent&#45;&gt;AppModule</title>
<path fill="none" stroke="#000000" d="M3876,-122.0267C3876,-142.7672 3876,-174 3876,-174 3876,-174 2358.967,-174 2358.967,-174"/>
<polygon fill="#000000" stroke="#000000" points="2358.967,-170.5001 2348.967,-174 2358.9669,-177.5001 2358.967,-170.5001"/>
</g>
<!-- HomeComponent -->
<g id="node7" class="node">
<title>HomeComponent</title>
<polygon fill="#ffffb3" stroke="#000000" points="3792.5451,-122 3677.4549,-122 3677.4549,-86 3792.5451,-86 3792.5451,-122"/>
<text text-anchor="middle" x="3735" y="-99.8" font-family="Times,serif" font-size="14.00" fill="#000000">HomeComponent</text>
</g>
<!-- HomeComponent&#45;&gt;AppModule -->
<g id="edge7" class="edge">
<title>HomeComponent&#45;&gt;AppModule</title>
<path fill="none" stroke="#000000" d="M3735,-122.2228C3735,-142.3652 3735,-172 3735,-172 3735,-172 2358.964,-172 2358.964,-172"/>
<polygon fill="#000000" stroke="#000000" points="2358.964,-168.5001 2348.964,-172 2358.9639,-175.5001 2358.964,-168.5001"/>
</g>
<!-- VegaViewerComponent -->
<g id="node8" class="node">
<title>VegaViewerComponent</title>
<polygon fill="#ffffb3" stroke="#000000" points="3659.0618,-122 3506.9382,-122 3506.9382,-86 3659.0618,-86 3659.0618,-122"/>
<text text-anchor="middle" x="3583" y="-99.8" font-family="Times,serif" font-size="14.00" fill="#000000">VegaViewerComponent</text>
</g>
<!-- VegaViewerComponent&#45;&gt;AppModule -->
<g id="edge8" class="edge">
<title>VegaViewerComponent&#45;&gt;AppModule</title>
<path fill="none" stroke="#000000" d="M3583,-122.1061C3583,-141.3391 3583,-169 3583,-169 3583,-169 2358.7294,-169 2358.7294,-169"/>
<polygon fill="#000000" stroke="#000000" points="2358.7294,-165.5001 2348.7294,-169 2358.7293,-172.5001 2358.7294,-165.5001"/>
</g>
<!-- FourComponent -->
<g id="node9" class="node">
<title>FourComponent</title>
<polygon fill="#ffffb3" stroke="#000000" points="3488.7758,-122 3381.2242,-122 3381.2242,-86 3488.7758,-86 3488.7758,-122"/>
<text text-anchor="middle" x="3435" y="-99.8" font-family="Times,serif" font-size="14.00" fill="#000000">FourComponent</text>
</g>
<!-- FourComponent&#45;&gt;AppModule -->
<g id="edge9" class="edge">
<title>FourComponent&#45;&gt;AppModule</title>
<path fill="none" stroke="#000000" d="M3435,-122.2222C3435,-140.8285 3435,-167 3435,-167 3435,-167 2358.8214,-167 2358.8214,-167"/>
<polygon fill="#000000" stroke="#000000" points="2358.8215,-163.5001 2348.8214,-167 2358.8214,-170.5001 2358.8215,-163.5001"/>
</g>
<!-- UnderConstructionComponent -->
<g id="node10" class="node">
<title>UnderConstructionComponent</title>
<polygon fill="#ffffb3" stroke="#000000" points="3363.1427,-122 3174.8573,-122 3174.8573,-86 3363.1427,-86 3363.1427,-122"/>
<text text-anchor="middle" x="3269" y="-99.8" font-family="Times,serif" font-size="14.00" fill="#000000">UnderConstructionComponent</text>
</g>
<!-- UnderConstructionComponent&#45;&gt;AppModule -->
<g id="edge10" class="edge">
<title>UnderConstructionComponent&#45;&gt;AppModule</title>
<path fill="none" stroke="#000000" d="M3269,-122.302C3269,-140.2699 3269,-165 3269,-165 3269,-165 2358.9545,-165 2358.9545,-165"/>
<polygon fill="#000000" stroke="#000000" points="2358.9546,-161.5001 2348.9545,-165 2358.9545,-168.5001 2358.9546,-161.5001"/>
</g>
<!-- NavigationComponent -->
<g id="node11" class="node">
<title>NavigationComponent</title>
<polygon fill="#ffffb3" stroke="#000000" points="3156.5407,-122 3013.4593,-122 3013.4593,-86 3156.5407,-86 3156.5407,-122"/>
<text text-anchor="middle" x="3085" y="-99.8" font-family="Times,serif" font-size="14.00" fill="#000000">NavigationComponent</text>
</g>
<!-- NavigationComponent&#45;&gt;AppModule -->
<g id="edge11" class="edge">
<title>NavigationComponent&#45;&gt;AppModule</title>
<path fill="none" stroke="#000000" d="M3085,-122.0225C3085,-139.3734 3085,-163 3085,-163 3085,-163 2358.8287,-163 2358.8287,-163"/>
<polygon fill="#000000" stroke="#000000" points="2358.8287,-159.5001 2348.8287,-163 2358.8286,-166.5001 2358.8287,-159.5001"/>
</g>
<!-- LinksComponent -->
<g id="node12" class="node">
<title>LinksComponent</title>
<polygon fill="#ffffb3" stroke="#000000" points="2995.7204,-122 2882.2796,-122 2882.2796,-86 2995.7204,-86 2995.7204,-122"/>
<text text-anchor="middle" x="2939" y="-99.8" font-family="Times,serif" font-size="14.00" fill="#000000">LinksComponent</text>
</g>
<!-- LinksComponent&#45;&gt;AppModule -->
<g id="edge12" class="edge">
<title>LinksComponent&#45;&gt;AppModule</title>
<path fill="none" stroke="#000000" d="M2939,-122.027C2939,-138.3976 2939,-160 2939,-160 2939,-160 2358.9567,-160 2358.9567,-160"/>
<polygon fill="#000000" stroke="#000000" points="2358.9568,-156.5001 2348.9567,-160 2358.9567,-163.5001 2358.9568,-156.5001"/>
</g>
<!-- CallbackComponent -->
<g id="node13" class="node">
<title>CallbackComponent</title>
<polygon fill="#ffffb3" stroke="#000000" points="2864.594,-122 2733.406,-122 2733.406,-86 2864.594,-86 2864.594,-122"/>
<text text-anchor="middle" x="2799" y="-99.8" font-family="Times,serif" font-size="14.00" fill="#000000">CallbackComponent</text>
</g>
<!-- CallbackComponent&#45;&gt;AppModule -->
<g id="edge13" class="edge">
<title>CallbackComponent&#45;&gt;AppModule</title>
<path fill="none" stroke="#000000" d="M2799,-122.2819C2799,-137.9478 2799,-158 2799,-158 2799,-158 2358.9476,-158 2358.9476,-158"/>
<polygon fill="#000000" stroke="#000000" points="2358.9477,-154.5001 2348.9476,-158 2358.9476,-161.5001 2358.9477,-154.5001"/>
</g>
<!-- ProfileComponent -->
<g id="node14" class="node">
<title>ProfileComponent</title>
<polygon fill="#ffffb3" stroke="#000000" points="2715.9328,-122 2596.0672,-122 2596.0672,-86 2715.9328,-86 2715.9328,-122"/>
<text text-anchor="middle" x="2656" y="-99.8" font-family="Times,serif" font-size="14.00" fill="#000000">ProfileComponent</text>
</g>
<!-- ProfileComponent&#45;&gt;AppModule -->
<g id="edge14" class="edge">
<title>ProfileComponent&#45;&gt;AppModule</title>
<path fill="none" stroke="#000000" d="M2656,-122.1871C2656,-137.1824 2656,-156 2656,-156 2656,-156 2358.7509,-156 2358.7509,-156"/>
<polygon fill="#000000" stroke="#000000" points="2358.7509,-152.5001 2348.7509,-156 2358.7509,-159.5001 2358.7509,-152.5001"/>
</g>
<!-- UploadComponent -->
<g id="node15" class="node">
<title>UploadComponent</title>
<polygon fill="#ffffb3" stroke="#000000" points="2578.045,-122 2455.955,-122 2455.955,-86 2578.045,-86 2578.045,-122"/>
<text text-anchor="middle" x="2517" y="-99.8" font-family="Times,serif" font-size="14.00" fill="#000000">UploadComponent</text>
</g>
<!-- UploadComponent&#45;&gt;AppModule -->
<g id="edge15" class="edge">
<title>UploadComponent&#45;&gt;AppModule</title>
<path fill="none" stroke="#000000" d="M2517,-122.0511C2517,-136.373 2517,-154 2517,-154 2517,-154 2358.7403,-154 2358.7403,-154"/>
<polygon fill="#000000" stroke="#000000" points="2358.7404,-150.5001 2348.7403,-154 2358.7403,-157.5001 2358.7404,-150.5001"/>
</g>
<!-- FileEditComponent -->
<g id="node16" class="node">
<title>FileEditComponent</title>
<polygon fill="#ffffb3" stroke="#000000" points="2438.4454,-122 2311.5546,-122 2311.5546,-86 2438.4454,-86 2438.4454,-122"/>
<text text-anchor="middle" x="2375" y="-99.8" font-family="Times,serif" font-size="14.00" fill="#000000">FileEditComponent</text>
</g>
<!-- FileEditComponent&#45;&gt;AppModule -->
<g id="edge16" class="edge">
<title>FileEditComponent&#45;&gt;AppModule</title>
<path fill="none" stroke="#000000" d="M2330.303,-122.1061C2330.303,-122.1061 2330.303,-140.991 2330.303,-140.991"/>
<polygon fill="#000000" stroke="#000000" points="2326.803,-140.9909 2330.303,-150.991 2333.803,-140.991 2326.803,-140.9909"/>
</g>
<!-- AlertComponent -->
<g id="node17" class="node">
<title>AlertComponent</title>
<polygon fill="#ffffb3" stroke="#000000" points="2294.0954,-122 2183.9046,-122 2183.9046,-86 2294.0954,-86 2294.0954,-122"/>
<text text-anchor="middle" x="2239" y="-99.8" font-family="Times,serif" font-size="14.00" fill="#000000">AlertComponent</text>
</g>
<!-- AlertComponent&#45;&gt;AppModule -->
<g id="edge17" class="edge">
<title>AlertComponent&#45;&gt;AppModule</title>
<path fill="none" stroke="#000000" d="M2279.6098,-122.1061C2279.6098,-122.1061 2279.6098,-140.991 2279.6098,-140.991"/>
<polygon fill="#000000" stroke="#000000" points="2276.1098,-140.9909 2279.6098,-150.991 2283.1098,-140.991 2276.1098,-140.9909"/>
</g>
<!-- NewSimulationComponent -->
<g id="node18" class="node">
<title>NewSimulationComponent</title>
<polygon fill="#ffffb3" stroke="#000000" points="2165.7105,-122 1996.2895,-122 1996.2895,-86 2165.7105,-86 2165.7105,-122"/>
<text text-anchor="middle" x="2081" y="-99.8" font-family="Times,serif" font-size="14.00" fill="#000000">NewSimulationComponent</text>
</g>
<!-- NewSimulationComponent&#45;&gt;AppModule -->
<g id="edge18" class="edge">
<title>NewSimulationComponent&#45;&gt;AppModule</title>
<path fill="none" stroke="#000000" d="M2081,-122.0511C2081,-136.373 2081,-154 2081,-154 2081,-154 2255.2847,-154 2255.2847,-154"/>
<polygon fill="#000000" stroke="#000000" points="2255.2848,-157.5001 2265.2847,-154 2255.2847,-150.5001 2255.2848,-157.5001"/>
</g>
<!-- PastSimulationComponent -->
<g id="node19" class="node">
<title>PastSimulationComponent</title>
<polygon fill="#ffffb3" stroke="#000000" points="1978.115,-122 1811.885,-122 1811.885,-86 1978.115,-86 1978.115,-122"/>
<text text-anchor="middle" x="1895" y="-99.8" font-family="Times,serif" font-size="14.00" fill="#000000">PastSimulationComponent</text>
</g>
<!-- PastSimulationComponent&#45;&gt;AppModule -->
<g id="edge19" class="edge">
<title>PastSimulationComponent&#45;&gt;AppModule</title>
<path fill="none" stroke="#000000" d="M1895,-122.1871C1895,-137.1824 1895,-156 1895,-156 1895,-156 2255.2279,-156 2255.2279,-156"/>
<polygon fill="#000000" stroke="#000000" points="2255.228,-159.5001 2265.2279,-156 2255.2279,-152.5001 2255.228,-159.5001"/>
</g>
<!-- FileTableComponent -->
<g id="node20" class="node">
<title>FileTableComponent</title>
<polygon fill="#ffffb3" stroke="#000000" points="1793.4832,-122 1658.5168,-122 1658.5168,-86 1793.4832,-86 1793.4832,-122"/>
<text text-anchor="middle" x="1726" y="-99.8" font-family="Times,serif" font-size="14.00" fill="#000000">FileTableComponent</text>
</g>
<!-- FileTableComponent&#45;&gt;AppModule -->
<g id="edge20" class="edge">
<title>FileTableComponent&#45;&gt;AppModule</title>
<path fill="none" stroke="#000000" d="M1726,-122.2819C1726,-137.9478 1726,-158 1726,-158 1726,-158 2255.2159,-158 2255.2159,-158"/>
<polygon fill="#000000" stroke="#000000" points="2255.2159,-161.5001 2265.2159,-158 2255.2159,-154.5001 2255.2159,-161.5001"/>
</g>
<!-- AppComponent  -->
<g id="node34" class="node">
<title>AppComponent </title>
<polygon fill="#80b1d3" stroke="#000000" points="2361.439,-252 2252.561,-252 2252.561,-216 2361.439,-216 2361.439,-252"/>
<text text-anchor="middle" x="2307" y="-229.8" font-family="Times,serif" font-size="14.00" fill="#000000">AppComponent </text>
</g>
<!-- AppModule&#45;&gt;AppComponent  -->
<g id="edge33" class="edge">
<title>AppModule&#45;&gt;AppComponent </title>
<path fill="none" stroke="#000000" stroke-dasharray="1,5" d="M2307,-187.1061C2307,-187.1061 2307,-205.991 2307,-205.991"/>
<polygon fill="#000000" stroke="#000000" points="2303.5001,-205.9909 2307,-215.991 2310.5001,-205.991 2303.5001,-205.9909"/>
</g>
<!-- BrowserModule -->
<g id="node22" class="node">
<title>BrowserModule</title>
<polygon fill="#8dd3c7" stroke="#000000" points="1635.4734,-122 1632.4734,-126 1611.4734,-126 1608.4734,-122 1528.5266,-122 1528.5266,-86 1635.4734,-86 1635.4734,-122"/>
<text text-anchor="middle" x="1582" y="-99.8" font-family="Times,serif" font-size="14.00" fill="#000000">BrowserModule</text>
</g>
<!-- BrowserModule&#45;&gt;AppModule -->
<g id="edge21" class="edge">
<title>BrowserModule&#45;&gt;AppModule</title>
<path fill="none" stroke="#000000" d="M1582,-122.027C1582,-138.3976 1582,-160 1582,-160 1582,-160 2255.1524,-160 2255.1524,-160"/>
<polygon fill="#000000" stroke="#000000" points="2255.1525,-163.5001 2265.1524,-160 2255.1524,-156.5001 2255.1525,-163.5001"/>
</g>
<!-- AppRoutingModule -->
<g id="node23" class="node">
<title>AppRoutingModule</title>
<polygon fill="#8dd3c7" stroke="#000000" points="1510.2744,-122 1507.2744,-126 1486.2744,-126 1483.2744,-122 1381.7256,-122 1381.7256,-86 1510.2744,-86 1510.2744,-122"/>
<text text-anchor="middle" x="1446" y="-99.8" font-family="Times,serif" font-size="14.00" fill="#000000">AppRoutingModule</text>
</g>
<!-- AppRoutingModule&#45;&gt;AppModule -->
<g id="edge22" class="edge">
<title>AppRoutingModule&#45;&gt;AppModule</title>
<path fill="none" stroke="#000000" d="M1446,-122.0225C1446,-139.3734 1446,-163 1446,-163 1446,-163 2255.1812,-163 2255.1812,-163"/>
<polygon fill="#000000" stroke="#000000" points="2255.1812,-166.5001 2265.1812,-163 2255.1812,-159.5001 2255.1812,-166.5001"/>
</g>
<!-- BrowserAnimationsModule -->
<g id="node24" class="node">
<title>BrowserAnimationsModule</title>
<polygon fill="#8dd3c7" stroke="#000000" points="1363.3019,-122 1360.3019,-126 1339.3019,-126 1336.3019,-122 1190.6981,-122 1190.6981,-86 1363.3019,-86 1363.3019,-122"/>
<text text-anchor="middle" x="1277" y="-99.8" font-family="Times,serif" font-size="14.00" fill="#000000">BrowserAnimationsModule</text>
</g>
<!-- BrowserAnimationsModule&#45;&gt;AppModule -->
<g id="edge23" class="edge">
<title>BrowserAnimationsModule&#45;&gt;AppModule</title>
<path fill="none" stroke="#000000" d="M1277,-122.302C1277,-140.2699 1277,-165 1277,-165 1277,-165 2255.0254,-165 2255.0254,-165"/>
<polygon fill="#000000" stroke="#000000" points="2255.0254,-168.5001 2265.0254,-165 2255.0253,-161.5001 2255.0254,-168.5001"/>
</g>
<!-- FormsModule -->
<g id="node25" class="node">
<title>FormsModule</title>
<polygon fill="#8dd3c7" stroke="#000000" points="1172.8288,-122 1169.8288,-126 1148.8288,-126 1145.8288,-122 1077.1712,-122 1077.1712,-86 1172.8288,-86 1172.8288,-122"/>
<text text-anchor="middle" x="1125" y="-99.8" font-family="Times,serif" font-size="14.00" fill="#000000">FormsModule</text>
</g>
<!-- FormsModule&#45;&gt;AppModule -->
<g id="edge24" class="edge">
<title>FormsModule&#45;&gt;AppModule</title>
<path fill="none" stroke="#000000" d="M1125,-122.2222C1125,-140.8285 1125,-167 1125,-167 1125,-167 2255.2792,-167 2255.2792,-167"/>
<polygon fill="#000000" stroke="#000000" points="2255.2792,-170.5001 2265.2792,-167 2255.2791,-163.5001 2255.2792,-170.5001"/>
</g>
<!-- HttpClientModule -->
<g id="node26" class="node">
<title>HttpClientModule</title>
<polygon fill="#8dd3c7" stroke="#000000" points="1059.1611,-122 1056.1611,-126 1035.1611,-126 1032.1611,-122 940.8389,-122 940.8389,-86 1059.1611,-86 1059.1611,-122"/>
<text text-anchor="middle" x="1000" y="-99.8" font-family="Times,serif" font-size="14.00" fill="#000000">HttpClientModule</text>
</g>
<!-- HttpClientModule&#45;&gt;AppModule -->
<g id="edge25" class="edge">
<title>HttpClientModule&#45;&gt;AppModule</title>
<path fill="none" stroke="#000000" d="M1000,-122.1061C1000,-141.3391 1000,-169 1000,-169 1000,-169 2254.9941,-169 2254.9941,-169"/>
<polygon fill="#000000" stroke="#000000" points="2254.9941,-172.5001 2264.9941,-169 2254.994,-165.5001 2254.9941,-172.5001"/>
</g>
<!-- MaterialModule -->
<g id="node27" class="node">
<title>MaterialModule</title>
<polygon fill="#8dd3c7" stroke="#000000" points="922.4706,-122 919.4706,-126 898.4706,-126 895.4706,-122 815.5294,-122 815.5294,-86 922.4706,-86 922.4706,-122"/>
<text text-anchor="middle" x="869" y="-99.8" font-family="Times,serif" font-size="14.00" fill="#000000">MaterialModule</text>
</g>
<!-- MaterialModule&#45;&gt;AppModule -->
<g id="edge26" class="edge">
<title>MaterialModule&#45;&gt;AppModule</title>
<path fill="none" stroke="#000000" d="M869,-122.2228C869,-142.3652 869,-172 869,-172 869,-172 2255.129,-172 2255.129,-172"/>
<polygon fill="#000000" stroke="#000000" points="2255.1291,-175.5001 2265.129,-172 2255.129,-168.5001 2255.1291,-175.5001"/>
</g>
<!-- LayoutModule -->
<g id="node28" class="node">
<title>LayoutModule</title>
<polygon fill="#8dd3c7" stroke="#000000" points="797.7078,-122 794.7078,-126 773.7078,-126 770.7078,-122 698.2922,-122 698.2922,-86 797.7078,-86 797.7078,-122"/>
<text text-anchor="middle" x="748" y="-99.8" font-family="Times,serif" font-size="14.00" fill="#000000">LayoutModule</text>
</g>
<!-- LayoutModule&#45;&gt;AppModule -->
<g id="edge27" class="edge">
<title>LayoutModule&#45;&gt;AppModule</title>
<path fill="none" stroke="#000000" d="M748,-122.0267C748,-142.7672 748,-174 748,-174 748,-174 2255.3005,-174 2255.3005,-174"/>
<polygon fill="#000000" stroke="#000000" points="2255.3006,-177.5001 2265.3005,-174 2255.3005,-170.5001 2255.3006,-177.5001"/>
</g>
<!-- MatToolbarModule -->
<g id="node29" class="node">
<title>MatToolbarModule</title>
<polygon fill="#8dd3c7" stroke="#000000" points="680.4187,-122 677.4187,-126 656.4187,-126 653.4187,-122 553.5813,-122 553.5813,-86 680.4187,-86 680.4187,-122"/>
<text text-anchor="middle" x="617" y="-99.8" font-family="Times,serif" font-size="14.00" fill="#000000">MatToolbarModule</text>
</g>
<!-- MatToolbarModule&#45;&gt;AppModule -->
<g id="edge28" class="edge">
<title>MatToolbarModule&#45;&gt;AppModule</title>
<path fill="none" stroke="#000000" d="M617,-122.1686C617,-143.498 617,-176 617,-176 617,-176 2255.2245,-176 2255.2245,-176"/>
<polygon fill="#000000" stroke="#000000" points="2255.2245,-179.5001 2265.2245,-176 2255.2245,-172.5001 2255.2245,-179.5001"/>
</g>
<!-- MatButtonModule -->
<g id="node30" class="node">
<title>MatButtonModule</title>
<polygon fill="#8dd3c7" stroke="#000000" points="536.2176,-122 533.2176,-126 512.2176,-126 509.2176,-122 415.7824,-122 415.7824,-86 536.2176,-86 536.2176,-122"/>
<text text-anchor="middle" x="476" y="-99.8" font-family="Times,serif" font-size="14.00" fill="#000000">MatButtonModule</text>
</g>
<!-- MatButtonModule&#45;&gt;AppModule -->
<g id="edge29" class="edge">
<title>MatButtonModule&#45;&gt;AppModule</title>
<path fill="none" stroke="#000000" d="M476,-122.2921C476,-144.2057 476,-178 476,-178 476,-178 2255.3168,-178 2255.3168,-178"/>
<polygon fill="#000000" stroke="#000000" points="2255.3168,-181.5001 2265.3168,-178 2255.3167,-174.5001 2255.3168,-181.5001"/>
</g>
<!-- MatSidenavModule -->
<g id="node31" class="node">
<title>MatSidenavModule</title>
<polygon fill="#8dd3c7" stroke="#000000" points="397.7022,-122 394.7022,-126 373.7022,-126 370.7022,-122 270.2978,-122 270.2978,-86 397.7022,-86 397.7022,-122"/>
<text text-anchor="middle" x="334" y="-99.8" font-family="Times,serif" font-size="14.00" fill="#000000">MatSidenavModule</text>
</g>
<!-- MatSidenavModule&#45;&gt;AppModule -->
<g id="edge30" class="edge">
<title>MatSidenavModule&#45;&gt;AppModule</title>
<path fill="none" stroke="#000000" d="M334,-122.2479C334,-145.0179 334,-181 334,-181 334,-181 2255.3359,-181 2255.3359,-181"/>
<polygon fill="#000000" stroke="#000000" points="2255.3359,-184.5001 2265.3359,-181 2255.3358,-177.5001 2255.3359,-184.5001"/>
</g>
<!-- MatIconModule -->
<g id="node32" class="node">
<title>MatIconModule</title>
<polygon fill="#8dd3c7" stroke="#000000" points="252.4748,-122 249.4748,-126 228.4748,-126 225.4748,-122 145.5252,-122 145.5252,-86 252.4748,-86 252.4748,-122"/>
<text text-anchor="middle" x="199" y="-99.8" font-family="Times,serif" font-size="14.00" fill="#000000">MatIconModule</text>
</g>
<!-- MatIconModule&#45;&gt;AppModule -->
<g id="edge31" class="edge">
<title>MatIconModule&#45;&gt;AppModule</title>
<path fill="none" stroke="#000000" d="M199,-122.3228C199,-145.6602 199,-183 199,-183 199,-183 2254.8919,-183 2254.8919,-183"/>
<polygon fill="#000000" stroke="#000000" points="2254.8919,-186.5001 2264.8919,-183 2254.8919,-179.5001 2254.8919,-186.5001"/>
</g>
<!-- MatListModule -->
<g id="node33" class="node">
<title>MatListModule</title>
<polygon fill="#8dd3c7" stroke="#000000" points="127.8781,-122 124.8781,-126 103.8781,-126 100.8781,-122 24.1219,-122 24.1219,-86 127.8781,-86 127.8781,-122"/>
<text text-anchor="middle" x="76" y="-99.8" font-family="Times,serif" font-size="14.00" fill="#000000">MatListModule</text>
</g>
<!-- MatListModule&#45;&gt;AppModule -->
<g id="edge32" class="edge">
<title>MatListModule&#45;&gt;AppModule</title>
<path fill="none" stroke="#000000" d="M76,-122.3802C76,-146.2785 76,-185 76,-185 76,-185 2254.9158,-185 2254.9158,-185"/>
<polygon fill="#000000" stroke="#000000" points="2254.9159,-188.5001 2264.9158,-185 2254.9158,-181.5001 2254.9159,-188.5001"/>
</g>
</g>
</svg>
