<?xml version="1.0" encoding="utf-8"?>
<!-- Generator: Adobe Illustrator 16.0.0, SVG Export Plug-In . SVG Version: 6.00 Build 0)  -->
<!DOCTYPE svg PUBLIC "-//W3C//DTD SVG 1.1//EN" "http://www.w3.org/Graphics/SVG/1.1/DTD/svg11.dtd">
<svg version="1.1" id="Layer_1" xmlns="http://www.w3.org/2000/svg" xmlns:xlink="http://www.w3.org/1999/xlink" x="0px" y="0px"
	 width="1600px" height="1600px" viewBox="0 0 1600 1600" enable-background="new 0 0 1600 1600" xml:space="preserve">
<path fill="#FF9800" d="M1559.070313,524.421875c0,75.78125-62.015625,137.890625-137.796875,137.890625
	c-12.398438,0-24.117188-1.367188-35.25-4.789063l-245.40625,244.625c3.617188,11.132813,5.078125,23.4375,5.078125,35.9375
	c0,75.679688-62.101563,137.695313-137.882813,137.695313s-137.890625-62.015625-137.890625-137.695313
	c0-12.5,1.367188-24.804688,4.882813-35.9375L699.03125,726.375c-11.039063,3.515625-23.4375,4.882813-35.84375,4.882813
	c-12.398438,0-24.804688-1.367188-35.835938-4.882813l-313.570313,314.25c3.421875,11.132813,4.789063,22.75,4.789063,35.15625
	c0,75.773438-61.914063,137.882813-137.695313,137.882813c-75.875,0-137.882813-62.109375-137.882813-137.882813
	C42.992188,1000,105,938.085938,180.875,938.085938c12.304688,0,24.023438,1.171875,34.960938,4.6875l314.25-313.46875
	c-3.320313-11.132813-4.78125-23.4375-4.78125-35.9375c0-75.78125,62.007813-137.882813,137.882813-137.882813
	c75.78125,0,137.789063,62.101563,137.789063,137.882813c0,12.5-1.367188,24.804688-4.78125,35.9375L971.96875,804.984375
	c11.039063-3.421875,23.34375-4.789063,35.84375-4.789063c12.304688,0,24.609375,1.367188,35.742188,4.789063l244.71875-245.40625
	c-3.515625-10.9375-4.789063-22.65625-4.789063-35.15625c0-75.773438,62.015625-137.789063,137.789063-137.789063
	C1497.054688,386.632813,1559.070313,448.648438,1559.070313,524.421875z"/>
<path fill="#2196F3" d="M352.257813,1076.851563c0,95.898438-77.632813,173.632813-173.625,173.632813
	C82.734375,1250.484375,5,1172.75,5,1076.851563c0-95.796875,77.734375-173.53125,173.632813-173.53125
	C274.625,903.320313,352.257813,981.054688,352.257813,1076.851563z"/>
<path fill="#2196F3" d="M836.132813,592.976563c0,95.992188-77.726563,173.726563-173.625,173.726563
	c-95.992188,0-173.632813-77.734375-173.632813-173.726563c0-95.796875,77.640625-173.53125,173.632813-173.53125
	C758.40625,419.445313,836.132813,497.179688,836.132813,592.976563z"/>
<path fill="#2196F3" d="M1180.65625,937.5c0,95.992188-77.734375,173.625-173.625,173.625
	c-95.992188,0-173.726563-77.632813-173.726563-173.625c0-95.796875,77.734375-173.625,173.726563-173.625
	C1102.921875,763.875,1180.65625,841.703125,1180.65625,937.5z"/>
<path fill="#2196F3" d="M1595,523.15625c0,95.796875-77.726563,173.53125-173.625,173.53125
	c-95.796875,0-173.53125-77.734375-173.53125-173.53125c0-95.898438,77.734375-173.632813,173.53125-173.632813
	C1517.273438,349.523438,1595,427.257813,1595,523.15625z"/>
</svg>
