<svg xmlns="http://www.w3.org/2000/svg" viewBox="0 0 183.914 178.56">
    <style>
        .fill-primary{fill:#1890ff}.fill-accent{fill:#ffc306}
    </style>
    <link xmlns="http://www.w3.org/1999/xhtml" rel="preload" href="/images.css" as="style"/>
    <link xmlns="http://www.w3.org/1999/xhtml" rel="stylesheet" href="/images.css" type="text/css"/>
    <path class="fill-primary" d="M89.912 10.78l1.664 9.83.638-.105.345 2.03-.395.067c-.394.068-.493.597-.396 1.524l-1.036.175-2.251-13.278 1.431-.243zm10.068.954l-.478 9.175.472.024-.099 1.9-.291-.018c-.292-.012-.451.447-.543 1.297l-.763-.037.645-12.396 1.056.055zM65.13 8.366l3.826 4.985.644-.49.789 1.03-.397.306c-.398.307-.386.699-.092 1.211l-1.042.8-5.62-7.293 1.891-.549zM16.884 40.231l8.98.397.05-1.173 1.858.082-.033.728c-.031.723.408 1.076 1.243 1.228l-.083 1.893-12.13-.534.115-2.621zM94.458 1.493l.676 6.252.613-.066.141 1.291-.381.04c-.378.043-.52.381-.516.968l-.991.107-.912-8.445 1.37-.147zm19.098 3.234l-1.296 5.168.28 1.267-.27 1.071-.347-.086c-.346-.087-.571.135-.743.604l-.908-.228 1.928-8.12 1.356.324zm-5.963 9.587l-1.813 7.648.451.107-.372 1.581-.281-.066c-.281-.066-.5.291-.714.994l-.735-.174 2.449-10.33 1.015.24zm43.114 31.213l-4.314 2.961.264.383-.892.616-.165-.24c-.16-.237-.455-.194-.88.046l-.429-.624 5.825-4.002.591.86zM41.942 153.898c-2.048-1.667-1.978-4.465.08-6.99l6.968-8.55c2.078-2.551 4.783-3.162 6.83-1.487 2.068 1.682 1.998 4.439-.078 6.984l-6.97 8.553c-2.057 2.525-4.762 3.174-6.83 1.49m11.306-12.4c.396-.491.432-1.033-.044-1.42-.452-.37-1-.242-1.4.247l-7.267 8.916c-.4.493-.432 1.077.02 1.448.475.385 1.023.217 1.42-.272l7.27-8.92zm9.608-.334l11.728-18.42-2.63-1.722 2.425-3.805 1.629 1.063c1.625 1.062 2.972.617 4.316-.933l4.256 2.779-15.842 24.883-5.882-3.845zm26.165-21.569l8.087-14.387-1.211-.7 1.672-2.977.75.435c.754.434 1.51-.097 2.38-1.37l1.961 1.14-10.924 19.43-2.715-1.571zm-83.29-26.49l12.081-4.8-.543-1.41 2.503-.995.332.874c.336.87 1.105 1.028 2.282.717l.875 2.28-17.31 6.91-.22-3.576zm58.956 72.598l7.098-12.45-1.057-.623 1.472-2.573.652.384c.655.382 1.317-.07 2.078-1.174l1.71 1.006-9.592 16.818-2.361-1.388zM17.654 127.55l12.619-9.975-.885-1.15 2.61-2.065.548.713c.546.711 1.441.534 2.703-.288l1.433 1.86-17.045 13.479-1.983-2.573zm133.222-5.626l-6.725-13.477-1.276.618-1.393-2.79.793-.378c.788-.381.81-1.242.305-2.558l2.064-.998 9.087 18.205-2.855 1.378zm12.484-13.734l-10.611-8.556-.755.919-2.194-1.77.471-.566c.468-.568.144-1.262-.774-2.146l1.228-1.483 14.33 11.55-1.695 2.051zm17.7-19.975l-6.946-.581-.118 1.181-1.252-.105.072-.731c.074-.736-.2-1.1-.754-1.26l.19-1.911 8.177.7.631 2.707zm-13.431 39.787l-6.682-8.588-1.082.818-1.382-1.773.669-.507c.672-.513.638-1.182.12-2.062l1.752-1.326 9.026 11.601-2.421 1.837zM60.84 94.086l12.016-9.075-.776-1.06 2.483-1.877.482.655c.482.653 1.314.493 2.505-.252l1.259 1.71L62.576 96.45l-1.736-2.364zM45.76 61.334l14.513-4.022-.332-1.266 3.003-.833.209.788c.205.783 1.038.942 2.42.686l.542 2.054-19.61 5.428-.745-2.835zm7.98-33.319l11.962 6.43.557-1.001 2.473 1.326-.346.62c-.342.622.108 1.234 1.172 1.93l-.9 1.62-16.16-8.682 1.242-2.243zm11.18-9.05l8.329 7.911.683-.7 1.724 1.636-.421.434c-.424.435-.197 1.038.516 1.84l-1.11 1.135-11.25-10.686 1.528-1.57zM22.27 76.864l16.864-5.237-.582-1.958 3.488-1.083.36 1.211c.361 1.213 1.385 1.507 3.011 1.204l.944 3.17-22.782 7.068-1.303-4.375zm12.409-47.976l11.956 3.96.394-1.156 2.472.82-.246.718c-.244.713.25 1.245 1.328 1.724l-.64 1.87-17.326-5.614 2.062-2.322zM85.25 151.653l8.36-19.517-2.798-1.23 1.73-4.037 1.732.76c1.733.756 2.954.116 4-1.583l4.526 1.981-11.293 26.368-6.257-2.742zm61.746-2.963l-4.13-15.783-1.857.478-.852-3.266 1.147-.296c1.146-.295 1.469-1.233 1.26-2.752l3.002-.777 5.578 21.323-4.148 1.073zm18.943-82.877l-9.552 2.633.215.771-1.976.544-.135-.48c-.134-.472-.677-.556-1.587-.388l-.35-1.246 12.904-3.558.481 1.724zm-8.743-16.018l-6.6 4.01.224.373-1.361.829-.142-.228c-.142-.234-.544-.134-1.181.203l-.37-.601 8.918-5.42.512.834zm15.367 8.675l-5.053 1.799.236.645-.88.323-.146-.397c-.149-.397-.433-.501-.853-.417l-.39-1.038 6.55-2.353.536 1.438zm-5.2-8.575l-4.476 1.837.263.635-.925.382-.162-.39c-.165-.392-.466-.48-.91-.373l-.426-1.02 6.046-2.488.59 1.417zm-5.633-8.185l-4.66 2.672.263.459-.961.552-.168-.283c-.163-.284-.474-.278-.934-.075l-.428-.74 6.295-3.61.593 1.026zm.88 15.21l-8.452 3.274.2.514-1.748.679-.125-.318c-.123-.319-.611-.298-1.417-.045l-.325-.83 11.416-4.421.451 1.147zm-43.937 100.342c-4.201-.443-6.665-3.493-6.281-7.573l1.294-13.8c.386-4.114 3.364-6.556 7.562-6.116 4.24.444 6.667 3.453 6.28 7.57l-1.291 13.796c-.381 4.078-3.324 6.564-7.564 6.123m3.444-20.807c.072-.796-.383-1.396-1.354-1.5-.934-.096-1.53.397-1.604 1.186l-1.347 14.395c-.075.792.412 1.444 1.346 1.545.971.097 1.533-.444 1.607-1.233l1.352-14.393zM23.666 54.483c.045-2.865 2.006-4.715 4.848-4.706l9.638.033c2.87.015 4.747 1.878 4.702 4.74-.043 2.891-1.977 4.715-4.845 4.706l-9.637-.035c-2.846-.01-4.749-1.845-4.706-4.738m14.62 1.06c.549 0 .943-.342.951-1.005.011-.636-.369-1.009-.92-1.009l-10.05-.037c-.553-.003-.973.368-.982 1.004-.01.663.397 1.008.95 1.01l10.05.037zm-9.586 48.79c-2.31-3.91-1.23-8.008 2.558-10.305l12.835-7.772c3.824-2.316 7.858-1.317 10.167 2.6 2.328 3.948 1.266 7.986-2.558 10.305l-12.835 7.77c-3.79 2.297-7.836 1.357-10.166-2.598m20.304-10.428c.735-.442.97-1.223.438-2.132-.517-.87-1.326-1.066-2.064-.622L33.994 99.26c-.738.443-.988 1.288-.476 2.157.536.904 1.363 1.044 2.098.599l13.389-8.11zm-4.681 34.346c-3.504-3.472-3.476-8.088-.091-11.571l11.462-11.805c3.415-3.517 7.95-3.6 11.455-.129 3.535 3.503 3.509 8.05.09 11.57l-11.458 11.801c-3.384 3.485-7.92 3.639-11.458.134m18.642-16.706c.653-.677.691-1.567-.12-2.368-.777-.772-1.69-.75-2.346-.073l-11.958 12.311c-.653.676-.693 1.633.084 2.404.813.806 1.729.71 2.383.037l11.957-12.311zm11.397-2.371c-2.07-1.815-1.948-4.694.21-7.21l7.304-8.522c2.178-2.54 4.964-3.053 7.031-1.24 2.091 1.82 1.97 4.666-.21 7.205l-7.302 8.524c-2.16 2.513-4.945 3.066-7.033 1.243m11.823-12.308c.417-.489.46-1.049-.02-1.47-.457-.4-1.019-.293-1.437.196l-7.622 8.888c-.416.489-.464 1.09-.003 1.493.48.418 1.044.268 1.463-.218l7.619-8.889zM52.608 80.147c-1.29-2.449-.311-5.015 2.357-6.454l9.043-4.88c2.689-1.455 5.315-.83 6.608 1.621 1.299 2.469.34 5-2.359 6.454l-9.04 4.879c-2.668 1.438-5.305.854-6.61-1.62m14.188-6.549c.517-.277.724-.767.426-1.335-.287-.541-.817-.667-1.333-.389l-9.431 5.09c-.517.283-.739.808-.453 1.351.3.57.845.652 1.361.373l9.43-5.09zM46.37 44.836c.355-2.377 2.563-3.641 5.477-3.24l9.855 1.377c2.937.408 4.654 2.221 4.3 4.598-.36 2.4-2.537 3.648-5.472 3.237l-9.86-1.373c-2.908-.405-4.659-2.198-4.3-4.599m14.848 2.922c.565.08 1.004-.152 1.085-.7.077-.53-.274-.89-.838-.973l-10.28-1.432c-.566-.08-1.031.172-1.112.7-.083.549.299.894.864.974l10.28 1.43zM51.023 17.16c1.118-1.441 2.783-1.66 4.169-.606l4.695 3.565c1.398 1.063 1.6 2.702.486 4.143-1.127 1.454-2.77 1.67-4.17.609l-4.694-3.568c-1.385-1.05-1.614-2.69-.486-4.142m6.738 5.923c.266.205.591.174.85-.161.245-.32.204-.65-.063-.855l-4.9-3.716c-.267-.206-.614-.171-.863.149-.258.332-.19.66.076.865l4.9 3.718zm17.859-9.735c1.203-.756 2.806.03 4.018 1.912l4.097 6.375c1.224 1.9 1.252 3.649.05 4.405-1.217.763-2.798-.014-4.02-1.913l-4.096-6.373c-1.21-1.882-1.264-3.643-.048-4.406m5.803 9.945c.234.365.54.53.82.356.27-.17.261-.524.026-.886l-4.276-6.649c-.232-.365-.567-.543-.834-.374-.28.177-.246.54-.013.906l4.277 6.647zm-.702-20.772c1.092-.368 2.11.29 2.572 1.614l1.566 4.482c.467 1.336.068 2.46-1.02 2.828-1.098.372-2.103-.28-2.57-1.615l-1.567-4.48c-.462-1.324-.079-2.457 1.019-2.829m1.995 6.936c.09.255.285.39.533.306.246-.081.324-.31.233-.566L81.85 4.524c-.088-.257-.296-.402-.537-.322-.253.088-.32.325-.229.58l1.634 4.676zm22.007-6.748c.536.082.757 1.047.572 2.394l-.63 4.557c-.19 1.357-.663 2.204-1.199 2.122-.54-.084-.761-1.037-.57-2.393l.63-4.555c.186-1.347.655-2.209 1.197-2.125m-1.146 6.89c-.036.26.002.453.125.473.123.02.214-.155.253-.414l.655-4.752c.039-.262-.006-.466-.125-.486-.121-.019-.216.168-.25.427l-.658 4.753zm-4.449 162.002c-2.292-.533-3.409-2.536-2.867-4.978l1.837-8.278c.546-2.462 2.392-3.755 4.68-3.224 2.314.534 3.413 2.513 2.867 4.977l-1.834 8.278c-.543 2.442-2.374 3.76-4.683 3.225m3.59-12.383c.105-.474-.097-.87-.625-.989-.511-.12-.883.142-.985.617l-1.914 8.63c-.106.477.112.9.62 1.02.532.121.886-.17.99-.642l1.914-8.636zm33.426 3.642c-2.145.136-3.625-.989-3.76-2.772l-.445-6.047c-.134-1.803 1.17-3.09 3.319-3.226 2.17-.138 3.63.97 3.761 2.773l.447 6.047c.132 1.784-1.151 3.086-3.322 3.225m.083-9.234c-.028-.345-.304-.571-.802-.54-.477.031-.736.292-.713.638l.468 6.303c.023.348.32.592.799.562.498-.034.736-.309.71-.655l-.462-6.308zm-26.117-26.459c-2.67-.651-3.888-3.264-3.134-6.49l2.558-10.934c.763-3.255 2.996-4.994 5.667-4.343 2.697.66 3.895 3.24 3.136 6.494l-2.556 10.933c-.754 3.227-2.975 5-5.67 4.34m4.823-16.365c.146-.63-.075-1.143-.69-1.298-.598-.145-1.043.21-1.19.835l-2.667 11.404c-.146.622.09 1.179.684 1.325.62.149 1.05-.243 1.197-.87l2.666-11.396zm17.802 17.474c-2.742.193-4.702-1.922-4.969-5.23l-.91-11.187c-.27-3.33 1.331-5.672 4.07-5.864 2.768-.197 4.698 1.889 4.971 5.225l.908 11.187c.27 3.305-1.3 5.672-4.07 5.87m-.414-17.061c-.05-.644-.419-1.065-1.053-1.02-.609.041-.929.516-.878 1.157l.948 11.67c.05.64.447 1.096 1.056 1.052.637-.045.926-.55.876-1.19l-.949-11.67zm38.655-16.452c-.928 1.922-3.226 2.375-5.715 1.208l-8.442-3.961c-2.518-1.184-3.587-3.214-2.659-5.139.94-1.942 3.198-2.388 5.713-1.206l8.443 3.962c2.492 1.17 3.593 3.192 2.66 5.136m-12.496-6.697c-.485-.225-.934-.153-1.152.292-.205.427.013.84.496 1.063l8.806 4.136c.486.223.97.146 1.175-.285.215-.444-.04-.844-.523-1.073l-8.802-4.133zm13.334-10.386c-.102 2.024-1.948 3.27-4.575 3.169l-8.898-.346c-2.653-.102-4.349-1.486-4.25-3.511.1-2.048 1.923-3.273 4.574-3.172l8.9.347c2.63.101 4.35 1.467 4.25 3.513m-13.481-1.238c-.51-.022-.88.21-.901.677-.023.453.32.73.83.748l9.28.36c.511.019.91-.228.93-.68.023-.467-.348-.725-.858-.747l-9.281-.358zm21.408 30.909c-.836 1.65-2.354 2.237-3.79 1.526l-4.863-2.4c-1.447-.714-1.865-2.262-1.03-3.914.844-1.665 2.34-2.247 3.786-1.529l4.863 2.406c1.438.707 1.878 2.242 1.034 3.912m-7.093-4.233c-.275-.136-.573-.035-.765.348-.186.365-.102.677.176.814l5.076 2.508c.277.135.593.026.78-.34.196-.385.085-.686-.194-.821l-5.073-2.509zM5.544 68.727c-.49-2.338.759-4.198 3.071-4.707l7.833-1.736c2.333-.52 4.203.654 4.696 2.988.497 2.355-.737 4.19-3.07 4.71l-7.83 1.734c-2.315.512-4.2-.631-4.7-2.989m12.072-1.813c.447-.103.702-.45.588-.992-.114-.52-.49-.75-.936-.656l-8.17 1.814c-.448.1-.721.477-.612.994.114.541.51.745.958.651l8.172-1.811zm158.884 2.92c-.041 1.022-.655 1.664-1.518 1.624l-2.925-.13c-.87-.037-1.422-.73-1.377-1.758.043-1.038.65-1.665 1.52-1.628l2.924.13c.863.036 1.423.722 1.376 1.762m-4.423-.563c-.17-.007-.293.11-.303.349-.008.227.105.366.271.372l3.05.136c.168.008.3-.116.311-.35.01-.236-.114-.366-.279-.373l-3.05-.133z"/>
    <path class="fill-accent" d="M130.988 40.429c19.212 16.081 25.582 40.11 14.233 53.67-11.349 13.563-36.124 11.516-55.335-4.562-19.213-16.081-25.587-40.11-14.236-53.674 11.351-13.556 36.125-11.515 55.338 4.566"/>
    <path class="fill-primary" d="M182.472 81.017c-4.52-22.01-19.473-41.482-34.713-55.592-15.238-14.11-22.717-17.638-33.44-21.589-10.724-3.95-24.13-3.81-33.442-2.54-7.293.995-23.705 6.35-33.3 15.382-10.467 9.845-24.886 14.94-29.915 19.19C-5.053 55.058.708 99.758 2.425 106.98c3.948 16.652 11.146 34.431 31.04 51.362 22.958 19.539 59.292 22.16 77.89 18.064 26.244-5.788 48.68-20.462 58.84-36.266 10.159-15.8 16.792-37.11 12.277-59.123m-43.746 79.866c-39.806 22.543-88.081 7.323-113.839-23.67C4.137 112.24-6.86 55.679 24.44 36.709 47.321 22.838 51.135 14.416 66.525 8.03 93.34-3.096 124.118-.785 157.25 36.708c34.1 38.586 33.2 94.882-18.523 124.175"/>
</svg>
