<?xml version="1.0" encoding="utf-8"?>
<!-- Generator: Adobe Illustrator 16.0.0, SVG Export Plug-In . SVG Version: 6.00 Build 0)  -->
<!DOCTYPE svg PUBLIC "-//W3C//DTD SVG 1.1//EN" "http://www.w3.org/Graphics/SVG/1.1/DTD/svg11.dtd">
<svg version="1.1" id="Layer_1" xmlns="http://www.w3.org/2000/svg" xmlns:xlink="http://www.w3.org/1999/xlink" x="0px" y="0px"
	 width="40.529785px" height="50px" viewBox="0 0 40.529785 50" style="enable-background:new 0 0 40.529785 50;"
	 xml:space="preserve">
<g id="NIBIB">
	<polyline style="fill:#13143E;" points="30.85791,6.219238 24.496094,0 0,25.000488 14.294434,39.09082 24.271484,28.885742 
		16.260254,21.094727 	"/>
	<polyline style="fill:#6A6BB1;" points="9.677246,43.785156 16.043945,50 40.527344,24.990234 26.228027,10.904785 
		16.252441,21.115723 24.267578,28.899414 	"/>
	<polyline style="fill:#FFFFFF;" points="8.726074,28.263672 8.726074,21.69043 9.616699,21.69043 13.070313,26.850586 
		13.070313,21.69043 13.904297,21.69043 13.904297,28.263672 13.013672,28.263672 9.561035,23.10498 9.561035,28.263672 	"/>
	<rect x="15.878906" y="21.685059" style="fill:#FFFFFF;" width="0.867676" height="6.578613"/>
	<path style="fill:#FFFFFF;" d="M18.801758,28.263672V21.69043h2.463379c0.501953,0,0.908203,0.064941,1.20752,0.199707
		c0.303223,0.129883,0.543457,0.334473,0.713379,0.609863c0.174316,0.280273,0.258301,0.570313,0.258301,0.870605
		c0,0.278809-0.076172,0.544922-0.227051,0.793945c-0.152344,0.245605-0.384766,0.445313-0.691895,0.601074
		c0.396973,0.114258,0.703613,0.314453,0.918945,0.594727c0.210938,0.285645,0.320801,0.614746,0.320801,0.999023
		c0,0.305664-0.064941,0.594727-0.193848,0.858398c-0.134766,0.267578-0.292969,0.47168-0.48291,0.612305
		c-0.195313,0.144531-0.434082,0.253906-0.721191,0.324219c-0.287598,0.074219-0.639648,0.109375-1.061035,0.109375
		 M19.66748,24.450684h1.422363c0.385742,0,0.665527-0.024902,0.831543-0.074707
		c0.222656-0.065918,0.38916-0.17627,0.498535-0.325195c0.113281-0.15625,0.169922-0.345703,0.169922-0.576172
		c0-0.219727-0.052734-0.410156-0.158203-0.574707s-0.254395-0.280273-0.449707-0.339844
		c-0.193359-0.064453-0.525879-0.095215-1.001465-0.095215H19.66748v1.985352V24.450684L19.66748,24.450684z M19.66748,27.489258
		h1.638672c0.282715,0,0.478516-0.009766,0.589844-0.035156c0.203125-0.035156,0.369629-0.09375,0.508301-0.175781
		c0.132813-0.083984,0.242188-0.207031,0.332031-0.363281c0.084473-0.160156,0.129395-0.345703,0.129395-0.555664
		c0-0.244141-0.064453-0.460449-0.189941-0.63916c-0.125-0.180176-0.300781-0.304199-0.523926-0.378906
		c-0.222656-0.076172-0.541504-0.111816-0.964355-0.111816h-1.52002V27.489258L19.66748,27.489258L19.66748,27.489258
		L19.66748,27.489258z"/>
	<rect x="25.666992" y="21.685059" style="fill:#FFFFFF;" width="0.866211" height="6.578613"/>
	<path style="fill:#FFFFFF;" d="M28.400391,28.263672V21.69043h2.465332c0.502441,0,0.907227,0.064941,1.211914,0.199707
		c0.299316,0.129883,0.539551,0.334473,0.713867,0.609863c0.167969,0.280273,0.255859,0.570313,0.255859,0.870605
		c0,0.278809-0.078125,0.544922-0.228516,0.793945c-0.152832,0.245605-0.379395,0.445313-0.688477,0.601074
		c0.396973,0.114258,0.700195,0.314453,0.916992,0.594727c0.213379,0.285645,0.318848,0.614746,0.318848,0.999023
		c0,0.305664-0.064453,0.594727-0.193848,0.858398c-0.130859,0.267578-0.292969,0.47168-0.48291,0.612305
		c-0.189453,0.144531-0.433594,0.253906-0.721191,0.324219c-0.287598,0.074219-0.63916,0.109375-1.061523,0.109375
		 M29.268555,24.450684h1.422852c0.385254,0,0.665039-0.024902,0.831055-0.074707
		c0.222656-0.065918,0.38916-0.17627,0.502441-0.325195c0.109375-0.15625,0.166016-0.345703,0.166016-0.576172
		c0-0.219727-0.052734-0.410156-0.158203-0.574707c-0.101563-0.164551-0.25-0.280273-0.445801-0.339844
		c-0.195313-0.064453-0.529785-0.095215-1.000977-0.095215h-1.317383V24.450684L29.268555,24.450684z M29.268555,27.489258h1.638184
		c0.283203,0,0.480957-0.009766,0.596191-0.035156c0.197266-0.035156,0.367676-0.09375,0.502441-0.175781
		c0.132813-0.083984,0.242188-0.207031,0.330566-0.363281c0.087891-0.160156,0.130859-0.345703,0.130859-0.555664
		c0-0.244141-0.064453-0.460449-0.189453-0.63916c-0.127441-0.180176-0.30127-0.304199-0.523926-0.378906
		c-0.223145-0.076172-0.541992-0.111816-0.959961-0.111816h-1.524902V27.489258L29.268555,27.489258z"/>
</g>
</svg>
