<?xml version="1.0" encoding="utf-8"?>
<!-- Generator: Adobe Illustrator 24.2.3, SVG Export Plug-In . SVG Version: 6.00 Build 0)  -->
<svg version="1.1" id="Layer_1" xmlns="http://www.w3.org/2000/svg" xmlns:xlink="http://www.w3.org/1999/xlink" x="0px" y="0px"
	 viewBox="0 0 198.7 159.9" style="enable-background:new 0 0 198.7 159.9;" xml:space="preserve">
<style type="text/css">
	.st0{fill:#999999;}
	.st1{fill:#E9E9E9;}
	.st2{opacity:0.5;}
	.st3{fill:#AAAAAA;}
	.st4{fill:#FFFFFF;}
	.st5{fill:#9EF2A3;stroke:#46F75B;stroke-miterlimit:10;}
	.st6{fill:#D4FFD7;stroke:#46F75B;stroke-miterlimit:10;}
	.st7{fill:none;stroke:#46F75B;stroke-width:2.4792;stroke-miterlimit:10;}
	.st8{fill:#FFBE71;}
	.st9{fill:none;stroke:#FF9800;stroke-width:5.0727;stroke-miterlimit:10;}
	.st10{fill:#2196F3;}
	.st11{fill:#79C0F7;}
</style>
<g>
	<polygon class="st0" points="-0.3,26.7 198.7,26.7 198.7,9.9 75.4,9.9 65.4,0 11.6,0 -0.3,11.9 	"/>
	<rect x="-0.3" y="26.7" class="st1" width="199" height="133.2"/>
	<g class="st2">
		<rect x="-0.3" y="155" class="st3" width="199" height="4.9"/>
	</g>
	<rect x="7.7" y="18.3" class="st4" width="182.9" height="8.4"/>
</g>
<g>
	<rect x="140.2" y="125.3" class="st5" width="8.7" height="13.4"/>
	<rect x="125.9" y="130" class="st6" width="8.7" height="8.7"/>
	<rect x="114.8" y="132.2" class="st5" width="8.7" height="6.5"/>
	<rect x="151.7" y="116.5" class="st6" width="8.7" height="22.2"/>
	<rect x="165.6" y="94.5" class="st5" width="8.7" height="44.2"/>
	<rect x="177" y="89.9" class="st6" width="8.7" height="48.8"/>
	<line class="st7" x1="109.8" y1="144" x2="189.8" y2="144"/>
</g>
<g>
	<g>
		<path class="st8" d="M27.7,125c1.7-2.7,3.2-5.5,4.6-8.2c3.5-6.7,6.6-12.5,10.9-12.5c0.1,0,0.2,0,0.5,0.2c0.9-1.5,1.7-3,2.6-4.4
			c-1-0.6-2.1-0.9-3.2-0.9c-7.3,0-11.2,7.4-15.4,15.2c-3.1,5.9-6.4,12-11.1,15.2C21,128.6,24.6,127,27.7,125z"/>
		<path class="st8" d="M57.8,114.2c-2.1-3.3-4.1-6.3-5.9-8.7c-0.8,1.4-1.7,2.9-2.7,4.5c0,0.1-0.1,0.2-0.1,0.3c1.4,2,2.9,4.3,4.4,6.7
			c7.7,11.9,17.3,26.8,30.9,27l0.1-5.1C73.6,138.8,64.8,125.2,57.8,114.2z"/>
	</g>
	<path class="st9" d="M8.5,134.4c38.8-0.9,35-41.1,53.7-41.1c12.4,0,12.8,27.8,26.3,30.9"/>
	<g>
		<path class="st8" d="M57.7,111.7c1.4-2.2,2.7-3.2,4.8-3.2c2.7,0,4.6,5.1,6.5,10c2.5,6.4,5.3,13.6,11.7,14.4l0.6-5
			c-3.3-0.4-5.5-5.9-7.5-11.2c-2.5-6.5-5.1-13.2-11.3-13.2c-3.5,0-5.9,1.6-7.7,3.8C55.7,108.6,56.7,110.2,57.7,111.7z"/>
		<path class="st8" d="M52.5,117.7c-0.7-1.1-1.4-2.1-2.1-3.2c-2.9,5.5-6.5,11.6-15.9,14.9c-4.1,3.3-9.1,6-15.4,7.5
			c22.1-0.5,30-9.7,34.5-17.5C53.2,118.8,52.8,118.2,52.5,117.7z"/>
	</g>
</g>
<g>
	<path class="st10" d="M98.6,37.9l0.4,2.6l0.2,0l0.1,0.5l-0.1,0C99,41,99,41.2,99,41.4l-0.3,0l-0.6-3.5L98.6,37.9z"/>
	<path class="st10" d="M101.2,38.1l-0.1,2.4l0.1,0l0,0.5l-0.1,0c-0.1,0-0.1,0.1-0.1,0.3l-0.2,0l0.2-3.3L101.2,38.1z"/>
	<path class="st10" d="M92,37.2l1,1.3l0.2-0.1l0.2,0.3l-0.1,0.1c-0.1,0.1-0.1,0.2,0,0.3L93,39.3l-1.5-1.9L92,37.2z"/>
	<path class="st10" d="M79.3,45.6l2.4,0.1l0-0.3l0.5,0l0,0.2c0,0.2,0.1,0.3,0.3,0.3l0,0.5l-3.2-0.1L79.3,45.6z"/>
	<path class="st10" d="M99.8,35.4l0.2,1.6l0.2,0l0,0.3l-0.1,0c-0.1,0-0.1,0.1-0.1,0.3l-0.3,0l-0.2-2.2L99.8,35.4z"/>
	<path class="st10" d="M104.8,36.3l-0.3,1.4l0.1,0.3l-0.1,0.3l-0.1,0c-0.1,0-0.2,0-0.2,0.2l-0.2-0.1l0.5-2.1L104.8,36.3z"/>
	<path class="st10" d="M103.2,38.8l-0.5,2l0.1,0l-0.1,0.4l-0.1,0c-0.1,0-0.1,0.1-0.2,0.3l-0.2,0l0.6-2.7L103.2,38.8z"/>
	<path class="st10" d="M114.6,47l-1.1,0.8l0.1,0.1l-0.2,0.2l0-0.1c0-0.1-0.1-0.1-0.2,0l-0.1-0.2l1.5-1.1L114.6,47z"/>
	<path class="st10" d="M85.9,75.6c-0.5-0.4-0.5-1.2,0-1.8l1.8-2.3c0.5-0.7,1.3-0.8,1.8-0.4c0.5,0.4,0.5,1.2,0,1.8l-1.8,2.3
		C87.2,75.8,86.5,76,85.9,75.6 M88.9,72.3c0.1-0.1,0.1-0.3,0-0.4c-0.1-0.1-0.3-0.1-0.4,0.1l-1.9,2.3c-0.1,0.1-0.1,0.3,0,0.4
		c0.1,0.1,0.3,0.1,0.4-0.1L88.9,72.3z"/>
	<path class="st10" d="M91.4,72.2l3.1-4.9l-0.7-0.5l0.6-1l0.4,0.3c0.4,0.3,0.8,0.2,1.1-0.2l1.1,0.7L93,73.2L91.4,72.2z"/>
	<path class="st10" d="M98.3,66.5l2.1-3.8l-0.3-0.2l0.4-0.8l0.2,0.1c0.2,0.1,0.4,0,0.6-0.4l0.5,0.3L99,67L98.3,66.5z"/>
	<path class="st10" d="M76.4,59.6l3.2-1.3l-0.1-0.4l0.7-0.3l0.1,0.2c0.1,0.2,0.3,0.3,0.6,0.2l0.2,0.6l-4.6,1.8L76.4,59.6z"/>
	<path class="st10" d="M79.5,68.6l3.3-2.6l-0.2-0.3l0.7-0.5l0.1,0.2c0.1,0.2,0.4,0.1,0.7-0.1l0.4,0.5L80,69.3L79.5,68.6z"/>
	<path class="st10" d="M114.6,67.2l-1.8-3.5l-0.3,0.2l-0.4-0.7l0.2-0.1c0.2-0.1,0.2-0.3,0.1-0.7L113,62l2.4,4.8L114.6,67.2z"/>
	<path class="st10" d="M117.9,63.5l-2.8-2.3l-0.2,0.2l-0.6-0.5l0.1-0.1c0.1-0.2,0-0.3-0.2-0.6l0.3-0.4l3.8,3L117.9,63.5z"/>
	<path class="st10" d="M122.6,58.3l-1.8-0.2l0,0.3l-0.3,0l0-0.2c0-0.2-0.1-0.3-0.2-0.3l0.1-0.5l2.2,0.2L122.6,58.3z"/>
	<path class="st10" d="M119,68.8l-1.8-2.3l-0.3,0.2l-0.4-0.5l0.2-0.1c0.2-0.1,0.2-0.3,0-0.5l0.5-0.4l2.4,3.1L119,68.8z"/>
	<path class="st10" d="M90.9,59.8l3.2-2.4l-0.2-0.3l0.7-0.5l0.1,0.2c0.1,0.2,0.3,0.1,0.7-0.1l0.3,0.5l-4.3,3.2L90.9,59.8z"/>
	<path class="st10" d="M86.9,51.2l3.8-1.1l-0.1-0.3l0.8-0.2l0.1,0.2c0.1,0.2,0.3,0.2,0.6,0.2l0.1,0.5l-5.2,1.4L86.9,51.2z"/>
	<path class="st10" d="M89,42.4l3.2,1.7l0.1-0.3l0.7,0.4l-0.1,0.2c-0.1,0.2,0,0.3,0.3,0.5L93,45.3L88.7,43L89,42.4z"/>
	<path class="st10" d="M92,40l2.2,2.1l0.2-0.2l0.5,0.4l-0.1,0.1c-0.1,0.1-0.1,0.3,0.1,0.5l-0.3,0.3l-3-2.8L92,40z"/>
	<path class="st10" d="M80.7,55.3l4.4-1.4L85,53.4l0.9-0.3l0.1,0.3c0.1,0.3,0.4,0.4,0.8,0.3l0.2,0.8l-6,1.9L80.7,55.3z"/>
	<path class="st10" d="M84,42.7l3.1,1l0.1-0.3l0.7,0.2l-0.1,0.2c-0.1,0.2,0.1,0.3,0.3,0.5L88,44.7l-4.6-1.5L84,42.7z"/>
	<path class="st10" d="M97.3,75l2.2-5.1l-0.7-0.3l0.5-1.1l0.5,0.2c0.5,0.2,0.8,0,1.1-0.4l1.2,0.5l-3,6.9L97.3,75z"/>
	<path class="st10" d="M113.6,74.2l-1.1-4.2l-0.5,0.1l-0.2-0.9l0.3-0.1c0.3-0.1,0.4-0.3,0.3-0.7l0.8-0.2l1.5,5.6L113.6,74.2z"/>
	<path class="st10" d="M118.6,52.4l-2.5,0.7l0.1,0.2l-0.5,0.1l0-0.1c0-0.1-0.2-0.2-0.4-0.1l-0.1-0.3l3.4-0.9L118.6,52.4z"/>
	<path class="st10" d="M116.3,48.2l-1.7,1.1l0.1,0.1l-0.4,0.2l0-0.1c0-0.1-0.1,0-0.3,0.1l-0.1-0.2l2.3-1.4L116.3,48.2z"/>
	<path class="st10" d="M120.3,50.4l-1.3,0.5l0.1,0.2l-0.2,0.1l0-0.1c0-0.1-0.1-0.1-0.2-0.1l-0.1-0.3l1.7-0.6L120.3,50.4z"/>
	<path class="st10" d="M119,48.2l-1.2,0.5l0.1,0.2l-0.2,0.1l0-0.1c0-0.1-0.1-0.1-0.2-0.1l-0.1-0.3l1.6-0.7L119,48.2z"/>
	<path class="st10" d="M117.5,46l-1.2,0.7l0.1,0.1l-0.3,0.1l0-0.1c0-0.1-0.1-0.1-0.2,0l-0.1-0.2l1.7-1L117.5,46z"/>
	<path class="st10" d="M117.7,50l-2.2,0.9l0.1,0.1l-0.5,0.2l0-0.1c0-0.1-0.2-0.1-0.4,0l-0.1-0.2l3-1.2L117.7,50z"/>
	<path class="st10" d="M106.1,76.5c-1.1-0.1-1.8-0.9-1.7-2l0.3-3.6c0.1-1.1,0.9-1.7,2-1.6c1.1,0.1,1.8,0.9,1.7,2l-0.3,3.6
		C108,75.9,107.2,76.6,106.1,76.5 M107,71c0-0.2-0.1-0.4-0.4-0.4c-0.2,0-0.4,0.1-0.4,0.3l-0.4,3.8c0,0.2,0.1,0.4,0.4,0.4
		c0.3,0,0.4-0.1,0.4-0.3L107,71z"/>
	<path class="st10" d="M81.1,49.4c0-0.8,0.5-1.2,1.3-1.2l2.5,0c0.8,0,1.3,0.5,1.2,1.2c0,0.8-0.5,1.2-1.3,1.2l-2.5,0
		C81.6,50.6,81.1,50.2,81.1,49.4 M85,49.7c0.1,0,0.2-0.1,0.3-0.3c0-0.2-0.1-0.3-0.2-0.3l-2.6,0c-0.1,0-0.3,0.1-0.3,0.3
		c0,0.2,0.1,0.3,0.3,0.3L85,49.7z"/>
	<path class="st10" d="M82.4,62.5c-0.6-1-0.3-2.1,0.7-2.7l3.4-2c1-0.6,2.1-0.3,2.7,0.7c0.6,1,0.3,2.1-0.7,2.7l-3.4,2
		C84.1,63.8,83,63.6,82.4,62.5 M87.8,59.8c0.2-0.1,0.3-0.3,0.1-0.6c-0.1-0.2-0.3-0.3-0.5-0.2l-3.5,2.1c-0.2,0.1-0.3,0.3-0.1,0.6
		c0.1,0.2,0.4,0.3,0.6,0.2L87.8,59.8z"/>
	<path class="st10" d="M86.5,68.8c-0.9-0.9-0.9-2.1,0-3l3-3.1c0.9-0.9,2.1-0.9,3,0c0.9,0.9,0.9,2.1,0,3l-3,3.1
		C88.7,69.7,87.5,69.7,86.5,68.8 M91.5,64.4c0.2-0.2,0.2-0.4,0-0.6c-0.2-0.2-0.4-0.2-0.6,0L87.7,67c-0.2,0.2-0.2,0.4,0,0.6
		c0.2,0.2,0.5,0.2,0.6,0L91.5,64.4z"/>
	<path class="st10" d="M94.5,63.8c-0.5-0.5-0.5-1.2,0.1-1.9l1.9-2.2c0.6-0.7,1.3-0.8,1.9-0.3c0.6,0.5,0.5,1.2-0.1,1.9l-1.9,2.2
		C95.7,64.1,95,64.3,94.5,63.8 M97.6,60.6c0.1-0.1,0.1-0.3,0-0.4c-0.1-0.1-0.3-0.1-0.4,0.1l-2,2.3c-0.1,0.1-0.1,0.3,0,0.4
		c0.1,0.1,0.3,0.1,0.4-0.1L97.6,60.6z"/>
	<path class="st10" d="M88.7,56.2c-0.3-0.6-0.1-1.3,0.6-1.7l2.4-1.3c0.7-0.4,1.4-0.2,1.7,0.4c0.3,0.7,0.1,1.3-0.6,1.7l-2.4,1.3
		C89.8,57,89.1,56.8,88.7,56.2 M92.5,54.4c0.1-0.1,0.2-0.2,0.1-0.4c-0.1-0.1-0.2-0.2-0.3-0.1l-2.5,1.3c-0.1,0.1-0.2,0.2-0.1,0.4
		c0.1,0.1,0.2,0.2,0.4,0.1L92.5,54.4z"/>
	<path class="st10" d="M87.1,46.9c0.1-0.6,0.7-1,1.4-0.9l2.6,0.4c0.8,0.1,1.2,0.6,1.1,1.2c-0.1,0.6-0.7,1-1.4,0.9l-2.6-0.4
		C87.5,48,87,47.5,87.1,46.9 M91,47.6c0.1,0,0.3,0,0.3-0.2c0-0.1-0.1-0.2-0.2-0.3l-2.7-0.4c-0.1,0-0.3,0-0.3,0.2
		c0,0.1,0.1,0.2,0.2,0.3L91,47.6z"/>
	<path class="st10" d="M88.3,39.6c0.3-0.4,0.7-0.4,1.1-0.2l1.2,0.9c0.4,0.3,0.4,0.7,0.1,1.1c-0.3,0.4-0.7,0.4-1.1,0.2l-1.2-0.9
		C88.1,40.4,88,39.9,88.3,39.6 M90.1,41.1c0.1,0.1,0.2,0,0.2,0c0.1-0.1,0.1-0.2,0-0.2l-1.3-1c-0.1-0.1-0.2,0-0.2,0
		c-0.1,0.1-0.1,0.2,0,0.2L90.1,41.1z"/>
	<path class="st10" d="M94.8,38.6c0.3-0.2,0.7,0,1.1,0.5l1.1,1.7c0.3,0.5,0.3,1,0,1.2c-0.3,0.2-0.7,0-1.1-0.5l-1.1-1.7
		C94.5,39.2,94.5,38.8,94.8,38.6 M96.3,41.2c0.1,0.1,0.1,0.1,0.2,0.1c0.1,0,0.1-0.1,0-0.2l-1.1-1.8c-0.1-0.1-0.1-0.1-0.2-0.1
		c-0.1,0-0.1,0.1,0,0.2L96.3,41.2z"/>
	<path class="st10" d="M96.1,35.7c0.3-0.1,0.6,0.1,0.7,0.4l0.4,1.2c0.1,0.4,0,0.6-0.3,0.7c-0.3,0.1-0.6-0.1-0.7-0.4l-0.4-1.2
		C95.7,36.1,95.8,35.8,96.1,35.7 M96.7,37.5c0,0.1,0.1,0.1,0.1,0.1c0.1,0,0.1-0.1,0.1-0.1l-0.4-1.2c0-0.1-0.1-0.1-0.1-0.1
		c-0.1,0-0.1,0.1-0.1,0.2L96.7,37.5z"/>
	<path class="st10" d="M102.5,35.8c0.1,0,0.2,0.3,0.1,0.6l-0.2,1.2c0,0.4-0.2,0.6-0.3,0.6c-0.1,0-0.2-0.3-0.1-0.6l0.2-1.2
		C102.2,36,102.3,35.7,102.5,35.8 M102.2,37.6c0,0.1,0,0.1,0,0.1C102.2,37.7,102.2,37.7,102.2,37.6l0.3-1.2c0-0.1,0-0.1,0-0.1
		c0,0-0.1,0-0.1,0.1L102.2,37.6z"/>
	<path class="st10" d="M103.9,68.5c-0.7-0.2-1-0.9-0.8-1.7l0.7-2.9c0.2-0.9,0.8-1.3,1.5-1.1c0.7,0.2,1,0.9,0.8,1.7l-0.7,2.9
		C105.2,68.2,104.6,68.7,103.9,68.5 M105.1,64.2c0-0.2,0-0.3-0.2-0.3c-0.2,0-0.3,0.1-0.3,0.2l-0.7,3c0,0.2,0,0.3,0.2,0.3
		c0.2,0,0.3-0.1,0.3-0.2L105.1,64.2z"/>
	<path class="st10" d="M109.8,68.8c-0.7,0.1-1.2-0.5-1.3-1.4l-0.2-2.9c-0.1-0.9,0.4-1.5,1.1-1.5c0.7-0.1,1.2,0.5,1.3,1.4l0.2,2.9
		C111,68.2,110.6,68.8,109.8,68.8 M109.7,64.3c0-0.2-0.1-0.3-0.3-0.3c-0.2,0-0.2,0.1-0.2,0.3l0.2,3.1c0,0.2,0.1,0.3,0.3,0.3
		c0.2,0,0.2-0.1,0.2-0.3L109.7,64.3z"/>
	<path class="st10" d="M119.9,60c-0.2,0.5-0.8,0.6-1.5,0.3l-2.2-1c-0.7-0.3-0.9-0.8-0.7-1.4c0.2-0.5,0.8-0.6,1.5-0.3l2.2,1
		C119.9,59,120.1,59.5,119.9,60 M116.6,58.2c-0.1-0.1-0.2,0-0.3,0.1c-0.1,0.1,0,0.2,0.1,0.3l2.3,1.1c0.1,0.1,0.3,0,0.3-0.1
		c0.1-0.1,0-0.2-0.1-0.3L116.6,58.2z"/>
	<path class="st10" d="M120.1,55.5c0,0.5-0.5,0.9-1.2,0.8l-2.3-0.1c-0.7,0-1.1-0.4-1.1-0.9c0-0.5,0.5-0.9,1.2-0.8l2.3,0.1
		C119.7,54.6,120.2,55,120.1,55.5 M116.6,55.2c-0.1,0-0.2,0.1-0.2,0.2c0,0.1,0.1,0.2,0.2,0.2l2.4,0.1c0.1,0,0.2-0.1,0.2-0.2
		c0-0.1-0.1-0.2-0.2-0.2L116.6,55.2z"/>
	<path class="st10" d="M122.2,63.3c-0.2,0.4-0.6,0.6-1,0.4l-1.3-0.6c-0.4-0.2-0.5-0.6-0.3-1c0.2-0.4,0.6-0.6,1-0.4l1.3,0.6
		C122.3,62.5,122.4,62.9,122.2,63.3 M120.3,62.2c-0.1,0-0.2,0-0.2,0.1c0,0.1,0,0.2,0,0.2l1.3,0.7c0.1,0,0.2,0,0.2-0.1
		c0.1-0.1,0-0.2-0.1-0.2L120.3,62.2z"/>
	<path class="st10" d="M76.3,53.1c-0.1-0.6,0.2-1.1,0.8-1.2l2.1-0.5c0.6-0.1,1.1,0.2,1.2,0.8c0.1,0.6-0.2,1.1-0.8,1.2l-2.1,0.5
		C77,54.1,76.5,53.8,76.3,53.1 M79.5,52.7c0.1,0,0.2-0.1,0.2-0.3c0-0.1-0.1-0.2-0.2-0.2l-2.2,0.5c-0.1,0-0.2,0.1-0.2,0.3
		c0,0.1,0.1,0.2,0.3,0.2L79.5,52.7z"/>
	<path class="st10" d="M121.4,53.4c0,0.3-0.2,0.4-0.4,0.4l-0.8,0c-0.2,0-0.4-0.2-0.4-0.5c0-0.3,0.2-0.4,0.4-0.4l0.8,0
		C121.2,53,121.4,53.2,121.4,53.4 M120.2,53.3C120.1,53.3,120.1,53.3,120.2,53.3c-0.1,0.2-0.1,0.2,0,0.2l0.8,0c0,0,0.1,0,0.1-0.1
		c0-0.1,0-0.1-0.1-0.1L120.2,53.3z"/>
	<path class="st11" d="M109.4,45.7c5.1,4.2,6.7,10.6,3.7,14.1c-3,3.6-9.5,3-14.6-1.2c-5.1-4.2-6.7-10.6-3.7-14.1
		C97.8,40.9,104.3,41.5,109.4,45.7"/>
	<path class="st10" d="M122.9,56.4c-1.2-5.8-5.1-10.9-9.1-14.6c-4-3.7-6-4.6-8.8-5.7c-2.8-1-6.4-1-8.8-0.7c-1.9,0.3-6.2,1.7-8.8,4.1
		c-2.8,2.6-6.6,3.9-7.9,5.1c-6,5.1-4.5,16.8-4,18.7c1,4.4,2.9,9.1,8.2,13.5c6,5.1,15.6,5.8,20.5,4.8c6.9-1.5,12.8-5.4,15.5-9.6
		C122.4,67.8,124.1,62.2,122.9,56.4 M111.4,77.4c-10.5,5.9-23.2,1.9-30-6.2c-5.5-6.6-8.4-21.5-0.1-26.5c6-3.7,7-5.9,11.1-7.6
		c7.1-2.9,15.2-2.3,23.9,7.6C125.3,54.9,125,69.7,111.4,77.4"/>
</g>
</svg>
