<?xml version="1.0" standalone="no"?>
<!DOCTYPE svg PUBLIC "-//W3C//DTD SVG 20010904//EN"
 "http://www.w3.org/TR/2001/REC-SVG-20010904/DTD/svg10.dtd">
<svg version="1.0" xmlns="http://www.w3.org/2000/svg"
 width="700.000000pt" height="700.000000pt" viewBox="0 0 700.000000 700.000000"
 preserveAspectRatio="xMidYMid meet">
<metadata>
Created by potrace 1.11, written by Peter Selinger 2001-2013
</metadata>
<g transform="translate(0.000000,700.000000) scale(0.100000,-0.100000)"
fill="#000000" stroke="none">
<path d="M6032 5451 c-273 -69 -483 -281 -553 -560 -28 -109 -23 -300 9 -399
l20 -63 -407 -411 -407 -411 -49 16 c-158 50 -354 49 -490 -3 -29 -11 -31 -9
-286 247 l-257 258 25 95 c21 83 24 110 20 215 -5 134 -26 217 -83 325 -97
186 -281 331 -489 386 -94 25 -284 25 -374 0 -254 -69 -455 -257 -536 -499
-45 -137 -48 -332 -7 -463 l19 -62 -562 -562 c-561 -561 -563 -563 -592 -551
-97 39 -285 52 -405 26 -153 -32 -270 -97 -388 -215 -138 -137 -207 -294 -217
-490 -12 -232 59 -415 226 -580 99 -98 165 -140 288 -183 75 -26 106 -31 214
-35 105 -4 140 -1 209 17 348 88 580 383 581 738 0 93 -15 190 -39 253 -9 24
20 56 553 590 l563 564 52 -17 c29 -9 92 -22 141 -29 100 -13 216 -2 315 29
l55 17 256 -257 257 -256 -17 -55 c-130 -412 120 -859 540 -967 104 -26 272
-26 376 1 269 68 478 276 553 551 28 100 26 292 -4 388 l-24 74 414 414 c288
288 418 411 428 407 97 -40 293 -55 407 -31 156 34 273 98 388 212 150 150
224 327 225 533 0 217 -80 404 -238 553 -94 89 -162 131 -279 172 -79 28 -102
31 -223 34 -106 2 -151 -1 -208 -16z"/>
</g>
</svg>
