<?xml version="1.0" encoding="UTF-8" standalone="no"?>
<svg
   xmlns:dc="http://purl.org/dc/elements/1.1/"
   xmlns:cc="http://creativecommons.org/ns#"
   xmlns:rdf="http://www.w3.org/1999/02/22-rdf-syntax-ns#"
   xmlns:svg="http://www.w3.org/2000/svg"
   xmlns="http://www.w3.org/2000/svg"
   viewBox="0 0 127.48329 127.43003"
   height="127.43003"
   width="127.48328"
   id="svg1077"
   version="1.1">
  <metadata
     id="metadata1083">
    <rdf:RDF>
      <cc:Work
         rdf:about="">
        <dc:format>image/svg+xml</dc:format>
        <dc:type
           rdf:resource="http://purl.org/dc/dcmitype/StillImage" />
        <dc:title></dc:title>
      </cc:Work>
    </rdf:RDF>
  </metadata>
  <defs
     id="defs1081" />
  <path
     style="fill:#0a9acc;stroke-width:0.32000002"
     d="m 60.198993,127.30176 c -1.584,-0.11805 -2.52,-0.25695 -2.08,-0.30869 0.44,-0.0517 -0.77353,-0.30527 -2.69673,-0.56342 C 28.588733,122.82789 7.23326,102.84263 1.62723,76.086217 0.48676,70.642959 0.1847,60.85526 0.98143004,55.160166 4.17768,32.313113 19.147933,13.167776 40.390923,4.7596717 c 5.47568,-2.167308 13.85627,-4.11621799 18.20807,-4.23429299 1.5248,-0.04137 1.54736,-0.05449 0.48,-0.279162 -0.64537,-0.135844 1.25315,-0.240083 4.48,-0.24597700242 3.24095,-0.005899998 5.263,0.0977000024 4.8,0.24597700242 -0.65707,0.210433 -0.53412,0.261904 0.6882,0.288103 2.18139,0.04675 8.45802,1.17464599 11.86669,2.13240699 12.919397,3.630057 24.375947,11.3078883 32.828167,22.0004543 1.08732,1.37553 1.97695,2.79105 1.97695,3.1456 0,1.077801 -3.43368,4.169362 -6.24359,5.621491 -2.33992,1.209252 -11.31527,4.374032 -18.07641,6.373901 -3.654547,1.08097 -11.494887,1.419981 -14.793597,0.639664 -5.37452,-1.271353 -10.9212,-4.889328 -18.00641,-11.745182 -4.38583,-4.243855 -5.58787,-4.909093 -8.4946,-4.701117 -3.71812,0.26603 -6.57598,2.326704 -8.22639,5.931678 -1.11514,2.435785 -1.2376,3.85177 -0.48102,5.562148 1.48678,3.361094 4.3011,5.397078 10.00201,7.235801 10.57251,3.409975 15.68,5.329946 15.68,5.89432 0,0.459594 -13.97818,0.291818 -18.35634,-0.220323 -5.19839,-0.608086 -7.27964,-1.194403 -9.46442,-2.666237 -1.68877,-1.137689 -1.82732,-1.172525 -4.64,-1.166566 -2.53558,0.0054 -3.11035,0.116617 -4.58224,0.886909 -1.94929,1.020131 -3.18834,2.576137 -4.3378,5.44744 -1.63265,4.078271 -1.47655,5.075429 1.32071,8.436667 2.99848,3.603044 6.46021,4.584612 9.51593,2.698224 2.78187,-1.717331 6.0536,-2.071571 16.92113,-1.832092 5.09134,0.112195 9.33911,0.286124 9.4395,0.386512 0.21305,0.213052 0.4352,0.05993 -5.75988,3.970198 -2.64896,1.672 -6.76011,4.300822 -9.13587,5.841827 -5.21449,3.382301 -5.70879,3.645216 -7.68653,4.088439 -1.26454,0.283388 -1.94688,0.244979 -3.69293,-0.207888 -2.91233,-0.75536 -4.10308,-0.377456 -6.82055,2.164598 -2.94802,2.757725 -4.16287,5.29465 -4.13496,8.634874 0.0175,2.094279 0.17239,2.774089 1.0281,4.512279 1.26893,2.57757 4.44377,5.7014 6.96984,6.85788 1.57384,0.72053 2.09545,0.807 3.86892,0.64139 4.53454,-0.42344 8.90212,-3.83193 11.21352,-8.7511 1.64033,-3.490965 2.313,-4.283537 5.98577,-7.052632 4.07314,-3.070966 6.98301,-4.467923 10.66681,-5.120877 3.30128,-0.585152 4.31519,-0.419929 5.55271,0.904848 1.92541,2.061152 1.51748,5.687623 -1.0276,9.13538 -2.56716,3.477661 -3.57394,5.821651 -3.58882,8.355541 -0.0161,2.73693 0.8022,4.64312 2.88891,6.729814 0.84934,0.84935 2.40642,1.96757 3.46018,2.48493 1.66949,0.81969 2.26575,0.93978 4.63591,0.93366 2.18946,-0.006 2.98354,-0.14647 4.07111,-0.72196 3.21263,-1.69998 4.90814,-4.206824 5.52736,-8.172284 0.28824,-1.84584 0.21612,-3.13728 -0.46893,-8.39804 -1.2121,-9.308183 -1.05446,-13.095223 0.69181,-16.620583 1.6141,-3.258518 5.361427,-6.833658 9.337797,-8.908733 4.64687,-2.424963 20.67945,-6.919625 24.71001,-6.927331 2.28089,-0.0044 5.03315,0.671488 5.45725,1.34009 0.14509,0.228732 0.28305,1.207878 0.30656,2.175878 0.036,1.480077 0.0816,1.607315 0.28704,0.8 0.14129,-0.555258 0.24428,1.266077 0.24428,4.32 0,2.904 -0.0978,4.848 -0.21727,4.32 -0.16158,-0.713971 -0.27058,-0.262918 -0.4253,1.76 -0.70425,9.207734 -4.53033,20.228709 -9.88722,28.479999 -6.22303,9.585404 -15.06003,17.384314 -25.41794,22.432014 -6.276277,3.0586 -14.405867,5.43379 -20.456557,5.97669 -1.79262,0.16085 -2.04827,0.24438 -1.28,0.41827 0.65331,0.14787 0.18197,0.22938 -1.47533,0.25515 -1.33944,0.0208 -3.06744,0.0897 -3.84001,0.15294 -0.77256,0.0633 -2.70066,0.0185 -4.28466,-0.0995 z M 0,63.606217 c 0,-2.024 0.052,-2.852 0.11546,-1.84 0.0635,1.012 0.0635,2.668 0,3.68 -0.0635,1.012 -0.11546,0.184 -0.11546,-1.84 z"
     id="path1091" />
</svg>
