<?xml version="1.0" encoding="utf-8"?>
<!-- Generator: Adobe Illustrator 16.0.0, SVG Export Plug-In . SVG Version: 6.00 Build 0)  -->
<!DOCTYPE svg PUBLIC "-//W3C//DTD SVG 1.1//EN" "http://www.w3.org/Graphics/SVG/1.1/DTD/svg11.dtd">
<svg version="1.1" id="Layer_1" xmlns="http://www.w3.org/2000/svg" xmlns:xlink="http://www.w3.org/1999/xlink" x="0px" y="0px"
	 width="118.730469px" height="50px" viewBox="0 0 118.730469 50" style="enable-background:new 0 0 118.730469 50;"
	 xml:space="preserve">
<g id="SBML">
	<path style="fill:#0756A5;stroke:#0756A5;stroke-width:0.960826;" d="M87.523438,6.209473h-0.125L74.550781,47.568359h-2.630859
		L59.073242,6.209473h-0.125v41.358887h-2.631836V2.826172h4.259766l12.722656,40.230469h0.125L85.832031,2.826172h4.322266
		v44.742188h-2.630859V6.209473z"/>
	<path style="fill:#0756A5;stroke:#0756A5;stroke-width:0.960826;" d="M97.361328,2.826172h2.632813V45.1875h18.734375v2.380859
		H97.361328V2.826172z"/>
	<g>
		<g>
			
				<radialGradient id="SVGID_1_" cx="-99.146484" cy="-33.736328" r="39.694633" gradientTransform="matrix(1.0223 0 0 0.9987 123.058594 52.538086)" gradientUnits="userSpaceOnUse">
				<stop  offset="0" style="stop-color:#BDE6FA"/>
				<stop  offset="0.046211" style="stop-color:#B8E4FA"/>
				<stop  offset="0.102935" style="stop-color:#A7DEF9"/>
				<stop  offset="0.164903" style="stop-color:#8BD6F7"/>
				<stop  offset="0.213483" style="stop-color:#6BCEF5"/>
				<stop  offset="0.298396" style="stop-color:#69C8F2"/>
				<stop  offset="0.402699" style="stop-color:#5FBCEA"/>
				<stop  offset="0.517149" style="stop-color:#50AADF"/>
				<stop  offset="0.638843" style="stop-color:#3B92CF"/>
				<stop  offset="0.765071" style="stop-color:#1A76BD"/>
				<stop  offset="0.786517" style="stop-color:#1072BA"/>
				<stop  offset="1" style="stop-color:#0756A5"/>
			</radialGradient>
			<path style="fill:url(#SVGID_1_);" d="M47.678223,25.274902c-0.036621-1.210449,0.203125-2.038086,0.88916-2.952148
				c1.862305-2.476074,2.706055-5.685547,2.141113-9.111328c-1.27002-6.778809-6.520508-11.791504-13.532715-13.03125
				c-3.134277-0.476074-6.04834-0.019043-8.523926,1.512207c-2.546387,1.572754-5.353027,5.005859-5.353027,10.833496
				c0,3.054688-0.750488,5.489258-2.501465,7.364258c-1.42334,1.193848-3.503418,2.435547-6.675781,2.455078
				c-5.342773,0.03418-8.102539-4.118652-7.551758-8.303711c0.743164-4.562012,4.487305-8.049805,9.216309-8.71582
				c1.601563-0.174316,3.104004,0.087891,4.42041,0.588379c1.036621,0.39209,1.87207-0.103027,2.40332-0.881836
				c0.694824-1.015625,0.595703-2.691895-1.469238-3.712891c-2.202637-1.090332-4.749023-1.331055-7.436035-0.922363
				C6.691895,1.638184,1.441895,6.650879,0.171875,13.427734c-0.564941,3.426758,0.293945,6.545898,2.140137,9.112305
				c2.918945,4.05957,7.419922,5.195313,10.216309,5.717773c6.145996,1.150391,8.824219,4.488281,9.164551,9.230469
				c0.190918,4.693359-3.29541,7.25-7.369629,6.535156c-4.040527-0.818359-7.204102-4.154297-8.007813-8.289063
				c-0.309082-1.804688,0.063965-3.439453,0.783691-4.799805c0.421875-0.797852-0.220703-1.71582-1.519043-2.426758
				c-1.369629-0.75-2.669434-0.942383-3.211914-0.214844c-1.564941,2.101563-2.194824,5.341797-1.568848,8.515625
				c1.438965,6.486328,6.413086,11.349609,13.093262,12.769531c3.074219,0.595703,5.504883-0.03125,8.379395-1.302734
				c1.658691-0.732422,4.339844-0.667969,6.442871,0.251953c2.444336,1.068359,5.234863,1.810547,8.30957,1.318359
				c6.883301-1.228516,12.10791-6.080078,13.524902-12.757813c0.608887-3.250977-0.20166-6.15332-1.894531-8.800781
				C48.228516,27.623047,47.678223,26.816406,47.678223,25.274902z M44.849121,35.820313
				c-0.633301,4.373047-4.19873,7.742188-8.737305,8.380859c-4.521973,0.505859-8.34375-2.347656-8.349121-7.169922
				c0.148438-4.833984,4.509277-9.091797,9.587891-9.289063C42.354004,27.688477,45.347168,31.40625,44.849121,35.820313z
				 M38.441406,20.68457c-5.020996-0.192383-9.392578-4.451172-9.583008-9.22998
				c-0.036133-4.727051,3.758789-7.491211,8.277344-7.000488c4.480957,0.632324,8.029785,3.944336,8.732422,8.276855
				C46.436035,17.049805,43.481934,20.719727,38.441406,20.68457z"/>
		</g>
		
			<radialGradient id="SVGID_2_" cx="-25.583496" cy="-104.390625" r="15.141008" gradientTransform="matrix(1.0223 0 0 0.9987 65.558594 147.412109)" gradientUnits="userSpaceOnUse">
			<stop  offset="0" style="stop-color:#BDE6FA"/>
			<stop  offset="0.046211" style="stop-color:#B8E4FA"/>
			<stop  offset="0.102935" style="stop-color:#A7DEF9"/>
			<stop  offset="0.164903" style="stop-color:#8BD6F7"/>
			<stop  offset="0.213483" style="stop-color:#6BCEF5"/>
			<stop  offset="0.298396" style="stop-color:#69C8F2"/>
			<stop  offset="0.402699" style="stop-color:#5FBCEA"/>
			<stop  offset="0.517149" style="stop-color:#50AADF"/>
			<stop  offset="0.638843" style="stop-color:#3B92CF"/>
			<stop  offset="0.765071" style="stop-color:#1A76BD"/>
			<stop  offset="0.786517" style="stop-color:#1072BA"/>
			<stop  offset="1" style="stop-color:#0756A5"/>
		</radialGradient>
		<path style="fill:url(#SVGID_2_);" d="M44.849121,35.820313c-0.633301,4.373047-4.19873,7.742188-8.737305,8.380859
			c-4.521973,0.505859-8.34375-2.347656-8.349121-7.169922c0.148438-4.833984,4.509277-9.091797,9.587891-9.289063
			C42.354004,27.688477,45.347168,31.40625,44.849121,35.820313z"/>
		
			<radialGradient id="SVGID_3_" cx="-23.773926" cy="-127.586426" r="16.975058" gradientTransform="matrix(1.0223 0 0 0.9987 65.558594 147.412109)" gradientUnits="userSpaceOnUse">
			<stop  offset="0" style="stop-color:#BDE6FA"/>
			<stop  offset="0.046211" style="stop-color:#B8E4FA"/>
			<stop  offset="0.102935" style="stop-color:#A7DEF9"/>
			<stop  offset="0.164903" style="stop-color:#8BD6F7"/>
			<stop  offset="0.213483" style="stop-color:#6BCEF5"/>
			<stop  offset="0.298396" style="stop-color:#69C8F2"/>
			<stop  offset="0.402699" style="stop-color:#5FBCEA"/>
			<stop  offset="0.517149" style="stop-color:#50AADF"/>
			<stop  offset="0.638843" style="stop-color:#3B92CF"/>
			<stop  offset="0.765071" style="stop-color:#1A76BD"/>
			<stop  offset="0.786517" style="stop-color:#1072BA"/>
			<stop  offset="1" style="stop-color:#0756A5"/>
		</radialGradient>
		<path style="fill:url(#SVGID_3_);" d="M38.441406,20.68457c-5.020996-0.192383-9.392578-4.451172-9.583008-9.22998
			c-0.036133-4.727051,3.758789-7.491211,8.277344-7.000488c4.480957,0.632324,8.029785,3.944336,8.732422,8.276855
			C46.436035,17.049805,43.481934,20.719727,38.441406,20.68457z"/>
	</g>
</g>
<g>
</g>
<g>
</g>
<g>
</g>
<g>
</g>
<g>
</g>
<g>
</g>
</svg>
