<?xml version="1.0" encoding="utf-8"?>
<!-- Generator: Adobe Illustrator 16.0.0, SVG Export Plug-In . SVG Version: 6.00 Build 0)  -->
<!DOCTYPE svg PUBLIC "-//W3C//DTD SVG 1.1//EN" "http://www.w3.org/Graphics/SVG/1.1/DTD/svg11.dtd">
<svg version="1.1" id="Layer_1" xmlns="http://www.w3.org/2000/svg" xmlns:xlink="http://www.w3.org/1999/xlink" x="0px" y="0px"
	 width="59.870117px" height="50px" viewBox="0 0 59.870117 50" style="enable-background:new 0 0 59.870117 50;"
	 xml:space="preserve">
<g id="COPASI">
	<g>
		<path style="fill-rule:evenodd;clip-rule:evenodd;fill:none;" d="M7.143066,50.34082c-2.267578,0-4.535645,0-6.802734,0
			c0-16.666016,0-33.333008,0-49.999512c14.852539,0,29.705078,0,44.558105,0
			c0.013672,0.102539,0.005859,0.203125-0.026367,0.301758c-1.34082,0.194824-2.700195,0.309082-4.021484,0.597168
			C33.935547,2.75,27.521973,5.546387,21.381836,8.998047c-5.70166,3.205078-11.03125,6.918457-15.45752,11.80127
			c-1.797852,1.98291-3.32373,4.148438-4.339355,6.647949c-1.496094,3.682617-1.223145,7.168945,1.067383,10.474609
			c1.893066,2.731445,4.391113,4.691406,7.415527,6.015625c3.581543,1.569336,7.366211,2.189453,11.236328,2.273438
			c6.168945,0.133789,12.166504-0.942383,18.01709-2.841797c5.914063-1.920898,11.457031-4.550781,16.165039-8.72168
			c2.046875-1.813477,3.557617-3.943359,4.054688-6.691406c0.097656-0.482422,0.194336-0.963867,0.291992-1.446289
			c-0.086914-0.354492-0.173828-0.708984-0.260742-1.063477c0.013672-0.100098-0.009766-0.19043-0.070313-0.270996
			c-0.110352-0.225586-0.220703-0.451172-0.330078-0.676758l0.000977,0.00293
			c-0.094727-0.135254-0.19043-0.270508-0.286133-0.405762l0.014648,0.015625c-0.104492-0.128906-0.208008-0.257813-0.3125-0.386719
			l-0.054688,0.078125l0.058594-0.078613c-0.109375-0.116699-0.21875-0.233398-0.328125-0.349609l-0.105469,0.0625
			l0.099609-0.070801c-0.112305-0.110352-0.224609-0.221191-0.337891-0.332031l-0.09082,0.086914l0.083984-0.092773
			c-0.125-0.103516-0.250977-0.206543-0.375977-0.310059l0.009766-0.021973c-1.237305-1.376953-2.94043-1.856445-4.631836-2.241699
			c-6.036133-1.373535-11.893555-0.378418-17.665039,1.5c-0.34082,0.117676-0.682617,0.234863-1.023438,0.352539
			c-3.43457,0.912109-6.538086,2.521973-9.431641,4.544434c-1.916992,1.338867-3.598633,2.926758-4.821777,4.958984
			c-2.646973,4.399414-1.216797,8.566406,3.555176,10.429688c2.362305,0.921875,4.844238,1.078125,7.322266,1.297852
			c-0.152344,0.073242-0.297852,0.1875-0.45752,0.213867c-4.268555,0.701172-8.556152,0.992188-12.859375,0.40625
			c-2.932617-0.399414-5.819824-1.077148-8.347168-2.673828c-1.466797-0.926758-2.891602-2.023438-4.065918-3.291992
			c-3.01123-3.254883-3.525391-6.960938-1.516602-10.97168c1.680176-3.35498,4.147461-6.070313,6.940918-8.505859
			c6.473145-5.64502,13.835449-9.817383,21.789063-12.976074c4.37793-1.738281,8.837891-3.194824,13.607422-3.373535
			c1.477539-0.055176,1.477539-0.048828,1.34375-1.692383c-0.003906-0.11084-0.005859-0.221191-0.006836-0.331543
			c4.411133,0,8.822266,0,13.249023,0c0,16.666504,0,33.333496,0,49.999512c-2.717773,0-5.432617,0-8.147461,0
			c0.012695-0.113281,0.012695-0.225586,0.000977-0.338867c0-3.463867,0-6.927734,0-10.390625
			c-0.154297-0.054688-0.308594-0.108398-0.461914-0.163086c-0.302734,0.462891-0.703125,0.888672-0.890625,1.393555
			c-0.827148,2.224609-1.591797,4.47168-2.382813,6.708008c-0.112305,0.319336-0.160156,0.787109-0.387695,0.913086
			c-0.390625,0.21582-0.899414,0.21582-1.359375,0.305664c-0.019531-0.298828-0.123047-0.62207-0.043945-0.892578
			c0.520508-1.790039,1.089844-3.566406,1.619141-5.353516c0.099609-0.335938,0.09082-0.705078,0.133789-1.071289
			c-0.94043-0.006836-1.167969,0.514648-1.352539,1.172852c-0.443359,1.577148-0.941406,3.138672-1.422852,4.705078
			c-0.52832,1.71875-0.616211,1.761719-2.619141,1.255859c0.609375-1.842773,1.217773-3.682617,1.892578-5.724609
			c-1.328125,0.5625-1.338867,0.558594-1.635742,1.40332c-0.430664,1.226563-0.900391,2.443359-1.246094,3.693359
			c-0.24707,0.893555-0.831055,1.073242-1.521484,0.806641c-0.179688-0.070313-0.207031-0.869141-0.100586-1.280273
			c0.301758-1.165039,0.708008-2.303711,1.074219-3.452148c-0.161133-0.084961-0.322266-0.170898-0.483398-0.255859
			c-0.341797,0.431641-0.799805,0.816406-1.001953,1.305664c-0.429688,1.041992-0.723633,2.139648-1.078125,3.211914
			c-0.251953,0.761719-0.894531,0.608398-1.420898,0.520508c-0.772461-0.128906-0.349609-0.695313-0.259766-1.067383
			c0.200195-0.831055,0.466797-1.647461,0.706055-2.46875c-0.148438-0.077148-0.297852-0.154297-0.447266-0.231445
			c-0.324219,0.378906-0.745117,0.711914-0.951172,1.146484c-0.3125,0.658203-0.441406,1.400391-0.708008,2.083984
			c-0.382813,0.980469-1.273438,0.618164-1.912109,0.526367c-0.826172-0.118164-0.327148-0.750977-0.226563-1.19043
			c0.09375-0.40918,0.197266-0.817383,0.311523-1.289063c-1.128906,0.234375-1.128906,0.234375-1.432617,1.017578
			c-0.633789,1.631836-0.633789,1.631836-2.458008,1.34375c0.032715-0.212891,0.082031-0.425781,0.09375-0.640625
			c0.019531-0.356445,0.105469-0.994141,0.005371-1.026367c-0.587402-0.191406-0.942383,0.163086-1.10498,0.725586
			c-0.047363,0.163086-0.086914,0.328125-0.143555,0.488281c-0.285645,0.811523-0.966797,0.636719-1.571289,0.607422
			c-0.733398-0.036133-0.504883-0.512695-0.459473-0.967773c0.066895-0.671875-0.432617-0.59375-0.770508-0.383789
			c-0.25,0.154297-0.366699,0.522461-0.54541,0.793945c-0.445801,0.677734-2.575684,0.864258-2.973633,0.260742
			c-0.633789-0.958008-0.692871-0.998047-1.233398-0.195313c-0.598145,0.887695-1.435059,0.397461-2.161621,0.504883
			c-0.734863,0.109375-0.840332-0.338867-0.770996-0.947266c0.003418-0.03125-0.874023-0.229492-0.888672-0.188477
			c-0.614746,1.72168-1.958984,1.058594-3.139648,1.066406c-0.021973-0.240234-0.027344-0.404297-0.053711-0.563477
			c-0.063477-0.390625-0.136719-0.779297-0.205566-1.167969c-0.291504,0.253906-0.746094,0.457031-0.844727,0.771484
			c-0.339355,1.081055-0.995117,1.207031-2.01123,0.868164c0.146973-0.541992,0.321289-1.016602,0.386719-1.505859
			c0.027344-0.204102-0.134277-0.580078-0.28418-0.623047c-0.195313-0.057617-0.589844,0.070313-0.678223,0.236328
			c-0.263672,0.494141-0.29541,1.165039-0.655273,1.539063c-0.313477,0.325195-0.944824,0.375977-1.449707,0.445313
			c-0.058594,0.008789-0.266602-0.632813-0.294922-0.981445c-0.021484-0.261719,0.131836-0.538086,0.210938-0.806641
			c0.402344-1.365234,0.402832-1.365234-1.436523-1.75c-0.054688,1.598633-0.10791,3.163086-0.161621,4.727539
			C7.162598,50.094727,7.152832,50.217773,7.143066,50.34082z M50.848633,17.67041
			c0.0625,0.267578,0.160156,0.468262,0.143555,0.658691c-0.058594,0.678711,0.356445,0.998047,0.898438,0.912109
			c0.202148-0.032227,0.435547-0.676758,0.4375-1.043945c0.018555-3.116211,0-6.233398-0.035156-9.350098
			c-0.015625-1.366699-0.044922-1.403809-1.439453-1.358887c-6.114258,0.197754-12.229492,0.415527-18.34375,0.634277
			c-1.236328,0.043945-2.280273,0.581543-3.394043,1.320313c0.756348,0.074707,1.339355,0.131836,2.072754,0.20459
			c-1.69873,4.813965-3.334961,9.450195-5.009277,14.194824c1.365234-0.122559,1.539063-0.994141,1.82373-1.796875
			c1.379395-3.891113,2.764648-7.779785,4.167969-11.662109c0.324219-0.898438,1.283203-1.349609,2.169922-0.926758
			c0.852539,0.40625,0.206055,1.074219,0.040039,1.57373c-1.048828,3.167969-2.148438,6.318848-3.21582,9.480469
			C31.036133,20.892578,31,21.306152,30.914063,21.741211c1.09668,0.011719,1.24707-0.671875,1.47168-1.330078
			c1.09668-3.211426,2.211914-6.416504,3.321289-9.623535c0.573242-1.656738,0.574219-1.65625,2.527344-1.388672
			c-0.138672,0.495117-0.257813,0.979004-0.407227,1.453125c-0.819336,2.587402-1.668945,5.166504-2.453125,7.764648
			c-0.167969,0.555664-0.887695,1.404785-0.072266,1.703125c0.848633,0.310059,0.927734-0.753906,1.125-1.359863
			c0.929688-2.849121,1.860352-5.69873,2.733398-8.56543c0.266602-0.876953,0.648438-1.400879,1.645508-1.233398
			c0.408203,0.068359,0.828125,0.068848,1.336914,0.107422c-1.135742,3.441895-2.222656,6.734863-3.310547,10.03418
			c1.183594,0.384766,1.313477-0.380371,1.524414-1.012695c0.861328-2.574219,1.705078-5.154297,2.567383-7.728516
			c0.548828-1.63916,0.764648-1.737305,2.629883-1.244629c-0.171875,0.537109-0.335938,1.07373-0.515625,1.605469
			c-0.796875,2.357422-1.609375,4.709473-2.381836,7.074707c-0.09082,0.275391,0.033203,0.620117,0.057617,0.932617
			c0.329102-0.150879,0.711914-0.241699,0.966797-0.472656c0.180664-0.163574,0.183594-0.519531,0.274414-0.786133
			c0.858398-2.516113,1.772461-5.015625,2.553711-7.555176c0.34375-1.118164,0.895508-1.480957,2.085938-1.06543
			c-1,3.155762-2,6.3125-3.012695,9.507813c0.832031,0.346191,1.191406,0.087402,1.416992-0.685547
			c0.523438-1.790527,1.119141-3.560059,1.689453-5.337402c0.328125-1.022949,0.623047-2.060547,1.024414-3.054199
			c0.110352-0.273438,0.551758-0.413086,0.841797-0.614258c0.136719,0.269043,0.40625,0.547363,0.388672,0.806152
			c-0.083984,1.231445-0.141602,2.480469-0.407227,3.679199c-0.280273,1.263672-0.849609,2.461426-1.160156,3.720703
			c-0.134766,0.54834-0.96875,1.274414,0.005859,1.705078C49.620117,18.883301,50.223633,18.161621,50.848633,17.67041z
			 M10.341797,20.501953c-0.810547,0.572754-1.735352,1.025391-1.791504,2.351074
			c-0.216797,5.144043-0.509766,10.284668-0.77002,15.42627c-0.01709,0.337891-0.091797,0.71582,0.029297,1.00293
			c0.111328,0.265625,0.450684,0.435547,0.689453,0.647461c0.186035-0.21582,0.507324-0.416992,0.533691-0.651367
			c0.100098-0.897461,0.144531-1.806641,0.13916-2.710938c-0.01123-1.885742,0.321289-3.686523,0.935059-5.481445
			c1.333496-3.900391,2.549316-7.841309,3.802246-11.769043c0.163086-0.511719,0.262207-1.044434,0.391602-1.567383
			c-0.133301-0.069336-0.26709-0.138672-0.400391-0.208008c-0.410645,0.61084-0.968262,1.169922-1.205078,1.842285
			c-0.788086,2.23584-1.456055,4.513672-2.181641,6.771484c-0.13916,0.431641-0.333008,0.845703-0.501465,1.268555
			c-0.124512-0.03125-0.249512-0.063477-0.374023-0.094727C9.872559,25.055664,10.106445,22.782227,10.341797,20.501953z
			 M24.218262,11.872559c-1.250488-0.012207-1.406738,0.834961-1.659668,1.557617
			c-3.098145,8.852539-6.198242,17.70459-9.255859,26.571777c-0.17627,0.510742-1.020508,1.365234,0.083496,1.668945
			c0.788086,0.216797,0.760254-0.789063,0.944824-1.311523c3.157227-8.951172,6.296387-17.90918,9.432129-26.868652
			C23.94043,12.984863,24.055176,12.457031,24.218262,11.872559z M19.493164,14.394531
			c-1.237793,0.166992-1.493652,0.970215-1.758789,1.778809c-1.727051,5.263672-3.455078,10.525879-5.19043,15.787598
			c-0.849609,2.575195-1.736328,5.139648-2.544922,7.728516c-0.09375,0.299805,0.208008,0.722656,0.32666,1.087891
			c0.245117-0.242188,0.508301-0.46875,0.727051-0.732422c0.100586-0.12207,0.114258-0.31543,0.16748-0.476563
			c2.45459-7.40332,4.911133-14.806641,7.36084-22.212402C18.893555,16.410156,19.168457,15.452148,19.493164,14.394531z
			 M18.579102,8.873535c-0.03418-0.117676-0.068359-0.235352-0.103027-0.353027
			c-2.70459,0.106445-5.408691,0.223633-8.11377,0.310059C9.788086,8.848633,9.329102,8.943359,9.323242,9.622559
			c-0.014648,1.652832-0.004883,3.306152-0.004883,5.008789c1.615723-0.450684,1.154297-1.76416,1.219727-2.796875
			c0.11377-1.797852,0.078613-1.799805,2.10791-1.489258c-0.20459,0.726563-0.405273,1.440918-0.625977,2.225098
			c1.054688-0.033691,1.44043-0.641113,1.631348-1.467285c0.224121-0.970703,0.832031-1.230957,1.76123-0.993164
			c0.324707,0.083008,0.740723,0.143555,1.017578,0.010742C17.174316,9.763672,17.866211,9.296875,18.579102,8.873535z
			 M28.735352,9.766113c-1.273438-0.053223-1.438477,0.714844-1.694336,1.406738
			c-1.92627,5.20752-3.856934,10.413574-5.815918,15.701172c1.233398,0.021484,1.547363-0.84082,1.86084-1.689453
			c1.506348-4.083496,3.008789-8.168945,4.509766-12.254395C27.960449,11.937012,28.313477,10.938965,28.735352,9.766113z
			 M16.868164,38.699219c-0.397461,1.091797-0.726074,1.932617-0.998047,2.791992
			C15.809082,41.683594,15.901367,42.106445,16,42.132813c0.236816,0.0625,0.684082,0.037109,0.755371-0.102539
			c0.331055-0.646484,0.664551-1.327148,0.785645-2.033203C17.597168,39.667969,17.174316,39.256836,16.868164,38.699219z"/>
		<path style="fill-rule:evenodd;clip-rule:evenodd;fill:#A7A2BF;" d="M52.381836,50.001953
			c0.011719,0.113281,0.011719,0.225586-0.000977,0.338867c-15.079102,0-30.158691,0-45.237793,0
			c0.009766-0.123047,0.019531-0.246094,0.029297-0.369141C22.242188,49.981445,37.311523,49.991211,52.381836,50.001953z"/>
		<path style="fill-rule:evenodd;clip-rule:evenodd;fill:#A7A2BF;" d="M47.279297,0.341309
			c0.000977,0.110352,0.00293,0.220703,0.006836,0.331543c-0.804688-0.010254-1.609375-0.02002-2.414063-0.029785
			c0.032227-0.098633,0.040039-0.199219,0.026367-0.301758C45.691406,0.341309,46.485352,0.341309,47.279297,0.341309z"/>
		<path style="fill-rule:evenodd;clip-rule:evenodd;fill:#565285;" d="M44.87207,0.643066
			c0.804688,0.009766,1.609375,0.019531,2.414063,0.029785c0.133789,1.643555,0.133789,1.637207-1.34375,1.692383
			c-4.769531,0.178711-9.229492,1.635254-13.607422,3.373535c-7.953613,3.158691-15.315918,7.331055-21.789063,12.976074
			c-2.793457,2.435547-5.260742,5.150879-6.940918,8.505859c-2.008789,4.010742-1.494629,7.716797,1.516602,10.97168
			c1.174316,1.268555,2.599121,2.365234,4.065918,3.291992c2.527344,1.59668,5.414551,2.274414,8.347168,2.673828
			c4.303223,0.585938,8.59082,0.294922,12.859375-0.40625c0.159668-0.026367,0.305176-0.140625,0.45752-0.213867
			c1.47168-0.266602,2.943359-0.53418,4.415039-0.800781c2.418945-0.62207,4.822266-1.291016,7.216797-2.4375
			c-0.239258-0.085938-0.295898-0.12793-0.344727-0.120117c-0.276367,0.041016-0.554688,0.078125-0.825195,0.146484
			c-3.912109,0.980469-7.886719,1.396484-11.906738,1.144531c-1.96582-0.123047-3.907715-0.509766-5.65625-1.532227
			c-2.103027-1.229492-2.92041-3.220703-2.393066-5.59375c0.480957-2.164063,1.775391-3.807617,3.412598-5.116211
			c6.227051-4.977051,13.480957-7.385254,21.327637-8.125c3.161133-0.297852,6.302734-0.022949,9.339844,1.021484
			l-0.007813-0.003906c0.101563,0.125488,0.179688,0.29248,0.30957,0.370605c1.946289,1.164063,3.217773,2.780762,3.494141,5.093262
			c0.015625,0.133789,0.201172,0.24707,0.307617,0.371094c-0.49707,2.748047-2.007813,4.87793-4.054688,6.691406
			c-4.708008,4.170898-10.250977,6.800781-16.165039,8.72168c-5.850586,1.899414-11.848145,2.975586-18.01709,2.841797
			c-3.870117-0.083984-7.654785-0.704102-11.236328-2.273438c-3.024414-1.324219-5.522461-3.28418-7.415527-6.015625
			c-2.290527-3.305664-2.563477-6.791992-1.067383-10.474609c1.015625-2.499512,2.541504-4.665039,4.339355-6.647949
			c4.42627-4.882813,9.755859-8.596191,15.45752-11.80127C27.521973,5.546387,33.935547,2.75,40.850586,1.240234
			C42.171875,0.952148,43.53125,0.837891,44.87207,0.643066z M48.772461,22.647949
			c-7.929688,0.432617-14.680664,2.405762-20.817383,6.347168c-2.182617,1.401367-3.948242,3.072266-4.541016,5.814453
			c-0.424805,1.967773-0.287598,3.046875,1.62793,3.790039c1.604004,0.621094,3.361328,0.994141,5.080078,1.142578
			c3.517578,0.304688,6.99707-0.239258,10.426758-1.003906c4.041016-0.899414,7.947266-2.19043,11.553711-4.279297
			c1.735352-1.003906,3.268555-2.232422,4.432617-3.880859c1.513672-2.143555,1.154297-4.544922-0.972656-6.094727
			c-0.626953-0.456543-1.366211-0.863281-2.112305-1.028809C51.698242,23.065918,49.911133,22.836426,48.772461,22.647949z"/>
		<path style="fill-rule:evenodd;clip-rule:evenodd;fill:#565285;" d="M50.848633,17.67041
			c-0.625,0.491211-1.228516,1.212891-1.466797,1.107422c-0.974609-0.430664-0.140625-1.156738-0.005859-1.705078
			c0.310547-1.259277,0.879883-2.457031,1.160156-3.720703c0.265625-1.19873,0.323242-2.447754,0.407227-3.679199
			c0.017578-0.258789-0.251953-0.537109-0.388672-0.806152c-0.290039,0.201172-0.731445,0.34082-0.841797,0.614258
			c-0.401367,0.993652-0.696289,2.03125-1.024414,3.054199c-0.570313,1.777344-1.166016,3.546875-1.689453,5.337402
			c-0.225586,0.772949-0.584961,1.031738-1.416992,0.685547c1.012695-3.195313,2.012695-6.352051,3.012695-9.507813
			c-1.19043-0.415527-1.742188-0.052734-2.085938,1.06543c-0.78125,2.539551-1.695313,5.039063-2.553711,7.555176
			c-0.09082,0.266602-0.09375,0.622559-0.274414,0.786133c-0.254883,0.230957-0.637695,0.321777-0.966797,0.472656
			c-0.024414-0.3125-0.148438-0.657227-0.057617-0.932617c0.772461-2.365234,1.584961-4.717285,2.381836-7.074707
			c0.179688-0.531738,0.34375-1.068359,0.515625-1.605469c-1.865234-0.492676-2.081055-0.394531-2.629883,1.244629
			c-0.862305,2.574219-1.706055,5.154297-2.567383,7.728516c-0.210938,0.632324-0.34082,1.397461-1.524414,1.012695
			c1.087891-3.299316,2.174805-6.592285,3.310547-10.03418c-0.508789-0.038574-0.928711-0.039063-1.336914-0.107422
			c-0.99707-0.16748-1.378906,0.356445-1.645508,1.233398c-0.873047,2.866699-1.803711,5.716309-2.733398,8.56543
			c-0.197266,0.605957-0.276367,1.669922-1.125,1.359863c-0.81543-0.29834-0.095703-1.147461,0.072266-1.703125
			c0.78418-2.598145,1.633789-5.177246,2.453125-7.764648c0.149414-0.474121,0.268555-0.958008,0.407227-1.453125
			c-1.953125-0.267578-1.954102-0.268066-2.527344,1.388672c-1.109375,3.207031-2.224609,6.412109-3.321289,9.623535
			c-0.224609,0.658203-0.375,1.341797-1.47168,1.330078c0.085938-0.435059,0.12207-0.848633,0.250977-1.230469
			c1.067383-3.161621,2.166992-6.3125,3.21582-9.480469c0.166016-0.499512,0.8125-1.16748-0.040039-1.57373
			c-0.886719-0.422852-1.845703,0.02832-2.169922,0.926758c-1.40332,3.882324-2.788574,7.770996-4.167969,11.662109
			c-0.284668,0.802734-0.458496,1.674316-1.82373,1.796875c1.674316-4.744629,3.310547-9.380859,5.009277-14.194824
			c-0.733398-0.072754-1.316406-0.129883-2.072754-0.20459c1.11377-0.73877,2.157715-1.276367,3.394043-1.320313
			c6.114258-0.21875,12.229492-0.436523,18.34375-0.634277c1.394531-0.044922,1.423828-0.007813,1.439453,1.358887
			c0.035156,3.116699,0.053711,6.233887,0.035156,9.350098c-0.001953,0.367188-0.235352,1.011719-0.4375,1.043945
			c-0.541992,0.085938-0.957031-0.233398-0.898438-0.912109C51.008789,18.138672,50.911133,17.937988,50.848633,17.67041z"/>
		<path style="fill-rule:evenodd;clip-rule:evenodd;fill:#565285;" d="M52.381836,50.001953
			c-15.070313-0.010742-30.139648-0.020508-45.209473-0.030273c0.053711-1.564453,0.106934-3.128906,0.161621-4.727539
			c1.839355,0.384766,1.838867,0.384766,1.436523,1.75c-0.079102,0.268555-0.232422,0.544922-0.210938,0.806641
			c0.02832,0.348633,0.236328,0.990234,0.294922,0.981445c0.504883-0.069336,1.13623-0.120117,1.449707-0.445313
			c0.359863-0.374023,0.391602-1.044922,0.655273-1.539063c0.088379-0.166016,0.48291-0.293945,0.678223-0.236328
			c0.149902,0.042969,0.311523,0.418945,0.28418,0.623047c-0.06543,0.489258-0.239746,0.963867-0.386719,1.505859
			c1.016113,0.338867,1.671875,0.212891,2.01123-0.868164c0.098633-0.314453,0.553223-0.517578,0.844727-0.771484
			c0.068848,0.388672,0.14209,0.777344,0.205566,1.167969c0.026367,0.15918,0.031738,0.323242,0.053711,0.563477
			c1.180664-0.007813,2.524902,0.655273,3.139648-1.066406c0.014648-0.041016,0.89209,0.157227,0.888672,0.188477
			c-0.069336,0.608398,0.036133,1.056641,0.770996,0.947266c0.726563-0.107422,1.563477,0.382813,2.161621-0.504883
			c0.540527-0.802734,0.599609-0.762695,1.233398,0.195313c0.397949,0.603516,2.527832,0.416992,2.973633-0.260742
			c0.178711-0.271484,0.29541-0.639648,0.54541-0.793945c0.337891-0.209961,0.837402-0.288086,0.770508,0.383789
			c-0.04541,0.455078-0.273926,0.931641,0.459473,0.967773c0.604492,0.029297,1.285645,0.204102,1.571289-0.607422
			c0.056641-0.160156,0.096191-0.325195,0.143555-0.488281c0.162598-0.5625,0.517578-0.916992,1.10498-0.725586
			c0.100098,0.032227,0.01416,0.669922-0.005371,1.026367c-0.011719,0.214844-0.061035,0.427734-0.09375,0.640625
			c1.824219,0.288086,1.824219,0.288086,2.458008-1.34375c0.303711-0.783203,0.303711-0.783203,1.432617-1.017578
			c-0.114258,0.47168-0.217773,0.879883-0.311523,1.289063c-0.100586,0.439453-0.599609,1.072266,0.226563,1.19043
			c0.638672,0.091797,1.529297,0.454102,1.912109-0.526367c0.266602-0.683594,0.395508-1.425781,0.708008-2.083984
			c0.206055-0.43457,0.626953-0.767578,0.951172-1.146484c0.149414,0.077148,0.298828,0.154297,0.447266,0.231445
			c-0.239258,0.821289-0.505859,1.637695-0.706055,2.46875c-0.089844,0.37207-0.512695,0.938477,0.259766,1.067383
			c0.526367,0.087891,1.168945,0.241211,1.420898-0.520508c0.354492-1.072266,0.648438-2.169922,1.078125-3.211914
			c0.202148-0.489258,0.660156-0.874023,1.001953-1.305664c0.161133,0.084961,0.322266,0.170898,0.483398,0.255859
			c-0.366211,1.148438-0.772461,2.287109-1.074219,3.452148c-0.106445,0.411133-0.079102,1.209961,0.100586,1.280273
			c0.69043,0.266602,1.274414,0.086914,1.521484-0.806641c0.345703-1.25,0.81543-2.466797,1.246094-3.693359
			c0.296875-0.844727,0.307617-0.84082,1.635742-1.40332c-0.674805,2.041992-1.283203,3.881836-1.892578,5.724609
			c2.00293,0.505859,2.09082,0.462891,2.619141-1.255859c0.481445-1.566406,0.979492-3.12793,1.422852-4.705078
			c0.18457-0.658203,0.412109-1.179688,1.352539-1.172852c-0.042969,0.366211-0.03418,0.735352-0.133789,1.071289
			c-0.529297,1.787109-1.098633,3.563477-1.619141,5.353516c-0.079102,0.270508,0.024414,0.59375,0.043945,0.892578
			c0.459961-0.089844,0.96875-0.089844,1.359375-0.305664c0.227539-0.125977,0.275391-0.59375,0.387695-0.913086
			c0.791016-2.236328,1.555664-4.483398,2.382813-6.708008c0.1875-0.504883,0.587891-0.930664,0.890625-1.393555
			c0.15332,0.054688,0.307617,0.108398,0.461914,0.163086C52.381836,43.074219,52.381836,46.538086,52.381836,50.001953z
			 M51.09375,44.933594c-0.099609-0.011719-0.199219-0.024414-0.297852-0.036133
			c-0.435547,1.255859-0.870117,2.510742-1.3125,3.788086c1.573242,0.191406,1.583984,0.191406,1.607422-1.055664
			C51.107422,46.731445,51.09375,45.833008,51.09375,44.933594z"/>
		<path style="fill-rule:evenodd;clip-rule:evenodd;fill:#565285;" d="M10.341797,20.501953
			c-0.235352,2.280273-0.469238,4.553711-0.703613,6.827148c0.124512,0.03125,0.249512,0.063477,0.374023,0.094727
			c0.168457-0.422852,0.362305-0.836914,0.501465-1.268555c0.725586-2.257813,1.393555-4.535645,2.181641-6.771484
			c0.236816-0.672363,0.794434-1.231445,1.205078-1.842285c0.133301,0.069336,0.26709,0.138672,0.400391,0.208008
			c-0.129395,0.522949-0.228516,1.055664-0.391602,1.567383c-1.25293,3.927734-2.46875,7.868652-3.802246,11.769043
			c-0.61377,1.794922-0.946289,3.595703-0.935059,5.481445c0.005371,0.904297-0.039063,1.813477-0.13916,2.710938
			c-0.026367,0.234375-0.347656,0.435547-0.533691,0.651367c-0.23877-0.211914-0.578125-0.381836-0.689453-0.647461
			c-0.121094-0.287109-0.046387-0.665039-0.029297-1.00293c0.260254-5.141602,0.553223-10.282227,0.77002-15.42627
			C8.606445,21.527344,9.53125,21.074707,10.341797,20.501953z M9.746094,27.914063
			c-0.07666,0.131836-0.167969,0.216797-0.166504,0.300781c0.001953,0.145508,0.061523,0.291016,0.09668,0.436523
			c0.049316-0.086914,0.135254-0.171875,0.139648-0.260742C9.823242,28.24707,9.776855,28.100586,9.746094,27.914063z"/>
		<path style="fill-rule:evenodd;clip-rule:evenodd;fill:#565285;" d="M24.218262,11.872559
			c-0.163086,0.584473-0.277832,1.112305-0.455078,1.618164c-3.135742,8.959473-6.274902,17.91748-9.432129,26.868652
			c-0.18457,0.522461-0.156738,1.52832-0.944824,1.311523c-1.104004-0.303711-0.259766-1.158203-0.083496-1.668945
			c3.057617-8.867188,6.157715-17.719238,9.255859-26.571777C22.811523,12.70752,22.967773,11.860352,24.218262,11.872559z"/>
		<path style="fill-rule:evenodd;clip-rule:evenodd;fill:#DD9152;" d="M35.266602,42.737305
			c-1.47168,0.266602-2.943359,0.53418-4.415039,0.800781c-2.478027-0.219727-4.959961-0.375977-7.322266-1.297852
			c-4.771973-1.863281-6.202148-6.030273-3.555176-10.429688c1.223145-2.032227,2.904785-3.620117,4.821777-4.958984
			c2.893555-2.022461,5.99707-3.632324,9.431641-4.544434c0.053711,0.062988,0.108398,0.125977,0.161133,0.189453
			c-2.011719,0.98584-4.035156,1.94873-6.032227,2.962891c-2.870117,1.458496-5.197754,3.563965-7.047852,6.180176
			c-1.236816,1.748047-1.600586,3.779297-1.150391,5.81543c0.504883,2.286133,2.26123,3.671875,4.370605,4.296875
			c2.021484,0.599609,4.167969,0.811523,6.274902,1.067383c0.810547,0.099609,1.663086-0.194336,2.499023-0.222656
			C33.955078,42.574219,34.612305,42.685547,35.266602,42.737305z"/>
		<path style="fill-rule:evenodd;clip-rule:evenodd;fill:#565285;" d="M19.493164,14.394531
			c-0.324707,1.057617-0.599609,2.015625-0.912109,2.961426c-2.449707,7.405762-4.90625,14.809082-7.36084,22.212402
			c-0.053223,0.161133-0.066895,0.354492-0.16748,0.476563c-0.21875,0.263672-0.481934,0.490234-0.727051,0.732422
			c-0.118652-0.365234-0.42041-0.788086-0.32666-1.087891c0.808594-2.588867,1.695313-5.15332,2.544922-7.728516
			c1.735352-5.261719,3.463379-10.523926,5.19043-15.787598C17.999512,15.364746,18.255371,14.561523,19.493164,14.394531z"/>
		<path style="fill-rule:evenodd;clip-rule:evenodd;fill:#565285;" d="M18.579102,8.873535
			c-0.712891,0.42334-1.404785,0.890137-2.148926,1.24707c-0.276855,0.132813-0.692871,0.072266-1.017578-0.010742
			c-0.929199-0.237793-1.537109,0.022461-1.76123,0.993164c-0.190918,0.826172-0.57666,1.433594-1.631348,1.467285
			c0.220703-0.78418,0.421387-1.498535,0.625977-2.225098c-2.029297-0.310547-1.994141-0.308594-2.10791,1.489258
			c-0.06543,1.032715,0.395996,2.346191-1.219727,2.796875c0-1.702637-0.009766-3.355957,0.004883-5.008789
			c0.005859-0.679199,0.464844-0.773926,1.039063-0.791992c2.705078-0.086426,5.40918-0.203613,8.11377-0.310059
			C18.510742,8.638184,18.544922,8.755859,18.579102,8.873535z"/>
		<path style="fill-rule:evenodd;clip-rule:evenodd;fill:#565285;" d="M28.735352,9.766113
			c-0.421875,1.172852-0.774902,2.170898-1.139648,3.164063c-1.500977,4.085449-3.003418,8.170898-4.509766,12.254395
			c-0.313477,0.848633-0.627441,1.710938-1.86084,1.689453c1.958984-5.287598,3.889648-10.493652,5.815918-15.701172
			C27.296875,10.480957,27.461914,9.712891,28.735352,9.766113z"/>
		<path style="fill-rule:evenodd;clip-rule:evenodd;fill:#DD9152;" d="M35.250977,21.95459
			c5.771484-1.878418,11.628906-2.873535,17.665039-1.5c1.691406,0.385254,3.394531,0.864746,4.631836,2.241699
			c-0.706055-0.191406-1.412109-0.383301-2.118164-0.575195L55.4375,22.125c-0.635742-0.320801-1.238281-0.767578-1.911133-0.942383
			c-4.210938-1.094238-8.462891-1.039551-12.710938-0.243652C39,21.279297,37.208008,21.745117,35.405273,22.153809
			C35.354492,22.087402,35.302734,22.020996,35.250977,21.95459z"/>
		<path style="fill-rule:evenodd;clip-rule:evenodd;fill:#C65943;" d="M55.429688,22.121094
			c0.706055,0.191895,1.412109,0.383789,2.118164,0.575195l-0.009766,0.021973c0.125,0.103516,0.250977,0.206543,0.375977,0.310059
			l-0.083984,0.092773l0.09082-0.086914c0.113281,0.11084,0.225586,0.22168,0.337891,0.332031l-0.099609,0.070801l0.105469-0.0625
			c0.109375,0.116211,0.21875,0.23291,0.328125,0.349609l-0.058594,0.078613l0.054688-0.078125
			c0.104492,0.128906,0.208008,0.257813,0.3125,0.386719l-0.014648-0.015625c0.095703,0.135254,0.191406,0.270508,0.286133,0.405762
			l-0.000977-0.00293c0.109375,0.225586,0.219727,0.451172,0.330078,0.676758
			c0.060547,0.080566,0.083984,0.170898,0.070313,0.270996c0.086914,0.354492,0.173828,0.708984,0.260742,1.063477
			c-0.097656,0.482422-0.194336,0.963867-0.291992,1.446289c-0.106445-0.124023-0.291992-0.237305-0.307617-0.371094
			c-0.276367-2.3125-1.547852-3.929199-3.494141-5.093262C55.609375,22.413574,55.53125,22.246582,55.429688,22.121094z"/>
		<path style="fill-rule:evenodd;clip-rule:evenodd;fill:#565285;" d="M16.868164,38.699219
			c0.306152,0.557617,0.729004,0.96875,0.672852,1.297852c-0.121094,0.706055-0.45459,1.386719-0.785645,2.033203
			C16.684082,42.169922,16.236816,42.195313,16,42.132813c-0.098633-0.026367-0.190918-0.449219-0.129883-0.641602
			C16.14209,40.631836,16.470703,39.791016,16.868164,38.699219z"/>
		<path style="fill-rule:evenodd;clip-rule:evenodd;fill:#DD9152;" d="M59.833008,26.509766
			c-0.086914-0.354492-0.173828-0.708984-0.260742-1.063477C59.65918,25.800781,59.746094,26.155273,59.833008,26.509766z"/>
		<path style="fill-rule:evenodd;clip-rule:evenodd;fill:#DD9152;" d="M34.227539,22.307129
			c0.34082-0.117676,0.682617-0.234863,1.023438-0.352539c0.051758,0.066406,0.103516,0.132813,0.154297,0.199219
			c-0.338867,0.114258-0.677734,0.228516-1.016602,0.342773C34.335938,22.433105,34.28125,22.370117,34.227539,22.307129z"/>
		<path style="fill-rule:evenodd;clip-rule:evenodd;fill:#DD9152;" d="M59.501953,25.175293
			c-0.110352-0.225586-0.220703-0.451172-0.330078-0.676758C59.28125,24.724121,59.391602,24.949707,59.501953,25.175293z"/>
		<path style="fill-rule:evenodd;clip-rule:evenodd;fill:#DD9152;" d="M59.172852,24.501465
			c-0.094727-0.135254-0.19043-0.270508-0.286133-0.405762C58.982422,24.230957,59.078125,24.366211,59.172852,24.501465z"/>
		<path style="fill-rule:evenodd;clip-rule:evenodd;fill:#DD9152;" d="M58.592773,23.724121
			c-0.109375-0.116699-0.21875-0.233398-0.328125-0.349609C58.374023,23.490723,58.483398,23.607422,58.592773,23.724121z"/>
		<path style="fill-rule:evenodd;clip-rule:evenodd;fill:#DD9152;" d="M58.258789,23.366211
			c-0.112305-0.110352-0.224609-0.221191-0.337891-0.332031C58.03418,23.14502,58.146484,23.255859,58.258789,23.366211z"/>
		<path style="fill-rule:evenodd;clip-rule:evenodd;fill:#DD9152;" d="M57.914063,23.02832
			c-0.125-0.103516-0.250977-0.206543-0.375977-0.310059C57.663086,22.821777,57.789063,22.924805,57.914063,23.02832z"/>
		<path style="fill-rule:evenodd;clip-rule:evenodd;fill:#DD9152;" d="M58.901367,24.111328
			c-0.104492-0.128906-0.208008-0.257813-0.3125-0.386719C58.693359,23.853516,58.796875,23.982422,58.901367,24.111328z"/>
		<path style="fill-rule:evenodd;clip-rule:evenodd;fill:none;" d="M48.772461,22.647949
			c1.138672,0.188477,2.925781,0.417969,4.677734,0.806641c0.746094,0.165527,1.485352,0.572266,2.112305,1.028809
			c2.126953,1.549805,2.486328,3.951172,0.972656,6.094727c-1.164063,1.648438-2.697266,2.876953-4.432617,3.880859
			c-3.606445,2.088867-7.512695,3.379883-11.553711,4.279297c-3.429688,0.764648-6.90918,1.308594-10.426758,1.003906
			c-1.71875-0.148438-3.476074-0.521484-5.080078-1.142578c-1.915527-0.743164-2.052734-1.822266-1.62793-3.790039
			c0.592773-2.742188,2.358398-4.413086,4.541016-5.814453C34.091797,25.053711,40.842773,23.080566,48.772461,22.647949z
			 M50.711914,32.222656c0.905273-0.151367,1.604492-0.584961,1.636719-1.332031
			c0.070313-1.583008,0.074219-3.175781-0.011719-4.757813c-0.060547-1.106445-1.166992-0.87793-1.844727-1.116211
			c-0.166016-0.058594-0.692383,0.449707-0.808594,0.782715c-0.955078,2.721191-1.855469,5.461426-2.762695,8.19873
			c-0.133789,0.404297-0.213867,0.826172-0.333008,1.292969c1.100586-0.147461,1.398438-0.873047,1.65625-1.643555
			c0.681641-2.038086,1.361328-4.076172,2.05957-6.108398c0.111328-0.325195,0.311523-0.620117,0.469727-0.928711
			c0.120117,0.03125,0.239258,0.063477,0.359375,0.094727C50.993164,28.525391,50.854492,30.345703,50.711914,32.222656z
			 M41.261719,25.663086c-0.047852-0.119629-0.075195-0.349609-0.169922-0.382324
			c-0.194336-0.067383-0.508789-0.119629-0.624023-0.01416c-0.234375,0.213379-0.433594,0.51416-0.537109,0.817383
			c-1.290039,3.792969-2.567383,7.591797-3.819336,11.397461c-0.086914,0.262695,0.048828,0.598633,0.081055,0.900391
			c0.314453-0.161133,0.679688-0.267578,0.926758-0.500977c0.183594-0.173828,0.220703-0.508789,0.310547-0.776367
			c1.167969-3.476563,2.333984-6.954102,3.5-10.430664C41.037109,26.353516,41.141602,26.03125,41.261719,25.663086z
			 M37.792969,25.961914c-1.244141-0.024414-1.455078,0.69043-1.69043,1.40332
			c-0.916992,2.78125-1.845703,5.557617-2.766602,8.336914c-0.265625,0.801758-0.538086,1.601563-0.768555,2.414063
			c-0.044922,0.15918,0.038086,0.479492,0.152344,0.532227c0.175781,0.082031,0.494141,0.077148,0.634766-0.036133
			c0.198242-0.15918,0.335938-0.436523,0.420898-0.689453C35.105469,33.990234,36.421875,30.051758,37.792969,25.961914z
			 M39.460938,37.643555c1.108398,0.369141,1.283203-0.286133,1.499023-0.969727
			c1.121094-3.556641,2.263672-7.106445,3.397461-10.658203c0.069336-0.215332,0.1875-0.428711,0.193359-0.645508
			c0.004883-0.194336-0.060547-0.5-0.188477-0.562012c-0.165039-0.079102-0.504883-0.041504-0.623047,0.084473
			c-0.219727,0.233887-0.383789,0.55127-0.483398,0.862305C41.993164,29.679688,40.745117,33.609375,39.460938,37.643555z
			 M42.892578,36.888672c1.108398,0.155273,1.359375-0.519531,1.59082-1.230469
			c0.907227-2.782227,1.819336-5.5625,2.728516-8.344727c0.209961-0.641602,0.443359-1.27832,0.606445-1.932617
			c0.057617-0.228516-0.061523-0.501465-0.099609-0.753906c-0.298828,0.087891-0.683594,0.09082-0.871094,0.285156
			c-0.212891,0.220215-0.253906,0.609863-0.361328,0.928711c-0.605469,1.814453-1.21875,3.626953-1.810547,5.446289
			C44.073242,33.138672,43.494141,34.996094,42.892578,36.888672z M33.755859,27.306641
			C32.700195,27.292969,32.376953,27.78418,32.167969,28.5c-0.37793,1.297852-0.822266,2.577148-1.234375,3.866211
			c-0.584961,1.826172-1.179199,3.649414-1.727539,5.486328c-0.068848,0.229492,0.117676,0.53418,0.186035,0.803711
			c0.277344-0.133789,0.577148-0.237305,0.822754-0.414063c0.109863-0.080078,0.112793-0.308594,0.165039-0.469727
			C31.485352,34.34375,32.591797,30.915039,33.755859,27.306641z M29.276367,29.459961
			c-0.138672-0.112305-0.277832-0.224609-0.416504-0.336914c-0.395996,0.490234-0.94873,0.921875-1.159668,1.482422
			c-0.796387,2.115234-1.496582,4.267578-2.191406,6.418945c-0.097656,0.300781-0.085449,0.880859,0.08252,0.979492
			c0.49707,0.291016,0.789551-0.03418,0.963867-0.556641C27.447266,34.779297,28.366699,32.121094,29.276367,29.459961z"/>
		<path style="fill-rule:evenodd;clip-rule:evenodd;fill:#C65943;" d="M34.388672,22.496582
			c0.338867-0.114258,0.677734-0.228516,1.016602-0.342773C37.208008,21.745117,39,21.279297,40.81543,20.938965
			c4.248047-0.795898,8.5-0.850586,12.710938,0.243652c0.672852,0.174805,1.275391,0.621582,1.911133,0.942383
			c-3.037109-1.044434-6.178711-1.319336-9.339844-1.021484c-7.84668,0.739746-15.100586,3.147949-21.327637,8.125
			c-1.637207,1.308594-2.931641,2.952148-3.412598,5.116211c-0.527344,2.373047,0.290039,4.364258,2.393066,5.59375
			c1.748535,1.022461,3.69043,1.40918,5.65625,1.532227c4.02002,0.251953,7.994629-0.164063,11.906738-1.144531
			c0.270508-0.068359,0.548828-0.105469,0.825195-0.146484c0.048828-0.007813,0.105469,0.03418,0.344727,0.120117
			c-2.394531,1.146484-4.797852,1.81543-7.216797,2.4375c-0.654297-0.051758-1.311523-0.163086-1.963867-0.140625
			c-0.835938,0.02832-1.688477,0.322266-2.499023,0.222656c-2.106934-0.255859-4.253418-0.467773-6.274902-1.067383
			c-2.109375-0.625-3.865723-2.010742-4.370605-4.296875c-0.450195-2.036133-0.086426-4.067383,1.150391-5.81543
			c1.850098-2.616211,4.177734-4.72168,7.047852-6.180176C30.353516,24.445313,32.376953,23.482422,34.388672,22.496582z"/>
		<path style="fill-rule:evenodd;clip-rule:evenodd;fill:none;" d="M51.09375,44.933594
			c0,0.899414,0.013672,1.797852-0.00293,2.696289c-0.023438,1.24707-0.03418,1.24707-1.607422,1.055664
			c0.442383-1.277344,0.876953-2.532227,1.3125-3.788086C50.894531,44.90918,50.994141,44.921875,51.09375,44.933594z"/>
		<path style="fill-rule:evenodd;clip-rule:evenodd;fill:#A7A2BF;" d="M9.746094,27.914063
			c0.030762,0.186523,0.077148,0.333008,0.069824,0.476563c-0.004395,0.088867-0.090332,0.173828-0.139648,0.260742
			c-0.035156-0.145508-0.094727-0.291016-0.09668-0.436523C9.578125,28.130859,9.669434,28.045898,9.746094,27.914063z"/>
		<path style="fill-rule:evenodd;clip-rule:evenodd;fill:#565285;" d="M50.711914,32.222656
			c0.142578-1.876953,0.28125-3.697266,0.420898-5.517578c-0.120117-0.03125-0.239258-0.063477-0.359375-0.094727
			c-0.158203,0.308594-0.358398,0.603516-0.469727,0.928711c-0.698242,2.032227-1.37793,4.070313-2.05957,6.108398
			c-0.257813,0.770508-0.555664,1.496094-1.65625,1.643555c0.119141-0.466797,0.199219-0.888672,0.333008-1.292969
			c0.907227-2.737305,1.807617-5.477539,2.762695-8.19873c0.116211-0.333008,0.642578-0.841309,0.808594-0.782715
			c0.677734,0.238281,1.78418,0.009766,1.844727,1.116211c0.085938,1.582031,0.082031,3.174805,0.011719,4.757813
			C52.316406,31.637695,51.617188,32.071289,50.711914,32.222656z"/>
		<path style="fill-rule:evenodd;clip-rule:evenodd;fill:#565285;" d="M41.261719,25.663086
			c-0.120117,0.368164-0.224609,0.69043-0.332031,1.010742c-1.166016,3.476563-2.332031,6.954102-3.5,10.430664
			c-0.089844,0.267578-0.126953,0.602539-0.310547,0.776367c-0.24707,0.233398-0.612305,0.339844-0.926758,0.500977
			c-0.032227-0.301758-0.167969-0.637695-0.081055-0.900391c1.251953-3.805664,2.529297-7.604492,3.819336-11.397461
			c0.103516-0.303223,0.302734-0.604004,0.537109-0.817383c0.115234-0.105469,0.429688-0.053223,0.624023,0.01416
			C41.186523,25.313477,41.213867,25.543457,41.261719,25.663086z"/>
		<path style="fill-rule:evenodd;clip-rule:evenodd;fill:#565285;" d="M37.792969,25.961914
			c-1.371094,4.089844-2.6875,8.02832-4.017578,11.960938c-0.084961,0.25293-0.222656,0.530273-0.420898,0.689453
			c-0.140625,0.113281-0.458984,0.118164-0.634766,0.036133c-0.114258-0.052734-0.197266-0.373047-0.152344-0.532227
			c0.230469-0.8125,0.50293-1.612305,0.768555-2.414063c0.920898-2.779297,1.849609-5.555664,2.766602-8.336914
			C36.337891,26.652344,36.548828,25.9375,37.792969,25.961914z"/>
		<path style="fill-rule:evenodd;clip-rule:evenodd;fill:#565285;" d="M39.460938,37.643555
			c1.28418-4.03418,2.532227-7.963867,3.794922-11.888672c0.099609-0.311035,0.263672-0.628418,0.483398-0.862305
			c0.118164-0.125977,0.458008-0.163574,0.623047-0.084473c0.12793,0.062012,0.193359,0.367676,0.188477,0.562012
			c-0.005859,0.216797-0.124023,0.430176-0.193359,0.645508c-1.133789,3.551758-2.276367,7.101563-3.397461,10.658203
			C40.744141,37.357422,40.569336,38.012695,39.460938,37.643555z"/>
		<path style="fill-rule:evenodd;clip-rule:evenodd;fill:#565285;" d="M42.892578,36.888672
			c0.601563-1.892578,1.180664-3.75,1.783203-5.601563c0.591797-1.819336,1.205078-3.631836,1.810547-5.446289
			c0.107422-0.318848,0.148438-0.708496,0.361328-0.928711c0.1875-0.194336,0.572266-0.197266,0.871094-0.285156
			c0.038086,0.252441,0.157227,0.525391,0.099609,0.753906c-0.163086,0.654297-0.396484,1.291016-0.606445,1.932617
			c-0.90918,2.782227-1.821289,5.5625-2.728516,8.344727C44.251953,36.369141,44.000977,37.043945,42.892578,36.888672z"/>
		<path style="fill-rule:evenodd;clip-rule:evenodd;fill:#565285;" d="M33.755859,27.306641
			c-1.164063,3.608398-2.270508,7.037109-3.375977,10.46582c-0.052246,0.161133-0.055176,0.389648-0.165039,0.469727
			c-0.245605,0.176758-0.54541,0.280273-0.822754,0.414063c-0.068359-0.269531-0.254883-0.574219-0.186035-0.803711
			c0.54834-1.836914,1.142578-3.660156,1.727539-5.486328c0.412109-1.289063,0.856445-2.568359,1.234375-3.866211
			C32.376953,27.78418,32.700195,27.292969,33.755859,27.306641z"/>
		<path style="fill-rule:evenodd;clip-rule:evenodd;fill:#565285;" d="M29.276367,29.459961
			c-0.909668,2.661133-1.829102,5.319336-2.721191,7.987305c-0.174316,0.522461-0.466797,0.847656-0.963867,0.556641
			c-0.167969-0.098633-0.180176-0.678711-0.08252-0.979492c0.694824-2.151367,1.39502-4.303711,2.191406-6.418945
			c0.210938-0.560547,0.763672-0.992188,1.159668-1.482422C28.998535,29.235352,29.137695,29.347656,29.276367,29.459961z"/>
	</g>
</g>
<g>
</g>
<g>
</g>
<g>
</g>
<g>
</g>
<g>
</g>
<g>
</g>
</svg>
