<?xml version="1.0" encoding="UTF-8" standalone="no"?>
<!-- Created with Inkscape (http://www.inkscape.org/) -->

<svg
   xmlns:dc="http://purl.org/dc/elements/1.1/"
   xmlns:cc="http://creativecommons.org/ns#"
   xmlns:rdf="http://www.w3.org/1999/02/22-rdf-syntax-ns#"
   xmlns:svg="http://www.w3.org/2000/svg"
   xmlns="http://www.w3.org/2000/svg"
   xmlns:sodipodi="http://sodipodi.sourceforge.net/DTD/sodipodi-0.dtd"
   xmlns:inkscape="http://www.inkscape.org/namespaces/inkscape"
   width="197.4991"
   height="179.74223"
   id="svg2"
   version="1.1"
   inkscape:version="0.92.3 (2405546, 2018-03-11)"
   sodipodi:docname="jws.svg">
  <defs
     id="defs4" />
  <sodipodi:namedview
     id="base"
     pagecolor="#ffffff"
     bordercolor="#666666"
     borderopacity="1.0"
     inkscape:pageopacity="0.0"
     inkscape:pageshadow="2"
     inkscape:zoom="4.6844861"
     inkscape:cx="98.74955"
     inkscape:cy="89.871117"
     inkscape:document-units="px"
     inkscape:current-layer="g3856"
     showgrid="false"
     inkscape:window-width="1920"
     inkscape:window-height="1030"
     inkscape:window-x="0"
     inkscape:window-y="0"
     inkscape:window-maximized="1"
     showguides="true"
     inkscape:guide-bbox="true"
     fit-margin-top="0"
     fit-margin-left="0"
     fit-margin-right="0"
     fit-margin-bottom="0" />
  <metadata
     id="metadata7">
    <rdf:RDF>
      <cc:Work
         rdf:about="">
        <dc:format>image/svg+xml</dc:format>
        <dc:type
           rdf:resource="http://purl.org/dc/dcmitype/StillImage" />
        <dc:title></dc:title>
      </cc:Work>
    </rdf:RDF>
  </metadata>
  <g
     inkscape:label="Layer 1"
     inkscape:groupmode="layer"
     id="layer1"
     transform="translate(14.74955,-778.15135)">
    <g
       id="g3856"
       transform="translate(-43,2)">
      <g
         transform="translate(51.000005,24)"
         id="g3851"
         style="fill:#000000;fill-opacity:1">
        <path
           inkscape:connector-curvature="0"
           style="color:#000000;font-style:normal;font-variant:normal;font-weight:normal;font-stretch:normal;font-size:medium;line-height:normal;font-family:Sans;-inkscape-font-specification:Sans;text-indent:0;text-align:start;text-decoration:none;text-decoration-line:none;letter-spacing:normal;word-spacing:normal;text-transform:none;writing-mode:lr-tb;direction:ltr;baseline-shift:baseline;text-anchor:start;display:inline;overflow:visible;visibility:visible;fill:#000000;fill-opacity:1;stroke:#000000;stroke-width:1;stroke-miterlimit:4;stroke-dasharray:none;stroke-opacity:1;marker:none;enable-background:accumulate"
           d="m 130.34416,754.08091 v 23.8125 l -85.90625,-0.0312 c -0.0107,0 -0.0206,-3e-5 -0.0312,0 -16.24286,0.0464 -27.15993,2.86879 -33.03125,10.5 -5.10515,6.63538 -5.41432,14.21207 -5.40625,20.65625 5e-5,0.0407 -7e-5,0.0844 0,0.125 l -0.0625,63.84375 h -27.65625 l 0.0937,15.53125 37.22243,0.0808 c 3.691946,0.0159 5.225793,-2.7942 5.40257,-6.14331 v -73.9375 c 0.1626,-5.1967 0.76286,-9.01712 2.3125,-11.03125 1.60766,-2.08955 5.41043,-4.16637 15.4375,-4.59375 h 131.84375 l -0.0312,-0.0312 -40.1875,-38.78125 z"
           id="path2985-7-2-4"
           sodipodi:nodetypes="ccccsccccccccsccccc" />
        <path
           style="color:#000000;font-style:normal;font-variant:normal;font-weight:normal;font-stretch:normal;font-size:medium;line-height:normal;font-family:Sans;-inkscape-font-specification:Sans;text-indent:0;text-align:start;text-decoration:none;text-decoration-line:none;letter-spacing:normal;word-spacing:normal;text-transform:none;writing-mode:lr-tb;direction:ltr;baseline-shift:baseline;text-anchor:start;display:inline;overflow:visible;visibility:visible;fill:#000000;fill-opacity:1;stroke:#000000;stroke-width:1;stroke-miterlimit:4;stroke-dasharray:none;stroke-opacity:1;marker:none;enable-background:accumulate"
           d="m 95.78586,807.42875 v 66.21429 h -15.5625 v -66.34726 l -15,-0.005 v 66.35268 H 48.94211 v -66.20982 h -15 v 73.70982 7.5 h 7.5 61.84375 c 3.70574,0.029 7.375,-4.22088 7.5,-7.5 v -73.625 z"
           id="path2987-1-7-1"
           inkscape:connector-curvature="0"
           sodipodi:nodetypes="cccccccccccccccc" />
        <path
           style="color:#000000;font-style:normal;font-variant:normal;font-weight:normal;font-stretch:normal;font-size:medium;line-height:normal;font-family:Sans;-inkscape-font-specification:Sans;text-indent:0;text-align:start;text-decoration:none;text-decoration-line:none;letter-spacing:normal;word-spacing:normal;text-transform:none;writing-mode:lr-tb;direction:ltr;baseline-shift:baseline;text-anchor:start;display:inline;overflow:visible;visibility:visible;fill:#000000;fill-opacity:1;stroke:#000000;stroke-width:1;stroke-linecap:butt;stroke-linejoin:round;stroke-miterlimit:4;stroke-dasharray:none;stroke-opacity:1;marker:none;enable-background:accumulate"
           d="m 121.28078,814.4814 v 32.98123 7.31562 h 7.5 29.96875 v 18.52687 h -37.34375 v 15.33834 h 44.84375 7.5 v -7.31562 -33.86521 c -0.11744,-4.4717 -3.45463,-7.13883 -7.5,-7.31561 h -29.96875 v -18.35001 h 37.3125 v -14.63123 h -44.8125 c -5.73873,-0.0148 -7.32322,3.93832 -7.5,7.31562 z"
           id="path2991-1-7-2"
           inkscape:connector-curvature="0"
           sodipodi:nodetypes="ccccccccccccccccccc" />
      </g>
      <g
         transform="translate(51,24)"
         id="g3843"
         style="fill:#000000;fill-opacity:1">
        <path
           style="fill:#000000;fill-opacity:1;stroke:#000000;stroke-width:1;stroke-miterlimit:4;stroke-dasharray:none;stroke-opacity:1"
           d="m 17.2642,897.33078 v 33.9688 h 8.5 v -19.7813 l 15,19.7813 v 0.094 h 8.5 v -34 h -8.5 v 19.9375 l -15,-19.7812 v -0.2188 H 25.60795 17.2642 Z"
           id="rect4443-1"
           inkscape:connector-curvature="0" />
        <path
           style="fill:#000000;fill-opacity:1;stroke:#000000;stroke-width:1;stroke-miterlimit:4;stroke-dasharray:none;stroke-opacity:1"
           d="m 57.30921,897.33078 v 34 h 4.5625 3.9375 17.65625 v -8.5 H 65.80921 v -25.5 z"
           id="rect4443-4-7"
           inkscape:connector-curvature="0" />
        <rect
           style="fill:#000000;fill-opacity:1;stroke:#000000;stroke-width:1;stroke-miterlimit:4;stroke-dasharray:none;stroke-opacity:1"
           id="rect4443-4-1-57"
           width="8.4928055"
           height="33.992805"
           x="91.510483"
           y="897.33081" />
        <path
           inkscape:connector-curvature="0"
           style="fill:#000000;fill-opacity:1;stroke:#000000;stroke-width:1;stroke-miterlimit:4;stroke-dasharray:none;stroke-opacity:1"
           d="m 108.04829,897.33078 v 33.9688 h 8.5 v -19.7813 l 15,19.7813 v 0.094 h 8.5 v -34 h -8.5 v 19.9375 l -15,-19.7812 v -0.2188 h -0.15625 -8.34375 z"
           id="rect4443-5-0" />
        <path
           style="fill:#000000;fill-opacity:1;stroke:#000000;stroke-width:1;stroke-miterlimit:4;stroke-dasharray:none;stroke-opacity:1"
           d="m 148.0933,897.33098 v 34 0.031 h 4.5625 3.9375 17.65625 v -8.5 H 156.5933 v -4.2812 h 17.65625 v -8.5 H 156.5933 v -4.25 h 17.65625 v -8.5 h -17.65625 -3.9375 -4.5625 z"
           id="rect4443-4-1-5-5"
           inkscape:connector-curvature="0" />
        <path
           style="fill:#000000;fill-opacity:1;stroke:#000000;stroke-width:1;stroke-miterlimit:4;stroke-dasharray:none;stroke-opacity:1"
           d="m -22.24955,897.33078 v 34 h 4.5625 3.9375 14.46875 3.1875 5.3125 v -34 h -4.5625 -3.9375 -14.46875 -3.1875 z m 8.5,8.5 H 0.7192 v 17 h -14.46875 z"
           id="rect4443-4-3-3"
           inkscape:connector-curvature="0" />
      </g>
    </g>
  </g>
</svg>
