<?xml version="1.0" encoding="utf-8"?>
<!-- Generator: Adobe Illustrator 16.0.0, SVG Export Plug-In . SVG Version: 6.00 Build 0)  -->
<!DOCTYPE svg PUBLIC "-//W3C//DTD SVG 1.1//EN" "http://www.w3.org/Graphics/SVG/1.1/DTD/svg11.dtd">
<svg version="1.1" id="Layer_1" xmlns="http://www.w3.org/2000/svg" xmlns:xlink="http://www.w3.org/1999/xlink" x="0px" y="0px"
	 width="106.15625px" height="50px" viewBox="0 0 106.15625 50" style="enable-background:new 0 0 106.15625 50;"
	 xml:space="preserve">
<g id="NFSim">
	<path style="fill-rule:evenodd;clip-rule:evenodd;fill:none;" d="M45.27002,0.040039
		c19.760254,0,39.520996,0.018555,59.281738-0.040039c1.353516-0.003906,1.607422,0.24707,1.601563,1.600586
		c-0.064453,15.599609-0.064453,31.200195,0,46.799805c0.005859,1.353516-0.248047,1.603516-1.601563,1.599609
		c-29.379883-0.050781-58.761719-0.039063-88.143066-0.039063c-5.070313,0-10.140137-0.037109-15.209473,0.033203
		C0.183594,50.007813-0.00293,49.804688,0,48.791016c0.041992-15.860352,0.041992-31.72168,0-47.581055
		c-0.00293-1.013672,0.185547-1.203125,1.198242-1.200195c13.649902,0.044922,27.300781,0.030273,40.95166,0.030273
		c-1.327148,2.357422-3.466797,4.061523-5.910156,4.541016c-2.148438,0.421875-2.9375,1.533203-3.283203,3.190918
		c-0.473145,2.258301-0.869629,4.58252-0.866699,6.879395c0.006836,5.634766,0.467773,11.244141,1.352051,16.830078
		c0.542969,3.43457,0.640625,6.943359,0.879883,10.424805c0.050781,0.75,0.057617,1.632813-0.282227,2.255859
		c-0.897461,1.636719-0.088867,2.732422,0.954102,3.777344c0.415039,0.416016,0.999023,0.662109,1.506836,0.984375
		c0.329102-0.667969,0.71875-1.316406,0.960938-2.013672c0.114258-0.332031,0.019531-0.787109-0.103516-1.142578
		c-1.854492-5.380859-1.310547-10.987305-1.49707-16.512695c-0.085938-2.548828,1.735352-4.199219,4.255859-4.275391
		c1.038086-0.03125,2.079102-0.007813,3.118164-0.011719c0.90918-0.003906,1.831055,0.071289,2.724121-0.051758
		c0.442383-0.061523,0.833984-0.491211,1.246094-0.754883c-0.301758-0.268555-0.578125-0.726563-0.912109-0.774414
		c-2.023926-0.286133-4.055176-0.563477-6.092285-0.678711c-2.342773-0.134766-2.837891-0.40918-2.728516-2.699219
		c0.12207-2.564453,0.277344-5.177734,0.875-7.660156c0.951172-3.94873,6.003906-6.623047,10.100098-5.659668
		c0.623047,0.146484,1.313477,0.424805,1.878906,0.279297c0.674805-0.173828,1.416992-0.627441,1.791016-1.186035
		c0.180664-0.269531-0.262695-1.269531-0.685547-1.573242c-1.335938-0.955078-2.81543-1.706055-4.199219-2.599609
		C46.533203,1.157227,45.921875,0.567383,45.27002,0.040039z M23.532227,17.325195
		c-0.726563,2.013184-1.31543,4.268555-2.333984,6.308594c-1.149414,2.299805-2.730957,4.350586-2.555176,7.154297
		c0.051758,0.818359-0.449219,1.748047-0.910156,2.496094c-0.282227,0.458008-0.96875,0.667969-1.473633,0.990234
		c-0.225586-0.421875-0.55957-0.818359-0.660156-1.267578c-1.351563-5.996094-3.368164-11.84082-3.979492-18.011719
		c-0.225586-2.288086-0.827148-4.542969-1.294922-6.803223c-0.260742-1.261719-0.703125-0.981445-1.444336-0.231445
		c-2.689941,2.724121-2.285156,6.719238-4.118652,9.804199c-0.561523,0.946289-0.639648,2.205078-0.822266,3.339844
		c-0.100586,0.626953-0.091797,1.333984,0.091797,1.935547c1.280273,4.182617-0.391602,7.900391-2.301758,11.283203
		c-1.254883,2.21875-0.898438,3.917969-0.03418,5.803711c0.743164,1.621094,2.96875,1.701172,3.698242,0.109375
		c0.519531-1.131836,0.649414-2.467773,0.824219-3.729492c0.194336-1.40625-0.020508-2.916016,0.404785-4.230469
		c1.053711-3.261719,1.258789-6.576172,1.274414-9.955078c0.004883-1.123047,0.34375-2.253906,0.606445-3.363281
		c0.058594-0.248047,0.416992-0.486328,0.689453-0.591797c0.09668-0.037109,0.373047,0.3125,0.527344,0.515625
		c0.15332,0.20166,0.306641,0.429199,0.371094,0.669434c1.482422,5.428223,3.094727,10.82666,4.357422,16.305176
		c0.55957,2.431641,1.209961,4.643555,3.081055,6.358398c0.766602,0.701172,1.330078,0.583984,1.682617-0.369141
		c0.133789-0.359375,0.248047-0.730469,0.325195-1.105469c0.828613-4.014648,1.628418-8.036133,2.48877-12.043945
		c0.130859-0.615234,0.4375-1.240234,0.81543-1.75c2.646484-3.570313,3.239258-7.742676,3.819336-11.994141
		c0.303711-2.222656,0.424805-4.509766,1.791016-6.614746c0.928711-1.429688,0.901367-3.502441-0.356445-5.127441
		c-0.210938-0.271484-0.681641-0.693359-0.813477-0.625c-1.332031,0.694336-3.164063,1.166016-3.808594,2.296875
		c-1.460938,2.566895-2.394531,5.444336-1.15918,8.519531C22.791992,14.588867,23.081055,15.850586,23.532227,17.325195z
		 M92.860352,37.239258c0.048828,0,0.095703,0.001953,0.144531,0.001953c0,1.943359-0.011719,3.887695,0.025391,5.829102
		c0.003906,0.150391,0.339844,0.384766,0.546875,0.416016c0.195313,0.029297,0.566406-0.109375,0.611328-0.253906
		c0.154297-0.482422,0.302734-1.007813,0.259766-1.5c-0.246094-2.790039,0.611328-5.358398,1.554688-7.897461
		c0.638672-1.716797,1.435547-2.012695,3.740234-1.856445c1.507813,0.102539,2.322266,0.749023,2.578125,2.314453
		c0.390625,2.395508,0.955078,4.762695,1.472656,7.134766c0.083984,0.384766,0.318359,0.736328,0.480469,1.103516
		c0.078125-0.369141,0.263672-0.751953,0.214844-1.101563c-0.505859-3.686523-0.882813-7.405273-1.644531-11.040039
		c-0.513672-2.447266-3.826172-3.448242-5.845703-2.009766c-0.519531,0.371094-0.916016,0.910156-1.398438,1.337891
		c-0.46875,0.416992-0.8125,0.923828-1.271484-0.18457c-1.328125-3.204102-1.710938-3.370117-4.770508-2.084961
		c-1.072266,0.451172-1.787109,0.588867-2.744141-0.267578c-1.296875-1.158203-2.931641-1.619141-4.699219-1.319336
		c-1.341797,0.227539-2.050781,1.146484-1.796875,2.494141c0.210938,1.125,0.779297,2.196289,0.898438,3.323242
		c0.330078,3.063477,0.458984,6.148438,0.765625,9.217773c0.115234,1.138672,0.435547,2.273438,0.802734,3.363281
		c0.130859,0.388672,0.699219,0.925781,1.019531,0.896484c0.570313-0.054688,1.277344-0.359375,1.607422-0.800781
		c0.345703-0.460938,0.402344-1.199219,0.435547-1.824219c0.066406-1.292969-0.080078-2.603516,0.0625-3.885742
		c0.367188-3.285156,1.453125-6.275391,4.189453-8.364258c1.345703-1.02832,2.588867-0.532227,2.723633,1.129883
		C92.981445,33.34082,92.860352,35.295898,92.860352,37.239258z M58.956055,45.246094
		c0.807617,0,1.069336,0.021484,1.326172-0.003906c2.348633-0.236328,4.470703-1.996094,5.05957-4.181641
		c0.492188-1.832031-0.666992-4.079102-2.702148-5.399414c-1.393555-0.904297-2.731445-1.892578-4.094727-2.84375
		c-1.529297-1.066406-1.570313-2.146484,0.023438-3.119141c0.731445-0.447266,1.650391-0.652344,2.512695-0.801758
		c0.754883-0.131836,1.603516,0.140625,2.30957-0.083008c0.635742-0.203125,1.314453-0.740234,1.625977-1.317383
		c0.191406-0.353516-0.131836-1.173828-0.466797-1.588867c-1.141602-1.412109-2.56543-2.126953-4.433594-1.386719
		c-0.586914,0.232422-1.217773,0.375-1.84082,0.488281c-2.855469,0.525391-4.910156,2.607422-5.22168,5.331055
		c-0.251953,2.198242,0.650391,3.760742,2.634766,4.616211c2.099609,0.90625,4.24707,1.726563,6.251953,2.810547
		c0.648438,0.349609,1.079102,1.357422,1.320313,2.15332c0.480469,1.582031-0.75,2.287109-1.845703,2.978516
		c-2.34668,1.480469-6.350586,0.660156-7.451172-1.511719c-0.212891-0.419922-0.446289-0.830078-0.668945-1.244141
		c-0.104492,0.494141-0.443359,1.105469-0.266602,1.462891c0.427734,0.873047,0.924805,1.980469,1.701172,2.357422
		C56.194336,44.675781,57.875977,44.939453,58.956055,45.246094z M70.736328,24.083984
		c-0.470703,0.65918-1.286133,1.280273-1.232422,1.8125c0.288086,2.887695-0.836914,5.978516,1.201172,8.647461
		c0.345703,0.453125,0.333984,1.214844,0.402344,1.841797c0.257813,2.423828,0.388672,4.864258,0.753906,7.268555
		c0.207031,1.371094,0.755859,2.693359,1.199219,4.021484c0.0625,0.189453,0.408203,0.285156,0.623047,0.425781
		c0.082031-0.21875,0.259766-0.449219,0.230469-0.652344c-0.398438-2.742188-1.085938-5.472656-1.185547-8.226563
		c-0.154297-4.25293-0.859375-8.641602,1.589844-12.59668c0.140625-0.228516,0.162109-0.814453,0.054688-0.869141
		C73.248047,25.186523,72.087891,24.69043,70.736328,24.083984z M73.404297,15.237305
		c1.082031-1.75,0.470703-2.135742-0.957031-1.972656c-0.384766,0.043945-0.783203,0.009766-1.162109,0.081055
		c-1.293945,0.241211-2.905273,0.604492-3.03125,1.944336c-0.099609,1.056641,0.947266,2.224609,1.496094,3.336914
		c0.053711,0.107422,0.178711,0.233398,0.286133,0.250977c0.831055,0.13623,1.825195,0.583496,2.459961,0.284668
		c0.824219-0.387207,1.791016-1.151855,1.353516-2.45752C73.660156,16.140625,73.503906,15.56543,73.404297,15.237305z"/>
	<path style="fill-rule:evenodd;clip-rule:evenodd;" d="M45.27002,0.040039c0.651855,0.527344,1.263184,1.117188,1.962402,1.569336
		c1.383789,0.893555,2.863281,1.644531,4.199219,2.599609c0.422852,0.303711,0.866211,1.303711,0.685547,1.573242
		c-0.374023,0.558594-1.116211,1.012207-1.791016,1.186035c-0.56543,0.145508-1.255859-0.132813-1.878906-0.279297
		c-4.096191-0.963379-9.148926,1.710938-10.100098,5.659668c-0.597656,2.482422-0.75293,5.095703-0.875,7.660156
		c-0.109375,2.290039,0.385742,2.564453,2.728516,2.699219c2.037109,0.115234,4.068359,0.392578,6.092285,0.678711
		c0.333984,0.047852,0.610352,0.505859,0.912109,0.774414c-0.412109,0.263672-0.803711,0.693359-1.246094,0.754883
		c-0.893066,0.123047-1.814941,0.047852-2.724121,0.051758c-1.039063,0.003906-2.080078-0.019531-3.118164,0.011719
		c-2.520508,0.076172-4.341797,1.726563-4.255859,4.275391c0.186523,5.525391-0.357422,11.131836,1.49707,16.512695
		c0.123047,0.355469,0.217773,0.810547,0.103516,1.142578c-0.242188,0.697266-0.631836,1.345703-0.960938,2.013672
		c-0.507813-0.322266-1.091797-0.568359-1.506836-0.984375c-1.042969-1.044922-1.851563-2.140625-0.954102-3.777344
		c0.339844-0.623047,0.333008-1.505859,0.282227-2.255859c-0.239258-3.481445-0.336914-6.990234-0.879883-10.424805
		c-0.884277-5.585938-1.345215-11.195313-1.352051-16.830078c-0.00293-2.296875,0.393555-4.621094,0.866699-6.879395
		c0.345703-1.657715,1.134766-2.769043,3.283203-3.190918c2.443359-0.479492,4.583008-2.183594,5.910156-4.541016
		C43.189941,0.040039,44.229004,0.040039,45.27002,0.040039z"/>
	<path style="fill-rule:evenodd;clip-rule:evenodd;" d="M23.532227,17.325195
		c-0.451172-1.474609-0.740234-2.736328-1.217773-3.923828c-1.235352-3.075195-0.301758-5.952637,1.15918-8.519531
		c0.644531-1.130859,2.476563-1.602539,3.808594-2.296875c0.131836-0.068359,0.602539,0.353516,0.813477,0.625
		c1.257813,1.625,1.285156,3.697754,0.356445,5.127441c-1.366211,2.10498-1.487305,4.39209-1.791016,6.614746
		c-0.580078,4.251465-1.172852,8.423828-3.819336,11.994141c-0.37793,0.509766-0.68457,1.134766-0.81543,1.75
		c-0.860352,4.007813-1.660156,8.029297-2.48877,12.043945c-0.077148,0.375-0.191406,0.746094-0.325195,1.105469
		c-0.352539,0.953125-0.916016,1.070313-1.682617,0.369141C15.658691,40.5,15.008301,38.288086,14.44873,35.856445
		c-1.262695-5.478516-2.875-10.876953-4.357422-16.305176c-0.064453-0.240234-0.217773-0.467773-0.371094-0.669434
		c-0.154297-0.203125-0.430664-0.552734-0.527344-0.515625c-0.272461,0.105469-0.630859,0.34375-0.689453,0.591797
		c-0.262695,1.109375-0.601563,2.240234-0.606445,3.363281c-0.015625,3.378906-0.220703,6.693359-1.274414,9.955078
		c-0.425293,1.314453-0.210449,2.824219-0.404785,4.230469c-0.174805,1.261719-0.304688,2.597656-0.824219,3.729492
		c-0.729492,1.591797-2.955078,1.511719-3.698242-0.109375c-0.864258-1.885742-1.220703-3.584961,0.03418-5.803711
		c1.910156-3.382813,3.582031-7.100586,2.301758-11.283203c-0.183594-0.601563-0.192383-1.308594-0.091797-1.935547
		c0.182617-1.134766,0.260742-2.393555,0.822266-3.339844c1.833496-3.084961,1.428711-7.080078,4.118652-9.804199
		c0.741211-0.75,1.183594-1.030273,1.444336,0.231445c0.467773,2.260254,1.069336,4.515137,1.294922,6.803223
		c0.611328,6.170898,2.62793,12.015625,3.979492,18.011719c0.100586,0.449219,0.43457,0.845703,0.660156,1.267578
		c0.504883-0.322266,1.191406-0.532227,1.473633-0.990234c0.460938-0.748047,0.961914-1.677734,0.910156-2.496094
		c-0.175781-2.803711,1.405762-4.854492,2.555176-7.154297C22.216797,21.59375,22.805664,19.338379,23.532227,17.325195z"/>
	<path style="fill-rule:evenodd;clip-rule:evenodd;" d="M92.860352,37.239258c0-1.943359,0.121094-3.898438-0.037109-5.828125
		c-0.134766-1.662109-1.37793-2.158203-2.723633-1.129883c-2.736328,2.088867-3.822266,5.079102-4.189453,8.364258
		c-0.142578,1.282227,0.003906,2.592773-0.0625,3.885742c-0.033203,0.625-0.089844,1.363281-0.435547,1.824219
		c-0.330078,0.441406-1.037109,0.746094-1.607422,0.800781c-0.320313,0.029297-0.888672-0.507813-1.019531-0.896484
		c-0.367188-1.089844-0.6875-2.224609-0.802734-3.363281c-0.306641-3.069336-0.435547-6.154297-0.765625-9.217773
		c-0.119141-1.126953-0.6875-2.198242-0.898438-3.323242c-0.253906-1.347656,0.455078-2.266602,1.796875-2.494141
		c1.767578-0.299805,3.402344,0.161133,4.699219,1.319336c0.957031,0.856445,1.671875,0.71875,2.744141,0.267578
		c3.05957-1.285156,3.442383-1.119141,4.770508,2.084961c0.458984,1.108398,0.802734,0.601563,1.271484,0.18457
		c0.482422-0.427734,0.878906-0.966797,1.398438-1.337891c2.019531-1.438477,5.332031-0.4375,5.845703,2.009766
		c0.761719,3.634766,1.138672,7.353516,1.644531,11.040039c0.048828,0.349609-0.136719,0.732422-0.214844,1.101563
		c-0.162109-0.367188-0.396484-0.71875-0.480469-1.103516c-0.517578-2.37207-1.082031-4.739258-1.472656-7.134766
		c-0.255859-1.56543-1.070313-2.211914-2.578125-2.314453c-2.304688-0.15625-3.101563,0.139648-3.740234,1.856445
		c-0.943359,2.539063-1.800781,5.107422-1.554688,7.897461c0.042969,0.492188-0.105469,1.017578-0.259766,1.5
		c-0.044922,0.144531-0.416016,0.283203-0.611328,0.253906c-0.207031-0.03125-0.542969-0.265625-0.546875-0.416016
		c-0.037109-1.941406-0.025391-3.885742-0.025391-5.829102C92.956055,37.241211,92.90918,37.239258,92.860352,37.239258z"/>
	<path style="fill-rule:evenodd;clip-rule:evenodd;" d="M58.956055,45.246094
		c-1.080078-0.306641-2.761719-0.570313-4.226563-1.283203c-0.776367-0.376953-1.273438-1.484375-1.701172-2.357422
		c-0.176758-0.357422,0.162109-0.96875,0.266602-1.462891c0.222656,0.414063,0.456055,0.824219,0.668945,1.244141
		c1.100586,2.171875,5.104492,2.992188,7.451172,1.511719c1.095703-0.691406,2.326172-1.396484,1.845703-2.978516
		c-0.241211-0.795898-0.671875-1.803711-1.320313-2.15332c-2.004883-1.083984-4.152344-1.904297-6.251953-2.810547
		c-1.984375-0.855469-2.886719-2.417969-2.634766-4.616211c0.311523-2.723633,2.366211-4.805664,5.22168-5.331055
		c0.623047-0.113281,1.253906-0.255859,1.84082-0.488281c1.868164-0.740234,3.291992-0.025391,4.433594,1.386719
		c0.334961,0.415039,0.658203,1.235352,0.466797,1.588867c-0.311523,0.577148-0.990234,1.114258-1.625977,1.317383
		c-0.706055,0.223633-1.554688-0.048828-2.30957,0.083008c-0.862305,0.149414-1.78125,0.354492-2.512695,0.801758
		c-1.59375,0.972656-1.552734,2.052734-0.023438,3.119141c1.363281,0.951172,2.701172,1.939453,4.094727,2.84375
		c2.035156,1.320313,3.194336,3.567383,2.702148,5.399414c-0.588867,2.185547-2.710938,3.945313-5.05957,4.181641
		C60.025391,45.267578,59.763672,45.246094,58.956055,45.246094z"/>
	<path style="fill-rule:evenodd;clip-rule:evenodd;" d="M70.736328,24.083984
		c1.351563,0.606445,2.511719,1.102539,3.636719,1.672852c0.107422,0.054688,0.085938,0.640625-0.054688,0.869141
		c-2.449219,3.955078-1.744141,8.34375-1.589844,12.59668c0.099609,2.753906,0.787109,5.484375,1.185547,8.226563
		c0.029297,0.203125-0.148438,0.433594-0.230469,0.652344c-0.214844-0.140625-0.560547-0.236328-0.623047-0.425781
		c-0.443359-1.328125-0.992188-2.650391-1.199219-4.021484c-0.365234-2.404297-0.496094-4.844727-0.753906-7.268555
		c-0.068359-0.626953-0.056641-1.388672-0.402344-1.841797c-2.038086-2.668945-0.913086-5.759766-1.201172-8.647461
		C69.450195,25.364258,70.265625,24.743164,70.736328,24.083984z"/>
	<path style="fill-rule:evenodd;clip-rule:evenodd;" d="M73.404297,15.237305c0.099609,0.328125,0.255859,0.90332,0.445313,1.467773
		c0.4375,1.305664-0.529297,2.070313-1.353516,2.45752c-0.634766,0.298828-1.628906-0.148438-2.459961-0.284668
		c-0.107422-0.017578-0.232422-0.143555-0.286133-0.250977c-0.548828-1.112305-1.595703-2.280273-1.496094-3.336914
		c0.125977-1.339844,1.737305-1.703125,3.03125-1.944336c0.378906-0.071289,0.777344-0.037109,1.162109-0.081055
		C73.875,13.101563,74.486328,13.487305,73.404297,15.237305z"/>
</g>
<g>
</g>
<g>
</g>
<g>
</g>
<g>
</g>
<g>
</g>
<g>
</g>
</svg>
