<?xml version="1.0" encoding="utf-8"?>
<!-- Generator: Adobe Illustrator 16.0.0, SVG Export Plug-In . SVG Version: 6.00 Build 0)  -->
<!DOCTYPE svg PUBLIC "-//W3C//DTD SVG 1.1//EN" "http://www.w3.org/Graphics/SVG/1.1/DTD/svg11.dtd">
<svg version="1.1" id="Layer_1" xmlns="http://www.w3.org/2000/svg" xmlns:xlink="http://www.w3.org/1999/xlink" x="0px" y="0px"
	 width="58.459961px" height="50px" viewBox="0 0 58.459961 50" style="enable-background:new 0 0 58.459961 50;"
	 xml:space="preserve">
<g id="OpenCor">
	<path id="manPath" style="fill:#376193;" d="M34.063965,49.572266c-0.492188-0.62207-0.285156-1.74707,0.535156-2.919922
		c0.476563-0.683594,0.625-1.09668,0.626953-1.764648c0.003906-0.558594,0.261719-0.987305,0.982422-1.629883
		c0.919922-0.819336,1.414063-1.873047,2.027344-4.318359c0.105469-0.425781,0.273438-1.021484,0.371094-1.323242
		c0.097656-0.300781,0.263672-0.855469,0.369141-1.230469c0.25-0.879883,0.746094-1.922852,1.115234-2.345703
		c0.160156-0.183594,0.667969-0.610352,1.128906-0.951172c0.550781-0.407227,0.916016-0.753906,1.066406-1.009766
		c0.353516-0.607422,0.912109-1.893555,0.849609-1.957031c-0.115234-0.113281-0.609375,0.181641-1.486328,0.883789
		c-0.576172,0.462891-1.089844,0.791992-1.439453,0.922852c-0.378906,0.141602-0.664063,0.332031-0.955078,0.640625
		c-0.447266,0.473633-0.708984,0.546875-0.957031,0.273438c-0.232422-0.256836-0.183594-0.605469,0.205078-1.43457
		c0.460938-0.979492,0.697266-1.28125,1.365234-1.727539c0.621094-0.416992,0.755859-0.610352,1.068359-1.523438
		c0.425781-1.253906,1.150391-1.637695,2.117188-1.12207c0.234375,0.124023,0.511719,0.227539,0.611328,0.229492
		c0.34375,0.000977,1.347656-0.408203,1.474609-0.601563c0.068359-0.105469,0.162109-0.583984,0.207031-1.062988
		c0.054688-0.586914,0.162109-1.061523,0.326172-1.451172c0.621094-1.485352,0.621094-1.493164,0.5-2.541992
		c-0.095703-0.813477-0.091797-1.081055,0.03125-1.763672c0.216797-1.244629,0.595703-1.940918,1.732422-3.187988
		c0.742188-0.813477,0.980469-1.135742,1.029297-1.398438c0.068359-0.363281-0.011719-2.314453-0.109375-2.658203
		c-0.083984-0.297852-0.169922-0.255859-0.443359,0.208008c-0.316406,0.541016-1.275391,1.560547-1.736328,1.845703
		c-0.201172,0.125977-0.578125,0.388672-0.839844,0.587891c-0.404297,0.307617-0.496094,0.436523-0.623047,0.874023
		c-0.376953,1.292969-1.021484,2.12793-2.304688,2.98291c-0.539063,0.359375-0.919922,0.691406-1.107422,0.964844
		c-0.335938,0.489258-0.820313,1.668945-0.824219,2.008789c-0.003906,0.285156,0.289063,1.164063,0.492188,1.47168
		c0.148438,0.229492,0.115234,0.344727-0.103516,0.344727c-0.070313,0-0.373047-0.206055-0.673828-0.457031
		c-0.583984-0.484375-0.826172-0.547852-1.257813-0.323242c-0.384766,0.199219-1.199219,1.123047-1.636719,1.857422
		c-0.212891,0.360352-0.449219,0.65625-0.521484,0.65625c-0.166016,0-0.171875,0.064453,0.091797-0.953125
		c0.291016-1.119141,0.521484-1.554688,1.369141-2.598633c0.384766-0.472656,0.794922-1.047852,0.912109-1.27832
		c0.304688-0.604492,1.130859-2.58252,1.373047-3.291504c0.251953-0.742188,0.568359-1.256836,1.179688-1.914063
		c1.755859-1.888672,2.404297-2.706055,2.695313-3.402344c0.412109-0.990234,1.111328-2.114258,1.933594-3.098633
		c0.386719-0.462891,0.878906-1.0625,1.095703-1.334961c0.908203-1.141602,1.392578-1.311523,3.538574-1.233398
		c1.560547,0.055664,1.798828,0.00293,1.953125-0.439453c0.074219-0.209961,0.042969-0.30957-0.207031-0.65918
		c-0.595703-0.827148-0.923828-1.832031-0.923828-2.831055c0-1.137695,0.345703-1.87207,1.085938-2.308594
		C53.74707,0.058594,53.901367,0.029297,54.817383,0c0,0,0.654297,0.020508,0.910156,0.09375s0.351563,0.103516,0.457031,0.208984
		c0.105469,0.104492,0.335938,0.46875,0.439453,0.830078c0.083984,0.296875,0.271484,0.75293,0.416016,1.009766
		c0.238281,0.420898,0.263672,0.547852,0.263672,1.310547c0,1.080078-0.123047,1.481445-0.609375,1.972656
		c-0.419922,0.425781-0.515625,0.65625-0.46875,1.135742c0.025391,0.264648,0.144531,0.392578,0.896484,0.974609
		c1.271484,0.984375,1.498047,1.460938,1.232422,2.607422c-0.423828,1.823242-1.220703,3.236328-2.640625,4.69043
		c-0.755859,0.773438-0.902344,0.986328-1.724609,2.509766c-0.492188,0.915039-0.941406,1.753418-0.992188,1.862793
		c-0.085938,0.177734-0.027344,0.27832,0.509766,0.857422c1.478516,1.597656,3.001953,4.03125,3.207031,5.125
		c0.035156,0.189453,0.035156,0.617188-0.001953,0.953613c-0.054688,0.517578-0.107422,0.65332-0.351563,0.895508
		c-0.501953,0.5-1.837891,0.90332-4.685547,1.416992l-1.663574,0.298828l-0.65625,0.765625
		c-0.361328,0.420898-0.859375,0.947266-1.105469,1.168945c-0.248047,0.22168-0.613281,0.65625-0.8125,0.966797
		c-0.431641,0.666016-1.142578,1.428711-1.996094,2.139648c-0.496094,0.415039-0.636719,0.589844-0.712891,0.892578
		c-0.119141,0.472656-0.791016,1.597656-1.560547,2.609375c-0.732422,0.96582-2.410156,3.054688-2.746094,3.421875
		c-0.421875,0.461914-1.158203,1.800781-1.736328,3.167969c-0.302734,0.71582-0.771484,1.714844-1.039063,2.219727
		c-0.267578,0.503906-0.632813,1.27832-0.810547,1.71875c-0.640625,1.586914-0.894531,1.835938-2,1.939453
		C34.284668,49.816406,34.245605,49.805664,34.063965,49.572266L34.063965,49.572266z"/>
	<path id="greyDnaPath" style="fill:#A5A5A5;" d="M40.270996,18.285156c-8.642578,0.323242-31.405273,3.268066-38.637695,13.449219
		c0.095703-0.094727,0.195313-0.181641,0.294922-0.262695c7.390625-8.864746,28.504883-12.092285,38.075195-12.533203
		c0.089844-0.217773,0.177734-0.436523,0.267578-0.655273V18.285156z M3.98877,30.711914
		c-1.144531-0.011719-2.511719,0.740234-3.287109,2.432617c-0.582031,1.272461-0.919922,3.040039,0.025391,3.651367
		c1.505859,0.974609,4.740234-0.996094,6.699219-1.083008c2.564453-0.113281,0.382813,8.849609,3.824707,8.850586
		c-2.199707-0.574219-0.644531-8.34375-3.070801-9.311523c-2.431641-0.969727-5.884766,2.250977-7.357422,1.269531
		c-1.082031-0.72168,0.09375-2.922852,0.755859-3.780273c0.90625-1.174805,3.205078-2.59375,4.292969-0.696289
		c-0.236328-0.849609-0.990234-1.322266-1.880859-1.331055L3.98877,30.711914z M11.250977,44.563477
		c0.923828,0.235352,1.685547-0.701172,2.355469-2.041016c0.039063-0.081055,0.080078-0.166992,0.119141-0.250977
		c-0.039063,0.085938-0.080078,0.168945-0.119141,0.250977c-0.03125,0.05957-0.060547,0.120117-0.089844,0.177734v1.723633
		c0.011719,0.020508,0.021484,0.041992,0.033203,0.063477c0.013672,0.029297,0.029297,0.058594,0.044922,0.086914
		c0.009766,0.017578,0.019531,0.035156,0.029297,0.054688c0.015625,0.02832,0.03125,0.054688,0.046875,0.081055
		c0.009766,0.014648,0.021484,0.03125,0.029297,0.045898c0.019531,0.02832,0.035156,0.056641,0.052734,0.083008
		c0.009766,0.011719,0.019531,0.025391,0.027344,0.038086c0.021484,0.026367,0.041016,0.051758,0.060547,0.077148
		c0.007813,0.009766,0.017578,0.020508,0.025391,0.029297c0.021484,0.026367,0.041016,0.051758,0.0625,0.075195
		c0.009766,0.008789,0.015625,0.014648,0.023438,0.024414c0.023438,0.023438,0.046875,0.046875,0.070313,0.067383
		c0.007813,0.005859,0.013672,0.011719,0.021484,0.017578c0.025391,0.022461,0.050781,0.042969,0.076172,0.0625
		c0.005859,0.003906,0.011719,0.006836,0.017578,0.011719V41.34375c0.179688-0.4375,0.353516-0.886719,0.523438-1.337891v5.207031
		c0.029297-0.02832,0.058594-0.057617,0.087891-0.088867c0.021484-0.026367,0.044922-0.054688,0.068359-0.083008
		c-0.023438,0.02832-0.044922,0.056641-0.068359,0.083008c-0.029297,0.03125-0.058594,0.060547-0.087891,0.088867
		c-0.072266,0.069336-0.146484,0.12793-0.222656,0.170898c2.689453,0.529297,3.152344-8.788086,5.984375-9.918945
		c-1.185547-0.255859-2.048828,0.788086-2.751953,2.288086v-0.949219c-0.181641-0.298828-0.398438-0.518555-0.660156-0.645508
		v3.222656c-0.195313,0.543945-0.378906,1.102539-0.558594,1.654297v-4.96875
		c-0.025391,0.026367-0.050781,0.052734-0.074219,0.083008c0.033203-0.041992,0.068359-0.080078,0.101563-0.114258
		C13.637695,36.149414,13.344727,44.651367,11.250977,44.563477L11.250977,44.563477z M34.118652,32.367188
		c-0.017578,0.004883-0.035156,0.011719-0.052734,0.017578c-3.306641,1.128906-3.871094,15.509766-6.904785,16.402344
		c-0.003906,0.001953-0.009766,0.001953-0.013672,0.00293c0.003906,0.001953,0.009766,0.004883,0.013672,0.005859
		c4.45166,1.787109,5.400879-13.969727,6.934082-16.391602C34.103027,32.392578,34.112793,32.37793,34.118652,32.367188
		L34.118652,32.367188z M28.452148,33.267578c-3.390625-0.045898-3.152344,14.402344-6.208984,14.807617
		c4.572266,0.248047,4.431641-13.210938,6.287109-14.803711C28.504883,33.270508,28.479492,33.268555,28.452148,33.267578
		L28.452148,33.267578z M15.856445,37.017578c-0.021484,0.042969-0.042969,0.085938-0.0625,0.130859v5.862305
		c-0.15625,0.431641-0.3125,0.829102-0.472656,1.172852v-5.915039C15.50293,37.807617,15.678711,37.381836,15.856445,37.017578
		L15.856445,37.017578z M14.975586,44.822266c-0.039063,0.05957-0.078125,0.115234-0.117188,0.168945
		C14.897461,44.9375,14.936523,44.881836,14.975586,44.822266z"/>
	<path id="redDnaPath" style="fill:#963835;" d="M9.225098,36.270508c2.666504-0.324219,1.965332,9.1875,4.631348,9.306641
		c0.400391,0.018555,0.582031-0.193359,0.582031-0.193359c-2.341797-0.598633-1.697266-11.176758-5.312988-9.334961
		l0.099609,0.222656V36.270508z M39.69873,42.472656c1.445313,3.950195,3.242188,7.427734,6.408203,7.450195
		c-1.980469-1.108398-3.470703-5.277344-5.03125-9.449219C40.562012,41.150391,40.103027,41.706055,39.69873,42.472656
		L39.69873,42.472656z M37.544434,47.041992c1.003906,1.435547,2.416016,2.768555,3.810547,2.834961
		c-1.710938,0.401367-3.320313-0.230469-4.501953-1.182617C37.071777,48.262695,37.294434,47.457031,37.544434,47.041992
		L37.544434,47.041992z M34.124512,32.364258c2.246094-0.65332,3.580078,4.232422,4.013672,5.504883
		c0.257813-0.984375,0.568359-1.911133,0.822266-2.553711c-0.666016-1.368164-3.091797-5.547852-4.837891-2.951172
		c-0.001953,0.001953-0.001953,0-0.003906,0.00293C34.122559,32.366211,34.124512,32.366211,34.124512,32.364258
		L34.124512,32.364258z M5.689941,33.703125c-0.666016-2.191406-3.914063-1.581055-5.396484,1.875
		c-0.625,1.461914-0.248047,3.641602,1.097656,3.785156c1.333984,0.143555,4.603516-1.888672,6.902344-2.930664l0.072266,0.164063
		c-2.935547,2.279297-11.453125,6.307617-6.941406-1.585938C2.26416,33.539063,4.479004,31.293945,5.689941,33.703125
		L5.689941,33.703125z M2.055176,31.371094c7.544922-8.358887,30.051758-10.782715,37.432617-11.066895
		c-0.285156,0.736328-0.707031,1.063477-0.931641,1.435547c-5.695313,0.140625-27.256348,2.213867-35.750977,9.193848
		C2.547363,31.03418,2.277832,31.207031,2.055176,31.371094L2.055176,31.371094z M26.624023,40.313477v8.041992
		c0.164063,0.174805,0.337891,0.321289,0.523438,0.43457V37.588867c0.277344-1.433594,0.546875-2.688477,0.878906-3.501953
		v14.020508c-0.291016,0.390625-0.708984,0.753906-1.226563,0.722656c-4.421875-0.255859-4.128906-11.300781-6.087891-13.166016
		c-0.083984-0.080078-0.181641-0.152344-0.289063-0.198242c0.128906-0.075195,0.462891-0.119141,0.660156-0.115234
		c2.599609,0.053711,2.876953,7.806641,4.662109,11.629883v-3.037109c0.349609-1.128906,0.630859-2.385742,0.878906-3.630859
		V40.313477z M30.905762,36.493164v2.588867c-0.300781,1.185547-0.587891,2.412109-0.881348,3.580078v-8.075195
		c-0.197266-0.342773-0.398438-0.626953-0.605469-0.84082v11.141602c-0.273438,0.907227-0.560547,1.71875-0.878906,2.366211
		V33.273438l0,0l0,0c-0.001953,0-0.003906,0-0.003906-0.001953c0-0.000977,0-0.000977,0.001953-0.00293
		c0.253906-0.262695,0.541016-0.419922,0.875-0.444336c2.54541-0.191406,4.20752,5.560547,6.271973,10.417969
		c-0.613281,0.452148-0.820313,1.200195-0.853516,1.560547c-0.033203,0.353516,0.058594,0.848633-0.146484,1.12793
		c-1.626953-2.908203-2.720703-6.757813-3.779297-9.438477V36.493164z M17.225586,35.626953
		c3.974609-0.34668,1.826172,10.75293,5.080078,12.449219c-4.839844,0.158203-2.439453-12.026367-5.824219-12.039063
		C16.633789,35.876953,16.946289,35.652344,17.225586,35.626953L17.225586,35.626953z"/>
	<path id="opencorPath" style="fill:none;" d="M1.121582,43.90918c7.570313-10.166016,30.588867-12.94043,39.124023-13.275391"/>
	<g style="enable-background:new    ;">
		<path style="fill:#A5A5A5;" d="M6.955078,21.041016c0.102539-0.026367,0.206055-0.052734,0.311035-0.080078
			c0.104492-0.026367,0.210938-0.048828,0.319336-0.068359c0.108398-0.018555,0.213867-0.02832,0.316406-0.02832
			c0.220215,0,0.409668,0.049805,0.567383,0.148438s0.275879,0.232422,0.353516,0.402344
			c0.078125,0.168945,0.117188,0.352539,0.117188,0.549805c0,0.308594-0.056152,0.661133-0.168457,1.058594
			c-0.112305,0.396484-0.272949,0.800781-0.481934,1.211914c-0.208984,0.410156-0.454102,0.797852-0.73584,1.163086
			c-0.383789,0.494141-0.844727,0.892578-1.382813,1.194336c-0.538086,0.302734-1.03125,0.454102-1.47998,0.454102
			c-0.330566,0-0.622559-0.09082-0.875488-0.271484s-0.450684-0.442383-0.593262-0.787109
			c-0.142578-0.34375-0.213867-0.748047-0.213867-1.211914c0-0.623047,0.17041-1.248047,0.510742-1.873047
			s0.77002-1.192383,1.288574-1.699219c0.519043-0.507813,1.042969-0.915039,1.571289-1.220703
			c0.528809-0.306641,0.958496-0.458984,1.289063-0.458984c0.27002,0,0.477051,0.082031,0.621582,0.248047
			c0.144531,0.165039,0.279297,0.432617,0.404785,0.800781c-0.353516,0.011719-0.661133,0.054688-0.923828,0.128906
			C7.508301,20.776367,7.236328,20.888672,6.955078,21.041016z M5.518066,22.199219
			c-0.266113,0.285156-0.535156,0.652344-0.807129,1.103516c-0.271973,0.450195-0.491699,0.892578-0.658691,1.326172
			c-0.16748,0.432617-0.250977,0.763672-0.250977,0.992188c0,0.566406,0.26416,0.849609,0.79248,0.849609
			c0.369141,0,0.845215-0.249023,1.428711-0.74707c0.583984-0.498047,1.091309-1.097656,1.522949-1.799805
			c0.431641-0.701172,0.647461-1.338867,0.647461-1.913086c0-0.421875-0.16748-0.632813-0.501953-0.632813
			c-0.258789,0-0.574219,0.102539-0.946777,0.307617s-0.72998,0.496094-1.072266,0.873047
			c-0.121582,0.136719-0.363281,0.470703-0.724121,1.00293C5.016113,23.205078,5.206055,22.75,5.518066,22.199219z"/>
	</g>
	<g style="enable-background:new    ;">
		<path style="fill:none;stroke:#808080;stroke-width:0.182501;" d="M6.955078,21.041016
			c0.102539-0.026367,0.206055-0.052734,0.311035-0.080078c0.104492-0.026367,0.210938-0.048828,0.319336-0.068359
			c0.108398-0.018555,0.213867-0.02832,0.316406-0.02832c0.220215,0,0.409668,0.049805,0.567383,0.148438
			s0.275879,0.232422,0.353516,0.402344c0.078125,0.168945,0.117188,0.352539,0.117188,0.549805
			c0,0.308594-0.056152,0.661133-0.168457,1.058594c-0.112305,0.396484-0.272949,0.800781-0.481934,1.211914
			c-0.208984,0.410156-0.454102,0.797852-0.73584,1.163086c-0.383789,0.494141-0.844727,0.892578-1.382813,1.194336
			c-0.538086,0.302734-1.03125,0.454102-1.47998,0.454102c-0.330566,0-0.622559-0.09082-0.875488-0.271484
			s-0.450684-0.442383-0.593262-0.787109c-0.142578-0.34375-0.213867-0.748047-0.213867-1.211914
			c0-0.623047,0.17041-1.248047,0.510742-1.873047s0.77002-1.192383,1.288574-1.699219
			c0.519043-0.507813,1.042969-0.915039,1.571289-1.220703c0.528809-0.306641,0.958496-0.458984,1.289063-0.458984
			c0.27002,0,0.477051,0.082031,0.621582,0.248047c0.144531,0.165039,0.279297,0.432617,0.404785,0.800781
			c-0.353516,0.011719-0.661133,0.054688-0.923828,0.128906C7.508301,20.776367,7.236328,20.888672,6.955078,21.041016z
			 M5.518066,22.199219c-0.266113,0.285156-0.535156,0.652344-0.807129,1.103516
			c-0.271973,0.450195-0.491699,0.892578-0.658691,1.326172c-0.16748,0.432617-0.250977,0.763672-0.250977,0.992188
			c0,0.566406,0.26416,0.849609,0.79248,0.849609c0.369141,0,0.845215-0.249023,1.428711-0.74707
			c0.583984-0.498047,1.091309-1.097656,1.522949-1.799805c0.431641-0.701172,0.647461-1.338867,0.647461-1.913086
			c0-0.421875-0.16748-0.632813-0.501953-0.632813c-0.258789,0-0.574219,0.102539-0.946777,0.307617
			s-0.72998,0.496094-1.072266,0.873047c-0.121582,0.136719-0.363281,0.470703-0.724121,1.00293
			C5.016113,23.205078,5.206055,22.75,5.518066,22.199219z"/>
	</g>
	<g style="enable-background:new    ;">
		<path style="fill:#A5A5A5;" d="M8.019531,21.666992v-0.399414c0.532227-0.578125,0.991211-1.121094,1.376953-1.630859
			c0.38623-0.509766,0.691406-0.914063,0.915527-1.214844s0.421875-0.512695,0.593262-0.635742
			c0.170898-0.124023,0.385742-0.185547,0.644531-0.185547c0.128906,0,0.193848,0.049805,0.193848,0.148438
			c0,0.080078-0.052246,0.197266-0.156738,0.353516c-0.10498,0.15625-0.23877,0.31543-0.402344,0.478516
			c-0.216797,0.213867-0.428711,0.480469-0.635742,0.801758c-0.20752,0.321289-0.441895,0.731445-0.70459,1.229492
			c0.205566-0.160156,0.442383-0.349609,0.710449-0.568359c0.267578-0.217773,0.486328-0.389648,0.655762-0.512695
			c0.168945-0.124023,0.336426-0.22168,0.501953-0.293945c0.165039-0.072266,0.331543-0.108398,0.499023-0.108398
			c0.105957,0,0.175781,0.019531,0.208008,0.057617s0.04834,0.111328,0.04834,0.22168
			c0,0.289063-0.070313,0.571289-0.210938,0.847656c-0.140625,0.275391-0.342285,0.561523-0.604492,0.857422
			c-0.262207,0.296875-0.585449,0.620117-0.969727,0.969727c0.133301,0.049805,0.27002,0.074219,0.410645,0.074219
			c0.440918,0,1.032227-0.335938,1.773926-1.008789v0.410156c-0.289063,0.258789-0.571289,0.501953-0.847168,0.730469
			c-0.275391,0.227539-0.535156,0.410156-0.77832,0.546875s-0.467773,0.205078-0.672852,0.205078
			c-0.076172,0-0.156738-0.007813-0.242676-0.025391c-0.085449-0.016602-0.164551-0.038086-0.236328-0.0625
			c-0.072266-0.024414-0.165527-0.05957-0.279785-0.105469c-0.11377-0.045898-0.20166-0.078125-0.262207-0.09668
			C9.42627,22.78125,9.35791,22.795898,9.342285,22.795898c-0.132813,0-0.288574-0.052734-0.467285-0.15918
			c-0.125488,0.243164-0.263672,0.557617-0.413574,0.943359c-0.150391,0.385742-0.276855,0.693359-0.379395,0.920898
			c-0.102539,0.228516-0.239258,0.447266-0.410645,0.65625c-0.094727,0.094727-0.161621,0.142578-0.199707,0.142578
			c-0.163086,0-0.245117-0.144531-0.245117-0.433594c0-0.250977,0.050293-0.511719,0.151367-0.78418
			c0.100586-0.271484,0.224121-0.529297,0.370605-0.772461s0.307129-0.489258,0.481934-0.738281s0.29834-0.43457,0.370605-0.556641
			c0.600586-1.03418,1.068359-1.914063,1.402832-2.640625C9.129395,20.438477,8.467773,21.203125,8.019531,21.666992z
			 M10.334961,21.946289c0.376465-0.395508,0.656738-0.731445,0.841309-1.009766
			c0.184082-0.277344,0.276367-0.490234,0.276367-0.638672c0-0.140625-0.070313-0.210938-0.210938-0.210938
			c-0.189941,0-0.457031,0.157227-0.80127,0.470703s-0.69873,0.736328-1.063477,1.268555
			c0.28125-0.030273,0.469238-0.040039,0.564453-0.03125C10.036133,21.804688,10.16748,21.855469,10.334961,21.946289z"/>
	</g>
	<g style="enable-background:new    ;">
		<path style="fill:none;stroke:#808080;stroke-width:0.182501;" d="M8.019531,21.666992v-0.399414
			c0.532227-0.578125,0.991211-1.121094,1.376953-1.630859c0.38623-0.509766,0.691406-0.914063,0.915527-1.214844
			s0.421875-0.512695,0.593262-0.635742c0.170898-0.124023,0.385742-0.185547,0.644531-0.185547
			c0.128906,0,0.193848,0.049805,0.193848,0.148438c0,0.080078-0.052246,0.197266-0.156738,0.353516
			c-0.10498,0.15625-0.23877,0.31543-0.402344,0.478516c-0.216797,0.213867-0.428711,0.480469-0.635742,0.801758
			c-0.20752,0.321289-0.441895,0.731445-0.70459,1.229492c0.205566-0.160156,0.442383-0.349609,0.710449-0.568359
			c0.267578-0.217773,0.486328-0.389648,0.655762-0.512695c0.168945-0.124023,0.336426-0.22168,0.501953-0.293945
			c0.165039-0.072266,0.331543-0.108398,0.499023-0.108398c0.105957,0,0.175781,0.019531,0.208008,0.057617
			s0.04834,0.111328,0.04834,0.22168c0,0.289063-0.070313,0.571289-0.210938,0.847656
			c-0.140625,0.275391-0.342285,0.561523-0.604492,0.857422c-0.262207,0.296875-0.585449,0.620117-0.969727,0.969727
			c0.133301,0.049805,0.27002,0.074219,0.410645,0.074219c0.440918,0,1.032227-0.335938,1.773926-1.008789v0.410156
			c-0.289063,0.258789-0.571289,0.501953-0.847168,0.730469c-0.275391,0.227539-0.535156,0.410156-0.77832,0.546875
			s-0.467773,0.205078-0.672852,0.205078c-0.076172,0-0.156738-0.007813-0.242676-0.025391
			c-0.085449-0.016602-0.164551-0.038086-0.236328-0.0625c-0.072266-0.024414-0.165527-0.05957-0.279785-0.105469
			c-0.11377-0.045898-0.20166-0.078125-0.262207-0.09668C9.42627,22.78125,9.35791,22.795898,9.342285,22.795898
			c-0.132813,0-0.288574-0.052734-0.467285-0.15918c-0.125488,0.243164-0.263672,0.557617-0.413574,0.943359
			c-0.150391,0.385742-0.276855,0.693359-0.379395,0.920898c-0.102539,0.228516-0.239258,0.447266-0.410645,0.65625
			c-0.094727,0.094727-0.161621,0.142578-0.199707,0.142578c-0.163086,0-0.245117-0.144531-0.245117-0.433594
			c0-0.250977,0.050293-0.511719,0.151367-0.78418c0.100586-0.271484,0.224121-0.529297,0.370605-0.772461
			s0.307129-0.489258,0.481934-0.738281s0.29834-0.43457,0.370605-0.556641c0.600586-1.03418,1.068359-1.914063,1.402832-2.640625
			C9.129395,20.438477,8.467773,21.203125,8.019531,21.666992z M10.334961,21.946289
			c0.376465-0.395508,0.656738-0.731445,0.841309-1.009766c0.184082-0.277344,0.276367-0.490234,0.276367-0.638672
			c0-0.140625-0.070313-0.210938-0.210938-0.210938c-0.189941,0-0.457031,0.157227-0.80127,0.470703
			s-0.69873,0.736328-1.063477,1.268555c0.28125-0.030273,0.469238-0.040039,0.564453-0.03125
			C10.036133,21.804688,10.16748,21.855469,10.334961,21.946289z"/>
	</g>
	<g style="enable-background:new    ;">
		<path style="fill:#A5A5A5;" d="M13.277832,19.350586v0.142578c0,0.223633,0.054688,0.398438,0.165039,0.524414
			c0.110352,0.125,0.254883,0.188477,0.433594,0.188477c0.186523,0,0.379395-0.043945,0.579102-0.131836
			c0.199219-0.086914,0.397949-0.203125,0.595703-0.347656s0.439453-0.337891,0.724609-0.582031v0.348633
			c-0.429688,0.516602-0.833008,0.913086-1.209473,1.188477c-0.375977,0.276367-0.758301,0.414063-1.145996,0.414063
			c-0.338379,0-0.606445-0.131836-0.804199-0.393555c-0.197754-0.262695-0.296875-0.62207-0.296875-1.078125
			c0-0.399414,0.093262-0.761719,0.279785-1.086914c0.186035-0.324219,0.490234-0.667969,0.912598-1.029297
			c0.288574-0.24707,0.575684-0.433594,0.86084-0.558594c0.285156-0.125977,0.540039-0.188477,0.76416-0.188477
			c0.178711,0,0.320313,0.041016,0.425293,0.123047c0.104492,0.082031,0.156738,0.204102,0.156738,0.367188
			c0,0.240234-0.089355,0.478516-0.268066,0.71582c-0.178711,0.238281-0.45166,0.473633-0.818359,0.708008
			C14.265137,18.908203,13.813965,19.133789,13.277832,19.350586z M13.334473,18.979492
			c0.342285-0.132813,0.635254-0.298828,0.878418-0.496094s0.422852-0.386719,0.539063-0.567383
			c0.115723-0.180664,0.173828-0.3125,0.173828-0.396484c0-0.087891-0.040039-0.130859-0.119629-0.130859
			c-0.068359,0-0.179688,0.042969-0.333496,0.130859c-0.154297,0.087891-0.310059,0.201172-0.467773,0.341797
			s-0.299316,0.306641-0.424805,0.496094C13.45459,18.547852,13.372559,18.754883,13.334473,18.979492z"/>
	</g>
	<g style="enable-background:new    ;">
		<path style="fill:none;stroke:#808080;stroke-width:0.182501;" d="M13.277832,19.350586v0.142578
			c0,0.223633,0.054688,0.398438,0.165039,0.524414c0.110352,0.125,0.254883,0.188477,0.433594,0.188477
			c0.186523,0,0.379395-0.043945,0.579102-0.131836c0.199219-0.086914,0.397949-0.203125,0.595703-0.347656
			s0.439453-0.337891,0.724609-0.582031v0.348633c-0.429688,0.516602-0.833008,0.913086-1.209473,1.188477
			c-0.375977,0.276367-0.758301,0.414063-1.145996,0.414063c-0.338379,0-0.606445-0.131836-0.804199-0.393555
			c-0.197754-0.262695-0.296875-0.62207-0.296875-1.078125c0-0.399414,0.093262-0.761719,0.279785-1.086914
			c0.186035-0.324219,0.490234-0.667969,0.912598-1.029297c0.288574-0.24707,0.575684-0.433594,0.86084-0.558594
			c0.285156-0.125977,0.540039-0.188477,0.76416-0.188477c0.178711,0,0.320313,0.041016,0.425293,0.123047
			c0.104492,0.082031,0.156738,0.204102,0.156738,0.367188c0,0.240234-0.089355,0.478516-0.268066,0.71582
			c-0.178711,0.238281-0.45166,0.473633-0.818359,0.708008C14.265137,18.908203,13.813965,19.133789,13.277832,19.350586z
			 M13.334473,18.979492c0.342285-0.132813,0.635254-0.298828,0.878418-0.496094s0.422852-0.386719,0.539063-0.567383
			c0.115723-0.180664,0.173828-0.3125,0.173828-0.396484c0-0.087891-0.040039-0.130859-0.119629-0.130859
			c-0.068359,0-0.179688,0.042969-0.333496,0.130859c-0.154297,0.087891-0.310059,0.201172-0.467773,0.341797
			s-0.299316,0.306641-0.424805,0.496094C13.45459,18.547852,13.372559,18.754883,13.334473,18.979492z"/>
	</g>
	<g style="enable-background:new    ;">
		<path style="fill:#A5A5A5;" d="M19.39502,16.889648c-0.668945,0.745117-1.003418,1.264648-1.003418,1.557617
			c0,0.163086,0.066406,0.245117,0.199219,0.245117c0.110352,0,0.253906-0.058594,0.430664-0.173828
			c0.176758-0.116211,0.453613-0.322266,0.830078-0.619141v0.393555c-0.540039,0.532227-0.95459,0.916016-1.243652,1.152344
			c-0.288574,0.235352-0.524414,0.353516-0.707031,0.353516c-0.312012,0-0.467773-0.205078-0.467773-0.616211
			c0-0.12207,0.019043-0.241211,0.057129-0.359375s0.090332-0.240234,0.156738-0.368164
			c0.066406-0.126953,0.168457-0.30957,0.305176-0.546875c0.137207-0.237305,0.294922-0.506836,0.473633-0.807617
			c-0.216797,0.110352-0.48877,0.329102-0.815918,0.65625c-0.212891,0.205078-0.393555,0.400391-0.541504,0.584961
			c-0.148438,0.18457-0.307129,0.389648-0.476563,0.615234c-0.168945,0.226563-0.29248,0.378906-0.370605,0.457031
			c-0.077637,0.077148-0.156738,0.116211-0.236328,0.116211c-0.122559,0-0.234375-0.126953-0.337402-0.381836
			c-0.102539-0.254883-0.153809-0.550781-0.153809-0.889648c0-0.208984,0.023926-0.373047,0.071289-0.490234
			c0.047363-0.118164,0.141602-0.285156,0.282227-0.501953c0.263184-0.40332,0.489258-0.699219,0.679199-0.886719
			c0.189941-0.188477,0.372559-0.282227,0.547363-0.282227c0.12207,0,0.219727,0.020508,0.293945,0.0625
			s0.111328,0.106445,0.111328,0.193359c0,0.038086-0.011719,0.078125-0.03418,0.120117
			c-0.022949,0.041992-0.048828,0.080078-0.077148,0.114258s-0.088379,0.100586-0.179688,0.199219
			c-0.600586,0.666016-0.900879,1.097656-0.900879,1.294922c0,0.110352,0.036133,0.165039,0.108398,0.165039
			c0.04541,0,0.133789-0.073242,0.265137-0.219727c0.130859-0.145508,0.300293-0.337891,0.507324-0.575195
			c0.207031-0.238281,0.452637-0.486328,0.73584-0.745117c0.283203-0.257813,0.605469-0.506836,0.966797-0.74707
			c0.201172-0.140625,0.368652-0.210938,0.501953-0.210938c0.060547,0,0.120605,0.083984,0.179199,0.250977
			c0.059082,0.167969,0.088379,0.336914,0.088379,0.507813C19.640137,16.591797,19.558594,16.71875,19.39502,16.889648z"/>
	</g>
	<g style="enable-background:new    ;">
		<path style="fill:none;stroke:#808080;stroke-width:0.182501;" d="M19.39502,16.889648
			c-0.668945,0.745117-1.003418,1.264648-1.003418,1.557617c0,0.163086,0.066406,0.245117,0.199219,0.245117
			c0.110352,0,0.253906-0.058594,0.430664-0.173828c0.176758-0.116211,0.453613-0.322266,0.830078-0.619141v0.393555
			c-0.540039,0.532227-0.95459,0.916016-1.243652,1.152344c-0.288574,0.235352-0.524414,0.353516-0.707031,0.353516
			c-0.312012,0-0.467773-0.205078-0.467773-0.616211c0-0.12207,0.019043-0.241211,0.057129-0.359375
			s0.090332-0.240234,0.156738-0.368164c0.066406-0.126953,0.168457-0.30957,0.305176-0.546875
			c0.137207-0.237305,0.294922-0.506836,0.473633-0.807617c-0.216797,0.110352-0.48877,0.329102-0.815918,0.65625
			c-0.212891,0.205078-0.393555,0.400391-0.541504,0.584961c-0.148438,0.18457-0.307129,0.389648-0.476563,0.615234
			c-0.168945,0.226563-0.29248,0.378906-0.370605,0.457031c-0.077637,0.077148-0.156738,0.116211-0.236328,0.116211
			c-0.122559,0-0.234375-0.126953-0.337402-0.381836c-0.102539-0.254883-0.153809-0.550781-0.153809-0.889648
			c0-0.208984,0.023926-0.373047,0.071289-0.490234c0.047363-0.118164,0.141602-0.285156,0.282227-0.501953
			c0.263184-0.40332,0.489258-0.699219,0.679199-0.886719c0.189941-0.188477,0.372559-0.282227,0.547363-0.282227
			c0.12207,0,0.219727,0.020508,0.293945,0.0625s0.111328,0.106445,0.111328,0.193359
			c0,0.038086-0.011719,0.078125-0.03418,0.120117c-0.022949,0.041992-0.048828,0.080078-0.077148,0.114258
			s-0.088379,0.100586-0.179688,0.199219c-0.600586,0.666016-0.900879,1.097656-0.900879,1.294922
			c0,0.110352,0.036133,0.165039,0.108398,0.165039c0.04541,0,0.133789-0.073242,0.265137-0.219727
			c0.130859-0.145508,0.300293-0.337891,0.507324-0.575195c0.207031-0.238281,0.452637-0.486328,0.73584-0.745117
			c0.283203-0.257813,0.605469-0.506836,0.966797-0.74707c0.201172-0.140625,0.368652-0.210938,0.501953-0.210938
			c0.060547,0,0.120605,0.083984,0.179199,0.250977c0.059082,0.167969,0.088379,0.336914,0.088379,0.507813
			C19.640137,16.591797,19.558594,16.71875,19.39502,16.889648z"/>
	</g>
	<g style="enable-background:new    ;">
		<path style="fill:#376193;" d="M26.725586,16.602539v0.371094c-0.638672,0.710938-1.225098,1.296875-1.759277,1.758789
			s-1.056152,0.817383-1.56543,1.066406c-0.509766,0.249023-1.001953,0.374023-1.477051,0.374023
			c-0.410645,0-0.763672-0.082031-1.058105-0.245117c-0.294922-0.164063-0.51709-0.402344-0.66748-0.71582
			c-0.149902-0.313477-0.225098-0.685547-0.225098-1.115234c0-0.337891,0.054199-0.696289,0.162598-1.075195
			c0.108398-0.37793,0.265137-0.759766,0.470703-1.146484c0.205078-0.385742,0.457031-0.78418,0.755371-1.194336
			c0.29834-0.411133,0.649414-0.841797,1.052246-1.294922c0.418457-0.467773,0.830566-0.871094,1.237793-1.211914
			c0.406738-0.339844,0.775391-0.607422,1.106445-0.801758c0.330566-0.194336,0.637695-0.338867,0.920898-0.433594
			s0.518066-0.142578,0.704102-0.142578c0.19043,0,0.352051,0.045898,0.484863,0.136719
			c0.133301,0.09082,0.23584,0.224609,0.308105,0.399414c0.072266,0.175781,0.108398,0.376953,0.108398,0.605469
			c0,0.429688-0.146484,0.907227-0.438965,1.43457c-0.292969,0.526367-0.658203,1.035156-1.095215,1.525391
			c-0.4375,0.490234-0.854492,0.890625-1.251953,1.200195c-0.397461,0.310547-0.683594,0.464844-0.858398,0.464844
			c-0.117676,0-0.227051-0.045898-0.327637-0.139648c-0.101074-0.092773-0.151367-0.198242-0.151367-0.316406
			c0-0.216797,0.115234-0.479492,0.345215-0.787109s0.480957-0.589844,0.75293-0.84668
			c0.271484-0.256836,0.434082-0.384766,0.487305-0.384766c0.026855,0,0.040039,0.010742,0.040039,0.03418
			c0,0.03418-0.02002,0.092773-0.060059,0.176758c-0.039551,0.083008-0.05957,0.134766-0.05957,0.15332
			c0,0.03125,0.01123,0.045898,0.03418,0.045898c0.064453,0,0.250977-0.172852,0.558594-0.518555
			c0.308105-0.34668,0.590332-0.727539,0.847168-1.143555c0.256836-0.416992,0.384766-0.757813,0.384766-1.024414
			c0-0.109375-0.023438-0.194336-0.071289-0.25293c-0.047363-0.05957-0.118652-0.089844-0.213867-0.089844
			c-0.266113,0-0.669922,0.216797-1.211914,0.648438c-0.541504,0.431641-1.09668,0.980469-1.665039,1.648438
			c-0.568359,0.666992-1.042969,1.356445-1.422852,2.067383c-0.380371,0.710938-0.570313,1.335938-0.570313,1.875977
			c0,0.311523,0.046387,0.572266,0.139648,0.78125c0.092773,0.208984,0.22998,0.371094,0.410645,0.484375
			c0.180176,0.114258,0.397949,0.171875,0.652832,0.171875c0.55127,0,1.176758-0.214844,1.876465-0.644531
			C25.115234,18.072266,25.885254,17.439453,26.725586,16.602539z"/>
	</g>
	<g style="enable-background:new    ;">
		<path style="fill:none;stroke:#254161;stroke-width:0.182501;" d="M26.725586,16.602539v0.371094
			c-0.638672,0.710938-1.225098,1.296875-1.759277,1.758789s-1.056152,0.817383-1.56543,1.066406
			c-0.509766,0.249023-1.001953,0.374023-1.477051,0.374023c-0.410645,0-0.763672-0.082031-1.058105-0.245117
			c-0.294922-0.164063-0.51709-0.402344-0.66748-0.71582c-0.149902-0.313477-0.225098-0.685547-0.225098-1.115234
			c0-0.337891,0.054199-0.696289,0.162598-1.075195c0.108398-0.37793,0.265137-0.759766,0.470703-1.146484
			c0.205078-0.385742,0.457031-0.78418,0.755371-1.194336c0.29834-0.411133,0.649414-0.841797,1.052246-1.294922
			c0.418457-0.467773,0.830566-0.871094,1.237793-1.211914c0.406738-0.339844,0.775391-0.607422,1.106445-0.801758
			c0.330566-0.194336,0.637695-0.338867,0.920898-0.433594s0.518066-0.142578,0.704102-0.142578
			c0.19043,0,0.352051,0.045898,0.484863,0.136719c0.133301,0.09082,0.23584,0.224609,0.308105,0.399414
			c0.072266,0.175781,0.108398,0.376953,0.108398,0.605469c0,0.429688-0.146484,0.907227-0.438965,1.43457
			c-0.292969,0.526367-0.658203,1.035156-1.095215,1.525391c-0.4375,0.490234-0.854492,0.890625-1.251953,1.200195
			c-0.397461,0.310547-0.683594,0.464844-0.858398,0.464844c-0.117676,0-0.227051-0.045898-0.327637-0.139648
			c-0.101074-0.092773-0.151367-0.198242-0.151367-0.316406c0-0.216797,0.115234-0.479492,0.345215-0.787109
			s0.480957-0.589844,0.75293-0.84668c0.271484-0.256836,0.434082-0.384766,0.487305-0.384766
			c0.026855,0,0.040039,0.010742,0.040039,0.03418c0,0.03418-0.02002,0.092773-0.060059,0.176758
			c-0.039551,0.083008-0.05957,0.134766-0.05957,0.15332c0,0.03125,0.01123,0.045898,0.03418,0.045898
			c0.064453,0,0.250977-0.172852,0.558594-0.518555c0.308105-0.34668,0.590332-0.727539,0.847168-1.143555
			c0.256836-0.416992,0.384766-0.757813,0.384766-1.024414c0-0.109375-0.023438-0.194336-0.071289-0.25293
			c-0.047363-0.05957-0.118652-0.089844-0.213867-0.089844c-0.266113,0-0.669922,0.216797-1.211914,0.648438
			c-0.541504,0.431641-1.09668,0.980469-1.665039,1.648438c-0.568359,0.666992-1.042969,1.356445-1.422852,2.067383
			c-0.380371,0.710938-0.570313,1.335938-0.570313,1.875977c0,0.311523,0.046387,0.572266,0.139648,0.78125
			c0.092773,0.208984,0.22998,0.371094,0.410645,0.484375c0.180176,0.114258,0.397949,0.171875,0.652832,0.171875
			c0.55127,0,1.176758-0.214844,1.876465-0.644531C25.115234,18.072266,25.885254,17.439453,26.725586,16.602539z"/>
	</g>
	<g style="enable-background:new    ;">
		<path style="fill:#A5A5A5;" d="M30.812988,11.006836c0.102539-0.026367,0.206055-0.052734,0.311035-0.080078
			c0.104492-0.026367,0.210938-0.048828,0.319336-0.068359c0.108398-0.018555,0.213867-0.02832,0.316406-0.02832
			c0.220215,0,0.409668,0.049805,0.567383,0.148438s0.275879,0.232422,0.353516,0.402344
			c0.078125,0.169922,0.117188,0.353516,0.117188,0.550781c0,0.308594-0.056152,0.661133-0.168457,1.058594
			c-0.112305,0.396484-0.272949,0.800781-0.481934,1.211914C31.938477,14.612305,31.693359,15,31.411621,15.365234
			c-0.383789,0.494141-0.844727,0.892578-1.382813,1.194336c-0.538086,0.302734-1.03125,0.454102-1.47998,0.454102
			c-0.330566,0-0.622559-0.09082-0.875488-0.271484s-0.450684-0.442383-0.593262-0.787109
			c-0.142578-0.34375-0.213867-0.748047-0.213867-1.211914c0-0.623047,0.17041-1.248047,0.510742-1.873047
			s0.77002-1.192383,1.288574-1.700195c0.519043-0.507813,1.042969-0.915039,1.571289-1.220703
			c0.528809-0.306641,0.958496-0.458984,1.289063-0.458984c0.27002,0,0.477051,0.082031,0.621582,0.248047
			c0.144531,0.165039,0.279297,0.432617,0.404785,0.800781c-0.353516,0.011719-0.661133,0.054688-0.923828,0.128906
			C31.366211,10.742188,31.094238,10.854492,30.812988,11.006836z M29.375977,12.166016
			c-0.266113,0.285156-0.535156,0.652344-0.807129,1.103516c-0.271973,0.450195-0.491699,0.892578-0.658691,1.326172
			c-0.16748,0.432617-0.250977,0.763672-0.250977,0.992188c0,0.566406,0.26416,0.849609,0.79248,0.849609
			c0.369141,0,0.845215-0.249023,1.428711-0.74707c0.583984-0.498047,1.091309-1.097656,1.522949-1.799805
			c0.431641-0.701172,0.647461-1.338867,0.647461-1.913086c0-0.421875-0.16748-0.633789-0.501953-0.633789
			c-0.258789,0-0.574219,0.102539-0.946777,0.308594c-0.372559,0.205078-0.72998,0.496094-1.072266,0.873047
			c-0.121582,0.136719-0.363281,0.470703-0.724121,1.00293C28.874023,13.171875,29.063965,12.716797,29.375977,12.166016z"/>
	</g>
	<g style="enable-background:new    ;">
		<path style="fill:none;stroke:#808080;stroke-width:0.182501;" d="M30.812988,11.006836
			c0.102539-0.026367,0.206055-0.052734,0.311035-0.080078c0.104492-0.026367,0.210938-0.048828,0.319336-0.068359
			c0.108398-0.018555,0.213867-0.02832,0.316406-0.02832c0.220215,0,0.409668,0.049805,0.567383,0.148438
			s0.275879,0.232422,0.353516,0.402344c0.078125,0.169922,0.117188,0.353516,0.117188,0.550781
			c0,0.308594-0.056152,0.661133-0.168457,1.058594c-0.112305,0.396484-0.272949,0.800781-0.481934,1.211914
			C31.938477,14.612305,31.693359,15,31.411621,15.365234c-0.383789,0.494141-0.844727,0.892578-1.382813,1.194336
			c-0.538086,0.302734-1.03125,0.454102-1.47998,0.454102c-0.330566,0-0.622559-0.09082-0.875488-0.271484
			s-0.450684-0.442383-0.593262-0.787109c-0.142578-0.34375-0.213867-0.748047-0.213867-1.211914
			c0-0.623047,0.17041-1.248047,0.510742-1.873047s0.77002-1.192383,1.288574-1.700195
			c0.519043-0.507813,1.042969-0.915039,1.571289-1.220703c0.528809-0.306641,0.958496-0.458984,1.289063-0.458984
			c0.27002,0,0.477051,0.082031,0.621582,0.248047c0.144531,0.165039,0.279297,0.432617,0.404785,0.800781
			c-0.353516,0.011719-0.661133,0.054688-0.923828,0.128906C31.366211,10.742188,31.094238,10.854492,30.812988,11.006836z
			 M29.375977,12.166016c-0.266113,0.285156-0.535156,0.652344-0.807129,1.103516
			c-0.271973,0.450195-0.491699,0.892578-0.658691,1.326172c-0.16748,0.432617-0.250977,0.763672-0.250977,0.992188
			c0,0.566406,0.26416,0.849609,0.79248,0.849609c0.369141,0,0.845215-0.249023,1.428711-0.74707
			c0.583984-0.498047,1.091309-1.097656,1.522949-1.799805c0.431641-0.701172,0.647461-1.338867,0.647461-1.913086
			c0-0.421875-0.16748-0.633789-0.501953-0.633789c-0.258789,0-0.574219,0.102539-0.946777,0.308594
			c-0.372559,0.205078-0.72998,0.496094-1.072266,0.873047c-0.121582,0.136719-0.363281,0.470703-0.724121,1.00293
			C28.874023,13.171875,29.063965,12.716797,29.375977,12.166016z"/>
	</g>
	<g style="enable-background:new    ;">
		<path style="fill:#963835;" d="M37.452637,15.28418l-2.150879-1.049805c-0.547363,0.749023-0.853516,1.243164-0.917969,1.483398
			c-0.045898,0.170898-0.147461,0.314453-0.305176,0.429688c-0.157715,0.116211-0.270996,0.174805-0.339355,0.174805
			c-0.193848,0-0.291016-0.074219-0.291016-0.222656c0-0.083984,0.115234-0.324219,0.345215-0.72168
			s0.546387-0.866211,0.949707-1.405273c-0.224609-0.091797-0.363281-0.152344-0.416504-0.182617
			s-0.074219-0.088867-0.0625-0.173828c0.01123-0.085938,0.077637-0.219727,0.199219-0.402344
			c0.106445-0.160156,0.186523-0.267578,0.239746-0.322266c0.053223-0.055664,0.115723-0.098633,0.187988-0.130859
			c0.072266-0.033203,0.148438-0.054688,0.228516-0.066406c0.07959-0.010742,0.303711-0.040039,0.672852-0.084961
			c0.300781-0.407227,0.626953-0.845703,0.978516-1.318359c0.351563-0.47168,0.626465-0.838867,0.824219-1.100586
			c-0.597168,0.079102-1.013184,0.145508-1.249023,0.199219c-0.250977,0.049805-0.461426,0.089844-0.630859,0.123047
			c-0.168945,0.032227-0.288086,0.060547-0.356445,0.084961s-0.102539,0.05957-0.102539,0.105469
			c0,0.041992,0.041504,0.070313,0.125488,0.085938c0.083496,0.014648,0.188965,0.022461,0.316406,0.022461
			s0.226074,0.004883,0.296875,0.014648c0.070313,0.008789,0.105957,0.03125,0.105957,0.06543
			c0,0.038086-0.046875,0.05957-0.140625,0.06543c-0.093262,0.005859-0.354492,0.018555-0.78418,0.037109
			c-0.243164,0.007813-0.447754,0.015625-0.612793,0.022461c-0.165527,0.007813-0.280762,0.011719-0.345215,0.011719
			c-0.087402,0-0.155762-0.026367-0.205078-0.080078c-0.049805-0.052734-0.074219-0.123047-0.074219-0.210938
			c0-0.064453,0.036133-0.18457,0.108398-0.359375s0.174805-0.351563,0.307617-0.530273
			c0.133301-0.178711,0.285156-0.317383,0.456543-0.416016c0.193848-0.118164,0.495117-0.237305,0.903809-0.356445
			c0.40918-0.120117,0.86377-0.216797,1.36377-0.291016s0.995117-0.111328,1.485352-0.111328
			c0.296875,0,0.586426,0.017578,0.870117,0.051758c0.283203,0.03418,0.539551,0.076172,0.769531,0.125
			c0.22998,0.049805,0.411621,0.098633,0.544922,0.148438c0.345703,0.114258,0.61084,0.287109,0.79541,0.518555
			c0.18457,0.232422,0.276855,0.487305,0.276855,0.764648c0,0.269531-0.046875,0.533203-0.139648,0.790039
			c-0.093262,0.256836-0.23584,0.495117-0.428223,0.713867c-0.191895,0.21875-0.422852,0.396484-0.692871,0.533203
			c-0.220215,0.114258-0.555176,0.230469-1.003418,0.347656c-0.44873,0.118164-0.990723,0.222656-1.625488,0.313477
			c-0.635254,0.091797-1.344238,0.158203-2.12793,0.200195c0.585938,0.205078,1.132813,0.411133,1.640137,0.618164
			c0.507813,0.208008,0.935547,0.391602,1.283203,0.553711c0.348145,0.161133,0.620605,0.293945,0.818359,0.396484
			c0.277832,0.144531,0.458496,0.249023,0.541992,0.313477s0.138672,0.148438,0.165527,0.250977
			c0.026367,0.102539,0.039551,0.271484,0.039551,0.507813c0,0.265625-0.016113,0.462891-0.04834,0.589844
			c-0.032227,0.12793-0.101563,0.191406-0.208008,0.191406c-0.03418,0-0.124512-0.037109-0.270996-0.111328
			s-0.348633-0.182617-0.607422-0.325195s-0.493164-0.269531-0.704102-0.381836
			C38.242188,15.670898,37.908691,15.504883,37.452637,15.28418z M37.95459,10.132813
			c0.003418,0.026367,0.006348,0.051758,0.008301,0.074219s0.00293,0.055664,0.00293,0.09668
			c0,0.106445-0.033203,0.229492-0.099609,0.368164c-0.066895,0.138672-0.152344,0.28125-0.256836,0.427734
			s-0.260742,0.355469-0.467773,0.62793s-0.398438,0.522461-0.573242,0.75c0.798828-0.151367,1.47998-0.297852,2.044922-0.438477
			c0.564453-0.140625,1.029297-0.282227,1.394043-0.424805c0.365234-0.143555,0.639648-0.293945,0.824219-0.452148
			c0.18457-0.157227,0.276855-0.322266,0.276855-0.493164c0-0.19043-0.193359-0.338867-0.579102-0.447266
			s-0.858398-0.163086-1.416992-0.163086c-0.114258,0-0.234863,0.00293-0.362305,0.008789s-0.279297,0.017578-0.456055,0.03418
			C38.116699,10.119141,38.003906,10.128906,37.95459,10.132813z"/>
	</g>
	<g style="enable-background:new    ;">
		<path style="fill:none;stroke:#632524;stroke-width:0.182501;" d="M37.452637,15.28418l-2.150879-1.049805
			c-0.547363,0.749023-0.853516,1.243164-0.917969,1.483398c-0.045898,0.170898-0.147461,0.314453-0.305176,0.429688
			c-0.157715,0.116211-0.270996,0.174805-0.339355,0.174805c-0.193848,0-0.291016-0.074219-0.291016-0.222656
			c0-0.083984,0.115234-0.324219,0.345215-0.72168s0.546387-0.866211,0.949707-1.405273
			c-0.224609-0.091797-0.363281-0.152344-0.416504-0.182617s-0.074219-0.088867-0.0625-0.173828
			c0.01123-0.085938,0.077637-0.219727,0.199219-0.402344c0.106445-0.160156,0.186523-0.267578,0.239746-0.322266
			c0.053223-0.055664,0.115723-0.098633,0.187988-0.130859c0.072266-0.033203,0.148438-0.054688,0.228516-0.066406
			c0.07959-0.010742,0.303711-0.040039,0.672852-0.084961c0.300781-0.407227,0.626953-0.845703,0.978516-1.318359
			c0.351563-0.47168,0.626465-0.838867,0.824219-1.100586c-0.597168,0.079102-1.013184,0.145508-1.249023,0.199219
			c-0.250977,0.049805-0.461426,0.089844-0.630859,0.123047c-0.168945,0.032227-0.288086,0.060547-0.356445,0.084961
			s-0.102539,0.05957-0.102539,0.105469c0,0.041992,0.041504,0.070313,0.125488,0.085938
			c0.083496,0.014648,0.188965,0.022461,0.316406,0.022461s0.226074,0.004883,0.296875,0.014648
			c0.070313,0.008789,0.105957,0.03125,0.105957,0.06543c0,0.038086-0.046875,0.05957-0.140625,0.06543
			c-0.093262,0.005859-0.354492,0.018555-0.78418,0.037109c-0.243164,0.007813-0.447754,0.015625-0.612793,0.022461
			c-0.165527,0.007813-0.280762,0.011719-0.345215,0.011719c-0.087402,0-0.155762-0.026367-0.205078-0.080078
			c-0.049805-0.052734-0.074219-0.123047-0.074219-0.210938c0-0.064453,0.036133-0.18457,0.108398-0.359375
			s0.174805-0.351563,0.307617-0.530273c0.133301-0.178711,0.285156-0.317383,0.456543-0.416016
			c0.193848-0.118164,0.495117-0.237305,0.903809-0.356445c0.40918-0.120117,0.86377-0.216797,1.36377-0.291016
			s0.995117-0.111328,1.485352-0.111328c0.296875,0,0.586426,0.017578,0.870117,0.051758
			c0.283203,0.03418,0.539551,0.076172,0.769531,0.125c0.22998,0.049805,0.411621,0.098633,0.544922,0.148438
			c0.345703,0.114258,0.61084,0.287109,0.79541,0.518555c0.18457,0.232422,0.276855,0.487305,0.276855,0.764648
			c0,0.269531-0.046875,0.533203-0.139648,0.790039c-0.093262,0.256836-0.23584,0.495117-0.428223,0.713867
			c-0.191895,0.21875-0.422852,0.396484-0.692871,0.533203c-0.220215,0.114258-0.555176,0.230469-1.003418,0.347656
			c-0.44873,0.118164-0.990723,0.222656-1.625488,0.313477c-0.635254,0.091797-1.344238,0.158203-2.12793,0.200195
			c0.585938,0.205078,1.132813,0.411133,1.640137,0.618164c0.507813,0.208008,0.935547,0.391602,1.283203,0.553711
			c0.348145,0.161133,0.620605,0.293945,0.818359,0.396484c0.277832,0.144531,0.458496,0.249023,0.541992,0.313477
			s0.138672,0.148438,0.165527,0.250977c0.026367,0.102539,0.039551,0.271484,0.039551,0.507813
			c0,0.265625-0.016113,0.462891-0.04834,0.589844c-0.032227,0.12793-0.101563,0.191406-0.208008,0.191406
			c-0.03418,0-0.124512-0.037109-0.270996-0.111328s-0.348633-0.182617-0.607422-0.325195s-0.493164-0.269531-0.704102-0.381836
			C38.242188,15.670898,37.908691,15.504883,37.452637,15.28418z M37.95459,10.132813
			c0.003418,0.026367,0.006348,0.051758,0.008301,0.074219s0.00293,0.055664,0.00293,0.09668
			c0,0.106445-0.033203,0.229492-0.099609,0.368164c-0.066895,0.138672-0.152344,0.28125-0.256836,0.427734
			s-0.260742,0.355469-0.467773,0.62793s-0.398438,0.522461-0.573242,0.75c0.798828-0.151367,1.47998-0.297852,2.044922-0.438477
			c0.564453-0.140625,1.029297-0.282227,1.394043-0.424805c0.365234-0.143555,0.639648-0.293945,0.824219-0.452148
			c0.18457-0.157227,0.276855-0.322266,0.276855-0.493164c0-0.19043-0.193359-0.338867-0.579102-0.447266
			s-0.858398-0.163086-1.416992-0.163086c-0.114258,0-0.234863,0.00293-0.362305,0.008789s-0.279297,0.017578-0.456055,0.03418
			C38.116699,10.119141,38.003906,10.128906,37.95459,10.132813z"/>
	</g>
</g>
<g>
</g>
<g>
</g>
<g>
</g>
<g>
</g>
<g>
</g>
<g>
</g>
</svg>
