<?xml version="1.0" encoding="utf-8"?>
<!-- Generator: Adobe Illustrator 16.0.0, SVG Export Plug-In . SVG Version: 6.00 Build 0)  -->
<!DOCTYPE svg PUBLIC "-//W3C//DTD SVG 1.1//EN" "http://www.w3.org/Graphics/SVG/1.1/DTD/svg11.dtd">
<svg version="1.1" id="Layer_1" xmlns="http://www.w3.org/2000/svg" xmlns:xlink="http://www.w3.org/1999/xlink" x="0px" y="0px"
	 width="150.290039px" height="50px" viewBox="0 0 150.290039 50" style="enable-background:new 0 0 150.290039 50;"
	 xml:space="preserve">
<g id="Sinai">
	<g>
		<polygon style="fill:#2DA9E1;" points="27.390625,49.668945 21.352539,49.668945 49.821777,6.633301 53.041016,11.282715 		"/>
		<polygon style="fill:#2DA9E1;" points="38.078125,49.668945 32.039063,49.668945 55.132813,14.323242 58.328125,18.951172 		"/>
		<path style="fill:#2DA9E1;" d="M45.943359,1.036133L45.943359,1.036133C45.745117,0.727539,45.392578,0,44.599609,0
			c-0.814453,0-1.145508,0.749512-1.34375,1.036133l0,0L10.6875,49.668945h6.037109L47.794434,3.702148L45.943359,1.036133z"/>
		<path style="fill:#2DA9E1;" d="M30.474609,8.175293L30.474609,8.175293c-0.197266-0.308105-0.572266-1.013184-1.34375-1.013184
			c-0.81543,0-1.146484,0.749023-1.34375,1.013184l0,0L0,49.668945h6.037109l26.245117-38.76123L30.474609,8.175293z"/>
		<path style="fill:#D61789;" d="M30.474609,8.197754L30.474609,8.197754c-0.197266-0.286621-0.550781-1.013672-1.34375-1.013672
			c-0.81543,0-1.146484,0.749023-1.34375,1.013672l-1.829102,2.732422l26.178711,38.73877h6.037109L30.474609,8.197754z"/>
		<path style="fill:#D61789;" d="M45.943359,1.036133L45.943359,1.036133C45.745117,0.727539,45.392578,0,44.599609,0
			c-0.814453,0-1.145508,0.749512-1.34375,1.036133l-1.828125,2.731934l32.060547,45.900879h6.039063L45.943359,1.036133z"/>
		<polygon style="fill:#2C2D6F;" points="53.017578,11.282715 49.821777,6.655273 46.715332,11.348633 49.932129,15.932129 		"/>
		<polygon style="fill:#2C2D6F;" points="58.328125,18.972656 55.132813,14.323242 52.070313,18.995117 55.265625,23.600586 		"/>
		<polygon style="fill:#D61789;" points="62.802734,49.668945 68.839844,49.668945 39.553711,6.589355 36.380859,11.282715 		"/>
		<path style="fill:#2C2D6F;" d="M45.943359,1.036133L45.943359,1.036133C45.745117,0.727539,45.392578,0,44.599609,0
			c-0.109375,0-0.197266,0.022461-0.286133,0.022461C43.71875,0.17627,43.431641,0.771484,43.255859,1.01416l0,0l-1.652344,2.467773
			l-0.175781,0.264648l3.216797,4.60498l3.149902-4.671387L45.943359,1.036133z"/>
		<polygon style="fill:#2C2D6F;" points="39.553711,6.589355 36.380859,11.282715 39.553711,15.887695 42.705078,11.216309 		"/>
		<polygon style="fill:#2C2D6F;" points="44.841797,23.556152 47.927246,18.906738 44.775391,14.279297 41.669922,18.951172 		"/>
		<polygon style="fill:#2C2D6F;" points="50.175293,31.3125 53.238281,26.708008 50.064941,22.058105 47.022949,26.729492 		"/>
		<path style="fill:#2C2D6F;" d="M30.474609,8.197754c-0.197266-0.286621-0.572266-1.013672-1.34375-1.013672
			c-0.109375,0-0.198242,0.021973-0.287109,0.021973C28.25,7.360352,27.962891,7.955078,27.787109,8.197754l0,0l-1.829102,2.732422
			l3.151367,4.671387l3.172852-4.693848l-0.022461-0.043945L30.474609,8.197754L30.474609,8.197754z"/>
		<polygon style="fill:#2C2D6F;" points="37.570313,18.818848 34.462891,14.168945 31.3125,18.862793 34.419922,23.468262 		"/>
		<polygon style="fill:#2C2D6F;" points="42.792969,26.619141 39.686523,21.969727 36.579102,26.664063 39.686523,31.24707 		"/>
		<polygon style="fill:#2C2D6F;" points="48.059082,34.530273 44.951172,29.880859 41.912109,34.552734 45.017578,39.135742 		"/>
	</g>
	<g>
		<path style="fill:#010101;" d="M83.273438,27.611328c1.277344,0,2.269531-0.264648,2.269531-2.73291V14.235352l-1.873047-0.088379
			v-0.814941l5.75,0.087891l3.681641,10.114258h0.021484l3.746094-10.114258l5.685547-0.087891v0.814941l-1.917969,0.088379
			v13.288086l1.917969,0.087891v0.814453c-0.947266,0-2.732422-0.087891-3.679688-0.087891s-2.644531,0.087891-3.591797,0.087891
			v-0.814453l1.894531-0.087891V15.292969h-0.044922l-4.693359,13.089844h-1.167969l-4.736328-13.089844h-0.044922v9.585449
			c0,2.468262,0.925781,2.73291,2.445313,2.73291v0.814453c-1.189453,0-1.873047-0.087891-2.841797-0.087891
			c-0.947266,0-1.652344,0.087891-2.841797,0.087891v-0.814453H83.273438z"/>
		<path style="fill:#010101;" d="M102.951172,23.049805c0-4.054688,2.732422-5.927734,5.773438-5.927734
			c3.083984,0,5.816406,1.652832,5.816406,5.685059c0,4.077637-2.666016,5.927246-5.816406,5.927246
			C105.638672,28.734375,102.951172,27.103516,102.951172,23.049805z M111.060547,22.91748
			c0-3.239258-0.638672-5.002441-2.335938-5.002441c-1.652344,0-2.314453,1.763184-2.314453,5.002441
			c0,3.26123,0.662109,5.002441,2.314453,5.002441C110.421875,27.919922,111.060547,26.178711,111.060547,22.91748z"/>
		<path style="fill:#010101;" d="M116.568359,19.634277c0-1.300293-0.396484-1.300293-1.607422-1.300293v-0.81543l4.757813-0.242188
			v6.544434c0,2.291504,0.044922,3.459473,1.521484,3.459473c1.167969,0,2.644531-1.387695,2.644531-3.70166v-3.944336
			c0-1.300293-0.550781-1.300293-1.587891-1.300293v-0.81543l4.738281-0.242188v10.180664L128.644531,27.5v0.816406
			l-4.5625,0.242188l-0.064453-2.115234h-0.023438c-0.771484,1.277344-2.091797,2.248047-3.966797,2.248047
			c-2.490234,0-3.435547-1.279297-3.435547-3.989258v-5.067871H116.568359z"/>
		<path style="fill:#010101;" d="M135.453125,27.611328v0.814453c-1.146484,0-1.761719-0.087891-3.150391-0.087891
			s-2.027344,0.087891-3.197266,0.087891v-0.814453L130.714844,27.5v-7.910156c0-1.255859-0.396484-1.255859-1.609375-1.255859
			v-0.81543l4.5625-0.242188l0.044922,2.071289h0.021484c0.816406-1.300293,2.09375-2.269531,3.966797-2.269531
			c2.003906,0,3.4375,1.211914,3.4375,4.208496v6.191895l1.652344,0.110352v0.81543
			c-1.167969,0-1.806641-0.087891-3.195313-0.087891s-1.982422,0.087891-3.150391,0.087891v-0.81543l1.564453-0.110352v-5.486816
			c0-2.577637-0.287109-3.503418-1.542969-3.503418c-1.167969,0-2.621094,1.388184-2.621094,3.702148v5.288086L135.453125,27.611328
			z"/>
		<path style="fill:#010101;" d="M147.154297,25.253418c-0.044922,1.476074,0,2.291504,0.96875,2.291504
			c0.880859,0,1.388672-1.255859,1.388672-1.255859l0.771484,0.286133c0,0-0.505859,2.181641-2.996094,2.181641
			c-2.931641,0-3.240234-1.586914-3.240234-3.459961v-6.853027h-1.785156v-0.925293h1.785156v-3.966309
			c1.785156,0,3.107422-0.462402,3.107422-0.462402v4.428711h2.666016v0.925293h-2.666016V25.253418z"/>
		<path style="fill:#010101;" d="M85.189453,44.027344c0.199219,1.080078,1.742188,5.112305,4.847656,5.112305
			c1.962891,0,2.734375-1.101563,2.734375-2.335938c0-4.407227-8.220703-1.960938-8.220703-7.975586
			c0-3.548828,2.929688-4.716797,5.089844-4.716797c1.984375,0,2.998047,0.638672,3.373047,0.638672
			c0.396484,0,0.527344-0.52832,0.527344-0.52832h0.794922c0,0.793945-0.044922,1.366211-0.044922,2.116211
			c0,1.123047,0.044922,1.761719,0.044922,2.511719h-0.794922C93.34375,37.791016,92,34.904297,89.443359,34.904297
			c-1.431641,0-2.402344,0.881836-2.402344,2.115234c0,4.054688,8.439453,1.71875,8.439453,8.087891
			C95.480469,48.611328,92.835938,50,89.927734,50c-2.511719,0-3.833984-0.860352-4.251953-0.860352
			c-0.507813,0-0.595703,0.573242-0.595703,0.573242h-0.792969c0-1.146484,0.064453-1.829102,0.064453-2.974609
			c0-1.101563-0.064453-1.785156-0.064453-2.754883h0.902344V44.027344z"/>
		<path style="fill:#010101;" d="M102.775391,48.765625v0.814453c-1.146484,0-1.808594-0.087891-3.195313-0.087891
			c-1.388672,0-2.027344,0.087891-3.195313,0.087891v-0.814453l1.607422-0.111328v-7.84375
			c0-1.300781-0.417969-1.300781-1.607422-1.300781v-0.814453l4.759766-0.243164v10.202148L102.775391,48.765625z
			 M99.623047,32.746094c0.970703,0,1.896484,0.638672,1.896484,1.806641s-0.925781,1.806641-1.896484,1.806641
			c-0.990234,0-1.916016-0.638672-1.916016-1.806641C97.685547,33.384766,98.609375,32.746094,99.623047,32.746094z"/>
		<path style="fill:#010101;" d="M109.605469,48.765625v0.814453c-1.146484,0-1.761719-0.087891-3.150391-0.087891
			s-2.027344,0.087891-3.195313,0.087891v-0.814453l1.609375-0.111328v-7.910156c0-1.255859-0.396484-1.255859-1.609375-1.255859
			v-0.81543l4.560547-0.242188l0.044922,2.071289h0.021484c0.816406-1.300781,2.09375-2.269531,3.966797-2.269531
			c2.003906,0,3.4375,1.211914,3.4375,4.208984v6.191406l1.652344,0.110352v0.81543
			c-1.167969,0-1.806641-0.087891-3.195313-0.087891c-1.386719,0-1.982422,0.087891-3.150391,0.087891v-0.81543l1.564453-0.110352
			v-5.486328c0-2.578125-0.287109-3.503906-1.542969-3.503906c-1.167969,0-2.621094,1.388672-2.621094,3.701172v5.289063
			L109.605469,48.765625z"/>
		<path style="fill:#010101;" d="M129.658203,47.751953c0,0-0.330078,2.15918-2.777344,2.15918
			c-1.167969,0-2.136719-0.485352-2.554688-1.674805h-0.044922C123.751953,49.228516,122.759766,50,121.019531,50
			c-1.673828,0-3.634766-0.771484-3.634766-3.261719c0-3.084961,3.634766-3.37207,6.873047-3.349609v-1.167969
			c0.068359-1.894531-0.085938-3.173828-1.650391-3.173828c-1.191406,0-1.720703,0.595703-1.830078,0.837891
			c0,0,0.529297,0.287109,0.529297,1.101563c0,0.837891-0.617188,1.432617-1.587891,1.432617
			c-0.923828,0-1.585938-0.573242-1.585938-1.520508c0-1.697266,2.158203-2.644531,4.738281-2.644531
			c4.164063,0,4.517578,2.357422,4.472656,4.583984l-0.109375,4.495117c-0.023438,0.727539,0.220703,1.233398,0.726563,1.233398
			c0.683594,0,0.925781-1.013672,0.925781-1.013672L129.658203,47.751953z M124.193359,44.204102
			c-2.953125-0.043945-3.615234,0.727539-3.615234,2.24707c0,1.410156,0.550781,2.115234,1.542969,2.115234
			c0.925781,0,1.984375-0.814453,2.027344-2.511719L124.193359,44.204102z"/>
		<path style="fill:#010101;" d="M136.046875,48.765625v0.814453c-1.144531,0-1.806641-0.087891-3.193359-0.087891
			c-1.388672,0-2.027344,0.087891-3.195313,0.087891v-0.814453l1.607422-0.111328v-7.84375
			c0-1.300781-0.417969-1.300781-1.607422-1.300781v-0.814453l4.759766-0.243164v10.202148L136.046875,48.765625z
			 M132.875,32.746094c0.970703,0,1.894531,0.638672,1.894531,1.806641s-0.923828,1.806641-1.894531,1.806641
			c-0.992188,0-1.917969-0.638672-1.917969-1.806641S131.882813,32.746094,132.875,32.746094z"/>
	</g>
</g>
<g>
</g>
<g>
</g>
<g>
</g>
<g>
</g>
<g>
</g>
<g>
</g>
</svg>
