<?xml version="1.0" encoding="UTF-8" standalone="no"?>
<!DOCTYPE svg PUBLIC "-//W3C//DTD SVG 1.1//EN"
 "http://www.w3.org/Graphics/SVG/1.1/DTD/svg11.dtd">
<!-- Generated by graphviz version 2.40.1 (20161225.0304)
 -->
<!-- Title: dependencies Pages: 1 -->
<svg width="867pt" height="211pt"
 viewBox="0.00 0.00 867.00 211.00" xmlns="http://www.w3.org/2000/svg" xmlns:xlink="http://www.w3.org/1999/xlink">
<g id="graph0" class="graph" transform="scale(1 1) rotate(0) translate(4 207)">
<title>dependencies</title>
<polygon fill="#ffffff" stroke="transparent" points="-4,4 -4,-207 863,-207 863,4 -4,4"/>
<text text-anchor="start" x="408.5091" y="-42.4" font-family="sans-serif" font-weight="bold" font-size="14.00" fill="#000000">Legend</text>
<polygon fill="#ffffb3" stroke="transparent" points="195.5,-10 195.5,-30 215.5,-30 215.5,-10 195.5,-10"/>
<text text-anchor="start" x="219.129" y="-15.4" font-family="sans-serif" font-size="14.00" fill="#000000"> &#160;Declarations</text>
<polygon fill="#8dd3c7" stroke="transparent" points="308.5,-10 308.5,-30 328.5,-30 328.5,-10 308.5,-10"/>
<text text-anchor="start" x="332.2251" y="-15.4" font-family="sans-serif" font-size="14.00" fill="#000000"> &#160;Module</text>
<polygon fill="#80b1d3" stroke="transparent" points="394.5,-10 394.5,-30 414.5,-30 414.5,-10 394.5,-10"/>
<text text-anchor="start" x="418.2812" y="-15.4" font-family="sans-serif" font-size="14.00" fill="#000000"> &#160;Bootstrap</text>
<polygon fill="#fdb462" stroke="transparent" points="491.5,-10 491.5,-30 511.5,-30 511.5,-10 491.5,-10"/>
<text text-anchor="start" x="515.1732" y="-15.4" font-family="sans-serif" font-size="14.00" fill="#000000"> &#160;Providers</text>
<polygon fill="#fb8072" stroke="transparent" points="587.5,-10 587.5,-30 607.5,-30 607.5,-10 587.5,-10"/>
<text text-anchor="start" x="611.2258" y="-15.4" font-family="sans-serif" font-size="14.00" fill="#000000"> &#160;Exports</text>
<g id="clust1" class="cluster">
<title>cluster_ChartTypesModule</title>
<polygon fill="none" stroke="#000000" stroke-dasharray="1,5" points="8,-70 8,-195 851,-195 851,-70 8,-70"/>
</g>
<g id="clust2" class="cluster">
<title>cluster_ChartTypesModule_declarations</title>
<polygon fill="none" stroke="#000000" points="451,-78 451,-130 843,-130 843,-78 451,-78"/>
</g>
<g id="clust6" class="cluster">
<title>cluster_ChartTypesModule_imports</title>
<polygon fill="none" stroke="#000000" points="16,-78 16,-130 443,-130 443,-78 16,-78"/>
</g>
<!-- BrowseComponent -->
<g id="node1" class="node">
<title>BrowseComponent</title>
<polygon fill="#ffffb3" stroke="#000000" points="835.0954,-122 710.9046,-122 710.9046,-86 835.0954,-86 835.0954,-122"/>
<text text-anchor="middle" x="773" y="-99.8" font-family="Times,serif" font-size="14.00" fill="#000000">BrowseComponent</text>
</g>
<!-- ChartTypesModule -->
<g id="node4" class="node">
<title>ChartTypesModule</title>
<polygon fill="#8dd3c7" stroke="#000000" points="494.3641,-187 491.3641,-191 470.3641,-191 467.3641,-187 369.6359,-187 369.6359,-151 494.3641,-151 494.3641,-187"/>
<text text-anchor="middle" x="432" y="-164.8" font-family="Times,serif" font-size="14.00" fill="#000000">ChartTypesModule</text>
</g>
<!-- BrowseComponent&#45;&gt;ChartTypesModule -->
<g id="edge1" class="edge">
<title>BrowseComponent&#45;&gt;ChartTypesModule</title>
<path fill="none" stroke="#000000" d="M773,-122.2843C773,-143.3211 773,-175 773,-175 773,-175 504.5447,-175 504.5447,-175"/>
<polygon fill="#000000" stroke="#000000" points="504.5447,-171.5001 494.5447,-175 504.5446,-178.5001 504.5447,-171.5001"/>
</g>
<!-- EditComponent -->
<g id="node2" class="node">
<title>EditComponent</title>
<polygon fill="#ffffb3" stroke="#000000" points="693.1667,-122 588.8333,-122 588.8333,-86 693.1667,-86 693.1667,-122"/>
<text text-anchor="middle" x="641" y="-99.8" font-family="Times,serif" font-size="14.00" fill="#000000">EditComponent</text>
</g>
<!-- EditComponent&#45;&gt;ChartTypesModule -->
<g id="edge2" class="edge">
<title>EditComponent&#45;&gt;ChartTypesModule</title>
<path fill="none" stroke="#000000" d="M641,-122.0225C641,-139.3734 641,-163 641,-163 641,-163 504.4238,-163 504.4238,-163"/>
<polygon fill="#000000" stroke="#000000" points="504.4238,-159.5001 494.4238,-163 504.4238,-166.5001 504.4238,-159.5001"/>
</g>
<!-- ViewComponent -->
<g id="node3" class="node">
<title>ViewComponent</title>
<polygon fill="#ffffb3" stroke="#000000" points="570.6513,-122 459.3487,-122 459.3487,-86 570.6513,-86 570.6513,-122"/>
<text text-anchor="middle" x="515" y="-99.8" font-family="Times,serif" font-size="14.00" fill="#000000">ViewComponent</text>
</g>
<!-- ViewComponent&#45;&gt;ChartTypesModule -->
<g id="edge3" class="edge">
<title>ViewComponent&#45;&gt;ChartTypesModule</title>
<path fill="none" stroke="#000000" d="M476.8033,-122.1061C476.8033,-122.1061 476.8033,-140.991 476.8033,-140.991"/>
<polygon fill="#000000" stroke="#000000" points="473.3034,-140.9909 476.8033,-150.991 480.3034,-140.991 473.3034,-140.9909"/>
</g>
<!-- ChartTypesRoutingModule -->
<g id="node5" class="node">
<title>ChartTypesRoutingModule</title>
<polygon fill="#8dd3c7" stroke="#000000" points="434.9818,-122 431.9818,-126 410.9818,-126 407.9818,-122 265.0182,-122 265.0182,-86 434.9818,-86 434.9818,-122"/>
<text text-anchor="middle" x="350" y="-99.8" font-family="Times,serif" font-size="14.00" fill="#000000">ChartTypesRoutingModule</text>
</g>
<!-- ChartTypesRoutingModule&#45;&gt;ChartTypesModule -->
<g id="edge4" class="edge">
<title>ChartTypesRoutingModule&#45;&gt;ChartTypesModule</title>
<path fill="none" stroke="#000000" d="M402.2795,-122.1061C402.2795,-122.1061 402.2795,-140.991 402.2795,-140.991"/>
<polygon fill="#000000" stroke="#000000" points="398.7795,-140.9909 402.2795,-150.991 405.7795,-140.991 398.7795,-140.9909"/>
</g>
<!-- MaterialModule -->
<g id="node6" class="node">
<title>MaterialModule</title>
<polygon fill="#8dd3c7" stroke="#000000" points="247.4706,-122 244.4706,-126 223.4706,-126 220.4706,-122 140.5294,-122 140.5294,-86 247.4706,-86 247.4706,-122"/>
<text text-anchor="middle" x="194" y="-99.8" font-family="Times,serif" font-size="14.00" fill="#000000">MaterialModule</text>
</g>
<!-- MaterialModule&#45;&gt;ChartTypesModule -->
<g id="edge5" class="edge">
<title>MaterialModule&#45;&gt;ChartTypesModule</title>
<path fill="none" stroke="#000000" d="M194,-122.0225C194,-139.3734 194,-163 194,-163 194,-163 359.4683,-163 359.4683,-163"/>
<polygon fill="#000000" stroke="#000000" points="359.4683,-166.5001 369.4683,-163 359.4683,-159.5001 359.4683,-166.5001"/>
</g>
<!-- SharedModule -->
<g id="node7" class="node">
<title>SharedModule</title>
<polygon fill="#8dd3c7" stroke="#000000" points="122.4231,-122 119.4231,-126 98.4231,-126 95.4231,-122 23.5769,-122 23.5769,-86 122.4231,-86 122.4231,-122"/>
<text text-anchor="middle" x="73" y="-99.8" font-family="Times,serif" font-size="14.00" fill="#000000">SharedModule</text>
</g>
<!-- SharedModule&#45;&gt;ChartTypesModule -->
<g id="edge6" class="edge">
<title>SharedModule&#45;&gt;ChartTypesModule</title>
<path fill="none" stroke="#000000" d="M73,-122.2843C73,-143.3211 73,-175 73,-175 73,-175 359.467,-175 359.467,-175"/>
<polygon fill="#000000" stroke="#000000" points="359.467,-178.5001 369.467,-175 359.4669,-171.5001 359.467,-178.5001"/>
</g>
</g>
</svg>
