<?xml version="1.0" encoding="UTF-8" standalone="no"?>
<!DOCTYPE svg PUBLIC "-//W3C//DTD SVG 1.1//EN"
 "http://www.w3.org/Graphics/SVG/1.1/DTD/svg11.dtd">
<!-- Generated by graphviz version 2.40.1 (20161225.0304)
 -->
<!-- Title: dependencies Pages: 1 -->
<svg width="504pt" height="211pt"
 viewBox="0.00 0.00 504.00 211.00" xmlns="http://www.w3.org/2000/svg" xmlns:xlink="http://www.w3.org/1999/xlink">
<g id="graph0" class="graph" transform="scale(1 1) rotate(0) translate(4 207)">
<title>dependencies</title>
<polygon fill="#ffffff" stroke="transparent" points="-4,4 -4,-207 500,-207 500,4 -4,4"/>
<text text-anchor="start" x="227.0091" y="-42.4" font-family="sans-serif" font-weight="bold" font-size="14.00" fill="#000000">Legend</text>
<polygon fill="#ffffb3" stroke="transparent" points="14,-10 14,-30 34,-30 34,-10 14,-10"/>
<text text-anchor="start" x="37.629" y="-15.4" font-family="sans-serif" font-size="14.00" fill="#000000"> &#160;Declarations</text>
<polygon fill="#8dd3c7" stroke="transparent" points="127,-10 127,-30 147,-30 147,-10 127,-10"/>
<text text-anchor="start" x="150.7251" y="-15.4" font-family="sans-serif" font-size="14.00" fill="#000000"> &#160;Module</text>
<polygon fill="#80b1d3" stroke="transparent" points="213,-10 213,-30 233,-30 233,-10 213,-10"/>
<text text-anchor="start" x="236.7812" y="-15.4" font-family="sans-serif" font-size="14.00" fill="#000000"> &#160;Bootstrap</text>
<polygon fill="#fdb462" stroke="transparent" points="310,-10 310,-30 330,-30 330,-10 310,-10"/>
<text text-anchor="start" x="333.6732" y="-15.4" font-family="sans-serif" font-size="14.00" fill="#000000"> &#160;Providers</text>
<polygon fill="#fb8072" stroke="transparent" points="406,-10 406,-30 426,-30 426,-10 406,-10"/>
<text text-anchor="start" x="429.7258" y="-15.4" font-family="sans-serif" font-size="14.00" fill="#000000"> &#160;Exports</text>
<g id="clust1" class="cluster">
<title>cluster_VisualizationsModule</title>
<polygon fill="none" stroke="#000000" stroke-dasharray="1,5" points="19,-70 19,-195 477,-195 477,-70 19,-70"/>
</g>
<g id="clust3" class="cluster">
<title>cluster_VisualizationsModule_imports</title>
<polygon fill="none" stroke="#000000" points="27,-78 27,-130 469,-130 469,-78 27,-78"/>
</g>
<!-- MaterialModule -->
<g id="node1" class="node">
<title>MaterialModule</title>
<polygon fill="#8dd3c7" stroke="#000000" points="461.4706,-122 458.4706,-126 437.4706,-126 434.4706,-122 354.5294,-122 354.5294,-86 461.4706,-86 461.4706,-122"/>
<text text-anchor="middle" x="408" y="-99.8" font-family="Times,serif" font-size="14.00" fill="#000000">MaterialModule</text>
</g>
<!-- VisualizationsModule -->
<g id="node4" class="node">
<title>VisualizationsModule</title>
<polygon fill="#8dd3c7" stroke="#000000" points="356.6429,-187 353.6429,-191 332.6429,-191 329.6429,-187 217.3571,-187 217.3571,-151 356.6429,-151 356.6429,-187"/>
<text text-anchor="middle" x="287" y="-164.8" font-family="Times,serif" font-size="14.00" fill="#000000">VisualizationsModule</text>
</g>
<!-- MaterialModule&#45;&gt;VisualizationsModule -->
<g id="edge1" class="edge">
<title>MaterialModule&#45;&gt;VisualizationsModule</title>
<path fill="none" stroke="#000000" d="M354.3373,-104C348.9193,-104 345.3629,-104 345.3629,-104 345.3629,-104 345.3629,-140.8939 345.3629,-140.8939"/>
<polygon fill="#000000" stroke="#000000" points="341.863,-140.8938 345.3629,-150.8939 348.863,-140.8939 341.863,-140.8938"/>
</g>
<!-- SharedModule -->
<g id="node2" class="node">
<title>SharedModule</title>
<polygon fill="#8dd3c7" stroke="#000000" points="336.4231,-122 333.4231,-126 312.4231,-126 309.4231,-122 237.5769,-122 237.5769,-86 336.4231,-86 336.4231,-122"/>
<text text-anchor="middle" x="287" y="-99.8" font-family="Times,serif" font-size="14.00" fill="#000000">SharedModule</text>
</g>
<!-- SharedModule&#45;&gt;VisualizationsModule -->
<g id="edge2" class="edge">
<title>SharedModule&#45;&gt;VisualizationsModule</title>
<path fill="none" stroke="#000000" d="M287,-122.1061C287,-122.1061 287,-140.991 287,-140.991"/>
<polygon fill="#000000" stroke="#000000" points="283.5001,-140.9909 287,-150.991 290.5001,-140.991 283.5001,-140.9909"/>
</g>
<!-- VisualizationsRoutingModule -->
<g id="node3" class="node">
<title>VisualizationsRoutingModule</title>
<polygon fill="#8dd3c7" stroke="#000000" points="219.2604,-122 216.2604,-126 195.2604,-126 192.2604,-122 34.7396,-122 34.7396,-86 219.2604,-86 219.2604,-122"/>
<text text-anchor="middle" x="127" y="-99.8" font-family="Times,serif" font-size="14.00" fill="#000000">VisualizationsRoutingModule</text>
</g>
<!-- VisualizationsRoutingModule&#45;&gt;VisualizationsModule -->
<g id="edge3" class="edge">
<title>VisualizationsRoutingModule&#45;&gt;VisualizationsModule</title>
<path fill="none" stroke="#000000" d="M219.5696,-104C225.1604,-104 228.5845,-104 228.5845,-104 228.5845,-104 228.5845,-140.8939 228.5845,-140.8939"/>
<polygon fill="#000000" stroke="#000000" points="225.0846,-140.8938 228.5845,-150.8939 232.0846,-140.8939 225.0846,-140.8938"/>
</g>
</g>
</svg>
