<?xml version="1.0" encoding="UTF-8" standalone="no"?>
<!DOCTYPE svg PUBLIC "-//W3C//DTD SVG 1.1//EN"
 "http://www.w3.org/Graphics/SVG/1.1/DTD/svg11.dtd">
<!-- Generated by graphviz version 2.40.1 (20161225.0304)
 -->
<!-- Title: dependencies Pages: 1 -->
<svg width="810pt" height="211pt"
 viewBox="0.00 0.00 810.00 211.00" xmlns="http://www.w3.org/2000/svg" xmlns:xlink="http://www.w3.org/1999/xlink">
<g id="graph0" class="graph" transform="scale(1 1) rotate(0) translate(4 207)">
<title>dependencies</title>
<polygon fill="#ffffff" stroke="transparent" points="-4,4 -4,-207 806,-207 806,4 -4,4"/>
<text text-anchor="start" x="380.0091" y="-42.4" font-family="sans-serif" font-weight="bold" font-size="14.00" fill="#000000">Legend</text>
<polygon fill="#ffffb3" stroke="transparent" points="167,-10 167,-30 187,-30 187,-10 167,-10"/>
<text text-anchor="start" x="190.629" y="-15.4" font-family="sans-serif" font-size="14.00" fill="#000000"> &#160;Declarations</text>
<polygon fill="#8dd3c7" stroke="transparent" points="280,-10 280,-30 300,-30 300,-10 280,-10"/>
<text text-anchor="start" x="303.7251" y="-15.4" font-family="sans-serif" font-size="14.00" fill="#000000"> &#160;Module</text>
<polygon fill="#80b1d3" stroke="transparent" points="366,-10 366,-30 386,-30 386,-10 366,-10"/>
<text text-anchor="start" x="389.7812" y="-15.4" font-family="sans-serif" font-size="14.00" fill="#000000"> &#160;Bootstrap</text>
<polygon fill="#fdb462" stroke="transparent" points="463,-10 463,-30 483,-30 483,-10 463,-10"/>
<text text-anchor="start" x="486.6732" y="-15.4" font-family="sans-serif" font-size="14.00" fill="#000000"> &#160;Providers</text>
<polygon fill="#fb8072" stroke="transparent" points="559,-10 559,-30 579,-30 579,-10 559,-10"/>
<text text-anchor="start" x="582.7258" y="-15.4" font-family="sans-serif" font-size="14.00" fill="#000000"> &#160;Exports</text>
<g id="clust1" class="cluster">
<title>cluster_VisualizationsModule</title>
<polygon fill="none" stroke="#000000" stroke-dasharray="1,5" points="8,-70 8,-195 794,-195 794,-70 8,-70"/>
</g>
<g id="clust2" class="cluster">
<title>cluster_VisualizationsModule_declarations</title>
<polygon fill="none" stroke="#000000" points="466,-78 466,-130 786,-130 786,-78 466,-78"/>
</g>
<g id="clust5" class="cluster">
<title>cluster_VisualizationsModule_imports</title>
<polygon fill="none" stroke="#000000" points="16,-78 16,-130 458,-130 458,-78 16,-78"/>
</g>
<!-- VegaViewerComponent -->
<g id="node1" class="node">
<title>VegaViewerComponent</title>
<polygon fill="#ffffb3" stroke="#000000" points="778.0618,-122 625.9382,-122 625.9382,-86 778.0618,-86 778.0618,-122"/>
<text text-anchor="middle" x="702" y="-99.8" font-family="Times,serif" font-size="14.00" fill="#000000">VegaViewerComponent</text>
</g>
<!-- VisualizationsModule -->
<g id="node3" class="node">
<title>VisualizationsModule</title>
<polygon fill="#8dd3c7" stroke="#000000" points="466.6429,-187 463.6429,-191 442.6429,-191 439.6429,-187 327.3571,-187 327.3571,-151 466.6429,-151 466.6429,-187"/>
<text text-anchor="middle" x="397" y="-164.8" font-family="Times,serif" font-size="14.00" fill="#000000">VisualizationsModule</text>
</g>
<!-- VegaViewerComponent&#45;&gt;VisualizationsModule -->
<g id="edge1" class="edge">
<title>VegaViewerComponent&#45;&gt;VisualizationsModule</title>
<path fill="none" stroke="#000000" d="M702,-122.1061C702,-141.3391 702,-169 702,-169 702,-169 476.9732,-169 476.9732,-169"/>
<polygon fill="#000000" stroke="#000000" points="476.9732,-165.5001 466.9732,-169 476.9731,-172.5001 476.9732,-165.5001"/>
</g>
<!-- VisualizeComponent -->
<g id="node2" class="node">
<title>VisualizeComponent</title>
<polygon fill="#ffffb3" stroke="#000000" points="608.1993,-122 473.8007,-122 473.8007,-86 608.1993,-86 608.1993,-122"/>
<text text-anchor="middle" x="541" y="-99.8" font-family="Times,serif" font-size="14.00" fill="#000000">VisualizeComponent</text>
</g>
<!-- VisualizeComponent&#45;&gt;VisualizationsModule -->
<g id="edge2" class="edge">
<title>VisualizeComponent&#45;&gt;VisualizationsModule</title>
<path fill="none" stroke="#000000" d="M473.7569,-104C464.8102,-104 458.6533,-104 458.6533,-104 458.6533,-104 458.6533,-140.8939 458.6533,-140.8939"/>
<polygon fill="#000000" stroke="#000000" points="455.1533,-140.8938 458.6533,-150.8939 462.1533,-140.8939 455.1533,-140.8938"/>
</g>
<!-- MaterialModule -->
<g id="node4" class="node">
<title>MaterialModule</title>
<polygon fill="#8dd3c7" stroke="#000000" points="450.4706,-122 447.4706,-126 426.4706,-126 423.4706,-122 343.5294,-122 343.5294,-86 450.4706,-86 450.4706,-122"/>
<text text-anchor="middle" x="397" y="-99.8" font-family="Times,serif" font-size="14.00" fill="#000000">MaterialModule</text>
</g>
<!-- MaterialModule&#45;&gt;VisualizationsModule -->
<g id="edge3" class="edge">
<title>MaterialModule&#45;&gt;VisualizationsModule</title>
<path fill="none" stroke="#000000" d="M397,-122.1061C397,-122.1061 397,-140.991 397,-140.991"/>
<polygon fill="#000000" stroke="#000000" points="393.5001,-140.9909 397,-150.991 400.5001,-140.991 393.5001,-140.9909"/>
</g>
<!-- SharedModule -->
<g id="node5" class="node">
<title>SharedModule</title>
<polygon fill="#8dd3c7" stroke="#000000" points="325.4231,-122 322.4231,-126 301.4231,-126 298.4231,-122 226.5769,-122 226.5769,-86 325.4231,-86 325.4231,-122"/>
<text text-anchor="middle" x="276" y="-99.8" font-family="Times,serif" font-size="14.00" fill="#000000">SharedModule</text>
</g>
<!-- SharedModule&#45;&gt;VisualizationsModule -->
<g id="edge4" class="edge">
<title>SharedModule&#45;&gt;VisualizationsModule</title>
<path fill="none" stroke="#000000" d="M325.2794,-104C331.2817,-104 335.3468,-104 335.3468,-104 335.3468,-104 335.3468,-140.8939 335.3468,-140.8939"/>
<polygon fill="#000000" stroke="#000000" points="331.8468,-140.8938 335.3468,-150.8939 338.8468,-140.8939 331.8468,-140.8938"/>
</g>
<!-- VisualizationsRoutingModule -->
<g id="node6" class="node">
<title>VisualizationsRoutingModule</title>
<polygon fill="#8dd3c7" stroke="#000000" points="208.2604,-122 205.2604,-126 184.2604,-126 181.2604,-122 23.7396,-122 23.7396,-86 208.2604,-86 208.2604,-122"/>
<text text-anchor="middle" x="116" y="-99.8" font-family="Times,serif" font-size="14.00" fill="#000000">VisualizationsRoutingModule</text>
</g>
<!-- VisualizationsRoutingModule&#45;&gt;VisualizationsModule -->
<g id="edge5" class="edge">
<title>VisualizationsRoutingModule&#45;&gt;VisualizationsModule</title>
<path fill="none" stroke="#000000" d="M116,-122.1061C116,-141.3391 116,-169 116,-169 116,-169 317.1783,-169 317.1783,-169"/>
<polygon fill="#000000" stroke="#000000" points="317.1783,-172.5001 327.1783,-169 317.1782,-165.5001 317.1783,-172.5001"/>
</g>
</g>
</svg>
