<?xml version="1.0" encoding="utf-8"?>
<!-- Generator: Adobe Illustrator 16.0.0, SVG Export Plug-In . SVG Version: 6.00 Build 0)  -->
<!DOCTYPE svg PUBLIC "-//W3C//DTD SVG 1.1//EN" "http://www.w3.org/Graphics/SVG/1.1/DTD/svg11.dtd">
<svg version="1.1" xmlns="http://www.w3.org/2000/svg" xmlns:xlink="http://www.w3.org/1999/xlink" x="0px" y="0px" width="320px"
	 height="320px" viewBox="212.047363 0 320 320" style="enable-background:new 212.047363 0 320 320;" xml:space="preserve">
<g id="svg2" xmlns:inkscape="http://www.inkscape.org/namespaces/inkscape" xmlns:svg="http://www.w3.org/2000/svg" xmlns:cc="http://creativecommons.org/ns#" xmlns:dc="http://purl.org/dc/elements/1.1/" xmlns:rdf="http://www.w3.org/1999/02/22-rdf-syntax-ns#" xmlns:sodipodi="http://sodipodi.sourceforge.net/DTD/sodipodi-0.dtd" sodipodi:version="0.32" inkscape:version="0.46+pre4" sodipodi:docname="man silhouette.svg" inkscape:output_extension="org.inkscape.output.svg.inkscape">
	<rect x="212.047363" style="fill:#F9F9F9;" width="320" height="320"/>
	<defs>
		
		
			<inkscape:perspective  id="perspective10" inkscape:persp3d-origin="372.04724 : 350.78739 : 1" sodipodi:type="inkscape:persp3d" inkscape:vp_z="744.09448 : 526.18109 : 1" inkscape:vp_y="0 : 1000 : 0" inkscape:vp_x="0 : 526.18109 : 1">
			</inkscape:perspective>
		
			<inkscape:perspective  id="perspective2390" inkscape:persp3d-origin="372.04724 : 350.78739 : 1" sodipodi:type="inkscape:persp3d" inkscape:vp_z="744.09448 : 526.18109 : 1" inkscape:vp_y="0 : 1000 : 0" inkscape:vp_x="0 : 526.18109 : 1">
			</inkscape:perspective>
	</defs>
	
		<sodipodi:namedview  pagecolor="#ffffff" inkscape:cx="-23.571429" inkscape:cy="520" borderopacity="1.0" showgrid="false" bordercolor="#666666" inkscape:zoom="0.35" id="base" inkscape:window-x="-4" inkscape:document-units="px" inkscape:window-y="-4" inkscape:pageopacity="0.0" inkscape:current-layer="layer1" inkscape:pageshadow="2" inkscape:window-width="1280" inkscape:window-height="975" guidetolerance="10" objecttolerance="10" gridtolerance="10000">
		</sodipodi:namedview>
	<path style="fill:#DDDDDD;stroke:#CCCCCC;stroke-miterlimit:10;" d="M532.547363,256.79248
		c-1.182617-7.313965-5.576172-13.452148-13.106445-18.232422c-4.983398-3.164063-9.688477-5.752441-10.455078-5.752441
		c-0.768555,0-11.939453-4.142578-24.827148-9.207031c-12.886719-5.063477-25.785156-9.739746-28.660156-10.38916
		c-2.875977-0.650391-8.523438-5.41748-12.549805-10.595703c-4.026367-5.17627-8.960938-9.975098-10.967773-10.662109
		c-10.766602-3.689941-13.366211-20.172363-5.80957-36.827148c2.274414-5.01416,4.157227-10.819824,4.182617-12.899902
		c0.025391-2.081055,2.791016-7.257324,6.146484-11.503906c8.921875-11.291992,14.227539-35.578613,8.540039-39.093262
		c-1.171875-0.724609-2.092773-10.657227-2.095703-22.607422c-0.001953-16.158691-0.886719-23.049805-3.65918-28.486816
		c-5.513672-10.814453-16.87207-18.833496-29.500977-20.830078c-6.34668-1.00293-12.883789-3.593262-15.666016-6.207031
		c-3.682617-3.460449-7.369141-4.477539-16.142578-4.454102c-22.450195,0.060059-46.576172,13.095703-59.069336,31.91748
		c-8.847656,13.330078-11.556641,27.787109-11.124023,59.381836c0.223633,16.353027,0.953613,20.107422,4.968262,25.536133
		c2.587891,3.501465,4.706055,7.308105,4.706055,8.460449s1.774902,3.77832,3.944336,5.836426
		c2.17041,2.057617,4.641113,7.976563,5.491211,13.153809c0.850098,5.175781,2.839844,11.267578,4.421387,13.537109
		c1.581543,2.269043,2.875,7.588867,2.875,11.821777c0,6.725098-0.817871,7.980957-6.47998,9.955078
		c-3.564941,1.242676-9.91748,5.972168-14.118652,10.509766c-8.8125,9.520508-26.662598,16.020508-67.163574,24.461914
		c-13.18457,2.74707-25.052734,6.174316-26.375977,7.616699c-2.271484,2.476074-5.715332,12.257324-8.503418,23.479004V320.5h321
		V256.79248z"/>
</g>
<g id="Layer_2" style="display:none;">
	<rect x="212.047363" style="display:inline;fill:none;stroke:#CCCCCC;stroke-miterlimit:10;" width="320" height="319.999512"/>
</g>
</svg>
