<?xml version="1.0" encoding="UTF-8" standalone="no"?>
<!DOCTYPE svg PUBLIC "-//W3C//DTD SVG 1.1//EN"
 "http://www.w3.org/Graphics/SVG/1.1/DTD/svg11.dtd">
<!-- Generated by graphviz version 2.40.1 (20161225.0304)
 -->
<!-- Title: dependencies Pages: 1 -->
<svg width="5007pt" height="290pt"
 viewBox="0.00 0.00 5007.00 290.00" xmlns="http://www.w3.org/2000/svg" xmlns:xlink="http://www.w3.org/1999/xlink">
<g id="graph0" class="graph" transform="scale(1 1) rotate(0) translate(4 286)">
<title>dependencies</title>
<polygon fill="#ffffff" stroke="transparent" points="-4,4 -4,-286 5003,-286 5003,4 -4,4"/>
<text text-anchor="start" x="2478.5091" y="-42.4" font-family="sans-serif" font-weight="bold" font-size="14.00" fill="#000000">Legend</text>
<polygon fill="#ffffb3" stroke="transparent" points="2265.5,-10 2265.5,-30 2285.5,-30 2285.5,-10 2265.5,-10"/>
<text text-anchor="start" x="2289.129" y="-15.4" font-family="sans-serif" font-size="14.00" fill="#000000"> &#160;Declarations</text>
<polygon fill="#8dd3c7" stroke="transparent" points="2378.5,-10 2378.5,-30 2398.5,-30 2398.5,-10 2378.5,-10"/>
<text text-anchor="start" x="2402.2251" y="-15.4" font-family="sans-serif" font-size="14.00" fill="#000000"> &#160;Module</text>
<polygon fill="#80b1d3" stroke="transparent" points="2464.5,-10 2464.5,-30 2484.5,-30 2484.5,-10 2464.5,-10"/>
<text text-anchor="start" x="2488.2812" y="-15.4" font-family="sans-serif" font-size="14.00" fill="#000000"> &#160;Bootstrap</text>
<polygon fill="#fdb462" stroke="transparent" points="2561.5,-10 2561.5,-30 2581.5,-30 2581.5,-10 2561.5,-10"/>
<text text-anchor="start" x="2585.1732" y="-15.4" font-family="sans-serif" font-size="14.00" fill="#000000"> &#160;Providers</text>
<polygon fill="#fb8072" stroke="transparent" points="2657.5,-10 2657.5,-30 2677.5,-30 2677.5,-10 2657.5,-10"/>
<text text-anchor="start" x="2681.2258" y="-15.4" font-family="sans-serif" font-size="14.00" fill="#000000"> &#160;Exports</text>
<g id="clust1" class="cluster">
<title>cluster_AppModule</title>
<polygon fill="none" stroke="#000000" stroke-dasharray="1,5" points="8,-70 8,-274 4655,-274 4655,-70 8,-70"/>
</g>
<g id="clust2" class="cluster">
<title>cluster_AppModule_declarations</title>
<polygon fill="none" stroke="#000000" points="16,-78 16,-130 3012,-130 3012,-78 16,-78"/>
</g>
<g id="clust23" class="cluster">
<title>cluster_AppModule_imports</title>
<polygon fill="none" stroke="#000000" points="3020,-78 3020,-130 4647,-130 4647,-78 3020,-78"/>
</g>
<g id="clust25" class="cluster">
<title>cluster_AppModule_bootstrap</title>
<polygon fill="none" stroke="#000000" points="2401,-214 2401,-266 2525,-266 2525,-214 2401,-214"/>
</g>
<g id="clust27" class="cluster">
<title>cluster_MaterialModule</title>
<polygon fill="none" stroke="#000000" stroke-dasharray="1,5" points="4663,-138 4663,-206 4991,-206 4991,-138 4663,-138"/>
</g>
<g id="clust29" class="cluster">
<title>cluster_MaterialModule_imports</title>
<polygon fill="none" stroke="#000000" points="4833,-146 4833,-198 4983,-198 4983,-146 4833,-146"/>
</g>
<g id="clust30" class="cluster">
<title>cluster_MaterialModule_exports</title>
<polygon fill="none" stroke="#000000" points="4671,-146 4671,-198 4825,-198 4825,-146 4671,-146"/>
</g>
<!-- AppComponent -->
<g id="node1" class="node">
<title>AppComponent</title>
<polygon fill="#ffffb3" stroke="#000000" points="3003.9399,-122 2898.0601,-122 2898.0601,-86 3003.9399,-86 3003.9399,-122"/>
<text text-anchor="middle" x="2951" y="-99.8" font-family="Times,serif" font-size="14.00" fill="#000000">AppComponent</text>
</g>
<!-- AppModule -->
<g id="node21" class="node">
<title>AppModule</title>
<polygon fill="#8dd3c7" stroke="#000000" points="2504.6571,-190 2501.6571,-194 2480.6571,-194 2477.6571,-190 2421.3429,-190 2421.3429,-154 2504.6571,-154 2504.6571,-190"/>
<text text-anchor="middle" x="2463" y="-167.8" font-family="Times,serif" font-size="14.00" fill="#000000">AppModule</text>
</g>
<!-- AppComponent&#45;&gt;AppModule -->
<g id="edge1" class="edge">
<title>AppComponent&#45;&gt;AppModule</title>
<path fill="none" stroke="#000000" d="M2951,-122.0352C2951,-138.7344 2951,-161 2951,-161 2951,-161 2515.029,-161 2515.029,-161"/>
<polygon fill="#000000" stroke="#000000" points="2515.029,-157.5001 2505.029,-161 2515.0289,-164.5001 2515.029,-157.5001"/>
</g>
<!-- SearchBarComponent -->
<g id="node2" class="node">
<title>SearchBarComponent</title>
<polygon fill="#ffffb3" stroke="#000000" points="2879.6317,-122 2740.3683,-122 2740.3683,-86 2879.6317,-86 2879.6317,-122"/>
<text text-anchor="middle" x="2810" y="-99.8" font-family="Times,serif" font-size="14.00" fill="#000000">SearchBarComponent</text>
</g>
<!-- SearchBarComponent&#45;&gt;AppModule -->
<g id="edge2" class="edge">
<title>SearchBarComponent&#45;&gt;AppModule</title>
<path fill="none" stroke="#000000" d="M2810,-122.0091C2810,-138.0494 2810,-159 2810,-159 2810,-159 2514.8563,-159 2514.8563,-159"/>
<polygon fill="#000000" stroke="#000000" points="2514.8563,-155.5001 2504.8563,-159 2514.8563,-162.5001 2514.8563,-155.5001"/>
</g>
<!-- LogoComponent -->
<g id="node3" class="node">
<title>LogoComponent</title>
<polygon fill="#ffffb3" stroke="#000000" points="2722.3851,-122 2611.6149,-122 2611.6149,-86 2722.3851,-86 2722.3851,-122"/>
<text text-anchor="middle" x="2667" y="-99.8" font-family="Times,serif" font-size="14.00" fill="#000000">LogoComponent</text>
</g>
<!-- LogoComponent&#45;&gt;AppModule -->
<g id="edge3" class="edge">
<title>LogoComponent&#45;&gt;AppModule</title>
<path fill="none" stroke="#000000" d="M2667,-122.2396C2667,-137.5706 2667,-157 2667,-157 2667,-157 2514.7747,-157 2514.7747,-157"/>
<polygon fill="#000000" stroke="#000000" points="2514.7747,-153.5001 2504.7747,-157 2514.7747,-160.5001 2514.7747,-153.5001"/>
</g>
<!-- AboutComponent -->
<g id="node4" class="node">
<title>AboutComponent</title>
<polygon fill="#ffffb3" stroke="#000000" points="2593.3301,-122 2476.6699,-122 2476.6699,-86 2593.3301,-86 2593.3301,-122"/>
<text text-anchor="middle" x="2535" y="-99.8" font-family="Times,serif" font-size="14.00" fill="#000000">AboutComponent</text>
</g>
<!-- AboutComponent&#45;&gt;AppModule -->
<g id="edge4" class="edge">
<title>AboutComponent&#45;&gt;AppModule</title>
<path fill="none" stroke="#000000" d="M2490.8317,-122.2228C2490.8317,-122.2228 2490.8317,-143.7269 2490.8317,-143.7269"/>
<polygon fill="#000000" stroke="#000000" points="2487.3318,-143.7269 2490.8317,-153.7269 2494.3318,-143.727 2487.3318,-143.7269"/>
</g>
<!-- VisualizeComponent -->
<g id="node5" class="node">
<title>VisualizeComponent</title>
<polygon fill="#ffffb3" stroke="#000000" points="2459.1993,-122 2324.8007,-122 2324.8007,-86 2459.1993,-86 2459.1993,-122"/>
<text text-anchor="middle" x="2392" y="-99.8" font-family="Times,serif" font-size="14.00" fill="#000000">VisualizeComponent</text>
</g>
<!-- VisualizeComponent&#45;&gt;AppModule -->
<g id="edge5" class="edge">
<title>VisualizeComponent&#45;&gt;AppModule</title>
<path fill="none" stroke="#000000" d="M2440.1357,-122.2228C2440.1357,-122.2228 2440.1357,-143.7269 2440.1357,-143.7269"/>
<polygon fill="#000000" stroke="#000000" points="2436.6358,-143.7269 2440.1357,-153.7269 2443.6358,-143.727 2436.6358,-143.7269"/>
</g>
<!-- SimulateComponent -->
<g id="node6" class="node">
<title>SimulateComponent</title>
<polygon fill="#ffffb3" stroke="#000000" points="2306.6066,-122 2175.3934,-122 2175.3934,-86 2306.6066,-86 2306.6066,-122"/>
<text text-anchor="middle" x="2241" y="-99.8" font-family="Times,serif" font-size="14.00" fill="#000000">SimulateComponent</text>
</g>
<!-- SimulateComponent&#45;&gt;AppModule -->
<g id="edge6" class="edge">
<title>SimulateComponent&#45;&gt;AppModule</title>
<path fill="none" stroke="#000000" d="M2241,-122.2396C2241,-137.5706 2241,-157 2241,-157 2241,-157 2411.2435,-157 2411.2435,-157"/>
<polygon fill="#000000" stroke="#000000" points="2411.2435,-160.5001 2421.2435,-157 2411.2435,-153.5001 2411.2435,-160.5001"/>
</g>
<!-- HomeComponent -->
<g id="node7" class="node">
<title>HomeComponent</title>
<polygon fill="#ffffb3" stroke="#000000" points="2157.5451,-122 2042.4549,-122 2042.4549,-86 2157.5451,-86 2157.5451,-122"/>
<text text-anchor="middle" x="2100" y="-99.8" font-family="Times,serif" font-size="14.00" fill="#000000">HomeComponent</text>
</g>
<!-- HomeComponent&#45;&gt;AppModule -->
<g id="edge7" class="edge">
<title>HomeComponent&#45;&gt;AppModule</title>
<path fill="none" stroke="#000000" d="M2100,-122.0091C2100,-138.0494 2100,-159 2100,-159 2100,-159 2411.0047,-159 2411.0047,-159"/>
<polygon fill="#000000" stroke="#000000" points="2411.0047,-162.5001 2421.0047,-159 2411.0046,-155.5001 2411.0047,-162.5001"/>
</g>
<!-- VegaViewerComponent -->
<g id="node8" class="node">
<title>VegaViewerComponent</title>
<polygon fill="#ffffb3" stroke="#000000" points="2024.0618,-122 1871.9382,-122 1871.9382,-86 2024.0618,-86 2024.0618,-122"/>
<text text-anchor="middle" x="1948" y="-99.8" font-family="Times,serif" font-size="14.00" fill="#000000">VegaViewerComponent</text>
</g>
<!-- VegaViewerComponent&#45;&gt;AppModule -->
<g id="edge8" class="edge">
<title>VegaViewerComponent&#45;&gt;AppModule</title>
<path fill="none" stroke="#000000" d="M1948,-122.0352C1948,-138.7344 1948,-161 1948,-161 1948,-161 2411.2916,-161 2411.2916,-161"/>
<polygon fill="#000000" stroke="#000000" points="2411.2917,-164.5001 2421.2916,-161 2411.2916,-157.5001 2411.2917,-164.5001"/>
</g>
<!-- FourComponent -->
<g id="node9" class="node">
<title>FourComponent</title>
<polygon fill="#ffffb3" stroke="#000000" points="1853.7758,-122 1746.2242,-122 1746.2242,-86 1853.7758,-86 1853.7758,-122"/>
<text text-anchor="middle" x="1800" y="-99.8" font-family="Times,serif" font-size="14.00" fill="#000000">FourComponent</text>
</g>
<!-- FourComponent&#45;&gt;AppModule -->
<g id="edge9" class="edge">
<title>FourComponent&#45;&gt;AppModule</title>
<path fill="none" stroke="#000000" d="M1800,-122.0225C1800,-139.3734 1800,-163 1800,-163 1800,-163 2411.2752,-163 2411.2752,-163"/>
<polygon fill="#000000" stroke="#000000" points="2411.2753,-166.5001 2421.2752,-163 2411.2752,-159.5001 2411.2753,-166.5001"/>
</g>
<!-- UnderConstructionComponent -->
<g id="node10" class="node">
<title>UnderConstructionComponent</title>
<polygon fill="#ffffb3" stroke="#000000" points="1728.1427,-122 1539.8573,-122 1539.8573,-86 1728.1427,-86 1728.1427,-122"/>
<text text-anchor="middle" x="1634" y="-99.8" font-family="Times,serif" font-size="14.00" fill="#000000">UnderConstructionComponent</text>
</g>
<!-- UnderConstructionComponent&#45;&gt;AppModule -->
<g id="edge10" class="edge">
<title>UnderConstructionComponent&#45;&gt;AppModule</title>
<path fill="none" stroke="#000000" d="M1634,-122.2667C1634,-140.5552 1634,-166 1634,-166 1634,-166 2411.3216,-166 2411.3216,-166"/>
<polygon fill="#000000" stroke="#000000" points="2411.3217,-169.5001 2421.3216,-166 2411.3216,-162.5001 2411.3217,-169.5001"/>
</g>
<!-- NavigationComponent -->
<g id="node11" class="node">
<title>NavigationComponent</title>
<polygon fill="#ffffb3" stroke="#000000" points="1521.5407,-122 1378.4593,-122 1378.4593,-86 1521.5407,-86 1521.5407,-122"/>
<text text-anchor="middle" x="1450" y="-99.8" font-family="Times,serif" font-size="14.00" fill="#000000">NavigationComponent</text>
</g>
<!-- NavigationComponent&#45;&gt;AppModule -->
<g id="edge11" class="edge">
<title>NavigationComponent&#45;&gt;AppModule</title>
<path fill="none" stroke="#000000" d="M1450,-122.1686C1450,-141.0898 1450,-168 1450,-168 1450,-168 2411.082,-168 2411.082,-168"/>
<polygon fill="#000000" stroke="#000000" points="2411.0821,-171.5001 2421.082,-168 2411.082,-164.5001 2411.0821,-171.5001"/>
</g>
<!-- LinksComponent -->
<g id="node12" class="node">
<title>LinksComponent</title>
<polygon fill="#ffffb3" stroke="#000000" points="1360.7204,-122 1247.2796,-122 1247.2796,-86 1360.7204,-86 1360.7204,-122"/>
<text text-anchor="middle" x="1304" y="-99.8" font-family="Times,serif" font-size="14.00" fill="#000000">LinksComponent</text>
</g>
<!-- LinksComponent&#45;&gt;AppModule -->
<g id="edge12" class="edge">
<title>LinksComponent&#45;&gt;AppModule</title>
<path fill="none" stroke="#000000" d="M1304,-122.0348C1304,-141.5762 1304,-170 1304,-170 1304,-170 2411.0659,-170 2411.0659,-170"/>
<polygon fill="#000000" stroke="#000000" points="2411.0659,-173.5001 2421.0659,-170 2411.0658,-166.5001 2411.0659,-173.5001"/>
</g>
<!-- CallbackComponent -->
<g id="node13" class="node">
<title>CallbackComponent</title>
<polygon fill="#ffffb3" stroke="#000000" points="1229.594,-122 1098.406,-122 1098.406,-86 1229.594,-86 1229.594,-122"/>
<text text-anchor="middle" x="1164" y="-99.8" font-family="Times,serif" font-size="14.00" fill="#000000">CallbackComponent</text>
</g>
<!-- CallbackComponent&#45;&gt;AppModule -->
<g id="edge13" class="edge">
<title>CallbackComponent&#45;&gt;AppModule</title>
<path fill="none" stroke="#000000" d="M1164,-122.2228C1164,-142.3652 1164,-172 1164,-172 1164,-172 2411.2512,-172 2411.2512,-172"/>
<polygon fill="#000000" stroke="#000000" points="2411.2512,-175.5001 2421.2512,-172 2411.2511,-168.5001 2411.2512,-175.5001"/>
</g>
<!-- ProfileComponent -->
<g id="node14" class="node">
<title>ProfileComponent</title>
<polygon fill="#ffffb3" stroke="#000000" points="1080.9328,-122 961.0672,-122 961.0672,-86 1080.9328,-86 1080.9328,-122"/>
<text text-anchor="middle" x="1021" y="-99.8" font-family="Times,serif" font-size="14.00" fill="#000000">ProfileComponent</text>
</g>
<!-- ProfileComponent&#45;&gt;AppModule -->
<g id="edge14" class="edge">
<title>ProfileComponent&#45;&gt;AppModule</title>
<path fill="none" stroke="#000000" d="M1021,-122.2843C1021,-143.3211 1021,-175 1021,-175 1021,-175 2411.0126,-175 2411.0126,-175"/>
<polygon fill="#000000" stroke="#000000" points="2411.0126,-178.5001 2421.0126,-175 2411.0125,-171.5001 2411.0126,-178.5001"/>
</g>
<!-- UploadComponent -->
<g id="node15" class="node">
<title>UploadComponent</title>
<polygon fill="#ffffb3" stroke="#000000" points="943.045,-122 820.955,-122 820.955,-86 943.045,-86 943.045,-122"/>
<text text-anchor="middle" x="882" y="-99.8" font-family="Times,serif" font-size="14.00" fill="#000000">UploadComponent</text>
</g>
<!-- UploadComponent&#45;&gt;AppModule -->
<g id="edge15" class="edge">
<title>UploadComponent&#45;&gt;AppModule</title>
<path fill="none" stroke="#000000" d="M882,-122.0449C882,-143.6623 882,-177 882,-177 882,-177 2411.1193,-177 2411.1193,-177"/>
<polygon fill="#000000" stroke="#000000" points="2411.1193,-180.5001 2421.1193,-177 2411.1193,-173.5001 2411.1193,-180.5001"/>
</g>
<!-- FileEditComponent -->
<g id="node16" class="node">
<title>FileEditComponent</title>
<polygon fill="#ffffb3" stroke="#000000" points="803.4454,-122 676.5546,-122 676.5546,-86 803.4454,-86 803.4454,-122"/>
<text text-anchor="middle" x="740" y="-99.8" font-family="Times,serif" font-size="14.00" fill="#000000">FileEditComponent</text>
</g>
<!-- FileEditComponent&#45;&gt;AppModule -->
<g id="edge16" class="edge">
<title>FileEditComponent&#45;&gt;AppModule</title>
<path fill="none" stroke="#000000" d="M740,-122.1554C740,-144.3519 740,-179 740,-179 740,-179 2411.2625,-179 2411.2625,-179"/>
<polygon fill="#000000" stroke="#000000" points="2411.2625,-182.5001 2421.2625,-179 2411.2624,-175.5001 2411.2625,-182.5001"/>
</g>
<!-- AlertComponent -->
<g id="node17" class="node">
<title>AlertComponent</title>
<polygon fill="#ffffb3" stroke="#000000" points="659.0954,-122 548.9046,-122 548.9046,-86 659.0954,-86 659.0954,-122"/>
<text text-anchor="middle" x="604" y="-99.8" font-family="Times,serif" font-size="14.00" fill="#000000">AlertComponent</text>
</g>
<!-- AlertComponent&#45;&gt;AppModule -->
<g id="edge17" class="edge">
<title>AlertComponent&#45;&gt;AppModule</title>
<path fill="none" stroke="#000000" d="M604,-122.2479C604,-145.0179 604,-181 604,-181 604,-181 2411.1236,-181 2411.1236,-181"/>
<polygon fill="#000000" stroke="#000000" points="2411.1236,-184.5001 2421.1236,-181 2411.1236,-177.5001 2411.1236,-184.5001"/>
</g>
<!-- NewSimulationComponent -->
<g id="node18" class="node">
<title>NewSimulationComponent</title>
<polygon fill="#ffffb3" stroke="#000000" points="530.7105,-122 361.2895,-122 361.2895,-86 530.7105,-86 530.7105,-122"/>
<text text-anchor="middle" x="446" y="-99.8" font-family="Times,serif" font-size="14.00" fill="#000000">NewSimulationComponent</text>
</g>
<!-- NewSimulationComponent&#45;&gt;AppModule -->
<g id="edge18" class="edge">
<title>NewSimulationComponent&#45;&gt;AppModule</title>
<path fill="none" stroke="#000000" d="M446,-122.1532C446,-145.7566 446,-184 446,-184 446,-184 2411.3351,-184 2411.3351,-184"/>
<polygon fill="#000000" stroke="#000000" points="2411.3351,-187.5001 2421.3351,-184 2411.335,-180.5001 2411.3351,-187.5001"/>
</g>
<!-- PastSimulationComponent -->
<g id="node19" class="node">
<title>PastSimulationComponent</title>
<polygon fill="#ffffb3" stroke="#000000" points="343.115,-122 176.885,-122 176.885,-86 343.115,-86 343.115,-122"/>
<text text-anchor="middle" x="260" y="-99.8" font-family="Times,serif" font-size="14.00" fill="#000000">PastSimulationComponent</text>
</g>
<!-- PastSimulationComponent&#45;&gt;AppModule -->
<g id="edge19" class="edge">
<title>PastSimulationComponent&#45;&gt;AppModule</title>
<path fill="none" stroke="#000000" d="M260,-122.1985C260,-146.3563 260,-186 260,-186 260,-186 2410.9593,-186 2410.9593,-186"/>
<polygon fill="#000000" stroke="#000000" points="2410.9593,-189.5001 2420.9593,-186 2410.9593,-182.5001 2410.9593,-189.5001"/>
</g>
<!-- FileTableComponent -->
<g id="node20" class="node">
<title>FileTableComponent</title>
<polygon fill="#ffffb3" stroke="#000000" points="158.4832,-122 23.5168,-122 23.5168,-86 158.4832,-86 158.4832,-122"/>
<text text-anchor="middle" x="91" y="-99.8" font-family="Times,serif" font-size="14.00" fill="#000000">FileTableComponent</text>
</g>
<!-- FileTableComponent&#45;&gt;AppModule -->
<g id="edge20" class="edge">
<title>FileTableComponent&#45;&gt;AppModule</title>
<path fill="none" stroke="#000000" d="M91,-122.2267C91,-146.9318 91,-188 91,-188 91,-188 2411.3276,-188 2411.3276,-188"/>
<polygon fill="#000000" stroke="#000000" points="2411.3276,-191.5001 2421.3276,-188 2411.3275,-184.5001 2411.3276,-191.5001"/>
</g>
<!-- AppComponent  -->
<g id="node34" class="node">
<title>AppComponent </title>
<polygon fill="#80b1d3" stroke="#000000" points="2517.439,-258 2408.561,-258 2408.561,-222 2517.439,-222 2517.439,-258"/>
<text text-anchor="middle" x="2463" y="-235.8" font-family="Times,serif" font-size="14.00" fill="#000000">AppComponent </text>
</g>
<!-- AppModule&#45;&gt;AppComponent  -->
<g id="edge33" class="edge">
<title>AppModule&#45;&gt;AppComponent </title>
<path fill="none" stroke="#000000" stroke-dasharray="1,5" d="M2463,-190.2228C2463,-190.2228 2463,-211.7269 2463,-211.7269"/>
<polygon fill="#000000" stroke="#000000" points="2459.5001,-211.7269 2463,-221.7269 2466.5001,-211.727 2459.5001,-211.7269"/>
</g>
<!-- BrowserModule -->
<g id="node22" class="node">
<title>BrowserModule</title>
<polygon fill="#8dd3c7" stroke="#000000" points="4514.4734,-122 4511.4734,-126 4490.4734,-126 4487.4734,-122 4407.5266,-122 4407.5266,-86 4514.4734,-86 4514.4734,-122"/>
<text text-anchor="middle" x="4461" y="-99.8" font-family="Times,serif" font-size="14.00" fill="#000000">BrowserModule</text>
</g>
<!-- BrowserModule&#45;&gt;AppModule -->
<g id="edge21" class="edge">
<title>BrowserModule&#45;&gt;AppModule</title>
<path fill="none" stroke="#000000" d="M4461,-122.1532C4461,-145.7566 4461,-184 4461,-184 4461,-184 2514.7311,-184 2514.7311,-184"/>
<polygon fill="#000000" stroke="#000000" points="2514.7311,-180.5001 2504.7311,-184 2514.731,-187.5001 2514.7311,-180.5001"/>
</g>
<!-- AppRoutingModule -->
<g id="node23" class="node">
<title>AppRoutingModule</title>
<polygon fill="#8dd3c7" stroke="#000000" points="4389.2744,-122 4386.2744,-126 4365.2744,-126 4362.2744,-122 4260.7256,-122 4260.7256,-86 4389.2744,-86 4389.2744,-122"/>
<text text-anchor="middle" x="4325" y="-99.8" font-family="Times,serif" font-size="14.00" fill="#000000">AppRoutingModule</text>
</g>
<!-- AppRoutingModule&#45;&gt;AppModule -->
<g id="edge22" class="edge">
<title>AppRoutingModule&#45;&gt;AppModule</title>
<path fill="none" stroke="#000000" d="M4325,-122.0908C4325,-145.1328 4325,-182 4325,-182 4325,-182 2514.944,-182 2514.944,-182"/>
<polygon fill="#000000" stroke="#000000" points="2514.944,-178.5001 2504.944,-182 2514.9439,-185.5001 2514.944,-178.5001"/>
</g>
<!-- BrowserAnimationsModule -->
<g id="node24" class="node">
<title>BrowserAnimationsModule</title>
<polygon fill="#8dd3c7" stroke="#000000" points="4242.3019,-122 4239.3019,-126 4218.3019,-126 4215.3019,-122 4069.6981,-122 4069.6981,-86 4242.3019,-86 4242.3019,-122"/>
<text text-anchor="middle" x="4156" y="-99.8" font-family="Times,serif" font-size="14.00" fill="#000000">BrowserAnimationsModule</text>
</g>
<!-- BrowserAnimationsModule&#45;&gt;AppModule -->
<g id="edge23" class="edge">
<title>BrowserAnimationsModule&#45;&gt;AppModule</title>
<path fill="none" stroke="#000000" d="M4156,-122.0109C4156,-144.4852 4156,-180 4156,-180 4156,-180 2514.8497,-180 2514.8497,-180"/>
<polygon fill="#000000" stroke="#000000" points="2514.8497,-176.5001 2504.8497,-180 2514.8496,-183.5001 2514.8497,-176.5001"/>
</g>
<!-- FormsModule -->
<g id="node25" class="node">
<title>FormsModule</title>
<polygon fill="#8dd3c7" stroke="#000000" points="4051.8288,-122 4048.8288,-126 4027.8288,-126 4024.8288,-122 3956.1712,-122 3956.1712,-86 4051.8288,-86 4051.8288,-122"/>
<text text-anchor="middle" x="4004" y="-99.8" font-family="Times,serif" font-size="14.00" fill="#000000">FormsModule</text>
</g>
<!-- FormsModule&#45;&gt;AppModule -->
<g id="edge24" class="edge">
<title>FormsModule&#45;&gt;AppModule</title>
<path fill="none" stroke="#000000" d="M4004,-122.2921C4004,-144.2057 4004,-178 4004,-178 4004,-178 2515.0172,-178 2515.0172,-178"/>
<polygon fill="#000000" stroke="#000000" points="2515.0173,-174.5001 2505.0172,-178 2515.0172,-181.5001 2515.0173,-174.5001"/>
</g>
<!-- HttpClientModule -->
<g id="node26" class="node">
<title>HttpClientModule</title>
<polygon fill="#8dd3c7" stroke="#000000" points="3938.1611,-122 3935.1611,-126 3914.1611,-126 3911.1611,-122 3819.8389,-122 3819.8389,-86 3938.1611,-86 3938.1611,-122"/>
<text text-anchor="middle" x="3879" y="-99.8" font-family="Times,serif" font-size="14.00" fill="#000000">HttpClientModule</text>
</g>
<!-- HttpClientModule&#45;&gt;AppModule -->
<g id="edge25" class="edge">
<title>HttpClientModule&#45;&gt;AppModule</title>
<path fill="none" stroke="#000000" d="M3879,-122.1686C3879,-143.498 3879,-176 3879,-176 3879,-176 2514.9939,-176 2514.9939,-176"/>
<polygon fill="#000000" stroke="#000000" points="2514.9939,-172.5001 2504.9939,-176 2514.9939,-179.5001 2514.9939,-172.5001"/>
</g>
<!-- MaterialModule -->
<g id="node27" class="node">
<title>MaterialModule</title>
<polygon fill="#8dd3c7" stroke="#000000" points="4639.4706,-122 4636.4706,-126 4615.4706,-126 4612.4706,-122 4532.5294,-122 4532.5294,-86 4639.4706,-86 4639.4706,-122"/>
<text text-anchor="middle" x="4586" y="-99.8" font-family="Times,serif" font-size="14.00" fill="#000000">MaterialModule</text>
</g>
<!-- MaterialModule&#45;&gt;AppModule -->
<g id="edge26" class="edge">
<title>MaterialModule&#45;&gt;AppModule</title>
<path fill="none" stroke="#000000" d="M4568.1716,-122.1985C4568.1716,-146.3563 4568.1716,-186 4568.1716,-186 4568.1716,-186 2515.0516,-186 2515.0516,-186"/>
<polygon fill="#000000" stroke="#000000" points="2515.0516,-182.5001 2505.0516,-186 2515.0516,-189.5001 2515.0516,-182.5001"/>
</g>
<!-- MaterialComponents  -->
<g id="node36" class="node">
<title>MaterialComponents </title>
<polygon fill="#fb8072" stroke="#000000" points="4816.6981,-190 4679.3019,-190 4679.3019,-154 4816.6981,-154 4816.6981,-190"/>
<text text-anchor="middle" x="4748" y="-167.8" font-family="Times,serif" font-size="14.00" fill="#000000">MaterialComponents </text>
</g>
<!-- MaterialModule&#45;&gt;MaterialComponents  -->
<g id="edge35" class="edge">
<title>MaterialModule&#45;&gt;MaterialComponents </title>
<path fill="none" stroke="#000000" stroke-dasharray="5,2" d="M4603.8284,-122.2267C4603.8284,-146.9318 4603.8284,-188 4603.8284,-188 4603.8284,-188 4669.2921,-188 4669.2921,-188"/>
<polygon fill="#000000" stroke="#000000" points="4669.2922,-191.5001 4679.2921,-188 4669.2921,-184.5001 4669.2922,-191.5001"/>
</g>
<!-- LayoutModule -->
<g id="node28" class="node">
<title>LayoutModule</title>
<polygon fill="#8dd3c7" stroke="#000000" points="3679.7078,-122 3676.7078,-126 3655.7078,-126 3652.7078,-122 3580.2922,-122 3580.2922,-86 3679.7078,-86 3679.7078,-122"/>
<text text-anchor="middle" x="3630" y="-99.8" font-family="Times,serif" font-size="14.00" fill="#000000">LayoutModule</text>
</g>
<!-- LayoutModule&#45;&gt;AppModule -->
<g id="edge27" class="edge">
<title>LayoutModule&#45;&gt;AppModule</title>
<path fill="none" stroke="#000000" d="M3630,-122.308C3630,-142.1455 3630,-171 3630,-171 3630,-171 2514.8782,-171 2514.8782,-171"/>
<polygon fill="#000000" stroke="#000000" points="2514.8783,-167.5001 2504.8782,-171 2514.8782,-174.5001 2514.8783,-167.5001"/>
</g>
<!-- MatToolbarModule -->
<g id="node29" class="node">
<title>MatToolbarModule</title>
<polygon fill="#8dd3c7" stroke="#000000" points="3562.4187,-122 3559.4187,-126 3538.4187,-126 3535.4187,-122 3435.5813,-122 3435.5813,-86 3562.4187,-86 3562.4187,-122"/>
<text text-anchor="middle" x="3499" y="-99.8" font-family="Times,serif" font-size="14.00" fill="#000000">MatToolbarModule</text>
</g>
<!-- MatToolbarModule&#45;&gt;AppModule -->
<g id="edge28" class="edge">
<title>MatToolbarModule&#45;&gt;AppModule</title>
<path fill="none" stroke="#000000" d="M3499,-122.1061C3499,-141.3391 3499,-169 3499,-169 3499,-169 2514.8956,-169 2514.8956,-169"/>
<polygon fill="#000000" stroke="#000000" points="2514.8956,-165.5001 2504.8956,-169 2514.8955,-172.5001 2514.8956,-165.5001"/>
</g>
<!-- MatButtonModule -->
<g id="node30" class="node">
<title>MatButtonModule</title>
<polygon fill="#8dd3c7" stroke="#000000" points="3418.2176,-122 3415.2176,-126 3394.2176,-126 3391.2176,-122 3297.7824,-122 3297.7824,-86 3418.2176,-86 3418.2176,-122"/>
<text text-anchor="middle" x="3358" y="-99.8" font-family="Times,serif" font-size="14.00" fill="#000000">MatButtonModule</text>
</g>
<!-- MatButtonModule&#45;&gt;AppModule -->
<g id="edge29" class="edge">
<title>MatButtonModule&#45;&gt;AppModule</title>
<path fill="none" stroke="#000000" d="M3358,-122.2222C3358,-140.8285 3358,-167 3358,-167 3358,-167 2514.6695,-167 2514.6695,-167"/>
<polygon fill="#000000" stroke="#000000" points="2514.6696,-163.5001 2504.6695,-167 2514.6695,-170.5001 2514.6696,-163.5001"/>
</g>
<!-- MatSidenavModule -->
<g id="node31" class="node">
<title>MatSidenavModule</title>
<polygon fill="#8dd3c7" stroke="#000000" points="3279.7022,-122 3276.7022,-126 3255.7022,-126 3252.7022,-122 3152.2978,-122 3152.2978,-86 3279.7022,-86 3279.7022,-122"/>
<text text-anchor="middle" x="3216" y="-99.8" font-family="Times,serif" font-size="14.00" fill="#000000">MatSidenavModule</text>
</g>
<!-- MatSidenavModule&#45;&gt;AppModule -->
<g id="edge30" class="edge">
<title>MatSidenavModule&#45;&gt;AppModule</title>
<path fill="none" stroke="#000000" d="M3216,-122.302C3216,-140.2699 3216,-165 3216,-165 3216,-165 2514.8272,-165 2514.8272,-165"/>
<polygon fill="#000000" stroke="#000000" points="2514.8272,-161.5001 2504.8272,-165 2514.8272,-168.5001 2514.8272,-161.5001"/>
</g>
<!-- MatIconModule -->
<g id="node32" class="node">
<title>MatIconModule</title>
<polygon fill="#8dd3c7" stroke="#000000" points="3134.4748,-122 3131.4748,-126 3110.4748,-126 3107.4748,-122 3027.5252,-122 3027.5252,-86 3134.4748,-86 3134.4748,-122"/>
<text text-anchor="middle" x="3081" y="-99.8" font-family="Times,serif" font-size="14.00" fill="#000000">MatIconModule</text>
</g>
<!-- MatIconModule&#45;&gt;AppModule -->
<g id="edge31" class="edge">
<title>MatIconModule&#45;&gt;AppModule</title>
<path fill="none" stroke="#000000" d="M3081,-122.0225C3081,-139.3734 3081,-163 3081,-163 3081,-163 2514.9918,-163 2514.9918,-163"/>
<polygon fill="#000000" stroke="#000000" points="2514.9918,-159.5001 2504.9918,-163 2514.9918,-166.5001 2514.9918,-159.5001"/>
</g>
<!-- MatListModule -->
<g id="node33" class="node">
<title>MatListModule</title>
<polygon fill="#8dd3c7" stroke="#000000" points="3801.8781,-122 3798.8781,-126 3777.8781,-126 3774.8781,-122 3698.1219,-122 3698.1219,-86 3801.8781,-86 3801.8781,-122"/>
<text text-anchor="middle" x="3750" y="-99.8" font-family="Times,serif" font-size="14.00" fill="#000000">MatListModule</text>
</g>
<!-- MatListModule&#45;&gt;AppModule -->
<g id="edge32" class="edge">
<title>MatListModule&#45;&gt;AppModule</title>
<path fill="none" stroke="#000000" d="M3750,-122.0267C3750,-142.7672 3750,-174 3750,-174 3750,-174 2514.7254,-174 2514.7254,-174"/>
<polygon fill="#000000" stroke="#000000" points="2514.7254,-170.5001 2504.7254,-174 2514.7254,-177.5001 2514.7254,-170.5001"/>
</g>
<!-- MaterialComponents -->
<g id="node35" class="node">
<title>MaterialComponents</title>
<polygon fill="#8dd3c7" stroke="#000000" points="4975.1979,-190 4972.1979,-194 4951.1979,-194 4948.1979,-190 4840.8021,-190 4840.8021,-154 4975.1979,-154 4975.1979,-190"/>
<text text-anchor="middle" x="4908" y="-167.8" font-family="Times,serif" font-size="14.00" fill="#000000">MaterialComponents</text>
</g>
<!-- MaterialComponents&#45;&gt;MaterialModule -->
<g id="edge34" class="edge">
<title>MaterialComponents&#45;&gt;MaterialModule</title>
<path fill="none" stroke="#000000" d="M4908,-153.7772C4908,-133.6348 4908,-104 4908,-104 4908,-104 4649.5332,-104 4649.5332,-104"/>
<polygon fill="#000000" stroke="#000000" points="4649.5332,-100.5001 4639.5332,-104 4649.5332,-107.5001 4649.5332,-100.5001"/>
</g>
</g>
</svg>
